<svg width="0" height="0" fill="none" style="visibility: hidden; position: absolute;" aria-hidden="true">
   
     <symbol id="Bold-Chat" viewBox="0 0 20 20"  xmlns="http://www.w3.org/2000/svg">
         <path fill-rule="evenodd" clip-rule="evenodd" d="M0.833008 10.0137C0.833008 5.18478 4.69217 0.833252 10.018 0.833252C15.2247 0.833252 19.1663 5.10216 19.1663 9.98615C19.1663 15.6505 14.5463 19.1666 9.99967 19.1666C8.49634 19.1666 6.82801 18.7626 5.48967 17.9731C5.02217 17.6885 4.62801 17.4774 4.12384 17.6426L2.27217 18.1935C1.80467 18.3403 1.38301 17.9731 1.52051 17.4774L2.13467 15.421C2.23551 15.1364 2.21717 14.8334 2.07051 14.5947C1.28217 13.1442 0.833008 11.556 0.833008 10.0137ZM8.80801 10.0137C8.80801 10.6655 9.33051 11.1888 9.98134 11.198C10.6322 11.198 11.1547 10.6655 11.1547 10.0229C11.1547 9.37106 10.6322 8.84777 9.98134 8.84777C9.33967 8.83859 8.80801 9.37106 8.80801 10.0137ZM13.0338 10.0229C13.0338 10.6655 13.5563 11.198 14.2072 11.198C14.858 11.198 15.3805 10.6655 15.3805 10.0229C15.3805 9.37106 14.858 8.84777 14.2072 8.84777C13.5563 8.84777 13.0338 9.37106 13.0338 10.0229ZM5.75551 11.198C5.11384 11.198 4.58217 10.6655 4.58217 10.0229C4.58217 9.37106 5.10467 8.84777 5.75551 8.84777C6.40634 8.84777 6.92884 9.37106 6.92884 10.0229C6.92884 10.6655 6.40634 11.1888 5.75551 11.198Z" />
    </symbol>
    <symbol id="Like" viewBox="0 0 20 20"  xmlns="http://www.w3.org/2000/svg">
        <g clip-path="url(#clip0_5_4183__Like)">
            <path d="M6.25 8.75H2.08332C0.935 8.75 0 9.685 0 10.8333V17.5C0 18.6483 0.935 19.5833 2.08332 19.5833H4.58332C5.73164 19.5833 6.66664 18.6483 6.66664 17.5V9.16668C6.66668 8.93668 6.48 8.75 6.25 8.75Z"  />
            <path d="M19.9997 11.875C19.9997 11.3742 19.8006 10.9075 19.4581 10.5625C19.8472 10.1367 20.0456 9.56503 19.9906 8.97171C19.8931 7.91253 18.9381 7.08339 17.8172 7.08339H12.6706C12.9247 6.30921 13.3331 4.89007 13.3331 3.75007C13.3331 1.94257 11.7972 0.416748 10.8331 0.416748C9.96724 0.416748 9.34888 0.903428 9.32224 0.924248C9.22306 1.00343 9.16642 1.12343 9.16642 1.25007V4.07507L7.2931 8.13339C7.2356 8.25921 7.2431 8.40507 7.31478 8.52339C7.43728 8.72589 7.49978 8.94257 7.49978 9.16589V17.4992C7.49978 17.7 7.47646 17.9042 7.4281 18.125C7.37892 18.3492 7.51978 18.5708 7.7431 18.6208C8.10892 18.7033 8.46728 18.7492 8.74978 18.7492H16.399C17.3065 18.7492 18.1006 18.1375 18.2865 17.2934C18.3823 16.8592 18.3256 16.4208 18.1365 16.0417C18.7523 15.7317 19.1665 15.0967 19.1665 14.3742C19.1665 14.08 19.099 13.7967 18.9706 13.5408C19.5856 13.2317 19.9997 12.5975 19.9997 11.875Z"  />
        </g>
        <defs>
            <clipPath id="clip0_5_4183__Like">
                <rect width="20" height="20" fill="white" />
            </clipPath>
        </defs>
    </symbol>
    <symbol id="Save" viewBox="0 0 20 20" xmlns="http://www.w3.org/2000/svg">
        <g clip-path="url(#clip0_5_4197__Save)">
            <path d="M19.5519 4.44197L15.7651 0.655176C15.4781 0.368258 15.089 0.207099 14.6833 0.207099H14.0518V5.86762C14.0518 6.24659 13.7446 6.55382 13.3656 6.55382H4.23358C3.85461 6.55382 3.54739 6.24659 3.54739 5.86762V0.207031H1.52989C0.684976 0.207031 0 0.892007 0 1.73699V18.2629C0 19.1078 0.684976 19.7928 1.52989 19.7928H18.4701C19.315 19.7928 20 19.1078 20 18.2629V5.52378C20 5.11808 19.8388 4.72889 19.5519 4.44197Z" />
            <path d="M11.1054 5.20005H12.2786C12.5154 5.20005 12.7073 5.0081 12.7073 4.7714V1.61273C12.7073 1.37597 12.5154 1.18408 12.2786 1.18408H11.1054C10.8686 1.18408 10.6768 1.37597 10.6768 1.61273V4.7714C10.6768 5.0081 10.8687 5.20005 11.1054 5.20005Z"  />
        </g>
        <defs>
            <clipPath id="clip0_5_4197__Save">
                <rect width="20" height="20" fill="white" />
            </clipPath>
        </defs>
    </symbol>
    
    <symbol id="User" viewBox="0 0 20 20"  xmlns="http://www.w3.org/2000/svg">
        <path d="M3.18555 3.82628C3.18555 5.9361 4.90195 7.65244 7.01177 7.65244C9.12164 7.65244 10.838 5.9361 10.838 3.82628C10.838 1.71646 9.12164 0 7.01177 0C4.90195 0 3.18555 1.71646 3.18555 3.82628Z"  />
        <path d="M13.2554 15.9212C13.434 16.0997 13.6681 16.1891 13.9021 16.1891C14.1362 16.1891 14.3703 16.0997 14.5489 15.9211C14.906 15.5639 14.906 14.9848 14.5488 14.6276L13.3663 13.4452L14.5489 12.2625C14.9061 11.9053 14.9061 11.3262 14.5489 10.969C14.1917 10.6119 13.6125 10.6119 13.2553 10.9691L11.4261 12.7984C11.2545 12.97 11.1582 13.2027 11.1582 13.4452C11.1582 13.6878 11.2545 13.9205 11.4261 14.092L13.2554 15.9212Z" />
        <path d="M0.914634 17.4086H8.57293C9.74646 18.8932 11.5626 19.8476 13.5976 19.8476C17.1278 19.8476 20 16.9755 20 13.4452C20 9.91492 17.1278 7.04272 13.5976 7.04272C11.4946 7.04272 9.62531 8.06199 8.4575 9.63236C7.98409 9.53309 7.50049 9.48175 7.0122 9.48175C3.14567 9.48175 0 12.6274 0 16.4939C0 16.9991 0.409512 17.4086 0.914634 17.4086ZM13.5976 8.87199C16.1192 8.87199 18.1707 10.9235 18.1707 13.4452C18.1707 15.9668 16.1192 18.0183 13.5976 18.0183C11.0759 18.0183 9.02439 15.9668 9.02439 13.4452C9.02439 10.9235 11.0759 8.87199 13.5976 8.87199Z"  />
    </symbol>

    <symbol id="Heart"  viewBox="0 0 24 24" xmlns="http://www.w3.org/2000/svg">
        <g id="Iconly/Two-tone/Heart__Heart"  stroke-width="1"  fill-rule="evenodd" stroke-linecap="round" stroke-linejoin="round">
            <g id="Heart__Heart" transform="translate(2.500000, 3.000000)"  stroke-width="1.5">
                <path d="M0.371865331,8.59832177 C-0.701134669,5.24832177 0.552865331,1.41932177 4.06986533,0.28632177 C5.91986533,-0.31067823 7.96186533,0.0413217701 9.49986533,1.19832177 C10.9548653,0.0733217701 13.0718653,-0.30667823 14.9198653,0.28632177 C18.4368653,1.41932177 19.6988653,5.24832177 18.6268653,8.59832177 C16.9568653,13.9083218 9.49986533,17.9983218 9.49986533,17.9983218 C9.49986533,17.9983218 2.09786533,13.9703218 0.371865331,8.59832177 Z" id="Stroke-1__Heart"></path>
                <path d="M13.5,3.7 C14.57,4.046 15.326,5.001 15.417,6.122" id="Stroke-3__Heart" opacity="0.400000006"></path>
            </g>
        </g>
    </symbol>
</svg>