<svg width="0" height="0" fill="none" style="visibility: hidden; position: absolute;" aria-hidden="true">
   
     <symbol id="Bold-Chat" viewBox="0 0 20 20"  xmlns="http://www.w3.org/2000/svg">
         <path fill-rule="evenodd" clip-rule="evenodd" d="M0.833008 10.0137C0.833008 5.18478 4.69217 0.833252 10.018 0.833252C15.2247 0.833252 19.1663 5.10216 19.1663 9.98615C19.1663 15.6505 14.5463 19.1666 9.99967 19.1666C8.49634 19.1666 6.82801 18.7626 5.48967 17.9731C5.02217 17.6885 4.62801 17.4774 4.12384 17.6426L2.27217 18.1935C1.80467 18.3403 1.38301 17.9731 1.52051 17.4774L2.13467 15.421C2.23551 15.1364 2.21717 14.8334 2.07051 14.5947C1.28217 13.1442 0.833008 11.556 0.833008 10.0137ZM8.80801 10.0137C8.80801 10.6655 9.33051 11.1888 9.98134 11.198C10.6322 11.198 11.1547 10.6655 11.1547 10.0229C11.1547 9.37106 10.6322 8.84777 9.98134 8.84777C9.33967 8.83859 8.80801 9.37106 8.80801 10.0137ZM13.0338 10.0229C13.0338 10.6655 13.5563 11.198 14.2072 11.198C14.858 11.198 15.3805 10.6655 15.3805 10.0229C15.3805 9.37106 14.858 8.84777 14.2072 8.84777C13.5563 8.84777 13.0338 9.37106 13.0338 10.0229ZM5.75551 11.198C5.11384 11.198 4.58217 10.6655 4.58217 10.0229C4.58217 9.37106 5.10467 8.84777 5.75551 8.84777C6.40634 8.84777 6.92884 9.37106 6.92884 10.0229C6.92884 10.6655 6.40634 11.1888 5.75551 11.198Z" />
    </symbol>
    <symbol id="Like" viewBox="0 0 20 20"  xmlns="http://www.w3.org/2000/svg">
        <g clip-path="url(#clip0_5_4183__Like)">
            <path d="M6.25 8.75H2.08332C0.935 8.75 0 9.685 0 10.8333V17.5C0 18.6483 0.935 19.5833 2.08332 19.5833H4.58332C5.73164 19.5833 6.66664 18.6483 6.66664 17.5V9.16668C6.66668 8.93668 6.48 8.75 6.25 8.75Z"  />
            <path d="M19.9997 11.875C19.9997 11.3742 19.8006 10.9075 19.4581 10.5625C19.8472 10.1367 20.0456 9.56503 19.9906 8.97171C19.8931 7.91253 18.9381 7.08339 17.8172 7.08339H12.6706C12.9247 6.30921 13.3331 4.89007 13.3331 3.75007C13.3331 1.94257 11.7972 0.416748 10.8331 0.416748C9.96724 0.416748 9.34888 0.903428 9.32224 0.924248C9.22306 1.00343 9.16642 1.12343 9.16642 1.25007V4.07507L7.2931 8.13339C7.2356 8.25921 7.2431 8.40507 7.31478 8.52339C7.43728 8.72589 7.49978 8.94257 7.49978 9.16589V17.4992C7.49978 17.7 7.47646 17.9042 7.4281 18.125C7.37892 18.3492 7.51978 18.5708 7.7431 18.6208C8.10892 18.7033 8.46728 18.7492 8.74978 18.7492H16.399C17.3065 18.7492 18.1006 18.1375 18.2865 17.2934C18.3823 16.8592 18.3256 16.4208 18.1365 16.0417C18.7523 15.7317 19.1665 15.0967 19.1665 14.3742C19.1665 14.08 19.099 13.7967 18.9706 13.5408C19.5856 13.2317 19.9997 12.5975 19.9997 11.875Z"  />
        </g>
        <defs>
            <clipPath id="clip0_5_4183__Like">
                <rect width="20" height="20" fill="white" />
            </clipPath>
        </defs>
    </symbol>
    <symbol id="Save" viewBox="0 0 20 20" xmlns="http://www.w3.org/2000/svg">
        <g clip-path="url(#clip0_5_4197__Save)">
            <path d="M19.5519 4.44197L15.7651 0.655176C15.4781 0.368258 15.089 0.207099 14.6833 0.207099H14.0518V5.86762C14.0518 6.24659 13.7446 6.55382 13.3656 6.55382H4.23358C3.85461 6.55382 3.54739 6.24659 3.54739 5.86762V0.207031H1.52989C0.684976 0.207031 0 0.892007 0 1.73699V18.2629C0 19.1078 0.684976 19.7928 1.52989 19.7928H18.4701C19.315 19.7928 20 19.1078 20 18.2629V5.52378C20 5.11808 19.8388 4.72889 19.5519 4.44197Z" />
            <path d="M11.1054 5.20005H12.2786C12.5154 5.20005 12.7073 5.0081 12.7073 4.7714V1.61273C12.7073 1.37597 12.5154 1.18408 12.2786 1.18408H11.1054C10.8686 1.18408 10.6768 1.37597 10.6768 1.61273V4.7714C10.6768 5.0081 10.8687 5.20005 11.1054 5.20005Z"  />
        </g>
        <defs>
            <clipPath id="clip0_5_4197__Save">
                <rect width="20" height="20" fill="white" />
            </clipPath>
        </defs>
    </symbol>
    
    <symbol id="User" viewBox="0 0 20 20"  xmlns="http://www.w3.org/2000/svg">
        <path d="M3.18555 3.82628C3.18555 5.9361 4.90195 7.65244 7.01177 7.65244C9.12164 7.65244 10.838 5.9361 10.838 3.82628C10.838 1.71646 9.12164 0 7.01177 0C4.90195 0 3.18555 1.71646 3.18555 3.82628Z"  />
        <path d="M13.2554 15.9212C13.434 16.0997 13.6681 16.1891 13.9021 16.1891C14.1362 16.1891 14.3703 16.0997 14.5489 15.9211C14.906 15.5639 14.906 14.9848 14.5488 14.6276L13.3663 13.4452L14.5489 12.2625C14.9061 11.9053 14.9061 11.3262 14.5489 10.969C14.1917 10.6119 13.6125 10.6119 13.2553 10.9691L11.4261 12.7984C11.2545 12.97 11.1582 13.2027 11.1582 13.4452C11.1582 13.6878 11.2545 13.9205 11.4261 14.092L13.2554 15.9212Z" />
        <path d="M0.914634 17.4086H8.57293C9.74646 18.8932 11.5626 19.8476 13.5976 19.8476C17.1278 19.8476 20 16.9755 20 13.4452C20 9.91492 17.1278 7.04272 13.5976 7.04272C11.4946 7.04272 9.62531 8.06199 8.4575 9.63236C7.98409 9.53309 7.50049 9.48175 7.0122 9.48175C3.14567 9.48175 0 12.6274 0 16.4939C0 16.9991 0.409512 17.4086 0.914634 17.4086ZM13.5976 8.87199C16.1192 8.87199 18.1707 10.9235 18.1707 13.4452C18.1707 15.9668 16.1192 18.0183 13.5976 18.0183C11.0759 18.0183 9.02439 15.9668 9.02439 13.4452C9.02439 10.9235 11.0759 8.87199 13.5976 8.87199Z"  />
    </symbol>

    <symbol id="Heart"  viewBox="0 0 24 24" xmlns="http://www.w3.org/2000/svg">
        <g id="Iconly/Two-tone/Heart__Heart"  stroke-width="1"  fill-rule="evenodd" stroke-linecap="round" stroke-linejoin="round">
            <g id="Heart__Heart" transform="translate(2.500000, 3.000000)"  stroke-width="1.5">
                <path d="M0.371865331,8.59832177 C-0.701134669,5.24832177 0.552865331,1.41932177 4.06986533,0.28632177 C5.91986533,-0.31067823 7.96186533,0.0413217701 9.49986533,1.19832177 C10.9548653,0.0733217701 13.0718653,-0.30667823 14.9198653,0.28632177 C18.4368653,1.41932177 19.6988653,5.24832177 18.6268653,8.59832177 C16.9568653,13.9083218 9.49986533,17.9983218 9.49986533,17.9983218 C9.49986533,17.9983218 2.09786533,13.9703218 0.371865331,8.59832177 Z" id="Stroke-1__Heart"></path>
                <path d="M13.5,3.7 C14.57,4.046 15.326,5.001 15.417,6.122" id="Stroke-3__Heart" opacity="0.400000006"></path>
            </g>
        </g>
    </symbol>

    <symbol id="Money-Hand" viewBox="0 0 32 32" xmlns="http://www.w3.org/2000/svg">
        <path d="M28.766 18.2449L19.9806 22.2352C19.4521 22.5503 18.8024 22.6327 18.2157 22.4582L13.3769 21.0667C13.1345 20.9988 12.9891 20.7418 13.0618 20.4945C13.1297 20.2521 13.3866 20.1115 13.6339 20.1794L18.4775 21.5709C18.8363 21.6727 19.2242 21.6242 19.5394 21.4255C19.5491 21.4206 19.5636 21.4109 19.5733 21.4061C19.8254 21.2315 20.0048 20.9842 20.0921 20.6885C20.1891 20.3588 20.1503 20.0097 19.9806 19.7042C19.8109 19.3988 19.5297 19.1758 19.1951 19.0788L16.1115 18.1915C16.1066 18.1915 16.1018 18.1915 16.1018 18.1867L10.0848 16.4606C9.22179 16.2085 8.30058 16.2958 7.49088 16.7127L1.32361 19.8255L4.46543 26.7006C5.83755 25.9927 6.31755 25.7309 6.4727 25.6388C7.16603 25.2267 7.94179 25.0182 8.73209 25.0182C9.09573 25.0182 9.45937 25.0618 9.81815 25.1539L16.0775 26.72C17.8521 27.1612 19.7479 26.8606 21.28 25.8909L30.0751 20.5188C30.623 20.1745 30.8315 19.4618 30.5551 18.8703C30.2497 18.2303 29.4303 17.92 28.766 18.2449Z" fill="#33BFBF"/>
        <path d="M20.0436 18.4776C22.8993 18.337 25.2023 15.937 25.2023 13.0618C25.2023 10.0703 22.7684 7.63635 19.7769 7.63635C16.7854 7.63635 14.3514 10.0703 14.3514 13.0618C14.3514 14.7394 15.1127 16.2909 16.4314 17.3285L19.4423 18.1915C19.6654 18.2545 19.8593 18.3564 20.0436 18.4776ZM18.2545 15.7139C18.2205 15.68 18.2011 15.6364 18.1817 15.5976C18.1575 15.5782 18.1284 15.5685 18.1042 15.5442C17.7502 15.1757 17.5563 14.7054 17.5563 14.2157C17.5563 13.9588 17.7648 13.7551 18.0169 13.7551C18.269 13.7551 18.4775 13.9636 18.4775 14.2157C18.4775 14.5357 18.6375 14.7685 18.7684 14.9091C18.8023 14.943 18.8217 14.9818 18.8411 15.0254C18.8654 15.0448 18.8945 15.0545 18.9187 15.0788C19.1514 15.3212 19.5005 15.4618 19.8739 15.4618C20.5381 15.4618 21.0811 15.0303 21.0811 14.4921C21.0811 13.9588 20.5381 13.5273 19.8739 13.5273C18.7005 13.5273 17.7454 12.6788 17.7454 11.6364C17.7454 10.7345 18.4581 9.98302 19.4133 9.79393V9.43514C19.4133 9.17817 19.6217 8.97453 19.8739 8.97453C20.126 8.97453 20.3345 9.18302 20.3345 9.43514V9.79393C21.2848 9.98302 22.0023 10.7345 22.0023 11.6364C22.0023 11.8933 21.7939 12.097 21.5417 12.097C21.2896 12.097 21.0811 11.8885 21.0811 11.6364C21.0811 11.103 20.5381 10.6667 19.8739 10.6667C19.2096 10.6667 18.6666 11.0982 18.6666 11.6364C18.6666 12.1697 19.2096 12.606 19.8739 12.606C21.0472 12.606 22.0023 13.4545 22.0023 14.497C22.0023 15.3988 21.2896 16.1503 20.3345 16.3394V16.6982C20.3345 16.9551 20.126 17.1588 19.8739 17.1588C19.6217 17.1588 19.4133 16.9503 19.4133 16.6982V16.3394C18.9672 16.2473 18.5551 16.0291 18.2545 15.7139Z" fill="#33BFBF"/>
        <path d="M13.4351 13.0618C13.4351 9.5612 16.2811 6.71514 19.7818 6.71514C23.2824 6.71514 26.1284 9.5612 26.1284 13.0618C26.1284 16.1794 23.8108 18.817 20.8145 19.3164C21.0424 19.7624 21.1199 20.2618 21.0278 20.7467L25.3381 18.7879C26.9042 17.2703 27.7624 15.2388 27.7624 13.057C27.7624 8.65454 24.1842 5.07635 19.7818 5.07635C15.3793 5.07635 11.8011 8.65454 11.8011 13.057C11.8011 14.143 12.0242 15.1854 12.4411 16.1745L14.6763 16.8145C13.8811 15.743 13.4351 14.4436 13.4351 13.0618Z" fill="#33BFBF"/>
    </symbol>

    <symbol id="Order" viewBox="0 0 28 28" fill="none" xmlns="http://www.w3.org/2000/svg">
    <path fill-rule="evenodd" clip-rule="evenodd" d="M14 4.90177C16.6639 4.90177 18.8235 7.06133 18.8235 9.72521C18.8235 12.3891 16.6639 14.5486 14 14.5486C11.336 14.5486 9.17658 12.3891 9.17658 9.72521C9.17658 7.06138 11.336 4.90177 14 4.90177ZM14.4375 18.5821V27.6339L23.3663 24.1622V18.5016L16.3847 21.2163C16.1816 21.2948 15.9557 21.2109 15.8501 21.0281L14.4375 18.5821ZM13.5625 27.6338V18.5821L12.1502 21.0282C12.0376 21.2226 11.798 21.2976 11.5971 21.2091L4.63374 18.5016V24.1621L13.5625 27.6338ZM23.6127 13.6815L14.6321 17.1734L16.4184 20.2673L25.399 16.7754L23.6127 13.6815ZM13.3678 17.1734L4.38721 13.6815L2.60095 16.7754L11.5816 20.2673L13.3678 17.1734ZM14 15.4236C11.6045 15.4236 9.55425 13.9456 8.71151 11.8516L5.39948 13.1394L14 16.4835L22.6004 13.1394L19.2884 11.8516C18.4457 13.9455 16.3955 15.4236 14 15.4236ZM22.8063 9.40288C23.0481 9.40288 23.2438 9.59877 23.2438 9.84038C23.2438 10.082 23.0481 10.2779 22.8063 10.2779H20.7574C20.5158 10.2779 20.3199 10.082 20.3199 9.84038C20.3199 9.59877 20.5158 9.40288 20.7574 9.40288H22.8063ZM13.5625 0.803711C13.5625 0.562102 13.7584 0.366211 14 0.366211C14.2416 0.366211 14.4375 0.562102 14.4375 0.803711V2.8528C14.4375 3.09441 14.2416 3.2903 14 3.2903C13.7584 3.2903 13.5625 3.09441 13.5625 2.8528V0.803711ZM9.14606 2.15838C9.02624 1.94985 9.09816 1.68352 9.30673 1.56365C9.51531 1.44383 9.78164 1.51574 9.90146 1.72432L10.926 3.49888C11.0458 3.70745 10.9739 3.97378 10.7653 4.0936C10.5568 4.21342 10.2904 4.14156 10.1706 3.93293L9.14606 2.15838ZM5.99737 5.54244C5.7888 5.42163 5.71765 5.15454 5.83845 4.94602C5.9592 4.73749 6.2263 4.66623 6.43487 4.78709L8.20937 5.81161C8.4179 5.93241 8.4891 6.19951 8.3683 6.40803C8.24755 6.61655 7.9804 6.68776 7.77187 6.56695L5.99737 5.54244ZM4.96329 10.0476C4.72168 10.0476 4.52579 9.8517 4.52579 9.61009C4.52579 9.36848 4.72168 9.17259 4.96329 9.17259H7.01232C7.25398 9.17259 7.44982 9.36848 7.44982 9.61009C7.44982 9.8517 7.25398 10.0476 7.01232 10.0476H4.96329ZM18.0676 1.83944C18.1874 1.63091 18.4538 1.55895 18.6624 1.67877C18.8709 1.79859 18.9429 2.06497 18.8231 2.27349L17.7986 4.04805C17.6787 4.25663 17.4123 4.32854 17.2038 4.20872C16.9952 4.0889 16.9233 3.82257 17.0432 3.61399L18.0676 1.83944ZM21.45 4.98648C21.6586 4.86562 21.9256 4.93688 22.0464 5.14541C22.1672 5.35393 22.096 5.62102 21.8875 5.74183L20.1129 6.76634C19.9044 6.88715 19.6373 6.81595 19.5165 6.60742C19.3957 6.3989 19.467 6.1318 19.6754 6.011L21.45 4.98648ZM15.8263 7.52557L12.969 10.3829L11.994 9.1558C11.7541 8.85404 11.3151 8.80395 11.0134 9.04375C10.7116 9.28366 10.6615 9.72264 10.9014 10.0244L12.3363 11.8301C12.5844 12.1855 13.0953 12.2342 13.4045 11.9249L16.8151 8.51443C17.088 8.24137 17.088 7.79868 16.8151 7.52557C16.5421 7.25257 16.0994 7.25257 15.8263 7.52557Z" fill="#F8AA4B"/>
    </symbol>

    <symbol id="Medical" viewBox="0 0 22 22" fill="none" xmlns="http://www.w3.org/2000/svg">
        <path d="M18.4304 0C17.1721 0 16.152 1.02008 16.152 2.27842V9.07672H20.0643C20.4202 9.07672 20.7088 8.78814 20.7088 8.43219V2.27842C20.7088 1.02008 19.6887 0 18.4304 0Z" fill="#1F2F3E"/>
        <path d="M7.7929 16.1992C7.7929 12.3057 10.9602 9.09893 14.9058 9.10968V2.55604C14.9058 1.57562 15.2749 0.679895 15.8811 0H4.51306C2.73673 0 1.29126 1.44547 1.29126 3.2218V21.3439C1.29126 21.9237 2.00054 22.2085 2.40157 21.7895L3.22614 20.9284L4.09712 21.7998C4.34849 22.0511 4.75669 22.0511 5.00849 21.7998L5.83392 20.9748L6.66751 21.8015C6.91888 22.0507 7.32407 22.0507 7.57544 21.8015L8.42235 20.9619L9.2697 21.8015C9.52063 22.0507 9.9254 22.0507 10.1768 21.8019L10.3409 21.6395C8.74281 20.3034 7.7929 18.3277 7.7929 16.1992ZM6.50535 5.19922H7.77739V3.92717C7.77739 3.57122 8.06597 3.28264 8.42192 3.28264C8.77788 3.28264 9.06645 3.57122 9.06645 3.92717V5.19922H10.3385C10.6945 5.19922 10.983 5.4878 10.983 5.84375C10.983 6.1997 10.6945 6.48828 10.3385 6.48828H9.06645V7.76033C9.06645 8.11628 8.77788 8.40486 8.42192 8.40486C8.06597 8.40486 7.77739 8.11628 7.77739 7.76033V6.48828H6.50535C6.14939 6.48828 5.86081 6.1997 5.86081 5.84375C5.86081 5.4878 6.14939 5.19922 6.50535 5.19922ZM4.55469 9.71309H8.89458C9.25053 9.71309 9.53911 10.0017 9.53911 10.3576C9.53911 10.7136 9.25053 11.0021 8.89458 11.0021H4.55469C4.19874 11.0021 3.91016 10.7136 3.91016 10.3576C3.91016 10.0017 4.19874 9.71309 4.55469 9.71309ZM6.70528 16.1541H4.5504C4.19444 16.1541 3.90587 15.8655 3.90587 15.5096C3.90587 15.1536 4.19444 14.865 4.5504 14.865H6.70528C7.06123 14.865 7.34981 15.1536 7.34981 15.5096C7.34981 15.8655 7.06123 16.1541 6.70528 16.1541ZM7.13501 13.5803H4.5525C4.19655 13.5803 3.90797 13.2917 3.90797 12.9357C3.90797 12.5798 4.19655 12.2912 4.5525 12.2912H7.13501C7.49096 12.2912 7.77954 12.5798 7.77954 12.9357C7.77954 13.2917 7.49096 13.5803 7.13501 13.5803Z" fill="#1F2F3E"/>
        <path d="M14.8828 10.3984C11.6843 10.3984 9.08203 13.0007 9.08203 16.1992C9.08203 19.3978 11.6843 22 14.8828 22C18.0814 22 20.6836 19.3978 20.6836 16.1992C20.6836 13.0007 18.0814 10.3984 14.8828 10.3984ZM15.5294 18.6815V18.7428C15.5294 19.0987 15.2408 19.3873 14.8848 19.3873C14.5289 19.3873 14.2403 19.0987 14.2403 18.7428V18.7318C13.9516 18.663 13.6837 18.5493 13.4713 18.4103C13.1734 18.2154 13.0899 17.816 13.2848 17.5181C13.4797 17.2202 13.8791 17.1367 14.1771 17.3316C14.4408 17.5042 14.8757 17.5697 15.0894 17.4692C15.2279 17.404 15.3351 17.2649 15.35 17.1309C15.3819 16.8455 14.9348 16.6863 14.6678 16.5809C14.2638 16.4213 13.761 16.2227 13.4691 15.6958C13.053 14.9447 13.4174 13.9544 14.2403 13.6157V13.5833C14.2403 13.2273 14.5289 12.9387 14.8848 12.9387C15.2373 12.9387 15.5232 13.2217 15.5288 13.5728C15.7608 13.6453 15.9746 13.7613 16.1457 13.9192C16.4073 14.1605 16.4238 14.5683 16.1824 14.8299C15.9411 15.0917 15.5333 15.108 15.2717 14.8667C15.1657 14.7689 14.8389 14.7294 14.6969 14.8248C14.6014 14.889 14.564 15.012 14.5967 15.071C14.7328 15.3168 15.4457 15.401 15.9851 15.8214C17.0872 16.6802 16.7037 18.231 15.5294 18.6815Z" fill="#1F2F3E"/>
    </symbol>

    <svg id="Users" viewBox="0 0 22 22" fill="none" xmlns="http://www.w3.org/2000/svg">
        <g clip-path="url(#clip0_94_245)">
            <path d="M11 8.87866C13.0646 8.87866 14.7383 7.20498 14.7383 5.14038C14.7383 3.07579 13.0646 1.4021 11 1.4021C8.9354 1.4021 7.26172 3.07579 7.26172 5.14038C7.26172 7.20498 8.9354 8.87866 11 8.87866Z" fill="#FF6150"/>
            <path d="M18.5625 8.8786C19.8677 8.8786 20.9258 7.82052 20.9258 6.51532C20.9258 5.21012 19.8677 4.15204 18.5625 4.15204C17.2573 4.15204 16.1992 5.21012 16.1992 6.51532C16.1992 7.82052 17.2573 8.8786 18.5625 8.8786Z" fill="#FF6150"/>
            <path d="M3.4375 8.8786C4.7427 8.8786 5.80078 7.82052 5.80078 6.51532C5.80078 5.21012 4.7427 4.15204 3.4375 4.15204C2.1323 4.15204 1.07422 5.21012 1.07422 6.51532C1.07422 7.82052 2.1323 8.8786 3.4375 8.8786Z" fill="#FF6150"/>
            <path d="M5.76598 11.0009C4.8357 10.2387 3.99321 10.3396 2.91758 10.3396C1.30883 10.3396 0 11.6407 0 13.2396V17.9322C0 18.6266 0.566758 19.1912 1.26371 19.1912C4.27264 19.1912 3.91016 19.2456 3.91016 19.0614C3.91016 15.7362 3.5163 13.2977 5.76598 11.0009Z" fill="#FF6150"/>
            <path d="M12.0231 10.3567C10.1443 10.2 8.5113 10.3585 7.10274 11.5212C4.7456 13.4092 5.19922 15.9514 5.19922 19.0613C5.19922 19.8841 5.86868 20.5661 6.70399 20.5661C15.7739 20.5661 16.1349 20.8587 16.6727 19.6676C16.8491 19.2648 16.8008 19.3928 16.8008 15.5396C16.8008 12.4791 14.1508 10.3567 12.0231 10.3567Z" fill="#FF6150"/>
            <path d="M19.0824 10.3396C18.0009 10.3396 17.163 10.2397 16.234 11.0009C18.4669 13.2806 18.0898 15.5528 18.0898 19.0614C18.0898 19.2467 17.7889 19.1911 20.6912 19.1911C21.413 19.1911 22 18.6063 22 17.8875V13.2395C22 11.6407 20.6912 10.3396 19.0824 10.3396Z" fill="#FF6150"/>
        </g>
        <defs>
            <clipPath id="clip0_94_245">
                <rect fill="white"/>
            </clipPath>
        </defs>
    </svg>


</svg>