<svg width="22" height="22" viewBox="0 0 22 22" fill="none" xmlns="http://www.w3.org/2000/svg">
<g clip-path="url(#clip0_94_245)">
<path d="M11 8.87866C13.0646 8.87866 14.7383 7.20498 14.7383 5.14038C14.7383 3.07579 13.0646 1.4021 11 1.4021C8.9354 1.4021 7.26172 3.07579 7.26172 5.14038C7.26172 7.20498 8.9354 8.87866 11 8.87866Z" fill="#FF6150"/>
<path d="M18.5625 8.8786C19.8677 8.8786 20.9258 7.82052 20.9258 6.51532C20.9258 5.21012 19.8677 4.15204 18.5625 4.15204C17.2573 4.15204 16.1992 5.21012 16.1992 6.51532C16.1992 7.82052 17.2573 8.8786 18.5625 8.8786Z" fill="#FF6150"/>
<path d="M3.4375 8.8786C4.7427 8.8786 5.80078 7.82052 5.80078 6.51532C5.80078 5.21012 4.7427 4.15204 3.4375 4.15204C2.1323 4.15204 1.07422 5.21012 1.07422 6.51532C1.07422 7.82052 2.1323 8.8786 3.4375 8.8786Z" fill="#FF6150"/>
<path d="M5.76598 11.0009C4.8357 10.2387 3.99321 10.3396 2.91758 10.3396C1.30883 10.3396 0 11.6407 0 13.2396V17.9322C0 18.6266 0.566758 19.1912 1.26371 19.1912C4.27264 19.1912 3.91016 19.2456 3.91016 19.0614C3.91016 15.7362 3.5163 13.2977 5.76598 11.0009Z" fill="#FF6150"/>
<path d="M12.0231 10.3567C10.1443 10.2 8.5113 10.3585 7.10274 11.5212C4.7456 13.4092 5.19922 15.9514 5.19922 19.0613C5.19922 19.8841 5.86868 20.5661 6.70399 20.5661C15.7739 20.5661 16.1349 20.8587 16.6727 19.6676C16.8491 19.2648 16.8008 19.3928 16.8008 15.5396C16.8008 12.4791 14.1508 10.3567 12.0231 10.3567Z" fill="#FF6150"/>
<path d="M19.0824 10.3396C18.0009 10.3396 17.163 10.2397 16.234 11.0009C18.4669 13.2806 18.0898 15.5528 18.0898 19.0614C18.0898 19.2467 17.7889 19.1911 20.6912 19.1911C21.413 19.1911 22 18.6063 22 17.8875V13.2395C22 11.6407 20.6912 10.3396 19.0824 10.3396Z" fill="#FF6150"/>
</g>
<defs>
<clipPath id="clip0_94_245">
<rect width="22" height="22" fill="white"/>
</clipPath>
</defs>
</svg>
