<svg width="22" height="22" viewBox="0 0 22 22" fill="none" xmlns="http://www.w3.org/2000/svg">
<path d="M18.4304 0C17.1721 0 16.152 1.02008 16.152 2.27842V9.07672H20.0643C20.4202 9.07672 20.7088 8.78814 20.7088 8.43219V2.27842C20.7088 1.02008 19.6887 0 18.4304 0Z" fill="#1F2F3E"/>
<path d="M7.7929 16.1992C7.7929 12.3057 10.9602 9.09893 14.9058 9.10968V2.55604C14.9058 1.57562 15.2749 0.679895 15.8811 0H4.51306C2.73673 0 1.29126 1.44547 1.29126 3.2218V21.3439C1.29126 21.9237 2.00054 22.2085 2.40157 21.7895L3.22614 20.9284L4.09712 21.7998C4.34849 22.0511 4.75669 22.0511 5.00849 21.7998L5.83392 20.9748L6.66751 21.8015C6.91888 22.0507 7.32407 22.0507 7.57544 21.8015L8.42235 20.9619L9.2697 21.8015C9.52063 22.0507 9.9254 22.0507 10.1768 21.8019L10.3409 21.6395C8.74281 20.3034 7.7929 18.3277 7.7929 16.1992ZM6.50535 5.19922H7.77739V3.92717C7.77739 3.57122 8.06597 3.28264 8.42192 3.28264C8.77788 3.28264 9.06645 3.57122 9.06645 3.92717V5.19922H10.3385C10.6945 5.19922 10.983 5.4878 10.983 5.84375C10.983 6.1997 10.6945 6.48828 10.3385 6.48828H9.06645V7.76033C9.06645 8.11628 8.77788 8.40486 8.42192 8.40486C8.06597 8.40486 7.77739 8.11628 7.77739 7.76033V6.48828H6.50535C6.14939 6.48828 5.86081 6.1997 5.86081 5.84375C5.86081 5.4878 6.14939 5.19922 6.50535 5.19922ZM4.55469 9.71309H8.89458C9.25053 9.71309 9.53911 10.0017 9.53911 10.3576C9.53911 10.7136 9.25053 11.0021 8.89458 11.0021H4.55469C4.19874 11.0021 3.91016 10.7136 3.91016 10.3576C3.91016 10.0017 4.19874 9.71309 4.55469 9.71309ZM6.70528 16.1541H4.5504C4.19444 16.1541 3.90587 15.8655 3.90587 15.5096C3.90587 15.1536 4.19444 14.865 4.5504 14.865H6.70528C7.06123 14.865 7.34981 15.1536 7.34981 15.5096C7.34981 15.8655 7.06123 16.1541 6.70528 16.1541ZM7.13501 13.5803H4.5525C4.19655 13.5803 3.90797 13.2917 3.90797 12.9357C3.90797 12.5798 4.19655 12.2912 4.5525 12.2912H7.13501C7.49096 12.2912 7.77954 12.5798 7.77954 12.9357C7.77954 13.2917 7.49096 13.5803 7.13501 13.5803Z" fill="#1F2F3E"/>
<path d="M14.8828 10.3984C11.6843 10.3984 9.08203 13.0007 9.08203 16.1992C9.08203 19.3978 11.6843 22 14.8828 22C18.0814 22 20.6836 19.3978 20.6836 16.1992C20.6836 13.0007 18.0814 10.3984 14.8828 10.3984ZM15.5294 18.6815V18.7428C15.5294 19.0987 15.2408 19.3873 14.8848 19.3873C14.5289 19.3873 14.2403 19.0987 14.2403 18.7428V18.7318C13.9516 18.663 13.6837 18.5493 13.4713 18.4103C13.1734 18.2154 13.0899 17.816 13.2848 17.5181C13.4797 17.2202 13.8791 17.1367 14.1771 17.3316C14.4408 17.5042 14.8757 17.5697 15.0894 17.4692C15.2279 17.404 15.3351 17.2649 15.35 17.1309C15.3819 16.8455 14.9348 16.6863 14.6678 16.5809C14.2638 16.4213 13.761 16.2227 13.4691 15.6958C13.053 14.9447 13.4174 13.9544 14.2403 13.6157V13.5833C14.2403 13.2273 14.5289 12.9387 14.8848 12.9387C15.2373 12.9387 15.5232 13.2217 15.5288 13.5728C15.7608 13.6453 15.9746 13.7613 16.1457 13.9192C16.4073 14.1605 16.4238 14.5683 16.1824 14.8299C15.9411 15.0917 15.5333 15.108 15.2717 14.8667C15.1657 14.7689 14.8389 14.7294 14.6969 14.8248C14.6014 14.889 14.564 15.012 14.5967 15.071C14.7328 15.3168 15.4457 15.401 15.9851 15.8214C17.0872 16.6802 16.7037 18.231 15.5294 18.6815Z" fill="#1F2F3E"/>
</svg>
