<svg width="28" height="28" viewBox="0 0 28 28" fill="none" xmlns="http://www.w3.org/2000/svg">
<path fill-rule="evenodd" clip-rule="evenodd" d="M14 4.90177C16.6639 4.90177 18.8235 7.06133 18.8235 9.72521C18.8235 12.3891 16.6639 14.5486 14 14.5486C11.336 14.5486 9.17658 12.3891 9.17658 9.72521C9.17658 7.06138 11.336 4.90177 14 4.90177ZM14.4375 18.5821V27.6339L23.3663 24.1622V18.5016L16.3847 21.2163C16.1816 21.2948 15.9557 21.2109 15.8501 21.0281L14.4375 18.5821ZM13.5625 27.6338V18.5821L12.1502 21.0282C12.0376 21.2226 11.798 21.2976 11.5971 21.2091L4.63374 18.5016V24.1621L13.5625 27.6338ZM23.6127 13.6815L14.6321 17.1734L16.4184 20.2673L25.399 16.7754L23.6127 13.6815ZM13.3678 17.1734L4.38721 13.6815L2.60095 16.7754L11.5816 20.2673L13.3678 17.1734ZM14 15.4236C11.6045 15.4236 9.55425 13.9456 8.71151 11.8516L5.39948 13.1394L14 16.4835L22.6004 13.1394L19.2884 11.8516C18.4457 13.9455 16.3955 15.4236 14 15.4236ZM22.8063 9.40288C23.0481 9.40288 23.2438 9.59877 23.2438 9.84038C23.2438 10.082 23.0481 10.2779 22.8063 10.2779H20.7574C20.5158 10.2779 20.3199 10.082 20.3199 9.84038C20.3199 9.59877 20.5158 9.40288 20.7574 9.40288H22.8063ZM13.5625 0.803711C13.5625 0.562102 13.7584 0.366211 14 0.366211C14.2416 0.366211 14.4375 0.562102 14.4375 0.803711V2.8528C14.4375 3.09441 14.2416 3.2903 14 3.2903C13.7584 3.2903 13.5625 3.09441 13.5625 2.8528V0.803711ZM9.14606 2.15838C9.02624 1.94985 9.09816 1.68352 9.30673 1.56365C9.51531 1.44383 9.78164 1.51574 9.90146 1.72432L10.926 3.49888C11.0458 3.70745 10.9739 3.97378 10.7653 4.0936C10.5568 4.21342 10.2904 4.14156 10.1706 3.93293L9.14606 2.15838ZM5.99737 5.54244C5.7888 5.42163 5.71765 5.15454 5.83845 4.94602C5.9592 4.73749 6.2263 4.66623 6.43487 4.78709L8.20937 5.81161C8.4179 5.93241 8.4891 6.19951 8.3683 6.40803C8.24755 6.61655 7.9804 6.68776 7.77187 6.56695L5.99737 5.54244ZM4.96329 10.0476C4.72168 10.0476 4.52579 9.8517 4.52579 9.61009C4.52579 9.36848 4.72168 9.17259 4.96329 9.17259H7.01232C7.25398 9.17259 7.44982 9.36848 7.44982 9.61009C7.44982 9.8517 7.25398 10.0476 7.01232 10.0476H4.96329ZM18.0676 1.83944C18.1874 1.63091 18.4538 1.55895 18.6624 1.67877C18.8709 1.79859 18.9429 2.06497 18.8231 2.27349L17.7986 4.04805C17.6787 4.25663 17.4123 4.32854 17.2038 4.20872C16.9952 4.0889 16.9233 3.82257 17.0432 3.61399L18.0676 1.83944ZM21.45 4.98648C21.6586 4.86562 21.9256 4.93688 22.0464 5.14541C22.1672 5.35393 22.096 5.62102 21.8875 5.74183L20.1129 6.76634C19.9044 6.88715 19.6373 6.81595 19.5165 6.60742C19.3957 6.3989 19.467 6.1318 19.6754 6.011L21.45 4.98648ZM15.8263 7.52557L12.969 10.3829L11.994 9.1558C11.7541 8.85404 11.3151 8.80395 11.0134 9.04375C10.7116 9.28366 10.6615 9.72264 10.9014 10.0244L12.3363 11.8301C12.5844 12.1855 13.0953 12.2342 13.4045 11.9249L16.8151 8.51443C17.088 8.24137 17.088 7.79868 16.8151 7.52557C16.5421 7.25257 16.0994 7.25257 15.8263 7.52557Z" fill="#F8AA4B"/>
</svg>
