<svg width="32" height="32" viewBox="0 0 32 32" fill="none" xmlns="http://www.w3.org/2000/svg">
<path d="M28.766 18.2449L19.9806 22.2352C19.4521 22.5503 18.8024 22.6327 18.2157 22.4582L13.3769 21.0667C13.1345 20.9988 12.9891 20.7418 13.0618 20.4945C13.1297 20.2521 13.3866 20.1115 13.6339 20.1794L18.4775 21.5709C18.8363 21.6727 19.2242 21.6242 19.5394 21.4255C19.5491 21.4206 19.5636 21.4109 19.5733 21.4061C19.8254 21.2315 20.0048 20.9842 20.0921 20.6885C20.1891 20.3588 20.1503 20.0097 19.9806 19.7042C19.8109 19.3988 19.5297 19.1758 19.1951 19.0788L16.1115 18.1915C16.1066 18.1915 16.1018 18.1915 16.1018 18.1867L10.0848 16.4606C9.22179 16.2085 8.30058 16.2958 7.49088 16.7127L1.32361 19.8255L4.46543 26.7006C5.83755 25.9927 6.31755 25.7309 6.4727 25.6388C7.16603 25.2267 7.94179 25.0182 8.73209 25.0182C9.09573 25.0182 9.45937 25.0618 9.81815 25.1539L16.0775 26.72C17.8521 27.1612 19.7479 26.8606 21.28 25.8909L30.0751 20.5188C30.623 20.1745 30.8315 19.4618 30.5551 18.8703C30.2497 18.2303 29.4303 17.92 28.766 18.2449Z" fill="#33BFBF"/>
<path d="M20.0436 18.4776C22.8993 18.337 25.2023 15.937 25.2023 13.0618C25.2023 10.0703 22.7684 7.63635 19.7769 7.63635C16.7854 7.63635 14.3514 10.0703 14.3514 13.0618C14.3514 14.7394 15.1127 16.2909 16.4314 17.3285L19.4423 18.1915C19.6654 18.2545 19.8593 18.3564 20.0436 18.4776ZM18.2545 15.7139C18.2205 15.68 18.2011 15.6364 18.1817 15.5976C18.1575 15.5782 18.1284 15.5685 18.1042 15.5442C17.7502 15.1757 17.5563 14.7054 17.5563 14.2157C17.5563 13.9588 17.7648 13.7551 18.0169 13.7551C18.269 13.7551 18.4775 13.9636 18.4775 14.2157C18.4775 14.5357 18.6375 14.7685 18.7684 14.9091C18.8023 14.943 18.8217 14.9818 18.8411 15.0254C18.8654 15.0448 18.8945 15.0545 18.9187 15.0788C19.1514 15.3212 19.5005 15.4618 19.8739 15.4618C20.5381 15.4618 21.0811 15.0303 21.0811 14.4921C21.0811 13.9588 20.5381 13.5273 19.8739 13.5273C18.7005 13.5273 17.7454 12.6788 17.7454 11.6364C17.7454 10.7345 18.4581 9.98302 19.4133 9.79393V9.43514C19.4133 9.17817 19.6217 8.97453 19.8739 8.97453C20.126 8.97453 20.3345 9.18302 20.3345 9.43514V9.79393C21.2848 9.98302 22.0023 10.7345 22.0023 11.6364C22.0023 11.8933 21.7939 12.097 21.5417 12.097C21.2896 12.097 21.0811 11.8885 21.0811 11.6364C21.0811 11.103 20.5381 10.6667 19.8739 10.6667C19.2096 10.6667 18.6666 11.0982 18.6666 11.6364C18.6666 12.1697 19.2096 12.606 19.8739 12.606C21.0472 12.606 22.0023 13.4545 22.0023 14.497C22.0023 15.3988 21.2896 16.1503 20.3345 16.3394V16.6982C20.3345 16.9551 20.126 17.1588 19.8739 17.1588C19.6217 17.1588 19.4133 16.9503 19.4133 16.6982V16.3394C18.9672 16.2473 18.5551 16.0291 18.2545 15.7139Z" fill="#33BFBF"/>
<path d="M13.4351 13.0618C13.4351 9.5612 16.2811 6.71514 19.7818 6.71514C23.2824 6.71514 26.1284 9.5612 26.1284 13.0618C26.1284 16.1794 23.8108 18.817 20.8145 19.3164C21.0424 19.7624 21.1199 20.2618 21.0278 20.7467L25.3381 18.7879C26.9042 17.2703 27.7624 15.2388 27.7624 13.057C27.7624 8.65454 24.1842 5.07635 19.7818 5.07635C15.3793 5.07635 11.8011 8.65454 11.8011 13.057C11.8011 14.143 12.0242 15.1854 12.4411 16.1745L14.6763 16.8145C13.8811 15.743 13.4351 14.4436 13.4351 13.0618Z" fill="#33BFBF"/>
</svg>
