<svg width="399" height="326" viewBox="0 0 399 326" fill="none" xmlns="http://www.w3.org/2000/svg">
<path d="M251.818 94.1607C222.833 80.6907 195.123 83.8778 187.903 85.0419C188.419 71.0609 189.458 50.1829 190.333 46.8534C190.88 46.5878 192.008 46.0828 193.734 45.5148C198.773 43.8555 209.902 41.3532 227.814 43.2376C253.68 45.9581 263.466 55.3781 265.569 57.7772L251.818 94.1607Z" fill="white"/>
<path d="M194.185 46.8818C199.115 45.2588 210.02 42.8135 227.665 44.6685C251.066 47.1303 261.028 55.215 263.905 58.1124L251.017 92.2131C233.998 84.6029 217.718 82.6646 206.816 82.4122C199.085 82.2328 193.004 82.8389 189.407 83.3466C189.995 67.9486 190.9 51.999 191.603 47.8548C192.19 47.5993 193.048 47.2561 194.185 46.8818ZM193.285 44.1473C190.544 45.0498 189.231 45.8026 189.231 45.8026C187.805 46.8639 186.401 86.7747 186.401 86.7747C186.401 86.7747 218.595 79.6972 252.613 96.13L267.207 57.5153C267.207 57.5153 258.537 45.0215 227.965 41.8062C210.05 39.9217 198.79 42.3348 193.285 44.1473Z" fill="#A0C6F4"/>
<path d="M191.882 88.0342C191.882 88.0342 223.529 81.0437 248.104 92.1556" stroke="#2A1E17" stroke-miterlimit="10" stroke-linecap="round" stroke-linejoin="round"/>
<path d="M217.839 77.8328L221.95 51.8539L241.322 71.1569L217.839 77.8328Z" fill="#A0C6F4"/>
<path d="M219.956 76.784L224.067 50.805L243.439 70.1081L219.956 76.784Z" stroke="#2A1E17" stroke-miterlimit="10" stroke-linecap="round" stroke-linejoin="round"/>
<path d="M196.483 41.5984C196.483 41.5984 231.841 33.3866 261.541 51.7269" stroke="#2A1E17" stroke-miterlimit="10" stroke-linecap="round" stroke-linejoin="round"/>
<path d="M246.443 134.277C244.101 133.511 242.557 132.988 242.557 132.988C242.851 132.119 248.216 120.594 250.665 111.924C250.664 111.924 247.401 134.589 246.443 134.277Z" fill="#2A1E17"/>
<path d="M108.221 108.656C109.647 109.887 109.854 109.138 112.445 108.058C115.037 106.979 119.46 107.676 121.866 110.511C124.272 113.346 124.033 113.991 123.452 114.636C122.87 115.281 117.96 117.577 118.091 118.667" stroke="#2A1E17" stroke-miterlimit="10" stroke-linecap="round" stroke-linejoin="round"/>
<path d="M231.908 252.411L228.199 249.168L224.386 266.038L227.166 267.014L231.908 252.411Z" fill="#FF8DAF"/>
<path d="M164.284 235.954C164.284 235.954 157.561 230.276 158.291 226.168L172.755 223.063L164.284 235.954Z" fill="#FF8DAF"/>
<path d="M164.284 235.955L165.755 237.602L166.488 248.518C166.58 249.892 167.443 251.095 168.715 251.624L175.274 228.529C175.897 226.335 174.828 224.015 172.755 223.063L169.027 221.35L164.284 235.955Z" fill="black"/>
<path d="M118.09 118.667C122.061 117.255 127.048 115.332 125.032 112.624C123.016 109.915 116.709 103.561 108.841 108.681C108.841 108.681 106.633 112.218 111.938 115.53C117.244 118.841 118.09 118.667 118.09 118.667Z" fill="#2A1E33"/>
<path d="M174.753 222.591C174.753 222.591 161.284 204.675 164.148 193.917C166.513 185.04 186.009 191.795 188.672 192.693L193.192 168.885C193.192 168.885 189.43 166.123 181.947 164.671C174.464 163.218 144.874 161.232 138.977 184.628C136.798 193.275 146.837 223.998 159.406 232.901L174.753 222.591Z" fill="#7F55DA"/>
<path d="M174.754 222.591C174.754 222.591 161.285 204.674 164.149 193.917C166.513 185.04 186.01 191.795 188.672 192.693" stroke="#2A1E17" stroke-miterlimit="10" stroke-linecap="round" stroke-linejoin="round"/>
<path d="M193.193 168.885C189.879 175.893 183.406 206.848 184.117 220.389C185.068 238.502 191.308 251.731 225.053 270.545L231.306 249.09C231.306 249.09 218.634 239.042 216.231 226.432C212.752 208.187 219.618 187.126 222.374 174.294L193.193 168.885Z" fill="#7F55DA"/>
<path d="M195.845 170.516L220.995 179.622L223.978 168.575L195.845 170.516Z" fill="#2A1E17"/>
<path d="M305.208 116.23C308.546 115.873 311.311 116.277 313.505 117.447C315.7 118.616 315.251 119.751 314.829 120.466C314.406 121.181 311.911 121.344 309.321 120.223C306.73 119.102 305.208 116.23 305.208 116.23Z" fill="#FF8A66"/>
<path d="M242.557 132.988C242.851 132.119 248.216 120.594 250.665 111.924C250.665 111.924 270.461 123.367 272.201 123.373C272.849 123.375 276.378 122.162 280.766 120.667C288.182 118.14 298.048 114.809 300.597 115.183C304.656 115.778 307.033 115.96 308.708 118.113C310.383 120.266 311.25 121.746 309.214 122.581C306.832 123.559 304.231 120.939 304.231 120.939C304.231 120.939 302.635 122.799 298.121 126.427C298.121 126.427 281.957 139.722 268.425 140.322C264.729 140.486 242.557 132.988 242.557 132.988Z" fill="#FF8DAF"/>
<path d="M108.915 105.254C107.524 106.383 106.796 107.425 108.22 108.656C109.647 109.887 109.853 109.138 112.444 108.059C115.037 106.979 119.459 107.676 121.866 110.511C124.272 113.346 124.032 113.992 123.451 114.636C122.869 115.281 117.959 117.577 118.091 118.667C118.223 119.757 121.493 122.027 126.13 120.273L127.188 119.698C127.188 119.698 140.261 126.103 142.164 127.063C144.067 128.024 156.934 131.688 163.207 131.229C167.975 130.879 176.432 126.521 181.451 123.708C183.889 122.343 185.515 121.342 185.515 121.342C185.515 121.342 179.103 115.417 174.615 104.54C174.615 104.54 165.497 109.257 159.561 112.767C159.561 112.767 141.889 109.359 133.417 108.068C133.417 108.068 124.518 102.384 121.216 102.338C117.914 102.291 110.792 103.729 108.915 105.254Z" fill="#FF8DAF"/>
<path d="M181.45 123.708C183.888 122.343 185.514 121.342 185.514 121.342C185.514 121.342 178.626 116.808 174.138 105.931C174.138 105.931 172.718 109.028 175.48 115.115C178.953 122.766 181.45 123.708 181.45 123.708Z" fill="#2A1E17"/>
<path d="M173.491 104.761C173.491 104.761 178.11 118.338 183.63 122.818L184.766 121.864C184.766 121.864 174.193 147.644 172.959 162.62C172.757 165.07 217.072 176.404 222.374 174.295C222.374 174.295 231.249 141.195 234.694 131.114L242.924 134.037C242.924 134.037 251.497 116.778 250.665 111.925C250.665 111.925 233.265 100.898 221.645 99.8184C210.025 98.7385 198.447 94.1458 187.597 97.946C178.205 101.236 173.491 104.761 173.491 104.761Z" fill="#FFF7C9"/>
<path d="M242.924 134.037L234.694 131.114L234.802 127.923L242.924 134.037Z" fill="#2A1E17"/>
<path d="M235.166 76.894C235.193 80.8427 235.279 92.2643 232.001 94.7573C228.722 97.2502 224.344 96.9169 224.344 96.9169L221.068 100.23C221.063 101.693 218.327 103.853 214.363 105.329C211.428 106.422 208.361 103.2 208.331 100.147C208.318 98.745 207.767 91.9924 207.767 91.9924C207.767 91.9924 207.092 79.2103 209.228 75.8211C211.363 72.4328 213.329 69.1257 222.2 69.7127C235.783 70.613 235.166 76.894 235.166 76.894Z" fill="#FF8DAF"/>
<path d="M211.567 85.2265C211.763 87.5928 210.927 92.7289 209.176 92.4302C207.424 92.1317 206.235 90.2874 206.016 86.082C205.798 81.8763 203.788 72.8166 206.251 70.2555C208.713 67.6952 210.634 69.1039 210.634 69.1039C210.634 69.1039 207.211 63.1341 210.781 60.9865C210.781 60.9865 211.895 59.9393 212.813 64.4981C212.813 64.4981 212.975 59.9724 217.972 58.9107C222.969 57.849 226.859 64.0538 226.859 64.0538C226.859 64.0538 226.604 62.0964 228.797 61.3746C230.99 60.6526 235.391 62.8005 235.786 66.6561C235.786 66.6561 240.819 63.0525 245.276 66.5457C249.731 70.0369 250.998 75.0642 244.44 79.3614C237.585 83.8552 234.762 75.0623 233.246 74.2974C231.73 73.5335 230.07 72.6215 226.379 75.5862C222.689 78.5507 216.773 75.3466 216.773 75.3466C216.773 75.3466 217.92 81.1907 217.391 81.9482C216.862 82.7058 215.69 83.869 215.175 81.1223C214.66 78.3754 215.185 78.4943 214.691 77.8795C214.197 77.2639 212.281 75.441 210.427 78.2134C208.341 81.3308 211.567 85.2265 211.567 85.2265Z" fill="#2A1E33"/>
<path d="M213.085 85.8158C210.95 84.961 208.973 82.8673 209.631 79.9062C210.289 76.9451 212.587 75.8172 213.632 76.512C214.677 77.2062 215.481 78.6924 215.406 80.7933" stroke="#2A1E33" stroke-miterlimit="10" stroke-linecap="round" stroke-linejoin="round"/>
<path d="M227.165 267.014L228.636 268.662L229.37 279.578C229.462 280.953 230.324 282.155 231.596 282.684L238.155 259.59C238.777 257.396 237.709 255.075 235.636 254.123L231.908 252.411L227.165 267.014Z" fill="black"/>
<path d="M210.634 69.1046C210.634 69.1046 208.608 66.2437 205.399 66.3718" stroke="#2A1E33" stroke-miterlimit="10" stroke-linecap="round" stroke-linejoin="round"/>
<path d="M172.243 161.791L191.362 100.688" stroke="#2A1E17" stroke-miterlimit="10" stroke-linecap="round" stroke-linejoin="round"/>
<path d="M207.092 99.3429C206.363 101.421 208.13 108.748 214.151 107.28C220.171 105.811 223.073 101.999 223.073 101.999" stroke="#2A1E17" stroke-miterlimit="10" stroke-linecap="round" stroke-linejoin="round"/>
<path d="M121.215 102.337C121.215 102.337 127.025 106.36 128.29 108.059" stroke="#2A1E17" stroke-miterlimit="10" stroke-linecap="round" stroke-linejoin="round"/>
<path d="M296.36 124.256C296.36 124.256 299.796 125.592 304.231 120.94C305.84 119.252 303.636 117.239 301.369 118.67C299.101 120.101 295.861 120.141 295.861 120.141" stroke="#2A1E17" stroke-miterlimit="10" stroke-linecap="round" stroke-linejoin="round"/>
<path d="M306.237 116.234C306.237 116.234 309.827 118.406 310.347 120.227" stroke="#2A1E17" stroke-miterlimit="10" stroke-linecap="round" stroke-linejoin="round"/>
<path d="M267.958 128.471C267.958 128.471 269.275 124.575 272.201 123.373" stroke="#2A1E17" stroke-miterlimit="10" stroke-linecap="round" stroke-linejoin="round"/>
<path d="M155.465 119.711C155.465 119.711 155.431 114.996 159.559 112.767" stroke="#2A1E17" stroke-miterlimit="10" stroke-linecap="round" stroke-linejoin="round"/>
<path d="M188.662 180.519L186.725 192.254C186.725 192.254 179.084 227.136 191.15 244.073" stroke="#2A1E17" stroke-miterlimit="10" stroke-linecap="round" stroke-linejoin="round"/>
<path d="M214.979 208.988L222.375 174.295C222.375 174.295 234.001 134.695 234.779 129.392L237.848 112.28" stroke="#2A1E17" stroke-miterlimit="10" stroke-linecap="round" stroke-linejoin="round"/>
<path d="M175.633 164.11C175.633 164.11 213.071 176.182 222.374 174.294" stroke="#2A1E17" stroke-miterlimit="10" stroke-linecap="round" stroke-linejoin="round"/>
<path d="M173.492 104.761C173.492 104.761 178.012 118.584 183.601 123.022" stroke="#2A1E17" stroke-miterlimit="10" stroke-linecap="round" stroke-linejoin="round"/>
<path d="M248.974 110.055C249.901 116.061 241.233 132.167 241.233 132.167" stroke="#2A1E17" stroke-miterlimit="10" stroke-linecap="round" stroke-linejoin="round"/>
<path d="M179.484 209.542C179.81 210.532 179.272 211.599 178.282 211.925C177.291 212.251 176.224 211.713 175.898 210.723C175.573 209.733 176.111 208.665 177.101 208.339C178.091 208.013 179.158 208.552 179.484 209.542Z" fill="#2A1E17"/>
<path d="M358.575 193.279L355.327 186.747L362.455 188.71L359.615 190.386L358.575 193.279Z" stroke="#2A1E17" stroke-miterlimit="10" stroke-linecap="round" stroke-linejoin="round"/>
<path d="M126.062 140.081C111.759 133.95 101.473 164.366 194.045 219.919C247.446 251.965 279.142 245.98 278.129 229.048C276.31 198.671 247.324 200.384 260.848 208.064C280.513 219.232 322.649 209.085 348.334 184.167C373.677 159.579 347.64 142.925 345.33 142.213" stroke="#2A1E17" stroke-miterlimit="10" stroke-linecap="round" stroke-linejoin="round"/>
<path d="M350.563 183.277C350.889 184.267 350.351 185.335 349.361 185.661C348.371 185.987 347.304 185.448 346.978 184.458C346.652 183.468 347.19 182.401 348.181 182.075C349.171 181.749 350.238 182.288 350.563 183.277Z" fill="#2A1E17"/>
<path d="M327.501 207.089L370.78 159.642" stroke="#2A1E17" stroke-miterlimit="10" stroke-linecap="round" stroke-linejoin="round"/>
<path d="M129.438 140.576C129.764 141.566 129.225 142.634 128.235 142.959C127.245 143.285 126.178 142.746 125.852 141.756C125.526 140.767 126.064 139.699 127.054 139.373C128.044 139.047 129.112 139.586 129.438 140.576Z" fill="#2A1E17"/>
<path d="M165.017 87.8372C165.716 89.9612 164.561 92.2503 162.437 92.9496C160.313 93.6489 158.024 92.4938 157.324 90.3697C156.625 88.2457 157.78 85.9567 159.904 85.2574C162.028 84.5581 164.317 85.7132 165.017 87.8372Z" fill="#FF6D66"/>
<path d="M81.7211 82.7464C80.7872 83.0538 80.2789 84.06 80.5864 84.9938C80.8938 85.9277 81.8998 86.4353 82.8343 86.1276C83.7688 85.8199 84.2764 84.814 83.969 83.8802C83.6615 82.9463 82.6549 82.4389 81.7211 82.7464Z" fill="#A0C6F4"/>
<path d="M321.503 150.05L300.519 147.503C298.825 147.298 298.162 145.196 299.43 144.055L328.346 118.042C328.756 117.674 329.299 117.492 329.848 117.54L356.357 119.863L321.503 150.05Z" fill="#2A1E33"/>
<path d="M311.148 122.387C313.67 129.893 321.503 150.049 321.503 150.049L356.357 119.863L346.055 91.6192C345.422 89.8855 343.229 89.3542 341.874 90.6057L312.299 117.918C311.069 119.052 310.615 120.801 311.148 122.387Z" fill="#C6CBCB"/>
<path d="M321.503 150.05L356.357 119.864L346.054 91.6196C346.054 91.6196 344.758 88.5917 341.873 90.6062" stroke="#2A1E17" stroke-miterlimit="10" stroke-linecap="round" stroke-linejoin="round"/>
<path d="M334.309 123.094L334.914 115.747" stroke="#2A1E17" stroke-miterlimit="10" stroke-linecap="round" stroke-linejoin="round"/>
<path d="M337.037 122.196L337.642 114.848" stroke="#2A1E17" stroke-miterlimit="10" stroke-linecap="round" stroke-linejoin="round"/>
<path d="M149.991 259.876C150.299 260.81 149.791 261.817 148.857 262.124C147.922 262.432 146.917 261.924 146.609 260.99C146.302 260.056 146.809 259.05 147.743 258.742C148.678 258.435 149.684 258.943 149.991 259.876Z" fill="#FF6D66"/>
<path d="M295.964 221.102C296.391 222.399 295.686 223.797 294.388 224.224C293.091 224.652 291.692 223.947 291.265 222.649C290.838 221.352 291.543 219.953 292.841 219.526C294.139 219.099 295.537 219.804 295.964 221.102Z" fill="#FF6D66"/>
<path d="M174.076 279.733C177.261 280.147 186.361 280.84 196.932 277.282C197.511 277.087 198.128 277.452 198.245 278.051L200.624 290.245C200.709 290.679 200.505 291.116 200.116 291.33C197.309 292.876 185.792 298.503 174.251 293.822C173.891 293.676 173.651 293.329 173.63 292.941L172.936 280.798C172.9 280.164 173.446 279.653 174.076 279.733Z" fill="#FFF7DC"/>
<path d="M176.27 282.826C176.27 282.826 183.893 288.433 186.097 288.87C188.301 289.307 196.366 280.023 196.366 280.023" stroke="#2A1E17" stroke-miterlimit="10" stroke-linecap="round" stroke-linejoin="round"/>
<path d="M296.132 86.0351L290.015 88.0491L292.029 94.1661L298.146 92.1522L296.132 86.0351Z" fill="#FF8DAF"/>
<path d="M318.012 170.289L320.866 172.839L323.721 175.39L320.085 176.587L316.449 177.784L317.231 174.036L318.012 170.289Z" fill="#A0C6F4"/>
<path d="M43.0637 236.789L38.8305 222.336C38.3413 221.018 38.7448 220.414 39.5073 219.962C43.1088 217.823 54.047 211.305 68.1371 210.873C69.9579 210.817 70.1945 211.713 70.428 212.512L74.4561 226.294C74.7521 227.305 73.9454 228.374 72.7215 228.588C68.7925 229.273 63.6375 230.782 58.4728 232.531C53.1383 234.337 48.5017 236.305 45.3765 238.046C44.1849 238.71 43.3953 237.918 43.0637 236.789Z" stroke="#2A1E17" stroke-miterlimit="10" stroke-linecap="round" stroke-linejoin="round"/>
<path d="M46.3158 234.135L50.9089 222.926L61.8702 228.367C58.7115 228.377 46.3158 234.135 46.3158 234.135Z" stroke="#2A1E17" stroke-miterlimit="10" stroke-linecap="round" stroke-linejoin="round"/>
<path d="M57.2038 224.609L61.6536 217.784L67.9416 219.741L70.0029 225.36L62.25 227.508" stroke="#2A1E17" stroke-miterlimit="10" stroke-linecap="round" stroke-linejoin="round"/>
<path d="M46.4001 223.443C46.7056 224.106 46.3115 224.895 45.5181 225.206C44.7246 225.516 43.834 225.23 43.5278 224.567C43.2216 223.904 43.6171 223.114 44.4099 222.804C45.2035 222.494 46.0949 222.781 46.4001 223.443Z" stroke="#2A1E17" stroke-miterlimit="10" stroke-linecap="round" stroke-linejoin="round"/>
<path d="M330.728 217.341L338.789 224.948C339.589 225.603 339.558 226.137 339.242 226.708C337.749 229.405 333.224 237.612 324.434 243.124C323.298 243.835 322.816 243.355 322.37 242.934L314.688 235.678C314.125 235.145 314.239 234.166 314.937 233.576C317.178 231.68 319.891 228.805 322.521 225.775C325.238 222.644 327.452 219.67 328.79 217.403C329.301 216.537 330.098 216.746 330.728 217.341Z" stroke="#2A1E17" stroke-miterlimit="10" stroke-linecap="round" stroke-linejoin="round"/>
<path d="M329.725 220.922L330.974 229.75L321.989 230.368C323.992 229.188 329.725 220.922 329.725 220.922Z" stroke="#2A1E17" stroke-miterlimit="10" stroke-linecap="round" stroke-linejoin="round"/>
<path d="M326.272 230.335L325.982 236.324L321.261 237.417L317.862 234.615L321.989 230.368" stroke="#2A1E17" stroke-miterlimit="10" stroke-linecap="round" stroke-linejoin="round"/>
<path d="M333.645 227.746C333.205 227.438 333.162 226.791 333.551 226.299C333.939 225.807 334.612 225.657 335.052 225.965C335.493 226.272 335.536 226.92 335.147 227.412C334.758 227.904 334.086 228.054 333.645 227.746Z" stroke="#2A1E17" stroke-miterlimit="10" stroke-linecap="round" stroke-linejoin="round"/>
<path d="M254.29 67.3357L279.791 76.2197C280.35 76.4146 280.961 76.1128 281.146 75.5501L282.849 70.3697C283.026 69.8287 282.746 69.2443 282.212 69.0464L256.841 59.59C256.274 59.3781 255.646 59.6841 255.462 60.2606L253.629 66.0144C253.455 66.562 253.748 67.1476 254.29 67.3357Z" fill="white"/>
<path d="M254.29 67.3357L279.791 76.2197C280.35 76.4146 280.961 76.1128 281.146 75.5501L282.849 70.3697C283.026 69.8287 282.746 69.2443 282.212 69.0464L256.841 59.59C256.274 59.3781 255.646 59.6841 255.462 60.2606L253.629 66.0144C253.455 66.562 253.748 67.1476 254.29 67.3357Z" stroke="#2A1E17" stroke-miterlimit="10" stroke-linecap="round" stroke-linejoin="round"/>
<path d="M255.569 66.1442L261.649 67.984L263.419 63.5453L257.121 61.0519L255.569 66.1442Z" fill="#FF6D66"/>
<path d="M263.955 68.7232L270.192 71.0191L271.769 66.8847L265.461 64.4834L263.955 68.7232Z" fill="#FF8DAF"/>
<path d="M272.352 71.9782L278.433 73.8178L279.79 70.0203L273.822 67.6452L272.352 71.9782Z" fill="#A0C6F4"/>
<path d="M287.756 32.1598L305.239 69.6366C305.621 70.4594 306.605 70.8067 307.421 70.4087L314.925 66.7452C315.708 66.3633 316.05 65.4309 315.699 64.6335L298.984 26.6879C298.61 25.8397 297.603 25.4763 296.774 25.8907L288.502 30.0229C287.715 30.4162 287.384 31.3639 287.756 32.1598Z" fill="white"/>
<path d="M287.756 32.1598L305.239 69.6366C305.621 70.4594 306.605 70.8067 307.421 70.4087L314.925 66.7452C315.708 66.3633 316.05 65.4309 315.699 64.6335L298.984 26.6879C298.61 25.8397 297.603 25.4763 296.774 25.8907L288.502 30.0229C287.715 30.4162 287.384 31.3639 287.756 32.1598Z" stroke="#2A1E17" stroke-miterlimit="10" stroke-linecap="round" stroke-linejoin="round"/>
<path d="M290.431 32.2901L294.905 40.929L301.666 38.1317L297.679 28.5559L290.431 32.2901Z" fill="#FF6D66"/>
<path d="M296.554 44.248L300.696 53.5461L306.918 50.8618L302.816 41.374L296.554 44.248Z" fill="#69E0AF"/>
<path d="M301.949 56.9427L306.424 65.5813L312.042 63.0156L308.275 53.9288L301.949 56.9427Z" fill="#FF8DAF"/>
<path d="M280.358 43.8002L305.65 77.3495C306.084 77.9258 306.907 78.0338 307.475 77.5891L314.571 72.0408C315.117 71.614 315.229 70.8317 314.824 70.2694L290.193 36.0887C289.762 35.4901 288.918 35.3748 288.342 35.8335L280.585 42.014C280.037 42.4503 279.937 43.2424 280.358 43.8002Z" fill="white"/>
<path d="M280.358 43.8002L305.65 77.3495C306.084 77.9258 306.907 78.0338 307.475 77.5891L314.571 72.0408C315.117 71.614 315.229 70.8317 314.824 70.2694L290.193 36.0887C289.762 35.4901 288.918 35.3748 288.342 35.8335L280.585 42.014C280.037 42.4503 279.937 43.2424 280.358 43.8002Z" stroke="#2A1E17" stroke-miterlimit="10" stroke-linecap="round" stroke-linejoin="round"/>
<path d="M283.194 43.6295L289.368 51.1489L295.4 47.0073L289.507 38.4704L283.194 43.6295Z" fill="#A0C6F4"/>
<path d="M291.672 54.0525L297.657 62.2863L303.185 58.3666L297.199 49.9391L291.672 54.0525Z" fill="#FF8DAF"/>
<path d="M299.59 65.3478L305.763 72.8672L310.724 69.1886L305.151 61.0845L299.59 65.3478Z" fill="#FF8DAF"/>
<path d="M204.56 139.691L139.654 161.06C137.584 161.742 135.353 160.616 134.672 158.546L131.781 149.767C131.099 147.696 132.225 145.465 134.295 144.784L199.201 123.415C201.271 122.733 203.502 123.859 204.184 125.93L207.074 134.709C207.756 136.778 206.631 139.009 204.56 139.691Z" fill="#7F55DA"/>
<path d="M177.276 138.69L141.892 150.34C141.208 150.565 140.471 150.193 140.245 149.509C140.02 148.825 140.392 148.088 141.077 147.863L176.461 136.213C177.145 135.988 177.882 136.36 178.107 137.043C178.333 137.728 177.961 138.465 177.276 138.69Z" fill="white"/>
<path d="M142.064 153.84L202.217 134.035" stroke="#2A1E17" stroke-miterlimit="10" stroke-linecap="round" stroke-linejoin="round"/>
<path d="M99.1525 123.661L97.7584 122.877L95.3873 127.09L96.7813 127.874C97.3691 128.205 98.1137 127.997 98.4438 127.41L99.6175 125.324C99.9483 124.737 99.7401 123.991 99.1525 123.661Z" fill="#69E0AF"/>
<path d="M90.8496 118.349L97.4165 122.044C97.756 122.236 97.8764 122.666 97.6851 123.005L95.3526 127.15C95.1616 127.49 94.7312 127.61 94.3919 127.419L87.8248 123.723C87.4854 123.533 87.365 123.103 87.5563 122.763L89.8888 118.619C90.0801 118.279 90.5103 118.159 90.8496 118.349Z" stroke="#2A1E17" stroke-miterlimit="10" stroke-linecap="round" stroke-linejoin="round"/>
<path d="M90.688 149.397L84.6235 151.394L86.4466 156.931L92.511 154.934L90.688 149.397Z" fill="#FF6D66"/>
<path d="M83.451 147.831L84.6241 151.394L80.9968 152.588" stroke="#2A1E17" stroke-miterlimit="10" stroke-linecap="round" stroke-linejoin="round"/>
<path d="M269.89 21.0893L263.825 23.0862L265.648 28.6235L271.713 26.6267L269.89 21.0893Z" fill="#FF8DAF"/>
<path d="M262.652 19.5225L263.825 23.0856L260.198 24.2796" stroke="#2A1E17" stroke-miterlimit="10" stroke-linecap="round" stroke-linejoin="round"/>
<path d="M110.963 111.35C39.5149 105.987 7.6405 172.113 151.454 209.954C162.778 212.933 177.788 210.345 177.788 210.345" stroke="#2A1E17" stroke-miterlimit="10" stroke-linecap="round" stroke-linejoin="round"/>
<path d="M55.5109 131.549C55.8368 132.539 55.2987 133.607 54.3082 133.933C53.3183 134.259 52.2512 133.72 51.9253 132.73C51.5994 131.74 52.1375 130.672 53.1274 130.347C54.1187 130.02 55.185 130.559 55.5109 131.549Z" fill="#2A1E17"/>
<path d="M39.0712 126.056L40.4132 123.527L45.7727 124.623L50.3432 130.871L42.4663 130.253L39.0712 126.056Z" stroke="#2A1E17" stroke-miterlimit="10" stroke-linecap="round" stroke-linejoin="round"/>
<path d="M40.4125 123.527L39.0706 126.056L37.5329 125.084L38.8219 122.658L40.4125 123.527Z" stroke="#2A1E17" stroke-miterlimit="10" stroke-linecap="round" stroke-linejoin="round"/>
<path d="M50.3434 130.871L44.2134 127.407" stroke="#2A1E17" stroke-miterlimit="10" stroke-linecap="round" stroke-linejoin="round"/>
<path d="M102.559 252.783L115.736 276.355C116.024 276.872 116.681 277.051 117.193 276.753L121.906 274.009C122.397 273.723 122.574 273.099 122.308 272.597L109.609 248.683C109.325 248.149 108.652 247.961 108.132 248.269L102.942 251.356C102.449 251.649 102.279 252.282 102.559 252.783Z" fill="white"/>
<path d="M102.559 252.783L115.736 276.355C116.024 276.872 116.681 277.051 117.193 276.753L121.906 274.009C122.397 273.723 122.574 273.099 122.308 272.597L109.609 248.683C109.325 248.149 108.652 247.961 108.132 248.269L102.942 251.356C102.449 251.649 102.279 252.282 102.559 252.783Z" stroke="#2A1E17" stroke-miterlimit="10" stroke-linecap="round" stroke-linejoin="round"/>
<path d="M104.306 252.74L107.633 258.153L111.901 256.007L108.848 249.962L104.306 252.74Z" fill="#FF6D66"/>
<path d="M108.866 260.235L112.008 266.093L115.932 264.047L112.807 258.064L108.866 260.235Z" fill="#FF8DAF"/>
<path d="M112.986 268.244L116.314 273.657L119.85 271.717L116.963 265.98L112.986 268.244Z" fill="#A0C6F4"/>
<path d="M263.264 269.822L282.095 257.494L283.62 259.473L264.52 271.77L263.264 269.822Z" stroke="#2A1E17" stroke-miterlimit="10" stroke-linecap="round" stroke-linejoin="round"/>
<path d="M259.448 267.878L260.661 269.556" stroke="#2A1E17" stroke-miterlimit="10" stroke-linecap="round" stroke-linejoin="round"/>
<path d="M259.269 269.291L260.814 268.12" stroke="#2A1E17" stroke-miterlimit="10" stroke-linecap="round" stroke-linejoin="round"/>
<path d="M260.802 275.367L263.09 278.534" stroke="#2A1E17" stroke-miterlimit="10" stroke-linecap="round" stroke-linejoin="round"/>
<path d="M260.584 277.925L263.362 275.917" stroke="#2A1E17" stroke-miterlimit="10" stroke-linecap="round" stroke-linejoin="round"/>
<path d="M254.161 271.083L257.169 275.285" stroke="#2A1E17" stroke-miterlimit="10" stroke-linecap="round" stroke-linejoin="round"/>
<path d="M253.665 274.48L257.557 271.661" stroke="#2A1E17" stroke-miterlimit="10" stroke-linecap="round" stroke-linejoin="round"/>
<path d="M49.2781 190.568L34.2671 188.972L34.3158 187.297L49.4522 189.023L49.2781 190.568Z" stroke="#2A1E17" stroke-width="0.671" stroke-miterlimit="10" stroke-linecap="round" stroke-linejoin="round"/>
<path d="M50.4336 193.197L50.5165 191.811" stroke="#2A1E17" stroke-width="0.671" stroke-miterlimit="10" stroke-linecap="round" stroke-linejoin="round"/>
<path d="M51.1263 192.54L49.8262 192.492" stroke="#2A1E17" stroke-width="0.671" stroke-miterlimit="10" stroke-linecap="round" stroke-linejoin="round"/>
<path d="M52.9101 188.734L53.0672 186.118" stroke="#2A1E17" stroke-width="0.671" stroke-miterlimit="10" stroke-linecap="round" stroke-linejoin="round"/>
<path d="M54.1098 187.499L51.8154 187.361" stroke="#2A1E17" stroke-width="0.671" stroke-miterlimit="10" stroke-linecap="round" stroke-linejoin="round"/>
<path d="M54.5393 193.778L54.7608 190.319" stroke="#2A1E17" stroke-width="0.671" stroke-miterlimit="10" stroke-linecap="round" stroke-linejoin="round"/>
<path d="M56.2395 192.225L53.0215 192.037" stroke="#2A1E17" stroke-width="0.671" stroke-miterlimit="10" stroke-linecap="round" stroke-linejoin="round"/>
<path d="M124.001 189.345C112.606 185.746 100.162 178.419 100.647 166.525C100.647 166.525 105.605 160.199 117.405 162.181L129.205 164.163L124.001 189.345Z" fill="#FF8DAF"/>
<path d="M134.37 234.901C129.58 234.306 108.85 230.92 100.518 216.214C93.3194 203.506 97.6829 181.745 100.227 171.928C103.433 182.792 117.229 188.337 123.675 190.374C130.203 192.436 134.696 193.017 140.714 193.265L134.37 234.901Z" fill="white"/>
<path d="M100.489 175.388C103.971 182.163 111.866 187.776 123.35 191.403C129.551 193.362 133.942 194.007 139.467 194.288L133.463 233.693C127.392 232.814 109.062 229.103 101.459 215.682C95.1375 204.525 98.0201 186.017 100.489 175.388ZM100.646 166.525C100.646 166.525 89.775 199.439 99.5793 216.746C109.384 234.052 135.282 236.086 135.282 236.086L141.964 192.23C135.29 192.007 130.836 191.503 124 189.344C112.605 185.745 100.162 178.419 100.646 166.525Z" fill="#FF8DAF"/>
<path d="M100.559 183.601C100.559 183.601 105.199 193.858 117.706 196.053" stroke="#2A1E17" stroke-miterlimit="10" stroke-linecap="round" stroke-linejoin="round"/>
<path d="M124.652 197.975L137.159 200.17" stroke="#2A1E17" stroke-miterlimit="10" stroke-linecap="round" stroke-linejoin="round"/>
<path d="M107.079 198.289C107.079 198.289 112.997 204.758 125.633 206.069" stroke="#2A1E17" stroke-miterlimit="10" stroke-linecap="round" stroke-linejoin="round"/>
<path d="M98.7217 202.303C98.7217 202.303 101.727 210.152 107.917 211.061" stroke="#2A1E17" stroke-miterlimit="10" stroke-linecap="round" stroke-linejoin="round"/>
<path d="M101.745 170.584C101.745 170.584 104.132 181.148 124 189.344" stroke="#2A1E17" stroke-miterlimit="10" stroke-linecap="round" stroke-linejoin="round"/>
<path d="M108.066 170.608C108.066 170.608 112.878 168.602 121.841 171.544" stroke="#2A1E17" stroke-miterlimit="10" stroke-linecap="round" stroke-linejoin="round"/>
<path d="M95.6169 210.945C96.9711 216.128 103.667 234.327 134.194 237.293" stroke="#2A1E17" stroke-miterlimit="10" stroke-linecap="round" stroke-linejoin="round"/>
<path d="M262.489 144.655L258.642 171.041C258.642 171.041 267.241 171.339 264.139 182.105C264.139 182.105 280.251 183.317 284.501 164.993C288.749 146.669 262.489 144.655 262.489 144.655Z" fill="#69E0AF"/>
<path d="M259.41 222.438C253.688 224.322 246.879 223.973 239.16 221.403L248.777 179.394L263.968 183.174L264.059 183.182C264.192 183.192 267.369 183.411 271.322 182.11L271.323 182.11C274.502 181.063 278.268 179.001 281.265 174.949L274.512 206.495C274.492 206.558 271.077 218.596 259.412 222.437L259.41 222.438V222.438Z" fill="white"/>
<path d="M249.584 180.707L263.618 184.2L263.795 184.244L263.978 184.258C264.12 184.269 267.504 184.503 271.659 183.135C274.085 182.337 276.835 180.979 279.363 178.676L273.47 206.201C273.24 206.988 269.874 217.856 259.074 221.412C253.805 223.147 247.541 222.9 240.433 220.68L249.584 180.707ZM284.501 164.993C282.099 175.346 275.913 179.462 270.984 181.084C267.189 182.334 264.139 182.105 264.139 182.105L247.969 178.081L237.89 222.11C247.199 225.389 254.33 225.247 259.748 223.463C272.135 219.385 275.566 206.721 275.566 206.721L284.501 164.993Z" fill="#69E0AF"/>
<path d="M258.642 171.041C258.642 171.041 268.057 171.242 264.14 182.105" stroke="#2A1E17" stroke-miterlimit="10" stroke-linecap="round" stroke-linejoin="round"/>
<path d="M247.449 177.38C247.449 177.38 262.403 184.122 268.739 181.956C275.076 179.792 282.034 175.822 283.936 166.786" stroke="#2A1E17" stroke-miterlimit="10" stroke-linecap="round" stroke-linejoin="round"/>
<path d="M253.34 190.53C253.34 190.53 263.531 194.937 271.609 189.784" stroke="#2A1E17" stroke-miterlimit="10" stroke-linecap="round" stroke-linejoin="round"/>
<path d="M265.068 198.267C265.068 198.267 270.227 200.006 275.044 195.169" stroke="#2A1E17" stroke-miterlimit="10" stroke-linecap="round" stroke-linejoin="round"/>
<path d="M247.456 208.848C247.456 208.848 260.129 215.199 273.095 203.99" stroke="#2A1E17" stroke-miterlimit="10" stroke-linecap="round" stroke-linejoin="round"/>
<path d="M249.602 197.878C249.602 197.878 254.413 199.38 257.147 199.466" stroke="#2A1E17" stroke-miterlimit="10" stroke-linecap="round" stroke-linejoin="round"/>
<path d="M266.596 150.593C266.596 150.593 276.251 150.574 281.081 161.731" stroke="#2A1E17" stroke-miterlimit="10" stroke-linecap="round" stroke-linejoin="round"/>
<path d="M275.657 163.363C275.657 163.363 281.714 168.251 276.976 176.695" stroke="#2A1E17" stroke-miterlimit="10" stroke-linecap="round" stroke-linejoin="round"/>
<path d="M239.269 223.577C239.269 223.577 267.327 235.115 275.994 207.968" stroke="#2A1E17" stroke-miterlimit="10" stroke-linecap="round" stroke-linejoin="round"/>
<path d="M57.792 204.206L62.8939 202.526" stroke="#FF6D66" stroke-miterlimit="10" stroke-linecap="round" stroke-linejoin="round"/>
<path d="M321.806 49.2656L326.909 47.5857" stroke="#FF6D66" stroke-miterlimit="10" stroke-linecap="round" stroke-linejoin="round"/>
<path d="M173.457 59.3064L178.559 57.6267" stroke="#FF8DAF" stroke-miterlimit="10"/>
<path d="M340.26 72.5217L345.578 71.7703" stroke="#FF8DAF" stroke-miterlimit="10"/>
<path d="M181.754 265.815L186.856 264.135" stroke="#A0C6F4" stroke-miterlimit="10" stroke-linecap="round" stroke-linejoin="round"/>
</svg>
