<svg width="375" height="412" viewBox="0 0 375 412" fill="none" xmlns="http://www.w3.org/2000/svg">
<mask id="mask0_72_75712" style="mask-type:alpha" maskUnits="userSpaceOnUse" x="0" y="0" width="375" height="393">
<rect width="375" height="393" rx="10" fill="#33BFBF"/>
</mask>
<g mask="url(#mask0_72_75712)">
<path d="M101.001 280.661L100.648 280.292L102.866 278.177L103.218 278.546L101.001 280.661ZM105.429 276.418L105.071 276.054C105.791 275.345 106.514 274.613 107.219 273.879L107.587 274.233C106.879 274.97 106.152 275.706 105.429 276.418ZM109.685 271.989L109.307 271.645C109.984 270.901 110.667 270.131 111.336 269.357L111.722 269.691C111.05 270.469 110.365 271.242 109.685 271.989ZM113.7 267.342L113.306 267.017C113.943 266.241 114.586 265.437 115.217 264.63L115.619 264.944C114.986 265.755 114.341 266.561 113.7 267.342ZM117.48 262.502L117.071 262.197C117.67 261.392 118.275 260.559 118.869 259.723L119.285 260.018C118.69 260.858 118.082 261.693 117.48 262.502ZM121.035 257.496L120.612 257.21C121.184 256.365 121.747 255.515 122.302 254.659L122.731 254.937C122.174 255.795 121.609 256.648 121.035 257.496ZM149.019 253.954C148.077 253.954 147.125 253.773 146.267 253.43L146.456 252.956C147.255 253.275 148.141 253.444 149.019 253.444C149.146 253.432 149.24 253.441 149.35 253.436L149.375 253.946C149.256 253.952 149.115 253.944 149.019 253.954ZM152.41 253.081L152.155 252.639C152.996 252.154 153.7 251.443 154.192 250.582L154.635 250.836C154.099 251.774 153.33 252.551 152.41 253.081ZM124.374 252.344L123.94 252.075C124.477 251.209 125.007 250.337 125.528 249.46L125.967 249.721C125.444 250.6 124.913 251.475 124.374 252.344ZM143.679 251.632C142.991 250.894 142.426 250.002 141.997 248.983L142.468 248.785C142.873 249.749 143.406 250.59 144.053 251.285L143.679 251.632ZM155.481 247.792L154.97 247.781L154.972 247.645C154.972 246.879 154.816 246.129 154.521 245.476C154.444 245.305 154.359 245.139 154.267 244.977L154.711 244.726C154.81 244.901 154.902 245.08 154.986 245.265C155.311 245.984 155.482 246.807 155.482 247.645L155.481 247.792ZM127.714 247.256L127.322 246.928C127.985 246.137 128.717 245.393 129.499 244.717L129.833 245.103C129.072 245.762 128.359 246.486 127.714 247.256ZM141.207 245.959C141.149 245.475 141.12 244.978 141.12 244.481C141.119 243.94 141.154 243.388 141.224 242.839L141.73 242.903C141.664 243.431 141.63 243.962 141.63 244.481C141.63 244.957 141.659 245.434 141.715 245.898L141.207 245.959ZM132.268 243.316L132 242.882C132.866 242.345 133.792 241.863 134.75 241.451L134.952 241.92C134.017 242.323 133.114 242.792 132.268 243.316ZM152.303 242.789C151.56 242.223 150.682 241.734 149.693 241.336L149.884 240.862C150.915 241.277 151.833 241.789 152.613 242.383L152.303 242.789ZM137.809 240.924L137.675 240.431C138.673 240.16 139.695 239.958 140.714 239.831L140.778 240.338C139.782 240.462 138.784 240.659 137.809 240.924ZM146.801 240.5C145.833 240.316 144.823 240.21 143.798 240.185L143.81 239.674C144.863 239.7 145.901 239.809 146.896 239.999L146.801 240.5ZM142.435 239.984L141.954 239.811C142.303 238.842 142.756 237.899 143.303 237.007L143.738 237.274C143.21 238.136 142.772 239.048 142.435 239.984ZM145.558 234.877L145.183 234.529C145.332 234.369 145.484 234.212 145.64 234.057C146.211 233.492 146.84 232.957 147.509 232.467L147.811 232.879C147.162 233.354 146.553 233.873 146 234.42C145.849 234.57 145.701 234.722 145.558 234.877ZM150.392 231.315L150.165 230.858C151.088 230.4 152.058 230.015 153.049 229.712L153.198 230.2C152.234 230.495 151.29 230.87 150.392 231.315ZM156.154 229.439L156.027 228.944C157.026 228.688 158.019 228.421 158.98 228.148L159.119 228.64C158.155 228.913 157.157 229.182 156.154 229.439ZM162.062 227.76L161.909 227.272C162.894 226.962 163.871 226.639 164.81 226.31L164.979 226.793C164.034 227.123 163.053 227.448 162.062 227.76ZM167.863 225.731L167.678 225.254C168.635 224.883 169.586 224.494 170.505 224.097L170.708 224.566C169.782 224.966 168.825 225.357 167.863 225.731ZM173.506 223.294L173.285 222.833L176.041 221.495L176.265 221.954L173.506 223.294ZM179.021 220.614L178.797 220.154L181.554 218.815L181.777 219.274L179.021 220.614ZM184.533 217.934L184.31 217.475L187.066 216.135L187.289 216.594L184.533 217.934ZM190.046 215.255L189.822 214.795L192.579 213.455L192.802 213.915L190.046 215.255ZM195.558 212.575L195.335 212.115L198.091 210.775L198.315 211.235L195.558 212.575Z" fill="white"/>
<path d="M186.141 147.594C186.141 147.7 186.141 147.8 186.153 147.906H253.325C253.15 142.368 248.33 137.928 242.418 137.928C240.523 137.928 238.745 138.384 237.193 139.182C237.274 134.873 235.204 130.745 231.387 128.531C225.663 125.214 218.174 127.465 214.669 133.563C213.616 135.403 213.036 137.38 212.905 139.344C210.111 138.066 206.65 137.305 202.896 137.305C193.642 137.305 186.141 141.913 186.141 147.594Z" fill="url(#paint0_linear_72_75712)"/>
<path d="M75.1836 262.594C75.1836 262.7 75.1836 262.8 75.1709 262.906H7.9994C8.17389 257.368 12.9942 252.928 18.9057 252.928C20.8015 252.928 22.5788 253.384 24.1314 254.182C24.0503 249.873 26.1205 245.745 29.9369 243.531C35.6613 240.214 43.1505 242.465 46.6548 248.563C47.7087 250.403 48.2885 252.38 48.4197 254.344C51.2132 253.066 54.6741 252.305 58.4279 252.305C67.6819 252.305 75.1836 256.913 75.1836 262.594Z" fill="url(#paint1_linear_72_75712)"/>
<path d="M182.699 284.037C182.699 290.564 187.992 295.857 194.519 295.857H325.803C332.33 295.857 337.622 290.564 337.622 284.037V204.16H182.699V284.037Z" fill="white" fill-opacity="0.2"/>
<path opacity="0.7" d="M286.431 206.717C243.402 247.182 212.888 258.093 174.446 261.995L171.893 302.857L212.244 316.648C247.488 315.626 281.328 264.605 302.232 220.836L286.431 206.717Z" fill="url(#paint2_linear_72_75712)"/>
<path opacity="0.4" d="M294.474 207.662C290.336 213.148 284.142 218.435 276.822 225.558L286.731 220.856C285.489 223.135 283.683 226.324 282.676 227.696C284.962 226.474 288.651 223.81 289.882 222.41C289.851 224.333 287.748 227.586 286.826 229.36C292.153 224.197 297.023 217.922 298.651 212.458L294.474 207.662Z" fill="white" fill-opacity="0.3"/>
<path d="M230.222 235.774C230.278 237.053 230.221 239.212 228.943 239.952C226.81 241.188 225.131 238.189 224.348 236.681C223.414 234.881 223.653 232.648 225.766 231.845C228.556 230.785 230.12 233.386 230.222 235.774Z" fill="#D1D1FF" fill-opacity="0.2"/>
<path d="M218.883 223.091C219.871 223.091 220.671 222.291 220.671 221.303C220.671 220.316 219.871 219.516 218.883 219.516C217.896 219.516 217.096 220.316 217.096 221.303C217.096 222.291 217.896 223.091 218.883 223.091Z" fill="#D1D1FF" fill-opacity="0.2"/>
<path d="M325.804 296.113H194.52C187.862 296.113 182.445 290.696 182.445 284.038V203.906H337.879V284.038C337.879 290.696 332.462 296.113 325.804 296.113ZM182.956 204.417V284.038C182.956 290.415 188.144 295.603 194.52 295.603H325.804C332.18 295.603 337.368 290.415 337.368 284.038V204.417H182.956Z" fill="white"/>
<mask id="mask1_72_75712" style="mask-type:alpha" maskUnits="userSpaceOnUse" x="182" y="203" width="156" height="94">
<path d="M325.804 296.113H194.52C187.862 296.113 182.445 290.696 182.445 284.038V203.906H337.879V284.038C337.879 290.696 332.462 296.113 325.804 296.113ZM182.956 204.417V284.038C182.956 290.415 188.144 295.603 194.52 295.603H325.804C332.18 295.603 337.368 290.415 337.368 284.038V204.417H182.956Z" fill="#9192FF"/>
</mask>
<g mask="url(#mask1_72_75712)">
</g>
<path d="M325.804 173.215H194.521C187.994 173.215 182.701 178.505 182.701 185.034V204.161H337.624V185.034C337.624 178.505 332.332 173.215 325.804 173.215Z" fill="white" fill-opacity="0.2"/>
<path d="M337.879 204.416H182.445V185.034C182.445 178.376 187.862 172.959 194.52 172.959H325.804C332.462 172.959 337.879 178.376 337.879 185.034V204.416ZM182.956 203.906H337.368V185.034C337.368 178.658 332.18 173.47 325.804 173.47H194.52C188.144 173.47 182.956 178.658 182.956 185.034V203.906V203.906Z" fill="white"/>
<path d="M198.306 195.169C201.885 195.169 204.786 192.268 204.786 188.689C204.786 185.11 201.885 182.209 198.306 182.209C194.727 182.209 191.826 185.11 191.826 188.689C191.826 192.268 194.727 195.169 198.306 195.169Z" fill="white" fill-opacity="0.4"/>
<path d="M217.394 195.169C220.973 195.169 223.874 192.268 223.874 188.689C223.874 185.11 220.973 182.209 217.394 182.209C213.815 182.209 210.914 185.11 210.914 188.689C210.914 192.268 213.815 195.169 217.394 195.169Z" fill="white" fill-opacity="0.4"/>
<path d="M217.394 195.424C213.68 195.424 210.658 192.402 210.658 188.688C210.658 184.974 213.68 181.953 217.394 181.953C221.108 181.953 224.129 184.975 224.129 188.688C224.129 192.402 221.108 195.424 217.394 195.424ZM217.394 182.464C213.961 182.464 211.169 185.256 211.169 188.688C211.169 192.12 213.961 194.913 217.394 194.913C220.826 194.913 223.618 192.12 223.618 188.688C223.618 185.256 220.826 182.464 217.394 182.464Z" fill="white" fill-opacity="0.4"/>
<path d="M266.723 194.874H240.921C237.505 194.874 234.736 192.105 234.736 188.689C234.736 185.273 237.506 182.504 240.921 182.504H266.723C270.139 182.504 272.908 185.273 272.908 188.689C272.908 192.105 270.139 194.874 266.723 194.874Z" fill="white" fill-opacity="0.4"/>
<path d="M266.722 195.129H240.921C237.369 195.129 234.48 192.24 234.48 188.689C234.48 185.137 237.37 182.248 240.921 182.248H266.722C270.274 182.248 273.163 185.137 273.163 188.689C273.163 192.24 270.274 195.129 266.722 195.129ZM240.921 182.759C237.651 182.759 234.991 185.419 234.991 188.689C234.991 191.958 237.651 194.618 240.921 194.618H266.722C269.992 194.618 272.652 191.958 272.652 188.689C272.652 185.419 269.992 182.759 266.722 182.759H240.921Z" fill="white" fill-opacity="0.4"/>
<path d="M292.493 207.244C285.497 215.521 274.946 223.438 262.502 234.131L279.481 227.211C277.4 230.661 274.368 235.49 272.667 237.56C276.581 235.754 282.878 231.78 284.964 229.673C284.963 232.613 281.421 237.531 279.877 240.217C288.934 232.467 297.173 223.004 299.834 214.691L292.493 207.244Z" fill="#FFA121"/>
<path d="M319.38 159.117C309.033 168.174 291.189 161.931 285.645 169.163L301.489 181.71L319.38 159.117Z" fill="#FF6150"/>
<path d="M285.644 169.164C284.851 171.274 285.281 173.648 286.763 175.346L297.99 188.206L301.488 181.711L285.644 169.164Z" fill="#FF6150"/>
<path d="M342.827 177.686C336.383 189.832 346.549 205.77 340.78 212.825L324.936 200.279L342.827 177.686Z" fill="#FF6150"/>
<path d="M340.781 212.826C338.91 214.082 336.5 214.207 334.507 213.154L319.416 205.173L324.937 200.279L340.781 212.826Z" fill="#FF6150"/>
<path d="M350.878 143.549L336.771 148.728L349.07 158.467L350.878 143.549Z" fill="#072448"/>
<path d="M349.07 158.468C347.1 180.79 330.607 201.618 310.575 213.187L292.32 198.747C299.98 174.648 314.245 157.403 336.771 148.729L349.07 158.468Z" fill="#F8AA4B"/>
<path d="M292.32 198.746L284.402 204.229L307.051 222.163L310.575 213.186L292.32 198.746Z" fill="#FF6150"/>
<path d="M331.476 176.522C336.155 176.522 339.948 172.729 339.948 168.05C339.948 163.371 336.155 159.578 331.476 159.578C326.797 159.578 323.004 163.371 323.004 168.05C323.004 172.729 326.797 176.522 331.476 176.522Z" fill="white"/>
<path d="M332.117 174.055L332.063 173.547C332.549 173.496 333.026 173.38 333.482 173.203L333.666 173.679C333.169 173.872 332.648 173.999 332.117 174.055ZM330.522 174.015C329.994 173.931 329.479 173.777 328.993 173.557L329.204 173.092C329.648 173.293 330.119 173.434 330.602 173.51L330.522 174.015ZM335.064 172.91L334.761 172.499C335.152 172.21 335.505 171.868 335.81 171.483L336.21 171.8C335.877 172.22 335.492 172.594 335.064 172.91ZM327.64 172.714C327.226 172.374 326.86 171.981 326.552 171.548L326.968 171.252C327.25 171.649 327.585 172.008 327.964 172.32L327.64 172.714ZM336.834 170.839L336.381 170.603C336.607 170.17 336.774 169.708 336.878 169.23L337.377 169.339C337.263 169.861 337.081 170.366 336.834 170.839ZM325.808 170.136C325.625 169.636 325.508 169.112 325.461 168.579L325.97 168.534C326.013 169.023 326.12 169.502 326.288 169.96L325.808 170.136ZM336.998 167.775C336.972 167.285 336.883 166.802 336.732 166.338L337.218 166.181C337.383 166.687 337.48 167.214 337.507 167.748L336.998 167.775ZM326.034 167.075L325.531 166.986C325.625 166.459 325.789 165.948 326.018 165.466L326.479 165.685C326.27 166.126 326.12 166.594 326.034 167.075ZM336.101 165.022C335.835 164.615 335.513 164.243 335.146 163.917L335.485 163.535C335.885 163.891 336.237 164.297 336.528 164.742L336.101 165.022ZM327.274 164.46L326.886 164.128C327.234 163.721 327.633 163.362 328.072 163.062L328.361 163.484C327.958 163.758 327.593 164.087 327.274 164.46ZM333.936 163.1C333.499 162.882 333.033 162.724 332.554 162.629L332.653 162.127C333.177 162.231 333.685 162.404 334.163 162.642L333.936 163.1ZM329.665 162.828L329.498 162.346C330.002 162.172 330.527 162.065 331.06 162.027L331.096 162.537C330.608 162.571 330.126 162.669 329.665 162.828Z" fill="#9192FF"/>
<path d="M289.728 221.185L289.324 220.865C288.732 220.396 288.631 219.528 289.1 218.935L304.988 198.871C305.457 198.279 306.326 198.178 306.919 198.647L307.322 198.967C307.915 199.436 308.016 200.304 307.547 200.897L291.659 220.961C291.189 221.553 290.321 221.654 289.728 221.185Z" fill="#072448"/>
<path d="M312.278 375.24H247.073C242.908 375.24 239.531 371.864 239.531 367.698V326.006C239.531 321.841 242.908 318.465 247.073 318.465H312.278C316.443 318.465 319.82 321.841 319.82 326.006V367.698C319.82 371.864 316.443 375.24 312.278 375.24Z" fill="white" fill-opacity="0.2"/>
<path d="M262.183 351.629H253.49V369.284H262.183V351.629Z" fill="white" fill-opacity="0.4"/>
<path d="M276.742 352.195H268.049V369.283H276.742V352.195Z" fill="white" fill-opacity="0.4"/>
<path d="M291.301 343.27H282.607V369.284H291.301V343.27Z" fill="white" fill-opacity="0.4"/>
<path d="M305.859 335.637H297.166V369.283H305.859V335.637Z" fill="white" fill-opacity="0.4"/>
<path d="M302.998 326.461H256.352V328.5H302.998V326.461Z" fill="white" fill-opacity="0.4"/>
<path d="M114.324 260.038C112.846 254.914 109.717 250.421 105.424 247.257L103.699 245.986L105.163 276.272L116.482 267.516L114.324 260.038Z" fill="#FF6150"/>
<path d="M150.698 296.645L148.183 291.721C147.546 290.473 146.415 289.551 145.065 289.177L137.667 287.128L118.633 274.976L116.481 267.516L105.162 276.272L105.265 278.399C105.471 282.666 108.088 286.443 112.011 288.136L130.492 296.108L139.277 296.303C142.108 297.279 143.084 299.72 144.841 298.841C145.496 298.513 142.938 294.302 142.938 294.302L147.184 298.987L150.698 296.645Z" fill="#FFBC96"/>
<path d="M118.857 275.178L118.41 274.799L115.922 277.729L116.369 278.108L118.857 275.178Z" fill="#D28572"/>
<path d="M117.596 308.915L131.443 307.692C140.457 306.896 148.299 314.176 148.738 323.748L151.867 391.948L132.765 392.544L117.596 308.915Z" fill="#041427"/>
<path d="M134.301 391.864L134.886 410.703H163.193L149.235 399.087L148.357 390.01L134.301 391.864Z" fill="#1B1B43"/>
<path d="M127.859 391.864L128.445 410.703H156.752L142.794 399.087L141.915 390.01L127.859 391.864Z" fill="#D1D1FF"/>
<path d="M148.942 393.718H125.516L108.819 342.345L106.482 335.153L73.0995 335.006C71.038 334.977 69.0643 334.023 67.3894 332.611C63.8403 329.618 62.2062 324.916 62.8506 320.318L65.779 299.428L115.372 305.876C124.778 307.1 132.374 314.139 134.307 323.422L148.942 393.718Z" fill="#072448"/>
<path d="M113.364 335.152L108.819 342.344L106.482 335.152H113.364Z" fill="#1B1B43"/>
<path d="M107.231 295.646C106.991 296.612 106.739 297.578 106.481 298.55L104.724 305.725L81.5909 304.764L64.9349 304.073C60.5191 303.891 57.3212 299.792 58.2232 295.464L65.9891 258.093C66.9847 251.739 72.1444 246.848 78.5456 246.187L97.5502 244.23L103.7 245.988C109.703 249.209 109.709 255.048 109.995 258.872C111.255 275.61 109.703 285.748 107.231 295.646Z" fill="#FF6150"/>
<path opacity="0.3" d="M91.5472 294.451C91.3071 295.417 106.739 297.578 106.482 298.55L104.724 305.725L81.5909 304.764C73.5088 298.667 70.4811 285.402 67.5352 268.781L91.5472 294.451Z" fill="#1B1B43"/>
<path d="M86.9493 255.041C87.9625 256.128 89.1163 257.075 90.4063 257.782C91.6908 258.488 93.0889 259.006 94.537 259.176C95.9699 259.364 97.4824 259.242 98.7401 258.559C100.026 257.918 100.845 256.569 100.998 255.107L101.227 255.122C101.219 255.887 101.025 256.663 100.645 257.351C100.26 258.039 99.6732 258.61 98.9914 259.004C97.615 259.8 95.9813 259.944 94.4627 259.752C92.9346 259.54 91.463 259.005 90.1582 258.21C88.8445 257.427 87.6969 256.386 86.7734 255.188L86.9493 255.041Z" fill="#1B1B43"/>
<path d="M110.508 277.872L110.07 277.841C110.491 271.948 110.064 264.707 108.803 256.317L109.237 256.252C110.504 264.673 110.931 271.947 110.508 277.872Z" fill="#1B1B43"/>
<path d="M149.82 298.648H128.053V302.943H149.82V298.648Z" fill="#1B1B43"/>
<path d="M187.729 302.458H144L164.107 264H207.837L187.729 302.458Z" fill="white" fill-opacity="0.6"/>
<circle cx="175.5" cy="283.5" r="3.5" fill="url(#paint3_linear_72_75712)"/>
<path d="M91.7676 213.483C86.6431 208.432 76.9798 210.555 77.126 219.047C66.5842 221.828 65.9987 233.395 70.2446 239.325L73.9051 239.618L74.7103 235.298L76.8333 239.691L87.0823 240.35L91.7676 213.483Z" fill="#1B1B43"/>
<path d="M100.333 232.371V248.506C100.333 248.652 100.327 248.793 100.315 248.933C100.064 252.254 96.8482 254.603 93.5629 253.753C88.7195 252.5 85.3521 248.119 85.3929 243.118L85.4749 232.371H100.333V232.371Z" fill="#FFBC96"/>
<path d="M100.333 239.345V248.505C100.333 248.651 100.327 248.792 100.315 248.932C95.999 248.224 91.0093 243.228 89.791 237.787L100.333 239.345Z" fill="#1B1B43"/>
<path d="M109.065 233.565C108.842 234.848 108.543 236.16 108.145 237.407C106.857 241.501 104.543 244.898 100.403 244.306C90.6693 242.913 85.252 232.886 85.252 232.886L91.9109 225.273L96.3796 219.264L109.774 225.05C109.773 225.05 109.844 229.144 109.065 233.565Z" fill="#FFBC96"/>
<path d="M88.1308 230.32C92.4027 230.184 95.7068 228.008 97.1108 221.828C97.1108 221.828 107.067 230.418 111.947 225.83C116.034 221.989 109.101 213.15 97.6247 212.097C93.4443 211.714 89.2767 213.019 86.0006 215.644C80.4384 220.1 79.907 230.467 85.1047 234.054L88.1308 230.32Z" fill="#1B1B43"/>
<path d="M83.1303 219.487C82.8512 218.478 83.0594 217.359 83.5099 216.397C83.9669 215.427 84.6726 214.583 85.5148 213.929C86.357 213.274 87.3452 212.805 88.3837 212.588C89.4186 212.375 90.519 212.408 91.4758 212.825C90.4879 213.143 89.6321 213.481 88.8279 213.896C88.026 214.306 87.2847 214.782 86.5907 215.317C85.8983 215.855 85.2551 216.452 84.6761 217.128C84.0936 217.808 83.5826 218.554 83.1303 219.487Z" fill="#FFA121"/>
<path d="M88.3472 234.743C90.0551 234.06 90.77 231.832 89.944 229.769C89.118 227.705 87.0639 226.586 85.3561 227.27C83.6482 227.954 82.9333 230.181 83.7593 232.244C84.5852 234.308 86.6394 235.427 88.3472 234.743Z" fill="#FFBC96"/>
<path d="M86.8525 233.216C86.9256 232.503 86.9305 231.828 86.7227 231.207C86.5211 230.584 86.1255 230.041 85.6699 229.483L85.8138 229.305C86.4757 229.649 87.0378 230.267 87.2776 231.029C87.5185 231.79 87.4139 232.62 87.0717 233.282L86.8525 233.216Z" fill="#1B1B43"/>
<path d="M101.858 232.15C102.405 232.15 102.848 231.66 102.848 231.056C102.848 230.451 102.405 229.961 101.858 229.961C101.312 229.961 100.869 230.451 100.869 231.056C100.869 231.66 101.312 232.15 101.858 232.15Z" fill="#1B1B43"/>
<path d="M107.048 232.773C107.531 232.832 107.976 232.447 108.041 231.913C108.107 231.379 107.769 230.897 107.286 230.838C106.803 230.779 106.359 231.164 106.293 231.698C106.227 232.232 106.565 232.714 107.048 232.773Z" fill="#1B1B43"/>
<path d="M102.798 228.307C102.838 228.819 102.019 228.867 100.814 228.903C99.6083 228.939 98.7753 229.312 98.7657 228.988C98.7561 228.665 99.6479 227.834 100.837 227.633C102.064 227.426 102.751 227.699 102.798 228.307Z" fill="#1B1B43"/>
<path d="M106.649 228.8C106.56 229.304 107.162 229.434 108.054 229.59C108.945 229.746 109.52 230.2 109.565 229.88C109.609 229.559 109.043 228.645 108.184 228.327C107.297 227.998 106.755 228.2 106.649 228.8Z" fill="#1B1B43"/>
<path d="M105.217 232.828C105.445 233.108 105.699 233.35 105.96 233.598L106.355 233.966C106.491 234.09 106.639 234.226 106.771 234.432C106.835 234.537 106.888 234.672 106.896 234.822C106.908 234.975 106.86 235.123 106.799 235.237C106.663 235.465 106.502 235.596 106.326 235.714C105.976 235.944 105.598 236.039 105.231 236.111L105.146 235.898C105.461 235.695 105.775 235.513 106.019 235.302C106.135 235.198 106.25 235.071 106.292 234.974C106.337 234.876 106.324 234.844 106.269 234.73C106.14 234.516 105.808 234.232 105.591 233.936C105.354 233.641 105.14 233.307 105.016 232.938L105.217 232.828Z" fill="#1B1B43"/>
<path d="M100.259 236.432C100.858 237.114 101.481 237.746 102.23 238.147C102.975 238.56 103.823 238.676 104.72 238.579L104.781 238.8C104.348 238.992 103.859 239.096 103.365 239.067C102.872 239.046 102.383 238.897 101.953 238.66C101.089 238.18 100.452 237.404 100.066 236.555L100.259 236.432Z" fill="#1B1B43"/>
<path opacity="0.2" d="M96.7469 235.81C98.0816 235.81 99.1637 234.728 99.1637 233.393C99.1637 232.059 98.0816 230.977 96.7469 230.977C95.4121 230.977 94.3301 232.059 94.3301 233.393C94.3301 234.728 95.4121 235.81 96.7469 235.81Z" fill="#FE5B52"/>
<path opacity="0.2" d="M109.065 233.564C108.843 234.847 108.544 236.159 108.146 237.406C107.771 236.979 107.543 236.423 107.543 235.808C107.543 234.788 108.175 233.922 109.065 233.564Z" fill="#FE5B52"/>
<path d="M81.4933 262.141L67.5352 268.778L71.9129 279.155L86.5479 272.405L81.4933 262.141Z" fill="#FF6150"/>
<path d="M133.198 298.13C132.81 297.936 132.568 297.807 132.568 297.807L132.708 297.531C132.708 297.531 132.966 297.655 133.34 297.856L133.198 298.13Z" fill="#C5C5FF"/>
<path d="M138.985 299.575C138.534 300.465 135.079 298.889 133.469 298.099C134.716 298.79 136.865 300.149 135.911 300.893C135.144 301.484 133.445 300.225 127.881 297.917C128.725 298.315 133.697 300.681 132.444 301.578C131.079 302.55 125.222 300.406 125.222 300.406L120.145 303.135H114.288L93.2163 303.27C91.8926 303.276 90.5809 303.106 89.3099 302.778C86.8091 302.14 84.4549 300.898 82.4577 299.229C81.1985 298.175 80.1151 296.939 79.2073 295.581C78.528 294.562 77.9482 293.466 77.468 292.324L71.9102 279.159L86.5458 272.406L94.1827 287.909L119.366 293.379L126.394 291.621C127.905 291.241 130.043 291.879 131.372 292.693C134.616 294.679 139.407 298.726 138.985 299.575Z" fill="#FFBC96"/>
<path opacity="0.2" d="M89.6902 300.6C89.6902 301.367 89.5556 302.1 89.3096 302.779C86.8088 302.141 84.4546 300.899 82.4574 299.23C81.1982 298.176 80.1148 296.94 79.207 295.581C80.314 294.691 81.7194 294.158 83.2481 294.158C86.8088 294.158 89.6902 297.039 89.6902 300.6Z" fill="#FE5B52"/>
<path d="M119.33 293.267C121.076 292.686 122.846 292.185 124.651 291.808C125.554 291.623 126.468 291.47 127.4 291.417C127.866 291.39 128.338 291.399 128.814 291.454C129.049 291.5 129.283 291.562 129.517 291.618C129.741 291.697 129.959 291.787 130.18 291.871C131.893 292.648 133.386 293.758 134.83 294.901C136.273 296.052 137.635 297.287 138.96 298.575L139.021 298.634L139.033 298.709C139.08 298.987 139.048 299.243 138.894 299.502C138.8 299.611 138.703 299.73 138.576 299.783C138.454 299.861 138.332 299.89 138.21 299.91C137.725 299.989 137.3 299.889 136.895 299.781C136.081 299.557 135.354 299.185 134.622 298.827C133.905 298.443 133.198 298.044 132.513 297.615C131.817 297.202 131.155 296.74 130.476 296.301L130.786 295.807C131.984 296.517 133.149 297.263 134.263 298.109C134.816 298.539 135.364 298.977 135.835 299.553C135.948 299.706 136.061 299.86 136.14 300.068C136.183 300.166 136.207 300.291 136.21 300.425C136.199 300.566 136.156 300.715 136.059 300.825C135.875 301.038 135.653 301.111 135.465 301.157C135.27 301.209 135.087 301.218 134.902 301.237L134.844 301.243L134.782 301.217L128.425 298.553L128.615 298.107C129.617 298.569 130.591 299.065 131.521 299.675C131.974 299.999 132.451 300.292 132.785 300.852C132.861 300.994 132.916 301.21 132.837 301.412C132.757 301.608 132.601 301.732 132.459 301.8C132.166 301.95 131.869 301.981 131.585 301.996C130.445 302.022 129.375 301.756 128.313 301.493C127.254 301.213 126.213 300.884 125.184 300.511L125.262 300.295C126.289 300.639 127.334 300.943 128.387 301.193C129.437 301.429 130.518 301.661 131.562 301.609C132.06 301.589 132.654 301.37 132.412 301.042C132.183 300.658 131.712 300.331 131.279 300.043C130.379 299.47 129.401 298.987 128.42 298.551L128.61 298.104L134.991 300.712L134.871 300.691C135.028 300.674 135.191 300.664 135.329 300.625C135.474 300.595 135.589 300.53 135.629 300.481C135.718 300.446 135.598 300.131 135.398 299.896C134.993 299.403 134.457 298.968 133.921 298.558C132.835 297.741 131.671 297.002 130.495 296.312L130.804 295.818C131.478 296.248 132.131 296.715 132.817 297.123C133.493 297.551 134.185 297.945 134.884 298.323C135.591 298.673 136.305 299.039 137.045 299.244C137.408 299.348 137.794 299.42 138.104 299.367L138.217 299.347C138.252 299.338 138.273 299.316 138.303 299.303C138.37 299.284 138.391 299.23 138.437 299.197C138.494 299.109 138.519 298.945 138.499 298.827L138.573 298.961C137.277 297.683 135.913 296.458 134.507 295.299C133.097 294.152 131.627 293.038 130.003 292.278L129.385 292.032C129.173 291.982 128.964 291.922 128.752 291.876C128.316 291.821 127.87 291.806 127.42 291.825C126.519 291.862 125.615 291.987 124.719 292.153C122.926 292.485 121.149 292.945 119.403 293.483L119.33 293.267Z" fill="#D28572"/>
<path d="M72.0022 279.358L71.8184 278.959L86.2603 272.296L80.2452 258.22L80.6491 258.047L86.8319 272.516L72.0022 279.358Z" fill="#1B1B43"/>
<path d="M74.0669 341.012H73.3008V406.996H74.0669V341.012Z" fill="#1B1B43"/>
<path d="M92.1326 343.939H55.236C52.7293 343.939 50.6973 341.907 50.6973 339.4C50.6973 336.894 52.7293 334.861 55.236 334.861H92.1326C94.6395 334.861 96.6713 336.893 96.6713 339.4C96.6713 341.907 94.6393 343.939 92.1326 343.939Z" fill="#F8AA4B"/>
<path d="M183.714 410.672L118.312 312.006L117.664 312.395L183.066 411.061L183.714 410.672Z" fill="#1B1B43"/>
<path d="M183.732 312.387L183.084 311.998L117.658 410.641L118.306 411.03L183.732 312.387Z" fill="#1B1B43"/>
<path d="M207.996 302.941H93.4023V311.583H207.996V302.941Z" fill="white" fill-opacity="0.2"/>
<path d="M305.143 149.113C319.533 149.113 331.199 137.447 331.199 123.057C331.199 108.666 319.533 97 305.143 97C290.752 97 279.086 108.666 279.086 123.057C279.086 137.447 290.752 149.113 305.143 149.113Z" fill="white" fill-opacity="0.2"/>
<path d="M305.152 123.551L290.707 112.226L291.18 111.623L305.134 122.562L312.915 115.974L313.41 116.559L305.152 123.551Z" fill="#1B1B43"/>
<path d="M51.5867 188.021H38.3554C36.2262 188.021 34.5 189.748 34.5 191.877V205.108C34.5 207.237 36.226 208.964 38.3554 208.964H47.798L51.8666 214.582V208.949C53.8648 208.806 55.4421 207.143 55.4421 205.108V191.877C55.4421 189.748 53.7161 188.021 51.5867 188.021Z" fill="white"/>
<path d="M52.1214 215.369L47.667 209.218H38.3549C36.0883 209.218 34.2441 207.374 34.2441 205.108V191.876C34.2441 189.61 36.088 187.766 38.3549 187.766H51.5861C53.8527 187.766 55.6968 189.61 55.6968 191.876V205.108C55.6968 207.17 54.1444 208.915 52.1214 209.179V215.369V215.369ZM38.3547 188.276C36.3696 188.276 34.7547 189.891 34.7547 191.876V205.108C34.7547 207.093 36.3696 208.708 38.3547 208.708H47.9277L51.6104 213.794V208.711L51.8472 208.694C53.7193 208.56 55.1858 206.984 55.1858 205.108V191.876C55.1858 189.891 53.5709 188.276 51.5859 188.276H38.3547Z" fill="#F8AA4B"/>
<path d="M44.6985 205.302L39.4023 197.652L40.6621 196.779L44.56 202.409L50.43 191.904L51.7679 192.652L44.6985 205.302Z" fill="#F8AA4B"/>
</g>
<rect x="190" y="222" width="76" height="8" rx="4" fill="white" fill-opacity="0.2"/>
<rect x="190" y="235" width="66" height="8" rx="4" fill="white" fill-opacity="0.2"/>
<rect x="190" y="255" width="139" height="4" rx="2" fill="white" fill-opacity="0.2"/>
<rect x="216" y="278" width="113" height="4" rx="2" fill="white" fill-opacity="0.2"/>
<rect x="216" y="267" width="113" height="4" rx="2" fill="white" fill-opacity="0.2"/>
<defs>
<linearGradient id="paint0_linear_72_75712" x1="219.733" y1="127" x2="219.733" y2="147.906" gradientUnits="userSpaceOnUse">
<stop stop-color="white" stop-opacity="0.29"/>
<stop offset="1" stop-color="white" stop-opacity="0.06"/>
</linearGradient>
<linearGradient id="paint1_linear_72_75712" x1="41.5915" y1="242" x2="41.5915" y2="262.906" gradientUnits="userSpaceOnUse">
<stop stop-color="white" stop-opacity="0.29"/>
<stop offset="1" stop-color="white" stop-opacity="0.06"/>
</linearGradient>
<linearGradient id="paint2_linear_72_75712" x1="289.501" y1="218.499" x2="187.001" y2="298.499" gradientUnits="userSpaceOnUse">
<stop stop-color="white" stop-opacity="0.15"/>
<stop offset="1" stop-color="white" stop-opacity="0.17"/>
</linearGradient>
<linearGradient id="paint3_linear_72_75712" x1="175.5" y1="280" x2="175.5" y2="287" gradientUnits="userSpaceOnUse">
<stop stop-color="white"/>
<stop offset="1" stop-color="white" stop-opacity="0"/>
</linearGradient>
</defs>
</svg>
