<svg width="330" height="315" viewBox="0 0 330 315" fill="none" xmlns="http://www.w3.org/2000/svg">
<path d="M93.0014 183.662L92.6486 183.292L94.8657 181.177L95.2186 181.546L93.0014 183.662ZM97.4292 179.419L97.0707 179.055C97.7909 178.345 98.5137 177.614 99.219 176.879L99.5872 177.233C98.8788 177.97 98.1523 178.706 97.4292 179.419ZM101.685 174.989L101.307 174.645C101.985 173.901 102.667 173.132 103.336 172.357L103.722 172.691C103.05 173.469 102.365 174.242 101.685 174.989ZM105.7 170.342L105.306 170.017C105.943 169.241 106.586 168.438 107.217 167.63L107.619 167.945C106.986 168.755 106.341 169.562 105.7 170.342ZM109.48 165.502L109.071 165.197C109.67 164.392 110.275 163.559 110.869 162.723L111.285 163.018C110.69 163.858 110.083 164.693 109.48 165.502ZM113.035 160.496L112.612 160.21C113.184 159.365 113.748 158.515 114.302 157.66L114.731 157.937C114.174 158.795 113.609 159.648 113.035 160.496ZM141.019 156.954C140.077 156.954 139.125 156.773 138.267 156.43L138.457 155.956C139.255 156.275 140.141 156.444 141.019 156.444C141.146 156.432 141.24 156.441 141.35 156.436L141.375 156.946C141.256 156.952 141.115 156.944 141.019 156.954ZM144.411 156.082L144.155 155.639C144.997 155.154 145.701 154.443 146.192 153.582L146.635 153.836C146.099 154.775 145.33 155.551 144.411 156.082ZM116.374 155.344L115.94 155.075C116.478 154.209 117.007 153.337 117.528 152.46L117.967 152.721C117.445 153.6 116.914 154.475 116.374 155.344ZM135.679 154.633C134.991 153.894 134.426 153.002 133.997 151.983L134.468 151.785C134.873 152.749 135.406 153.59 136.053 154.285L135.679 154.633ZM147.481 150.792L146.97 150.781L146.972 150.645C146.972 149.879 146.816 149.129 146.521 148.476C146.444 148.305 146.359 148.139 146.267 147.978L146.711 147.726C146.811 147.901 146.902 148.081 146.986 148.265C147.311 148.984 147.483 149.807 147.483 150.645L147.481 150.792ZM119.714 150.257L119.322 149.928C119.985 149.137 120.717 148.394 121.499 147.718L121.833 148.103C121.072 148.762 120.359 149.486 119.714 150.257ZM133.208 148.959C133.149 148.475 133.12 147.978 133.12 147.481C133.12 146.941 133.154 146.388 133.224 145.839L133.73 145.903C133.664 146.431 133.63 146.962 133.63 147.481C133.63 147.958 133.659 148.434 133.715 148.898L133.208 148.959ZM124.268 146.316L124 145.882C124.867 145.345 125.792 144.864 126.75 144.451L126.952 144.921C126.017 145.323 125.114 145.792 124.268 146.316ZM144.303 145.789C143.56 145.223 142.682 144.734 141.693 144.336L141.884 143.862C142.915 144.278 143.833 144.789 144.613 145.383L144.303 145.789ZM129.809 143.924L129.675 143.431C130.673 143.16 131.695 142.958 132.715 142.831L132.778 143.338C131.782 143.462 130.784 143.659 129.809 143.924ZM138.801 143.501C137.833 143.316 136.823 143.21 135.798 143.185L135.81 142.675C136.863 142.7 137.901 142.809 138.896 142.999L138.801 143.501ZM134.435 142.984L133.954 142.812C134.303 141.842 134.756 140.899 135.303 140.007L135.738 140.274C135.21 141.136 134.772 142.048 134.435 142.984ZM137.558 137.877L137.183 137.529C137.332 137.369 137.484 137.212 137.64 137.057C138.211 136.492 138.84 135.957 139.51 135.467L139.811 135.879C139.162 136.354 138.553 136.873 138 137.42C137.849 137.57 137.701 137.722 137.558 137.877ZM142.392 134.315L142.165 133.858C143.088 133.4 144.059 133.015 145.049 132.712L145.198 133.2C144.234 133.495 143.29 133.87 142.392 134.315ZM148.154 132.439L148.027 131.944C149.026 131.689 150.02 131.421 150.98 131.148L151.119 131.64C150.155 131.913 149.157 132.182 148.154 132.439ZM154.063 130.76L153.909 130.272C154.895 129.962 155.871 129.639 156.811 129.311L156.979 129.793C156.034 130.123 155.053 130.448 154.063 130.76ZM159.863 128.731L159.679 128.254C160.635 127.884 161.586 127.494 162.506 127.097L162.708 127.566C161.782 127.966 160.825 128.358 159.863 128.731ZM165.506 126.294L165.285 125.833L168.041 124.495L168.265 124.954L165.506 126.294ZM171.021 123.614L170.797 123.155L173.554 121.815L173.777 122.274L171.021 123.614ZM176.533 120.935L176.31 120.475L179.066 119.135L179.29 119.595L176.533 120.935ZM182.046 118.255L181.822 117.795L184.579 116.455L184.802 116.915L182.046 118.255ZM187.558 115.575L187.335 115.115L190.091 113.776L190.315 114.235L187.558 115.575Z" fill="white"/>
<path d="M178.14 50.5938C178.14 50.6999 178.14 50.7996 178.153 50.9056H245.324C245.15 45.3682 240.33 40.9285 234.418 40.9285C232.522 40.9285 230.745 41.3837 229.192 42.1819C229.274 37.873 227.203 33.7449 223.387 31.5312C217.663 28.2138 210.173 30.4649 206.669 36.5634C205.615 38.403 205.035 40.3797 204.904 42.3439C202.111 41.0656 198.65 40.3049 194.896 40.3049C185.642 40.3049 178.14 44.9132 178.14 50.5938Z" fill="url(#paint0_linear_3_1570)"/>
<path d="M67.1842 165.594C67.1842 165.7 67.1842 165.8 67.1715 165.906H1.52588e-05C0.174497 160.368 4.9948 155.928 10.9063 155.928C12.8021 155.928 14.5794 156.384 16.132 157.182C16.0509 152.873 18.1212 148.745 21.9375 146.531C27.6619 143.214 35.1511 145.465 38.6554 151.563C39.7093 153.403 40.2891 155.38 40.4203 157.344C43.2138 156.066 46.6747 155.305 50.4285 155.305C59.6825 155.305 67.1842 159.913 67.1842 165.594Z" fill="url(#paint1_linear_3_1570)"/>
<path d="M174.699 187.038C174.699 193.565 179.991 198.857 186.519 198.857H317.802C324.329 198.857 329.622 193.565 329.622 187.038V107.161H174.699V187.038Z" fill="white" fill-opacity="0.2"/>
<path opacity="0.7" d="M278.43 109.718C235.401 150.183 204.887 161.094 166.446 164.996L163.892 205.858L204.243 219.649C239.487 218.628 273.328 167.607 294.231 123.837L278.43 109.718Z" fill="url(#paint2_linear_3_1570)"/>
<path opacity="0.4" d="M286.474 110.663C282.336 116.148 276.142 121.436 268.822 128.558L278.73 123.857C277.488 126.135 275.682 129.324 274.676 130.696C276.962 129.475 280.651 126.81 281.881 125.411C281.85 127.334 279.748 130.587 278.826 132.36C284.152 127.197 289.023 120.923 290.65 115.458L286.474 110.663Z" fill="white" fill-opacity="0.3"/>
<path d="M222.222 138.775C222.277 140.055 222.22 142.214 220.943 142.954C218.809 144.189 217.131 141.19 216.348 139.683C215.413 137.883 215.652 135.649 217.765 134.847C220.556 133.786 222.119 136.388 222.222 138.775Z" fill="#D1D1FF" fill-opacity="0.2"/>
<path d="M210.884 126.092C211.871 126.092 212.671 125.291 212.671 124.304C212.671 123.317 211.871 122.516 210.884 122.516C209.896 122.516 209.096 123.317 209.096 124.304C209.096 125.291 209.896 126.092 210.884 126.092Z" fill="#D1D1FF" fill-opacity="0.2"/>
<path d="M317.802 199.113H186.519C179.861 199.113 174.444 193.696 174.444 187.038V106.906H329.877V187.038C329.877 193.696 324.46 199.113 317.802 199.113ZM174.955 107.416V187.038C174.955 193.415 180.142 198.602 186.519 198.602H317.802C324.179 198.602 329.366 193.415 329.366 187.038V107.416H174.955Z" fill="white"/>
<mask id="mask0_3_1570" style="mask-type:alpha" maskUnits="userSpaceOnUse" x="174" y="106" width="156" height="94">
<path d="M317.802 199.113H186.519C179.861 199.113 174.444 193.696 174.444 187.038V106.906H329.877V187.038C329.877 193.696 324.46 199.113 317.802 199.113ZM174.955 107.416V187.038C174.955 193.415 180.142 198.602 186.519 198.602H317.802C324.179 198.602 329.366 193.415 329.366 187.038V107.416H174.955Z" fill="#9192FF"/>
</mask>
<g mask="url(#mask0_3_1570)">
</g>
<path d="M317.802 76.2147H186.519C179.992 76.2147 174.699 81.5047 174.699 88.0343V107.161H329.622V88.0343C329.622 81.5047 324.329 76.2147 317.802 76.2147Z" fill="white" fill-opacity="0.2"/>
<path d="M329.877 107.416H174.444V88.0343C174.444 81.376 179.861 75.9591 186.519 75.9591H317.802C324.46 75.9591 329.877 81.376 329.877 88.0343V107.416ZM174.955 106.906H329.366V88.0343C329.366 81.658 324.179 76.4699 317.802 76.4699H186.519C180.142 76.4699 174.955 81.6577 174.955 88.0343V106.906V106.906Z" fill="white"/>
<path d="M190.305 98.1679C193.884 98.1679 196.786 95.2666 196.786 91.6878C196.786 88.1089 193.884 85.2076 190.305 85.2076C186.727 85.2076 183.825 88.1089 183.825 91.6878C183.825 95.2666 186.727 98.1679 190.305 98.1679Z" fill="white" fill-opacity="0.4"/>
<path d="M209.392 98.1677C212.971 98.1677 215.872 95.2665 215.872 91.6878C215.872 88.109 212.971 85.2079 209.392 85.2079C205.813 85.2079 202.912 88.109 202.912 91.6878C202.912 95.2665 205.813 98.1677 209.392 98.1677Z" fill="white" fill-opacity="0.4"/>
<path d="M209.392 98.4235C205.678 98.4235 202.657 95.4019 202.657 91.688C202.657 87.974 205.678 84.9527 209.392 84.9527C213.106 84.9527 216.127 87.9742 216.127 91.688C216.127 95.4019 213.106 98.4235 209.392 98.4235ZM209.392 85.4632C205.96 85.4632 203.167 88.2556 203.167 91.6878C203.167 95.12 205.96 97.9125 209.392 97.9125C212.824 97.9125 215.617 95.12 215.617 91.6878C215.617 88.2553 212.824 85.4632 209.392 85.4632Z" fill="white" fill-opacity="0.4"/>
<path d="M258.72 97.8731H232.919C229.503 97.8731 226.734 95.1039 226.734 91.688C226.734 88.2721 229.503 85.5029 232.919 85.5029H258.72C262.137 85.5029 264.906 88.2721 264.906 91.688C264.906 95.1039 262.137 97.8731 258.72 97.8731Z" fill="white" fill-opacity="0.4"/>
<path d="M258.72 98.1283H232.919C229.368 98.1283 226.479 95.2389 226.479 91.6878C226.479 88.1364 229.368 85.2471 232.919 85.2471H258.72C262.272 85.2471 265.161 88.1364 265.161 91.6878C265.161 95.2391 262.272 98.1283 258.72 98.1283ZM232.919 85.7578C229.649 85.7578 226.99 88.418 226.99 91.6878C226.99 94.9574 229.65 97.6175 232.919 97.6175H258.72C261.99 97.6175 264.65 94.9574 264.65 91.6878C264.65 88.418 261.99 85.7578 258.72 85.7578H232.919Z" fill="white" fill-opacity="0.4"/>
<path d="M304.278 278.239H239.073C234.908 278.239 231.532 274.863 231.532 270.698V229.005C231.532 224.84 234.908 221.464 239.073 221.464H304.278C308.444 221.464 311.82 224.84 311.82 229.005V270.698C311.82 274.863 308.443 278.239 304.278 278.239Z" fill="white" fill-opacity="0.2"/>
<path d="M254.185 254.628H245.492V272.283H254.185V254.628Z" fill="white" fill-opacity="0.4"/>
<path d="M268.743 255.195H260.05V272.283H268.743V255.195Z" fill="white" fill-opacity="0.4"/>
<path d="M283.302 246.268H274.609V272.283H283.302V246.268Z" fill="white" fill-opacity="0.4"/>
<path d="M297.86 238.636H289.167V272.283H297.86V238.636Z" fill="white" fill-opacity="0.4"/>
<path d="M294.999 229.46H248.353V231.499H294.999V229.46Z" fill="white" fill-opacity="0.4"/>
<path d="M106.325 163.039C104.847 157.915 101.718 153.422 97.4246 150.258L95.7002 148.988L97.1639 179.274L108.483 170.518L106.325 163.039Z" fill="#FF6150"/>
<path d="M142.699 199.647L140.185 194.723C139.548 193.476 138.417 192.553 137.067 192.179L129.668 190.13L110.634 177.978L108.482 170.518L97.1637 179.274L97.2665 181.401C97.4726 185.668 100.09 189.446 104.013 191.138L122.494 199.11L131.279 199.305C134.109 200.281 135.086 202.722 136.843 201.843C137.498 201.516 134.939 197.304 134.939 197.304L139.185 201.99L142.699 199.647Z" fill="#FFBC96"/>
<path d="M110.858 178.18L110.412 177.801L107.924 180.731L108.37 181.11L110.858 178.18Z" fill="#D28572"/>
<path d="M109.595 211.915L123.443 210.693C132.457 209.897 140.298 217.176 140.737 226.748L143.866 294.949L124.764 295.544L109.595 211.915Z" fill="#041427"/>
<path d="M126.301 294.865L126.886 313.704H155.193L141.235 302.088L140.356 293.011L126.301 294.865Z" fill="#1B1B43"/>
<path d="M141.602 302.567L140.887 301.64L134.933 306.227L135.647 307.155L141.602 302.567Z" fill="white"/>
<path d="M119.858 294.865L120.444 313.704H148.751L134.793 302.088L133.914 293.011L119.858 294.865Z" fill="#D1D1FF"/>
<path d="M135.137 302.555L134.422 301.627L128.467 306.215L129.182 307.143L135.137 302.555Z" fill="white"/>
<path d="M140.942 296.72H117.516L100.819 245.346L98.4818 238.154L65.0992 238.008C63.0377 237.978 61.0641 237.024 59.3891 235.612C55.8401 232.62 54.206 227.917 54.8504 223.319L57.7788 202.429L107.372 208.877C116.778 210.101 124.374 217.141 126.307 226.423L140.942 296.72Z" fill="#072448"/>
<path d="M105.363 238.154L100.819 245.346L98.4818 238.154H105.363Z" fill="#1B1B43"/>
<path d="M99.2315 198.646C98.9914 199.612 98.7395 200.578 98.4819 201.551L96.7248 208.725L73.5913 207.764L56.9352 207.073C52.5194 206.892 49.3216 202.792 50.2236 198.464L57.9895 161.093C58.9851 154.739 64.1447 149.849 70.546 149.187L89.5506 147.231L95.7002 148.988C101.703 152.209 101.709 158.048 101.996 161.872C103.255 178.61 101.703 188.748 99.2315 198.646Z" fill="#FF6150"/>
<path opacity="0.3" d="M83.5477 197.451C83.3076 198.417 98.7397 200.578 98.482 201.55L96.7249 208.725L73.5914 207.764C65.5093 201.667 62.4816 188.402 59.5356 171.781L83.5477 197.451Z" fill="#1B1B43"/>
<path d="M78.9501 158.041C79.9633 159.127 81.117 160.075 82.407 160.781C83.6915 161.487 85.0896 162.006 86.5378 162.176C87.9706 162.363 89.4831 162.242 90.7409 161.558C92.0268 160.918 92.8453 159.568 92.9989 158.106L93.2273 158.122C93.2194 158.886 93.0261 159.662 92.6452 160.351C92.2607 161.038 91.6739 161.61 90.9922 162.004C89.6157 162.8 87.982 162.944 86.4634 162.751C84.9354 162.54 83.4637 162.005 82.159 161.209C80.8453 160.426 79.6977 159.386 78.7742 158.187L78.9501 158.041Z" fill="#1B1B43"/>
<path d="M102.507 180.873L102.07 180.842C102.49 174.949 102.064 167.708 100.802 159.318L101.237 159.253C102.503 167.674 102.931 174.948 102.507 180.873Z" fill="#1B1B43"/>
<path d="M141.821 201.648H120.054V205.943H141.821V201.648Z" fill="#1B1B43"/>
<path d="M179.729 205.458H136L156.107 167H199.837L179.729 205.458Z" fill="white" fill-opacity="0.6"/>
<circle cx="167.5" cy="186.5" r="3.5" fill="url(#paint3_linear_3_1570)"/>
<path d="M83.7672 116.484C78.6427 111.432 68.9794 113.555 69.1257 122.047C58.5838 124.829 57.9983 136.396 62.2443 142.326L65.9047 142.619L66.7099 138.299L68.8329 142.692L79.082 143.351L83.7672 116.484Z" fill="#1B1B43"/>
<path d="M92.3326 135.371V151.506C92.3326 151.652 92.3267 151.793 92.315 151.933C92.0633 155.254 88.8479 157.603 85.5626 156.753C80.7192 155.5 77.3517 151.119 77.3926 146.118L77.4745 135.371H92.3326V135.371Z" fill="#FFBC96"/>
<path d="M92.3326 142.346V151.506C92.3326 151.652 92.3267 151.793 92.315 151.933C87.9988 151.225 83.0091 146.229 81.7908 140.788L92.3326 142.346Z" fill="#1B1B43"/>
<path d="M101.065 136.566C100.842 137.849 100.543 139.16 100.145 140.408C98.8568 144.502 96.5434 147.898 92.4028 147.307C82.6693 145.913 77.252 135.887 77.252 135.887L83.9109 128.273L88.3796 122.264L101.774 128.05C101.773 128.05 101.844 132.144 101.065 136.566Z" fill="#FFBC96"/>
<path d="M80.1312 133.321C84.4032 133.185 87.7073 131.009 89.1113 124.829C89.1113 124.829 99.0674 133.419 103.948 128.831C108.035 124.99 101.102 116.151 89.6252 115.098C85.4448 114.715 81.2772 116.02 78.0011 118.645C72.4389 123.101 71.9075 133.468 77.1052 137.055L80.1312 133.321Z" fill="#1B1B43"/>
<path d="M75.1289 122.487C74.8498 121.477 75.058 120.359 75.5085 119.396C75.9656 118.427 76.6713 117.583 77.5134 116.929C78.3556 116.274 79.3439 115.805 80.3824 115.587C81.4172 115.375 82.5176 115.408 83.4744 115.825C82.4866 116.143 81.6307 116.48 80.8266 116.896C80.0246 117.306 79.2834 117.782 78.5893 118.317C77.8969 118.855 77.2538 119.451 76.6747 120.128C76.0923 120.808 75.5813 121.554 75.1289 122.487Z" fill="#FFA121"/>
<path d="M80.3461 137.744C82.054 137.061 82.7689 134.834 81.9429 132.77C81.1169 130.706 79.0628 129.587 77.355 130.271C75.6471 130.955 74.9322 133.182 75.7582 135.245C76.5841 137.309 78.6383 138.428 80.3461 137.744Z" fill="#FFBC96"/>
<path d="M78.8505 136.217C78.9237 135.503 78.9286 134.828 78.7208 134.207C78.5191 133.584 78.1236 133.041 77.668 132.483L77.8118 132.305C78.4738 132.649 79.0358 133.267 79.2757 134.029C79.5166 134.79 79.412 135.62 79.0698 136.283L78.8505 136.217Z" fill="#1B1B43"/>
<path d="M93.8585 135.151C94.4049 135.151 94.8478 134.661 94.8478 134.057C94.8478 133.452 94.4049 132.962 93.8585 132.962C93.3122 132.962 92.8693 133.452 92.8693 134.057C92.8693 134.661 93.3122 135.151 93.8585 135.151Z" fill="#1B1B43"/>
<path d="M99.0481 135.775C99.5309 135.834 99.9756 135.449 100.041 134.915C100.107 134.38 99.769 133.899 99.2862 133.84C98.8034 133.78 98.3587 134.165 98.293 134.7C98.2272 135.234 98.5653 135.715 99.0481 135.775Z" fill="#1B1B43"/>
<path d="M94.7975 131.309C94.8371 131.82 94.0189 131.869 92.8134 131.905C91.6078 131.941 90.7748 132.314 90.7652 131.99C90.7556 131.667 91.6474 130.836 92.8367 130.635C94.0632 130.428 94.7503 130.7 94.7975 131.309Z" fill="#1B1B43"/>
<path d="M98.6492 131.802C98.5603 132.306 99.1622 132.436 100.053 132.592C100.945 132.748 101.52 133.201 101.565 132.881C101.609 132.561 101.043 131.647 100.184 131.328C99.2967 131 98.7548 131.202 98.6492 131.802Z" fill="#1B1B43"/>
<path d="M97.2158 135.829C97.444 136.108 97.6986 136.351 97.9587 136.599L98.3538 136.967C98.4903 137.09 98.6382 137.227 98.77 137.433C98.8344 137.538 98.8869 137.672 98.8955 137.823C98.9071 137.975 98.8595 138.124 98.7978 138.238C98.6621 138.465 98.5009 138.597 98.3256 138.715C97.9754 138.945 97.5969 139.04 97.2305 139.111L97.1451 138.899C97.46 138.696 97.7738 138.514 98.0179 138.303C98.1346 138.199 98.2494 138.072 98.2907 137.975C98.3363 137.877 98.323 137.844 98.2686 137.73C98.1387 137.517 97.8067 137.233 97.5899 136.937C97.3529 136.642 97.1394 136.307 97.0148 135.938L97.2158 135.829Z" fill="#1B1B43"/>
<path d="M92.2581 139.434C92.8564 140.116 93.4797 140.748 94.2291 141.149C94.9738 141.562 95.8219 141.678 96.7189 141.581L96.7795 141.802C96.3462 141.994 95.8575 142.098 95.3641 142.069C94.8705 142.048 94.3817 141.899 93.9517 141.662C93.0874 141.182 92.4502 140.406 92.0651 139.557L92.2581 139.434Z" fill="#1B1B43"/>
<path opacity="0.2" d="M88.7463 138.812C90.081 138.812 91.1631 137.73 91.1631 136.395C91.1631 135.061 90.081 133.979 88.7463 133.979C87.4115 133.979 86.3295 135.061 86.3295 136.395C86.3295 137.73 87.4115 138.812 88.7463 138.812Z" fill="#FE5B52"/>
<path opacity="0.2" d="M101.065 136.566C100.842 137.849 100.543 139.16 100.145 140.408C99.7704 139.98 99.542 139.424 99.542 138.809C99.542 137.79 100.174 136.923 101.065 136.566Z" fill="#FE5B52"/>
<path d="M73.4938 165.142L59.5356 171.779L63.9134 182.157L78.5484 175.407L73.4938 165.142Z" fill="#FF6150"/>
<path d="M125.198 201.132C124.811 200.938 124.568 200.808 124.568 200.808L124.708 200.533C124.708 200.533 124.966 200.656 125.34 200.857L125.198 201.132Z" fill="#C5C5FF"/>
<path d="M130.986 202.575C130.535 203.465 127.079 201.89 125.469 201.099C126.716 201.79 128.866 203.149 127.911 203.893C127.144 204.485 125.446 203.225 119.882 200.918C120.725 201.316 125.697 203.682 124.444 204.578C123.079 205.55 117.223 203.407 117.223 203.407L112.145 206.136H106.289L85.2167 206.271C83.893 206.276 82.5813 206.107 81.3103 205.779C78.8095 205.14 76.4552 203.899 74.4581 202.23C73.1989 201.176 72.1154 199.94 71.2077 198.581C70.5284 197.562 69.9485 196.467 69.4684 195.325L63.9105 182.159L78.5461 175.407L86.1831 190.909L111.366 196.379L118.394 194.622C119.905 194.241 122.043 194.88 123.372 195.694C126.617 197.679 131.408 201.726 130.986 202.575Z" fill="#FFBC96"/>
<path opacity="0.2" d="M81.6911 203.6C81.6911 204.367 81.5564 205.1 81.3104 205.779C78.8097 205.141 76.4554 203.899 74.4583 202.23C73.1991 201.176 72.1156 199.94 71.2079 198.581C72.3148 197.691 73.7203 197.158 75.249 197.158C78.8097 197.158 81.6911 200.039 81.6911 203.6Z" fill="#FE5B52"/>
<path d="M111.33 196.269C113.076 195.688 114.846 195.187 116.651 194.81C117.554 194.624 118.468 194.472 119.4 194.418C119.866 194.392 120.338 194.401 120.814 194.455C121.049 194.502 121.283 194.564 121.517 194.619C121.741 194.698 121.959 194.788 122.18 194.873C123.893 195.65 125.386 196.76 126.83 197.902C128.273 199.053 129.635 200.288 130.96 201.576L131.021 201.636L131.033 201.711C131.08 201.988 131.048 202.245 130.894 202.503C130.8 202.612 130.703 202.731 130.576 202.784C130.454 202.862 130.332 202.892 130.21 202.911C129.725 202.991 129.3 202.891 128.895 202.782C128.081 202.558 127.354 202.186 126.622 201.828C125.905 201.445 125.198 201.046 124.513 200.616C123.817 200.203 123.155 199.741 122.476 199.303L122.786 198.808C123.984 199.519 125.149 200.265 126.263 201.111C126.816 201.54 127.364 201.978 127.835 202.554C127.948 202.707 128.061 202.861 128.14 203.07C128.183 203.168 128.207 203.293 128.21 203.427C128.199 203.567 128.156 203.717 128.059 203.826C127.875 204.039 127.653 204.112 127.465 204.158C127.27 204.21 127.087 204.22 126.902 204.239L126.844 204.244L126.782 204.218L120.425 201.555L120.615 201.108C121.617 201.57 122.591 202.067 123.521 202.676C123.974 203 124.451 203.293 124.785 203.853C124.861 203.995 124.916 204.211 124.837 204.413C124.757 204.609 124.601 204.733 124.459 204.801C124.166 204.951 123.869 204.982 123.585 204.998C122.445 205.024 121.375 204.758 120.313 204.494C119.254 204.214 118.213 203.885 117.184 203.512L117.262 203.297C118.289 203.641 119.334 203.944 120.387 204.195C121.437 204.431 122.518 204.662 123.562 204.61C124.06 204.591 124.654 204.372 124.412 204.043C124.183 203.659 123.712 203.333 123.279 203.044C122.379 202.471 121.401 201.988 120.42 201.552L120.61 201.106L126.991 203.713L126.871 203.693C127.028 203.675 127.191 203.665 127.329 203.626C127.474 203.596 127.589 203.531 127.629 203.482C127.718 203.447 127.598 203.132 127.398 202.897C126.993 202.404 126.457 201.97 125.921 201.559C124.835 200.742 123.671 200.004 122.495 199.313L122.804 198.819C123.478 199.25 124.131 199.716 124.817 200.124C125.493 200.552 126.185 200.946 126.884 201.324C127.591 201.674 128.305 202.04 129.045 202.245C129.408 202.349 129.794 202.422 130.104 202.369L130.217 202.348C130.252 202.339 130.273 202.317 130.303 202.305C130.37 202.285 130.391 202.232 130.437 202.198C130.494 202.111 130.519 201.946 130.499 201.829L130.573 201.963C129.277 200.685 127.913 199.459 126.507 198.301C125.097 197.153 123.627 196.04 122.003 195.279L121.385 195.034C121.173 194.983 120.964 194.924 120.752 194.877C120.316 194.822 119.87 194.807 119.42 194.827C118.519 194.863 117.615 194.989 116.719 195.154C114.926 195.487 113.149 195.947 111.403 196.485L111.33 196.269Z" fill="#D28572"/>
<path d="M64.0022 182.359L63.8184 181.96L78.2603 175.296L72.2452 161.22L72.6491 161.048L78.8319 175.517L64.0022 182.359Z" fill="#1B1B43"/>
<path d="M66.0683 244.011H65.3021V309.995H66.0683V244.011Z" fill="#1B1B43"/>
<path d="M84.1333 246.939H47.2368C44.7301 246.939 42.698 244.907 42.698 242.4C42.698 239.893 44.7301 237.861 47.2368 237.861H84.1333C86.6402 237.861 88.6721 239.893 88.6721 242.4C88.6721 244.906 86.64 246.939 84.1333 246.939Z" fill="#F8AA4B"/>
<path d="M81.2049 314.289H50.1652V313.54C50.1652 309.77 53.2208 306.715 56.9902 306.715H74.3801C78.1494 306.715 81.2049 309.77 81.2049 313.54V314.289Z" fill="#D1D1FF"/>
<path d="M175.714 313.673L110.312 215.007L109.664 215.396L175.066 314.062L175.714 313.673Z" fill="#1B1B43"/>
<path d="M175.733 215.389L175.085 215L109.659 313.643L110.307 314.032L175.733 215.389Z" fill="#1B1B43"/>
<path d="M199.996 205.943H85.4022V214.584H199.996V205.943Z" fill="white" fill-opacity="0.2"/>
<path d="M297.142 52.1132C311.533 52.1132 323.199 40.4473 323.199 26.0566C323.199 11.6659 311.533 0 297.142 0C282.752 0 271.086 11.6659 271.086 26.0566C271.086 40.4473 282.752 52.1132 297.142 52.1132Z" fill="white" fill-opacity="0.2"/>
<path d="M297.151 26.5506L282.706 15.2263L283.179 14.6232L297.133 25.5626L304.914 18.974L305.409 19.5587L297.151 26.5506Z" fill="#1B1B43"/>
<defs>
<linearGradient id="paint0_linear_3_1570" x1="211.732" y1="30" x2="211.732" y2="50.9056" gradientUnits="userSpaceOnUse">
<stop stop-color="white" stop-opacity="0.29"/>
<stop offset="1" stop-color="white" stop-opacity="0.06"/>
</linearGradient>
<linearGradient id="paint1_linear_3_1570" x1="33.5921" y1="145" x2="33.5921" y2="165.906" gradientUnits="userSpaceOnUse">
<stop stop-color="white" stop-opacity="0.29"/>
<stop offset="1" stop-color="white" stop-opacity="0.06"/>
</linearGradient>
<linearGradient id="paint2_linear_3_1570" x1="281.5" y1="121.5" x2="179" y2="201.5" gradientUnits="userSpaceOnUse">
<stop stop-color="white" stop-opacity="0.15"/>
<stop offset="1" stop-color="white" stop-opacity="0.17"/>
</linearGradient>
<linearGradient id="paint3_linear_3_1570" x1="167.5" y1="183" x2="167.5" y2="190" gradientUnits="userSpaceOnUse">
<stop stop-color="white"/>
<stop offset="1" stop-color="white" stop-opacity="0"/>
</linearGradient>
</defs>
</svg>
