<svg xmlns="http://www.w3.org/2000/svg" width="399" height="326" fill="none"><path fill="#fff" d="M251.818 94.16c-28.985-13.47-56.695-10.282-63.915-9.118.516-13.981 1.555-34.86 2.43-38.189.547-.265 1.675-.77 3.401-1.338 5.039-1.66 16.168-4.162 34.08-2.277 25.866 2.72 35.652 12.14 37.755 14.54L251.818 94.16Z"/><path fill="#A0C6F4" d="M194.185 46.882c4.93-1.623 15.835-4.069 33.48-2.213 23.401 2.461 33.363 10.546 36.24 13.443l-12.888 34.101c-17.019-7.61-33.299-9.548-44.201-9.8-7.731-.18-13.812.426-17.409.934.588-15.398 1.493-31.348 2.196-35.492a29.972 29.972 0 0 1 2.582-.973Zm-.9-2.735c-2.741.903-4.054 1.656-4.054 1.656-1.426 1.06-2.83 40.972-2.83 40.972s32.194-7.078 66.212 9.355l14.594-38.615s-8.67-12.493-39.242-15.709c-17.915-1.884-29.175.529-34.68 2.341Z"/><path stroke="#2A1E17" stroke-linecap="round" stroke-linejoin="round" stroke-miterlimit="10" d="M191.882 88.034s31.647-6.99 56.222 4.122"/><path fill="#A0C6F4" d="m217.839 77.833 4.111-25.98 19.372 19.304-23.483 6.676Z"/><path stroke="#2A1E17" stroke-linecap="round" stroke-linejoin="round" stroke-miterlimit="10" d="m219.956 76.784 4.111-25.979 19.372 19.303-23.483 6.676ZM196.483 41.598s35.358-8.211 65.058 10.129"/><path fill="#2A1E17" d="M246.443 134.277a432.037 432.037 0 0 1-3.886-1.289c.294-.869 5.659-12.394 8.108-21.064-.001 0-3.264 22.665-4.222 22.353Z"/><path stroke="#2A1E17" stroke-linecap="round" stroke-linejoin="round" stroke-miterlimit="10" d="M108.221 108.656c1.426 1.231 1.633.482 4.224-.598 2.592-1.079 7.015-.382 9.421 2.453 2.406 2.835 2.167 3.48 1.586 4.125-.582.645-5.492 2.941-5.361 4.031"/><path fill="#FF8DAF" d="m231.908 252.411-3.709-3.243-3.813 16.87 2.78.976 4.742-14.603ZM164.284 235.954s-6.723-5.678-5.993-9.786l14.464-3.105-8.471 12.891Z"/><path fill="#000" d="m164.284 235.955 1.471 1.647.733 10.916a3.627 3.627 0 0 0 2.227 3.106l6.559-23.095a4.624 4.624 0 0 0-2.519-5.466l-3.728-1.713-4.743 14.605Z"/><path fill="#2A1E33" d="M118.09 118.667c3.971-1.412 8.958-3.335 6.942-6.043-2.016-2.709-8.323-9.063-16.191-3.943 0 0-2.208 3.537 3.097 6.849 5.306 3.311 6.152 3.137 6.152 3.137Z"/><path fill="#7F55DA" d="M174.753 222.591s-13.469-17.916-10.605-28.674c2.365-8.877 21.861-2.122 24.524-1.224l4.52-23.808s-3.762-2.762-11.245-4.214c-7.483-1.453-37.073-3.439-42.97 19.957-2.179 8.647 7.86 39.37 20.429 48.273l15.347-10.31Z"/><path stroke="#2A1E17" stroke-linecap="round" stroke-linejoin="round" stroke-miterlimit="10" d="M174.754 222.591s-13.469-17.917-10.605-28.674c2.364-8.877 21.861-2.122 24.523-1.224"/><path fill="#7F55DA" d="M193.193 168.885c-3.314 7.008-9.787 37.963-9.076 51.504.951 18.113 7.191 31.342 40.936 50.156l6.253-21.455s-12.672-10.048-15.075-22.658c-3.479-18.245 3.387-39.306 6.143-52.138l-29.181-5.409Z"/><path fill="#2A1E17" d="m195.845 170.516 25.15 9.106 2.983-11.047-28.133 1.941Z"/><path fill="#FF8A66" d="M305.208 116.23c3.338-.357 6.103.047 8.297 1.217 2.195 1.169 1.746 2.304 1.324 3.019-.423.715-2.918.878-5.508-.243-2.591-1.121-4.113-3.993-4.113-3.993Z"/><path fill="#FF8DAF" d="M242.557 132.988c.294-.869 5.659-12.394 8.108-21.064 0 0 19.796 11.443 21.536 11.449.648.002 4.177-1.211 8.565-2.706 7.416-2.527 17.282-5.858 19.831-5.484 4.059.595 6.436.777 8.111 2.93 1.675 2.153 2.542 3.633.506 4.468-2.382.978-4.983-1.642-4.983-1.642s-1.596 1.86-6.11 5.488c0 0-16.164 13.295-29.696 13.895-3.696.164-25.868-7.334-25.868-7.334ZM108.915 105.254c-1.391 1.129-2.119 2.171-.695 3.402 1.427 1.231 1.633.482 4.224-.597 2.593-1.08 7.015-.383 9.422 2.452 2.406 2.835 2.166 3.481 1.585 4.125-.582.645-5.492 2.941-5.36 4.031.132 1.09 3.402 3.36 8.039 1.606l1.058-.575s13.073 6.405 14.976 7.365c1.903.961 14.77 4.625 21.043 4.166 4.768-.35 13.225-4.708 18.244-7.521 2.438-1.365 4.064-2.366 4.064-2.366s-6.412-5.925-10.9-16.802c0 0-9.118 4.717-15.054 8.227 0 0-17.672-3.408-26.144-4.699 0 0-8.899-5.684-12.201-5.73-3.302-.047-10.424 1.391-12.301 2.916Z"/><path fill="#2A1E17" d="M181.45 123.708c2.438-1.365 4.064-2.366 4.064-2.366s-6.888-4.534-11.376-15.411c0 0-1.42 3.097 1.342 9.184 3.473 7.651 5.97 8.593 5.97 8.593Z"/><path fill="#FFF7C9" d="M173.491 104.761s4.619 13.577 10.139 18.057l1.136-.954s-10.573 25.78-11.807 40.756c-.202 2.45 44.113 13.784 49.415 11.675 0 0 8.875-33.1 12.32-43.181l8.23 2.923s8.573-17.259 7.741-22.112c0 0-17.4-11.027-29.02-12.107-11.62-1.08-23.198-5.672-34.048-1.872-9.392 3.29-14.106 6.815-14.106 6.815Z"/><path fill="#2A1E17" d="m242.924 134.037-8.23-2.923.108-3.191 8.122 6.114Z"/><path fill="#FF8DAF" d="M235.166 76.894c.027 3.949.113 15.37-3.165 17.863-3.279 2.493-7.657 2.16-7.657 2.16l-3.276 3.313c-.005 1.463-2.741 3.623-6.705 5.099-2.935 1.093-6.002-2.129-6.032-5.182-.013-1.402-.564-8.155-.564-8.155s-.675-12.782 1.461-16.17c2.135-3.39 4.101-6.696 12.972-6.11 13.583.901 12.966 7.182 12.966 7.182Z"/><path fill="#2A1E33" d="M211.567 85.227c.196 2.366-.64 7.502-2.391 7.203-1.752-.298-2.941-2.143-3.16-6.348-.218-4.206-2.228-13.265.235-15.826 2.462-2.56 4.383-1.152 4.383-1.152s-3.423-5.97.147-8.117c0 0 1.114-1.048 2.032 3.511 0 0 .162-4.526 5.159-5.587 4.997-1.062 8.887 5.143 8.887 5.143s-.255-1.958 1.938-2.68c2.193-.721 6.594 1.426 6.989 5.282 0 0 5.033-3.604 9.49-.11 4.455 3.49 5.722 8.518-.836 12.815-6.855 4.494-9.678-4.299-11.194-5.064-1.516-.763-3.176-1.675-6.867 1.29-3.69 2.964-9.606-.24-9.606-.24s1.147 5.844.618 6.601c-.529.758-1.701 1.921-2.216-.826-.515-2.747.01-2.628-.484-3.243-.494-.615-2.41-2.438-4.264.334-2.086 3.118 1.14 7.014 1.14 7.014Z"/><path stroke="#2A1E33" stroke-linecap="round" stroke-linejoin="round" stroke-miterlimit="10" d="M213.085 85.816c-2.135-.855-4.112-2.949-3.454-5.91.658-2.96 2.956-4.089 4.001-3.394 1.045.694 1.849 2.18 1.774 4.281"/><path fill="#000" d="m227.165 267.014 1.471 1.648.734 10.916a3.625 3.625 0 0 0 2.226 3.106l6.559-23.094a4.627 4.627 0 0 0-2.519-5.467l-3.728-1.712-4.743 14.603Z"/><path stroke="#2A1E33" stroke-linecap="round" stroke-linejoin="round" stroke-miterlimit="10" d="M210.634 69.105s-2.026-2.861-5.235-2.733"/><path stroke="#2A1E17" stroke-linecap="round" stroke-linejoin="round" stroke-miterlimit="10" d="m172.243 161.791 19.119-61.103M207.092 99.343c-.729 2.078 1.038 9.405 7.059 7.937 6.02-1.469 8.922-5.281 8.922-5.281M121.215 102.337s5.81 4.023 7.075 5.722M296.36 124.256s3.436 1.336 7.871-3.316c1.609-1.688-.595-3.701-2.862-2.27-2.268 1.431-5.508 1.471-5.508 1.471M306.237 116.234s3.59 2.172 4.11 3.993M267.958 128.471s1.317-3.896 4.243-5.098M155.465 119.711s-.034-4.715 4.094-6.944M188.662 180.519l-1.937 11.735s-7.641 34.882 4.425 51.819M214.979 208.988l7.396-34.693s11.626-39.6 12.404-44.903l3.069-17.112M175.633 164.11s37.438 12.072 46.741 10.184M173.492 104.761s4.52 13.823 10.109 18.261M248.974 110.055c.927 6.006-7.741 22.112-7.741 22.112"/><path fill="#2A1E17" d="M179.484 209.542a1.887 1.887 0 1 1-3.585 1.181 1.887 1.887 0 0 1 3.585-1.181Z"/><path stroke="#2A1E17" stroke-linecap="round" stroke-linejoin="round" stroke-miterlimit="10" d="m358.575 193.279-3.248-6.532 7.128 1.963-2.84 1.676-1.04 2.893ZM126.062 140.081c-14.303-6.131-24.589 24.285 67.983 79.838 53.401 32.046 85.097 26.061 84.084 9.129-1.819-30.377-30.805-28.664-17.281-20.984 19.665 11.168 61.801 1.021 87.486-23.897 25.343-24.588-.694-41.242-3.004-41.954"/><path fill="#2A1E17" d="M350.563 183.277a1.888 1.888 0 1 1-3.587 1.181 1.888 1.888 0 0 1 3.587-1.181Z"/><path stroke="#2A1E17" stroke-linecap="round" stroke-linejoin="round" stroke-miterlimit="10" d="m327.501 207.089 43.279-47.447"/><path fill="#2A1E17" d="M129.438 140.576a1.887 1.887 0 1 1-3.586 1.18 1.887 1.887 0 0 1 3.586-1.18Z"/><path fill="#FF6D66" d="M165.017 87.837a4.05 4.05 0 1 1-7.694 2.532 4.05 4.05 0 0 1 7.694-2.532Z"/><path fill="#A0C6F4" d="M81.721 82.746a1.78 1.78 0 1 0 1.113 3.382 1.78 1.78 0 0 0-1.113-3.382Z"/><path fill="#2A1E33" d="m321.503 150.05-20.984-2.547c-1.694-.205-2.357-2.307-1.089-3.448l28.916-26.013c.41-.368.953-.55 1.502-.502l26.509 2.323-34.854 30.187Z"/><path fill="#C6CBCB" d="M311.148 122.387c2.522 7.506 10.355 27.662 10.355 27.662l34.854-30.186-10.302-28.244c-.633-1.734-2.826-2.265-4.181-1.013l-29.575 27.312a4.242 4.242 0 0 0-1.151 4.469Z"/><path stroke="#2A1E17" stroke-linecap="round" stroke-linejoin="round" stroke-miterlimit="10" d="m321.503 150.05 34.854-30.186-10.303-28.244s-1.296-3.028-4.181-1.014M334.309 123.094l.605-7.347M337.037 122.196l.605-7.348"/><path fill="#FF6D66" d="M149.991 259.876a1.78 1.78 0 1 1-3.38 1.115 1.78 1.78 0 0 1 3.38-1.115ZM295.964 221.102a2.472 2.472 0 0 1-1.576 3.122 2.472 2.472 0 1 1-1.547-4.698 2.473 2.473 0 0 1 3.123 1.576Z"/><path fill="#FFF7DC" d="M174.076 279.733c3.185.414 12.285 1.107 22.856-2.451a1.012 1.012 0 0 1 1.313.769l2.379 12.194c.085.434-.119.871-.508 1.085-2.807 1.546-14.324 7.173-25.865 2.492-.36-.146-.6-.493-.621-.881l-.694-12.143a1.014 1.014 0 0 1 1.14-1.065Z"/><path stroke="#2A1E17" stroke-linecap="round" stroke-linejoin="round" stroke-miterlimit="10" d="M176.27 282.826s7.623 5.607 9.827 6.044c2.204.437 10.269-8.847 10.269-8.847"/><path fill="#FF8DAF" d="m296.132 86.035-6.117 2.014 2.014 6.117 6.117-2.014-2.014-6.117Z"/><path fill="#A0C6F4" d="m318.012 170.289 2.854 2.55 2.855 2.551-3.636 1.197-3.636 1.197.782-3.748.781-3.747Z"/><path stroke="#2A1E17" stroke-linecap="round" stroke-linejoin="round" stroke-miterlimit="10" d="m43.064 236.789-4.233-14.453c-.49-1.318-.086-1.922.676-2.374 3.602-2.139 14.54-8.657 28.63-9.089 1.82-.056 2.058.84 2.291 1.639l4.028 13.782c.296 1.011-.51 2.08-1.734 2.294-3.93.685-9.084 2.194-14.25 3.943-5.334 1.806-9.97 3.774-13.096 5.515-1.191.664-1.98-.128-2.312-1.257Z"/><path stroke="#2A1E17" stroke-linecap="round" stroke-linejoin="round" stroke-miterlimit="10" d="m46.316 234.135 4.593-11.209 10.961 5.441c-3.158.01-15.554 5.768-15.554 5.768ZM57.204 224.609l4.45-6.825 6.288 1.957 2.06 5.619-7.752 2.148M46.4 223.443c.306.663-.088 1.452-.882 1.763-.793.31-1.684.024-1.99-.639-.306-.663.09-1.453.882-1.763.794-.31 1.685-.023 1.99.639ZM330.728 217.341l8.061 7.607c.8.655.769 1.189.453 1.76-1.493 2.697-6.018 10.904-14.808 16.416-1.136.711-1.618.231-2.064-.19l-7.682-7.256c-.563-.533-.449-1.512.249-2.102 2.241-1.896 4.954-4.771 7.584-7.801 2.717-3.131 4.931-6.105 6.269-8.372.511-.866 1.308-.657 1.938-.062Z"/><path stroke="#2A1E17" stroke-linecap="round" stroke-linejoin="round" stroke-miterlimit="10" d="m329.725 220.922 1.249 8.828-8.985.618c2.003-1.18 7.736-9.446 7.736-9.446Z"/><path stroke="#2A1E17" stroke-linecap="round" stroke-linejoin="round" stroke-miterlimit="10" d="m326.272 230.335-.29 5.989-4.721 1.093-3.399-2.802 4.127-4.247M333.645 227.746c-.44-.308-.483-.955-.094-1.447.388-.492 1.061-.642 1.501-.334.441.307.484.955.095 1.447-.389.492-1.061.642-1.502.334Z"/><path fill="#fff" d="m254.29 67.336 25.501 8.884a1.06 1.06 0 0 0 1.355-.67l1.703-5.18a1.059 1.059 0 0 0-.637-1.324l-25.371-9.456a1.059 1.059 0 0 0-1.379.67l-1.833 5.754a1.058 1.058 0 0 0 .661 1.322Z"/><path stroke="#2A1E17" stroke-linecap="round" stroke-linejoin="round" stroke-miterlimit="10" d="m254.29 67.336 25.501 8.884a1.06 1.06 0 0 0 1.355-.67l1.703-5.18a1.059 1.059 0 0 0-.637-1.324l-25.371-9.456a1.059 1.059 0 0 0-1.379.67l-1.833 5.754a1.058 1.058 0 0 0 .661 1.322Z"/><path fill="#FF6D66" d="m255.569 66.144 6.08 1.84 1.77-4.439-6.298-2.493-1.552 5.092Z"/><path fill="#FF8DAF" d="m263.955 68.723 6.237 2.296 1.577-4.134-6.308-2.402-1.506 4.24Z"/><path fill="#A0C6F4" d="m272.352 71.978 6.081 1.84 1.357-3.798-5.968-2.375-1.47 4.333Z"/><path fill="#fff" d="m287.756 32.16 17.483 37.477a1.621 1.621 0 0 0 2.182.772l7.504-3.664a1.623 1.623 0 0 0 .774-2.112l-16.715-37.945a1.623 1.623 0 0 0-2.21-.797l-8.272 4.132a1.622 1.622 0 0 0-.746 2.137Z"/><path stroke="#2A1E17" stroke-linecap="round" stroke-linejoin="round" stroke-miterlimit="10" d="m287.756 32.16 17.483 37.477a1.621 1.621 0 0 0 2.182.772l7.504-3.664a1.623 1.623 0 0 0 .774-2.112l-16.715-37.945a1.623 1.623 0 0 0-2.21-.797l-8.272 4.132a1.622 1.622 0 0 0-.746 2.137Z"/><path fill="#FF6D66" d="m290.431 32.29 4.474 8.639 6.761-2.797-3.987-9.576-7.248 3.734Z"/><path fill="#69E0AF" d="m296.554 44.248 4.142 9.298 6.222-2.684-4.102-9.488-6.262 2.874Z"/><path fill="#FF8DAF" d="m301.949 56.943 4.475 8.638 5.618-2.565-3.767-9.087-6.326 3.014Z"/><path fill="#fff" d="m280.358 43.8 25.292 33.55a1.29 1.29 0 0 0 1.825.24l7.096-5.55c.546-.426.658-1.208.253-1.77l-24.631-34.181a1.29 1.29 0 0 0-1.851-.255l-7.757 6.18a1.29 1.29 0 0 0-.227 1.786Z"/><path stroke="#2A1E17" stroke-linecap="round" stroke-linejoin="round" stroke-miterlimit="10" d="m280.358 43.8 25.292 33.55a1.29 1.29 0 0 0 1.825.24l7.096-5.55c.546-.426.658-1.208.253-1.77l-24.631-34.181a1.29 1.29 0 0 0-1.851-.255l-7.757 6.18a1.29 1.29 0 0 0-.227 1.786Z"/><path fill="#A0C6F4" d="m283.194 43.63 6.174 7.519 6.032-4.142-5.893-8.537-6.313 5.16Z"/><path fill="#FF8DAF" d="m291.672 54.053 5.985 8.233 5.528-3.92-5.986-8.427-5.527 4.114ZM299.59 65.348l6.173 7.52 4.961-3.68-5.573-8.104-5.561 4.264Z"/><path fill="#7F55DA" d="m204.56 139.691-64.906 21.369a3.945 3.945 0 0 1-4.982-2.514l-2.891-8.779a3.946 3.946 0 0 1 2.514-4.983l64.906-21.369a3.946 3.946 0 0 1 4.983 2.515l2.89 8.779a3.945 3.945 0 0 1-2.514 4.982Z"/><path fill="#fff" d="m177.276 138.69-35.384 11.65a1.304 1.304 0 1 1-.815-2.477l35.384-11.65a1.304 1.304 0 1 1 .815 2.477Z"/><path stroke="#2A1E17" stroke-linecap="round" stroke-linejoin="round" stroke-miterlimit="10" d="m142.064 153.84 60.153-19.805"/><path fill="#69E0AF" d="m99.153 123.661-1.395-.784-2.37 4.213 1.393.784a1.22 1.22 0 0 0 1.663-.464l1.174-2.086a1.221 1.221 0 0 0-.465-1.663Z"/><path stroke="#2A1E17" stroke-linecap="round" stroke-linejoin="round" stroke-miterlimit="10" d="m90.85 118.349 6.567 3.695c.339.192.46.622.268.961l-2.332 4.145a.705.705 0 0 1-.961.269l-6.567-3.696a.704.704 0 0 1-.269-.96l2.333-4.144a.707.707 0 0 1 .96-.27Z"/><path fill="#FF6D66" d="m90.688 149.397-6.064 1.997 1.823 5.537 6.064-1.997-1.823-5.537Z"/><path stroke="#2A1E17" stroke-linecap="round" stroke-linejoin="round" stroke-miterlimit="10" d="m83.451 147.831 1.173 3.563-3.627 1.194"/><path fill="#FF8DAF" d="m269.89 21.09-6.065 1.996 1.823 5.538 6.065-1.997-1.823-5.538Z"/><path stroke="#2A1E17" stroke-linecap="round" stroke-linejoin="round" stroke-miterlimit="10" d="m262.652 19.523 1.173 3.563-3.627 1.194M110.963 111.35c-71.448-5.363-103.322 60.763 40.491 98.604 11.324 2.979 26.334.391 26.334.391"/><path fill="#2A1E17" d="M55.51 131.549a1.888 1.888 0 1 1-3.587 1.18 1.888 1.888 0 0 1 3.588-1.18Z"/><path stroke="#2A1E17" stroke-linecap="round" stroke-linejoin="round" stroke-miterlimit="10" d="m39.071 126.056 1.342-2.529 5.36 1.096 4.57 6.248-7.877-.618-3.395-4.197ZM40.413 123.527l-1.342 2.529-1.538-.972 1.289-2.426 1.59.869ZM50.343 130.871l-6.13-3.464"/><path fill="#fff" d="m102.559 252.783 13.177 23.572c.288.517.945.696 1.457.398l4.713-2.744a1.06 1.06 0 0 0 .402-1.412l-12.699-23.914a1.06 1.06 0 0 0-1.477-.414l-5.19 3.087a1.06 1.06 0 0 0-.383 1.427Z"/><path stroke="#2A1E17" stroke-linecap="round" stroke-linejoin="round" stroke-miterlimit="10" d="m102.559 252.783 13.177 23.572c.288.517.945.696 1.457.398l4.713-2.744a1.06 1.06 0 0 0 .402-1.412l-12.699-23.914a1.06 1.06 0 0 0-1.477-.414l-5.19 3.087a1.06 1.06 0 0 0-.383 1.427Z"/><path fill="#FF6D66" d="m104.306 252.74 3.327 5.413 4.268-2.146-3.053-6.045-4.542 2.778Z"/><path fill="#FF8DAF" d="m108.866 260.235 3.142 5.858 3.924-2.046-3.125-5.983-3.941 2.171Z"/><path fill="#A0C6F4" d="m112.986 268.244 3.328 5.413 3.536-1.94-2.887-5.737-3.977 2.264Z"/><path stroke="#2A1E17" stroke-linecap="round" stroke-linejoin="round" stroke-miterlimit="10" d="m263.264 269.822 18.831-12.328 1.525 1.979-19.1 12.297-1.256-1.948ZM259.448 267.878l1.213 1.678M259.269 269.291l1.545-1.171M260.802 275.367l2.288 3.167M260.584 277.925l2.778-2.008M254.161 271.083l3.008 4.202M253.665 274.48l3.892-2.819"/><path stroke="#2A1E17" stroke-linecap="round" stroke-linejoin="round" stroke-miterlimit="10" stroke-width=".671" d="m49.278 190.568-15.01-1.596.048-1.675 15.136 1.726-.174 1.545ZM50.434 193.197l.083-1.386M51.126 192.54l-1.3-.048M52.91 188.734l.157-2.616M54.11 187.499l-2.295-.138M54.54 193.778l.22-3.459M56.24 192.225l-3.218-.188"/><path fill="#FF8DAF" d="M124.001 189.345c-11.395-3.599-23.839-10.926-23.354-22.82 0 0 4.958-6.326 16.758-4.344l11.8 1.982-5.204 25.182Z"/><path fill="#fff" d="M134.37 234.901c-4.79-.595-25.52-3.981-33.852-18.687-7.199-12.708-2.835-34.469-.291-44.286 3.206 10.864 17.002 16.409 23.448 18.446 6.528 2.062 11.021 2.643 17.039 2.891l-6.344 41.636Z"/><path fill="#FF8DAF" d="M100.489 175.388c3.482 6.775 11.377 12.388 22.861 16.015 6.201 1.959 10.592 2.604 16.117 2.885l-6.004 39.405c-6.071-.879-24.401-4.59-32.004-18.011-6.322-11.157-3.439-29.665-.97-40.294Zm.157-8.863s-10.871 32.914-1.067 50.221c9.805 17.306 35.703 19.34 35.703 19.34l6.682-43.856c-6.674-.223-11.128-.727-17.964-2.886-11.395-3.599-23.838-10.925-23.354-22.819Z"/><path stroke="#2A1E17" stroke-linecap="round" stroke-linejoin="round" stroke-miterlimit="10" d="M100.559 183.601s4.64 10.257 17.147 12.452M124.652 197.975l12.507 2.195M107.079 198.289s5.918 6.469 18.554 7.78M98.722 202.303s3.005 7.849 9.195 8.758M101.745 170.584s2.387 10.564 22.255 18.76M108.066 170.608s4.812-2.006 13.775.936M95.617 210.945c1.354 5.183 8.05 23.382 38.577 26.348"/><path fill="#69E0AF" d="m262.489 144.655-3.847 26.386s8.599.298 5.497 11.064c0 0 16.112 1.212 20.362-17.112 4.248-18.324-22.012-20.338-22.012-20.338Z"/><path fill="#fff" d="M259.41 222.438c-5.722 1.884-12.531 1.535-20.25-1.035l9.617-42.009 15.191 3.78.091.008c.133.01 3.31.229 7.263-1.072h.001c3.179-1.047 6.945-3.109 9.942-7.161l-6.753 31.546c-.02.063-3.435 12.101-15.1 15.942l-.002.001Z"/><path fill="#69E0AF" d="m249.584 180.707 14.034 3.493.177.044.183.014c.142.011 3.526.245 7.681-1.123 2.426-.798 5.176-2.156 7.704-4.459l-5.893 27.525c-.23.787-3.596 11.655-14.396 15.211-5.269 1.735-11.533 1.488-18.641-.732l9.151-39.973Zm34.917-15.714c-2.402 10.353-8.588 14.469-13.517 16.091-3.795 1.25-6.845 1.021-6.845 1.021l-16.17-4.024-10.079 44.029c9.309 3.279 16.44 3.137 21.858 1.353 12.387-4.078 15.818-16.742 15.818-16.742l8.935-41.728Z"/><path stroke="#2A1E17" stroke-linecap="round" stroke-linejoin="round" stroke-miterlimit="10" d="M258.642 171.041s9.415.201 5.498 11.064"/><path stroke="#2A1E17" stroke-linecap="round" stroke-linejoin="round" stroke-miterlimit="10" d="M247.449 177.38s14.954 6.742 21.29 4.576c6.337-2.164 13.295-6.134 15.197-15.17M253.34 190.53s10.191 4.407 18.269-.746M265.068 198.267s5.159 1.739 9.976-3.098M247.456 208.848s12.673 6.351 25.639-4.858M249.602 197.878s4.811 1.502 7.545 1.588M266.596 150.593s9.655-.019 14.485 11.138"/><path stroke="#2A1E17" stroke-linecap="round" stroke-linejoin="round" stroke-miterlimit="10" d="M275.657 163.363s6.057 4.888 1.319 13.332M239.269 223.577s28.058 11.538 36.725-15.609"/><path stroke="#FF6D66" stroke-linecap="round" stroke-linejoin="round" stroke-miterlimit="10" d="m57.792 204.206 5.102-1.68M321.806 49.266l5.103-1.68"/><path stroke="#FF8DAF" stroke-miterlimit="10" d="m173.457 59.306 5.102-1.68M340.26 72.522l5.318-.752"/><path stroke="#A0C6F4" stroke-linecap="round" stroke-linejoin="round" stroke-miterlimit="10" d="m181.754 265.815 5.102-1.68"/></svg>