<svg xmlns="http://www.w3.org/2000/svg" width="203" height="264" fill="none"><path fill="#fff" fill-opacity=".01" d="M0 0h203v264H0z"/><path fill="#33A6BF" d="M57.983 21.735H19.998A3.997 3.997 0 0 1 16 17.738v-3.74A4 4 0 0 1 19.997 10h37.987a3.998 3.998 0 0 1 3.997 3.997v3.741a3.995 3.995 0 0 1-3.998 3.997Z"/><path fill="#1F2F3E" d="M61.98 49.994 42.584 21.735H38.99l19.599 28.26h3.392Z"/><path fill="#FEB858" d="M126.402 96.933s-5.747.957-10.537 4.311c-4.791 3.351-43.107-37.839-43.107-37.839s-5.75 1.676-6.706 6.467c0 0 13.892 26.822 43.107 48.376 4.31 4.788 2.156 31.611 6.945 36.879 4.788 5.269 29.218-3.832 30.893-8.142 1.676-4.31-3.114-48.854-20.595-50.052"/><path fill="#FEB858" fill-opacity=".9" d="M115.865 101.244c2.888-2.023 6.119-3.17 8.233-3.764v-.002L77.307 61.73c-1.435 1.197-2.298 4.069-2.298 4.07 8.26 8.723 36.765 38.305 40.856 35.444Z"/><path fill="#FBC3B1" d="M119.697 59.573s-10.299 11.255-14.37 19.4c-4.071 8.142 5.03 15.087 8.623 18.439 2.154 2.156 1.915 3.832 1.915 3.832s7.423-4.072 10.537-4.31l-2.156-5.748s6.706-1.676 8.142-8.862c1.437-7.183-3.832-9.818-8.861-1.915 0 0-1.676-5.988.958-12.933 0 0-3.354-4.07-4.788-7.903"/><path fill="#1F2F3E" d="M156.338 71.07c-1.678-7.665-7.426-8.623-7.426-8.623s4.311-5.508 0-13.172c-4.31-7.662-17.48-2.393-17.48-2.393-.719-4.55-6.947-6.467-11.018-3.352-8.86 5.508-4.054 19.875-4.054 19.875 1.949-2.312 3.337-3.832 3.337-3.832 1.434 3.832 4.788 7.904 4.788 7.904-2.634 6.944-.958 12.932-.958 12.932 5.03-7.903 10.298-5.268 8.862 1.915-1.437 7.186-8.143 8.862-8.143 8.862 3.832 3.591 12.453 8.382 19.637 3.832 7.186-4.551 3.428-12.694 3.428-12.694 4.862-.239 10.144-6.144 9.027-11.254"/><path fill="#3B2E90" d="M116.104 155.128s2.554 39.514 6.386 56.438c3.832 16.924 7.664 36.721 7.664 36.721s5.428.958 8.301 0v-95.739c-8.051 3.407-19.268 5.972-22.351 2.58"/><path fill="#443699" d="M146.997 146.985c-1.331 3.422-16.991 9.856-25.792 9.73l54.291 87.1c4.469 0 8.94-3.83 8.94-3.83l-37.439-93Z"/><path fill="#1F2F3E" d="M130.154 248.287s-8.064 1.557-9.619 4.788h17.92s.918-1.676 0-4.788c0 0-4.192 1.077-8.301 0ZM176.315 243.894s-6.583 4.909-6.579 8.496l16.139-7.791s.099-1.907-2.08-4.313c0 0-3.308 2.793-7.48 3.608Z"/><path fill="#DBA397" d="M77.307 61.73s-3.032-6.786-4.55-9.34c-1.517-2.554-8.86-2.396-8.86-2.396l8.86 13.412L75.01 65.8s.863-2.556 2.298-4.071"/><path fill="#FBC3B1" d="M72.757 63.405s-1.836-7.981-2.156-10.218c-.32-2.234-9.896-6.386-10.855-6.864-.96-.48-.96 5.747-.96 5.747s-1.116 3.354-1.594 5.43c-.48 2.073 9.46 10.651 9.46 10.651s1.556-3.07 6.105-4.746"/><path fill="#1F2F3E" d="M126.402 96.933s-5.747.957-10.537 4.311c0 0 5.812 12.279-6.706 17.004 4.31 4.788 2.156 31.611 6.945 36.879 4.788 5.269 29.218-3.832 30.893-8.142 1.676-4.31-3.114-48.854-20.595-50.052Z"/><path fill="#FEB858" d="M106.727 130.812c.193.061 2.273.667 6.211.667 6.405.002 17.698-1.608 33.785-9.655l-1.934-3.485c-15.591 7.796-26.181 9.201-31.851 9.203-1.745 0-3.025-.134-3.846-.26a12.975 12.975 0 0 1-.888-.165l-.185-.047-.029-.008-.243.764.26-.758-.017-.006-.243.764.26-.758-1.28 3.744ZM109.461 139.142c.104.016 1.594.238 4.351.238 6.297.002 19.208-1.167 37.264-8.576l-1.648-3.614c-17.541 7.196-29.857 8.251-35.616 8.253a36.09 36.09 0 0 1-2.826-.1 15.312 15.312 0 0 1-.68-.065l-.152-.018-.029-.004-.054.343.058-.343h-.004l-.054.343.058-.343-.668 3.886Z"/></svg>