<svg xmlns="http://www.w3.org/2000/svg" width="632" height="449" fill="none"><g clip-path="url(#a)"><path fill="#848789" fill-opacity=".11" d="M578.478 299.293c0-32.933-21.653-60.805-51.5-70.162 8.913-6.699 14.702-17.328 14.702-29.336 0-8.282-2.774-15.896-7.397-22.039 11.418-11.735 18.462-27.749 18.462-45.415 0-35.976-29.163-65.14-65.139-65.14-26.85 0-49.902 16.252-59.87 39.452a115.285 115.285 0 0 0-52.507-12.597c-7.554 0-14.93.749-22.08 2.129-1.198-19.199-17.104-34.413-36.605-34.413-10.076 0-19.2 4.065-25.836 10.637C279.279 58.145 261.723 49 242.023 49c-34.446 0-62.369 27.923-62.369 62.369 0 1.653.082 3.284.209 4.905-37.432 6.329-66.281 37.885-68.423 76.582-1.407-.175-2.833-.294-4.289-.294-19.08 0-34.548 15.468-34.548 34.55 0 10.724 4.886 20.307 12.555 26.645-19.03 11.763-31.713 32.808-31.713 56.823 0 36.875 29.89 66.768 66.766 66.768h393.997v-5.135c36.235-4.55 64.27-35.452 64.27-72.92"/><path fill="#fff" d="M474.209 328.999H190.56c-12.669 0-22.938-10.271-22.938-22.94V111.497c0-12.668 10.269-22.94 22.938-22.94h283.649c12.671 0 22.942 10.272 22.942 22.94v194.562c0 12.669-10.271 22.94-22.942 22.94Z"/><path fill="#33BFBF" d="M325 134.392v114.386c0 2.332 1.511 4.222 3.374 4.222 1.863 0 3.373-1.89 3.373-4.222v-15.616c0-2.225 1.441-4.029 3.221-4.029 1.779 0 3.218 1.804 3.218 4.029v50.067c0 4.291 2.782 7.771 6.211 7.771 3.429 0 6.209-3.48 6.209-7.771v-54.795c0-3.816 2.47-6.909 5.521-6.909 3.048 0 5.518 3.093 5.518 6.909v4.53c0 3.233 2.096 5.855 4.679 5.855 2.582 0 4.676-2.622 4.676-5.855V134l-46 .392Z"/><path fill="#1F2F3E" d="M496.254 104.31c-2.893-9.359-11.61-16.16-21.92-16.16H190.685c-10.307 0-19.025 6.801-21.918 16.16h327.487Z"/><path fill="#33BFBF" d="M224.998 104v34.61h55.08v155.932a4.442 4.442 0 0 1-4.442 4.441 5.615 5.615 0 0 1-5.616-5.614v-21.718c0-5.493-4.454-9.947-9.947-9.947a7.536 7.536 0 0 0-7.535 7.537v3.688c0 5.969-4.839 10.808-10.809 10.808h-.694c-6.212 0-11.248-5.036-11.248-11.248v-7.671a3.593 3.593 0 0 0-7.184 0v9.819a2.874 2.874 0 0 1-5.749 0v-8.587a5.303 5.303 0 1 0-10.604 0v31.188a4.756 4.756 0 0 1-9.511 0v-20.684a2.876 2.876 0 0 0-2.874-2.876H182.78a2.873 2.873 0 0 1-2.872-2.874v-11.015a2.875 2.875 0 0 0-2.875-2.874h-6.16a2.872 2.872 0 0 1-2.872-2.873V110.78s-.084-3.923 1.02-6.78h55.977"/><path fill="#EAE7F5" d="M194.648 96.652a2.595 2.595 0 1 1-5.19 0 2.595 2.595 0 0 1 5.19 0ZM214.923 96.652a2.595 2.595 0 1 1-5.187 0 2.595 2.595 0 0 1 5.187 0ZM204.959 96.652a2.594 2.594 0 1 1-5.19 0 2.594 2.594 0 1 1 5.19 0Z"/><path fill="#E9E9E9" d="M601.18 382.856c0 10.108-130.549 18.299-291.589 18.299C148.549 401.155 18 392.964 18 382.856c0-10.106 130.549-18.299 291.591-18.299 161.04 0 291.589 8.193 291.589 18.299Z"/><path fill="#848789" d="M199.221 335.138v34.245s12.933 6.467 31.852 0v-34.245s-15.807 4.31-31.852 0Z"/><path fill="#33BFBF" d="M211.595 346.313s-2.237.958-2.715-1.915c-.48-2.876 0-7.59 0-7.59s-6.547.563-9.659-1.67c-3.113-2.236 1.358-2.556 3.593-3.034 2.234-.48 7.662.478 11.335 0 3.671-.48 5.747-.8 8.301-.8 2.556 0 9.421.959 8.623 3.834-.8 2.872.798 26.66-1.278 26.981-2.076.32-4.311.798-5.108-6.386-.8-7.184-1.757 2.554-4.95 1.115-3.193-1.434-1.436-7.342-2.075-10.855 0 0-.419-2.473-2.516-2.473-2.095 0-1.297 2.355-3.551 2.793Z"/><path fill="#1F2F3E" d="m166.846 186.131-47.898 182.008a2.116 2.116 0 0 0 4.092 1.077l47.898-182.007a2.114 2.114 0 0 0-1.506-2.586 2.114 2.114 0 0 0-2.586 1.508M221.671 186.131l-47.897 182.008a2.117 2.117 0 0 0 4.094 1.077l47.896-182.007a2.119 2.119 0 0 0-1.509-2.586 2.112 2.112 0 0 0-2.584 1.508"/><path fill="#1F2F3E" d="M166.046 199.6h54.825a2.116 2.116 0 0 0 0-4.232h-54.825a2.117 2.117 0 0 0 0 4.232ZM159.819 224.23h54.827a2.117 2.117 0 0 0 0-4.232h-54.827a2.116 2.116 0 1 0 0 4.232Z"/><path fill="#1F2F3E" stroke="#000" d="M153.593 248.358h54.826a1.617 1.617 0 0 0 0-3.232h-54.826a1.617 1.617 0 0 0 0 3.232Z"/><path fill="#1F2F3E" d="M147.366 273.488h54.826a2.116 2.116 0 1 0 0-4.232h-54.826a2.117 2.117 0 0 0 0 4.232M139.704 298.119h54.825a2.116 2.116 0 1 0 0-4.232h-54.825a2.116 2.116 0 1 0 0 4.232M133.477 322.749h54.825a2.117 2.117 0 0 0 0-4.232h-54.825a2.115 2.115 0 0 0-2.116 2.116c0 1.168.945 2.116 2.116 2.116M126.18 347.379h54.826a2.117 2.117 0 0 0 0-4.232H126.18a2.116 2.116 0 1 0 0 4.232"/></g><defs><clipPath id="a"><path fill="#fff" d="M0 0h632v449H0z"/></clipPath></defs></svg>