<svg width="154" height="260" viewBox="0 0 154 260" fill="none" xmlns="http://www.w3.org/2000/svg">
<path d="M76.538 220.324H78.8986C90.5137 220.324 99.9635 229.064 99.9635 239.807C99.9635 250.55 90.5137 259.289 78.8986 259.289H76.538C64.9222 259.289 55.4724 250.55 55.4724 239.807C55.4724 229.064 64.9222 220.324 76.538 220.324Z" fill="#17282F"/>
<path d="M124.167 66.8997C108.48 57.1409 89.8279 53.6635 77.6036 53.6635C66.1553 53.6635 49.3073 55.3337 34.0579 63.2889C24.5875 68.23 17.0313 74.9803 11.5984 83.3527C5.1637 93.2694 1.68091 105.54 1.24705 119.823C1.18194 121.966 2.03768 123.994 3.6575 125.535C5.28462 127.082 7.46586 127.935 9.79991 127.935H39.8183C44.0545 127.935 47.6955 125.012 48.2875 121.136C49.6189 112.43 55.2059 97.7705 77.67 97.4123C94.7831 97.1401 101.844 108.599 104.086 113.538C107.735 121.577 106.809 131.109 101.61 139.037C93.6223 151.218 78.9278 153.082 70.8798 153.11C61.624 153.141 54.0943 160.09 54.0943 168.6V198.475C54.0943 202.839 57.9319 206.388 62.6499 206.388H91.8969C96.6141 206.388 100.452 202.839 100.452 198.475V192.198C100.452 192.048 100.554 191.918 100.711 191.867C107.336 189.717 120.179 184.522 131.746 173.885C146.513 160.306 154 142.78 154 121.795C154 91.762 137.777 75.3655 124.167 66.8997Z" fill="#29D3D3"/>
<path d="M62.5376 212.166H91.7727C96.4879 212.166 100.324 208.729 100.324 204.504V192.29C100.324 192.144 100.426 192.018 100.583 191.969C104.038 190.883 108.873 188.89 114.344 185.781C95.6647 185.66 61.6174 185.483 53.9861 185.74V204.504C53.9861 208.729 57.8223 212.166 62.5376 212.166Z" fill="#17282F"/>
<path d="M86.6163 76.8256L67.8555 26.4366C63.8937 13.8198 52.6526 5.43632 39.1261 9.44895L37.8996 9.88645C25.5556 14.2979 18.9375 26.734 22.6987 38.4683C26.1988 49.386 30.2164 61.4073 32.6654 67.0607C37.7348 78.7637 51.0056 75.4786 51.0056 75.4786C51.0348 75.47 53.9595 83.2796 55.2385 86.7847L62.1098 93.0641L64.9481 90.1963L86.6163 76.8256Z" fill="#F9A78D"/>
<path d="M51.0055 75.4786C51.0055 75.4786 59.2016 73.0501 65.6695 65.0371C65.6695 65.0371 65.3799 75.3004 52.2506 78.7753L51.0055 75.4786Z" fill="#F57F62"/>
<path d="M31.8781 46.4255C32.2136 47.3245 33.3145 47.8019 34.3363 47.4941C35.3555 47.1868 35.9116 46.2104 35.5748 45.3114C35.2386 44.4124 34.1384 43.9337 33.1185 44.2409C32.0966 44.5488 31.5412 45.5265 31.8781 46.4255Z" fill="#17282F"/>
<path d="M27.3627 42.1258C27.679 42.2641 28.661 40.8311 30.617 40.1379C32.5597 39.419 34.3821 39.8362 34.5017 39.5394C34.5648 39.4042 34.1702 39.0908 33.3702 38.8936C32.5809 38.6945 31.3624 38.6619 30.1472 39.1019C28.9334 39.5431 28.0823 40.3229 27.671 40.957C27.2484 41.5986 27.2106 42.0674 27.3627 42.1258Z" fill="#17282F"/>
<path d="M48.2137 40.4348C48.5313 40.573 49.5153 39.14 51.4699 38.4469C53.412 37.7285 55.2344 38.1458 55.354 37.8484C55.4171 37.7132 55.0251 37.3998 54.2225 37.2031C53.4332 37.0034 52.2154 36.9715 50.9995 37.4108C49.7857 37.8521 48.9352 38.6325 48.5233 39.266C48.1021 39.9069 48.0629 40.3764 48.2137 40.4348Z" fill="#17282F"/>
<path d="M45.4811 52.091C45.4472 51.9847 44.1516 52.2244 42.0866 52.6951C41.5677 52.8259 41.0575 52.9034 40.8415 52.6182C40.5851 52.327 40.5857 51.7549 40.6037 51.1312C40.6063 49.8469 40.6083 48.5011 40.611 47.0903C40.5705 41.3552 40.3353 36.7121 40.0854 36.7152C39.8356 36.7189 39.6662 41.37 39.7074 47.105C39.7293 48.5153 39.7486 49.8592 39.7705 51.1447C39.8011 51.7371 39.7247 52.4474 40.2682 53.0484C40.5465 53.3452 41.0176 53.4644 41.3697 53.43C41.7278 53.406 42.0109 53.3108 42.2634 53.2364C44.2845 52.6268 45.5163 52.1961 45.4811 52.091Z" fill="#17282F"/>
<path d="M43.6965 30.2742C44.1543 30.641 45.8479 29.4784 48.1367 28.6076C50.407 27.6945 52.4879 27.3799 52.5231 26.8213C52.5304 26.5577 51.9677 26.2812 50.999 26.1982C50.0376 26.1128 48.6756 26.2627 47.3082 26.7961C45.9422 27.3326 44.8778 28.1314 44.2739 28.8295C43.664 29.53 43.4866 30.0966 43.6965 30.2742Z" fill="#17282F"/>
<path d="M25.0533 36.8449C25.6267 37.1177 27.0552 36.1425 28.9713 35.4653C30.8649 34.7365 32.6342 34.5294 32.8368 33.9696C32.9179 33.7042 32.496 33.3779 31.6283 33.2304C30.7718 33.0805 29.4716 33.1634 28.1621 33.6464C26.8532 34.13 25.8573 34.8957 25.3563 35.547C24.846 36.2033 24.7929 36.7048 25.0533 36.8449Z" fill="#17282F"/>
<path d="M70.2454 34.9449C70.4254 34.7808 77.983 29.4341 81.0638 37.5725C84.144 45.7108 74.6743 46.8925 74.5706 46.6639C74.467 46.4359 70.2454 34.9449 70.2454 34.9449Z" fill="#F9A78D"/>
<path d="M76.0914 42.7102C76.1199 42.6721 76.282 42.76 76.583 42.7858C76.876 42.811 77.3385 42.744 77.7371 42.4368C78.547 41.8204 78.8134 40.2019 78.3005 38.7209C78.0427 37.9731 77.6082 37.3223 77.1033 36.8301C76.6089 36.3219 76.0356 36.0405 75.5386 36.1155C75.035 36.1665 74.8018 36.5327 74.7805 36.797C74.7493 37.0624 74.8662 37.2068 74.825 37.2363C74.8084 37.264 74.5845 37.1607 74.528 36.8019C74.5034 36.628 74.534 36.4031 74.6815 36.18C74.8323 35.9526 75.112 35.7707 75.4502 35.6982C76.1452 35.5219 76.975 35.9016 77.5298 36.4412C78.1224 36.9721 78.6301 37.6978 78.9197 38.5372C79.4838 40.1957 79.1576 42.0244 78.0141 42.776C77.4514 43.1262 76.8694 43.1207 76.5305 43.015C76.1817 42.9019 76.0668 42.7354 76.0914 42.7102Z" fill="#F57F62"/>
<path d="M52.1223 51.2707C51.8121 51.3487 52.4878 53.2273 51.232 55.0978C49.981 56.972 47.7406 57.431 47.8197 57.6983C47.8343 57.8249 48.4336 57.914 49.3558 57.654C50.262 57.4052 51.4739 56.7342 52.2426 55.59C53.0067 54.444 53.0678 53.2125 52.8585 52.421C52.6519 51.6117 52.2572 51.2166 52.1223 51.2707Z" fill="#17282F"/>
<path d="M0.728189 32.7535C0.685667 32.2287 0.91223 31.712 1.27765 31.3095C2.0756 30.4307 3.26421 30.126 4.37908 29.7437C7.15363 28.7931 9.66972 27.2311 11.7128 25.253C10.6909 25.1289 9.69232 24.8985 8.76215 24.488C6.84137 23.6394 5.25942 21.8979 5.24082 19.9291C5.23683 19.5598 5.31323 19.1468 5.63414 18.9268C6.14374 18.5784 6.84136 18.9342 7.39614 19.2163C9.22125 20.1429 10.6524 20.3297 12.5366 19.5106C13.7066 19.0018 14.7856 18.367 15.5311 17.5067L15.5982 17.3574C15.8892 16.7718 16.1762 16.2095 16.4626 15.6626L16.4639 15.6583V15.6608C18.6159 11.548 20.6596 8.51855 23.173 6.47352C26.8572 3.47602 33.7902 0.488364 38.6802 0.115982C43.5709 -0.257015 48.8702 1.7917 51.1085 5.83076C52.8712 3.04957 56.6463 1.83841 60.1371 1.97851L60.2016 1.92261C64.0345 1.93552 67.2363 4.63251 69.4647 7.51632C69.5863 7.67425 69.7019 7.83648 69.8208 7.99625C71.6153 9.30942 73.7315 10.2453 75.9805 10.6423C76.3771 10.7123 76.8362 10.8063 77.0103 11.1437C77.1824 11.4773 76.9751 11.8688 76.7452 12.1723C76.1346 12.9785 75.3194 13.6441 74.3932 14.1295C74.9952 14.7913 75.643 15.4138 76.3652 15.9742C76.9791 16.4511 77.7099 17.0231 77.6129 17.7593C77.5378 18.3277 76.9485 18.7443 76.3406 18.8543C75.732 18.9643 75.1068 18.8359 74.5028 18.7075C75.2031 19.4246 75.9027 20.1423 76.603 20.8594C75.447 21.4592 74.1368 21.7836 72.8119 21.8377C73.2332 25.0767 74.8085 30.816 74.7473 33.1241C72.4279 33.9223 71.7715 33.8725 70.7317 34.6173C69.3869 35.5808 70.9177 37.8845 68.6661 37.8225C67.52 37.7899 64.6245 34.7586 63.9242 33.9186C59.282 28.3421 55.9647 21.8291 54.2618 14.9701C52.3217 14.0391 50.1863 13.4572 48.0104 13.2673L48.2117 13.3448C44.1762 13.3614 39.6762 13.5506 36.8598 16.2231C34.6745 18.297 34.0865 21.343 32.88 24.0142C30.5938 29.077 27.1302 32.5102 21.6257 34.554C22.4894 38.3085 24.5769 44.2292 25.6639 47.6414L20.0151 41.9433L20.0238 41.9715C19.6238 41.66 19.2664 41.3306 18.9162 40.9988L18.8019 40.9011L18.796 40.8857C18.2365 40.3517 17.6917 39.8116 17.0512 39.312L17.0273 39.352C15.6746 41.593 11.8496 40.0869 12.6542 37.6301C12.813 37.1429 13.0489 36.6783 13.3605 36.2561C12.7605 37.3278 11.5653 38.1371 10.261 38.1856C8.95748 38.2348 7.62602 37.4317 7.29581 36.2635C7.07058 35.4665 7.40544 34.5798 8.0446 34.0274C6.50185 34.6572 4.75912 34.8662 3.09944 34.5872C2.01115 34.4047 0.822534 33.9075 0.728189 32.7535Z" fill="#17282F"/>
<path d="M47.5792 8.51676C47.5652 8.55609 48.2383 8.65626 49.2861 9.18841C50.3252 9.71933 51.6739 10.7929 52.7669 12.4962C53.3163 13.3412 53.8312 14.3182 54.2485 15.4144C54.671 16.5088 55.0232 17.7133 55.4032 18.9804C55.7879 20.245 56.1905 21.5833 56.7938 22.9149C57.0954 23.5792 57.4469 24.241 57.8688 24.8795C58.2887 25.5044 58.7618 26.1779 59.5378 26.5804C60.1597 26.9122 60.9769 26.8827 61.5689 26.5534C62.1721 26.2387 62.6233 25.7355 62.8777 25.1671C63.3654 24.0032 63.1402 22.8025 62.9648 21.7364L62.7063 21.8549C63.4897 22.6089 64.281 23.3482 65.2224 23.8379C66.1539 24.3356 67.2475 24.5089 68.2063 24.2828C68.684 24.171 69.1245 23.9504 69.4514 23.6358C69.7869 23.3211 69.9629 22.9143 70.04 22.5204C70.1051 22.1235 70.0659 21.724 69.9111 21.3762C69.7543 21.0303 69.4779 20.744 69.1451 20.5854L69.0514 20.7427C70.442 21.4647 71.7037 21.6847 72.5468 21.7597C72.972 21.7966 73.3002 21.7941 73.5208 21.7886C73.7414 21.7781 73.855 21.7671 73.855 21.7591C73.8543 21.7499 73.7401 21.745 73.5208 21.7388C73.3016 21.729 72.9767 21.7155 72.5587 21.6638C71.7289 21.5606 70.4951 21.3148 69.1484 20.5872L69.0547 20.7446C69.65 21.0278 69.9583 21.7646 69.8141 22.4848C69.739 22.8418 69.5743 23.2068 69.2759 23.4778C68.9829 23.7537 68.5803 23.9522 68.1425 24.0505C67.2595 24.2502 66.2383 24.0862 65.3619 23.6099C64.471 23.1392 63.7036 22.4184 62.9249 21.6608L62.5947 21.34L62.6658 21.7794C62.8405 22.8443 63.0352 24.0044 62.5867 25.0558C62.3595 25.5652 61.9436 26.0224 61.4154 26.2959C60.8898 26.581 60.2294 26.6025 59.6893 26.3211C59.0136 25.9739 58.5505 25.3416 58.1386 24.7252C57.7266 24.1034 57.3805 23.4557 57.0822 22.8031C56.4842 21.4949 56.0782 20.1676 55.6869 18.906C55.2982 17.6426 54.9361 16.4357 54.497 15.3303C54.0638 14.2242 53.5296 13.2379 52.9589 12.3868C51.8241 10.6706 50.4215 9.5952 49.3458 9.08763C48.2602 8.5776 47.5792 8.51676 47.5792 8.51676Z" fill="#33535F"/>
<path d="M12.1792 33.0725C12.1778 33.0768 12.223 33.0934 12.3134 33.1198C12.423 33.1506 12.5552 33.1874 12.7173 33.2323C12.8954 33.2839 13.1173 33.3392 13.3857 33.3779C13.6528 33.4234 13.9611 33.4842 14.3139 33.5039C15.7091 33.6397 17.8253 33.5371 20.1719 32.6252C22.498 31.7286 25.0513 30.0222 26.9282 27.4413C28.8477 24.8936 30.1446 21.6393 30.8908 18.1539C31.2781 16.4075 31.4774 14.6814 31.799 13.0431C32.1146 11.4055 32.5557 9.84227 33.2939 8.4824C34.0168 7.12068 35.0174 5.96298 36.2093 5.1924C36.7986 4.79606 37.4471 4.5392 38.0856 4.34625C38.732 4.1705 39.3785 4.09369 39.9971 4.0814C41.2375 4.06419 42.3484 4.33887 43.2493 4.70081C44.1549 5.06705 44.8485 5.53959 45.3654 5.96973C46.368 6.87304 46.6677 7.56496 46.7095 7.53792C46.7148 7.53546 46.6956 7.4949 46.6517 7.41625C46.5979 7.32285 46.5321 7.21039 46.4524 7.07213C46.2677 6.77348 45.9435 6.35993 45.4518 5.88677C44.9389 5.43573 44.2419 4.93922 43.3224 4.55025C42.4075 4.16558 41.2734 3.86817 39.9951 3.87248C39.3579 3.87862 38.6888 3.95172 38.0165 4.12808C37.3527 4.32042 36.6711 4.58651 36.0585 4.99146C34.816 5.78109 33.7776 6.97133 33.0315 8.3607C32.2681 9.75068 31.8129 11.3422 31.4914 12.9915C31.1638 14.6433 30.9618 16.3657 30.5778 18.0961C29.8377 21.5551 28.5627 24.7707 26.6857 27.2871C24.85 29.8372 22.3651 31.5228 20.0836 32.4335C17.7854 33.3546 15.7072 33.4885 14.3252 33.389C12.9299 33.2852 12.1898 33.0307 12.1792 33.0725Z" fill="#33535F"/>
<path d="M9.01532 28.2235C9.01133 28.2438 9.2153 28.2954 9.59003 28.3704C9.96342 28.4527 10.5162 28.524 11.2012 28.567C11.8875 28.6162 12.7094 28.6027 13.6156 28.5191C14.5199 28.4214 15.5072 28.2463 16.5118 27.9568C17.5137 27.6576 18.4306 27.276 19.2312 26.8747C20.0238 26.4593 20.7042 26.0335 21.235 25.6285C21.7679 25.2273 22.1752 24.8752 22.4296 24.6091C22.6894 24.3479 22.8243 24.1974 22.8083 24.1832C22.7651 24.1445 22.1831 24.7142 21.0968 25.4626C20.5573 25.8411 19.8757 26.2418 19.091 26.6351C18.2984 27.016 17.3968 27.3823 16.4154 27.676C15.4308 27.9587 14.4661 28.1387 13.5818 28.2493C12.6948 28.3452 11.8875 28.3802 11.2112 28.3593C9.85712 28.3255 9.02595 28.1695 9.01532 28.2235Z" fill="#33535F"/>
<path d="M33.1125 113.403C32.9976 113.434 34.5038 120.41 35.9781 127.645H36.4445C34.9695 120.41 33.2275 113.373 33.1125 113.403Z" fill="#17282F"/>
<path d="M39.4775 127.996C43.7416 127.996 47.6669 125.154 48.2629 121.284C49.603 112.59 54.9667 97.875 77.579 97.5173C94.8043 97.2457 102.055 108.523 104.086 113.538C107.31 121.501 106.91 131.165 101.677 139.082C93.6363 151.244 78.8447 153.106 70.7436 153.133C61.4274 153.165 53.8479 160.104 53.8479 168.602V201.085L100.511 200.273V192.166C100.511 192.015 100.613 191.885 100.771 191.835C106.455 190.005 115.468 186.536 125.607 178.973L122.57 141.563C122.57 141.563 131.45 125.777 131.01 122.225C126.989 89.7778 115.057 71.418 110.209 69.706C104.764 67.7833 83.742 68.7198 83.742 68.7198C83.742 68.7198 74.663 84.2781 61.9257 86.0018C54.8385 86.9604 52.2506 78.7753 52.2506 78.7753L35.7881 87.7021C24.0713 93.168 21.7977 114.434 21.5825 127.996H39.4775Z" fill="#33535F"/>
<path d="M86.7989 150.44C86.7942 150.432 86.7896 150.424 86.7856 150.416C86.7856 150.416 87.8513 150.01 89.0678 149.483C89.0738 149.491 89.0804 149.5 89.0871 149.508C88.3277 149.849 87.5643 150.159 86.7989 150.44ZM89.4379 149.349C89.4319 149.342 89.4266 149.335 89.4213 149.328C89.8452 149.14 90.2764 148.941 90.6783 148.742C90.7049 148.729 90.7321 148.716 90.7587 148.702C90.3209 148.929 89.8804 149.144 89.4379 149.349Z" fill="#A7A9A8"/>
<path d="M89.0871 149.508C89.0805 149.5 89.0739 149.491 89.0679 149.483C89.121 149.46 89.1755 149.436 89.23 149.413C89.236 149.42 89.2419 149.427 89.2479 149.436C89.1948 149.46 89.1409 149.484 89.0871 149.508Z" fill="#979999"/>
<path d="M89.2479 149.436C89.2419 149.427 89.236 149.42 89.23 149.412C89.2931 149.384 89.3569 149.356 89.4213 149.328C89.4266 149.335 89.432 149.342 89.4379 149.349C89.3748 149.377 89.311 149.407 89.2479 149.436Z" fill="#979999"/>
<path d="M123.878 157.673L123.691 155.366C124.155 156.012 124.094 156.883 123.878 157.673ZM86.8063 150.453C86.8036 150.449 86.8009 150.444 86.799 150.44C87.5643 150.159 88.3277 149.849 89.0872 149.508C89.141 149.484 89.1948 149.46 89.2479 149.436C89.3111 149.407 89.3748 149.377 89.438 149.349C89.8804 149.144 90.321 148.929 90.7588 148.702C92.2909 147.938 93.5553 147.108 93.5553 147.108C93.5559 147.109 93.5566 147.109 93.5573 147.109C91.39 148.521 89.1038 149.612 86.8063 150.453Z" fill="#CC4341"/>
<path d="M110.228 168.927C107.445 168.927 104.778 167.711 102.412 166.315C95.8853 162.462 90.3143 156.837 86.8062 150.453C89.1037 149.612 91.3899 148.521 93.5572 147.109C102.962 149.323 112.235 152.125 121.64 154.339C122.338 154.504 123.081 154.693 123.552 155.197C123.603 155.251 123.649 155.308 123.691 155.366L123.878 157.673C123.847 157.784 123.814 157.894 123.778 158.002C122.789 160.992 120.656 163.577 118.115 165.641C116.069 167.303 113.617 168.706 110.901 168.903C110.676 168.919 110.451 168.927 110.228 168.927Z" fill="#20353D"/>
<path d="M103.894 113.764C107.655 121.79 106.701 131.309 101.341 139.225C98.3669 143.619 94.5798 146.756 90.4492 148.86C94.8987 153.336 99.414 157.279 103.879 160.21C108.683 163.363 119.755 162.466 123.954 155.564C129.134 147.046 129.567 125.288 129.567 125.288C130.551 112.171 130.551 112.171 130.551 112.171L101.584 108.068L101.352 108.803C102.595 110.526 103.327 112.555 103.894 113.764Z" fill="#F9A78D"/>
<path d="M53.4559 108.251L51.8062 110.656C50.5531 111.456 49.3592 111.017 48.5852 109.53L30.7539 84.4281L35.0978 81.873L54.792 105.945C54.792 105.945 55.0691 107.221 53.4559 108.251Z" fill="#33535F"/>
<path d="M31.1572 53.1259C26.1323 50.5032 19.861 50.0768 14.2402 52.4886C9.75281 54.4145 6.34443 57.8415 4.64356 62.138C2.94269 66.4346 3.15263 71.0869 5.23487 75.2372C7.31711 79.3881 11.0225 82.5398 15.668 84.1129C20.3135 85.686 25.3437 85.4912 29.8311 83.5654C34.3185 81.6402 37.7268 78.2132 39.4277 73.9166C41.1286 69.6201 40.9186 64.9678 38.8357 60.8175C37.1462 57.4482 34.4135 54.8256 31.1572 53.1259ZM12.2596 83.998C8.76884 82.176 5.84081 79.3659 4.02899 75.7546C1.79726 71.3063 1.57202 66.3203 3.39514 61.7159C5.21827 57.1103 8.87048 53.438 13.6808 51.374C23.6089 47.1125 35.4347 51.1171 40.0423 60.3001C42.2734 64.7484 42.4986 69.7344 40.6755 74.3394C38.853 78.9444 35.2008 82.6166 30.3905 84.6807C24.367 87.2659 17.6433 86.8087 12.2596 83.998Z" fill="#17282F"/>
<path d="M32.0024 52.3559C26.9782 49.7332 20.7062 49.3068 15.0853 51.7187C10.598 53.6445 7.18958 57.0715 5.48871 61.368C3.78784 65.6646 3.99846 70.3163 6.08069 74.4666C8.16293 78.6175 11.8676 81.7698 16.5138 83.3423C21.1587 84.9154 26.1888 84.7212 30.6762 82.7954C35.1643 80.8696 38.572 77.4425 40.2729 73.146C41.9737 68.8495 41.7638 64.1978 39.6815 60.0475C37.9913 56.6782 35.2586 54.0556 32.0024 52.3559ZM13.1048 83.228C9.61399 81.406 6.68663 78.5959 4.87414 74.984C2.64307 70.5363 2.41784 65.5503 4.24029 60.9453C6.06341 56.3403 9.71631 52.6674 14.5259 50.6033C24.4541 46.3425 36.2798 50.3471 40.8874 59.5301C43.1185 63.9784 43.3437 68.9644 41.5213 73.5688C39.6982 78.1738 36.0459 81.8466 31.2363 83.9107C25.2122 86.4952 18.4891 86.0381 13.1048 83.228Z" fill="#33535F"/>
<path d="M39.3905 67.5142C39.3832 67.5142 39.3765 67.4104 39.3705 67.2125C39.3546 67.0159 39.3798 66.724 39.3327 66.3516C39.2875 65.6056 39.1061 64.5278 38.6749 63.2533C38.463 62.6149 38.162 61.9365 37.8059 61.2243C37.4198 60.5256 36.9966 59.7808 36.4478 59.057C35.913 58.3269 35.2984 57.5914 34.5835 56.8946C33.8739 56.1947 33.0879 55.5101 32.2009 54.9073C31.3186 54.2996 30.3905 53.7932 29.453 53.3815C28.5109 52.979 27.5608 52.6798 26.6399 52.4506C24.7889 52.0198 23.0554 51.9006 21.6144 51.9792C20.1713 52.053 19.0159 52.2631 18.2372 52.4635C17.8412 52.5458 17.5489 52.6546 17.3416 52.7043C17.1369 52.7609 17.028 52.7879 17.026 52.7811C17.0233 52.775 17.127 52.7357 17.3276 52.6669C17.5303 52.6048 17.8206 52.4837 18.2146 52.3897C18.9906 52.1654 20.1507 51.9325 21.6057 51.8404C23.0588 51.7433 24.8121 51.8483 26.6884 52.2748C27.6212 52.5022 28.5846 52.8014 29.5407 53.207C30.4914 53.6212 31.4342 54.1336 32.3285 54.7494C33.2268 55.3608 34.0208 56.0539 34.7363 56.7631C35.4565 57.4697 36.0744 58.2151 36.6106 58.9562C37.1601 59.6899 37.5826 60.4451 37.9653 61.1542C38.3181 61.8769 38.6138 62.5645 38.8184 63.2122C39.2357 64.5044 39.3951 65.5945 39.415 66.3473C39.4503 66.7228 39.4111 67.0159 39.413 67.2137C39.4057 67.4116 39.3978 67.5148 39.3905 67.5142Z" fill="white"/>
<path d="M18.6771 82.4593C18.6917 82.4138 19.5979 82.726 21.1267 82.9189C21.3187 82.9404 21.5194 82.9625 21.7267 82.9859C21.936 83.0074 22.1552 83.008 22.3811 83.0209C22.8329 83.0547 23.3173 83.0326 23.8255 83.0234C24.8414 82.9675 25.9536 82.8255 27.0897 82.5496C28.2232 82.2596 29.2623 81.8657 30.1712 81.4423C30.6157 81.2137 31.0463 81.0078 31.4183 80.7688C31.607 80.6521 31.7964 80.55 31.9651 80.4345C32.1326 80.3178 32.2933 80.2053 32.4482 80.0978C33.6647 79.2197 34.2786 78.5296 34.3158 78.5615C34.3264 78.5708 34.1723 78.7404 33.8833 79.0402C33.7411 79.1932 33.5604 79.3745 33.3292 79.5644C33.1013 79.7567 32.8548 79.9915 32.5412 80.2065C32.3877 80.319 32.2276 80.4357 32.0615 80.5574C31.8934 80.6779 31.704 80.7842 31.5153 80.9046C31.1426 81.1529 30.7101 81.3667 30.2616 81.6027C29.3461 82.0408 28.2943 82.4457 27.1456 82.7395C25.9928 83.0191 24.864 83.1579 23.8342 83.2046C23.3186 83.209 22.8289 83.2249 22.3718 83.1838C22.1433 83.1672 21.9214 83.1629 21.7107 83.137C21.5008 83.1094 21.2988 83.0824 21.1048 83.0566C20.7174 83.0166 20.3766 82.9281 20.075 82.8679C19.772 82.8108 19.5175 82.7383 19.3116 82.6719C18.8983 82.5471 18.6724 82.4722 18.6771 82.4593Z" fill="white"/>
<path d="M32.3352 70.7009C32.2927 70.739 29.7055 68.3431 26.5562 65.3511C23.4063 62.3579 20.8875 59.9018 20.93 59.8637C20.9719 59.8262 23.5591 62.2209 26.709 65.2141C29.8576 68.2061 32.377 70.6628 32.3352 70.7009Z" fill="white"/>
<path d="M29.2803 75.5094C29.2743 75.5137 29.2099 75.4553 29.0916 75.3391C28.9601 75.207 28.7913 75.0368 28.5827 74.826C28.1276 74.3584 27.5004 73.7126 26.7323 72.9223C25.1723 71.313 23.0103 69.0953 20.5939 66.6705C18.1761 64.2457 15.9617 62.0729 14.3538 60.5041C13.5645 59.7317 12.9194 59.1012 12.4516 58.644C12.2417 58.4345 12.0723 58.2649 11.9407 58.1334C11.8251 58.0148 11.7673 57.9502 11.7726 57.9453C11.7779 57.941 11.8457 57.9957 11.9713 58.1051C12.1108 58.2304 12.2895 58.3914 12.5114 58.5905C12.9772 59.0145 13.6442 59.6352 14.4621 60.4076C16.0979 61.9518 18.3309 64.1111 20.75 66.5372C23.1678 68.9632 25.3131 71.1968 26.8453 72.8302C27.6113 73.6468 28.2259 74.3117 28.6451 74.7763C28.8411 74.9963 28.9999 75.1745 29.1242 75.3133C29.2318 75.4375 29.2856 75.5051 29.2803 75.5094Z" fill="white"/>
<path d="M23.0946 70.5068L8.80133 56.1141C8.80133 56.1141 8.802 56.1135 8.80399 56.1111C8.82724 56.0859 8.85049 56.0613 8.87375 56.0361C9.01062 55.8911 9.33684 55.5586 9.81056 55.1481C10.6849 54.4402 11.6357 53.8067 12.6535 53.2561C16.5915 58.2065 20.7639 63.4407 25.127 68.906C24.7337 69.2022 24.345 69.5027 23.961 69.8069C22.9757 68.7886 21.8934 67.6844 20.75 66.5371C18.3309 64.1111 16.0978 61.9518 14.462 60.4076C13.6442 59.6352 12.9771 59.0145 12.5114 58.5905C12.2894 58.3914 12.1107 58.2304 11.9712 58.1051C11.8509 58 11.7832 57.9453 11.7732 57.9453C11.7725 57.9453 11.7725 57.9453 11.7725 57.9453C11.7672 57.9502 11.825 58.0148 11.9406 58.1333C12.0722 58.2648 12.2416 58.4345 12.4516 58.644C12.9193 59.1012 13.5644 59.7316 14.3537 60.5041C15.9616 62.0729 18.1761 64.2457 20.5938 66.6705C21.7353 67.8165 22.8202 68.9152 23.8115 69.9261C23.571 70.1178 23.3312 70.312 23.0946 70.5068ZM25.7423 68.4488C22.2249 63.9692 18.8245 59.645 15.5689 55.5101L27.3275 67.3243C26.7914 67.6924 26.2632 68.0666 25.7423 68.4488Z" fill="white"/>
<path d="M25.1271 68.9059C20.7639 63.4406 16.5915 58.2064 12.6536 53.2561C12.7984 53.1774 12.9446 53.1006 13.0921 53.0262C13.0927 53.0256 13.0941 53.025 13.0947 53.0244L15.569 55.51C18.8245 59.6449 22.225 63.9691 25.7423 68.4488C25.5363 68.5999 25.331 68.7523 25.1271 68.9059Z" fill="#EEEEEC"/>
<path d="M33.6872 81.1732L32.6507 80.1291C32.9132 79.9362 33.1284 79.734 33.3291 79.5644C33.5603 79.3745 33.741 79.1933 33.8832 79.0403C34.1722 78.7404 34.3263 78.5708 34.3157 78.5616C34.315 78.5609 34.3137 78.5609 34.3124 78.5609C34.2526 78.5609 33.6712 79.2019 32.5477 80.0253L23.0946 70.5068C23.3311 70.312 23.571 70.1178 23.8115 69.9261C24.9184 71.0549 25.909 72.0731 26.7322 72.9224C27.5003 73.7126 28.1275 74.3584 28.5826 74.8261C28.7912 75.0368 28.96 75.2071 29.0915 75.3392C29.2058 75.451 29.2696 75.51 29.2789 75.51C29.2795 75.51 29.2795 75.5094 29.2802 75.5094C29.2855 75.5051 29.2317 75.4375 29.1241 75.3134C28.9998 75.1745 28.841 74.9963 28.645 74.7763C28.2258 74.3117 27.6112 73.6469 26.8452 72.8302C26.0372 71.9693 25.0599 70.9419 23.961 69.8069C24.345 69.5027 24.7337 69.2022 25.127 68.906C25.331 68.7524 25.5363 68.6 25.7422 68.4489C26.2631 68.0667 26.7913 67.6924 27.3275 67.3243L37.467 77.5108C37.467 77.5108 35.8824 79.5613 34.2519 80.786C34.0785 80.9102 33.9024 81.0318 33.7231 81.151C33.7111 81.1584 33.6991 81.1658 33.6872 81.1732Z" fill="#29D3D3"/>
<path d="M9.81055 55.1481C10.5773 54.4851 11.7293 53.6211 13.092 53.0263C12.9445 53.1006 12.7984 53.1775 12.6535 53.2561C11.6357 53.8067 10.6849 54.4402 9.81055 55.1481Z" fill="#57666B"/>
<path d="M33.7232 81.151C33.9026 81.0318 34.0786 80.9101 34.252 80.786C34.076 80.9187 33.8986 81.0416 33.7232 81.151ZM8.80408 56.111C8.81139 56.1031 8.8353 56.0773 8.87383 56.0361C8.85058 56.0613 8.82733 56.0859 8.80408 56.111Z" fill="#6A858C"/>
<path d="M32.6508 80.129L32.5478 80.0252C33.6713 79.2018 34.2526 78.5608 34.3124 78.5608C34.3138 78.5608 34.3151 78.5608 34.3158 78.5615C34.3264 78.5707 34.1723 78.7403 33.8832 79.0401C33.7411 79.1932 33.5603 79.3744 33.3291 79.5643C33.1285 79.7339 32.9132 79.9361 32.6508 80.129Z" fill="white"/>
<path d="M29.279 75.5099C29.2697 75.5099 29.2059 75.451 29.0916 75.3391C28.9601 75.207 28.7913 75.0368 28.5827 74.826C28.1276 74.3584 27.5004 73.7126 26.7323 72.9223C25.9091 72.0731 24.9185 71.0549 23.8116 69.926C22.8203 68.9152 21.7353 67.8165 20.5939 66.6705C18.1761 64.2457 15.9617 62.0728 14.3538 60.504C13.5645 59.7316 12.9194 59.1012 12.4516 58.644C12.2417 58.4344 12.0723 58.2648 11.9407 58.1333C11.8251 58.0147 11.7673 57.9502 11.7726 57.9453C11.7726 57.9453 11.7726 57.9453 11.7733 57.9453C11.7832 57.9453 11.851 58 11.9713 58.1051C12.1108 58.2304 12.2895 58.3914 12.5114 58.5905C12.9772 59.0145 13.6442 59.6351 14.4621 60.4076C16.0979 61.9518 18.3309 64.1111 20.75 66.5371C21.8935 67.6844 22.9758 68.7886 23.9611 69.8068C25.06 70.9418 26.0373 71.9692 26.8453 72.8301C27.6113 73.6468 28.2259 74.3117 28.6451 74.7762C28.8411 74.9962 28.9999 75.1744 29.1242 75.3133C29.2318 75.4374 29.2856 75.505 29.2803 75.5093C29.2796 75.5093 29.2796 75.5099 29.279 75.5099Z" fill="white"/>
<path d="M29.2477 83.2932L28.3369 82.3855C28.8239 82.2215 29.2876 82.0396 29.7248 81.8485L30.6762 82.7954C30.3573 82.9325 30.0351 83.0609 29.7102 83.1801C29.5753 83.2151 29.4218 83.2526 29.2477 83.2932Z" fill="#F57E87"/>
<path d="M19.576 73.653L6.02881 60.1495C6.02881 60.1495 6.02881 60.1489 6.02881 60.1483C6.21883 59.7617 6.4228 59.3832 6.64139 59.0133C6.66198 58.9887 6.68324 58.9635 6.70583 58.9383L20.5566 72.7232C20.2258 73.0299 19.8982 73.3396 19.576 73.653Z" fill="white"/>
<path d="M28.1813 82.2307L19.5759 73.653C19.8982 73.3396 20.2257 73.0299 20.5566 72.7233L29.5805 81.7047C29.1387 81.8921 28.6709 82.0697 28.1813 82.2307Z" fill="#29D3D3"/>
<path d="M29.7101 83.1801C30.035 83.0608 30.3573 82.9324 30.6762 82.7954C30.6762 82.7954 30.8542 82.8851 29.7101 83.1801ZM6.02881 60.1483C6.03412 60.1224 6.15305 59.5995 6.64139 59.0133C6.4228 59.3832 6.21883 59.7617 6.02881 60.1483Z" fill="#6A858C"/>
<path d="M28.3368 82.3855L28.1813 82.2306C28.6709 82.0696 29.1387 81.8921 29.5805 81.7047L29.7247 81.8484C29.2875 82.0395 28.8238 82.2214 28.3368 82.3855Z" fill="white"/>
<path d="M69.8048 98.3002C64.6856 94.4978 52.1377 85.1974 51.5643 84.9492C50.8428 84.637 39.7997 81.0084 37.6849 82.1741C35.5695 83.3404 29.8975 89.9241 29.8975 89.9241C29.8975 89.9241 30.4363 94.0191 35.3834 91.0886C39.1579 88.853 39.7432 88.5065 39.809 88.4671L39.8017 88.4714L45.0605 89.6076C45.0605 89.6076 38.6463 92.0853 37.2896 93.388C35.9329 94.6907 33.7875 99.6785 35.1256 100.827C36.4638 101.976 38.0178 102.074 38.0178 102.074C38.0178 102.074 35.3695 105.552 40.0668 107.652C40.0668 107.652 40.7525 110.575 43.0693 111.721C45.3867 112.867 49.7027 112.461 49.7027 112.461C49.7027 112.461 51.7045 111.366 50.2176 109.551C48.7306 107.736 45.988 107.485 45.988 107.485L49.3877 105.651C49.3877 105.651 51.1564 106.152 53.7768 108.023C53.7768 108.023 56.8809 104.348 59.9803 102.271C63.4591 99.9391 69.8048 98.3002 69.8048 98.3002Z" fill="#F9A78D"/>
<path d="M48.0404 99.845C48.0391 99.8309 47.859 99.8334 47.5361 99.8721C47.2132 99.9102 46.7488 99.9962 46.1927 100.16C45.0852 100.481 43.5995 101.191 42.3817 102.416C41.1632 103.642 40.522 105.071 40.2689 106.118C40.1387 106.644 40.0849 107.079 40.0709 107.38C40.0563 107.681 40.0682 107.848 40.0835 107.848C40.1314 107.851 40.1413 107.183 40.4416 106.158C40.7333 105.14 41.3831 103.764 42.5664 102.574C43.7497 101.384 45.1782 100.67 46.2505 100.316C47.3295 99.9532 48.0484 99.8881 48.0404 99.845Z" fill="#F57F62"/>
<path d="M48.267 94.5518C48.265 94.5359 48.0736 94.5494 47.7275 94.5875C47.5541 94.6041 47.3428 94.6305 47.1016 94.6821C46.8598 94.7313 46.5807 94.7743 46.283 94.8622C45.6798 95.0096 44.9808 95.2505 44.2334 95.5762C43.4926 95.9148 42.7079 96.3449 41.9485 96.8795C41.1951 97.4228 40.5446 98.0145 40.0018 98.5903C39.4703 99.1759 39.0397 99.7394 38.7314 100.241C38.564 100.485 38.4478 100.724 38.3348 100.927C38.2192 101.13 38.1375 101.312 38.0757 101.463C37.9475 101.762 37.885 101.93 37.9009 101.936C37.9468 101.955 38.2285 101.291 38.8836 100.327C39.2065 99.8426 39.645 99.2982 40.1765 98.731C40.7193 98.173 41.3625 97.5973 42.1013 97.0639C42.8474 96.5391 43.7058 95.9486 44.4274 95.6051C45.1562 95.2751 45.7449 95.1848 46.3335 95.0195C47.5089 94.6797 48.2743 94.5979 48.267 94.5518Z" fill="#F57F62"/>
<path d="M49.227 88.4733C49.2343 88.4481 48.9685 88.3535 48.5127 88.3252C48.0596 88.2951 47.4158 88.3609 46.77 88.6128C45.8963 88.9581 45.5887 89.2955 45.3362 89.5732C45.0419 89.8959 44.9316 90.1386 44.9562 90.1515C45.0147 90.2 45.6246 89.3016 46.8684 88.8266C48.1008 88.3283 49.2243 88.5458 49.227 88.4733Z" fill="#F57F62"/>
<path d="M108.166 69.2163C108.166 69.2163 124.372 70.6542 129.515 83.6753C133.598 94.0105 135.817 124.973 134.794 125.604L106.184 124.757C105.808 117.207 103.609 111.386 100.528 107.619L108.166 69.2163Z" fill="#33535F"/>
<path d="M106.621 124.758C106.635 124.739 106.834 124.843 107.183 125.047C107.534 125.249 108.026 125.562 108.619 125.967C109.809 126.775 111.383 127.983 112.973 129.461C114.565 130.937 115.869 132.392 116.764 133.476C117.21 134.019 117.559 134.466 117.788 134.784C118.018 135.1 118.136 135.281 118.117 135.295C118.074 135.323 117.51 134.662 116.572 133.617C115.633 132.574 114.309 131.152 112.728 129.687C111.15 128.22 109.615 126.995 108.47 126.146C107.326 125.296 106.591 124.799 106.621 124.758Z" fill="#F57F62"/>
<path d="M103.214 92.9086C103.308 92.9234 102.783 96.2281 102.041 100.29C101.299 104.353 100.621 107.634 100.528 107.619C100.433 107.604 100.958 104.3 101.7 100.237C102.442 96.1753 103.12 92.8939 103.214 92.9086Z" fill="#17282F"/>
<path d="M67.2064 185.76C67.2058 185.749 67.3692 185.727 67.6821 185.694C68.0289 185.661 68.4834 185.619 69.0495 185.566C70.2773 185.459 71.9861 185.309 74.0817 185.126C78.3299 184.749 84.1932 184.182 90.6519 183.428C97.1132 182.671 102.945 181.869 107.16 181.256C109.239 180.951 110.935 180.702 112.152 180.524C112.715 180.444 113.166 180.38 113.511 180.333C113.822 180.292 113.987 180.276 113.989 180.287C113.991 180.298 113.831 180.335 113.523 180.396C113.182 180.459 112.734 180.543 112.175 180.646C111.004 180.859 109.304 181.144 107.2 181.479C102.992 182.15 97.1617 182.988 90.6957 183.745C84.2311 184.5 78.3591 185.032 74.1036 185.351C71.9755 185.511 70.252 185.626 69.0601 185.69C68.4914 185.719 68.0349 185.741 67.6875 185.758C67.3732 185.77 67.2078 185.771 67.2064 185.76Z" fill="#17282F"/>
<path d="M64.6769 181.805C64.6763 181.783 65.0962 181.748 65.8563 181.706C66.6728 181.666 67.7591 181.613 69.0753 181.547C71.8458 181.416 75.5732 181.24 79.6931 181.044C83.8124 180.824 87.5391 180.624 90.309 180.475C91.6245 180.407 92.7108 180.35 93.5273 180.308C94.2874 180.274 94.7086 180.265 94.7106 180.287C94.7126 180.309 94.2947 180.36 93.5373 180.432C92.7799 180.505 91.6829 180.597 90.3262 180.701C87.6128 180.908 83.8609 181.154 79.7117 181.364C75.5645 181.573 71.806 181.707 69.0846 181.774C67.7239 181.807 66.6223 181.826 65.8609 181.831C65.0995 181.835 64.6783 181.827 64.6769 181.805Z" fill="#17282F"/>
<path d="M19.1096 125.777C19.2146 125.401 19.386 125.047 19.6272 124.726C20.1056 124.092 20.8304 123.608 21.6503 123.435C23.0137 123.147 24.5418 123.738 25.2786 124.837C25.2294 123.999 25.945 123.218 26.8207 122.997C27.6957 122.775 28.3747 123.088 29.073 123.623C29.772 124.159 29.95 124.586 30.2337 125.383C30.9313 123.935 34.5145 124.113 34.9503 125.199C34.9503 125.199 38.0338 122.077 39.6111 123.612C40.2662 124.25 39.9852 125.229 39.5513 126.208C38.972 127.516 38.5906 128.062 37.8332 129.503L34.9144 129.65C34.668 130.495 34.1504 133.93 34.0414 134.8C33.9318 135.669 33.7438 136.554 33.2441 137.297C32.7445 138.039 31.8761 138.621 30.93 138.609C29.9839 138.597 29.0524 137.847 29.1082 136.973C28.9096 137.695 28.5774 138.407 28.002 138.929C27.426 139.45 26.5742 139.75 25.7949 139.562C25.0155 139.374 24.3976 138.62 24.5557 137.89C23.5146 138.556 21.9772 137.964 21.3168 136.965C20.6557 135.967 20.6397 134.726 20.6803 133.555C20.7162 132.518 20.8178 131.354 20.376 130.372C20.3062 130.217 20.186 130.083 20.1461 129.918C20.0863 129.674 20.1262 129.397 20.1076 129.148C20.0664 128.604 19.9581 128.062 19.7561 127.549C19.7116 127.436 19.6631 127.325 19.6093 127.216C19.4677 126.925 19.2591 126.679 19.099 126.402C19.0638 126.34 19.0332 126.28 19.0252 126.21C19.008 126.07 19.0718 125.912 19.1096 125.777Z" fill="#F9A78D"/>
<path d="M15.8254 124.279C15.0454 124.253 14.1956 124.402 13.6747 124.94C13.0575 125.578 12.9153 127.104 12.9858 127.957C14.0674 128.147 14.6441 127.924 15.7258 128.112C15.9536 128.152 16.1443 128.099 16.3337 128.224C16.832 128.551 16.7516 129.655 16.9522 130.189C17.3004 131.117 18.5847 131.569 19.58 131.228C20.5746 130.888 21.2157 129.909 21.2662 128.928C21.3167 127.948 20.8496 126.989 20.1673 126.238C19.1003 125.063 17.4824 124.333 15.8254 124.279Z" fill="#F9A78D"/>
<path d="M34.246 133.367C34.1363 133.345 34.5815 131.515 34.8625 129.237C34.9981 128.097 35.0293 127.061 34.9808 126.314C34.9389 125.567 34.8439 125.108 34.8971 125.095C34.9363 125.085 35.1177 125.533 35.2246 126.293C35.3376 127.052 35.3442 128.115 35.2067 129.271C35.0718 130.427 34.8379 131.456 34.6453 132.193C34.4499 132.93 34.2911 133.377 34.246 133.367Z" fill="#F57F62"/>
<path d="M28.9786 137.3C28.9301 137.29 29.055 136.625 29.2676 135.555C29.4782 134.485 29.7745 133.007 29.9997 131.366C30.2243 129.723 30.3041 128.226 30.2801 127.143C30.2629 126.06 30.1778 125.391 30.2336 125.383C30.2722 125.377 30.4442 126.039 30.5246 127.134C30.6117 128.227 30.5698 129.748 30.3426 131.405C30.116 133.062 29.7798 134.54 29.5068 135.601C29.2324 136.663 29.0231 137.31 28.9786 137.3Z" fill="#F57F62"/>
<path d="M24.5217 138.003C24.4699 137.99 24.654 137.255 24.8865 136.06C25.1204 134.865 25.3782 133.204 25.4885 131.356C25.5961 129.507 25.5356 127.83 25.4433 126.619C25.3522 125.407 25.2559 124.659 25.3091 124.652C25.333 124.648 25.3835 124.832 25.4552 125.167C25.5296 125.502 25.61 125.991 25.6871 126.598C25.8419 127.812 25.9429 129.507 25.8339 131.373C25.7223 133.24 25.4233 134.914 25.1264 136.104C24.9789 136.701 24.8407 137.179 24.7277 137.504C24.6168 137.831 24.545 138.008 24.5217 138.003Z" fill="#F57F62"/>
<path d="M18.6458 125.969C18.6611 125.936 19.0458 126.04 19.556 126.394C20.063 126.743 20.6749 127.372 21.0337 128.219C21.3918 129.064 21.419 129.919 21.2297 130.497C21.0363 131.091 20.633 131.297 20.6198 131.259C20.5806 131.224 20.8815 130.981 20.9925 130.441C21.1054 129.911 21.0443 129.119 20.7114 128.336C20.3779 127.549 19.8417 126.943 19.3986 126.568C18.9561 126.188 18.6192 126.016 18.6458 125.969Z" fill="#F57F62"/>
</svg>
