<svg xmlns="http://www.w3.org/2000/svg" width="154" height="260" fill="none"><path fill="#17282F" d="M76.538 220.324h2.36c11.616 0 21.066 8.74 21.066 19.483s-9.45 19.482-21.065 19.482h-2.361c-11.616 0-21.066-8.739-21.066-19.482 0-10.743 9.45-19.483 21.066-19.483Z"/><path fill="#29D3D3" d="M124.167 66.9c-15.687-9.76-34.34-13.237-46.563-13.237-11.449 0-28.297 1.67-43.546 9.626-9.47 4.941-17.027 11.691-22.46 20.064-6.434 9.916-9.917 22.187-10.351 36.47-.065 2.143.79 4.171 2.41 5.712 1.628 1.547 3.809 2.4 6.143 2.4h30.018c4.236 0 7.878-2.923 8.47-6.799 1.33-8.706 6.918-23.365 29.382-23.724 17.113-.272 24.174 11.187 26.416 16.126 3.649 8.039 2.723 17.571-2.476 25.499-7.988 12.181-22.682 14.045-30.73 14.073-9.256.031-16.786 6.98-16.786 15.49v29.875c0 4.364 3.838 7.913 8.556 7.913h29.247c4.717 0 8.555-3.549 8.555-7.913v-6.277c0-.15.102-.28.259-.331 6.625-2.15 19.468-7.345 31.035-17.982C146.513 160.306 154 142.78 154 121.795c0-30.033-16.223-46.43-29.833-54.895Z"/><path fill="#17282F" d="M62.538 212.166h29.235c4.715 0 8.551-3.437 8.551-7.662V192.29c0-.146.102-.272.259-.321 3.455-1.086 8.29-3.079 13.761-6.188-18.68-.121-52.727-.298-60.358-.041v18.764c0 4.225 3.836 7.662 8.552 7.662Z"/><path fill="#F9A78D" d="m86.616 76.826-18.76-50.39c-3.962-12.616-15.203-21-28.73-16.987l-1.226.437c-12.344 4.412-18.962 16.848-15.201 28.582 3.5 10.918 7.517 22.94 9.966 28.593 5.07 11.703 18.34 8.418 18.34 8.418.03-.009 2.954 7.8 4.233 11.306l6.872 6.28 2.838-2.869 21.668-13.37Z"/><path fill="#F57F62" d="M51.005 75.479s8.197-2.429 14.664-10.442c0 0-.29 10.263-13.418 13.738l-1.245-3.296Z"/><path fill="#17282F" d="M31.878 46.425c.336.9 1.437 1.377 2.458 1.07 1.02-.308 1.576-1.285 1.239-2.184-.336-.899-1.437-1.377-2.457-1.07-1.021.308-1.577 1.285-1.24 2.184ZM27.363 42.126c.316.138 1.298-1.295 3.254-1.988 1.943-.719 3.765-.302 3.885-.599.063-.135-.332-.448-1.132-.645-.79-.2-2.008-.232-3.223.208-1.214.441-2.065 1.22-2.476 1.855-.423.642-.46 1.11-.308 1.169ZM48.214 40.435c.317.138 1.301-1.295 3.256-1.988 1.942-.719 3.764-.301 3.884-.599.063-.135-.329-.448-1.132-.645-.789-.2-2.007-.232-3.223.208-1.213.441-2.064 1.221-2.476 1.855-.42.64-.46 1.11-.31 1.169ZM45.481 52.091c-.034-.106-1.33.133-3.394.604-.52.13-1.03.208-1.245-.077-.257-.291-.256-.863-.238-1.487l.007-4.04c-.04-5.736-.276-10.379-.526-10.376-.25.004-.419 4.655-.378 10.39l.063 4.04c.031.592-.045 1.302.498 1.903.279.297.75.416 1.102.382.358-.024.64-.12.893-.194 2.022-.61 3.253-1.04 3.218-1.145ZM43.697 30.274c.457.367 2.15-.796 4.44-1.666 2.27-.913 4.35-1.228 4.386-1.787.007-.263-.555-.54-1.524-.623-.961-.085-2.323.065-3.69.598-1.367.537-2.431 1.335-3.035 2.034-.61.7-.787 1.267-.578 1.444ZM25.053 36.845c.574.273 2.002-.703 3.918-1.38 1.894-.729 3.663-.936 3.866-1.495.08-.266-.341-.592-1.209-.74-.856-.15-2.156-.067-3.466.416-1.309.484-2.305 1.25-2.806 1.901-.51.656-.563 1.158-.303 1.298Z"/><path fill="#F9A78D" d="M70.245 34.945c.18-.164 7.738-5.51 10.819 2.627 3.08 8.139-6.39 9.32-6.493 9.092-.104-.228-4.326-11.72-4.326-11.72Z"/><path fill="#F57F62" d="M76.091 42.71c.029-.038.191.05.492.076.293.025.755-.042 1.154-.35.81-.616 1.076-2.234.564-3.715a4.893 4.893 0 0 0-1.198-1.89c-.494-.51-1.067-.79-1.564-.716-.504.051-.737.418-.758.682-.032.265.085.41.044.44-.017.027-.24-.076-.297-.435a.9.9 0 0 1 .153-.622c.151-.227.431-.41.77-.482.694-.176 1.524.204 2.079.743a5.06 5.06 0 0 1 1.39 2.096c.564 1.659.238 3.487-.906 4.239-.563.35-1.145.345-1.483.239-.35-.113-.464-.28-.44-.305Z"/><path fill="#17282F" d="M52.122 51.27c-.31.079.366 1.957-.89 3.828-1.251 1.874-3.491 2.333-3.412 2.6.014.127.614.216 1.536-.044.906-.249 2.118-.92 2.887-2.064.764-1.146.825-2.378.615-3.169-.206-.81-.6-1.204-.736-1.15ZM.728 32.754c-.042-.525.184-1.042.55-1.444.798-.88 1.986-1.184 3.101-1.566a19.825 19.825 0 0 0 7.334-4.491c-1.022-.124-2.02-.355-2.95-.765-1.922-.849-3.504-2.59-3.522-4.559-.004-.37.072-.782.393-1.002.51-.349 1.207.007 1.762.29 1.825.926 3.256 1.113 5.14.294 1.17-.51 2.25-1.144 2.995-2.004l.067-.15c.291-.585.578-1.148.865-1.694v-.005.003c2.153-4.113 4.197-7.142 6.71-9.187C26.857 3.476 33.79.488 38.68.116c4.89-.373 10.19 1.676 12.428 5.715 1.763-2.781 5.538-3.993 9.03-3.852l.064-.056c3.832.013 7.034 2.71 9.263 5.593.121.158.237.32.356.48a14.861 14.861 0 0 0 6.16 2.646c.396.07.855.164 1.03.502.171.333-.036.725-.266 1.028-.61.806-1.426 1.472-2.352 1.957.602.662 1.25 1.285 1.972 1.845.614.477 1.345 1.05 1.248 1.785-.075.569-.665.985-1.272 1.095-.609.11-1.234-.018-1.838-.146l2.1 2.151c-1.156.6-2.466.925-3.791.979.421 3.239 1.996 8.978 1.935 11.286-2.32.798-2.975.748-4.015 1.493-1.345.964.186 3.268-2.066 3.206-1.146-.033-4.041-3.064-4.742-3.904-4.642-5.577-7.96-12.09-9.662-18.949a18.154 18.154 0 0 0-6.252-1.703l.202.078c-4.036.016-8.536.206-11.352 2.878-2.185 2.074-2.773 5.12-3.98 7.791-2.286 5.063-5.75 8.496-11.254 10.54.863 3.755 2.95 9.675 4.038 13.087l-5.649-5.698.009.029c-.4-.312-.758-.641-1.108-.973l-.114-.098-.006-.015c-.56-.534-1.104-1.074-1.745-1.574l-.024.04c-1.352 2.241-5.177.735-4.373-1.722.159-.487.395-.952.707-1.374-.6 1.072-1.796 1.881-3.1 1.93-1.304.049-2.635-.754-2.965-1.922-.225-.797.11-1.684.749-2.237a9.183 9.183 0 0 1-4.946.56c-1.088-.182-2.276-.68-2.37-1.834Z"/><path fill="#33535F" d="M47.58 8.517c-.015.04.658.14 1.706.671 1.04.531 2.388 1.605 3.48 3.308.55.845 1.065 1.822 1.483 2.918.422 1.095.774 2.3 1.154 3.566.385 1.265.788 2.603 1.39 3.935.302.664.654 1.326 1.076 1.965.42.624.893 1.298 1.669 1.7.622.332 1.439.303 2.03-.027a2.911 2.911 0 0 0 1.31-1.386c.487-1.164.262-2.365.087-3.43l-.259.118c.784.754 1.575 1.493 2.516 1.983.932.498 2.026.67 2.984.445.478-.112.918-.333 1.245-.647.336-.315.512-.722.589-1.116a2.014 2.014 0 0 0-.129-1.144 1.622 1.622 0 0 0-.766-.79l-.094.157a9.325 9.325 0 0 0 3.496 1.017c.425.037.753.034.974.029.22-.01.334-.022.334-.03 0-.01-.115-.014-.334-.02-.22-.01-.544-.024-.962-.075a9.58 9.58 0 0 1-3.41-1.077l-.094.158c.595.283.903 1.02.76 1.74-.076.357-.24.722-.54.993-.292.276-.695.474-1.133.572-.882.2-1.904.036-2.78-.44-.891-.47-1.658-1.192-2.437-1.95l-.33-.32.07.44c.175 1.064.37 2.224-.078 3.276-.228.51-.643.966-1.172 1.24a1.86 1.86 0 0 1-1.726.025c-.675-.347-1.139-.98-1.55-1.596a14.027 14.027 0 0 1-1.057-1.922c-.598-1.308-1.004-2.635-1.395-3.897-.389-1.263-.75-2.47-1.19-3.576a15.346 15.346 0 0 0-1.538-2.943c-1.135-1.716-2.538-2.792-3.613-3.3-1.086-.51-1.767-.57-1.767-.57ZM12.18 33.072a.53.53 0 0 0 .133.048l.404.112c.178.052.4.107.669.146.267.045.575.106.928.126 1.395.136 3.511.033 5.858-.879 2.326-.896 4.88-2.603 6.756-5.184 1.92-2.547 3.217-5.802 3.963-9.287.387-1.747.586-3.473.908-5.11.316-1.639.757-3.202 1.495-4.562.723-1.361 1.723-2.519 2.915-3.29.59-.396 1.238-.653 1.877-.846a7.878 7.878 0 0 1 1.911-.265 8.433 8.433 0 0 1 3.252.62 7.95 7.95 0 0 1 2.116 1.269c1.003.903 1.303 1.595 1.344 1.568.006-.003-.013-.043-.057-.122l-.2-.344c-.184-.299-.508-.712-1-1.185a7.824 7.824 0 0 0-2.13-1.337 8.525 8.525 0 0 0-3.327-.678 8.101 8.101 0 0 0-1.978.256c-.664.192-1.346.459-1.959.863-1.242.79-2.28 1.98-3.026 3.37-.764 1.39-1.22 2.981-1.54 4.63-.328 1.652-.53 3.375-.914 5.105-.74 3.46-2.015 6.675-3.892 9.191-1.836 2.55-4.32 4.236-6.602 5.147-2.299.92-4.377 1.055-5.759.955-1.395-.104-2.135-.358-2.146-.317Z"/><path fill="#33535F" d="M9.015 28.224c-.004.02.2.071.575.146.373.083.926.154 1.611.197.686.05 1.508.036 2.415-.048a17.163 17.163 0 0 0 2.896-.562c1.002-.3 1.919-.681 2.72-1.082a14.29 14.29 0 0 0 2.003-1.247c.533-.4.94-.753 1.195-1.019.26-.261.394-.412.378-.426-.043-.038-.625.531-1.711 1.28-.54.378-1.221.779-2.006 1.172-.793.381-1.694.747-2.676 1.041a18.73 18.73 0 0 1-2.833.573c-.887.096-1.695.131-2.37.11-1.355-.034-2.186-.19-2.197-.136Z"/><path fill="#17282F" d="M33.112 113.403c-.114.031 1.392 7.007 2.866 14.242h.466c-1.475-7.235-3.217-14.272-3.332-14.242Z"/><path fill="#33535F" d="M39.477 127.996c4.265 0 8.19-2.842 8.786-6.712 1.34-8.694 6.704-23.409 29.316-23.767 17.225-.271 24.476 11.006 26.507 16.021 3.224 7.963 2.824 17.627-2.409 25.544-8.04 12.162-22.832 14.024-30.933 14.051-9.317.032-16.896 6.971-16.896 15.469v32.483l46.663-.812v-8.107c0-.151.102-.281.26-.331 5.684-1.83 14.697-5.299 24.836-12.862l-3.037-37.41s8.88-15.786 8.44-19.338c-4.021-32.447-15.953-50.807-20.801-52.519-5.445-1.923-26.467-.986-26.467-.986s-9.079 15.558-21.816 17.282c-7.087.958-9.675-7.227-9.675-7.227l-16.463 8.927c-11.717 5.466-13.99 26.732-14.205 40.294h17.895Z"/><path fill="#A7A9A8" d="M86.799 150.44a.41.41 0 0 1-.013-.024s1.065-.406 2.282-.933c.006.008.012.017.02.025-.76.341-1.524.651-2.29.932Zm2.639-1.091a.435.435 0 0 1-.017-.021 33.28 33.28 0 0 0 1.257-.586l.08-.04c-.437.227-.878.442-1.32.647Z"/><path fill="#979999" d="m89.087 149.508-.02-.025.163-.07a.23.23 0 0 1 .018.023l-.16.072Z"/><path fill="#979999" d="m89.248 149.436-.018-.024.191-.084.017.021-.19.087Z"/><path fill="#CC4341" d="m123.878 157.673-.187-2.307c.464.646.403 1.517.187 2.307Zm-37.072-7.22a.106.106 0 0 1-.007-.013 35.242 35.242 0 0 0 2.449-1.004l.19-.087c.442-.205.883-.42 1.32-.647 1.533-.764 2.797-1.594 2.797-1.594l.002.001c-2.167 1.412-4.453 2.503-6.75 3.344Z"/><path fill="#20353D" d="M110.228 168.927c-2.783 0-5.45-1.216-7.816-2.612-6.527-3.853-12.098-9.478-15.606-15.862 2.298-.841 4.584-1.932 6.751-3.344 9.405 2.214 18.678 5.016 28.083 7.23.698.165 1.441.354 1.912.858.051.054.097.111.139.169l.187 2.307a6.969 6.969 0 0 1-.1.329c-.989 2.99-3.122 5.575-5.663 7.639-2.046 1.662-4.498 3.065-7.214 3.262a9.5 9.5 0 0 1-.673.024Z"/><path fill="#F9A78D" d="M103.894 113.764c3.761 8.026 2.807 17.545-2.553 25.461-2.974 4.394-6.761 7.531-10.892 9.635 4.45 4.476 8.965 8.419 13.43 11.35 4.804 3.153 15.876 2.256 20.075-4.646 5.18-8.518 5.613-30.276 5.613-30.276l.984-13.117-28.967-4.103-.232.735c1.243 1.723 1.975 3.752 2.542 4.961Z"/><path fill="#33535F" d="m53.456 108.251-1.65 2.405c-1.253.8-2.447.361-3.22-1.126L30.753 84.428l4.344-2.555 19.694 24.072s.277 1.276-1.336 2.306Z"/><path fill="#17282F" d="M31.157 53.126c-5.025-2.623-11.296-3.05-16.917-.637-4.487 1.925-7.896 5.353-9.596 9.649-1.701 4.297-1.491 8.949.59 13.1 2.083 4.15 5.789 7.302 10.434 8.875a19.776 19.776 0 0 0 14.163-.548c4.488-1.925 7.896-5.352 9.597-9.648 1.7-4.297 1.49-8.95-.592-13.1-1.69-3.369-4.422-5.991-7.679-7.691ZM12.26 83.998c-3.491-1.822-6.42-4.632-8.231-8.243-2.232-4.449-2.457-9.435-.634-14.04 1.823-4.605 5.475-8.277 10.286-10.341 9.928-4.262 21.754-.257 26.361 8.926 2.231 4.448 2.457 9.434.633 14.04-1.822 4.604-5.474 8.277-10.284 10.34-6.024 2.586-12.748 2.129-18.131-.682Z"/><path fill="#33535F" d="M32.002 52.356c-5.024-2.623-11.296-3.05-16.917-.637-4.487 1.925-7.895 5.352-9.596 9.649-1.701 4.297-1.49 8.948.592 13.099 2.082 4.15 5.787 7.303 10.433 8.875a19.774 19.774 0 0 0 14.162-.547c4.488-1.925 7.896-5.353 9.597-9.649 1.7-4.296 1.49-8.948-.592-13.099-1.69-3.369-4.422-5.991-7.679-7.691ZM13.105 83.228c-3.491-1.822-6.418-4.632-8.23-8.244-2.232-4.448-2.457-9.434-.635-14.039 1.823-4.605 5.476-8.278 10.286-10.342 9.928-4.26 21.754-.256 26.361 8.927 2.231 4.448 2.457 9.434.634 14.039s-5.475 8.278-10.285 10.342c-6.024 2.584-12.747 2.127-18.131-.683Z"/><path fill="#fff" d="M39.39 67.514c-.007 0-.014-.104-.02-.301-.015-.197.01-.489-.037-.861-.045-.746-.227-1.824-.658-3.099-.212-.638-.513-1.316-.87-2.029-.385-.698-.808-1.443-1.357-2.167a17.2 17.2 0 0 0-1.864-2.162 17.08 17.08 0 0 0-2.383-1.988 16.654 16.654 0 0 0-2.748-1.525 18.562 18.562 0 0 0-2.813-.931c-1.851-.431-3.585-.55-5.026-.472-1.443.074-2.598.284-3.377.485-.396.082-.688.19-.895.24-.205.057-.314.084-.316.077-.003-.006.101-.045.302-.114.202-.062.493-.183.887-.277.776-.225 1.936-.458 3.39-.55 1.454-.097 3.207.008 5.083.435.933.227 1.897.526 2.853.932.95.414 1.893.927 2.787 1.542a17.109 17.109 0 0 1 2.408 2.014c.72.707 1.338 1.452 1.875 2.193.55.734.972 1.49 1.354 2.198.353.723.649 1.41.853 2.058.418 1.292.577 2.382.597 3.135.035.376-.004.669-.002.867-.007.198-.015.3-.022.3ZM18.677 82.46c.015-.046.92.266 2.45.459l.6.067c.209.021.428.022.654.035.452.034.936.012 1.445.002a18.108 18.108 0 0 0 3.264-.473 17.75 17.75 0 0 0 3.081-1.108c.445-.228.875-.434 1.247-.673.189-.117.378-.219.547-.335l.483-.336c1.217-.878 1.83-1.568 1.868-1.537.01.01-.144.18-.433.48a5.607 5.607 0 0 1-.554.523c-.228.193-.474.428-.788.643l-.48.35c-.168.12-.357.227-.546.348-.372.248-.805.462-1.253.698-.916.438-1.968.843-3.116 1.137-1.153.28-2.282.418-3.312.465-.515.004-1.005.02-1.462-.021-.229-.017-.45-.021-.661-.047l-.606-.08c-.388-.04-.728-.129-1.03-.19a6.204 6.204 0 0 1-.763-.195c-.414-.125-.64-.2-.635-.213ZM32.335 70.7c-.042.039-2.63-2.357-5.779-5.349-3.15-2.993-5.669-5.45-5.626-5.487.042-.038 2.63 2.357 5.779 5.35 3.149 2.992 5.668 5.449 5.626 5.487ZM29.28 75.51c-.006.004-.07-.055-.188-.17l-.51-.514-1.85-1.904a637.325 637.325 0 0 0-6.138-6.251 641.367 641.367 0 0 0-6.24-6.167l-1.902-1.86-.511-.51c-.116-.12-.174-.184-.168-.189.005-.004.073.05.198.16l.54.486c.466.423 1.133 1.044 1.951 1.817a300.327 300.327 0 0 1 6.288 6.13 299.013 299.013 0 0 1 6.095 6.292c.766.817 1.38 1.482 1.8 1.946l.48.537c.107.124.16.192.155.196Z"/><path fill="#fff" d="M23.095 70.507 8.8 56.114l.003-.003.07-.075c.137-.145.463-.477.937-.888a18.512 18.512 0 0 1 2.842-1.892c3.938 4.95 8.11 10.185 12.474 15.65a60.23 60.23 0 0 0-1.166.9 300.515 300.515 0 0 0-9.499-9.4 155.641 155.641 0 0 0-1.95-1.816l-.54-.485a1.383 1.383 0 0 0-.199-.16c-.006.005.052.07.168.188l.51.511 1.903 1.86a640.232 640.232 0 0 1 6.24 6.167 588.331 588.331 0 0 1 3.217 3.255c-.24.192-.48.386-.716.58Zm2.647-2.058c-3.517-4.48-6.918-8.804-10.173-12.939l11.758 11.814c-.536.368-1.064.743-1.585 1.125Z"/><path fill="#EEEEEC" d="M25.127 68.906c-4.363-5.465-8.535-10.7-12.473-15.65.144-.079.29-.155.438-.23l.003-.002 2.474 2.486c3.255 4.135 6.656 8.46 10.173 12.939-.206.15-.411.303-.615.457Z"/><path fill="#29D3D3" d="m33.687 81.173-1.036-1.044c.262-.193.477-.395.678-.565.231-.19.412-.37.554-.524.29-.3.443-.47.433-.478l-.004-.001c-.06 0-.64.64-1.764 1.464l-9.453-9.518c.236-.195.476-.39.716-.58a720.625 720.625 0 0 1 2.921 2.995l1.85 1.904.51.513c.114.112.178.171.187.171h.001c.005-.005-.048-.073-.156-.197l-.479-.537c-.42-.464-1.034-1.13-1.8-1.946-.808-.86-1.785-1.888-2.884-3.023a60.23 60.23 0 0 1 3.367-2.483l10.139 10.187s-1.585 2.05-3.215 3.275c-.174.124-.35.246-.529.365l-.036.022Z"/><path fill="#57666B" d="M9.81 55.148c.767-.663 1.92-1.527 3.282-2.122a18.512 18.512 0 0 0-3.281 2.122Z"/><path fill="#6A858C" d="M33.723 81.151c.18-.12.356-.24.529-.365a7.308 7.308 0 0 1-.529.365ZM8.804 56.111l.07-.075-.07.075Z"/><path fill="#fff" d="m32.65 80.129-.102-.104c1.123-.823 1.705-1.464 1.764-1.464h.004c.01.01-.144.18-.433.48a5.584 5.584 0 0 1-.554.523c-.2.17-.416.372-.678.565ZM29.279 75.51c-.01 0-.073-.059-.187-.17l-.51-.514-1.85-1.904a595.571 595.571 0 0 0-6.138-6.252 641.532 641.532 0 0 0-6.24-6.166l-1.902-1.86-.511-.51c-.116-.12-.174-.184-.168-.189.01 0 .078.055.198.16l.54.486a154.76 154.76 0 0 1 1.951 1.817 300.543 300.543 0 0 1 9.5 9.399 272.072 272.072 0 0 1 2.883 3.023c.766.817 1.38 1.482 1.8 1.946l.48.537c.107.124.16.192.155.196h-.001Z"/><path fill="#F57E87" d="m29.248 83.293-.911-.908c.487-.163.95-.345 1.388-.537l.951.947c-.319.138-.64.266-.966.385-.135.035-.288.073-.462.113Z"/><path fill="#fff" d="M19.576 73.653 6.029 60.149c.19-.387.394-.766.612-1.136.021-.024.042-.05.065-.075l13.85 13.785c-.33.307-.658.617-.98.93Z"/><path fill="#29D3D3" d="m28.181 82.23-8.605-8.577c.322-.313.65-.623.98-.93l9.024 8.982c-.441.187-.91.365-1.399.526Z"/><path fill="#6A858C" d="M29.71 83.18c.325-.12.647-.248.966-.385 0 0 .178.09-.966.385ZM6.03 60.148c.005-.026.124-.549.612-1.135-.218.37-.422.749-.612 1.135Z"/><path fill="#fff" d="m28.337 82.385-.156-.154c.49-.161.958-.339 1.4-.526l.144.143c-.438.192-.901.373-1.388.537Z"/><path fill="#F9A78D" d="M69.805 98.3c-5.12-3.802-17.667-13.103-18.24-13.35-.722-.313-11.765-3.942-13.88-2.776-2.116 1.166-7.788 7.75-7.788 7.75s.54 4.095 5.486 1.165l4.426-2.622-.007.004 5.258 1.137s-6.414 2.477-7.77 3.78c-1.357 1.303-3.502 6.29-2.164 7.439 1.338 1.149 2.892 1.247 2.892 1.247s-2.648 3.478 2.049 5.578c0 0 .685 2.923 3.002 4.069 2.318 1.146 6.634.74 6.634.74s2.002-1.095.515-2.91c-1.487-1.815-4.23-2.066-4.23-2.066l3.4-1.834s1.768.501 4.389 2.372c0 0 3.104-3.675 6.203-5.752 3.48-2.332 9.825-3.97 9.825-3.97Z"/><path fill="#F57F62" d="M48.04 99.845c0-.014-.181-.012-.504.027a8.348 8.348 0 0 0-1.343.288c-1.108.321-2.593 1.031-3.811 2.256-1.219 1.226-1.86 2.655-2.113 3.702-.13.526-.184.961-.198 1.262-.015.301-.003.468.013.468.047.003.057-.665.358-1.69a8.55 8.55 0 0 1 2.124-3.584c1.184-1.19 2.612-1.904 3.684-2.258 1.08-.363 1.798-.428 1.79-.471ZM48.267 94.552c-.002-.016-.193-.003-.54.035a5.422 5.422 0 0 0-.625.095c-.242.05-.521.092-.819.18-.603.148-1.302.389-2.05.714-.74.339-1.525.769-2.284 1.303a13.708 13.708 0 0 0-1.947 1.711c-.532.586-.962 1.15-1.27 1.651-.168.244-.284.483-.397.686a4.547 4.547 0 0 0-.26.536c-.128.299-.19.467-.174.473.046.019.327-.645.983-1.609.322-.484.761-1.029 1.292-1.596a14.717 14.717 0 0 1 1.925-1.667c.746-.525 1.605-1.115 2.326-1.459.73-.33 1.318-.42 1.907-.586 1.175-.34 1.94-.421 1.933-.467ZM49.227 88.473c.007-.025-.258-.12-.714-.148a4.217 4.217 0 0 0-1.743.288c-.874.345-1.181.683-1.434.96-.294.323-.404.566-.38.579.059.048.669-.85 1.912-1.325 1.233-.499 2.356-.281 2.359-.354Z"/><path fill="#33535F" d="M108.166 69.216s16.206 1.438 21.349 14.46c4.083 10.334 6.302 41.297 5.279 41.928l-28.61-.847c-.376-7.55-2.575-13.371-5.656-17.138l7.638-38.403Z"/><path fill="#F57F62" d="M106.621 124.758c.014-.019.213.085.562.289.351.202.843.515 1.436.92a37.848 37.848 0 0 1 4.354 3.494 42.351 42.351 0 0 1 3.791 4.015c.446.543.795.99 1.024 1.308.23.316.348.497.329.511-.043.028-.607-.633-1.545-1.678a60.858 60.858 0 0 0-3.844-3.93 51.09 51.09 0 0 0-4.258-3.541c-1.144-.85-1.879-1.347-1.849-1.388Z"/><path fill="#17282F" d="M103.214 92.909c.094.014-.431 3.32-1.173 7.381-.742 4.063-1.42 7.344-1.513 7.329-.095-.015.43-3.319 1.172-7.382.742-4.062 1.42-7.343 1.514-7.328ZM67.206 185.76c0-.011.163-.033.476-.066l1.367-.128 5.033-.44a611.563 611.563 0 0 0 16.57-1.698 608.768 608.768 0 0 0 16.508-2.172l4.992-.732c.563-.08 1.014-.144 1.359-.191.311-.041.476-.057.478-.046.002.011-.158.048-.466.109l-1.348.25c-1.171.213-2.871.498-4.975.833a412.598 412.598 0 0 1-16.504 2.266 414.638 414.638 0 0 1-16.592 1.606c-2.129.16-3.852.275-5.044.339l-1.373.068c-.314.012-.48.013-.48.002ZM64.677 181.805c0-.022.42-.057 1.18-.099l3.218-.159 10.618-.503 10.616-.569 3.218-.167c.76-.034 1.182-.043 1.184-.021.002.022-.416.073-1.174.145-.757.073-1.854.165-3.21.269a431.36 431.36 0 0 1-10.615.663c-4.148.209-7.906.343-10.627.41-1.361.033-2.463.052-3.224.057-.761.004-1.183-.004-1.184-.026Z"/><path fill="#F9A78D" d="M19.11 125.777a3.15 3.15 0 0 1 .517-1.051 3.461 3.461 0 0 1 2.023-1.291c1.364-.288 2.892.303 3.629 1.402-.05-.838.666-1.619 1.542-1.84.875-.222 1.554.091 2.252.626.699.536.877.963 1.16 1.76.698-1.448 4.281-1.27 4.717-.184 0 0 3.084-3.122 4.661-1.587.655.638.374 1.617-.06 2.596-.579 1.308-.96 1.854-1.718 3.295l-2.919.147c-.246.845-.764 4.28-.873 5.15-.11.869-.297 1.754-.797 2.497-.5.742-1.368 1.324-2.314 1.312-.946-.012-1.878-.762-1.822-1.636-.198.722-.53 1.434-1.106 1.956-.576.521-1.428.821-2.207.633-.78-.188-1.397-.942-1.24-1.672-1.04.666-2.578.074-3.238-.925-.661-.998-.677-2.239-.637-3.41.036-1.037.138-2.201-.304-3.183-.07-.155-.19-.289-.23-.454-.06-.244-.02-.521-.038-.77a5.488 5.488 0 0 0-.352-1.599 4.363 4.363 0 0 0-.147-.333c-.141-.291-.35-.537-.51-.814a.504.504 0 0 1-.074-.192c-.017-.14.047-.298.085-.433Z"/><path fill="#F9A78D" d="M15.825 124.279c-.78-.026-1.63.123-2.15.661-.618.638-.76 2.164-.69 3.017 1.082.19 1.66-.033 2.74.155.229.04.42-.013.609.112.498.327.418 1.431.618 1.965.348.928 1.633 1.38 2.628 1.039.995-.34 1.636-1.319 1.686-2.3.05-.98-.416-1.939-1.099-2.69-1.067-1.175-2.685-1.905-4.342-1.959Z"/><path fill="#F57F62" d="M34.246 133.367c-.11-.022.335-1.852.616-4.13.136-1.14.167-2.176.119-2.923-.042-.747-.137-1.206-.084-1.219.04-.01.22.438.328 1.198.113.759.12 1.822-.018 2.978a21.548 21.548 0 0 1-.562 2.922c-.195.737-.354 1.184-.399 1.174ZM28.979 137.3c-.049-.01.076-.675.289-1.745.21-1.07.506-2.548.732-4.189.224-1.643.304-3.14.28-4.223-.017-1.083-.102-1.752-.046-1.76.038-.006.21.656.29 1.751.088 1.093.046 2.614-.181 4.271a37.327 37.327 0 0 1-.836 4.196c-.275 1.062-.484 1.709-.528 1.699ZM24.522 138.003c-.052-.013.132-.748.365-1.943.233-1.195.491-2.856.601-4.704a35.988 35.988 0 0 0-.045-4.737c-.09-1.212-.187-1.96-.134-1.967.024-.004.075.18.146.515.075.335.155.824.232 1.431a26.697 26.697 0 0 1-.56 9.506 16.77 16.77 0 0 1-.4 1.4c-.11.327-.182.504-.205.499ZM18.646 125.969c.015-.033.4.071.91.425a4.333 4.333 0 0 1 1.478 1.825c.358.845.385 1.7.196 2.278-.194.594-.597.8-.61.762-.04-.035.261-.278.372-.818.113-.53.052-1.322-.28-2.105a4.87 4.87 0 0 0-1.313-1.768c-.443-.38-.78-.552-.753-.599Z"/></svg>