<svg width="225" height="380" viewBox="0 0 225 380" fill="none" xmlns="http://www.w3.org/2000/svg">
<path d="M111.656 322.275H115.11C132.106 322.275 145.933 335.063 145.933 350.782C145.933 366.502 132.106 379.289 115.11 379.289H111.656C94.6601 379.289 80.833 366.502 80.833 350.782C80.833 335.063 94.6601 322.275 111.656 322.275Z" fill="#17282F"/>
<path d="M181.348 97.7821C158.394 83.503 131.103 78.4148 113.216 78.4148C96.4644 78.4148 71.8123 80.8586 49.4991 92.4988C35.6419 99.7287 24.5855 109.606 16.6361 121.856C7.2207 136.367 2.12463 154.321 1.4898 175.221C1.39453 178.355 2.64667 181.323 5.01681 183.577C7.39764 185.842 10.5893 187.089 14.0045 187.089H57.9278C64.1263 187.089 69.4538 182.812 70.32 177.141C72.2682 164.403 80.4431 142.953 113.313 142.429C138.353 142.03 148.685 158.796 151.965 166.025C157.304 177.787 155.95 191.734 148.343 203.335C136.655 221.158 115.153 223.886 103.377 223.926C89.8342 223.972 78.8167 234.139 78.8167 246.591V290.306C78.8167 296.69 84.4319 301.884 91.3352 301.884H134.13C141.032 301.884 146.648 296.69 146.648 290.306V281.121C146.648 280.901 146.797 280.71 147.027 280.636C156.721 277.49 175.512 269.889 192.437 254.324C214.045 234.456 225 208.812 225 178.105C225 134.161 201.262 110.17 181.348 97.7821Z" fill="#29D3D3"/>
<path d="M91.171 310.337H133.948C140.848 310.337 146.461 305.309 146.461 299.127V281.255C146.461 281.042 146.61 280.857 146.839 280.786C151.895 279.196 158.97 276.28 166.974 271.73C139.643 271.553 89.8245 271.295 78.6582 271.671V299.127C78.6582 305.309 84.2715 310.337 91.171 310.337Z" fill="#17282F"/>
<path d="M126.403 112.306L98.9522 38.576C93.1552 20.1149 76.7071 7.84808 56.9148 13.7194L55.1202 14.3596C37.0584 20.8145 27.3747 39.0111 32.8781 56.181C37.9994 72.1559 43.8781 89.7457 47.4615 98.0177C54.8791 115.142 74.2971 110.335 74.2971 110.335C74.3399 110.322 78.6194 121.749 80.4908 126.878L90.5449 136.066L94.698 131.87L126.403 112.306Z" fill="#F9A78D"/>
<path d="M74.2971 110.335C74.2971 110.335 86.2897 106.782 95.7537 95.0568C95.7537 95.0568 95.3299 110.074 76.1189 115.159L74.2971 110.335Z" fill="#F57F62"/>
<path d="M46.3095 67.8239C46.8004 69.1394 48.4113 69.838 49.9065 69.3875C51.3978 68.938 52.2115 67.5092 51.7186 66.1938C51.2267 64.8784 49.6168 64.1779 48.1245 64.6275C46.6293 65.078 45.8166 66.5085 46.3095 67.8239Z" fill="#17282F"/>
<path d="M39.7026 61.5327C40.1654 61.735 41.6023 59.6382 44.4643 58.624C47.3069 57.572 49.9736 58.1825 50.1485 57.7482C50.2409 57.5504 49.6634 57.0918 48.493 56.8032C47.338 56.5119 45.5551 56.4643 43.777 57.108C42.0008 57.7536 40.7555 58.8946 40.1537 59.8225C39.5354 60.7612 39.48 61.4473 39.7026 61.5327Z" fill="#17282F"/>
<path d="M70.212 59.0582C70.6767 59.2606 72.1165 57.1638 74.9766 56.1496C77.8183 55.0985 80.4849 55.709 80.6599 55.2738C80.7522 55.076 80.1787 54.6174 79.0043 54.3297C77.8494 54.0375 76.0674 53.9907 74.2883 54.6336C72.5122 55.2792 71.2678 56.4211 70.6651 57.3481C70.0487 58.2859 69.9914 58.9728 70.212 59.0582Z" fill="#17282F"/>
<path d="M66.2136 76.1139C66.164 75.9584 64.2683 76.309 61.2468 76.9978C60.4875 77.1893 59.7409 77.3026 59.4249 76.8854C59.0497 76.4592 59.0507 75.6221 59.0769 74.7095C59.0808 72.8303 59.0837 70.8612 59.0876 68.7968C59.0283 60.4052 58.6842 53.6113 58.3186 53.6158C57.9531 53.6212 57.7052 60.4267 57.7655 68.8184C57.7975 70.8819 57.8257 72.8483 57.8578 74.7293C57.9025 75.596 57.7907 76.6354 58.586 77.5148C58.9933 77.9491 59.6826 78.1235 60.1978 78.0731C60.7218 78.0381 61.136 77.8987 61.5054 77.7899C64.4627 76.898 66.2651 76.2677 66.2136 76.1139Z" fill="#17282F"/>
<path d="M63.6023 44.1911C64.2722 44.7279 66.7502 43.0267 70.0993 41.7526C73.4212 40.4165 76.466 39.9562 76.5175 39.1389C76.5282 38.7531 75.7048 38.3485 74.2874 38.2271C72.8807 38.1022 70.8877 38.3216 68.887 39.102C66.8883 39.8869 65.3309 41.0558 64.4472 42.0772C63.5547 43.1023 63.2951 43.9313 63.6023 44.1911Z" fill="#17282F"/>
<path d="M36.3234 53.8055C37.1624 54.2047 39.2525 52.7778 42.0562 51.787C44.8269 50.7206 47.4158 50.4176 47.7123 49.5985C47.8309 49.21 47.2136 48.7326 45.9439 48.5168C44.6908 48.2974 42.7883 48.4188 40.8722 49.1255C38.957 49.8331 37.4997 50.9534 36.7667 51.9065C36.0201 52.8668 35.9423 53.6005 36.3234 53.8055Z" fill="#17282F"/>
<path d="M102.449 51.0254C102.712 50.7854 113.771 42.962 118.279 54.8701C122.786 66.7783 108.929 68.5073 108.778 68.1728C108.626 67.8392 102.449 51.0254 102.449 51.0254Z" fill="#F9A78D"/>
<path d="M111.003 62.3877C111.045 62.332 111.282 62.4606 111.723 62.4983C112.151 62.5352 112.828 62.4372 113.411 61.9876C114.596 61.0858 114.986 58.7175 114.236 56.5506C113.858 55.4563 113.223 54.5041 112.484 53.7839C111.76 53.0403 110.921 52.6285 110.194 52.7382C109.457 52.8129 109.116 53.3487 109.085 53.7354C109.039 54.1238 109.21 54.3351 109.15 54.3782C109.126 54.4187 108.798 54.2677 108.716 53.7426C108.68 53.4881 108.724 53.159 108.94 52.8326C109.161 52.5 109.57 52.2338 110.065 52.1277C111.082 51.8697 112.296 52.4253 113.108 53.2148C113.975 53.9916 114.718 55.0535 115.142 56.2817C115.967 58.7085 115.49 61.3843 113.817 62.484C112.993 62.9965 112.142 62.9884 111.646 62.8337C111.135 62.6683 110.967 62.4246 111.003 62.3877Z" fill="#F57F62"/>
<path d="M75.9313 74.9136C75.4773 75.0277 76.466 77.7764 74.6286 80.5134C72.798 83.2557 69.5199 83.9274 69.6356 84.3185C69.6569 84.5037 70.5338 84.6341 71.8832 84.2537C73.2092 83.8896 74.9825 82.9078 76.1073 81.2336C77.2252 79.5567 77.3147 77.7548 77.0084 76.5967C76.7061 75.4126 76.1286 74.8344 75.9313 74.9136Z" fill="#17282F"/>
<path d="M0.730554 47.8191C0.668336 47.0512 0.999846 46.295 1.53454 45.7061C2.7021 44.4203 4.4413 43.9744 6.07259 43.4151C10.1323 42.0241 13.8139 39.7385 16.8033 36.8442C15.3081 36.6626 13.847 36.3254 12.486 35.7248C9.67544 34.4831 7.36072 31.935 7.3335 29.0541C7.32766 28.5138 7.43945 27.9095 7.90901 27.5876C8.65466 27.0778 9.67543 27.5984 10.4872 28.0111C13.1577 29.367 15.2518 29.6404 18.0088 28.4418C19.7208 27.6973 21.2996 26.7685 22.3904 25.5098L22.4886 25.2912C22.9144 24.4344 23.3343 23.6117 23.7533 22.8114L23.7553 22.8052V22.8088C26.9041 16.7908 29.8945 12.3581 33.5722 9.36578C38.9628 4.9798 49.1074 0.608217 56.2625 0.063342C63.4186 -0.482432 71.1726 2.51528 74.4478 8.42529C77.027 4.35581 82.5508 2.58362 87.6585 2.78862L87.7528 2.70683C93.3612 2.72571 98.0461 6.67199 101.307 10.8916C101.485 11.1227 101.654 11.3601 101.828 11.5939C104.454 13.5153 107.55 14.8847 110.841 15.4655C111.421 15.568 112.093 15.7056 112.348 16.1992C112.599 16.6874 112.296 17.2602 111.96 17.7044C111.066 18.884 109.873 19.8578 108.518 20.5681C109.399 21.5365 110.347 22.4473 111.404 23.2673C112.302 23.965 113.371 24.8021 113.229 25.8793C113.12 26.711 112.257 27.3206 111.368 27.4815C110.477 27.6425 109.562 27.4546 108.679 27.2667C109.703 28.316 110.727 29.3661 111.752 30.4154C110.06 31.293 108.143 31.7677 106.205 31.8468C106.821 36.5862 109.126 44.9841 109.036 48.3612C105.643 49.5292 104.682 49.4564 103.161 50.5461C101.193 51.956 103.433 55.3268 100.138 55.236C98.4612 55.1884 94.2245 50.7529 93.1999 49.5238C86.4074 41.3642 81.5533 31.8342 79.0617 21.7981C76.223 20.4359 73.0984 19.5844 69.9146 19.3066L70.2092 19.4199C64.3042 19.4442 57.7198 19.7211 53.5988 23.6315C50.4013 26.666 49.541 31.123 47.7755 35.0316C44.4303 42.4395 39.3624 47.463 31.308 50.4535C32.5718 55.9472 35.6264 64.6104 37.2168 69.6033L28.9515 61.2656L28.9641 61.307C28.3789 60.8511 27.8559 60.3692 27.3435 59.8836L27.1763 59.7407L27.1676 59.7182C26.349 58.9369 25.5518 58.1465 24.6147 57.4155L24.5797 57.474C22.6003 60.7531 17.0036 58.5493 18.1809 54.9546C18.4132 54.2416 18.7584 53.5618 19.2143 52.9441C18.3364 54.5122 16.5875 55.6964 14.6792 55.7674C12.7718 55.8393 10.8236 54.6642 10.3404 52.9549C10.0108 51.7887 10.5008 50.4913 11.436 49.683C9.17866 50.6046 6.62867 50.9103 4.2002 50.5021C2.6078 50.235 0.868602 49.5076 0.730554 47.8191Z" fill="#17282F"/>
<path d="M69.2837 12.3554C69.2632 12.413 70.2481 12.5595 71.7812 13.3382C73.3016 14.115 75.2751 15.6858 76.8743 18.1782C77.6783 19.4145 78.4317 20.8441 79.0422 22.4482C79.6605 24.0496 80.1758 25.8119 80.7319 27.6659C81.2947 29.5163 81.8839 31.4746 82.7666 33.423C83.208 34.395 83.7222 35.3634 84.3396 36.2976C84.954 37.212 85.6461 38.1974 86.7816 38.7864C87.6916 39.2719 88.8873 39.2288 89.7535 38.7468C90.6363 38.2865 91.2964 37.5501 91.6687 36.7184C92.3823 35.0154 92.0527 33.2585 91.7961 31.6985L91.4179 31.872C92.5641 32.9753 93.7219 34.0569 95.0995 34.7735C96.4624 35.5018 98.0626 35.7554 99.4655 35.4245C100.164 35.2609 100.809 34.9381 101.287 34.4777C101.778 34.0174 102.036 33.4221 102.149 32.8458C102.244 32.265 102.187 31.6805 101.96 31.1716C101.731 30.6654 101.326 30.2464 100.839 30.0144L100.702 30.2446C102.737 31.3011 104.583 31.623 105.817 31.7327C106.439 31.7866 106.919 31.783 107.242 31.7749C107.565 31.7596 107.731 31.7434 107.731 31.7318C107.73 31.7183 107.563 31.7111 107.242 31.7021C106.921 31.6877 106.446 31.6679 105.834 31.5924C104.62 31.4414 102.815 31.0817 100.844 30.0171L100.707 30.2473C101.578 30.6618 102.029 31.7399 101.818 32.7936C101.708 33.316 101.467 33.8501 101.031 34.2467C100.602 34.6504 100.013 34.9408 99.3721 35.0847C98.0801 35.3769 96.5859 35.1368 95.3036 34.44C94 33.7512 92.8771 32.6966 91.7377 31.5879L91.2546 31.1186L91.3586 31.7614C91.6143 33.3196 91.8991 35.0172 91.2429 36.5556C90.9104 37.301 90.3018 37.97 89.529 38.3701C88.76 38.7873 87.7937 38.8188 87.0033 38.4069C86.0146 37.8989 85.337 36.9737 84.7343 36.0719C84.1315 35.162 83.625 34.2143 83.1885 33.2594C82.3136 31.3452 81.7196 29.403 81.147 27.5571C80.5783 25.7085 80.0484 23.9426 79.4058 22.3251C78.772 20.7066 77.9903 19.2635 77.1553 18.0182C75.4948 15.5069 73.4426 13.9334 71.8686 13.1907C70.2801 12.4444 69.2837 12.3554 69.2837 12.3554Z" fill="#33535F"/>
<path d="M17.4858 48.2857C17.4838 48.292 17.55 48.3163 17.6822 48.355C17.8426 48.3999 18.036 48.4539 18.2732 48.5195C18.5338 48.595 18.8585 48.676 19.2512 48.7326C19.6421 48.7991 20.0931 48.8882 20.6094 48.9169C22.6509 49.1156 25.7472 48.9655 29.1809 47.6312C32.5845 46.3193 36.3205 43.8224 39.0669 40.0461C41.8754 36.3183 43.7731 31.5564 44.8648 26.4566C45.4316 23.9012 45.7233 21.3756 46.1938 18.9785C46.6556 16.5823 47.3011 14.2949 48.3812 12.3051C49.4389 10.3126 50.903 8.61866 52.647 7.49115C53.5093 6.91121 54.4582 6.53537 55.3924 6.25304C56.3383 5.99589 57.2842 5.88349 58.1893 5.86551C60.0044 5.84033 61.6298 6.24225 62.9481 6.77184C64.2731 7.30773 65.2881 7.99915 66.0444 8.62854C67.5114 9.95027 67.9499 10.9627 68.0111 10.9231C68.0189 10.9195 67.9907 10.8602 67.9265 10.7451C67.8478 10.6084 67.7515 10.4439 67.6349 10.2416C67.3646 9.80461 66.8902 9.19949 66.1708 8.50715C65.4203 7.84719 64.4005 7.12069 63.055 6.55154C61.7163 5.98868 60.0568 5.55352 58.1864 5.55981C57.2541 5.5688 56.2751 5.67577 55.2913 5.93382C54.3201 6.21525 53.3227 6.6046 52.4263 7.19713C50.6084 8.35252 49.0889 10.0941 47.9971 12.127C46.8801 14.1609 46.2142 16.4897 45.7437 18.903C45.2644 21.3198 44.9689 23.8401 44.407 26.372C43.324 31.4333 41.4584 36.1384 38.712 39.8204C36.0259 43.5518 32.39 46.0181 29.0516 47.3506C25.6889 48.6984 22.648 48.8945 20.6259 48.7488C18.5843 48.5968 17.5013 48.2246 17.4858 48.2857Z" fill="#33535F"/>
<path d="M12.8564 41.1906C12.8505 41.2203 13.149 41.2958 13.6973 41.4055C14.2436 41.526 15.0525 41.6303 16.0548 41.6933C17.059 41.7652 18.2616 41.7454 19.5876 41.6231C20.9107 41.4802 22.3554 41.2239 23.8253 40.8004C25.2913 40.3625 26.6329 39.8042 27.8044 39.2171C28.9641 38.6092 29.9596 37.9861 30.7364 37.3936C31.5161 36.8065 32.112 36.2913 32.4844 35.9019C32.8645 35.5198 33.0618 35.2995 33.0385 35.2788C32.9753 35.2222 32.1237 36.0557 30.5342 37.1508C29.7448 37.7047 28.7474 38.2909 27.5992 38.8664C26.4394 39.4238 25.1202 39.9597 23.6843 40.3895C22.2436 40.8031 20.832 41.0666 19.538 41.2284C18.2402 41.3687 17.059 41.4199 16.0694 41.3894C14.0881 41.3399 12.8719 41.1115 12.8564 41.1906Z" fill="#33535F"/>
<path d="M48.1158 165.827C47.9476 165.872 50.1515 176.079 52.3087 186.666H52.9912C50.8329 176.079 48.2839 165.783 48.1158 165.827Z" fill="#17282F"/>
<path d="M57.4291 187.179C63.6684 187.179 69.412 183.021 70.284 177.358C72.2449 164.637 80.0932 143.106 113.18 142.582C138.384 142.185 148.993 158.686 151.965 166.025C156.683 177.676 156.098 191.816 148.44 203.4C136.675 221.196 115.032 223.921 103.178 223.96C89.5465 224.006 78.456 234.16 78.456 246.594V294.124L146.734 292.937V281.073C146.734 280.853 146.884 280.662 147.115 280.589C155.432 277.911 168.619 272.835 183.456 261.77L179.011 207.031C179.011 207.031 192.005 183.933 191.361 178.736C185.478 131.258 168.019 104.394 160.924 101.889C152.957 99.0752 122.198 100.445 122.198 100.445C122.198 100.445 108.913 123.211 90.2756 125.733C79.9055 127.135 76.1189 115.159 76.1189 115.159L52.0307 128.221C34.8866 136.218 31.5598 167.335 31.2448 187.179H57.4291Z" fill="#33535F"/>
<path d="M126.67 220.019C126.664 220.008 126.657 219.996 126.651 219.984C126.651 219.984 128.21 219.391 129.99 218.619C129.999 218.631 130.009 218.644 130.019 218.656C128.907 219.155 127.79 219.608 126.67 220.019ZM130.532 218.423C130.523 218.413 130.515 218.403 130.508 218.392C131.128 218.118 131.759 217.826 132.347 217.535C132.386 217.516 132.426 217.497 132.465 217.477C131.824 217.809 131.179 218.123 130.532 218.423Z" fill="#A7A9A8"/>
<path d="M130.019 218.656C130.009 218.644 129.999 218.631 129.99 218.619C130.068 218.585 130.148 218.55 130.228 218.516C130.236 218.528 130.245 218.538 130.254 218.55C130.176 218.585 130.097 218.621 130.019 218.656Z" fill="#979999"/>
<path d="M130.254 218.55C130.245 218.538 130.236 218.528 130.228 218.516C130.32 218.475 130.413 218.433 130.508 218.392C130.515 218.403 130.523 218.413 130.532 218.422C130.44 218.465 130.346 218.508 130.254 218.55Z" fill="#979999"/>
<path d="M180.925 230.603L180.651 227.228C181.33 228.172 181.241 229.447 180.925 230.603ZM126.681 220.039C126.677 220.033 126.673 220.026 126.671 220.019C127.79 219.608 128.907 219.154 130.019 218.656C130.097 218.621 130.176 218.585 130.254 218.55C130.346 218.508 130.44 218.465 130.532 218.423C131.179 218.123 131.824 217.808 132.465 217.477C134.706 216.358 136.556 215.144 136.556 215.144C136.557 215.145 136.558 215.145 136.559 215.145C133.388 217.211 130.043 218.808 126.681 220.039Z" fill="#CC4341"/>
<path d="M160.952 247.07C156.88 247.07 152.978 245.291 149.515 243.248C139.966 237.611 131.814 229.38 126.681 220.039C130.043 218.808 133.388 217.211 136.559 215.145C150.321 218.386 163.889 222.485 177.651 225.725C178.672 225.965 179.759 226.242 180.448 226.98C180.523 227.06 180.59 227.142 180.651 227.228L180.925 230.603C180.88 230.766 180.832 230.927 180.779 231.084C179.332 235.459 176.21 239.242 172.492 242.262C169.498 244.694 165.911 246.747 161.937 247.035C161.607 247.058 161.279 247.07 160.952 247.07Z" fill="#20353D"/>
<path d="M151.684 166.355C157.187 178.099 155.792 192.027 147.949 203.61C143.597 210.039 138.055 214.629 132.012 217.708C138.522 224.257 145.129 230.027 151.662 234.315C158.692 238.928 174.893 237.616 181.036 227.516C188.616 215.053 189.249 183.217 189.249 183.217C190.688 164.024 190.688 164.024 190.688 164.024L148.304 158.02L147.965 159.095C149.784 161.616 150.855 164.585 151.684 166.355Z" fill="#F9A78D"/>
<path d="M77.8825 158.288L75.4686 161.807C73.6351 162.977 71.8881 162.335 70.7555 160.16L44.6646 123.43L51.0206 119.691L79.8375 154.914C79.8375 154.914 80.2429 156.782 77.8825 158.288Z" fill="#33535F"/>
<path d="M45.2547 77.6281C37.9022 73.7906 28.726 73.1666 20.5015 76.6957C13.9355 79.5136 8.94827 84.5281 6.45953 90.8148C3.97079 97.1016 4.27799 103.909 7.32475 109.982C10.3715 116.055 15.7933 120.667 22.5906 122.969C29.388 125.271 36.7483 124.986 43.3143 122.168C49.8803 119.351 54.8675 114.336 57.3562 108.049C59.8449 101.763 59.5377 94.9553 56.49 88.8826C54.0178 83.9526 50.0193 80.1151 45.2547 77.6281ZM17.6034 122.801C12.4957 120.135 8.21137 116.023 5.56028 110.739C2.29478 104.23 1.96521 96.9343 4.63283 90.1971C7.30045 83.4581 12.6444 78.0849 19.6829 75.0647C34.2099 68.8292 51.5135 74.6889 58.2554 88.1255C61.52 94.6343 61.8495 101.93 59.1819 108.668C56.5153 115.406 51.1713 120.779 44.1328 123.8C35.3192 127.582 25.4809 126.913 17.6034 122.801Z" fill="#17282F"/>
<path d="M46.4913 76.5015C39.1398 72.664 29.9625 72.04 21.738 75.5691C15.172 78.387 10.1848 83.4014 7.6961 89.6882C5.20736 95.9749 5.51554 102.781 8.5623 108.854C11.6091 114.928 17.0298 119.54 23.8282 121.841C30.6246 124.143 37.9848 123.859 44.5508 121.041C51.1178 118.223 56.104 113.209 58.5928 106.922C61.0815 100.635 60.7743 93.8287 57.7275 87.7559C55.2544 82.826 51.2558 78.9885 46.4913 76.5015ZM18.84 121.674C13.7323 119.008 9.44891 114.896 6.79685 109.611C3.53232 103.103 3.20276 95.8077 5.8694 89.0696C8.53702 82.3315 13.882 76.9573 20.9195 73.9371C35.4465 67.7025 52.75 73.5622 59.492 86.9989C62.7565 93.5077 63.0861 100.803 60.4195 107.54C57.7518 114.279 52.4079 119.653 45.3704 122.673C36.5558 126.455 26.7184 125.786 18.84 121.674Z" fill="#33535F"/>
<path d="M57.3017 98.6813C57.2911 98.6813 57.2813 98.5293 57.2726 98.2398C57.2492 97.9521 57.2862 97.525 57.2172 96.9801C57.1511 95.8886 56.8857 94.3115 56.2547 92.4467C55.9446 91.5125 55.5042 90.5198 54.9831 89.4777C54.4183 88.4554 53.799 87.3657 52.996 86.3065C52.2134 85.2383 51.3142 84.1621 50.2681 83.1425C49.2299 82.1183 48.0798 81.1167 46.782 80.2346C45.4909 79.3454 44.1328 78.6045 42.7611 78.0021C41.3826 77.4132 39.9924 76.9753 38.6449 76.6399C35.9365 76.0096 33.4001 75.8352 31.2915 75.9503C29.18 76.0582 27.4894 76.3657 26.35 76.6588C25.7706 76.7793 25.3428 76.9384 25.0395 77.0112C24.7401 77.094 24.5807 77.1335 24.5777 77.1236C24.5739 77.1146 24.7255 77.0571 25.0191 76.9564C25.3156 76.8656 25.7404 76.6885 26.3169 76.5509C27.4524 76.2227 29.1498 75.8819 31.2789 75.7471C33.405 75.605 35.9705 75.7588 38.7159 76.3827C40.0808 76.7154 41.4905 77.1533 42.8894 77.7468C44.2806 78.3528 45.6601 79.1026 46.9686 80.0036C48.283 80.8982 49.4447 81.9124 50.4917 82.95C51.5456 83.984 52.4497 85.0747 53.2342 86.159C54.0382 87.2326 54.6565 88.3376 55.2165 89.3752C55.7327 90.4326 56.1653 91.4387 56.4647 92.3864C57.0752 94.2773 57.3086 95.8724 57.3377 96.9738C57.3892 97.5232 57.3319 97.9521 57.3348 98.2416C57.3241 98.5311 57.3124 98.6822 57.3017 98.6813Z" fill="white"/>
<path d="M26.9936 120.549C27.0149 120.483 28.341 120.939 30.5779 121.222C30.8589 121.253 31.1525 121.286 31.4558 121.32C31.762 121.351 32.0828 121.352 32.4134 121.371C33.0744 121.42 33.7831 121.388 34.5269 121.375C36.0133 121.293 37.6407 121.085 39.3031 120.681C40.9616 120.257 42.4821 119.681 43.812 119.061C44.4624 118.727 45.0923 118.425 45.6367 118.076C45.9128 117.905 46.1899 117.756 46.4368 117.586C46.6818 117.416 46.9171 117.251 47.1436 117.094C48.9236 115.809 49.8219 114.799 49.8764 114.846C49.8919 114.859 49.6664 115.108 49.2435 115.546C49.0354 115.77 48.771 116.035 48.4327 116.313C48.0992 116.595 47.7386 116.938 47.2797 117.253C47.0551 117.417 46.8208 117.588 46.5778 117.766C46.3318 117.943 46.0548 118.098 45.7787 118.274C45.2333 118.638 44.6004 118.95 43.9442 119.296C42.6046 119.937 41.0656 120.529 39.3848 120.959C37.698 121.368 36.0463 121.571 34.5395 121.64C33.7851 121.646 33.0686 121.669 32.3998 121.609C32.0653 121.585 31.7406 121.579 31.4325 121.541C31.1253 121.5 30.8297 121.461 30.5458 121.423C29.9791 121.365 29.4803 121.235 29.039 121.147C28.5957 121.063 28.2233 120.957 27.922 120.86C27.3173 120.678 26.9868 120.568 26.9936 120.549Z" fill="white"/>
<path d="M46.9783 103.344C46.9161 103.4 43.1305 99.8942 38.5225 95.5163C33.9134 91.1366 30.228 87.5428 30.2902 87.4871C30.3514 87.4322 34.137 90.9361 38.7461 95.3158C43.3532 99.6937 47.0396 103.288 46.9783 103.344Z" fill="white"/>
<path d="M42.5083 110.38C42.4996 110.386 42.4053 110.301 42.2323 110.131C42.0398 109.938 41.7928 109.688 41.4876 109.38C40.8216 108.696 39.9039 107.751 38.7801 106.595C36.4975 104.24 33.334 100.995 29.7983 97.4468C26.2606 93.8988 23.0203 90.7195 20.6677 88.424C19.5128 87.2938 18.5688 86.3713 17.8844 85.7023C17.5772 85.3957 17.3293 85.1475 17.1368 84.9551C16.9677 84.7816 16.8831 84.6872 16.8909 84.68C16.8986 84.6737 16.9978 84.7537 17.1815 84.9138C17.3857 85.0972 17.6472 85.3327 17.9719 85.6241C18.6534 86.2445 19.6294 87.1526 20.8262 88.2828C23.2196 90.5423 26.4871 93.7019 30.0267 97.2517C33.5644 100.801 36.7036 104.07 38.9454 106.46C40.0663 107.655 40.9655 108.628 41.579 109.307C41.8658 109.629 42.0981 109.89 42.2799 110.093C42.4374 110.275 42.5161 110.374 42.5083 110.38Z" fill="white"/>
<path d="M33.4575 103.06L12.5433 82.0005C12.5433 82.0005 12.5443 81.9996 12.5472 81.996C12.5812 81.9592 12.6153 81.9232 12.6493 81.8864C12.8495 81.6742 13.3269 81.1877 14.02 80.5871C15.2994 79.5513 16.6906 78.6243 18.1799 77.8187C23.9419 85.0621 30.0471 92.7209 36.4313 100.718C35.8558 101.151 35.2871 101.591 34.7252 102.036C33.2835 100.546 31.6998 98.9303 30.0267 97.2516C26.4871 93.7019 23.2196 90.5423 20.8262 88.2828C19.6294 87.1526 18.6534 86.2444 17.9719 85.624C17.6472 85.3327 17.3857 85.0972 17.1815 84.9137C17.0055 84.76 16.9064 84.6799 16.8918 84.6799C16.8908 84.6799 16.8908 84.6799 16.8908 84.6799C16.8831 84.6871 16.9676 84.7816 17.1368 84.9551C17.3293 85.1475 17.5772 85.3957 17.8844 85.7023C18.5688 86.3712 19.5128 87.2937 20.6677 88.424C23.0203 90.7194 26.2606 93.8988 29.7983 97.4467C31.4684 99.1236 33.056 100.731 34.5065 102.21C34.1545 102.491 33.8036 102.775 33.4575 103.06ZM37.3316 100.049C32.1849 93.4942 27.2094 87.167 22.4458 81.1167L39.6511 98.4034C38.8666 98.942 38.0937 99.4896 37.3316 100.049Z" fill="white"/>
<path d="M36.4313 100.718C30.0471 92.7209 23.9419 85.0621 18.1799 77.8186C18.3918 77.7035 18.6057 77.5911 18.8215 77.4823C18.8225 77.4814 18.8244 77.4806 18.8254 77.4797L22.4458 81.1167C27.2094 87.1669 32.1849 93.4941 37.3315 100.049C37.0302 100.27 36.7298 100.493 36.4313 100.718Z" fill="#EEEEEC"/>
<path d="M48.9567 118.667L47.4401 117.14C47.8241 116.857 48.1391 116.561 48.4327 116.313C48.771 116.035 49.0354 115.77 49.2435 115.546C49.6664 115.108 49.8919 114.859 49.8764 114.846C49.8754 114.845 49.8734 114.845 49.8715 114.845C49.784 114.845 48.9334 115.783 47.2894 116.988L33.4575 103.06C33.8036 102.775 34.1545 102.491 34.5065 102.21C36.1261 103.862 37.5756 105.352 38.7801 106.595C39.9039 107.751 40.8216 108.696 41.4876 109.38C41.7928 109.688 42.0398 109.938 42.2322 110.131C42.3995 110.295 42.4928 110.381 42.5064 110.381C42.5074 110.381 42.5074 110.38 42.5083 110.38C42.5161 110.374 42.4374 110.275 42.2799 110.093C42.0981 109.89 41.8657 109.629 41.579 109.307C40.9655 108.628 40.0663 107.655 38.9453 106.46C37.7632 105.2 36.3332 103.697 34.7252 102.036C35.2871 101.591 35.8558 101.151 36.4313 100.718C36.7298 100.493 37.0302 100.27 37.3316 100.049C38.0937 99.4896 38.8666 98.942 39.6511 98.4035L54.4873 113.308C54.4873 113.308 52.1687 116.309 49.783 118.101C49.5293 118.282 49.2717 118.46 49.0092 118.635C48.9917 118.646 48.9742 118.656 48.9567 118.667Z" fill="#29D3D3"/>
<path d="M14.02 80.5871C15.1419 79.6169 16.8276 78.3527 18.8216 77.4824C18.6057 77.5912 18.3919 77.7036 18.1799 77.8187C16.6906 78.6243 15.2994 79.5513 14.02 80.5871Z" fill="#57666B"/>
<path d="M49.0092 118.635C49.2717 118.46 49.5293 118.282 49.783 118.101C49.5254 118.295 49.2658 118.475 49.0092 118.635ZM12.5472 81.9961C12.5579 81.9844 12.5929 81.9466 12.6493 81.8864C12.6153 81.9233 12.5812 81.9592 12.5472 81.9961Z" fill="#6A858C"/>
<path d="M47.4401 117.14L47.2894 116.988C48.9334 115.783 49.784 114.845 49.8715 114.845C49.8734 114.845 49.8754 114.845 49.8764 114.846C49.8919 114.859 49.6664 115.107 49.2435 115.546C49.0354 115.77 48.771 116.035 48.4327 116.313C48.1391 116.561 47.8241 116.857 47.4401 117.14Z" fill="white"/>
<path d="M42.5064 110.381C42.4928 110.381 42.3995 110.295 42.2323 110.131C42.0398 109.938 41.7928 109.689 41.4876 109.38C40.8216 108.696 39.9039 107.751 38.7801 106.595C37.5756 105.352 36.1261 103.862 34.5065 102.21C33.056 100.731 31.4685 99.1237 29.7983 97.4468C26.2606 93.8988 23.0203 90.7195 20.6677 88.424C19.5128 87.2938 18.5688 86.3713 17.8844 85.7023C17.5772 85.3957 17.3293 85.1476 17.1368 84.9551C16.9677 84.7816 16.8831 84.6872 16.8909 84.68C16.8909 84.68 16.8909 84.68 16.8918 84.68C16.9064 84.68 17.0056 84.76 17.1815 84.9138C17.3857 85.0972 17.6472 85.3328 17.9719 85.6241C18.6534 86.2445 19.6294 87.1526 20.8262 88.2828C23.2196 90.5424 26.4871 93.7019 30.0267 97.2517C31.6998 98.9304 33.2835 100.546 34.7252 102.036C36.3332 103.697 37.7632 105.2 38.9454 106.46C40.0663 107.655 40.9655 108.628 41.579 109.307C41.8658 109.629 42.0981 109.89 42.2799 110.093C42.4374 110.275 42.5161 110.374 42.5083 110.38C42.5074 110.38 42.5074 110.381 42.5064 110.381Z" fill="white"/>
<path d="M42.4607 121.769L41.1279 120.441C41.8405 120.201 42.519 119.935 43.1587 119.655L44.5509 121.041C44.0842 121.241 43.6127 121.429 43.1373 121.604C42.94 121.655 42.7154 121.71 42.4607 121.769Z" fill="#F57E87"/>
<path d="M28.3089 107.664L8.48647 87.9052C8.48647 87.9052 8.48647 87.9043 8.48647 87.9034C8.7645 87.3378 9.06296 86.7839 9.3828 86.2427C9.41293 86.2067 9.44404 86.1698 9.47709 86.133L29.7438 106.303C29.2597 106.752 28.7804 107.205 28.3089 107.664Z" fill="white"/>
<path d="M40.9004 120.215L28.3089 107.664C28.7804 107.205 29.2597 106.752 29.7438 106.303L42.9477 119.445C42.3012 119.719 41.6168 119.979 40.9004 120.215Z" fill="#29D3D3"/>
<path d="M43.1373 121.604C43.6127 121.429 44.0842 121.241 44.5508 121.041C44.5508 121.041 44.8114 121.172 43.1373 121.604ZM8.48647 87.9034C8.49424 87.8656 8.66826 87.1005 9.3828 86.2427C9.06296 86.784 8.7645 87.3378 8.48647 87.9034Z" fill="#6A858C"/>
<path d="M41.1279 120.441L40.9004 120.215C41.6168 119.979 42.3013 119.719 42.9477 119.445L43.1587 119.655C42.519 119.935 41.8405 120.201 41.1279 120.441Z" fill="white"/>
<path d="M101.804 143.728C94.3139 138.164 75.9537 124.556 75.1147 124.192C74.0589 123.736 57.9006 118.426 54.8062 120.132C51.7108 121.838 43.4115 131.472 43.4115 131.472C43.4115 131.472 44.1999 137.464 51.4386 133.176C56.9615 129.905 57.8179 129.397 57.9142 129.34L57.9035 129.346L65.5982 131.009C65.5982 131.009 56.2129 134.634 54.2277 136.54C52.2426 138.446 49.1035 145.745 51.0614 147.425C53.0193 149.106 55.2932 149.249 55.2932 149.249C55.2932 149.249 51.4182 154.339 58.2914 157.411C58.2914 157.411 59.2947 161.689 62.6846 163.365C66.0755 165.042 72.3907 164.448 72.3907 164.448C72.3907 164.448 75.3198 162.846 73.1441 160.19C70.9684 157.534 66.9553 157.167 66.9553 157.167L71.9299 154.483C71.9299 154.483 74.5178 155.216 78.352 157.955C78.352 157.955 82.8939 152.577 87.4291 149.538C92.5193 146.126 101.804 143.728 101.804 143.728Z" fill="#F9A78D"/>
<path d="M69.9583 145.988C69.9564 145.968 69.6929 145.971 69.2205 146.028C68.748 146.084 68.0684 146.209 67.2547 146.45C65.6341 146.919 63.4604 147.958 61.6784 149.75C59.8955 151.544 58.9573 153.635 58.5869 155.168C58.3964 155.937 58.3176 156.574 58.2972 157.013C58.2758 157.454 58.2933 157.698 58.3157 157.698C58.3857 157.703 58.4003 156.726 58.8397 155.226C59.2665 153.736 60.2172 151.722 61.9487 149.981C63.6801 148.241 65.7702 147.196 67.3393 146.677C68.9181 146.147 69.97 146.051 69.9583 145.988Z" fill="#F57F62"/>
<path d="M70.2899 138.243C70.2869 138.22 70.0069 138.24 69.5005 138.295C69.2467 138.32 68.9376 138.358 68.5847 138.434C68.2308 138.506 67.8225 138.569 67.387 138.697C66.5042 138.913 65.4815 139.266 64.3879 139.742C63.3039 140.237 62.1558 140.867 61.0446 141.649C59.9421 142.444 58.9904 143.31 58.1961 144.152C57.4184 145.009 56.7884 145.834 56.3374 146.568C56.0924 146.924 55.9222 147.274 55.757 147.572C55.5878 147.868 55.4682 148.135 55.3778 148.356C55.1902 148.794 55.0988 149.039 55.1222 149.048C55.1892 149.075 55.6014 148.104 56.56 146.693C57.0325 145.985 57.6741 145.188 58.4518 144.358C59.2461 143.542 60.1871 142.699 61.2682 141.919C62.3599 141.151 63.6159 140.287 64.6717 139.784C65.7382 139.301 66.5995 139.169 67.4609 138.927C69.1806 138.43 70.3006 138.311 70.2899 138.243Z" fill="#F57F62"/>
<path d="M71.6946 129.349C71.7053 129.312 71.3165 129.174 70.6496 129.132C69.9865 129.088 69.0445 129.184 68.0996 129.553C66.8212 130.058 66.3711 130.552 66.0016 130.958C65.571 131.43 65.4096 131.786 65.4456 131.804C65.5311 131.876 66.4236 130.561 68.2434 129.866C70.0468 129.137 71.6907 129.455 71.6946 129.349Z" fill="#F57F62"/>
<path d="M157.935 101.172C157.935 101.172 181.647 103.276 189.174 122.328C195.148 137.451 198.395 182.756 196.898 183.679L155.034 182.44C154.484 171.392 151.267 162.875 146.758 157.363L157.935 101.172Z" fill="#33535F"/>
<path d="M155.675 182.441C155.695 182.414 155.986 182.566 156.496 182.864C157.01 183.159 157.73 183.617 158.598 184.211C160.338 185.392 162.642 187.16 164.969 189.322C167.298 191.483 169.207 193.612 170.515 195.198C171.168 195.992 171.68 196.646 172.014 197.111C172.35 197.574 172.524 197.839 172.495 197.858C172.433 197.901 171.608 196.933 170.235 195.404C168.86 193.877 166.923 191.797 164.61 189.653C162.301 187.507 160.055 185.715 158.38 184.472C156.706 183.228 155.63 182.501 155.675 182.441Z" fill="#F57F62"/>
<path d="M150.689 135.839C150.827 135.86 150.059 140.696 148.973 146.639C147.887 152.584 146.895 157.385 146.758 157.363C146.62 157.342 147.388 152.507 148.474 146.562C149.559 140.619 150.552 135.817 150.689 135.839Z" fill="#17282F"/>
<path d="M98.0024 271.701C98.0014 271.685 98.2406 271.651 98.6984 271.604C99.2059 271.556 99.8709 271.494 100.699 271.417C102.496 271.259 104.996 271.041 108.062 270.772C114.278 270.221 122.858 269.392 132.308 268.288C141.762 267.18 150.295 266.006 156.463 265.11C159.505 264.663 161.986 264.299 163.767 264.038C164.592 263.922 165.252 263.829 165.756 263.759C166.211 263.699 166.452 263.676 166.455 263.692C166.458 263.708 166.224 263.762 165.774 263.851C165.274 263.944 164.619 264.066 163.801 264.217C162.087 264.528 159.601 264.946 156.522 265.436C150.365 266.417 141.833 267.644 132.372 268.752C122.913 269.857 114.321 270.634 108.094 271.102C104.981 271.337 102.459 271.505 100.715 271.598C99.8825 271.64 99.2147 271.672 98.7062 271.697C98.2464 271.715 98.0043 271.717 98.0024 271.701Z" fill="#17282F"/>
<path d="M94.3013 265.913C94.3003 265.881 94.9148 265.83 96.0269 265.768C97.2217 265.71 98.8112 265.632 100.737 265.536C104.791 265.344 110.245 265.086 116.273 264.8C122.301 264.477 127.753 264.185 131.806 263.967C133.731 263.867 135.321 263.785 136.516 263.723C137.628 263.672 138.244 263.66 138.247 263.692C138.25 263.724 137.638 263.798 136.53 263.904C135.422 264.011 133.817 264.146 131.832 264.297C127.861 264.601 122.372 264.961 116.3 265.267C110.232 265.573 104.733 265.769 100.751 265.867C98.7597 265.917 97.1478 265.944 96.0337 265.951C94.9196 265.957 94.3033 265.945 94.3013 265.913Z" fill="#17282F"/>
<path d="M27.6264 183.933C27.78 183.381 28.0308 182.864 28.3837 182.395C29.0837 181.466 30.1443 180.759 31.344 180.505C33.3389 180.084 35.5748 180.948 36.653 182.557C36.581 181.331 37.6281 180.188 38.9094 179.864C40.1897 179.54 41.1833 179.997 42.205 180.781C43.2277 181.565 43.4883 182.189 43.9034 183.356C44.9241 181.237 50.167 181.497 50.8048 183.087C50.8048 183.087 55.3166 178.519 57.6245 180.765C58.583 181.698 58.1718 183.13 57.537 184.563C56.6893 186.477 56.1312 187.276 55.023 189.384L50.7523 189.599C50.3916 190.835 49.6343 195.862 49.4748 197.135C49.3144 198.406 49.0393 199.701 48.3083 200.788C47.5772 201.875 46.3066 202.725 44.9222 202.708C43.5378 202.69 42.1749 201.593 42.2565 200.315C41.9659 201.37 41.4798 202.413 40.6379 203.176C39.795 203.938 38.5487 204.378 37.4084 204.103C36.268 203.828 35.3639 202.725 35.5953 201.655C34.0719 202.631 31.8223 201.764 30.856 200.303C29.8887 198.842 29.8653 197.026 29.9246 195.313C29.9771 193.795 30.1259 192.092 29.4794 190.655C29.3773 190.429 29.2013 190.233 29.143 189.992C29.0555 189.634 29.1139 189.229 29.0866 188.864C29.0264 188.069 28.8679 187.276 28.5724 186.525C28.5072 186.36 28.4363 186.198 28.3575 186.038C28.1504 185.612 27.8452 185.253 27.6109 184.846C27.5594 184.756 27.5146 184.668 27.503 184.567C27.4777 184.361 27.571 184.13 27.6264 183.933Z" fill="#F9A78D"/>
<path d="M22.821 181.74C21.6797 181.702 20.4363 181.92 19.6741 182.707C18.771 183.64 18.563 185.874 18.666 187.123C20.2487 187.4 21.0925 187.073 22.6752 187.349C23.0087 187.408 23.2877 187.33 23.5647 187.512C24.2939 187.991 24.1762 189.606 24.4698 190.388C24.9792 191.745 26.8584 192.408 28.3147 191.909C29.7701 191.411 30.7082 189.978 30.7821 188.543C30.856 187.108 30.1725 185.706 29.1741 184.606C27.6128 182.888 25.2456 181.82 22.821 181.74Z" fill="#F9A78D"/>
<path d="M49.7743 195.038C49.6139 195.006 50.2652 192.328 50.6764 188.995C50.8748 187.327 50.9205 185.811 50.8495 184.718C50.7882 183.624 50.6492 182.953 50.727 182.935C50.7844 182.919 51.0498 183.575 51.2063 184.688C51.3715 185.798 51.3813 187.354 51.18 189.044C50.9827 190.736 50.6405 192.242 50.3585 193.32C50.0727 194.399 49.8404 195.052 49.7743 195.038Z" fill="#F57F62"/>
<path d="M42.0669 200.793C41.996 200.779 42.1788 199.805 42.4898 198.24C42.798 196.673 43.2316 194.512 43.5612 192.109C43.8898 189.706 44.0064 187.516 43.9714 185.931C43.9461 184.346 43.8217 183.367 43.9034 183.356C43.9597 183.346 44.2115 184.316 44.3292 185.918C44.4565 187.518 44.3953 189.743 44.0628 192.167C43.7313 194.591 43.2394 196.754 42.8398 198.307C42.4383 199.861 42.1321 200.807 42.0669 200.793Z" fill="#F57F62"/>
<path d="M35.5457 201.821C35.4698 201.802 35.7391 200.727 36.0794 198.978C36.4216 197.23 36.7988 194.8 36.9602 192.096C37.1177 189.39 37.0292 186.937 36.8941 185.165C36.7609 183.391 36.6199 182.296 36.6977 182.285C36.7327 182.28 36.8066 182.549 36.9116 183.04C37.0205 183.53 37.1381 184.246 37.2509 185.134C37.4774 186.911 37.6251 189.39 37.4657 192.121C37.3024 194.852 36.8649 197.301 36.4303 199.044C36.2145 199.916 36.0123 200.615 35.847 201.092C35.6847 201.569 35.5797 201.829 35.5457 201.821Z" fill="#F57F62"/>
<path d="M26.9479 184.213C26.9702 184.166 27.5331 184.317 28.2797 184.835C29.0215 185.346 29.9169 186.267 30.4418 187.505C30.9658 188.741 31.0057 189.993 30.7286 190.838C30.4457 191.707 29.8556 192.009 29.8362 191.954C29.7788 191.902 30.2192 191.547 30.3816 190.757C30.5468 189.981 30.4574 188.822 29.9703 187.677C29.4823 186.526 28.6978 185.638 28.0493 185.09C27.4019 184.534 26.909 184.282 26.9479 184.213Z" fill="#F57F62"/>
</svg>
