<svg width="473" height="442" viewBox="0 0 473 442" fill="none" xmlns="http://www.w3.org/2000/svg">
<g clip-path="url(#clip0_1_5)">
<path d="M403.733 208.517C496.089 261.84 496.089 348.293 403.729 401.616C311.37 454.942 161.626 454.942 69.2704 401.616C-23.0888 348.293 -23.0888 261.84 69.2704 208.517C161.63 155.191 311.374 155.191 403.733 208.517Z" fill="#EAEAE9"/>
<path d="M245.225 328.161C277.074 346.548 277.074 376.362 245.225 394.749C213.376 413.137 161.74 413.137 129.89 394.749C98.0413 376.362 98.0413 346.548 129.89 328.161C161.74 309.774 213.376 309.774 245.225 328.161Z" fill="#D8D9D9"/>
<path d="M419.478 302.547L409.917 297.026C409.917 297.026 407.576 276.544 409.133 260.687C411.321 238.398 425.716 211.58 442.888 217.877C460.06 224.175 435.014 246.876 429.442 265.776C423.866 284.681 419.478 302.547 419.478 302.547Z" fill="#33BFBF"/>
<path d="M419.478 302.547L409.917 297.026C409.917 297.026 408.6 285.505 408.6 273.054C408.596 268.906 408.745 264.651 409.133 260.686C411.102 240.645 422.936 216.944 437.786 216.944C439.453 216.944 441.159 217.242 442.888 217.877C447.158 219.442 448.817 222.018 448.817 225.3C448.813 235.225 433.63 251.573 429.442 265.776C423.866 284.681 419.478 302.547 419.478 302.547Z" fill="#00AE9D"/>
<path d="M414.45 300.225H414.47C414.788 300.214 415.039 299.943 415.031 299.625C413.349 250.103 438.002 225.191 438.253 224.944C438.48 224.72 438.484 224.351 438.257 224.128C438.029 223.897 437.665 223.897 437.441 224.12C437.186 224.371 412.176 249.64 413.87 299.665C413.882 299.978 414.141 300.225 414.45 300.225Z" fill="white"/>
<path d="M425.493 305.99L418.685 302.061C418.685 302.061 417.533 288.006 424.418 270.937C430.418 256.071 445.304 243.742 452.789 246.334C460.275 248.922 460.087 254.232 456.44 259.8C452.789 265.369 430.587 278.642 425.493 305.99Z" fill="#33BFBF"/>
<path d="M421.901 304.496H421.905C422.226 304.496 422.485 304.237 422.481 303.915C422.348 272.603 451.75 251.44 452.048 251.228C452.307 251.044 452.37 250.683 452.182 250.424C452.001 250.162 451.64 250.099 451.378 250.287C451.076 250.499 421.187 272.011 421.325 303.923C421.325 304.241 421.583 304.496 421.901 304.496Z" fill="white"/>
<path d="M65.502 290.246L74.3329 284.285C74.3329 284.285 78.2189 261.149 74.6074 240.829C69.5292 212.258 49.8245 202.749 42.7936 205.737C35.7626 208.721 34.2607 217.242 47.3815 233.555C55.1183 243.178 65.2315 263.643 65.502 290.246Z" fill="#33BFBF"/>
<path d="M65.502 290.246C65.2315 263.643 55.1183 243.178 47.3815 233.555C40.3074 224.759 37.4841 218.23 37.488 213.611C37.488 209.662 39.5545 207.113 42.7936 205.737C43.6092 205.388 44.5935 205.211 45.7071 205.211C54.1968 205.211 70.1175 215.572 74.6074 240.829C75.7524 247.28 76.1445 254.013 76.1445 260.196C76.1445 273.506 74.3329 284.285 74.3329 284.285L65.502 290.246Z" fill="#00AE9D"/>
<path d="M68.5332 278.799L68.447 278.795C68.094 278.752 67.8431 278.435 67.8862 278.086C71.0743 251.185 59.7181 221.999 47.3658 210.384C47.107 210.145 47.0953 209.737 47.3384 209.482C47.5815 209.227 47.9854 209.211 48.2442 209.454C60.82 221.277 72.3918 250.938 69.1567 278.235C69.1175 278.556 68.8469 278.795 68.5332 278.799Z" fill="white"/>
<path d="M42.374 305.845C40.9701 306.688 36.8763 303.649 35.7391 302.919C33.8019 301.669 32.2138 299.88 31.1433 297.841C29.8963 295.469 29.5434 292.904 29.8688 290.25C30.0375 288.869 30.3943 287.524 30.7551 286.183C31.1041 284.866 31.457 283.548 31.806 282.231C32.155 280.929 32.504 279.588 32.3079 278.254C31.9119 275.576 29.4885 273.737 27.2886 272.157C24.8574 270.404 22.3124 268.082 22.2614 264.847C22.2261 262.349 23.4731 260.008 24.9828 258.016C26.4926 256.028 28.2964 254.26 29.6532 252.166C30.6335 250.656 31.3825 248.891 31.1864 247.107C31.0609 245.997 30.5786 244.958 30.0296 243.986C28.8454 241.903 27.3004 240.002 26.469 237.755C25.6377 235.504 25.6965 232.688 27.4298 231.034C28.8532 229.677 31.006 229.449 32.9706 229.539C34.7901 229.626 36.5782 230.41 38.186 231.265C43.3778 234.022 46.4247 240.049 51.9185 242.143C54.04 242.95 56.3457 243.088 58.5495 243.625C60.7533 244.162 63.0081 245.241 64.0629 247.248C66.1412 251.205 62.5218 256.205 64.0119 260.416C65.3295 264.149 69.0038 265.514 71.1174 268.859C72.0428 270.321 72.282 272.027 72.1722 273.753C71.984 276.678 71.5958 278.827 70.2586 282.101C69.1528 284.803 65.8706 289.999 65.8706 289.999C65.8706 289.999 42.5857 305.715 42.374 305.845Z" fill="#33BFBF"/>
<path d="M55.9418 297.524H55.9261C55.5614 297.516 55.283 297.222 55.2909 296.869C55.8555 271.455 43.3504 243.648 34.4921 235.672C34.2294 235.437 34.2098 235.033 34.445 234.767C34.6803 234.504 35.0842 234.484 35.3469 234.72C44.3856 242.856 57.1457 271.125 56.5692 296.896C56.5614 297.241 56.283 297.516 55.9418 297.524Z" fill="white"/>
<path d="M51.2597 266.561L51.0715 266.537C42.8641 264.169 32.6883 263.922 32.5863 263.922C32.2295 263.914 31.9511 263.62 31.9589 263.267C31.9667 262.914 32.2295 262.632 32.6138 262.64C32.7157 262.643 43.0563 262.894 51.4244 265.306C51.7656 265.404 51.9617 265.757 51.8636 266.098C51.7852 266.377 51.5342 266.557 51.2597 266.561Z" fill="white"/>
<path d="M322.138 179.425L323.601 178.578C323.958 178.37 324.244 178.099 324.46 177.754C324.675 177.413 324.781 176.97 324.781 176.429C324.781 175.888 324.675 175.574 324.46 175.488C324.244 175.405 323.958 175.464 323.601 175.672L322.138 176.515V179.425ZM323.648 173.829C324.409 173.386 325.001 173.323 325.424 173.633C325.844 173.939 326.056 174.629 326.056 175.691C326.056 176.758 325.844 177.695 325.424 178.499C325.001 179.307 324.409 179.927 323.648 180.37L322.138 181.24V184.483C322.138 184.589 322.111 184.695 322.06 184.801C322.013 184.911 321.95 184.981 321.883 185.02L321.119 185.46L320.938 185.452C320.887 185.401 320.864 185.326 320.864 185.216V175.829C320.864 175.723 320.887 175.613 320.938 175.507C320.989 175.401 321.048 175.327 321.119 175.288L323.648 173.829Z" fill="#F9F9F8"/>
<path d="M330.785 176.088L329.746 172.547L328.706 177.287L330.785 176.088ZM330.263 170.006C330.365 169.947 330.444 169.943 330.491 169.998C330.542 170.053 330.589 170.151 330.624 170.292L332.938 178.146L332.945 178.24C332.945 178.346 332.922 178.452 332.871 178.558C332.82 178.668 332.761 178.742 332.691 178.781L332.012 179.174C331.887 179.244 331.796 179.256 331.749 179.201L331.644 179.021L331.24 177.644L328.255 179.366L327.848 181.213C327.828 181.303 327.793 181.401 327.746 181.515C327.695 181.624 327.608 181.715 327.479 181.789L326.801 182.181L326.62 182.17C326.569 182.119 326.546 182.044 326.546 181.938L326.558 181.828L328.867 171.307C328.906 171.119 328.95 170.97 329.001 170.86C329.052 170.751 329.126 170.664 329.228 170.606L330.263 170.006Z" fill="#F9F9F8"/>
<path d="M343.047 162.481C343.47 162.237 343.843 162.112 344.16 162.1C344.482 162.088 344.753 162.151 344.964 162.288C345.18 162.43 345.341 162.622 345.451 162.873C345.56 163.124 345.623 163.39 345.635 163.661C345.643 163.775 345.619 163.884 345.564 163.986C345.509 164.088 345.447 164.163 345.38 164.202L344.717 164.582C344.611 164.645 344.533 164.661 344.478 164.629L344.333 164.457C344.235 164.273 344.094 164.143 343.902 164.073C343.709 164.006 343.427 164.08 343.047 164.296C342.886 164.394 342.729 164.508 342.58 164.649C342.431 164.786 342.302 164.939 342.196 165.104C342.082 165.269 341.996 165.441 341.933 165.625C341.87 165.806 341.839 165.99 341.839 166.174C341.839 166.398 341.87 166.559 341.929 166.665C341.988 166.774 342.09 166.837 342.231 166.857C342.372 166.876 342.56 166.861 342.792 166.814C343.027 166.767 343.313 166.704 343.662 166.618C344.039 166.527 344.364 166.488 344.639 166.496C344.913 166.508 345.137 166.582 345.309 166.719C345.482 166.861 345.611 167.057 345.694 167.319C345.78 167.582 345.823 167.908 345.823 168.308C345.823 168.743 345.76 169.182 345.635 169.629C345.509 170.076 345.329 170.5 345.098 170.9C344.862 171.3 344.58 171.676 344.235 172.029C343.898 172.378 343.517 172.676 343.094 172.919C342.741 173.123 342.408 173.252 342.086 173.307C341.764 173.362 341.478 173.335 341.231 173.233C340.984 173.131 340.784 172.947 340.631 172.684C340.482 172.421 340.396 172.084 340.376 171.668C340.372 171.554 340.396 171.449 340.447 171.347C340.502 171.241 340.561 171.17 340.631 171.131L341.294 170.751C341.4 170.688 341.478 170.668 341.537 170.696C341.596 170.719 341.639 170.778 341.678 170.872C341.721 170.974 341.776 171.068 341.839 171.158C341.902 171.249 341.988 171.311 342.094 171.347C342.204 171.382 342.337 171.382 342.498 171.355C342.659 171.323 342.855 171.241 343.094 171.104C343.286 170.994 343.466 170.868 343.643 170.719C343.819 170.574 343.972 170.413 344.105 170.237C344.235 170.057 344.345 169.872 344.427 169.672C344.509 169.476 344.549 169.264 344.549 169.041C344.549 168.829 344.505 168.68 344.419 168.594C344.329 168.512 344.196 168.472 344.015 168.476C343.839 168.484 343.615 168.519 343.349 168.586C343.086 168.653 342.78 168.715 342.435 168.782C342.121 168.845 341.843 168.868 341.608 168.845C341.372 168.817 341.176 168.735 341.023 168.594C340.87 168.449 340.753 168.241 340.678 167.97C340.604 167.7 340.565 167.343 340.565 166.908C340.565 166.472 340.627 166.033 340.753 165.594C340.878 165.151 341.051 164.739 341.274 164.351C341.494 163.959 341.757 163.602 342.062 163.277C342.368 162.951 342.698 162.684 343.047 162.481Z" fill="#F9F9F8"/>
<path d="M350.364 163.735L349.552 168.551C349.521 168.715 349.482 168.857 349.435 168.974C349.388 169.096 349.317 169.182 349.223 169.237L348.458 169.676C348.364 169.731 348.29 169.731 348.235 169.668C348.184 169.606 348.148 169.508 348.129 169.374L346.917 160.9L346.909 160.79C346.909 160.685 346.937 160.575 346.984 160.469C347.035 160.363 347.094 160.288 347.164 160.249L347.862 159.845L348.043 159.83C348.097 159.857 348.137 159.936 348.156 160.069L348.948 165.774L349.646 161.492C349.662 161.414 349.69 161.312 349.737 161.179C349.784 161.045 349.866 160.943 349.98 160.877L350.752 160.43C350.866 160.363 350.944 160.375 350.991 160.453L351.082 160.661L351.78 164.139L352.576 157.52C352.591 157.363 352.631 157.242 352.685 157.147L352.866 156.959L353.564 156.555L353.744 156.567C353.795 156.614 353.819 156.693 353.819 156.798L353.811 156.92L352.603 166.79C352.583 166.947 352.548 167.088 352.493 167.21C352.442 167.331 352.368 167.421 352.27 167.476L351.505 167.915C351.411 167.97 351.34 167.966 351.293 167.904C351.246 167.837 351.207 167.743 351.176 167.614L350.364 163.735Z" fill="#F9F9F8"/>
<path d="M229.065 32.6726C229.477 32.7628 229.794 32.9902 230.03 33.3549C230.261 33.7235 230.332 34.1078 230.241 34.5195L229.151 39.4448C229.057 39.8565 228.83 40.178 228.465 40.4094C228.1 40.6447 227.716 40.7153 227.304 40.6251L222.489 39.5585C222.077 39.4644 221.756 39.2369 221.524 38.8722C221.293 38.5076 221.218 38.1233 221.313 37.7115L222.403 32.7824C222.493 32.3746 222.72 32.053 223.085 31.8177C223.454 31.5864 223.838 31.5158 224.25 31.606L229.065 32.6726ZM233.869 0.376451C235.621 0.764664 237.276 1.38816 238.829 2.23909C240.382 3.09002 241.7 4.13702 242.774 5.37616C243.852 6.61138 244.629 8.01522 245.099 9.5916C245.574 11.1641 245.609 12.8659 245.205 14.6933C244.872 16.1873 244.35 17.4304 243.641 18.4303C242.931 19.4263 242.115 20.2812 241.194 20.9988C240.272 21.7164 239.3 22.3438 238.28 22.8771C237.261 23.4182 236.296 23.928 235.386 24.4103C234.476 24.8966 233.653 25.426 232.92 26.0063C232.182 26.5906 231.669 27.2808 231.375 28.0768C231.206 28.4689 230.963 28.7866 230.634 29.0258C230.308 29.2689 229.939 29.3434 229.528 29.2532L225.273 28.3081C224.861 28.218 224.532 27.9905 224.281 27.618C224.03 27.2494 223.967 26.8651 224.097 26.4651C224.493 25.026 225.085 23.8143 225.869 22.834C226.653 21.8536 227.524 21.0066 228.485 20.3008C229.445 19.591 230.441 18.9793 231.477 18.4656C232.508 17.9519 233.473 17.45 234.367 16.9598C235.257 16.4735 236.014 15.9559 236.645 15.4109C237.276 14.8658 237.676 14.1992 237.853 13.4149C238.163 11.9993 237.825 10.6974 236.833 9.52101C235.841 8.34069 234.355 7.53289 232.379 7.0937C229.206 6.39179 226.52 7.46231 224.328 10.3053C224.05 10.6739 223.787 10.9366 223.536 11.0974C223.285 11.2582 222.916 11.2856 222.43 11.1758L217.897 10.172C217.56 10.0975 217.297 9.92099 217.105 9.64257C216.909 9.36416 216.854 9.04261 216.936 8.66616C217.262 7.37212 217.96 6.12513 219.026 4.92913C220.093 3.73704 221.395 2.73318 222.924 1.91754C224.457 1.1019 226.171 0.533305 228.061 0.207833C229.955 -0.117638 231.888 -0.0627387 233.869 0.376451Z" fill="#33BFBF"/>
<path d="M244.413 69.3998C244.699 69.3567 244.966 69.4194 245.209 69.592C245.452 69.7684 245.593 69.9998 245.64 70.2821L246.205 73.7212C246.252 74.0074 246.186 74.2741 246.013 74.5172C245.837 74.7603 245.605 74.9015 245.323 74.9485L241.962 75.4975C241.676 75.5446 241.409 75.4818 241.166 75.3093C240.923 75.1328 240.782 74.9015 240.735 74.6152L240.17 71.1762C240.127 70.8939 240.19 70.6272 240.362 70.3841C240.539 70.141 240.77 69.9959 241.056 69.9488L244.413 69.3998ZM239.225 47.4678C240.449 47.2678 241.668 47.2404 242.884 47.3933C244.095 47.5423 245.209 47.8717 246.217 48.3893C247.225 48.9069 248.08 49.6088 248.785 50.499C249.491 51.3852 249.95 52.4675 250.158 53.7419C250.326 54.785 250.315 55.7183 250.115 56.5379C249.915 57.3613 249.609 58.1182 249.201 58.8122C248.793 59.5063 248.334 60.1572 247.817 60.7651C247.299 61.3689 246.813 61.9454 246.354 62.4865C245.891 63.0316 245.503 63.5845 245.178 64.1452C244.856 64.7021 244.703 65.2785 244.719 65.8628C244.715 66.1569 244.637 66.4235 244.488 66.6627C244.339 66.902 244.123 67.0431 243.837 67.0902L240.868 67.5764C240.578 67.6235 240.311 67.5607 240.053 67.3882C239.798 67.2157 239.66 66.9843 239.641 66.6941C239.527 65.6667 239.594 64.7413 239.849 63.91C240.1 63.0826 240.441 62.314 240.876 61.616C241.311 60.918 241.794 60.271 242.323 59.6749C242.856 59.0828 243.343 58.5142 243.79 57.9731C244.237 57.4319 244.59 56.9065 244.856 56.3967C245.119 55.883 245.209 55.3536 245.119 54.8085C244.958 53.8204 244.409 53.0714 243.468 52.5695C242.531 52.0675 241.37 51.9303 239.99 52.1538C237.778 52.5185 236.331 53.8909 235.649 56.2751C235.567 56.581 235.469 56.8202 235.347 56.9849C235.225 57.1535 234.998 57.2633 234.661 57.3182L231.496 57.8358C231.261 57.875 231.045 57.828 230.849 57.7025C230.657 57.5731 230.535 57.377 230.492 57.1182C230.371 56.2006 230.5 55.2242 230.877 54.185C231.257 53.1498 231.833 52.1734 232.606 51.2558C233.378 50.3421 234.331 49.5383 235.461 48.8442C236.59 48.154 237.845 47.6952 239.225 47.4678Z" fill="#33BFBF"/>
<path d="M241.782 75.5132C241.562 75.5132 241.358 75.4465 241.166 75.3093C240.923 75.1328 240.782 74.9015 240.735 74.6152L240.17 71.1762C240.162 71.1174 240.158 71.0586 240.158 70.9998C240.158 70.7802 240.225 70.5762 240.362 70.3841C240.539 70.141 240.77 69.9959 241.056 69.9488L244.413 69.3998C244.472 69.392 244.535 69.3881 244.59 69.3881C244.809 69.3881 245.017 69.4547 245.209 69.592C245.452 69.7685 245.593 69.9998 245.641 70.2821L246.205 73.7212C246.213 73.7839 246.217 73.8427 246.217 73.9015C246.217 74.1211 246.15 74.325 246.013 74.5172C245.837 74.7603 245.605 74.9015 245.323 74.9485L241.962 75.4975C241.9 75.5093 241.841 75.5132 241.782 75.5132ZM240.684 67.5882C240.464 67.5882 240.253 67.5215 240.053 67.3882C239.798 67.2157 239.66 66.9843 239.641 66.6941C239.606 66.3726 239.586 66.0628 239.586 65.7608C239.586 65.0981 239.676 64.4825 239.849 63.91C240.1 63.0826 240.441 62.314 240.876 61.616C241.311 60.918 241.794 60.271 242.323 59.6749C242.856 59.0828 243.343 58.5142 243.79 57.9731C244.237 57.4319 244.59 56.9065 244.856 56.3967C245.052 56.0124 245.154 55.6163 245.154 55.2164C245.154 55.0791 245.143 54.9458 245.119 54.8085C244.958 53.8204 244.409 53.0714 243.468 52.5695C242.821 52.2244 242.068 52.0518 241.209 52.0518C240.825 52.0518 240.421 52.0871 239.99 52.1538C237.778 52.5185 236.331 53.8909 235.649 56.2751C235.567 56.581 235.469 56.8202 235.347 56.9849C235.225 57.1535 234.998 57.2633 234.661 57.3182L231.496 57.8358C231.441 57.8437 231.386 57.8515 231.335 57.8515C231.163 57.8515 231.002 57.8005 230.849 57.7025C230.657 57.5731 230.536 57.377 230.492 57.1182C230.465 56.8947 230.449 56.6712 230.449 56.4398C230.449 55.7261 230.59 54.9732 230.877 54.185C231.257 53.1498 231.833 52.1734 232.606 51.2558C233.378 50.3421 234.331 49.5383 235.461 48.8442C236.59 48.154 237.845 47.6952 239.225 47.4678C239.927 47.3541 240.629 47.2953 241.327 47.2953C241.845 47.2953 242.366 47.3266 242.884 47.3933C244.096 47.5423 245.209 47.8717 246.217 48.3893C247.225 48.9069 248.08 49.6088 248.785 50.499C249.491 51.3852 249.95 52.4675 250.158 53.7419C250.236 54.2243 250.276 54.6791 250.276 55.1144C250.276 55.6203 250.221 56.0947 250.115 56.5379C249.915 57.3613 249.609 58.1182 249.201 58.8122C248.793 59.5063 248.334 60.1572 247.817 60.7651C247.299 61.3689 246.813 61.9454 246.354 62.4865C245.891 63.0316 245.503 63.5845 245.178 64.1453C244.872 64.6786 244.719 65.2236 244.719 65.7804C244.719 65.8079 244.719 65.8353 244.719 65.8628C244.715 66.1569 244.637 66.4235 244.488 66.6628C244.339 66.902 244.123 67.0431 243.837 67.0902L240.868 67.5764C240.806 67.5843 240.747 67.5882 240.684 67.5882Z" fill="#33BFBF"/>
<path d="M281.517 30.0726C282.717 30.9235 283.764 31.9195 284.662 33.0567C285.56 34.1939 286.219 35.3978 286.634 36.6722C287.054 37.9506 287.191 39.2524 287.046 40.5896C286.901 41.9268 286.383 43.2208 285.497 44.4678C284.772 45.4874 283.984 46.2599 283.133 46.7853C282.278 47.3108 281.392 47.6951 280.47 47.9421C279.545 48.1892 278.611 48.3499 277.674 48.4323C276.733 48.5107 275.843 48.5891 275.004 48.6636C274.165 48.7382 273.376 48.8754 272.639 49.0793C271.898 49.2832 271.29 49.6401 270.816 50.1459C270.565 50.389 270.278 50.5498 269.957 50.6282C269.631 50.7027 269.333 50.64 269.051 50.4439L266.145 48.3774C265.867 48.1774 265.687 47.9029 265.616 47.5421C265.545 47.1853 265.62 46.8755 265.847 46.6128C266.604 45.656 267.436 44.9305 268.341 44.4404C269.243 43.9541 270.169 43.5934 271.118 43.3659C272.067 43.1385 273.012 42.9934 273.953 42.9385C274.898 42.8797 275.784 42.8091 276.611 42.7228C277.435 42.6405 278.172 42.4915 278.823 42.2836C279.47 42.0719 279.984 41.6994 280.364 41.166C281.054 40.1936 281.211 39.1113 280.839 37.9074C280.47 36.7036 279.607 35.6213 278.258 34.6605C276.09 33.1195 273.725 33.0724 271.169 34.5115C270.839 34.7037 270.557 34.8174 270.318 34.8566C270.078 34.8998 269.792 34.8017 269.463 34.5664L266.365 32.3626C266.134 32.2019 265.992 31.9862 265.934 31.7156C265.879 31.4411 265.941 31.1823 266.122 30.9274C266.781 30.053 267.702 29.3354 268.886 28.7746C270.071 28.2178 271.369 27.8727 272.784 27.7472C274.196 27.6217 275.666 27.7355 277.196 28.0962C278.725 28.4531 280.168 29.1119 281.517 30.0726ZM267.612 52.8712C267.89 53.0712 268.059 53.3457 268.122 53.6947C268.181 54.0437 268.11 54.3574 267.91 54.6398L265.518 58.0043C265.318 58.2827 265.044 58.4552 264.698 58.5101C264.346 58.5729 264.032 58.5023 263.753 58.3023L260.467 55.9652C260.185 55.7652 260.016 55.4907 259.958 55.1417C259.895 54.7927 259.969 54.479 260.165 54.2006L262.557 50.8361C262.757 50.5537 263.032 50.3851 263.381 50.3263C263.73 50.2675 264.044 50.3381 264.326 50.538L267.612 52.8712Z" fill="#33BFBF"/>
<path d="M264.459 58.5337C264.204 58.5337 263.969 58.4552 263.753 58.3023L260.467 55.9652C260.185 55.7652 260.016 55.4907 259.957 55.1417C259.942 55.0633 259.938 54.9848 259.938 54.9103C259.934 54.6515 260.012 54.4162 260.165 54.2006L262.557 50.8361C262.757 50.5537 263.032 50.3851 263.381 50.3263C263.459 50.3106 263.538 50.3067 263.616 50.3067C263.871 50.3067 264.106 50.3812 264.326 50.538L267.612 52.8712C267.89 53.0712 268.059 53.3457 268.122 53.6947C268.133 53.7731 268.141 53.8516 268.141 53.9261C268.141 54.1849 268.063 54.4241 267.91 54.6398L265.518 58.0043C265.318 58.2827 265.043 58.4552 264.698 58.5101C264.616 58.5258 264.538 58.5337 264.459 58.5337ZM269.69 50.6596C269.467 50.6596 269.255 50.5851 269.051 50.4439L266.145 48.3774C265.867 48.1774 265.687 47.9029 265.616 47.5421C265.6 47.4559 265.592 47.3735 265.592 47.2912C265.592 47.0363 265.675 46.8128 265.847 46.6128C266.604 45.656 267.435 44.9305 268.341 44.4404C269.243 43.9541 270.169 43.5934 271.118 43.3659C272.067 43.1385 273.012 42.9934 273.953 42.9385C274.898 42.8797 275.784 42.8091 276.611 42.7228C277.435 42.6405 278.172 42.4915 278.823 42.2836C279.47 42.0719 279.984 41.6993 280.364 41.166C280.811 40.5386 281.035 39.8602 281.035 39.1309C281.035 38.7387 280.972 38.3309 280.839 37.9074C280.47 36.7036 279.607 35.6213 278.258 34.6605C277.137 33.8645 275.964 33.4685 274.741 33.4685C273.596 33.4685 272.404 33.8135 271.169 34.5115C270.839 34.7037 270.557 34.8174 270.318 34.8566C270.282 34.8645 270.247 34.8684 270.212 34.8684C269.992 34.8684 269.745 34.7664 269.463 34.5664L266.365 32.3626C266.134 32.2019 265.992 31.9862 265.934 31.7156C265.922 31.649 265.914 31.5862 265.914 31.5235C265.914 31.3196 265.985 31.1196 266.122 30.9274C266.781 30.053 267.702 29.3354 268.886 28.7746C270.071 28.2178 271.369 27.8727 272.784 27.7472C273.153 27.7159 273.525 27.7002 273.906 27.7002C274.968 27.7002 276.066 27.8296 277.196 28.0962C278.725 28.4531 280.168 29.1118 281.517 30.0726C282.717 30.9235 283.764 31.9195 284.662 33.0567C285.56 34.1939 286.219 35.3978 286.634 36.6722C286.944 37.6212 287.101 38.5819 287.101 39.5622C287.101 39.9034 287.081 40.2445 287.046 40.5896C286.901 41.9268 286.383 43.2208 285.497 44.4678C284.772 45.4874 283.984 46.2599 283.133 46.7853C282.278 47.3108 281.392 47.6951 280.47 47.9421C279.545 48.1892 278.611 48.3499 277.674 48.4323C276.733 48.5107 275.843 48.5891 275.004 48.6636C274.165 48.7381 273.376 48.8754 272.639 49.0793C271.898 49.2832 271.29 49.6401 270.816 50.1459C270.565 50.389 270.278 50.5498 269.957 50.6282C269.867 50.6478 269.777 50.6596 269.69 50.6596Z" fill="#81CFCE"/>
<path d="M192.859 141.737H157.195V55.3223C157.195 39.6918 169.865 27.0259 185.491 27.0259H188.785C204.412 27.0259 217.081 39.6918 217.081 55.3223V117.515C217.081 130.894 206.235 141.737 192.859 141.737Z" fill="#0A2B34"/>
<path d="M153.728 349.768C153.434 351.936 152.811 354.469 152.693 360.614C152.568 367.194 151.36 369.531 151.199 374.935C151.015 381.111 152.081 383.421 154.587 386.891C157.093 390.361 163.669 393.51 166.449 387.644C169.261 381.707 168.869 377.935 167.982 371.88C167.061 365.618 166.943 362.159 166.414 357.383C165.943 353.175 165.382 349.979 165.382 349.979L153.728 349.768Z" fill="#0A2B34"/>
<path d="M172.417 306.029L150.728 305.637C151.05 320.115 153.352 336.184 153.728 349.768C153.795 352.324 153.662 369.637 154.626 374.896C156.077 382.801 165.457 381.734 165.955 377.005C166.453 372.272 165.351 352.062 165.382 349.979C165.3 341.266 169.382 326.561 171.523 310.923C171.629 310.154 172.315 306.778 172.417 306.029Z" fill="#F69DA3"/>
<path d="M200.275 338.502C200.275 338.502 199.42 338.039 199.243 338.953C199.031 340.043 198.718 342.282 198.267 344.066C197.639 346.548 197.118 350.634 197.494 352.654C197.871 354.677 202.58 357.277 205.639 358.218C210.156 359.602 213.25 361.865 215.725 364.19C218.752 367.045 225.293 369.739 229.743 369.704C235.014 369.669 238.684 367.951 240.421 365.132C242.233 362.183 238.841 361.967 232.818 358.061C231.449 357.175 229.896 356.171 228.143 355.026C218.607 348.795 215.113 345.454 212.415 339.223L200.275 338.502Z" fill="#0A2B34"/>
<path d="M212.489 334.643C212.329 330.161 215.403 292.132 215.403 292.132L194.808 301.523C199.216 327.847 200.157 334.055 200.235 338.36C200.2 338.462 200.114 338.827 200.118 339.462C200.137 344.58 205.909 347.336 210.411 350.748C212.191 352.093 217.364 356.069 222.587 358.697C225.861 360.34 232.504 360.489 233.327 358.387C227.845 354.203 219.877 347.94 215.521 343.164C213.438 340.882 212.65 339.125 212.489 334.643Z" fill="#F69DA3"/>
<path d="M159.614 164.771C151.709 182.134 151.709 195.565 153.015 217.721C154.214 238.045 156.124 255.934 156.124 255.934C155.818 259.542 150.807 266.577 150.16 282.513C149.552 297.414 151.183 316.354 151.183 316.354C151.183 316.354 162.438 322.589 170.755 316.299C170.755 316.299 178.786 277.964 181.134 259.314C183.189 243.037 186.758 222.242 186.758 222.242L194.314 259.224C194.314 259.224 191.44 268.341 190.765 275.29C189.707 286.258 195.839 307.802 195.839 307.802C195.839 307.802 207.466 311.268 214.564 304.974C214.564 304.974 217.223 269.949 218.211 256.734C219.536 239.041 216.748 191.13 214.564 165.771L159.614 164.771Z" fill="#335863"/>
<path d="M186.758 222.242L189.879 194.4C189.879 194.4 203.874 192.53 210.215 186.573C210.215 186.573 205.451 195.298 193.726 196.992L189.209 222.897L194.314 259.224L186.758 222.242Z" fill="#0A2B34"/>
<path d="M243.421 157.932C244.295 149.399 244.26 143.713 244.186 142.619C243.88 138.204 243.088 137.482 236.916 129.655C228.575 119.087 221.458 109.59 213.929 100.139C208.556 93.3906 202.91 92.3515 197.392 92.6573C193.534 92.873 201.059 111.413 204.851 122.381L226.485 145.654C227.151 146.572 227.457 147.701 227.347 148.831L226.018 168.641L232.496 177.307C232.496 177.307 242.307 168.849 243.421 157.932Z" fill="#F69DA3"/>
<path d="M176.55 93.2573C172.366 93.5474 164.755 94.218 164.755 94.218C160.367 96.6688 159.257 98.6766 158.438 104.508C158.093 106.99 160.116 113.609 161.849 123.012L165.147 140.454L164.79 149.101C163.077 154.379 159.21 160.94 155.799 170.61C172.562 179.962 186.616 180.311 199.365 178.672C209.086 177.425 214.231 175.072 215.948 172.751C215.591 163.198 214.913 157.297 214.748 147.321C214.678 143.125 214.929 138.898 215.093 134.074C221.614 128.718 221.689 119.805 218.132 114.048C209.866 100.665 201.831 92.2416 196.51 92.673L176.55 93.2573Z" fill="#33BFBF"/>
<path d="M188.448 179.429C178.629 179.429 167.92 177.374 155.799 170.61C159.21 160.94 163.077 154.379 164.79 149.101L165.147 140.455L161.849 123.012C160.245 114.323 158.399 108.013 158.399 105.147C158.399 104.912 158.414 104.696 158.438 104.508C159.257 98.6766 160.367 96.6688 164.755 94.218C164.755 94.218 172.366 93.5475 176.55 93.2573L196.51 92.673C196.639 92.6652 196.773 92.6573 196.906 92.6573C202.223 92.6573 210.07 100.994 218.132 114.048C219.626 116.472 220.481 119.452 220.485 122.495C220.485 126.546 218.971 130.698 215.442 133.776C215.329 133.875 215.211 133.976 215.093 134.074C214.948 138.333 214.736 142.129 214.736 145.842C214.736 146.337 214.74 146.827 214.748 147.321C214.913 157.297 215.591 163.198 215.948 172.751C214.231 175.072 209.086 177.425 199.365 178.672C195.836 179.127 192.208 179.429 188.448 179.429ZM175.715 126.326C175.715 126.326 174.79 136.31 185.809 139.717C187.483 140.235 189.036 140.455 190.463 140.455C198.09 140.455 202.118 134.216 202.118 134.216C202.118 134.216 197.302 137.957 190.95 137.957C189.295 137.957 187.534 137.702 185.726 137.059C176.99 133.961 175.715 126.326 175.715 126.326Z" fill="#33BFBF"/>
<path d="M190.463 140.455C189.036 140.455 187.483 140.235 185.809 139.717C174.79 136.31 175.715 126.326 175.715 126.326C175.715 126.326 176.99 133.961 185.726 137.059C187.534 137.702 189.295 137.957 190.95 137.957C197.302 137.957 202.118 134.216 202.118 134.216C202.118 134.216 198.09 140.455 190.463 140.455Z" fill="#71CAC4"/>
<path d="M212.497 65.8432C212.168 80.3365 207.466 83.9206 205.11 84.948C202.749 85.9793 198.2 85.3519 193.785 84.6186V93.3161C193.785 93.3161 198.879 98.6609 198.498 102.641C198.11 106.637 190.491 107.08 184.77 103.178C180.589 100.331 177.609 97.0806 176.307 95.5395C175.833 94.9748 175.574 94.2729 175.574 93.5357V73.0702C175.574 73.0702 173.158 75.6348 168.876 72.7016C164.602 69.7763 164.234 64.3217 166.845 61.2317C168.712 59.0397 173.445 58.8867 175.719 62.2944C176.997 64.7962 177.17 67.3059 178.601 66.2667C182.421 63.5179 180.374 57.2712 184.985 54.1811L185.005 54.1733C186.385 53.4282 187.95 52.7302 189.699 52.1224C197.922 49.2834 205.047 46.8953 206.764 41.2721C210.007 43.1975 212.901 48.7462 212.497 65.8432Z" fill="#F69DA3"/>
<path d="M198.192 76.8896C198.192 77.9405 197.337 78.7915 196.287 78.7915C195.236 78.7915 194.385 77.9405 194.385 76.8896C194.385 75.8387 195.236 74.9878 196.287 74.9878C197.337 74.9878 198.192 75.8387 198.192 76.8896Z" fill="#C2686A"/>
<path d="M195.016 63.6473C195.075 64.7962 194.224 65.7687 193.118 65.8236C192.012 65.8746 191.071 64.9844 191.012 63.8394C190.953 62.6865 191.804 61.714 192.91 61.6631C194.016 61.6082 194.957 62.4983 195.016 63.6473Z" fill="#0A2B34"/>
<path d="M210.231 63.8433C210.282 64.8903 209.509 65.7726 208.501 65.8197C207.4 65.8746 206.647 65.1648 206.588 64.0158C206.537 62.9728 207.309 62.0865 208.313 62.0395C209.321 61.9924 210.176 62.8002 210.231 63.8433Z" fill="#0A2B34"/>
<path d="M192.436 58.8711C188.479 58.8711 186.938 59.8239 186.938 62.2787C186.938 65.3099 189.405 67.7803 192.436 67.7803C195.471 67.7803 197.937 65.3099 197.937 62.2787C197.937 59.8239 196.396 58.8711 192.436 58.8711ZM192.436 68.8077C188.836 68.8077 185.907 65.8785 185.907 62.2787C185.907 57.8398 190.483 57.8398 192.436 57.8398C194.393 57.8398 198.965 57.8398 198.965 62.2787C198.965 65.8785 196.036 68.8077 192.436 68.8077Z" fill="#335863"/>
<path d="M209.011 58.8711C205.055 58.8711 203.514 59.8239 203.514 62.2787C203.514 65.3099 205.98 67.7803 209.011 67.7803C212.046 67.7803 214.513 65.3099 214.513 62.2787C214.513 59.8239 212.968 58.8711 209.011 58.8711ZM209.011 68.8077C205.411 68.8077 202.482 65.8785 202.482 62.2787C202.482 57.8398 207.058 57.8398 209.011 57.8398C210.964 57.8398 215.54 57.8398 215.54 62.2787C215.54 65.8785 212.611 68.8077 209.011 68.8077Z" fill="#335863"/>
<path d="M199.98 60.1729L200.302 72.3683L206.717 70.3802L199.98 60.1729Z" fill="#F48A8F"/>
<path d="M193.781 84.6146C189.118 84.0068 179.531 81.2501 178.037 77.4582C178.037 77.4582 178.535 79.8424 181.397 82.2971C184.264 84.7519 193.781 87.5164 193.781 87.5164V84.6146Z" fill="#F48A8F"/>
<path d="M194 54.2556L189.75 56.8476C189.052 55.6203 189.44 54.0517 190.616 53.3341C191.789 52.6165 193.306 53.0283 194 54.2556Z" fill="#0A2B34"/>
<path d="M211.325 57.1457L206.584 55.487C206.996 54.1537 208.392 53.44 209.701 53.8988C211.007 54.3537 211.737 55.8085 211.325 57.1457Z" fill="#0A2B34"/>
<path d="M198.451 62.8003C198.165 62.8003 197.937 62.5611 197.937 62.2787C197.937 61.4435 199.588 60.9062 201.071 60.9062C202.553 60.9062 203.514 61.4435 203.514 62.2787C203.514 62.5611 203.282 62.7924 202.996 62.7924C202.714 62.7924 202.482 62.5611 202.482 62.2787C202.435 62.1846 201.961 61.9336 201.071 61.9336C200.18 61.9336 199.012 62.1846 198.965 62.2866C198.965 62.5728 198.733 62.8003 198.451 62.8003Z" fill="#335863"/>
<path d="M186.44 62.365L186.381 62.361L174.907 61.314C174.7 61.1258 174.158 60.5612 173.025 60.0945L186.495 61.3376C186.777 61.3689 186.981 61.6238 186.95 61.9062C186.922 62.1689 186.699 62.365 186.44 62.365Z" fill="#335863"/>
<path d="M139.329 74.3211C143.082 69.3097 145.639 65.5217 149.066 61.2239C151.011 58.7848 152.254 57.0398 154.124 54.538C155.414 52.8126 156.167 51.3617 157.595 50.8284C159.202 50.2245 160.751 49.0363 161.783 47.9501C162.524 47.1737 163.128 46.2836 163.763 45.4248C165.908 42.5348 168.472 39.9545 171.347 37.7899C174.366 35.5116 177.723 33.7784 180.821 31.6099C182.672 30.3159 184.652 28.167 182.401 26.1593C181.731 25.5593 180.876 25.2024 179.997 25.0103C174.535 23.8182 169.77 25.7005 164.43 27.069C162.104 27.6611 159.822 28.4062 157.626 29.3669C156.559 29.8296 155.497 30.3394 154.611 31.0923C153.234 32.2726 152.411 33.951 151.517 35.5273C149.113 39.7585 144.137 43.4916 140.635 46.7855C136.525 50.6519 132.855 54.1929 128.169 58.4593C123.95 62.2944 119.82 65.8354 115.954 70.0273C112.754 73.4937 113.919 76.2073 114.374 77.1445C116.981 82.5089 119.903 84.4303 123.389 87.7556C129.432 93.5122 150.246 110.068 157.148 115.534C158.626 116.703 159.787 118.221 160.532 119.95L161.849 123.012C169.719 124.459 174.974 112.644 168.453 98.4178C167.398 96.1081 165.72 94.1435 163.669 92.6495C155.454 86.6537 139.329 74.3211 139.329 74.3211Z" fill="#F69DA3"/>
<path d="M139.329 74.3211C139.329 74.3211 135.772 79.0816 129.71 80.9443C129.71 80.9443 134.729 82.2226 141.603 76.0583L139.329 74.3211Z" fill="#F48A8F"/>
<path d="M241.378 147.458H241.405L240.119 146.348V146.368C239.829 146.133 239.378 146.058 238.794 146.219L224.857 150.011C223.563 150.36 222.163 151.67 221.724 152.936L211.693 181.876C211.462 182.546 211.552 183.064 211.878 183.354L211.866 183.358L213.195 184.499V184.483C213.482 184.726 213.94 184.805 214.529 184.644L228.469 180.852C229.759 180.499 231.163 179.189 231.602 177.923C233.571 172.237 239.66 154.669 241.629 148.983C241.876 148.27 241.754 147.733 241.378 147.458Z" fill="#335863"/>
<path d="M212.984 182.989L223.014 154.046C223.454 152.783 224.853 151.473 226.148 151.121L240.084 147.329C241.378 146.98 242.068 147.721 241.629 148.983C239.66 154.673 233.571 172.237 231.602 177.923C231.163 179.19 229.759 180.499 228.469 180.852L214.529 184.644C213.238 184.993 212.544 184.252 212.984 182.989Z" fill="#33BFBF"/>
<path d="M224.63 151.924C223.905 152.497 223.281 153.285 223.01 154.05L212.98 182.981C212.76 183.632 212.827 184.142 213.117 184.432L211.87 183.366L211.882 183.35C211.552 183.06 211.462 182.55 211.693 181.876L221.724 152.932C221.967 152.219 222.54 151.493 223.214 150.921L224.63 151.924Z" fill="#24444C"/>
<path d="M237.551 160.645C236.567 163.594 233.065 165.559 227.308 166.924C221.552 168.288 218.36 174.402 219.289 176.26C220.222 178.123 229.524 179.848 233.245 179.319C236.966 178.786 240.711 173.406 241.837 171.743C242.962 170.08 244.276 158.453 243.08 156.857C241.884 155.261 239.37 155.509 239.37 155.509L237.551 160.645Z" fill="#F48A8F"/>
</g>
<defs>
<clipPath id="clip0_1_5">
<rect width="473" height="441.609" fill="white"/>
</clipPath>
</defs>
</svg>
