<svg xmlns="http://www.w3.org/2000/svg" width="473" height="442" fill="none"><g clip-path="url(#a)"><path fill="#EAEAE9" d="M403.733 208.517c92.356 53.323 92.356 139.776-.004 193.099-92.359 53.326-242.103 53.326-334.459 0-92.359-53.323-92.359-139.776 0-193.099 92.36-53.326 242.104-53.326 334.463 0Z"/><path fill="#D8D9D9" d="M245.225 328.161c31.849 18.387 31.849 48.201 0 66.588-31.849 18.388-83.485 18.388-115.335 0-31.849-18.387-31.849-48.201 0-66.588 31.85-18.387 83.486-18.387 115.335 0Z"/><path fill="#33BFBF" d="m419.478 302.547-9.561-5.521s-2.341-20.482-.784-36.339c2.188-22.289 16.583-49.107 33.755-42.81 17.172 6.298-7.874 28.999-13.446 47.899-5.576 18.905-9.964 36.771-9.964 36.771Z"/><path fill="#00AE9D" d="m419.478 302.547-9.561-5.521s-1.317-11.521-1.317-23.972c-.004-4.148.145-8.403.533-12.368 1.969-20.041 13.803-43.742 28.653-43.742 1.667 0 3.373.298 5.102.933 4.27 1.565 5.929 4.141 5.929 7.423-.004 9.925-15.187 26.273-19.375 40.476-5.576 18.905-9.964 36.771-9.964 36.771Z"/><path fill="#fff" d="M414.45 300.225h.02a.586.586 0 0 0 .561-.6c-1.682-49.522 22.971-74.434 23.222-74.681a.574.574 0 0 0 .004-.816.574.574 0 0 0-.816-.008c-.255.251-25.265 25.52-23.571 75.545.012.313.271.56.58.56Z"/><path fill="#33BFBF" d="m425.493 305.99-6.808-3.929s-1.152-14.055 5.733-31.124c6-14.866 20.886-27.195 28.371-24.603 7.486 2.588 7.298 7.898 3.651 13.466-3.651 5.569-25.853 18.842-30.947 46.19Z"/><path fill="#fff" d="M421.901 304.496h.004c.321 0 .58-.259.576-.581-.133-31.312 29.269-52.475 29.567-52.687a.574.574 0 0 0 .134-.804.57.57 0 0 0-.804-.137c-.302.212-30.191 21.724-30.053 53.636 0 .318.258.573.576.573Z"/><path fill="#33BFBF" d="m65.502 290.246 8.83-5.961s3.887-23.136.275-43.456c-5.078-28.571-24.782-38.08-31.813-35.092-7.031 2.984-8.533 11.505 4.588 27.818 7.736 9.623 17.85 30.088 18.12 56.691Z"/><path fill="#00AE9D" d="M65.502 290.246c-.27-26.603-10.384-47.068-18.12-56.691-7.075-8.796-9.898-15.325-9.894-19.944 0-3.949 2.066-6.498 5.306-7.874.815-.349 1.8-.526 2.913-.526 8.49 0 24.41 10.361 28.9 35.618 1.145 6.451 1.537 13.184 1.537 19.367 0 13.31-1.811 24.089-1.811 24.089l-8.831 5.961Z"/><path fill="#fff" d="m68.533 278.799-.086-.004a.638.638 0 0 1-.56-.709c3.187-26.901-8.169-56.087-20.521-67.702a.635.635 0 0 1-.028-.902.643.643 0 0 1 .906-.028c12.576 11.823 24.148 41.484 20.913 68.781a.64.64 0 0 1-.624.564Z"/><path fill="#33BFBF" d="M42.374 305.845c-1.404.843-5.498-2.196-6.635-2.926-1.937-1.25-3.525-3.039-4.596-5.078-1.247-2.372-1.6-4.937-1.274-7.591.169-1.381.525-2.726.886-4.067.35-1.317.702-2.635 1.051-3.952.349-1.302.698-2.643.502-3.977-.396-2.678-2.82-4.517-5.02-6.097-2.43-1.753-4.976-4.075-5.027-7.31-.035-2.498 1.212-4.839 2.722-6.831 1.51-1.988 3.313-3.756 4.67-5.85.98-1.51 1.73-3.275 1.533-5.059-.125-1.11-.607-2.149-1.156-3.121-1.185-2.083-2.73-3.984-3.561-6.231-.831-2.251-.773-5.067.96-6.721 1.424-1.357 3.577-1.585 5.542-1.495 1.82.087 3.607.871 5.215 1.726 5.192 2.757 8.239 8.784 13.733 10.878 2.121.807 4.427.945 6.63 1.482 2.204.537 4.46 1.616 5.514 3.623 2.078 3.957-1.541 8.957-.051 13.168 1.317 3.733 4.992 5.098 7.105 8.443.926 1.462 1.165 3.168 1.055 4.894-.188 2.925-.576 5.074-1.913 8.348-1.106 2.702-4.388 7.898-4.388 7.898s-23.285 15.716-23.497 15.846Z"/><path fill="#fff" d="M55.942 297.524h-.016a.642.642 0 0 1-.635-.655c.565-25.414-11.94-53.221-20.799-61.197a.642.642 0 0 1-.047-.905.638.638 0 0 1 .902-.047c9.039 8.136 21.799 36.405 21.222 62.176a.643.643 0 0 1-.627.628Z"/><path fill="#fff" d="m51.26 266.561-.188-.024c-8.208-2.368-18.384-2.615-18.486-2.615a.64.64 0 0 1-.627-.655.623.623 0 0 1 .655-.627c.102.003 10.442.254 18.81 2.666a.639.639 0 0 1-.164 1.255Z"/><path fill="#F9F9F8" d="m322.138 179.425 1.463-.847a2.44 2.44 0 0 0 .859-.824c.215-.341.321-.784.321-1.325 0-.541-.106-.855-.321-.941-.216-.083-.502-.024-.859.184l-1.463.843v2.91Zm1.51-5.596c.761-.443 1.353-.506 1.776-.196.42.306.632.996.632 2.058 0 1.067-.212 2.004-.632 2.808a4.561 4.561 0 0 1-1.776 1.871l-1.51.87v3.243a.73.73 0 0 1-.078.318.445.445 0 0 1-.177.219l-.764.44-.181-.008c-.051-.051-.074-.126-.074-.236v-9.387a.74.74 0 0 1 .074-.322.47.47 0 0 1 .181-.219l2.529-1.459ZM330.785 176.088l-1.039-3.541-1.04 4.74 2.079-1.199Zm-.522-6.082c.102-.059.181-.063.228-.008a.684.684 0 0 1 .133.294l2.314 7.854.007.094a.724.724 0 0 1-.074.318.467.467 0 0 1-.18.223l-.679.393c-.125.07-.216.082-.263.027l-.105-.18-.404-1.377-2.985 1.722-.407 1.847c-.02.09-.055.188-.102.302a.62.62 0 0 1-.267.274l-.678.392-.181-.011c-.051-.051-.074-.126-.074-.232l.012-.11 2.309-10.521a2.12 2.12 0 0 1 .134-.447.55.55 0 0 1 .227-.254l1.035-.6ZM343.047 162.481c.423-.244.796-.369 1.113-.381.322-.012.593.051.804.188.216.142.377.334.487.585.109.251.172.517.184.788a.587.587 0 0 1-.071.325.54.54 0 0 1-.184.216l-.663.38c-.106.063-.184.079-.239.047l-.145-.172a.78.78 0 0 0-.431-.384c-.193-.067-.475.007-.855.223a2.757 2.757 0 0 0-.467.353 2.33 2.33 0 0 0-.384.455c-.114.165-.2.337-.263.521a1.663 1.663 0 0 0-.094.549c0 .224.031.385.09.491.059.109.161.172.302.192.141.019.329.004.561-.043.235-.047.521-.11.87-.196.377-.091.702-.13.977-.122.274.012.498.086.67.223.173.142.302.338.385.6.086.263.129.589.129.989 0 .435-.063.874-.188 1.321a5.54 5.54 0 0 1-1.4 2.4 5.14 5.14 0 0 1-1.141.89 3.054 3.054 0 0 1-1.008.388 1.534 1.534 0 0 1-.855-.074 1.242 1.242 0 0 1-.6-.549c-.149-.263-.235-.6-.255-1.016a.65.65 0 0 1 .071-.321.494.494 0 0 1 .184-.216l.663-.38c.106-.063.184-.083.243-.055.059.023.102.082.141.176.043.102.098.196.161.286a.494.494 0 0 0 .255.189c.11.035.243.035.404.008.161-.032.357-.114.596-.251.192-.11.372-.236.549-.385a2.84 2.84 0 0 0 .462-.482c.13-.18.24-.365.322-.565.082-.196.122-.408.122-.631 0-.212-.044-.361-.13-.447-.09-.082-.223-.122-.404-.118-.176.008-.4.043-.666.11-.263.067-.569.129-.914.196a2.873 2.873 0 0 1-.827.063 1.013 1.013 0 0 1-.585-.251c-.153-.145-.27-.353-.345-.624-.074-.27-.113-.627-.113-1.062 0-.436.062-.875.188-1.314.125-.443.298-.855.521-1.243.22-.392.483-.749.788-1.074.306-.326.636-.593.985-.796ZM350.364 163.735l-.812 4.816c-.031.164-.07.306-.117.423a.497.497 0 0 1-.212.263l-.765.439c-.094.055-.168.055-.223-.008a.597.597 0 0 1-.106-.294l-1.212-8.474-.008-.11c0-.105.028-.215.075-.321a.477.477 0 0 1 .18-.22l.698-.404.181-.015c.054.027.094.106.113.239l.792 5.705.698-4.282c.016-.078.044-.18.091-.313a.546.546 0 0 1 .243-.302l.772-.447c.114-.067.192-.055.239.023l.091.208.698 3.478.796-6.619a.92.92 0 0 1 .109-.373l.181-.188.698-.404.18.012c.051.047.075.126.075.231l-.008.122-1.208 9.87c-.02.157-.055.298-.11.42a.526.526 0 0 1-.223.266l-.765.439c-.094.055-.165.051-.212-.011a.851.851 0 0 1-.117-.29l-.812-3.879Z"/><path fill="#33BFBF" d="M229.065 32.673c.412.09.729.317.965.682a1.5 1.5 0 0 1 .211 1.165l-1.09 4.925a1.496 1.496 0 0 1-.686.964 1.476 1.476 0 0 1-1.161.216l-4.815-1.066a1.5 1.5 0 0 1-.965-.687 1.47 1.47 0 0 1-.211-1.16l1.09-4.93c.09-.407.317-.729.682-.964a1.503 1.503 0 0 1 1.165-.212l4.815 1.067ZM233.869.376a18.691 18.691 0 0 1 4.96 1.863c1.553.851 2.871 1.898 3.945 3.137a11.212 11.212 0 0 1 2.325 4.216c.475 1.572.51 3.274.106 5.101-.333 1.494-.855 2.737-1.564 3.737A12.23 12.23 0 0 1 241.194 21a19.3 19.3 0 0 1-2.914 1.878c-1.019.541-1.984 1.051-2.894 1.533a16.45 16.45 0 0 0-2.466 1.596c-.738.585-1.251 1.275-1.545 2.07-.169.393-.412.71-.741.95a1.301 1.301 0 0 1-1.106.227l-4.255-.945a1.564 1.564 0 0 1-.992-.69c-.251-.369-.314-.753-.184-1.153.396-1.439.988-2.65 1.772-3.631a13.854 13.854 0 0 1 2.616-2.533c.96-.71 1.956-1.322 2.992-1.835a83.292 83.292 0 0 0 2.89-1.506 13.032 13.032 0 0 0 2.278-1.55 3.638 3.638 0 0 0 1.208-1.995c.31-1.416-.028-2.718-1.02-3.894-.992-1.18-2.478-1.988-4.454-2.427-3.173-.702-5.859.368-8.051 3.211-.278.369-.541.632-.792.792-.251.161-.62.189-1.106.079l-4.533-1.004a1.256 1.256 0 0 1-.792-.53c-.196-.278-.251-.6-.169-.976.326-1.294 1.024-2.54 2.09-3.737 1.067-1.192 2.369-2.196 3.898-3.011 1.533-.816 3.247-1.385 5.137-1.71 1.894-.326 3.827-.27 5.808.168ZM244.413 69.4c.286-.043.553.02.796.192.243.176.384.408.431.69l.565 3.44a1.04 1.04 0 0 1-.192.795 1.034 1.034 0 0 1-.69.431l-3.361.55a1.04 1.04 0 0 1-.796-.189 1.033 1.033 0 0 1-.431-.694l-.565-3.439c-.043-.282.02-.549.192-.792a1.04 1.04 0 0 1 .694-.435l3.357-.55Zm-5.188-21.932c1.224-.2 2.443-.228 3.659-.075 1.211.15 2.325.479 3.333.996a7.757 7.757 0 0 1 2.568 2.11c.706.886 1.165 1.968 1.373 3.243.168 1.043.157 1.976-.043 2.796-.2.823-.506 1.58-.914 2.274a13.788 13.788 0 0 1-1.384 1.953c-.518.604-1.004 1.18-1.463 1.721a11.349 11.349 0 0 0-1.176 1.66c-.322.556-.475 1.132-.459 1.717-.004.294-.082.56-.231.8a.901.901 0 0 1-.651.427l-2.969.486a1.096 1.096 0 0 1-.815-.188.875.875 0 0 1-.412-.694c-.114-1.027-.047-1.953.208-2.784a9.576 9.576 0 0 1 1.027-2.294c.435-.698.918-1.345 1.447-1.941.533-.592 1.02-1.16 1.467-1.702.447-.541.8-1.066 1.066-1.576a2.51 2.51 0 0 0 .263-1.588c-.161-.989-.71-1.738-1.651-2.24-.937-.502-2.098-.639-3.478-.415-2.212.364-3.659 1.737-4.341 4.121-.082.306-.18.545-.302.71-.122.169-.349.278-.686.333l-3.165.518a.891.891 0 0 1-.647-.133.839.839 0 0 1-.357-.585c-.121-.917.008-1.894.385-2.933.38-1.035.956-2.012 1.729-2.93.772-.913 1.725-1.717 2.855-2.41a10.375 10.375 0 0 1 3.764-1.377Z"/><path fill="#33BFBF" d="M241.782 75.513c-.22 0-.424-.067-.616-.204a1.033 1.033 0 0 1-.431-.694l-.565-3.439a1.307 1.307 0 0 1-.012-.176c0-.22.067-.424.204-.616a1.04 1.04 0 0 1 .694-.435l3.357-.55c.059-.007.122-.01.177-.01.219 0 .427.066.619.203.243.177.384.408.432.69l.564 3.44c.008.062.012.12.012.18 0 .22-.067.423-.204.615a1.034 1.034 0 0 1-.69.431l-3.361.55a.949.949 0 0 1-.18.015Zm-1.098-7.925c-.22 0-.431-.066-.631-.2a.875.875 0 0 1-.412-.694 8.626 8.626 0 0 1-.055-.933c0-.663.09-1.278.263-1.851a9.576 9.576 0 0 1 1.027-2.294c.435-.698.918-1.345 1.447-1.941.533-.592 1.02-1.16 1.467-1.702.447-.541.8-1.066 1.066-1.576.196-.385.298-.78.298-1.18 0-.138-.011-.271-.035-.408-.161-.989-.71-1.738-1.651-2.24-.647-.345-1.4-.517-2.259-.517-.384 0-.788.035-1.219.102-2.212.364-3.659 1.737-4.341 4.121-.082.306-.18.545-.302.71-.122.169-.349.278-.686.333l-3.165.518c-.055.008-.11.016-.161.016a.842.842 0 0 1-.843-.733 5.617 5.617 0 0 1-.043-.68c0-.713.141-1.466.428-2.254.38-1.035.956-2.012 1.729-2.93.772-.913 1.725-1.717 2.855-2.41a10.375 10.375 0 0 1 3.764-1.377 13.143 13.143 0 0 1 2.102-.173 12.2 12.2 0 0 1 1.557.098c1.212.15 2.325.479 3.333.996a7.757 7.757 0 0 1 2.568 2.11c.706.886 1.165 1.968 1.373 3.243.078.482.118.937.118 1.372 0 .506-.055.98-.161 1.424-.2.823-.506 1.58-.914 2.274a13.788 13.788 0 0 1-1.384 1.953c-.518.604-1.004 1.18-1.463 1.721a11.344 11.344 0 0 0-1.176 1.66c-.306.533-.459 1.078-.459 1.634v.083c-.004.294-.082.56-.231.8a.902.902 0 0 1-.651.427l-2.969.486a1.427 1.427 0 0 1-.184.012ZM281.517 30.073c1.2.85 2.247 1.846 3.145 2.984.898 1.137 1.557 2.34 1.972 3.615.42 1.279.557 2.58.412 3.918-.145 1.337-.663 2.63-1.549 3.878-.725 1.02-1.513 1.792-2.364 2.317a10.01 10.01 0 0 1-2.663 1.157c-.925.247-1.859.408-2.796.49-.941.079-1.831.157-2.67.232-.839.074-1.628.211-2.365.415-.741.204-1.349.561-1.823 1.067a1.852 1.852 0 0 1-.859.482 1.091 1.091 0 0 1-.906-.184l-2.906-2.067a1.297 1.297 0 0 1-.529-.835c-.071-.357.004-.666.231-.93.757-.956 1.589-1.681 2.494-2.172a11.488 11.488 0 0 1 2.777-1.074 16.207 16.207 0 0 1 2.835-.428c.945-.058 1.831-.129 2.658-.215a10.81 10.81 0 0 0 2.212-.44 2.973 2.973 0 0 0 1.541-1.117c.69-.972.847-2.055.475-3.259-.369-1.203-1.232-2.286-2.581-3.246-2.168-1.541-4.533-1.589-7.089-.15-.33.193-.612.306-.851.346-.24.043-.526-.055-.855-.29l-3.098-2.204a1.022 1.022 0 0 1-.431-.647c-.055-.275.007-.534.188-.789.659-.874 1.58-1.592 2.764-2.152 1.185-.557 2.483-.902 3.898-1.028 1.412-.125 2.882-.012 4.412.35 1.529.356 2.972 1.015 4.321 1.976ZM267.612 52.87c.278.2.447.475.51.824a1.22 1.22 0 0 1-.212.945l-2.392 3.364c-.2.279-.474.451-.82.506a1.197 1.197 0 0 1-.945-.208l-3.286-2.337a1.212 1.212 0 0 1-.509-.823 1.205 1.205 0 0 1 .207-.941l2.392-3.365c.2-.282.475-.45.824-.51a1.22 1.22 0 0 1 .945.212l3.286 2.333Z"/><path fill="#81CFCE" d="M264.459 58.534c-.255 0-.49-.079-.706-.232l-3.286-2.337a1.217 1.217 0 0 1-.51-.823 1.23 1.23 0 0 1-.019-.232 1.168 1.168 0 0 1 .227-.71l2.392-3.364c.2-.282.475-.45.824-.51.078-.015.157-.02.235-.02.255 0 .49.075.71.232l3.286 2.333c.278.2.447.475.51.824.011.078.019.157.019.231 0 .259-.078.498-.231.714l-2.392 3.364c-.2.279-.475.451-.82.506-.082.016-.16.024-.239.024Zm5.231-7.874a1.11 1.11 0 0 1-.639-.216l-2.906-2.067a1.297 1.297 0 0 1-.529-.835 1.364 1.364 0 0 1-.024-.25c0-.256.083-.48.255-.68.757-.956 1.588-1.681 2.494-2.172a11.488 11.488 0 0 1 2.777-1.074 16.207 16.207 0 0 1 2.835-.428c.945-.058 1.831-.129 2.658-.215a10.81 10.81 0 0 0 2.212-.44 2.974 2.974 0 0 0 1.541-1.117c.447-.627.671-1.306.671-2.035 0-.392-.063-.8-.196-1.224-.369-1.203-1.232-2.286-2.581-3.246-1.121-.797-2.294-1.193-3.517-1.193-1.145 0-2.337.345-3.572 1.043-.33.193-.612.306-.851.346a.491.491 0 0 1-.106.011c-.22 0-.467-.102-.749-.302l-3.098-2.203a1.022 1.022 0 0 1-.451-.84c0-.203.071-.403.208-.596.659-.874 1.58-1.592 2.764-2.152 1.185-.557 2.483-.902 3.898-1.028.369-.031.741-.047 1.122-.047 1.062 0 2.16.13 3.29.396 1.529.357 2.972 1.016 4.321 1.977 1.2.85 2.247 1.846 3.145 2.984.898 1.137 1.557 2.34 1.972 3.615a9.243 9.243 0 0 1 .412 3.918c-.145 1.337-.663 2.63-1.549 3.878-.725 1.02-1.513 1.792-2.364 2.317a10.01 10.01 0 0 1-2.663 1.157c-.925.247-1.859.408-2.796.49-.941.079-1.831.157-2.67.232-.839.074-1.628.211-2.365.415-.741.204-1.349.561-1.823 1.067a1.852 1.852 0 0 1-.859.482c-.09.02-.18.032-.267.032Z"/><path fill="#0A2B34" d="M192.859 141.737h-35.664V55.322c0-15.63 12.67-28.296 28.296-28.296h3.294c15.627 0 28.296 12.666 28.296 28.296v62.193c0 13.379-10.846 24.222-24.222 24.222ZM153.728 349.768c-.294 2.168-.917 4.701-1.035 10.846-.125 6.58-1.333 8.917-1.494 14.321-.184 6.176.882 8.486 3.388 11.956 2.506 3.47 9.082 6.619 11.862.753 2.812-5.937 2.42-9.709 1.533-15.764-.921-6.262-1.039-9.721-1.568-14.497a133.474 133.474 0 0 0-1.032-7.404l-11.654-.211Z"/><path fill="#F69DA3" d="m172.417 306.029-21.689-.392c.322 14.478 2.624 30.547 3 44.131.067 2.556-.066 19.869.898 25.128 1.451 7.905 10.831 6.838 11.329 2.109.498-4.733-.604-24.943-.573-27.026-.082-8.713 4-23.418 6.141-39.056.106-.769.792-4.145.894-4.894Z"/><path fill="#0A2B34" d="M200.275 338.502s-.855-.463-1.032.451c-.212 1.09-.525 3.329-.976 5.113-.628 2.482-1.149 6.568-.773 8.588.377 2.023 5.086 4.623 8.145 5.564 4.517 1.384 7.611 3.647 10.086 5.972 3.027 2.855 9.568 5.549 14.018 5.514 5.271-.035 8.941-1.753 10.678-4.572 1.812-2.949-1.58-3.165-7.603-7.071-1.369-.886-2.922-1.89-4.675-3.035-9.536-6.231-13.03-9.572-15.728-15.803l-12.14-.721Z"/><path fill="#F69DA3" d="M212.489 334.643c-.16-4.482 2.914-42.511 2.914-42.511l-20.595 9.391c4.408 26.324 5.349 32.532 5.427 36.837-.035.102-.121.467-.117 1.102.019 5.118 5.791 7.874 10.293 11.286 1.78 1.345 6.953 5.321 12.176 7.949 3.274 1.643 9.917 1.792 10.74-.31-5.482-4.184-13.45-10.447-17.806-15.223-2.083-2.282-2.871-4.039-3.032-8.521Z"/><path fill="#335863" d="M159.614 164.771c-7.905 17.363-7.905 30.794-6.599 52.95 1.199 20.324 3.109 38.213 3.109 38.213-.306 3.608-5.317 10.643-5.964 26.579-.608 14.901 1.023 33.841 1.023 33.841s11.255 6.235 19.572-.055c0 0 8.031-38.335 10.379-56.985 2.055-16.277 5.624-37.072 5.624-37.072l7.556 36.982s-2.874 9.117-3.549 16.066c-1.058 10.968 5.074 32.512 5.074 32.512s11.627 3.466 18.725-2.828c0 0 2.659-35.025 3.647-48.24 1.325-17.693-1.463-65.604-3.647-90.963l-54.95-1Z"/><path fill="#0A2B34" d="m186.758 222.242 3.121-27.842s13.995-1.87 20.336-7.827c0 0-4.764 8.725-16.489 10.419l-4.517 25.905 5.105 36.327-7.556-36.982Z"/><path fill="#F69DA3" d="M243.421 157.932c.874-8.533.839-14.219.765-15.313-.306-4.415-1.098-5.137-7.27-12.964-8.341-10.568-15.458-20.065-22.987-29.516-5.373-6.748-11.019-7.787-16.537-7.482-3.858.216 3.667 18.756 7.459 29.724l21.634 23.273c.666.918.972 2.047.862 3.177l-1.329 19.81 6.478 8.666s9.811-8.458 10.925-19.375Z"/><path fill="#33BFBF" d="M176.55 93.257c-4.184.29-11.795.961-11.795.961-4.388 2.45-5.498 4.459-6.317 10.29-.345 2.482 1.678 9.101 3.411 18.504l3.298 17.442-.357 8.647c-1.713 5.278-5.58 11.839-8.991 21.509 16.763 9.352 30.817 9.701 43.566 8.062 9.721-1.247 14.866-3.6 16.583-5.921-.357-9.553-1.035-15.454-1.2-25.43-.07-4.196.181-8.423.345-13.247 6.521-5.356 6.596-14.269 3.039-20.026-8.266-13.383-16.301-21.806-21.622-21.375l-19.96.584Z"/><path fill="#33BFBF" d="M188.448 179.429c-9.819 0-20.528-2.055-32.649-8.819 3.411-9.67 7.278-16.231 8.991-21.509l.357-8.646-3.298-17.443c-1.604-8.689-3.45-14.999-3.45-17.865 0-.235.015-.451.039-.639.819-5.831 1.929-7.84 6.317-10.29 0 0 7.611-.67 11.795-.96l19.96-.585c.129-.008.263-.016.396-.016 5.317 0 13.164 8.337 21.226 21.391 1.494 2.424 2.349 5.404 2.353 8.447 0 4.051-1.514 8.203-5.043 11.281-.113.099-.231.2-.349.298-.145 4.259-.357 8.055-.357 11.768 0 .495.004.985.012 1.479.165 9.976.843 15.877 1.2 25.43-1.717 2.321-6.862 4.674-16.583 5.921-3.529.455-7.157.757-10.917.757Zm-12.733-53.103s-.925 9.984 10.094 13.391c1.674.518 3.227.738 4.654.738 7.627 0 11.655-6.239 11.655-6.239s-4.816 3.741-11.168 3.741c-1.655 0-3.416-.255-5.224-.898-8.736-3.098-10.011-10.733-10.011-10.733Z"/><path fill="#71CAC4" d="M190.463 140.455c-1.427 0-2.98-.22-4.654-.738-11.019-3.407-10.094-13.391-10.094-13.391s1.275 7.635 10.011 10.733c1.808.643 3.569.898 5.224.898 6.352 0 11.168-3.741 11.168-3.741s-4.028 6.239-11.655 6.239Z"/><path fill="#F69DA3" d="M212.497 65.843c-.329 14.493-5.031 18.078-7.387 19.105-2.361 1.031-6.91.404-11.325-.33v8.698s5.094 5.345 4.713 9.325c-.388 3.996-8.007 4.439-13.728.537-4.181-2.847-7.161-6.097-8.463-7.638a3.103 3.103 0 0 1-.733-2.004V73.07s-2.416 2.565-6.698-.368c-4.274-2.926-4.642-8.38-2.031-11.47 1.867-2.192 6.6-2.345 8.874 1.062 1.278 2.502 1.451 5.012 2.882 3.973 3.82-2.75 1.773-8.996 6.384-12.086l.02-.008a31.97 31.97 0 0 1 4.694-2.05c8.223-2.84 15.348-5.228 17.065-10.85 3.243 1.924 6.137 7.473 5.733 24.57Z"/><path fill="#C2686A" d="M198.192 76.89a1.904 1.904 0 0 1-3.807 0 1.904 1.904 0 0 1 3.807 0Z"/><path fill="#0A2B34" d="M195.016 63.647c.059 1.15-.792 2.122-1.898 2.177-1.106.05-2.047-.84-2.106-1.985-.059-1.152.792-2.125 1.898-2.176 1.106-.055 2.047.835 2.106 1.984ZM210.231 63.843c.051 1.047-.722 1.93-1.73 1.977-1.101.055-1.854-.655-1.913-1.804-.051-1.043.721-1.93 1.725-1.977 1.008-.047 1.863.761 1.918 1.804Z"/><path fill="#335863" d="M192.436 58.871c-3.957 0-5.498.953-5.498 3.408a5.508 5.508 0 0 0 5.498 5.501 5.508 5.508 0 0 0 5.501-5.501c0-2.455-1.541-3.408-5.501-3.408Zm0 9.937c-3.6 0-6.529-2.93-6.529-6.53 0-4.438 4.576-4.438 6.529-4.438 1.957 0 6.529 0 6.529 4.439 0 3.6-2.929 6.529-6.529 6.529ZM209.011 58.871c-3.956 0-5.497.953-5.497 3.408a5.507 5.507 0 0 0 5.497 5.501 5.509 5.509 0 0 0 5.502-5.501c0-2.455-1.545-3.408-5.502-3.408Zm0 9.937c-3.6 0-6.529-2.93-6.529-6.53 0-4.438 4.576-4.438 6.529-4.438 1.953 0 6.529 0 6.529 4.439 0 3.6-2.929 6.529-6.529 6.529Z"/><path fill="#F48A8F" d="m199.98 60.173.322 12.195 6.415-1.988-6.737-10.207ZM193.781 84.615c-4.663-.608-14.25-3.365-15.744-7.157 0 0 .498 2.384 3.36 4.84 2.867 2.454 12.384 5.218 12.384 5.218v-2.901Z"/><path fill="#0A2B34" d="m194 54.256-4.25 2.592c-.698-1.228-.31-2.796.866-3.514 1.173-.718 2.69-.306 3.384.922ZM211.325 57.146l-4.741-1.659c.412-1.333 1.808-2.047 3.117-1.588 1.306.455 2.036 1.91 1.624 3.247Z"/><path fill="#335863" d="M198.451 62.8a.52.52 0 0 1-.514-.521c0-.836 1.651-1.373 3.134-1.373 1.482 0 2.443.538 2.443 1.373a.517.517 0 0 1-1.032 0c-.047-.094-.521-.345-1.411-.345-.891 0-2.059.25-2.106.353a.513.513 0 0 1-.514.513ZM186.44 62.365l-.059-.004-11.474-1.047c-.207-.188-.749-.753-1.882-1.22l13.47 1.244a.516.516 0 0 1-.055 1.027Z"/><path fill="#F69DA3" d="M139.329 74.321c3.753-5.011 6.31-8.8 9.737-13.097 1.945-2.44 3.188-4.184 5.058-6.686 1.29-1.725 2.043-3.176 3.471-3.71 1.607-.604 3.156-1.792 4.188-2.878.741-.776 1.345-1.666 1.98-2.525a37.703 37.703 0 0 1 7.584-7.635c3.019-2.278 6.376-4.012 9.474-6.18 1.851-1.294 3.831-3.443 1.58-5.45-.67-.6-1.525-.958-2.404-1.15-5.462-1.192-10.227.69-15.567 2.059-2.326.592-4.608 1.337-6.804 2.298-1.067.463-2.129.972-3.015 1.725-1.377 1.18-2.2 2.859-3.094 4.435-2.404 4.231-7.38 7.965-10.882 11.258-4.11 3.867-7.78 7.408-12.466 11.674-4.219 3.835-8.349 7.376-12.215 11.568-3.2 3.467-2.035 6.18-1.58 7.117 2.607 5.365 5.529 7.286 9.015 10.612 6.043 5.756 26.857 22.312 33.759 27.778a11.358 11.358 0 0 1 3.384 4.416l1.317 3.062c7.87 1.447 13.125-10.368 6.604-24.594-1.055-2.31-2.733-4.275-4.784-5.769-8.215-5.995-24.34-18.328-24.34-18.328Z"/><path fill="#F48A8F" d="M139.329 74.321s-3.557 4.76-9.619 6.623c0 0 5.019 1.279 11.893-4.886l-2.274-1.737Z"/><path fill="#335863" d="M241.378 147.458h.027l-1.286-1.11v.02c-.29-.235-.741-.31-1.325-.149l-13.937 3.792c-1.294.349-2.694 1.659-3.133 2.925l-10.031 28.94c-.231.67-.141 1.188.185 1.478l-.012.004 1.329 1.141v-.016c.287.243.745.322 1.334.161l13.94-3.792c1.29-.353 2.694-1.663 3.133-2.929 1.969-5.686 8.058-23.254 10.027-28.94.247-.713.125-1.25-.251-1.525Z"/><path fill="#33BFBF" d="m212.984 182.989 10.03-28.943c.44-1.263 1.839-2.573 3.134-2.925l13.936-3.792c1.294-.349 1.984.392 1.545 1.654-1.969 5.69-8.058 23.254-10.027 28.94-.439 1.267-1.843 2.576-3.133 2.929l-13.94 3.792c-1.291.349-1.985-.392-1.545-1.655Z"/><path fill="#24444C" d="M224.63 151.924c-.725.573-1.349 1.361-1.62 2.126l-10.03 28.931c-.22.651-.153 1.161.137 1.451l-1.247-1.066.012-.016c-.33-.29-.42-.8-.189-1.474l10.031-28.944c.243-.713.816-1.439 1.49-2.011l1.416 1.003Z"/><path fill="#F48A8F" d="M237.551 160.645c-.984 2.949-4.486 4.914-10.243 6.279-5.756 1.364-8.948 7.478-8.019 9.336.933 1.863 10.235 3.588 13.956 3.059 3.721-.533 7.466-5.913 8.592-7.576 1.125-1.663 2.439-13.29 1.243-14.886s-3.71-1.348-3.71-1.348l-1.819 5.136Z"/></g><defs><clipPath id="a"><path fill="#fff" d="M0 0h473v441.609H0z"/></clipPath></defs></svg>