<svg width="918" height="601" viewBox="0 0 918 601" fill="none" xmlns="http://www.w3.org/2000/svg">
<path d="M783.588 450.525C604.288 553.625 313.688 553.625 134.488 450.525C-44.8125 347.425 -44.8125 180.325 134.388 77.325C313.688 -25.775 604.288 -25.775 783.588 77.325C962.788 180.325 962.788 347.425 783.588 450.525Z" fill="#F5F5F5"/>
<g clip-path="url(#clip0_1_5)">
<path d="M631.24 290.953C753.906 361.776 753.906 476.604 631.234 547.427C508.562 618.255 309.672 618.255 187.005 547.427C64.3333 476.604 64.3333 361.776 187.005 290.953C309.677 220.125 508.568 220.125 631.24 290.953Z" fill="#EAEAE9"/>
<path d="M420.708 449.865C463.01 474.287 463.01 513.885 420.708 538.307C378.406 562.729 309.823 562.729 267.521 538.307C225.219 513.885 225.219 474.287 267.521 449.865C309.823 425.443 378.406 425.443 420.708 449.865Z" fill="#D8D9D9"/>
<path d="M652.151 415.844L639.453 408.51C639.453 408.51 636.344 381.307 638.411 360.245C641.318 330.641 660.438 295.021 683.245 303.385C706.052 311.75 672.786 341.901 665.385 367.005C657.979 392.115 652.151 415.844 652.151 415.844Z" fill="#33BFBF"/>
<path d="M652.151 415.844L639.453 408.51C639.453 408.51 637.703 393.208 637.703 376.672C637.698 371.162 637.896 365.51 638.411 360.245C641.026 333.625 656.745 302.146 676.469 302.146C678.682 302.146 680.948 302.542 683.245 303.385C688.917 305.464 691.12 308.885 691.12 313.245C691.115 326.427 670.948 348.141 665.385 367.005C657.979 392.115 652.151 415.844 652.151 415.844Z" fill="#33BFBF"/>
<path d="M645.474 412.76H645.5C645.922 412.745 646.255 412.385 646.245 411.964C644.01 346.187 676.755 313.099 677.089 312.771C677.391 312.474 677.396 311.984 677.094 311.687C676.792 311.38 676.307 311.38 676.01 311.677C675.672 312.01 642.453 345.573 644.703 412.016C644.719 412.432 645.063 412.76 645.474 412.76Z" fill="white"/>
<path d="M660.141 420.417L651.099 415.198C651.099 415.198 649.568 396.531 658.714 373.859C666.682 354.115 686.453 337.74 696.396 341.182C706.339 344.62 706.089 351.672 701.245 359.068C696.396 366.463 666.906 384.094 660.141 420.417Z" fill="#33BFBF"/>
<path d="M655.37 418.432H655.375C655.802 418.432 656.146 418.089 656.141 417.661C655.964 376.073 695.016 347.964 695.411 347.682C695.755 347.437 695.839 346.958 695.589 346.615C695.349 346.266 694.87 346.182 694.521 346.432C694.12 346.714 654.422 375.286 654.604 417.672C654.604 418.094 654.948 418.432 655.37 418.432Z" fill="white"/>
<path d="M182 399.505L193.729 391.589C193.729 391.589 198.891 360.859 194.094 333.87C187.349 295.922 161.177 283.292 151.839 287.26C142.5 291.224 140.505 302.542 157.932 324.208C168.208 336.99 181.641 364.172 182 399.505Z" fill="#33BFBF"/>
<path d="M182 399.505C181.641 364.172 168.208 336.99 157.932 324.208C148.536 312.526 144.786 303.854 144.792 297.719C144.792 292.474 147.536 289.089 151.839 287.26C152.922 286.797 154.229 286.562 155.708 286.562C166.984 286.562 188.13 300.323 194.094 333.87C195.615 342.438 196.135 351.38 196.135 359.594C196.135 377.271 193.729 391.589 193.729 391.589L182 399.505Z" fill="#33BFBF"/>
<path d="M186.026 384.302L185.911 384.297C185.443 384.24 185.109 383.818 185.167 383.354C189.401 347.625 174.318 308.859 157.911 293.432C157.568 293.115 157.552 292.573 157.875 292.234C158.198 291.896 158.734 291.875 159.078 292.198C175.781 307.901 191.151 347.297 186.854 383.552C186.802 383.979 186.443 384.297 186.026 384.302Z" fill="white"/>
<path d="M151.281 420.224C149.417 421.344 143.979 417.307 142.469 416.339C139.896 414.677 137.786 412.302 136.365 409.594C134.708 406.443 134.24 403.036 134.672 399.51C134.896 397.677 135.37 395.891 135.849 394.109C136.312 392.359 136.781 390.609 137.245 388.859C137.708 387.13 138.172 385.349 137.911 383.578C137.385 380.021 134.167 377.578 131.245 375.479C128.016 373.151 124.635 370.068 124.568 365.771C124.521 362.453 126.177 359.344 128.182 356.698C130.187 354.057 132.583 351.708 134.385 348.927C135.687 346.922 136.682 344.578 136.422 342.208C136.255 340.734 135.615 339.354 134.885 338.062C133.312 335.297 131.26 332.771 130.156 329.786C129.052 326.797 129.13 323.057 131.432 320.859C133.323 319.057 136.182 318.755 138.792 318.875C141.208 318.99 143.583 320.031 145.719 321.167C152.615 324.828 156.661 332.833 163.958 335.615C166.776 336.687 169.839 336.87 172.766 337.583C175.693 338.297 178.687 339.729 180.089 342.396C182.849 347.651 178.042 354.292 180.021 359.885C181.771 364.844 186.651 366.656 189.458 371.099C190.687 373.042 191.005 375.307 190.859 377.599C190.609 381.484 190.094 384.339 188.318 388.687C186.849 392.276 182.49 399.177 182.49 399.177C182.49 399.177 151.562 420.052 151.281 420.224Z" fill="#33BFBF"/>
<path d="M169.302 409.172H169.281C168.797 409.161 168.427 408.771 168.437 408.302C169.187 374.547 152.578 337.615 140.812 327.021C140.464 326.708 140.437 326.172 140.75 325.818C141.062 325.469 141.599 325.443 141.948 325.755C153.953 336.562 170.901 374.109 170.135 408.339C170.125 408.797 169.755 409.161 169.302 409.172Z" fill="white"/>
<path d="M163.083 368.047L162.833 368.016C151.932 364.87 138.417 364.542 138.281 364.542C137.807 364.531 137.437 364.141 137.448 363.672C137.458 363.203 137.807 362.828 138.318 362.839C138.453 362.844 152.187 363.177 163.302 366.38C163.755 366.51 164.016 366.979 163.885 367.432C163.781 367.802 163.448 368.042 163.083 368.047Z" fill="white"/>
<path d="M522.865 252.313L524.807 251.188C525.281 250.911 525.661 250.552 525.948 250.094C526.234 249.641 526.375 249.052 526.375 248.333C526.375 247.615 526.234 247.198 525.948 247.083C525.661 246.974 525.281 247.052 524.807 247.328L522.865 248.448V252.313ZM524.87 244.88C525.88 244.292 526.667 244.208 527.229 244.62C527.786 245.026 528.068 245.943 528.068 247.354C528.068 248.771 527.786 250.016 527.229 251.083C526.667 252.156 525.88 252.979 524.87 253.568L522.865 254.724V259.031C522.865 259.172 522.828 259.313 522.76 259.453C522.698 259.599 522.615 259.693 522.526 259.745L521.51 260.328L521.271 260.318C521.203 260.25 521.172 260.151 521.172 260.005V247.536C521.172 247.396 521.203 247.25 521.271 247.109C521.339 246.969 521.417 246.87 521.51 246.818L524.87 244.88Z" fill="#F9F9F8"/>
<path d="M534.349 247.88L532.969 243.177L531.589 249.474L534.349 247.88ZM533.656 239.802C533.792 239.724 533.896 239.719 533.958 239.792C534.026 239.865 534.089 239.995 534.135 240.182L537.208 250.615L537.219 250.74C537.219 250.88 537.187 251.021 537.12 251.161C537.052 251.307 536.974 251.406 536.88 251.458L535.979 251.979C535.813 252.073 535.693 252.089 535.63 252.016L535.49 251.776L534.953 249.948L530.99 252.234L530.448 254.688C530.422 254.807 530.375 254.938 530.313 255.089C530.245 255.234 530.13 255.354 529.958 255.453L529.057 255.974L528.818 255.958C528.75 255.891 528.719 255.792 528.719 255.651L528.734 255.505L531.802 241.531C531.854 241.281 531.911 241.083 531.979 240.938C532.047 240.792 532.146 240.677 532.281 240.599L533.656 239.802Z" fill="#F9F9F8"/>
<path d="M399.245 57.3958C399.792 57.5156 400.214 57.8177 400.526 58.3021C400.833 58.7917 400.927 59.3021 400.807 59.849L399.359 66.3906C399.234 66.9375 398.932 67.3646 398.448 67.6719C397.964 67.9844 397.453 68.0781 396.906 67.9583L390.51 66.5417C389.964 66.4167 389.536 66.1146 389.229 65.6302C388.922 65.1458 388.823 64.6354 388.948 64.0885L390.396 57.5417C390.516 57 390.818 56.5729 391.302 56.2604C391.792 55.9531 392.302 55.8594 392.849 55.9792L399.245 57.3958ZM405.625 14.5C407.953 15.0156 410.151 15.8438 412.214 16.974C414.276 18.1042 416.026 19.4948 417.453 21.1406C418.885 22.7813 419.917 24.6458 420.542 26.7396C421.172 28.8281 421.219 31.0885 420.682 33.5156C420.24 35.5 419.547 37.151 418.604 38.4792C417.661 39.8021 416.578 40.9375 415.354 41.8906C414.13 42.8438 412.839 43.6771 411.484 44.3854C410.13 45.1042 408.849 45.7813 407.641 46.4219C406.432 47.0677 405.339 47.7708 404.365 48.5417C403.385 49.3177 402.703 50.2344 402.312 51.2917C402.089 51.8125 401.766 52.2344 401.328 52.5521C400.896 52.875 400.406 52.974 399.859 52.8542L394.208 51.599C393.661 51.4792 393.224 51.1771 392.891 50.6823C392.557 50.1927 392.474 49.6823 392.646 49.151C393.172 47.2396 393.958 45.6302 395 44.3281C396.042 43.026 397.198 41.901 398.474 40.9635C399.75 40.0208 401.073 39.2083 402.448 38.526C403.818 37.8438 405.099 37.1771 406.286 36.526C407.469 35.8802 408.474 35.1927 409.312 34.4688C410.151 33.7448 410.682 32.8594 410.917 31.8177C411.328 29.9375 410.88 28.2083 409.562 26.6458C408.245 25.0781 406.271 24.0052 403.646 23.4219C399.432 22.4896 395.865 23.9115 392.953 27.6875C392.583 28.1771 392.234 28.526 391.901 28.7396C391.568 28.9531 391.078 28.9896 390.432 28.8438L384.411 27.5104C383.964 27.4115 383.615 27.1771 383.359 26.8073C383.099 26.4375 383.026 26.0104 383.135 25.5104C383.568 23.7917 384.495 22.1354 385.911 20.5469C387.328 18.9635 389.057 17.6302 391.089 16.5469C393.125 15.4635 395.401 14.7083 397.911 14.276C400.427 13.8437 402.995 13.9167 405.625 14.5Z" fill="#33BFBF"/>
<path d="M419.63 106.177C420.01 106.12 420.365 106.203 420.687 106.432C421.01 106.667 421.198 106.974 421.26 107.349L422.01 111.917C422.073 112.297 421.984 112.651 421.755 112.974C421.521 113.297 421.214 113.484 420.839 113.547L416.375 114.276C415.995 114.339 415.641 114.255 415.318 114.026C414.995 113.792 414.807 113.484 414.745 113.104L413.995 108.536C413.937 108.161 414.021 107.807 414.25 107.484C414.484 107.161 414.792 106.969 415.172 106.906L419.63 106.177ZM412.74 77.0469C414.365 76.7813 415.984 76.7448 417.599 76.9479C419.208 77.1458 420.687 77.5833 422.026 78.2708C423.365 78.9583 424.5 79.8906 425.437 81.0729C426.375 82.25 426.984 83.6875 427.26 85.3802C427.484 86.7656 427.469 88.0052 427.203 89.0938C426.937 90.1875 426.531 91.1927 425.99 92.1146C425.448 93.0365 424.839 93.9011 424.151 94.7083C423.464 95.5104 422.818 96.2761 422.208 96.9948C421.594 97.7188 421.078 98.4531 420.646 99.1979C420.219 99.9375 420.016 100.703 420.036 101.479C420.031 101.87 419.927 102.224 419.729 102.542C419.531 102.859 419.245 103.047 418.865 103.109L414.922 103.755C414.536 103.818 414.182 103.734 413.839 103.505C413.5 103.276 413.318 102.969 413.292 102.583C413.141 101.219 413.229 99.9896 413.568 98.8854C413.901 97.7865 414.354 96.7656 414.932 95.8386C415.51 94.9115 416.151 94.0521 416.854 93.2604C417.562 92.474 418.208 91.7188 418.802 91C419.396 90.2813 419.865 89.5833 420.219 88.9063C420.568 88.224 420.687 87.5208 420.568 86.7969C420.354 85.4844 419.625 84.4896 418.375 83.8229C417.13 83.1563 415.589 82.974 413.755 83.2708C410.818 83.7552 408.896 85.5781 407.99 88.7448C407.88 89.1511 407.75 89.4688 407.589 89.6875C407.427 89.9115 407.125 90.0573 406.677 90.1302L402.474 90.8177C402.161 90.8698 401.875 90.8073 401.615 90.6406C401.359 90.4688 401.198 90.2083 401.141 89.8646C400.979 88.6458 401.151 87.349 401.651 85.9688C402.156 84.5938 402.922 83.2969 403.948 82.0781C404.974 80.8646 406.24 79.7969 407.74 78.875C409.24 77.9583 410.906 77.349 412.74 77.0469Z" fill="#33BFBF"/>
<path d="M416.135 114.297C415.844 114.297 415.573 114.208 415.318 114.026C414.995 113.792 414.807 113.484 414.745 113.104L413.995 108.536C413.984 108.458 413.979 108.38 413.979 108.302C413.979 108.01 414.068 107.74 414.25 107.484C414.484 107.161 414.792 106.969 415.172 106.906L419.63 106.177C419.708 106.167 419.792 106.161 419.865 106.161C420.156 106.161 420.432 106.25 420.688 106.432C421.01 106.667 421.198 106.974 421.26 107.349L422.01 111.917C422.021 112 422.026 112.078 422.026 112.156C422.026 112.448 421.938 112.719 421.755 112.974C421.521 113.297 421.214 113.484 420.839 113.547L416.375 114.276C416.292 114.292 416.214 114.297 416.135 114.297ZM414.677 103.771C414.385 103.771 414.104 103.682 413.839 103.505C413.5 103.276 413.318 102.969 413.292 102.583C413.245 102.156 413.219 101.745 413.219 101.344C413.219 100.464 413.339 99.6458 413.568 98.8854C413.901 97.7865 414.354 96.7656 414.932 95.8386C415.51 94.9115 416.151 94.0521 416.854 93.2604C417.563 92.474 418.208 91.7188 418.802 91C419.396 90.2813 419.865 89.5833 420.219 88.9063C420.479 88.3958 420.615 87.8698 420.615 87.3386C420.615 87.1563 420.599 86.9792 420.568 86.7969C420.354 85.4844 419.625 84.4896 418.375 83.8229C417.516 83.3646 416.516 83.1354 415.375 83.1354C414.865 83.1354 414.328 83.1823 413.755 83.2708C410.818 83.7552 408.896 85.5781 407.99 88.7448C407.88 89.1511 407.75 89.4688 407.589 89.6875C407.427 89.9115 407.125 90.0573 406.677 90.1302L402.474 90.8177C402.401 90.8281 402.328 90.8386 402.26 90.8386C402.031 90.8386 401.818 90.7708 401.615 90.6406C401.359 90.4688 401.198 90.2083 401.141 89.8646C401.104 89.5677 401.083 89.2708 401.083 88.9636C401.083 88.0156 401.271 87.0156 401.651 85.9688C402.156 84.5938 402.922 83.2969 403.948 82.0781C404.974 80.8646 406.24 79.7969 407.74 78.875C409.24 77.9583 410.906 77.349 412.74 77.0469C413.672 76.8958 414.604 76.8177 415.531 76.8177C416.219 76.8177 416.911 76.8594 417.599 76.9479C419.208 77.1458 420.688 77.5833 422.026 78.2708C423.365 78.9583 424.5 79.8906 425.438 81.0729C426.375 82.25 426.984 83.6875 427.26 85.3802C427.365 86.0208 427.417 86.625 427.417 87.2031C427.417 87.875 427.344 88.5052 427.203 89.0938C426.938 90.1875 426.531 91.1927 425.99 92.1146C425.448 93.0365 424.839 93.9011 424.151 94.7083C423.464 95.5104 422.818 96.2761 422.208 96.9948C421.594 97.7188 421.078 98.4531 420.646 99.1979C420.24 99.9063 420.036 100.63 420.036 101.37C420.036 101.406 420.036 101.443 420.036 101.479C420.031 101.87 419.927 102.224 419.729 102.542C419.531 102.859 419.245 103.047 418.865 103.109L414.922 103.755C414.839 103.766 414.76 103.771 414.677 103.771Z" fill="#33BFBF"/>
<path d="M468.911 53.9427C470.505 55.0729 471.896 56.3958 473.089 57.9063C474.281 59.4167 475.156 61.0156 475.708 62.7083C476.266 64.4063 476.448 66.1354 476.255 67.9115C476.063 69.6875 475.375 71.4063 474.198 73.0625C473.234 74.4167 472.188 75.4427 471.057 76.1406C469.922 76.8385 468.745 77.349 467.521 77.6771C466.292 78.0052 465.052 78.2188 463.807 78.3281C462.557 78.4323 461.375 78.5365 460.26 78.6354C459.146 78.7344 458.099 78.9167 457.12 79.1875C456.135 79.4583 455.328 79.9323 454.698 80.6042C454.365 80.9271 453.984 81.1406 453.557 81.2448C453.125 81.3438 452.729 81.2604 452.354 81L448.495 78.2552C448.125 77.9896 447.885 77.625 447.792 77.1458C447.698 76.6719 447.797 76.2604 448.099 75.9115C449.104 74.6406 450.208 73.6771 451.411 73.026C452.609 72.3802 453.839 71.901 455.099 71.599C456.359 71.2969 457.615 71.1042 458.865 71.0313C460.12 70.9531 461.297 70.8594 462.396 70.7448C463.49 70.6354 464.469 70.4375 465.333 70.1615C466.193 69.8802 466.875 69.3854 467.38 68.6771C468.297 67.3854 468.505 65.9479 468.01 64.349C467.521 62.75 466.375 61.3125 464.583 60.0365C461.703 57.9896 458.563 57.9271 455.167 59.8386C454.729 60.0938 454.354 60.2448 454.036 60.2969C453.719 60.3542 453.339 60.224 452.901 59.9115L448.786 56.9844C448.479 56.7708 448.292 56.4844 448.214 56.125C448.141 55.7604 448.224 55.4167 448.464 55.0781C449.339 53.9167 450.563 52.9635 452.135 52.2188C453.708 51.4792 455.432 51.0208 457.313 50.8542C459.188 50.6875 461.141 50.8385 463.172 51.3177C465.203 51.7917 467.12 52.6667 468.911 53.9427ZM450.443 84.224C450.813 84.4896 451.036 84.8542 451.12 85.3177C451.198 85.7813 451.104 86.1979 450.839 86.5729L447.661 91.0417C447.396 91.4115 447.031 91.6406 446.573 91.7136C446.104 91.7969 445.688 91.7031 445.318 91.4375L440.953 88.3333C440.578 88.0677 440.354 87.7031 440.276 87.2396C440.193 86.776 440.292 86.3594 440.552 85.9896L443.729 81.5208C443.995 81.1458 444.359 80.9219 444.823 80.8438C445.286 80.7656 445.703 80.8594 446.078 81.125L450.443 84.224Z" fill="#33BFBF"/>
<path d="M446.255 91.7448C445.917 91.7448 445.604 91.6406 445.318 91.4375L440.953 88.3333C440.578 88.0677 440.354 87.7031 440.276 87.2396C440.255 87.1354 440.25 87.0312 440.25 86.9323C440.245 86.5885 440.349 86.276 440.552 85.9896L443.729 81.5208C443.995 81.1458 444.359 80.9219 444.823 80.8437C444.927 80.8229 445.031 80.8177 445.135 80.8177C445.474 80.8177 445.786 80.9167 446.078 81.125L450.443 84.2239C450.812 84.4896 451.036 84.8542 451.12 85.3177C451.135 85.4219 451.146 85.526 451.146 85.625C451.146 85.9687 451.042 86.2864 450.839 86.5729L447.661 91.0417C447.396 91.4114 447.031 91.6406 446.573 91.7135C446.464 91.7344 446.359 91.7448 446.255 91.7448ZM453.203 81.2864C452.906 81.2864 452.625 81.1875 452.354 81L448.495 78.2552C448.125 77.9896 447.885 77.625 447.792 77.1458C447.771 77.0312 447.76 76.9219 447.76 76.8125C447.76 76.4739 447.87 76.1771 448.099 75.9114C449.104 74.6406 450.208 73.6771 451.411 73.026C452.609 72.3802 453.839 71.901 455.099 71.5989C456.359 71.2969 457.615 71.1042 458.865 71.0312C460.12 70.9531 461.297 70.8594 462.396 70.7448C463.49 70.6354 464.469 70.4375 465.333 70.1614C466.193 69.8802 466.875 69.3854 467.38 68.6771C467.974 67.8437 468.271 66.9427 468.271 65.9739C468.271 65.4531 468.187 64.9114 468.01 64.3489C467.521 62.75 466.375 61.3125 464.583 60.0364C463.094 58.9792 461.536 58.4531 459.911 58.4531C458.391 58.4531 456.807 58.9114 455.167 59.8385C454.729 60.0937 454.354 60.2448 454.036 60.2969C453.99 60.3073 453.943 60.3125 453.896 60.3125C453.604 60.3125 453.276 60.1771 452.901 59.9114L448.786 56.9844C448.479 56.7708 448.292 56.4844 448.214 56.125C448.198 56.0364 448.187 55.9531 448.187 55.8698C448.187 55.5989 448.281 55.3333 448.464 55.0781C449.339 53.9167 450.562 52.9635 452.135 52.2187C453.708 51.4792 455.432 51.0208 457.312 50.8542C457.802 50.8125 458.297 50.7917 458.802 50.7917C460.214 50.7917 461.672 50.9635 463.172 51.3177C465.203 51.7917 467.12 52.6667 468.911 53.9427C470.505 55.0729 471.896 56.3958 473.089 57.9062C474.281 59.4167 475.156 61.0156 475.708 62.7083C476.12 63.9687 476.328 65.2448 476.328 66.5469C476.328 67 476.302 67.4531 476.255 67.9114C476.062 69.6875 475.375 71.4062 474.198 73.0625C473.234 74.4167 472.187 75.4427 471.057 76.1406C469.922 76.8385 468.745 77.3489 467.521 77.6771C466.292 78.0052 465.052 78.2187 463.807 78.3281C462.557 78.4323 461.375 78.5364 460.26 78.6354C459.146 78.7344 458.099 78.9167 457.12 79.1875C456.135 79.4583 455.328 79.9323 454.698 80.6042C454.365 80.9271 453.984 81.1406 453.557 81.2448C453.437 81.2708 453.318 81.2864 453.203 81.2864Z" fill="#81CFCE"/>
<path d="M351.156 202.255H303.786V87.4792C303.786 66.7188 320.615 49.8958 341.37 49.8958H345.745C366.5 49.8958 383.328 66.7188 383.328 87.4792V170.083C383.328 187.854 368.922 202.255 351.156 202.255Z" fill="#0A2B34"/>
<path d="M299.182 478.562C298.792 481.443 297.964 484.807 297.807 492.969C297.641 501.708 296.036 504.813 295.823 511.99C295.578 520.193 296.995 523.26 300.323 527.87C303.651 532.479 312.385 536.661 316.078 528.87C319.812 520.984 319.292 515.974 318.115 507.932C316.891 499.615 316.734 495.021 316.031 488.677C315.406 483.089 314.661 478.844 314.661 478.844L299.182 478.562Z" fill="#0A2B34"/>
<path d="M324.005 420.469L295.198 419.948C295.625 439.177 298.682 460.521 299.182 478.562C299.271 481.958 299.094 504.953 300.375 511.937C302.302 522.437 314.76 521.021 315.422 514.74C316.083 508.453 314.62 481.609 314.661 478.844C314.552 467.271 319.974 447.74 322.818 426.969C322.958 425.948 323.87 421.463 324.005 420.469Z" fill="#F69DA3"/>
<path d="M361.005 463.599C361.005 463.599 359.87 462.984 359.635 464.198C359.354 465.646 358.938 468.62 358.339 470.99C357.505 474.286 356.813 479.714 357.313 482.396C357.813 485.083 364.068 488.536 368.13 489.786C374.13 491.625 378.24 494.63 381.526 497.719C385.547 501.51 394.234 505.089 400.146 505.042C407.146 504.995 412.021 502.714 414.328 498.969C416.734 495.052 412.229 494.766 404.229 489.578C402.411 488.401 400.349 487.068 398.021 485.547C385.354 477.271 380.714 472.833 377.13 464.557L361.005 463.599Z" fill="#0A2B34"/>
<path d="M377.229 458.474C377.016 452.521 381.099 402.01 381.099 402.01L353.745 414.484C359.599 449.448 360.849 457.693 360.953 463.411C360.906 463.547 360.792 464.031 360.797 464.875C360.823 471.672 368.49 475.333 374.469 479.865C376.833 481.651 383.703 486.932 390.641 490.422C394.99 492.604 403.812 492.802 404.906 490.01C397.625 484.453 387.042 476.135 381.255 469.792C378.49 466.76 377.443 464.427 377.229 458.474Z" fill="#F69DA3"/>
<path d="M307 232.849C296.5 255.911 296.5 273.75 298.234 303.177C299.828 330.172 302.365 353.932 302.365 353.932C301.958 358.724 295.302 368.068 294.443 389.234C293.635 409.026 295.802 434.182 295.802 434.182C295.802 434.182 310.75 442.464 321.797 434.109C321.797 434.109 332.464 383.193 335.583 358.422C338.312 336.802 343.052 309.182 343.052 309.182L353.089 358.302C353.089 358.302 349.271 370.411 348.375 379.641C346.969 394.208 355.115 422.823 355.115 422.823C355.115 422.823 370.557 427.427 379.984 419.068C379.984 419.068 383.516 372.547 384.828 354.995C386.589 331.495 382.885 267.859 379.984 234.177L307 232.849Z" fill="#335863"/>
<path d="M343.052 309.182L347.198 272.203C347.198 272.203 365.786 269.719 374.208 261.807C374.208 261.807 367.88 273.396 352.307 275.646L346.307 310.052L353.089 358.302L343.052 309.182Z" fill="#0A2B34"/>
<path d="M418.312 223.766C419.474 212.432 419.427 204.88 419.328 203.427C418.922 197.562 417.87 196.604 409.672 186.208C398.594 172.172 389.141 159.557 379.141 147.005C372.005 138.042 364.505 136.661 357.177 137.068C352.052 137.354 362.047 161.979 367.083 176.547L395.818 207.458C396.703 208.677 397.109 210.177 396.964 211.677L395.198 237.99L403.802 249.5C403.802 249.5 416.833 238.266 418.312 223.766Z" fill="#F69DA3"/>
<path d="M329.495 137.865C323.937 138.25 313.828 139.141 313.828 139.141C308 142.396 306.526 145.063 305.437 152.807C304.979 156.104 307.667 164.896 309.969 177.385L314.349 200.552L313.875 212.036C311.599 219.047 306.464 227.76 301.932 240.604C324.198 253.026 342.865 253.49 359.797 251.313C372.708 249.656 379.542 246.531 381.823 243.448C381.349 230.76 380.448 222.922 380.229 209.672C380.135 204.099 380.469 198.484 380.687 192.078C389.349 184.964 389.448 173.125 384.724 165.479C373.745 147.703 363.073 136.516 356.005 137.089L329.495 137.865Z" fill="#33BFBF"/>
<path d="M345.297 252.318C332.255 252.318 318.031 249.589 301.932 240.604C306.464 227.76 311.599 219.047 313.875 212.036L314.349 200.552L309.969 177.385C307.839 165.844 305.385 157.464 305.385 153.656C305.385 153.344 305.406 153.057 305.437 152.807C306.526 145.063 308 142.396 313.828 139.141C313.828 139.141 323.937 138.25 329.495 137.865L356.005 137.089C356.177 137.078 356.354 137.068 356.531 137.068C363.594 137.068 374.016 148.141 384.724 165.479C386.708 168.698 387.844 172.656 387.849 176.698C387.849 182.078 385.839 187.594 381.151 191.682C381 191.813 380.844 191.948 380.687 192.078C380.495 197.734 380.214 202.776 380.214 207.708C380.214 208.365 380.219 209.016 380.229 209.672C380.448 222.922 381.349 230.76 381.823 243.448C379.542 246.531 372.708 249.656 359.797 251.313C355.109 251.917 350.292 252.318 345.297 252.318ZM328.385 181.786C328.385 181.786 327.156 195.047 341.792 199.573C344.016 200.26 346.078 200.552 347.974 200.552C358.104 200.552 363.453 192.266 363.453 192.266C363.453 192.266 357.057 197.234 348.62 197.234C346.422 197.234 344.083 196.896 341.682 196.042C330.078 191.927 328.385 181.786 328.385 181.786Z" fill="#33BFBF"/>
<path d="M347.974 200.552C346.078 200.552 344.016 200.26 341.792 199.573C327.156 195.047 328.385 181.786 328.385 181.786C328.385 181.786 330.078 191.927 341.682 196.042C344.083 196.896 346.422 197.234 348.62 197.234C357.057 197.234 363.453 192.266 363.453 192.266C363.453 192.266 358.104 200.552 347.974 200.552Z" fill="#71CAC4"/>
<path d="M377.24 101.453C376.802 120.703 370.557 125.464 367.427 126.828C364.292 128.198 358.25 127.365 352.385 126.391V137.943C352.385 137.943 359.151 145.042 358.646 150.328C358.13 155.635 348.01 156.224 340.411 151.042C334.859 147.26 330.901 142.943 329.172 140.896C328.542 140.146 328.198 139.214 328.198 138.234V111.052C328.198 111.052 324.99 114.458 319.302 110.563C313.625 106.677 313.135 99.4323 316.604 95.3281C319.083 92.4167 325.37 92.2136 328.391 96.7396C330.089 100.063 330.318 103.396 332.219 102.016C337.292 98.3646 334.573 90.0677 340.698 85.9636L340.724 85.9531C342.557 84.9636 344.635 84.0365 346.958 83.2292C357.88 79.4583 367.344 76.2865 369.625 68.8177C373.932 71.375 377.776 78.7448 377.24 101.453Z" fill="#F69DA3"/>
<path d="M358.24 116.125C358.24 117.521 357.104 118.651 355.708 118.651C354.312 118.651 353.182 117.521 353.182 116.125C353.182 114.729 354.312 113.599 355.708 113.599C357.104 113.599 358.24 114.729 358.24 116.125Z" fill="#C2686A"/>
<path d="M354.021 98.5364C354.099 100.062 352.969 101.354 351.5 101.427C350.031 101.495 348.781 100.312 348.703 98.7917C348.625 97.2604 349.755 95.9687 351.224 95.901C352.693 95.8281 353.943 97.0104 354.021 98.5364Z" fill="#0A2B34"/>
<path d="M374.229 98.7969C374.297 100.187 373.271 101.359 371.932 101.422C370.469 101.495 369.469 100.552 369.391 99.026C369.323 97.6406 370.349 96.4635 371.682 96.401C373.021 96.3385 374.156 97.4115 374.229 98.7969Z" fill="#0A2B34"/>
<path d="M350.594 92.1927C345.339 92.1927 343.292 93.4583 343.292 96.7187C343.292 100.745 346.568 104.026 350.594 104.026C354.625 104.026 357.901 100.745 357.901 96.7187C357.901 93.4583 355.854 92.1927 350.594 92.1927ZM350.594 105.391C345.812 105.391 341.922 101.5 341.922 96.7187C341.922 90.8229 348 90.8229 350.594 90.8229C353.193 90.8229 359.266 90.8229 359.266 96.7187C359.266 101.5 355.375 105.391 350.594 105.391Z" fill="#335863"/>
<path d="M372.609 92.1927C367.354 92.1927 365.307 93.4583 365.307 96.7187C365.307 100.745 368.583 104.026 372.609 104.026C376.641 104.026 379.917 100.745 379.917 96.7187C379.917 93.4583 377.865 92.1927 372.609 92.1927ZM372.609 105.391C367.828 105.391 363.938 101.5 363.938 96.7187C363.938 90.8229 370.016 90.8229 372.609 90.8229C375.203 90.8229 381.281 90.8229 381.281 96.7187C381.281 101.5 377.391 105.391 372.609 105.391Z" fill="#335863"/>
<path d="M360.615 93.9219L361.042 110.12L369.563 107.479L360.615 93.9219Z" fill="#F48A8F"/>
<path d="M352.38 126.385C346.188 125.578 333.453 121.917 331.469 116.88C331.469 116.88 332.13 120.047 335.932 123.307C339.74 126.568 352.38 130.24 352.38 130.24V126.385Z" fill="#F48A8F"/>
<path d="M352.672 86.0625L347.026 89.5052C346.099 87.875 346.615 85.7917 348.177 84.8386C349.734 83.8854 351.75 84.4323 352.672 86.0625Z" fill="#0A2B34"/>
<path d="M375.682 89.901L369.385 87.6979C369.932 85.9271 371.786 84.9792 373.526 85.5885C375.26 86.1927 376.229 88.125 375.682 89.901Z" fill="#0A2B34"/>
<path d="M358.583 97.4115C358.203 97.4115 357.901 97.0938 357.901 96.7188C357.901 95.6094 360.094 94.8958 362.062 94.8958C364.031 94.8958 365.307 95.6094 365.307 96.7188C365.307 97.0938 365 97.4011 364.62 97.4011C364.245 97.4011 363.937 97.0938 363.937 96.7188C363.875 96.5938 363.245 96.2604 362.062 96.2604C360.88 96.2604 359.328 96.5938 359.266 96.7292C359.266 97.1094 358.958 97.4115 358.583 97.4115Z" fill="#335863"/>
<path d="M342.63 96.8333L342.552 96.8281L327.313 95.4375C327.036 95.1875 326.318 94.4375 324.812 93.8177L342.703 95.4688C343.078 95.5104 343.349 95.849 343.307 96.224C343.271 96.5729 342.974 96.8333 342.63 96.8333Z" fill="#335863"/>
<path d="M280.057 112.714C285.042 106.057 288.437 101.026 292.99 95.3177C295.573 92.0781 297.224 89.7604 299.708 86.4375C301.422 84.1458 302.422 82.2187 304.318 81.5104C306.453 80.7083 308.51 79.1302 309.88 77.6875C310.865 76.6562 311.667 75.474 312.51 74.3333C315.359 70.4948 318.766 67.0677 322.583 64.1927C326.594 61.1667 331.052 58.8646 335.167 55.9844C337.625 54.2656 340.255 51.4114 337.266 48.7448C336.375 47.9479 335.24 47.4739 334.073 47.2187C326.818 45.6354 320.49 48.1354 313.396 49.9531C310.307 50.7396 307.276 51.7292 304.359 53.0052C302.943 53.6198 301.531 54.2969 300.354 55.2969C298.526 56.8646 297.432 59.0937 296.245 61.1875C293.052 66.8073 286.443 71.7656 281.792 76.1406C276.333 81.276 271.458 85.9792 265.234 91.6458C259.63 96.7396 254.146 101.443 249.01 107.01C244.76 111.615 246.307 115.219 246.911 116.464C250.375 123.589 254.255 126.141 258.885 130.557C266.911 138.203 294.557 160.193 303.724 167.453C305.687 169.005 307.229 171.021 308.219 173.318L309.969 177.385C320.422 179.307 327.401 163.615 318.74 144.719C317.339 141.651 315.109 139.042 312.385 137.057C301.474 129.094 280.057 112.714 280.057 112.714Z" fill="#F69DA3"/>
<path d="M280.057 112.714C280.057 112.714 275.333 119.036 267.281 121.51C267.281 121.51 273.948 123.208 283.078 115.021L280.057 112.714Z" fill="#F48A8F"/>
<path d="M415.599 209.854H415.635L413.927 208.38V208.406C413.542 208.094 412.943 207.995 412.167 208.208L393.656 213.245C391.937 213.708 390.078 215.448 389.495 217.13L376.172 255.568C375.865 256.458 375.984 257.146 376.417 257.531L376.401 257.536L378.167 259.052V259.031C378.547 259.354 379.156 259.458 379.937 259.245L398.453 254.208C400.167 253.74 402.031 252 402.615 250.318C405.229 242.766 413.318 219.432 415.932 211.88C416.26 210.932 416.099 210.219 415.599 209.854Z" fill="#335863"/>
<path d="M377.885 257.047L391.208 218.604C391.792 216.927 393.651 215.188 395.37 214.719L413.88 209.682C415.599 209.219 416.516 210.203 415.932 211.88C413.318 219.438 405.229 242.766 402.615 250.318C402.031 252 400.167 253.74 398.453 254.208L379.938 259.245C378.224 259.708 377.302 258.724 377.885 257.047Z" fill="#33BFBF"/>
<path d="M393.354 215.786C392.391 216.547 391.563 217.594 391.203 218.609L377.88 257.036C377.589 257.901 377.677 258.578 378.063 258.964L376.406 257.547L376.422 257.526C375.984 257.141 375.865 256.464 376.172 255.568L389.495 217.125C389.818 216.177 390.578 215.214 391.474 214.453L393.354 215.786Z" fill="#24444C"/>
<path d="M410.516 227.37C409.208 231.286 404.557 233.896 396.911 235.708C389.266 237.521 385.026 245.641 386.26 248.109C387.5 250.583 399.854 252.875 404.797 252.172C409.74 251.464 414.714 244.318 416.208 242.109C417.703 239.901 419.448 224.458 417.859 222.339C416.271 220.219 412.932 220.547 412.932 220.547L410.516 227.37Z" fill="#F48A8F"/>
</g>
<defs>
<clipPath id="clip0_1_5">
<rect width="628.24" height="586.547" fill="white" transform="translate(95 14)"/>
</clipPath>
</defs>
</svg>
