<svg xmlns="http://www.w3.org/2000/svg" width="4629" height="922" fill="none"><g clip-path="url(#a)"><path fill="#fff" d="M0 0h4629v922H0z"/><path stroke="#FF8174" stroke-miterlimit="10" stroke-width="1.333" d="M1775.65 1643.23C721.682 1191.34 553.995 988.853 937.255 645.366c383.275-343.498-341.333-289.26-323.379-527.892C631.85-121.17 1955.32 121.083 2069.1-258.569 2182.88-638.21 1524.15-772 1524.15-772"/><path stroke="#FF8174" stroke-miterlimit="10" stroke-width="1.333" d="M1765.07 1644.1C715.365 1195.13 529.424 989.551 900.429 645.366c371.001-344.184-339.639-301.652-310.824-541.5C618.399-135.969 1900 101.46 2008.2-268.892c108.21-370.353-544.27-498.103-544.27-498.103"/><path stroke="#FF8174" stroke-miterlimit="10" stroke-width="1.333" d="M1754.49 1644.96C709.048 1198.92 504.874 990.248 863.604 645.378 1222.35 300.509 525.678 331.321 565.333 90.283c39.636-241.05 1279.347-8.446 1381.947-369.498 102.63-361.052-543.55-482.787-543.55-482.787"/><path stroke="#FF8174" stroke-miterlimit="10" stroke-width="1.333" d="M1743.89 1645.83C702.731 1202.71 480.304 990.934 826.778 645.378 1173.27 299.823 490.566 318.929 541.042 76.675 591.517-165.578 1789.34 62.214 1886.39-289.538c97.04-351.764-542.88-467.471-542.88-467.471"/><path stroke="#FF8174" stroke-miterlimit="10" stroke-width="1.333" d="M1733.31 1646.71C696.434 1206.51 455.734 991.632 789.953 645.39 1124.17 299.137 455.455 306.536 516.771 63.08 578.087-180.377 1734.02 42.59 1825.49-299.873c91.47-342.452-542.18-452.143-542.18-452.143"/><path stroke="#FF8174" stroke-miterlimit="10" stroke-width="1.333" d="M1722.71 1647.57C690.118 1210.3 431.183 992.317 753.127 645.39 1075.09 298.451 420.343 294.144 492.479 49.484c72.157-244.66 1186.231-26.518 1272.111-359.681 85.87-333.163-541.5-436.826-541.5-436.826"/><path stroke="#FF8174" stroke-miterlimit="10" stroke-width="1.333" d="M1712.12 1648.44C683.8 1214.09 406.613 993.015 716.302 645.39 1025.99 297.765 385.231 281.763 468.208 35.888 551.185-209.987 1623.39 3.343 1703.67-320.52c80.31-323.862-540.78-421.51-540.78-421.51"/><path stroke="#FF8174" stroke-miterlimit="10" stroke-width="1.333" d="M1701.54 1649.31C677.484 1217.88 382.043 993.713 679.476 645.402 976.91 297.079 350.12 269.359 443.937 22.292 537.754-224.784 1568.07-16.28 1642.78-330.841c74.72-314.575-540.11-406.195-540.11-406.195"/><path stroke="#FF8174" stroke-miterlimit="10" stroke-width="1.333" d="M1690.94 1650.17C671.167 1221.67 357.493 994.411 642.651 645.402 927.829 296.405 314.988 256.966 419.646 8.697c104.657-248.281 1093.084-44.6 1162.234-349.863 69.13-305.274-539.41-390.866-539.41-390.866"/><path stroke="#FF8174" stroke-miterlimit="10" stroke-width="1.333" d="M1680.34 1651.05C664.87 1225.48 332.922 995.097 605.825 645.415 878.748 295.72 279.876 244.587 395.374-4.898 510.872-254.382 1457.41-55.526 1520.98-351.5c63.55-295.962-538.73-375.538-538.73-375.538"/><path stroke="#FF8174" stroke-miterlimit="10" stroke-width="1.333" d="M1669.76 1651.92C658.553 1229.27 308.352 995.795 569 645.415c260.648-350.38-324.235-413.221-197.897-663.92C497.422-269.193 1402.1-75.15 1460.06-361.823c57.99-286.674-538.01-360.222-538.01-360.222"/><path stroke="#FF8174" stroke-miterlimit="10" stroke-width="1.333" d="M1659.16 1652.79C652.236 1233.06 283.802 996.493 532.174 645.415 780.567 294.349 209.653 219.802 346.812-32.101 483.99-283.992 1346.78-94.773 1399.17-372.146c52.41-277.374-537.34-344.906-537.34-344.906"/><path stroke="#FF8174" stroke-miterlimit="10" stroke-width="1.333" d="M1648.58 1653.65C645.919 1236.86 259.232 997.178 495.349 645.427 731.466 293.663 174.541 207.409 322.54-45.697c148-253.093 968.9-68.699 1015.73-336.772 46.81-268.085-536.64-329.59-536.64-329.59"/><path stroke="#FF8174" stroke-miterlimit="10" stroke-width="1.333" d="M1637.99 1654.53C639.602 1240.65 234.661 997.876 458.523 645.427c223.863-352.45-319.094-450.41-160.254-704.72C457.109-313.6 1236.12-134.02 1277.35-392.803c41.25-258.773-535.94-314.262-535.94-314.262"/><path stroke="#FF8174" stroke-miterlimit="10" stroke-width="1.333" d="M1627.39 1655.4C633.305 1244.44 210.111 998.574 421.698 645.427 633.305 292.303 104.317 182.625 273.977-72.888 443.658-328.4 1180.8-153.643 1216.45-403.127c35.65-249.484-535.24-298.934-535.24-298.934"/><path stroke="#FF8174" stroke-miterlimit="10" stroke-width="1.333" d="M1616.81 1656.26c-989.822-408.03-1431.269-657-1231.938-1010.821C584.204 291.617 69.186 170.232 249.706-86.483 430.207-343.2 1125.47-173.266 1155.56-413.45c30.07-240.184-534.57-283.63-534.57-283.63"/><path stroke="#FF8174" stroke-miterlimit="10" stroke-width="1.333" d="M1606.21 1657.14C620.671 1252.02 160.97 999.957 348.047 645.438 535.124 290.931 34.074 157.839 225.435-100.079 416.776-358.01 1070.15-192.89 1094.64-423.774c24.51-230.895-533.85-268.301-533.85-268.301"/><path stroke="#FF8174" stroke-miterlimit="10" stroke-width="1.333" d="M1595.63 1658.01C614.354 1255.81 136.42 1000.64 311.222 645.451 486.043 290.246-1.038 145.447 201.144-113.686c202.181-259.122 813.686-98.827 832.596-320.41 18.93-221.596-533.17-252.986-533.17-252.986"/><path stroke="#FF8174" stroke-miterlimit="10" stroke-width="1.333" d="M1585.05 1658.87C608.057 1259.61 111.85 1001.34 274.396 645.45c162.547-355.89-310.545-512.396-97.523-772.732 213.021-260.325 782.64-104.855 795.972-317.15C986.176-656.727 440.37-682.089 440.37-682.089"/><path stroke="#FF8174" stroke-miterlimit="10" stroke-width="1.333" d="M1574.45 1659.74C601.74 1263.4 87.28 1002.04 237.571 645.462c150.291-356.588-308.832-524.8-84.99-786.34 223.862-261.54 751.594-110.882 759.366-313.877 7.752-202.994-531.797-222.341-531.797-222.341"/><path stroke="#FF8174" stroke-miterlimit="10" stroke-width="1.333" d="M1563.87 1660.62C595.423 1267.19 62.73 1002.73 200.745 645.463 338.761 288.201-106.373 108.27 128.31-154.473c234.702-262.743 720.547-116.909 722.72-310.604 2.192-193.694-531.08-207.025-531.08-207.025"/><path stroke="#FF8174" stroke-miterlimit="10" stroke-width="1.333" d="M1553.26 1661.48C589.107 1270.98 38.16 1003.42 163.92 645.463c125.76-357.948-305.424-549.585-59.881-813.531C349.562-432.015 793.54-291.006 790.132-475.4 786.725-659.806 259.73-667.097 259.73-667.097"/><path stroke="#29D3D3" stroke-miterlimit="10" stroke-width="1.333" d="M2730.09 2372.37c262.17-782.06 848.55-981.08 1103.58-952.64 255.03 28.42 394.67 67.15 687.17-168.31 292.5-235.48 303.56-692.175 739.28-803.382 435.71-111.216 536.05-269.445 554.59-454.076 18.54-184.639-520.26-190.571-441.51-470.153 78.73-279.561 753.23-562.259 753.23-562.259"/><path stroke="#29D3D3" stroke-miterlimit="10" stroke-width="1.333" d="M2758.01 2388.07c262.2-782.07 838.61-1002.86 1093.64-974.44 255.03 28.44 387.78 87.92 680.28-147.55 292.5-235.48 312.35-679.884 748.07-791.092 435.72-111.207 501.24-282.803 519.8-467.444 18.52-184.629-451.47-195.731-372.74-475.293 78.75-279.583 710.47-556.041 710.47-556.041"/><path stroke="#29D3D3" stroke-miterlimit="10" stroke-width="1.333" d="M2785.96 2403.75c262.19-782.06 828.67-1024.65 1083.7-996.21 255.03 28.42 380.89 108.66 673.39-126.81 292.5-235.48 321.13-667.575 756.85-778.784 435.73-111.21 466.44-296.182 484.97-480.822 18.55-184.631-382.65-200.883-303.92-480.455 78.76-279.574 667.72-549.809 667.72-549.809"/><path stroke="#29D3D3" stroke-miterlimit="10" stroke-width="1.333" d="M2813.89 2419.45c262.19-782.07 818.72-1046.43 1073.73-1017.99 255.03 28.43 373.99 129.43 666.48-106.05 292.5-235.47 329.91-655.273 765.63-766.479 435.72-111.206 431.61-309.542 450.15-494.172 18.55-184.63-313.83-206.046-235.1-485.617 78.72-279.571 624.92-543.579 624.92-543.579"/><path stroke="#29D3D3" stroke-miterlimit="10" stroke-width="1.333" d="M2841.84 2435.13c262.19-782.07 808.76-1068.19 1063.79-1039.77 255.03 28.43 367.09 150.18 659.59-85.29 292.48-235.46 338.69-642.973 774.41-754.18 435.72-111.207 396.79-322.909 415.33-507.54 18.54-184.64-245.04-211.206-166.3-490.789C5667.39-722 6170.8-979.784 6170.8-979.784"/><path stroke="#29D3D3" stroke-miterlimit="10" stroke-width="1.333" d="M2869.79 2450.82c262.2-782.06 798.82-1089.99 1053.85-1061.55 255.01 28.43 360.18 170.94 652.68-64.53 292.5-235.48 347.48-630.68 783.2-741.899 435.72-111.208 361.99-336.277 380.53-520.917 18.54-184.631-176.25-216.358-97.51-495.921 78.74-279.583 539.4-531.133 539.4-531.133"/><path stroke="#29D3D3" stroke-miterlimit="10" stroke-width="1.333" d="M2897.74 2466.51c262.18-782.06 788.84-1111.75 1043.86-1083.33 255.03 28.43 353.29 191.71 645.79-43.77 292.49-235.47 356.26-618.382 791.98-729.589 435.72-111.208 327.17-349.651 345.71-534.281 18.54-184.64-107.43-221.52-28.7-501.092 78.75-279.572 496.61-524.895 496.61-524.895M2537.98 1885.58c219.82-118.32 466.57-262.04 569.06-455.86 65.41-123.71 54.59-240.61 17.99-336.47-39.54-103.593-105.65-209.85-31.04-343.317 32.23-57.645 87.51-111.567 147.52-156.677 71.6-53.835 151.74-97.343 231.93-125.92 136.57-48.684 285.02-61.104 402.41-157.617 127.58-104.88 151.28-249.365 237.69-368.578 106.54-146.958 284.06-285.814 461.37-345.907 178.81-60.598 315.59 8.322 478.21 8.486 211.36.242 475.24-126.894 655.76-305.99 180.51-179.106 275.36-401.25 258.58-576.62"/><path stroke="#29D3D3" stroke-miterlimit="10" stroke-width="1.333" d="M2523.73 1869.4c234.81-134.09 500.26-260.04 602.75-453.87 65.43-123.72 25.83-241.1-15.7-338.46-43.14-101.119-105.66-209.852-31.04-343.309 32.23-57.645 87.5-111.567 147.51-156.686 71.61-53.826 154.47-97.79 234.72-124.006 137.47-44.921 292.4-51.461 409.8-147.963 127.59-104.891 150.71-256.63 233.84-375.714 102.58-147.599 277.73-290.235 455.05-350.328 178.81-60.598 317.03 5.936 478.2 8.487 214.23 3.405 487.74-100.379 664.69-282.796 175.23-180.636 249.49-419.995 232.7-595.365"/><path stroke="#29D3D3" stroke-miterlimit="10" stroke-width="1.333" d="M2509.48 1853.22c249.79-149.86 533.97-258.05 636.46-451.87 65.42-123.73-2.81-241.62-49.41-340.46-46.52-98.743-105.67-209.839-31.03-343.307 32.22-57.656 87.5-111.577 147.51-156.687 71.61-53.825 157.21-98.225 237.51-122.101 138.38-41.158 299.77-41.806 417.19-138.319 127.58-104.88 150.43-263.828 229.96-382.838 99.03-148.181 271.43-294.658 448.74-354.76 178.81-60.598 318.45 3.622 478.21 8.497 217.09 6.62 500.21-73.813 673.63-259.612 169.95-182.086 223.57-438.723 206.81-614.093"/><path stroke="#29D3D3" stroke-miterlimit="10" stroke-width="1.333" d="M2495.23 1837.04c264.77-165.6 567.68-256.07 670.17-449.89 65.4-123.71-31.37-242.14-83.1-342.45-49.76-96.431-105.7-209.832-31.06-343.3 32.23-57.645 87.51-111.567 147.52-156.676 71.6-53.835 159.93-98.651 240.27-120.186 139.33-37.366 307.2-32.175 424.6-128.686 127.57-104.88 149.99-271.068 226.11-389.964 95.27-148.812 265.11-299.079 442.41-359.181 178.81-60.597 319.85 1.36 478.21 8.488 219.93 9.917 512.73-47.187 682.56-236.398 164.72-183.517 197.7-457.477 180.93-632.857"/><path stroke="#29D3D3" stroke-miterlimit="10" stroke-width="1.333" d="M2480.99 1820.86c279.77-181.37 601.37-254.07 703.86-447.91 65.41-123.7-59.79-242.71-116.81-344.41-52.82-94.221-105.66-209.859-31.04-343.316 32.23-57.646 87.5-111.567 147.5-156.686 71.61-53.825 162.69-99.057 243.06-118.281 140.3-33.545 314.59-22.511 431.99-119.023 127.58-104.879 149.54-278.328 222.25-397.098 91.49-149.453 258.79-303.511 436.11-363.603 178.81-60.597 321.21-.839 478.2 8.488 222.76 13.255 525.27-20.532 691.49-213.203 159.51-184.89 171.8-476.218 155.05-651.608"/><path stroke="#29D3D3" stroke-miterlimit="10" stroke-width="1.333" d="M2466.74 1804.67c294.75-197.12 635.07-252.08 737.56-445.9 65.42-123.72-88.1-243.37-150.51-346.42-55.74-92.041-105.66-209.847-31.04-343.313 32.24-57.657 87.5-111.567 147.51-156.676 71.61-53.825 165.43-99.453 245.84-116.377 141.25-29.712 321.98-12.857 439.38-109.368 127.59-104.89 149.07-285.587 218.39-404.244 87.69-150.103 252.48-307.922 429.78-368.024 178.81-60.597 322.59-2.987 478.21 8.499 225.56 16.646 537.84 6.162 700.42-189.999 154.34-186.232 145.92-494.978 129.15-670.348"/><path stroke="#29D3D3" stroke-miterlimit="10" stroke-width="1.333" d="M2452.49 1788.5c309.75-212.89 668.76-250.08 771.26-443.91 65.42-123.72-116.3-244.05-184.22-348.411-58.53-89.971-105.68-209.845-31.04-343.312 32.23-57.645 87.5-111.566 147.51-156.676 71.61-53.835 168.19-99.838 248.62-114.461 142.2-25.86 329.39-3.225 446.78-99.736 127.58-104.879 148.59-292.845 214.53-411.369 83.88-150.772 246.15-312.353 423.46-372.445 178.81-60.596 323.9-5.091 478.21 8.49 228.35 20.108 550.44 32.916 709.35-166.794 149.22-187.527 120.04-513.716 103.28-689.096"/><path stroke="#29D3D3" stroke-miterlimit="10" stroke-width="1.333" d="M2438.25 1772.32c324.72-228.66 702.46-248.1 804.95-441.92 65.42-123.73-144.38-244.81-217.91-350.403-61.22-87.938-105.66-209.856-31.04-343.312 32.23-57.645 87.51-111.567 147.51-156.686 71.61-53.825 170.93-100.193 251.4-112.546 143.17-21.968 336.78 6.429 454.18-90.082C3974.91 172.492 3995.43-22.763 4058-141.133c80.06-151.441 239.84-316.775 417.15-376.867 178.8-60.606 325.22-7.155 478.21 8.49 231.09 23.635 563.08 59.678 718.28-143.589 144.13-188.803 94.16-532.471 77.38-707.841"/><path stroke="#29D3D3" stroke-miterlimit="10" stroke-width="1.333" d="M2424 1756.14c339.72-244.43 736.17-246.11 838.66-439.93 65.41-123.72-172.37-245.62-251.62-352.395-63.81-85.971-105.67-209.835-31.04-343.312 32.23-57.645 87.5-111.566 147.51-156.675 71.61-53.825 173.67-100.549 254.18-110.642 144.11-18.053 344.17 16.083 461.56-80.428 127.58-104.879 147.59-307.42 206.81-425.65 76.2-152.108 233.53-321.186 410.83-381.287 178.81-60.596 326.51-9.157 478.21 8.5 233.81 27.213 575.79 86.468 727.21-120.395 139.1-190.041 68.27-551.206 51.5-726.586"/><path stroke="#29D3D3" stroke-miterlimit="10" stroke-width="1.333" d="M2409.75 1739.96c354.7-260.18 769.87-244.13 872.36-437.95 65.42-123.72-200.25-246.5-285.32-354.372-66.3-84.08-105.68-209.845-31.04-343.312 32.23-57.644 87.5-111.565 147.51-156.674 71.6-53.835 176.42-100.884 256.95-108.727 145.08-14.13 351.57 25.726 468.97-70.785 127.59-104.889 147.05-314.697 202.96-432.786 72.31-152.773 227.19-325.616 404.5-385.708 178.81-60.595 327.76-11.116 478.21 8.491 236.5 30.854 588.54 113.295 736.13-97.19 134.13-191.262 42.4-569.957 25.63-745.327"/><path stroke="#29D3D3" stroke-miterlimit="10" stroke-width="1.333" d="M2395.51 1723.78c369.68-275.95 803.56-242.13 906.05-435.95 65.42-123.72-228.03-247.48-319.01-356.37-68.72-82.254-105.68-209.844-31.04-343.311 32.23-57.645 87.48-111.555 147.5-156.685 71.61-53.824 179.17-101.197 259.74-106.812 146.01-10.154 358.97 35.369 476.37-61.142 127.57-104.878 146.48-321.97 199.07-439.909 68.43-153.449 220.9-330.039 398.2-390.14 178.81-60.595 329-13.054 478.21 8.501 239.14 34.559 601.35 140.13 745.07-73.985 129.19-192.485 16.51-588.707-.26-764.087"/><path stroke="#29D3D3" stroke-miterlimit="10" stroke-width="1.333" d="M2381.25 1707.6c384.69-291.71 837.27-240.15 939.77-433.97 65.42-123.72-255.71-248.52-352.72-358.36-71.05-80.474-105.67-209.835-31.04-343.313 32.23-57.646 87.51-111.567 147.52-156.677 71.6-53.835 181.9-101.514 262.51-104.9 146.96-6.191 366.37 44.998 483.78-51.504 127.57-104.88 145.93-329.26 195.22-447.06 64.52-154.125 214.59-334.455 391.89-394.557 178.81-60.598 330.23-14.954 478.2 8.507 241.76 38.303 614.25 166.946 754.02-50.809 124.34-193.684-9.35-607.457-26.14-782.837"/><path stroke="#29D3D3" stroke-miterlimit="10" stroke-width="1.333" d="M2367.01 1691.42c399.66-307.47 870.97-238.15 973.48-431.98 65.41-123.72-283.3-249.65-386.43-360.348-73.35-78.736-105.68-209.845-31.04-343.313 32.23-57.646 87.51-111.567 147.52-156.677 71.58-53.824 184.61-101.816 265.29-102.996 147.86-2.162 373.76 54.653 491.16-41.85 127.6-104.89 145.36-336.543 191.38-454.196 60.56-154.797 208.25-338.885 385.57-398.978 178.81-60.597 331.4-16.817 478.19 8.498 244.35 42.133 627.18 193.805 762.96-27.595 119.51-194.892-35.24-626.225-52.03-801.595"/><path stroke="#29D3D3" stroke-miterlimit="10" stroke-width="1.333" d="M2352.77 1675.24c414.66-323.24 904.67-236.17 1007.17-430 65.4-123.71-310.78-250.848-420.12-362.324-75.58-77.063-105.68-209.845-31.04-343.313 32.23-57.646 87.48-111.566 147.5-156.687 71.61-53.825 187.35-102.099 268.09-101.081 148.76 1.867 381.14 64.306 498.56-32.216 127.58-104.87 144.74-343.806 187.5-461.31 56.59-155.48 201.95-343.308 379.26-403.401 178.8-60.607 332.58-18.649 478.19 8.499 246.87 46.007 640.19 220.65 771.9-4.411 114.75-196.073-61.15-644.946-77.92-820.326"/><path stroke="#29D3D3" stroke-miterlimit="10" stroke-width="1.333" d="M2338.51 1659.06c429.64-338.99 938.38-234.17 1040.87-428.01 65.42-123.71-338.16-252.146-453.82-364.317-77.76-75.432-105.66-209.855-31.04-343.312 32.23-57.646 87.49-111.556 147.51-156.676 71.6-53.836 190.06-102.371 270.86-99.166 149.64 5.916 388.56 73.938 505.95-22.574 127.58-104.879 144.13-351.077 183.66-468.446 52.58-156.128 195.61-347.738 372.93-407.83 178.81-60.597 333.71-20.44 478.21 8.498 249.33 49.955 653.23 247.492 780.81 18.794 110.04-197.277-87.03-663.691-103.79-839.071"/><path stroke="#29D3D3" stroke-miterlimit="10" stroke-width="1.333" d="M2324.28 1642.88c444.63-354.77 972.07-232.19 1074.56-426.01 65.42-123.73-365.47-253.54-487.52-366.318-79.9-73.846-105.68-209.845-31.04-343.313 32.23-57.645 87.5-111.567 147.51-156.676 71.59-53.824 192.75-102.632 273.64-97.261 150.52 9.997 395.95 83.592 513.35-12.92 127.59-104.89 143.48-358.348 179.78-475.58 48.57-156.799 189.31-352.161 366.63-412.253 178.8-60.607 334.83-22.219 478.19 8.499 251.79 53.944 666.39 274.33 789.76 41.998 105.4-198.494-112.92-682.436-129.67-857.826"/><path stroke="#29D3D3" stroke-miterlimit="10" stroke-width="1.333" d="M2310.01 1626.7c459.62-370.52 1005.79-230.2 1108.28-424.03 65.41-123.7-392.7-254.987-521.23-368.288-82.01-72.31-105.67-209.845-31.04-343.312 32.24-57.645 87.5-111.576 147.51-156.686 71.59-53.814 195.43-102.881 276.43-95.346 151.36 14.089 403.33 93.246 520.73-3.266 127.59-104.89 142.82-365.617 175.93-482.716 44.52-157.445 183-356.582 360.31-416.674 178.8-60.606 335.92-23.965 478.19 8.5 254.17 57.988 679.59 301.155 798.68 65.193 100.81-199.714-138.79-701.185-155.56-876.565"/><path stroke="#29D3D3" stroke-miterlimit="10" stroke-width="1.333" d="M2295.78 1610.52c474.6-386.3 1039.48-228.22 1141.97-422.04 65.4-123.71-419.83-256.551-554.93-370.288-84.08-70.788-105.68-209.844-31.04-343.312 32.23-57.645 87.48-111.555 147.51-156.675 71.6-53.835 198.13-103.133 279.2-93.431 152.19 18.192 410.75 102.877 528.14 6.366 127.58-104.878 142.13-372.854 172.07-489.851 40.43-158.069 176.67-360.993 353.98-421.094 178.81-60.596 337.02-25.682 478.19 8.51 256.53 62.084 692.87 327.956 807.62 88.397 96.26-200.957-164.68-719.942-181.44-895.312"/><path stroke="#29D3D3" stroke-miterlimit="10" stroke-width="1.333" d="M2281.53 1594.34c489.59-402.05 1073.18-226.22 1175.67-420.04 65.42-123.72-446.89-258.204-588.63-372.282-86.13-69.328-105.68-209.845-31.04-343.312 32.23-57.645 87.5-111.566 147.51-156.675 71.6-53.835 200.8-103.371 281.98-91.527 153.01 22.328 418.14 112.532 535.53 16.021 127.58-104.878 141.44-380.102 168.22-496.997 36.34-158.694 170.34-365.414 347.66-425.505 178.81-60.596 338.05-27.375 478.18 8.501 258.82 66.255 706.21 354.753 816.55 111.601 91.76-202.201-190.55-738.685-207.33-914.055"/><path stroke="#29D3D3" stroke-miterlimit="10" stroke-width="1.333" d="M2267.28 1578.16c504.58-417.82 1106.87-224.23 1209.36-418.05 65.42-123.72-473.87-259.933-622.32-374.266-88.15-67.91-105.68-209.845-31.05-343.322 32.24-57.635 87.51-111.566 147.52-156.675 71.59-53.813 203.45-103.589 284.74-89.611 153.83 26.452 425.55 122.185 542.94 25.674 127.59-104.889 140.74-387.359 164.35-504.121 32.22-159.328 164.04-369.846 341.35-429.947 178.81-60.596 339.11-29.049 478.19 8.511 261.06 70.469 719.61 381.506 825.47 134.796 87.33-203.481-216.44-757.429-233.21-932.809"/><path stroke="#29D3D3" stroke-miterlimit="10" stroke-width="1.333" d="M2253.04 1561.98c519.56-433.57 1140.57-222.23 1243.05-416.06 65.43-123.71-500.78-261.751-656.02-376.264-90.16-66.502-105.68-209.845-31.04-343.312 32.23-57.645 87.49-111.554 147.51-156.674 71.6-53.835 206.05-103.723 287.53-87.707 154.49 30.798 432.95 131.828 550.33 35.328 127.59-104.889 139.83-394.535 160.5-511.267 27.82-159.855 157.71-374.267 335.02-434.358 178.81-60.596 340.1-30.709 478.19 8.512 263.25 74.736 733.08 408.246 834.41 158 82.93-204.782-242.32-776.178-259.1-951.558"/><path stroke="#29D3D3" stroke-miterlimit="10" stroke-width="1.333" d="M2238.78 1545.8c534.56-449.34 1174.3-220.26 1276.79-414.08 65.41-123.72-527.63-263.66-689.73-378.247-92.15-65.157-105.68-209.845-31.04-343.313 32.23-57.646 87.49-111.557 147.51-156.687 71.61-53.826 208.76-104.038 290.32-85.796 155.38 34.774 440.33 141.468 557.74 44.965 127.58-104.88 139.26-401.792 156.62-518.396 23.9-160.51 151.42-378.694 328.73-438.787 178.81-60.598 341.09-32.351 478.21 8.487 265.37 79.077 746.59 434.978 843.33 181.208 78.57-206.098-268.2-794.934-284.97-970.314"/></g><defs><clipPath id="a"><path fill="#fff" d="M0 0h4629v922H0z"/></clipPath></defs></svg>