<svg width="4629" height="922" viewBox="0 0 4629 922" fill="none" xmlns="http://www.w3.org/2000/svg">
<g clip-path="url(#clip0_1_3)">
<rect width="4629" height="922" fill="white"/>
<path d="M1775.65 1643.23C721.682 1191.34 553.995 988.853 937.255 645.366C1320.53 301.868 595.922 356.106 613.876 117.474C631.85 -121.17 1955.32 121.083 2069.1 -258.569C2182.88 -638.21 1524.15 -772 1524.15 -772" stroke="#FF8174" stroke-width="1.33333" stroke-miterlimit="10"/>
<path d="M1765.07 1644.1C715.365 1195.13 529.424 989.551 900.429 645.366C1271.43 301.182 560.79 343.714 589.605 103.866C618.399 -135.969 1900 101.46 2008.2 -268.892C2116.41 -639.245 1463.93 -766.995 1463.93 -766.995" stroke="#FF8174" stroke-width="1.33333" stroke-miterlimit="10"/>
<path d="M1754.49 1644.96C709.048 1198.92 504.874 990.248 863.604 645.378C1222.35 300.509 525.678 331.321 565.333 90.2829C604.969 -150.767 1844.68 81.8368 1947.28 -279.215C2049.91 -640.267 1403.73 -762.002 1403.73 -762.002" stroke="#FF8174" stroke-width="1.33333" stroke-miterlimit="10"/>
<path d="M1743.89 1645.83C702.731 1202.71 480.304 990.934 826.778 645.378C1173.27 299.823 490.566 318.929 541.042 76.6753C591.517 -165.578 1789.34 62.2135 1886.39 -289.538C1983.43 -641.302 1343.51 -757.009 1343.51 -757.009" stroke="#FF8174" stroke-width="1.33333" stroke-miterlimit="10"/>
<path d="M1733.31 1646.71C696.434 1206.51 455.734 991.632 789.953 645.39C1124.17 299.137 455.455 306.536 516.771 63.0798C578.087 -180.377 1734.02 42.5902 1825.49 -299.873C1916.96 -642.325 1283.31 -752.016 1283.31 -752.016" stroke="#FF8174" stroke-width="1.33333" stroke-miterlimit="10"/>
<path d="M1722.71 1647.57C690.118 1210.3 431.183 992.317 753.127 645.39C1075.09 298.451 420.343 294.144 492.479 49.4837C564.636 -195.176 1678.71 22.9663 1764.59 -310.197C1850.46 -643.36 1223.09 -747.023 1223.09 -747.023" stroke="#FF8174" stroke-width="1.33333" stroke-miterlimit="10"/>
<path d="M1712.12 1648.44C683.8 1214.09 406.613 993.015 716.302 645.39C1025.99 297.765 385.231 281.763 468.208 35.8884C551.185 -209.987 1623.39 3.34329 1703.67 -320.52C1783.98 -644.382 1162.89 -742.03 1162.89 -742.03" stroke="#FF8174" stroke-width="1.33333" stroke-miterlimit="10"/>
<path d="M1701.54 1649.31C677.484 1217.88 382.043 993.713 679.476 645.402C976.91 297.079 350.12 269.359 443.937 22.2929C537.754 -224.785 1568.07 -16.2799 1642.78 -330.842C1717.5 -645.417 1102.67 -737.037 1102.67 -737.037" stroke="#FF8174" stroke-width="1.33333" stroke-miterlimit="10"/>
<path d="M1690.94 1650.17C671.167 1221.67 357.493 994.411 642.651 645.402C927.829 296.405 314.988 256.966 419.646 8.69703C524.303 -239.584 1512.73 -35.9036 1581.88 -341.166C1651.01 -646.44 1042.47 -732.032 1042.47 -732.032" stroke="#FF8174" stroke-width="1.33333" stroke-miterlimit="10"/>
<path d="M1680.34 1651.05C664.87 1225.48 332.922 995.097 605.825 645.415C878.748 295.72 279.876 244.587 395.374 -4.89776C510.872 -254.382 1457.41 -55.5261 1520.98 -351.5C1584.53 -647.462 982.25 -727.038 982.25 -727.038" stroke="#FF8174" stroke-width="1.33333" stroke-miterlimit="10"/>
<path d="M1669.76 1651.92C658.553 1229.27 308.352 995.795 569 645.415C829.648 295.035 244.765 232.194 371.103 -18.5054C497.422 -269.193 1402.1 -75.1495 1460.06 -361.823C1518.05 -648.497 922.05 -722.045 922.05 -722.045" stroke="#FF8174" stroke-width="1.33333" stroke-miterlimit="10"/>
<path d="M1659.16 1652.79C652.236 1233.06 283.802 996.493 532.174 645.415C780.567 294.349 209.653 219.802 346.812 -32.1009C483.99 -283.992 1346.78 -94.7728 1399.17 -372.146C1451.58 -649.52 861.83 -717.052 861.83 -717.052" stroke="#FF8174" stroke-width="1.33333" stroke-miterlimit="10"/>
<path d="M1648.58 1653.65C645.919 1236.86 259.232 997.178 495.349 645.427C731.466 293.663 174.541 207.409 322.54 -45.6966C470.54 -298.79 1291.44 -114.396 1338.27 -382.469C1385.08 -650.554 801.63 -712.059 801.63 -712.059" stroke="#FF8174" stroke-width="1.33333" stroke-miterlimit="10"/>
<path d="M1637.99 1654.53C639.602 1240.65 234.661 997.876 458.523 645.427C682.386 292.977 139.429 195.017 298.269 -59.2922C457.109 -313.601 1236.12 -134.02 1277.35 -392.804C1318.6 -651.577 741.41 -707.066 741.41 -707.066" stroke="#FF8174" stroke-width="1.33333" stroke-miterlimit="10"/>
<path d="M1627.39 1655.4C633.305 1244.44 210.111 998.574 421.698 645.427C633.305 292.303 104.317 182.625 273.977 -72.8875C443.658 -328.4 1180.8 -153.643 1216.45 -403.127C1252.1 -652.611 681.21 -702.061 681.21 -702.061" stroke="#FF8174" stroke-width="1.33333" stroke-miterlimit="10"/>
<path d="M1616.81 1656.26C626.988 1248.23 185.541 999.26 384.872 645.439C584.204 291.617 69.1857 170.232 249.706 -86.4832C430.207 -343.199 1125.47 -173.266 1155.56 -413.45C1185.63 -653.634 620.99 -697.08 620.99 -697.08" stroke="#FF8174" stroke-width="1.33333" stroke-miterlimit="10"/>
<path d="M1606.21 1657.14C620.671 1252.02 160.97 999.957 348.047 645.438C535.124 290.931 34.074 157.839 225.435 -100.079C416.776 -358.01 1070.15 -192.89 1094.64 -423.774C1119.15 -654.669 560.79 -692.075 560.79 -692.075" stroke="#FF8174" stroke-width="1.33333" stroke-miterlimit="10"/>
<path d="M1595.63 1658.01C614.354 1255.81 136.42 1000.64 311.222 645.451C486.043 290.246 -1.03754 145.447 201.144 -113.686C403.325 -372.808 1014.83 -212.513 1033.74 -434.096C1052.67 -655.692 500.57 -687.082 500.57 -687.082" stroke="#FF8174" stroke-width="1.33333" stroke-miterlimit="10"/>
<path d="M1585.05 1658.87C608.057 1259.61 111.85 1001.34 274.396 645.45C436.943 289.56 -36.1491 133.054 176.873 -127.282C389.894 -387.607 959.513 -232.137 972.845 -444.432C986.176 -656.727 440.37 -682.089 440.37 -682.089" stroke="#FF8174" stroke-width="1.33333" stroke-miterlimit="10"/>
<path d="M1574.45 1659.74C601.74 1263.4 87.2798 1002.04 237.571 645.462C387.862 288.874 -71.2611 120.662 152.581 -140.878C376.443 -402.418 904.175 -251.76 911.947 -454.755C919.699 -657.749 380.15 -677.096 380.15 -677.096" stroke="#FF8174" stroke-width="1.33333" stroke-miterlimit="10"/>
<path d="M1563.87 1660.62C595.423 1267.19 62.7293 1002.73 200.745 645.463C338.761 288.201 -106.373 108.27 128.31 -154.473C363.012 -417.216 848.857 -271.382 851.03 -465.077C853.222 -658.771 319.95 -672.102 319.95 -672.102" stroke="#FF8174" stroke-width="1.33333" stroke-miterlimit="10"/>
<path d="M1553.26 1661.48C589.107 1270.98 38.1592 1003.42 163.92 645.463C289.68 287.515 -141.504 95.8779 104.039 -168.068C349.562 -432.015 793.54 -291.006 790.132 -475.4C786.725 -659.806 259.73 -667.097 259.73 -667.097" stroke="#FF8174" stroke-width="1.33333" stroke-miterlimit="10"/>
<path d="M2730.09 2372.37C2992.26 1590.31 3578.64 1391.29 3833.67 1419.73C4088.7 1448.15 4228.34 1486.88 4520.84 1251.42C4813.34 1015.94 4824.4 559.245 5260.12 448.038C5695.83 336.822 5796.17 178.593 5814.71 -6.03753C5833.25 -190.677 5294.45 -196.609 5373.2 -476.191C5451.93 -755.752 6126.43 -1038.45 6126.43 -1038.45" stroke="#29D3D3" stroke-width="1.33333" stroke-miterlimit="10"/>
<path d="M2758.01 2388.07C3020.21 1606 3596.62 1385.21 3851.65 1413.63C4106.68 1442.07 4239.43 1501.55 4531.93 1266.08C4824.43 1030.6 4844.28 586.196 5280 474.988C5715.72 363.781 5781.24 192.185 5799.8 7.54394C5818.32 -177.085 5348.33 -188.187 5427.06 -467.749C5505.81 -747.332 6137.53 -1023.79 6137.53 -1023.79" stroke="#29D3D3" stroke-width="1.33333" stroke-miterlimit="10"/>
<path d="M2785.96 2403.75C3048.15 1621.69 3614.63 1379.1 3869.66 1407.54C4124.69 1435.96 4250.55 1516.2 4543.05 1280.73C4835.55 1045.25 4864.18 613.155 5299.9 501.946C5735.63 390.736 5766.34 205.764 5784.87 21.1237C5803.42 -163.507 5402.22 -179.759 5480.95 -459.331C5559.71 -738.905 6148.67 -1009.14 6148.67 -1009.14" stroke="#29D3D3" stroke-width="1.33333" stroke-miterlimit="10"/>
<path d="M2813.89 2419.45C3076.08 1637.38 3632.61 1373.02 3887.62 1401.46C4142.65 1429.89 4261.61 1530.89 4554.1 1295.41C4846.6 1059.94 4884.01 640.137 5319.73 528.931C5755.45 417.725 5751.34 219.389 5769.88 34.759C5788.43 -149.871 5456.05 -171.287 5534.78 -450.858C5613.5 -730.429 6159.7 -994.437 6159.7 -994.437" stroke="#29D3D3" stroke-width="1.33333" stroke-miterlimit="10"/>
<path d="M2841.84 2435.13C3104.03 1653.06 3650.6 1366.94 3905.63 1395.36C4160.66 1423.79 4272.72 1545.54 4565.22 1310.07C4857.7 1074.61 4903.91 667.097 5339.63 555.89C5775.35 444.683 5736.42 232.981 5754.96 48.3505C5773.5 -136.29 5509.92 -162.856 5588.66 -442.439C5667.39 -722 6170.8 -979.784 6170.8 -979.784" stroke="#29D3D3" stroke-width="1.33333" stroke-miterlimit="10"/>
<path d="M2869.79 2450.82C3131.99 1668.76 3668.61 1360.83 3923.64 1389.27C4178.65 1417.7 4283.82 1560.21 4576.32 1324.74C4868.82 1089.26 4923.8 694.06 5359.52 582.841C5795.24 471.633 5721.51 246.564 5740.05 61.9236C5758.59 -122.707 5563.8 -154.434 5642.54 -433.997C5721.28 -713.58 6181.94 -965.13 6181.94 -965.13" stroke="#29D3D3" stroke-width="1.33333" stroke-miterlimit="10"/>
<path d="M2897.74 2466.51C3159.92 1684.45 3686.58 1354.76 3941.6 1383.18C4196.63 1411.61 4294.89 1574.89 4587.39 1339.41C4879.88 1103.94 4943.65 721.028 5379.37 609.821C5815.09 498.613 5706.54 260.17 5725.08 75.5397C5743.62 -109.1 5617.65 -145.98 5696.38 -425.552C5775.13 -705.124 6192.99 -950.447 6192.99 -950.447" stroke="#29D3D3" stroke-width="1.33333" stroke-miterlimit="10"/>
<path d="M2537.98 1885.58C2757.8 1767.26 3004.55 1623.54 3107.04 1429.72C3172.45 1306.01 3161.63 1189.11 3125.03 1093.25C3085.49 989.657 3019.38 883.4 3093.99 749.933C3126.22 692.288 3181.5 638.366 3241.51 593.256C3313.11 539.421 3393.25 495.913 3473.44 467.336C3610.01 418.652 3758.46 406.232 3875.85 309.719C4003.43 204.839 4027.13 60.3537 4113.54 -58.8586C4220.08 -205.817 4397.6 -344.673 4574.91 -404.766C4753.72 -465.364 4890.5 -396.444 5053.12 -396.28C5264.48 -396.038 5528.36 -523.174 5708.88 -702.27C5889.39 -881.376 5984.24 -1103.52 5967.46 -1278.89" stroke="#29D3D3" stroke-width="1.33333" stroke-miterlimit="10"/>
<path d="M2523.73 1869.4C2758.54 1735.31 3023.99 1609.36 3126.48 1415.53C3191.91 1291.81 3152.31 1174.43 3110.78 1077.07C3067.64 975.951 3005.12 867.218 3079.74 733.761C3111.97 676.116 3167.24 622.194 3227.25 577.075C3298.86 523.249 3381.72 479.285 3461.97 453.069C3599.44 408.148 3754.37 401.608 3871.77 305.106C3999.36 200.215 4022.48 48.4764 4105.61 -70.6076C4208.19 -218.207 4383.34 -360.843 4560.66 -420.936C4739.47 -481.534 4877.69 -415 5038.86 -412.449C5253.09 -409.044 5526.6 -512.828 5703.55 -695.245C5878.78 -875.881 5953.04 -1115.24 5936.25 -1290.61" stroke="#29D3D3" stroke-width="1.33333" stroke-miterlimit="10"/>
<path d="M2509.48 1853.22C2759.27 1703.36 3043.45 1595.17 3145.94 1401.35C3211.36 1277.62 3143.13 1159.73 3096.53 1060.89C3050.01 962.147 2990.86 851.051 3065.5 717.583C3097.72 659.927 3153 606.006 3213.01 560.896C3284.62 507.071 3370.22 462.671 3450.52 438.795C3588.9 397.637 3750.29 396.989 3867.71 300.476C3995.29 195.596 4018.14 36.6484 4097.67 -82.3622C4196.7 -230.543 4369.1 -377.02 4546.41 -437.122C4725.22 -497.72 4864.86 -433.5 5024.62 -428.625C5241.71 -422.005 5524.83 -502.438 5698.25 -688.237C5868.2 -870.323 5921.82 -1126.96 5905.06 -1302.33" stroke="#29D3D3" stroke-width="1.33333" stroke-miterlimit="10"/>
<path d="M2495.23 1837.04C2760 1671.44 3062.91 1580.97 3165.4 1387.15C3230.8 1263.44 3134.03 1145.01 3082.3 1044.7C3032.54 948.269 2976.6 834.868 3051.24 701.4C3083.47 643.755 3138.75 589.833 3198.76 544.724C3270.36 490.889 3358.69 446.073 3439.03 424.538C3578.36 387.172 3746.23 392.363 3863.63 295.852C3991.2 190.972 4013.62 24.784 4089.74 -94.1122C4185.01 -242.924 4354.85 -393.191 4532.15 -453.293C4710.96 -513.89 4852 -451.933 5010.36 -444.805C5230.29 -434.888 5523.09 -491.992 5692.92 -681.203C5857.64 -864.72 5890.62 -1138.68 5873.85 -1314.06" stroke="#29D3D3" stroke-width="1.33333" stroke-miterlimit="10"/>
<path d="M2480.99 1820.86C2760.76 1639.49 3082.36 1566.79 3184.85 1372.95C3250.26 1249.25 3125.06 1130.24 3068.04 1028.54C3015.22 934.319 2962.38 818.681 3037 685.224C3069.23 627.578 3124.5 573.657 3184.5 528.538C3256.11 474.713 3347.19 429.481 3427.56 410.257C3567.86 376.712 3742.15 387.746 3859.55 291.234C3987.13 186.355 4009.09 12.9062 4081.8 -105.864C4173.29 -255.317 4340.59 -409.375 4517.91 -469.467C4696.72 -530.064 4839.12 -470.306 4996.11 -460.979C5218.87 -447.724 5521.38 -481.511 5687.6 -674.182C5847.11 -859.072 5859.4 -1150.4 5842.65 -1325.79" stroke="#29D3D3" stroke-width="1.33333" stroke-miterlimit="10"/>
<path d="M2466.74 1804.67C2761.49 1607.55 3101.81 1552.59 3204.3 1358.77C3269.72 1235.05 3116.2 1115.4 3053.79 1012.35C2998.05 920.309 2948.13 802.503 3022.75 669.037C3054.99 611.38 3110.25 557.47 3170.26 512.361C3241.87 458.536 3335.69 412.908 3416.1 395.984C3557.35 366.272 3738.08 383.127 3855.48 286.616C3983.07 181.726 4004.55 1.02892 4073.87 -117.628C4161.56 -267.731 4326.35 -425.55 4503.65 -485.652C4682.46 -546.249 4826.24 -488.639 4981.86 -477.153C5207.42 -460.507 5519.7 -470.991 5682.28 -667.152C5836.62 -853.384 5828.2 -1162.13 5811.43 -1337.5" stroke="#29D3D3" stroke-width="1.33333" stroke-miterlimit="10"/>
<path d="M2452.49 1788.5C2762.24 1575.61 3121.25 1538.42 3223.75 1344.59C3289.17 1220.87 3107.45 1100.54 3039.53 996.179C2981 906.208 2933.85 786.334 3008.49 652.867C3040.72 595.222 3095.99 541.301 3156 496.191C3227.61 442.356 3324.19 396.353 3404.62 381.73C3546.82 355.87 3734.01 378.505 3851.4 281.994C3978.98 177.115 3999.99 -10.8509 4065.93 -129.375C4149.81 -280.147 4312.08 -441.728 4489.39 -501.82C4668.2 -562.416 4813.29 -506.911 4967.6 -493.33C5195.95 -473.222 5518.04 -460.414 5676.95 -660.124C5826.17 -847.651 5796.99 -1173.84 5780.23 -1349.22" stroke="#29D3D3" stroke-width="1.33333" stroke-miterlimit="10"/>
<path d="M2438.25 1772.32C2762.97 1543.66 3140.71 1524.22 3243.2 1330.4C3308.62 1206.67 3098.82 1085.59 3025.29 979.997C2964.07 892.059 2919.63 770.141 2994.25 636.685C3026.48 579.04 3081.76 525.118 3141.76 479.999C3213.37 426.174 3312.69 379.806 3393.16 367.453C3536.33 345.485 3729.94 373.882 3847.34 277.371C3974.91 172.492 3995.43 -22.7628 4058 -141.133C4138.06 -292.574 4297.84 -457.908 4475.15 -518C4653.95 -578.606 4800.37 -525.155 4953.36 -509.51C5184.45 -485.875 5516.44 -449.832 5671.64 -653.099C5815.77 -841.902 5765.8 -1185.57 5749.02 -1360.94" stroke="#29D3D3" stroke-width="1.33333" stroke-miterlimit="10"/>
<path d="M2424 1756.14C2763.72 1511.71 3160.17 1510.03 3262.66 1316.21C3328.07 1192.49 3090.29 1070.59 3011.04 963.815C2947.23 877.844 2905.37 753.98 2980 620.503C3012.23 562.858 3067.5 508.937 3127.51 463.828C3199.12 410.003 3301.18 363.279 3381.69 353.186C3525.8 335.133 3725.86 369.269 3843.25 272.758C3970.83 167.879 3990.84 -34.6629 4050.06 -152.892C4126.26 -305 4283.59 -474.078 4460.89 -534.179C4639.7 -594.775 4787.4 -543.336 4939.1 -525.679C5172.91 -498.466 5514.89 -439.211 5666.31 -646.074C5805.41 -836.115 5734.58 -1197.28 5717.81 -1372.66" stroke="#29D3D3" stroke-width="1.33333" stroke-miterlimit="10"/>
<path d="M2409.75 1739.96C2764.45 1479.78 3179.62 1495.83 3282.11 1302.01C3347.53 1178.29 3081.86 1055.51 2996.79 947.638C2930.49 863.558 2891.11 737.793 2965.75 604.326C2997.98 546.682 3053.25 492.761 3113.26 447.652C3184.86 393.817 3289.68 346.768 3370.21 338.925C3515.29 324.795 3721.78 364.651 3839.18 268.14C3966.77 163.251 3986.23 -46.5571 4042.14 -164.646C4114.45 -317.419 4269.33 -490.262 4446.64 -550.354C4625.45 -610.949 4774.4 -561.47 4924.85 -541.863C5161.35 -511.009 5513.39 -428.568 5660.98 -639.053C5795.11 -830.315 5703.38 -1209.01 5686.61 -1384.38" stroke="#29D3D3" stroke-width="1.33333" stroke-miterlimit="10"/>
<path d="M2395.51 1723.78C2765.19 1447.83 3199.07 1481.65 3301.56 1287.83C3366.98 1164.11 3073.53 1040.35 2982.55 931.46C2913.83 849.206 2876.87 721.616 2951.51 588.149C2983.74 530.504 3038.99 476.594 3099.01 431.464C3170.62 377.64 3278.18 330.267 3358.75 324.652C3504.76 314.498 3717.72 360.021 3835.12 263.51C3962.69 158.632 3981.6 -58.4608 4034.19 -176.399C4102.62 -329.848 4255.09 -506.438 4432.39 -566.539C4611.2 -627.134 4761.39 -579.593 4910.6 -558.038C5149.74 -523.479 5511.95 -417.908 5655.67 -632.023C5784.86 -824.508 5672.18 -1220.73 5655.41 -1396.11" stroke="#29D3D3" stroke-width="1.33333" stroke-miterlimit="10"/>
<path d="M2381.25 1707.6C2765.94 1415.89 3218.52 1467.45 3321.02 1273.63C3386.44 1149.91 3065.31 1025.11 2968.3 915.27C2897.25 834.796 2862.63 705.435 2937.26 571.957C2969.49 514.311 3024.77 460.39 3084.78 415.28C3156.38 361.445 3266.68 313.766 3347.29 310.38C3494.25 304.189 3713.66 355.378 3831.07 258.876C3958.64 153.996 3977 -70.3838 4026.29 -188.184C4090.81 -342.309 4240.88 -522.639 4418.18 -582.741C4596.99 -643.339 4748.41 -597.695 4896.38 -574.234C5138.14 -535.931 5510.63 -407.288 5650.4 -625.043C5774.74 -818.727 5641.05 -1232.5 5624.26 -1407.88" stroke="#29D3D3" stroke-width="1.33333" stroke-miterlimit="10"/>
<path d="M2367.01 1691.42C2766.67 1383.95 3237.98 1453.27 3340.49 1259.44C3405.9 1135.72 3057.19 1009.79 2954.06 899.092C2880.71 820.356 2848.38 689.247 2923.02 555.779C2955.25 498.133 3010.53 444.212 3070.54 399.102C3142.12 345.278 3255.15 297.286 3335.83 296.106C3483.69 293.944 3709.59 350.759 3826.99 254.256C3954.59 149.366 3972.35 -82.2873 4018.37 -199.94C4078.93 -354.737 4226.62 -538.825 4403.94 -598.918C4582.75 -659.515 4735.34 -615.735 4882.13 -590.42C5126.48 -548.287 5509.31 -396.615 5645.09 -618.015C5764.6 -812.907 5609.85 -1244.24 5593.06 -1419.61" stroke="#29D3D3" stroke-width="1.33333" stroke-miterlimit="10"/>
<path d="M2352.77 1675.24C2767.43 1352 3257.44 1439.07 3359.94 1245.24C3425.34 1121.53 3049.16 994.392 2939.82 882.916C2864.24 805.853 2834.14 673.071 2908.78 539.603C2941.01 481.957 2996.26 428.037 3056.28 382.916C3127.89 329.091 3243.63 280.817 3324.37 281.835C3473.13 283.702 3705.51 346.141 3822.93 249.619C3950.51 144.749 3967.67 -94.187 4010.43 -211.691C4067.02 -367.171 4212.38 -554.999 4389.69 -615.092C4568.49 -675.699 4722.27 -633.741 4867.88 -606.593C5114.75 -560.586 5508.07 -385.943 5639.78 -611.004C5754.53 -807.077 5578.63 -1255.95 5561.86 -1431.33" stroke="#29D3D3" stroke-width="1.33333" stroke-miterlimit="10"/>
<path d="M2338.51 1659.06C2768.15 1320.07 3276.89 1424.89 3379.38 1231.05C3444.8 1107.34 3041.22 978.904 2925.56 866.733C2847.8 791.301 2819.9 656.878 2894.52 523.421C2926.75 465.775 2982.01 411.865 3042.03 366.745C3113.63 312.909 3232.09 264.374 3312.89 267.579C3462.53 273.495 3701.45 341.517 3818.84 245.005C3946.42 140.126 3962.97 -106.072 4002.5 -223.441C4055.08 -379.569 4198.11 -571.179 4375.43 -631.271C4554.24 -691.868 4709.14 -651.711 4853.64 -622.773C5102.97 -572.818 5506.87 -375.281 5634.45 -603.979C5744.49 -801.256 5547.42 -1267.67 5530.66 -1443.05" stroke="#29D3D3" stroke-width="1.33333" stroke-miterlimit="10"/>
<path d="M2324.28 1642.88C2768.91 1288.11 3296.35 1410.69 3398.84 1216.87C3464.26 1093.14 3033.37 963.33 2911.32 850.552C2831.42 776.706 2805.64 640.707 2880.28 507.239C2912.51 449.594 2967.78 395.672 3027.79 350.563C3099.38 296.739 3220.54 247.931 3301.43 253.302C3451.95 263.299 3697.38 336.894 3814.78 240.382C3942.37 135.492 3958.26 -117.966 3994.56 -235.198C4043.13 -391.997 4183.87 -587.359 4361.19 -647.451C4539.99 -708.058 4696.02 -669.67 4839.38 -638.952C5091.17 -585.008 5505.77 -364.622 5629.14 -596.954C5734.54 -795.448 5516.22 -1279.39 5499.47 -1454.78" stroke="#29D3D3" stroke-width="1.33333" stroke-miterlimit="10"/>
<path d="M2310.01 1626.7C2769.63 1256.18 3315.8 1396.5 3418.29 1202.67C3483.7 1078.97 3025.59 947.683 2897.06 834.382C2815.05 762.072 2791.39 624.537 2866.02 491.07C2898.26 433.425 2953.52 379.494 3013.53 334.384C3085.12 280.57 3208.96 231.503 3289.96 239.038C3441.32 253.127 3693.29 332.284 3810.69 235.772C3938.28 130.882 3953.51 -129.845 3986.62 -246.944C4031.14 -404.389 4169.62 -603.526 4346.93 -663.618C4525.73 -724.224 4682.85 -687.583 4825.12 -655.118C5079.29 -597.13 5504.71 -353.963 5623.8 -589.925C5724.61 -789.639 5485.01 -1291.11 5468.24 -1466.49" stroke="#29D3D3" stroke-width="1.33333" stroke-miterlimit="10"/>
<path d="M2295.78 1610.52C2770.38 1224.22 3335.26 1382.3 3437.75 1188.48C3503.15 1064.77 3017.92 931.929 2882.82 818.192C2798.74 747.404 2777.14 608.348 2851.78 474.88C2884.01 417.235 2939.26 363.325 2999.29 318.205C3070.89 264.37 3197.42 215.072 3278.49 224.774C3430.68 242.966 3689.24 327.651 3806.63 231.14C3934.21 126.262 3948.76 -141.714 3978.7 -258.711C4019.13 -416.78 4155.37 -619.704 4332.68 -679.805C4511.49 -740.401 4669.7 -705.487 4810.87 -671.295C5067.4 -609.211 5503.74 -343.339 5618.49 -582.898C5714.75 -783.855 5453.81 -1302.84 5437.05 -1478.21" stroke="#29D3D3" stroke-width="1.33333" stroke-miterlimit="10"/>
<path d="M2281.53 1594.34C2771.12 1192.29 3354.71 1368.12 3457.2 1174.3C3522.62 1050.58 3010.31 916.096 2868.57 802.018C2782.44 732.69 2762.89 592.173 2837.53 458.706C2869.76 401.061 2925.03 347.14 2985.04 302.031C3056.64 248.196 3185.84 198.66 3267.02 210.504C3420.03 232.832 3685.16 323.036 3802.55 226.525C3930.13 121.647 3943.99 -153.577 3970.77 -270.472C4007.11 -429.166 4141.11 -635.886 4318.43 -695.977C4497.24 -756.573 4656.48 -723.352 4796.61 -687.476C5055.43 -621.221 5502.82 -332.723 5613.16 -575.875C5704.92 -778.076 5422.61 -1314.56 5405.83 -1489.93" stroke="#29D3D3" stroke-width="1.33333" stroke-miterlimit="10"/>
<path d="M2267.28 1578.16C2771.86 1160.34 3374.15 1353.93 3476.64 1160.11C3542.06 1036.39 3002.77 900.177 2854.32 785.844C2766.17 717.934 2748.64 575.999 2823.27 442.522C2855.51 384.887 2910.78 330.956 2970.79 285.847C3042.38 232.034 3174.24 182.258 3255.53 196.236C3409.36 222.688 3681.08 318.421 3798.47 221.91C3926.06 117.021 3939.21 -165.449 3962.82 -282.211C3995.04 -441.539 4126.86 -652.057 4304.17 -712.158C4482.98 -772.754 4643.28 -741.207 4782.36 -703.647C5043.42 -633.178 5501.97 -322.141 5607.83 -568.851C5695.16 -772.332 5391.39 -1326.28 5374.62 -1501.66" stroke="#29D3D3" stroke-width="1.33333" stroke-miterlimit="10"/>
<path d="M2253.04 1561.98C2772.6 1128.41 3393.61 1339.75 3496.09 1145.92C3561.52 1022.21 2995.31 884.169 2840.07 769.656C2749.91 703.154 2734.39 559.811 2809.03 426.344C2841.26 368.699 2896.52 314.79 2956.54 269.67C3028.14 215.835 3162.59 165.947 3244.07 181.963C3398.56 212.761 3677.02 313.791 3794.4 217.291C3921.99 112.402 3934.23 -177.244 3954.9 -293.976C3982.72 -453.831 4112.61 -668.243 4289.92 -728.334C4468.73 -788.93 4630.02 -759.043 4768.11 -719.822C5031.36 -645.086 5501.19 -311.576 5602.52 -561.822C5685.45 -766.604 5360.2 -1338 5343.42 -1513.38" stroke="#29D3D3" stroke-width="1.33333" stroke-miterlimit="10"/>
<path d="M2238.78 1545.8C2773.34 1096.46 3413.08 1325.54 3515.57 1131.72C3580.98 1008 2987.94 868.06 2825.84 753.473C2733.69 688.316 2720.16 543.628 2794.8 410.16C2827.03 352.514 2882.29 298.603 2942.31 253.473C3013.92 199.647 3151.07 149.435 3232.63 167.677C3388.01 202.451 3672.96 309.145 3790.37 212.642C3917.95 107.762 3929.63 -189.15 3946.99 -305.754C3970.89 -466.264 4098.41 -684.448 4275.72 -744.541C4454.53 -805.139 4616.81 -776.892 4753.93 -736.054C5019.3 -656.977 5500.52 -301.076 5597.26 -554.846C5675.83 -760.944 5329.06 -1349.78 5312.29 -1525.16" stroke="#29D3D3" stroke-width="1.33333" stroke-miterlimit="10"/>
</g>
<defs>
<clipPath id="clip0_1_3">
<rect width="4629" height="922" fill="white"/>
</clipPath>
</defs>
</svg>
