<svg xmlns="http://www.w3.org/2000/svg" width="362" height="346" fill="none"><g clip-path="url(#a)"><path fill="#EDEDEB" d="M304.94 170.324c65.413 37.765 65.413 98.995 0 136.76-65.413 37.766-171.468 37.766-236.88 0-65.413-37.764-65.413-98.994 0-136.759 65.413-37.766 171.468-37.766 236.88-.001Z"/><path fill="#DADBD8" d="M261.37 259.549c-10.984-6.341-10.984-16.622 0-22.963 10.983-6.341 28.791-6.341 39.774 0 10.984 6.342 10.984 16.622 0 22.963-10.983 6.342-28.791 6.342-39.774 0Z"/><path fill="#33BFBF" d="M295.346 229.282s.944-8.303 5.074-14.747c4.13-6.444 9.805-10.465 15.101-10.885 5.294-.418 9.571 4.454 3.905 7.798-5.666 3.347-15.731 6.76-20.363 19.272l-3.717-1.438Z"/><path fill="#33BFBF" d="m299.063 230.719-.385-.149c.148-4.884.322-10.181.483-13.839.383-.747.801-1.483 1.259-2.197 4.13-6.444 9.805-10.465 15.101-10.885a8.08 8.08 0 0 1 .639-.024c3.243 0 5.948 1.951 5.948 4.199.001 1.208-.781 2.502-2.682 3.623-5.666 3.347-15.731 6.76-20.363 19.272Z"/><path fill="#fff" d="m296.898 227.124-.056-.016a.281.281 0 0 1-.155-.368c5.587-13.761 16.225-19.508 21.069-20.623a.282.282 0 1 1 .128.551c-4.746 1.093-15.174 6.739-20.673 20.284a.283.283 0 0 1-.313.172Z"/><path fill="#33BFBF" d="M325.183 227.287c-.48 1.081-1.66 1.644-2.757 2.086-1.093.439-2.289.917-2.882 1.939-1.196 2.064.766 4.967-.517 6.977-.538.842-1.539 1.286-2.524 1.463-.818.153-1.651.152-2.48.221a9.748 9.748 0 0 1-1.18-.091c-1.138-.165-2.373-.219-3.416.364-1.64.922-2.144 2.994-3.141 4.591-1.194 1.913-3.306 3.165-5.526 3.467-.738.097-2.109.23-2.861-.189l-.154-.098-.014-.014a5.182 5.182 0 0 1-.288-.345l-.029-.049c-.291-1.07.184-2.184.203-3.29a2.212 2.212 0 0 0-.002-.2 310.227 310.227 0 0 1-.111-3.846c-.06-2.358-.087-4.723-.072-7.084.017-1.534-.167-3.212.481-4.657.719-1.589 2.505-1.624 3.181-3.183.271-.62.414-1.286.676-1.915.78-1.843 2.674-3.168 4.678-3.265 3.118-.159 5.917 2.367 9.033 2.137.807-.063 1.593-.309 2.388-.455 2.526-.473 5.446.246 6.867 2.384.594.893.881 2.071.447 3.052Z"/><path fill="#fff" d="m297.159 242.697-.022-.005a.265.265 0 0 1-.188-.325c4.31-16.169 21.346-18.507 25.332-18.218a.267.267 0 0 1 .246.284.265.265 0 0 1-.284.246c-3.899-.281-20.563 2.005-24.781 17.826a.263.263 0 0 1-.303.192Z"/><path fill="#fff" d="m316.088 234.503-.142-.075c-.042-.042-4.387-4.326-11.593-3.266a.268.268 0 0 1-.303-.224.268.268 0 0 1 .225-.302c7.485-1.1 12.005 3.373 12.05 3.418a.266.266 0 0 1-.237.449Z"/><path fill="#E2E2E0" d="m256.217 34.035 2.262.87v-4.984c0-3.95 3.152-4.898 6.574-2.923 3.421 1.976 6.195 6.78 6.195 10.731v.724c.777-.31 1.779-.19 2.875.444 2.463 1.421 4.459 4.879 4.459 7.721v.33l3.155 1.82c1.621.937 2.936 3.214 2.936 5.086 0 1.872-1.315 2.631-2.936 1.695l-25.52-14.733c-1.622-.937-2.936-3.213-2.936-5.086 0-1.872 1.314-2.63 2.936-1.695ZM286.496 30.096l4.102 2.368a4.798 4.798 0 0 1-.035-.543v-1.188c0-2.115 1.484-2.972 3.315-1.915.742.428 1.424 1.107 1.977 1.9.299-2.659 2.386-3.649 4.919-2.186 2.74 1.581 4.961 5.428 4.961 8.592v1.778c0 .819-.151 1.509-.42 2.058l3.407 1.968c1.016.586 1.839 2.012 1.839 3.185 0 1.172-.823 1.649-1.839 1.062l-22.226-12.832c-1.016-.586-1.839-2.013-1.839-3.185 0-1.173.823-1.649 1.839-1.063Z"/><path fill="#F6879F" d="M270.616 137.988c-2.987 5.049-5.86 9.434-7.877 11.536-3.829 1.782-12.828 4.52-16.35 4.978a2.605 2.605 0 0 1-1.766-.416c-1.384-.907-2.455-1.054-3.915-1.559-1.143-.396-1.627-.941-1.842-.733-.275.266-.575 1.025.12 1.81.35.395.987.826 1.808 1.353 0 0-2.518.671-4.766.081-3.047-.8-4.486.666-2.425 3.975.738 1.185 3.643 3.082 9.533 2.57 1.697-.147 4.145-.29 6.257-.74 5.648-1.205 11.927-2.373 15.788-3.527.974-.291 2.714-1.418 3.75-2.598 6.493-7.402 8.644-12.675 11.491-17.469l-.247-7.832c-4.601-.142-7.062 4.347-9.559 8.571Z"/><path fill="#072448" d="M280.97 129.276s-4.018-.855-7.039 3.01c-3.161 4.044-8.749 13.757-8.749 13.757s1.834 4.871 6.767 5.671l7.924-10.704s3.753-7.41 1.097-11.734Z"/><path fill="#F6879F" d="M298.106 247.655h-5.167v-9.212h5.167v9.212ZM280.192 237.953l-5.163.184-.259-9.748 5.422-.185v9.749Z"/><path fill="#072448" d="M298.833 158.688c0 5.138-.756 46.492-.756 46.492.12 1.478 1.451 4.204 1.163 9.883-.392 7.715-.913 27.987-.913 27.987s-2.508 1.526-5.753.119c0 0-4.188-28.409-5.114-36.054-.809-6.672-2.878-28.806-2.878-28.806l-2.8 26.12s.952 3.979.64 8.551c-.242 3.537-1.903 21.953-1.903 21.953s-2.432 1.719-5.965.475c0 0-2.939-27.735-2.999-30.98-.068-3.699 1.718-45.795 1.718-45.795l25.56.055ZM292.939 245v-.77c-.494.225-1.643 4.789-3.693 6.736-1.629 1.548-3.852 3.336-4.418 5.062-.588 1.795 3.096 2.786 4.619 2.505 1.768-.326 4.835-1.623 5.605-2.826.769-1.202 1.13-2.977 1.755-3.858.625-.882 2.068-1.866 2.406-2.886.185-.56-.035-1.788-.296-2.825-.24-.951-.499-1.998-.811-1.908v.586c-.376.433-1.414.863-2.583.91-.757.03-2.59-.125-2.584-.726Z"/><path fill="#072448" d="M274.974 236.477c-.268.009-.487.404-1.079 1.071-.715.806-1.885 1.675-3.039 2.278-1.934 1.008-5.696 2.56-7.398 3.359-1.063.499-1.014 1.837.085 2.597 1.099.762 3.754 1.31 6.94.568 1.736-.404 3.997-2.074 5.427-1.984 1.431.09 4.107.068 5.163-.689 1.056-.758.633-2.377.334-3.768-.325-1.519-.732-3.886-1.215-3.782v.524c-.621.979-3.826 1.377-5.191.657l-.027-.831Z"/><path fill="#44588F" d="M284.582 178.309s-4.129-1.212-7.194-4.296c0 0 1.388 2.707 5.517 5.226l-.883 23.325 2.56-24.255Z"/><path fill="#33BFBF" d="M295.94 130.045s4.248.983 3.961 8.686l-.893 12.268.024 18.413c-3.799 4.305-20.642 3.99-26.409-.345 0 0 .654-21.789 1.043-30.174.277-5.961 1.648-8.961 7.507-9.618l7.204.317 7.563.453Z"/><path fill="#072448" d="M290.512 114.033c0 4.425-3.444 8.011-7.691 8.011-4.249 0-6.763-3.685-7.693-8.011-1.7-7.912 3.444-8.011 7.693-8.011 4.247 0 7.691 3.587 7.691 8.011ZM294.436 117.274s-1.18 5.772-1.652 6.721c-.474.949-1.451 1.218-1.451 1.218l.082-4.061 3.021-3.878Z"/><path fill="#072448" d="M292.956 109.005s.846-.212 1.744 1.192c.771 1.204.946 3.907-.264 7.078l-2.222.266.742-8.536Z"/><path fill="#072448" d="m293.774 110.173 2.724.05c.067-.781-.49-1.427-1.241-1.44-.753-.014-1.416.608-1.483 1.39Z"/><path fill="#072448" d="m294.107 109.528 2.019-1.942a1.304 1.304 0 0 0-1.912-.075c-.557.536-.606 1.439-.107 2.017Z"/><path fill="#F6879F" d="M291.547 117.541c.446.277 1.082-.614 1.632-1.213.549-.599 2.275-1.164 3.17.799.911 2.002-.631 3.905-1.913 4.542-2.292 1.14-3.021-.517-3.021-.517l-.185 9.144c-3.232 4.998-10.55 4.818-7.919-.241l.007-2.784s-2.206.349-3.281.176c-1.79-.288-2.916-1.759-3.46-3.777-.871-3.241-1.202-5.858-.463-12.233.812-6.987 8.614-7.059 12.827-4.297 4.214 2.762 2.606 10.401 2.606 10.401Z"/><path fill="#072448" d="M281.821 110.347c1.864-.186 3.707-.566 5.575-.704.404-.029.817-.047 1.209.059 1.431.386 1.246 2.051 1.474 3.212.391 2.002.716 5.394 1.468 5.409.224.005 1.077-1.468 1.632-1.994.359-.34.42-1.074.498-1.529.141-.829.219-1.67.283-2.508.053-.71.124-1.432.121-2.145-.003-.798.012-1.612-.186-2.392-.181-.709-.513-1.239-.998-1.791l-.142-.159c-.919-.991-2.091-1.733-3.336-2.247-1.787-.737-3.723-1.03-5.645-1.227-1.922-.197-3.859-.304-5.753-.693-.111-.022-.228-.046-.333-.005-.165.063-.237.254-.27.427a2.372 2.372 0 0 0 .964 2.342c-1.287.103-2.766-.568-4.008-.905-.209-.056-.445-.109-.632.003-.128.077-.203.219-.249.361-.105.33-.081.686-.034 1.03.138 1.015.484 2.017 1.109 2.827.9 1.167 2.382 2.22 3.842 2.512 1.155.232 2.232.234 3.411.117Z"/><path fill="#F47089" d="M283.318 127.271s3.995-.838 5.392-1.611c.935-.518 1.705-1.415 1.932-1.99 0 0-.263 1.235-1.097 2.347-1.023 1.36-6.227 2.362-6.227 2.362v-1.108Z"/><path fill="#072448" d="M284.277 116.502c0 .479.359.865.801.864.443-.001.801-.39.801-.868 0-.479-.358-.866-.801-.865-.442.002-.801.391-.801.869Z"/><path fill="#273E47" d="m285.564 113.048 1.713.985c.252-.513.074-1.148-.399-1.421-.473-.271-1.062-.076-1.314.436Z"/><path fill="#F47089" d="m283.68 122.263-1.829.714c.181.546.737.828 1.242.631.505-.197.767-.799.587-1.345Z"/><path fill="#072448" d="m276.932 113.784 1.563-1.255c-.319-.465-.927-.563-1.359-.217-.431.347-.522 1.005-.204 1.472ZM277.618 116.264c0 .478.359.866.801.864.443 0 .801-.389.801-.868s-.358-.865-.801-.864c-.442.001-.801.389-.801.868Z"/><path fill="#F47089" d="m281.904 115.595-.093 5.057-2.87-.658 2.963-4.399Z"/><path fill="#33BFBF" d="m213.703 157.926 4.453-2.571 1.765-2.137-4.453 2.571-1.765 2.137Z"/><path fill="#072448" d="m213.703 157.925.627-.758 1.138-1.378.001-.001.952.569-2.718 1.568Z"/><path fill="#33BFBF" d="m225.822 164.923 4.453-2.571 3.722-3.294-4.453 2.571-3.722 3.294Z"/><path fill="#072448" d="m225.822 164.922.001-.001h.001l-.002.001Zm.008-.004 2.902-2.572.812-.718.002-.001.937.541-.208.183-4.445 2.567Z"/><path fill="#33BFBF" d="M274.04 173.941c-1.498-10.203-6.979-20.296-13.514-24.067-3.135-1.813-6.036-1.878-8.361-.519-.68.395-3.201 1.849-4.194 2.419-.081.044-.162.088-.234.139-.183.102-.366.22-.541.343a7.405 7.405 0 0 0-.965.797l-.139.132a7.568 7.568 0 0 0-.388.424 10.304 10.304 0 0 0-1.264 1.805 12.47 12.47 0 0 0-.365.694l-36.624-21.143L203 137.53v2.836l.38.219.351.204v.6l-.731.423v1.653l5.38 11.386 5.32 3.077 1.769-2.141 4.692 2.806 2.697 4.619 2.967 1.71 3.72-3.296 4.568 2.638 1.535 6.33 7.653 4.414a42.087 42.087 0 0 0 1.446 4.758c.051.16.11.321.176.497 2.543 6.686 6.592 12.409 11.152 15.048.586.336 1.155.614 1.718.826.322.131.644.233.957.322.286.08.57.145.856.189a7.35 7.35 0 0 0 2.712-.007l.372-.088c.175-.036.351-.087.519-.153.131-.052.263-.102.394-.153.139-.052.278-.118.41-.191.131-.058.256-.124.38-.197.065-.037.131-.073.19-.11l.087-.051c1.017-.584 3.523-2.032 4.203-2.419 3.383-1.958 5.577-6.921 5.577-13.937 0-1.784-.139-3.596-.41-5.401Zm-10.353-.135c.977 1.242 1.688 3.066 1.841 4.846-.977-1.242-1.688-3.066-1.841-4.846Z"/><path fill="#33BFBF" d="M269.589 176.507c-1.498-10.195-6.979-20.288-13.514-24.06-3.025-1.747-5.825-1.878-8.104-.672a2.328 2.328 0 0 0-.234.139c-.183.102-.366.22-.541.343a7.405 7.405 0 0 0-.965.797l-.139.132a7.568 7.568 0 0 0-.388.424 10.304 10.304 0 0 0-1.264 1.805 12.47 12.47 0 0 0-.365.694c-.607 1.243-1.089 2.689-1.411 4.327L203 137.531v2.836l.38.219.351.204v.6l-.731.423v1.653l5.38 11.386 5.32 3.077 1.769-2.141 4.692 2.806 2.697 4.619 2.967 1.71 3.72-3.296 4.568 2.638 1.535 6.33 7.652 4.414a42.298 42.298 0 0 0 1.447 4.758c.051.16.11.321.176.497 2.543 6.686 6.592 12.409 11.152 15.048.586.336 1.155.614 1.718.826.322.131.644.233.957.322.286.08.57.145.856.189a7.35 7.35 0 0 0 2.712-.007l.372-.088c.175-.036.351-.087.519-.153.131-.052.263-.102.394-.153.139-.052.278-.118.41-.191.131-.058.256-.124.38-.197.065-.037.131-.073.19-.11l.087-.051c3.246-2.046 5.329-6.936 5.329-13.783 0-1.784-.147-3.597-.41-5.409Zm-7.208 5.906c-1.757-1.014-3.181-4.029-3.181-6.734s1.424-4.076 3.181-3.061c1.757 1.014 3.181 4.029 3.181 6.735 0 2.704-1.424 4.075-3.181 3.06Z"/><path fill="#072448" d="M263.498 182.748c-.347 0-.723-.108-1.115-.335-.485-.28-.945-.711-1.356-1.245-1.08-1.407-1.827-3.529-1.827-5.489 0-1.575.482-2.697 1.232-3.16.251-.154.53-.235.831-.235.349 0 .726.108 1.12.335.047.027.095.056.142.086.237.154.467.344.688.563.165.165.322.346.471.543.153 1.776.87 3.603 1.841 4.845.013.102.022.204.027.305.007.131.01.261.01.391 0 2.098-.859 3.396-2.064 3.396Z"/><path fill="#08917E" d="M261.027 181.168c-1.082-1.406-1.831-3.527-1.831-5.487 0-1.575.484-2.699 1.236-3.162-.75.463-1.232 1.585-1.232 3.16 0 1.96.747 4.082 1.827 5.489Zm4.535-1.816a7.315 7.315 0 0 0 0-.002v.002Zm-2.349-6.084Z"/><path fill="#F4F4F2" d="M260.471 149.842Zm-.072-.04c-1.665-.939-3.263-1.385-4.741-1.386 1.478.001 3.075.447 4.741 1.386Zm-8.218-.455.012-.008-.012.008Zm3.47-.931h.002-.002Z"/><path fill="#5CC8BC" d="M269.989 181.13a38.45 38.45 0 0 0-.4-4.623c-1.498-10.195-6.979-20.288-13.514-24.06-1.72-.992-3.367-1.464-4.887-1.464a6.808 6.808 0 0 0-3.217.792c.993-.57 3.514-2.024 4.194-2.419l.016-.009.012-.008a6.829 6.829 0 0 1 3.458-.923h.007c1.478.001 3.076.447 4.741 1.386l.06.034a.067.067 0 0 0 .012.006l.055.033c6.535 3.771 12.016 13.864 13.514 24.067.271 1.805.41 3.617.41 5.401 0-.259-.01-.52-.015-.78l-4.446 2.567Z"/><path fill="#33BFBF" d="M269.999 181.915c0 6.847-2.083 11.738-5.329 13.784 1.017-.584 3.523-2.033 4.203-2.42 3.383-1.958 5.577-6.921 5.577-13.937 0-.259-.01-.52-.015-.78l-4.452 2.571c.006.261.016.522.016.782Z"/><path fill="#1DB3A0" d="M264.67 195.699c3.246-2.046 5.329-6.937 5.329-13.784 0-.26-.01-.521-.016-.782l4.452-2.571c.005.26.015.521.015.78 0 4.506-.905 8.166-2.448 10.726-.86 1.427-1.918 2.51-3.129 3.211-.68.387-3.186 1.836-4.203 2.42Z"/><path fill="#19B19D" d="m242.825 163.958-39.094-22.575v.007l-.731.423.731-.423v-.6l39.094 22.569v.599Z"/><path fill="#072448" d="M242.825 164.806 203 141.813l.731-.423v-.007l39.094 22.575v.848ZM260.156 193.297h-.011c-1.341 0-2.773-.415-4.248-1.266-3.295-1.907-6.22-5.631-8.341-10.117-2.119-4.486-3.429-9.741-3.429-14.732 0-3.874.788-7.029 2.166-9.244 1.371-2.211 3.374-3.485 5.701-3.485h.011c1.34 0 2.773.415 4.247 1.267 3.296 1.905 6.22 5.63 8.341 10.115 2.119 4.487 3.429 9.742 3.43 14.733-.001 3.874-.789 7.029-2.167 9.245-1.371 2.21-3.373 3.484-5.7 3.484Zm-15.318-26.115c-.001 4.866 1.284 10.034 3.361 14.429 2.074 4.396 4.946 8.014 8.053 9.804 1.39.803 2.701 1.172 3.893 1.171 2.063-.004 3.817-1.09 5.107-3.149 1.284-2.059 2.061-5.091 2.06-8.869.001-4.866-1.285-10.034-3.361-14.429-2.075-4.397-4.947-8.014-8.054-9.805-1.389-.801-2.7-1.17-3.892-1.17-2.064.004-3.818 1.09-5.108 3.15-1.284 2.058-2.061 5.09-2.059 8.868Z"/><path fill="#5CC8BC" d="M242.664 160.435 203 137.53l4.451-2.565 36.624 21.143c-.607 1.243-1.089 2.689-1.411 4.327Z"/><path fill="#F6879F" d="M295.595 158.336c2.081-3.933 4.451-12.763 5.632-17.219 1.678-6.329-1.037-10.311-4.118-10.472-1.932.294-8.276 23.382-8.276 23.382-.704.562-10.36 5.455-13.463 6.685a2.413 2.413 0 0 1-1.717.007c-1.49-.544-2.504-.44-3.963-.588-1.142-.114-1.72-.519-1.864-.275-.185.315-.271 1.098.56 1.682.419.295 1.108.557 1.989.869 0 0-1.649.572-3.849.523-2.982-.066-4.055 1.229-1.743 4.253 1.45 1.894 3.781 2.491 9.03.675 1.512-.522 3.561-1.539 5.467-2.232 3.943-1.432 4.956-1.587 7.982-2.606 4.367-1.47 7.41-2.938 8.333-4.684Z"/><path fill="#072448" d="M295.94 130.045c1.814.249 3.573.659 4.628 2.124 1.056 1.466 1.935 3.533.88 9.213-1.055 5.678-3.225 11.712-3.225 11.712s-4.221 1.803-8.71-2.773l3.082-11.929s.528-7.748 3.345-8.347Z"/></g><defs><clipPath id="a"><path fill="#fff" d="M0 0h362v346H0z"/></clipPath></defs></svg>