<svg xmlns="http://www.w3.org/2000/svg" width="192" height="306" fill="none"><path fill="#335863" d="m42.333 305.302-5.062-2.927c-1.589-.917-2.886-3.161-2.886-5V87.355c0-1.845 1.292-4.079 2.886-5L177.734 1.26c1.594-.921 4.177-.921 5.771 0l5.063 2.922c1.593.917 2.885 3.157 2.885 4.995v210.026c0 1.839-1.292 4.078-2.885 5L48.104 305.302c-1.594.922-4.177.917-5.77 0Z"/><path fill="#335863" d="M191.427 8.708c-.198-1.49-1.411-2.036-2.864-1.198L48.109 88.62c-.802.463-1.505 1.24-2.041 2.146L35.229 84.51c.521-.906 1.24-1.692 2.042-2.161L177.734 1.255c1.589-.916 4.177-.916 5.776 0l5.053 2.922c1.468.839 2.682 2.802 2.864 4.531Z"/><path fill="#0A2B34" d="M47.615 305.531c-1.6.683-3.839.604-5.276-.224l-5.068-2.932c-1.589-.922-2.88-3.161-2.88-5V87.349c0-.917.317-1.932.838-2.839l10.839 6.256c-.532.906-.854 1.932-.854 2.854V303.64c0 1.651 1.041 2.411 2.4 1.89Z"/><path fill="#24444C" d="M45.219 93.615v210.02c0 1.839 1.291 2.589 2.885 1.667l140.464-81.099c1.593-.922 2.885-3.161 2.885-5V9.177c0-1.838-1.292-2.583-2.885-1.667L48.104 88.615c-1.594.921-2.885 3.156-2.885 5Z"/><path fill="#335863" d="M12.417 173.672c-1.813-1.083-10.23-5.87-10.667-6.12-1.333-.812-1.812-2.786-.573-4.12l33.214-35.63 10.823 6.214-33.198 35.64c-1.198 1.281-.813 3.136.4 4.016Z"/><path fill="#24444C" d="m45.219 134.021-33.209 35.63c-1.661 1.786-.255 4.688 2.178 4.484l31.03-2.557v-37.557Z"/><path fill="#33BFBF" d="M118.333 69.911c16.37-9.453 29.641-1.791 29.641 17.115 0 18.901-13.271 41.885-29.641 51.339-16.369 9.447-29.64 1.786-29.64-17.115s13.271-41.89 29.64-51.339Z"/><path fill="#fff" d="M118.125 84.787c5.313-3.068 9.62-.584 9.62 5.552 0 6.13-4.307 13.588-9.62 16.656-5.307 3.068-9.615.578-9.615-5.552 0-6.136 4.308-13.589 9.615-16.656ZM137.078 117.484c0-10.073-7.073-14.156-15.797-9.119l-5.458 3.151c-8.724 5.036-15.797 17.286-15.797 27.359v2.75c1.573.526 3.287.781 5.094.786 3.979.011 8.458-1.302 13.213-4.046 7.115-4.11 13.641-10.771 18.745-18.542v-2.339Z"/><path fill="#33BFBF" d="m99.557 231.948 37.558-21.682c1.593-.922 2.885-.177 2.885 1.666v12.094c0 1.844-1.292 4.078-2.885 5l-37.558 21.682c-1.593.922-2.885.177-2.885-1.666v-12.094c0-1.844 1.292-4.078 2.885-5Z"/><path fill="#F9F9F8" d="m81.182 204.927 74.308-42.901c1.916-1.104 3.468-.208 3.468 2v4.5c0 2.208-1.552 4.896-3.468 6l-74.313 42.906c-1.911 1.104-3.463.209-3.463-2v-4.505c0-2.208 1.552-4.896 3.468-6ZM87.865 181.312l1.942-1.125a3.234 3.234 0 0 0 1.14-1.093c.287-.453.428-1.042.428-1.761 0-.718-.14-1.135-.427-1.25-.286-.109-.667-.031-1.14.245l-1.943 1.12v3.864Zm2.005-7.432c1.01-.588 1.797-.672 2.36-.26.556.406.838 1.323.838 2.734 0 1.417-.281 2.662-.839 3.729a6.07 6.07 0 0 1-2.36 2.485l-2.004 1.156v4.307a.968.968 0 0 1-.105.422.598.598 0 0 1-.234.292l-1.016.583-.24-.01c-.067-.068-.098-.167-.098-.313v-12.469c0-.14.031-.286.099-.427.068-.14.146-.239.24-.291l3.359-1.938ZM99.349 176.88l-1.38-4.703-1.38 6.297 2.76-1.594Zm-.693-8.078c.136-.078.24-.083.302-.01.068.073.13.203.177.39l3.073 10.433.011.125c0 .14-.031.281-.099.421-.068.146-.146.245-.24.297l-.901.521c-.166.094-.286.11-.349.037l-.14-.24-.537-1.828-3.963 2.286-.542 2.453c-.026.12-.073.25-.135.402a.823.823 0 0 1-.355.364l-.9.521-.24-.016c-.068-.067-.1-.166-.1-.307l.016-.146 3.068-13.974c.052-.25.11-.448.177-.594a.738.738 0 0 1 .302-.338l1.375-.797ZM106.885 163.859c.563-.323 1.053-.489 1.48-.505.427-.015.781.068 1.067.255.282.183.495.443.646.776.146.334.229.683.245 1.042a.898.898 0 0 1-.094.432.716.716 0 0 1-.245.287l-.88.505c-.14.083-.245.104-.318.063l-.197-.224a1.006 1.006 0 0 0-.568-.516c-.255-.089-.636.01-1.136.302a3.207 3.207 0 0 0-.619.464 3.32 3.32 0 0 0-.516.604 3.08 3.08 0 0 0-.344.692c-.083.24-.125.485-.125.73 0 .296.037.515.12.656.078.14.214.224.401.25.188.026.438.005.745-.057.307-.063.693-.146 1.151-.261.505-.12.937-.172 1.302-.156.365.016.656.109.885.292.235.187.407.447.516.796.115.349.172.782.172 1.313 0 .578-.083 1.161-.25 1.755a7.104 7.104 0 0 1-.719 1.688 7.722 7.722 0 0 1-1.14 1.5 6.858 6.858 0 0 1-1.516 1.182c-.469.271-.917.443-1.344.516-.422.072-.802.041-1.13-.099-.333-.136-.599-.381-.797-.73-.203-.343-.312-.796-.338-1.349a.774.774 0 0 1 .093-.427.623.623 0 0 1 .245-.286l.875-.505c.146-.084.25-.11.328-.073.073.031.136.109.188.234.057.136.13.261.213.38.084.12.193.204.339.25.14.047.318.047.531.011.214-.042.479-.151.797-.334.25-.145.495-.317.729-.51.234-.187.438-.406.615-.641.172-.239.312-.484.422-.75.109-.26.166-.541.166-.838 0-.281-.062-.479-.177-.594-.114-.109-.292-.161-.531-.151-.24.005-.531.052-.886.141-.348.083-.755.172-1.213.26-.422.083-.787.115-1.099.083a1.287 1.287 0 0 1-.776-.333c-.208-.193-.359-.469-.458-.828-.099-.359-.151-.828-.151-1.411 0-.579.083-1.162.25-1.745a7.27 7.27 0 0 1 .692-1.651 7.055 7.055 0 0 1 1.047-1.427 5.637 5.637 0 0 1 1.307-1.058ZM115.635 158.807c.563-.323 1.058-.489 1.48-.505.427-.016.786.068 1.067.25.287.188.5.443.646.776.146.333.229.688.245 1.047a.787.787 0 0 1-.094.432.716.716 0 0 1-.245.287l-.88.505c-.14.083-.245.104-.318.062l-.192-.229a1.038 1.038 0 0 0-.573-.51c-.255-.089-.63.01-1.136.297a3.69 3.69 0 0 0-.619.468c-.198.183-.37.386-.511.605a2.812 2.812 0 0 0-.349.692c-.083.24-.125.485-.125.73 0 .296.042.51.12.651.078.145.214.229.401.255.188.026.438.005.745-.058.312-.062.693-.145 1.156-.26.5-.12.932-.172 1.297-.161.365.015.661.114.891.296.229.188.401.448.51.797.115.349.172.782.172 1.313 0 .578-.083 1.161-.25 1.755a7.3 7.3 0 0 1-.714 1.688 7.751 7.751 0 0 1-1.145 1.5 6.858 6.858 0 0 1-1.516 1.182c-.469.271-.912.443-1.339.515-.427.073-.807.037-1.135-.098-.328-.136-.594-.381-.797-.73-.198-.349-.312-.797-.338-1.349a.868.868 0 0 1 .093-.427c.073-.14.151-.234.245-.286l.88-.505c.141-.084.245-.11.323-.073.078.031.136.109.188.234.057.136.13.261.213.38.084.12.198.203.339.25.146.047.323.047.536.011.214-.042.474-.151.792-.334.255-.145.495-.312.729-.51a3.76 3.76 0 0 0 .615-.641c.172-.239.317-.484.427-.75a2.15 2.15 0 0 0 .161-.838c0-.281-.057-.479-.172-.594-.119-.109-.297-.161-.536-.156-.234.01-.531.057-.886.146-.348.088-.755.172-1.213.26-.417.083-.787.115-1.099.083-.313-.036-.573-.145-.776-.333-.203-.193-.359-.469-.458-.828-.099-.359-.151-.833-.151-1.412 0-.578.083-1.161.25-1.744a7.177 7.177 0 0 1 .692-1.651 7.25 7.25 0 0 1 1.047-1.427 5.853 5.853 0 0 1 1.307-1.058ZM125.354 160.474l-1.078 6.396a3.13 3.13 0 0 1-.156.562.66.66 0 0 1-.281.349l-1.016.584c-.125.072-.224.073-.297-.011-.068-.083-.115-.213-.141-.39l-1.609-11.256-.01-.145c0-.141.036-.287.099-.428.067-.14.145-.239.239-.291l.927-.537.24-.021c.073.037.125.141.151.318l1.052 7.578.927-5.687c.021-.104.057-.24.12-.417a.733.733 0 0 1 .323-.401l1.026-.594c.151-.088.255-.073.318.032l.119.276.927 4.619 1.058-8.791c.021-.209.073-.37.146-.495l.239-.25.927-.536.24.015c.067.063.099.167.099.307l-.011.162-1.604 13.109a1.94 1.94 0 0 1-.146.558.693.693 0 0 1-.297.354l-1.015.583c-.125.073-.219.068-.281-.016a1.118 1.118 0 0 1-.157-.385l-1.078-5.151ZM137.281 151.641c-.031-.907-.229-1.511-.583-1.818-.354-.302-.828-.287-1.412.052-.583.339-1.052.865-1.411 1.578-.354.714-.552 1.542-.583 2.49a51.337 51.337 0 0 0 0 3.26c.031.912.229 1.511.583 1.807.359.297.828.276 1.411-.062.584-.333 1.058-.859 1.412-1.563.354-.708.552-1.536.583-2.484a51.097 51.097 0 0 0 0-3.26Zm-5.682 3.182a12.58 12.58 0 0 1 .271-2.193 9.771 9.771 0 0 1 .682-2.052 7.947 7.947 0 0 1 1.13-1.771 5.974 5.974 0 0 1 1.604-1.343c.61-.355 1.141-.527 1.594-.516.448.01.828.167 1.13.469.297.302.526.724.688 1.26.156.542.25 1.172.276 1.891.005.239.016.505.016.797.005.296.01.599.01.916 0 .313-.005.62-.01.917 0 .302-.011.573-.016.823a12.462 12.462 0 0 1-.271 2.193 9.534 9.534 0 0 1-.682 2.057 7.834 7.834 0 0 1-1.136 1.765 6.221 6.221 0 0 1-1.599 1.329c-.619.354-1.151.531-1.604.52a1.617 1.617 0 0 1-1.13-.458c-.297-.297-.526-.719-.682-1.266-.156-.546-.245-1.177-.271-1.88-.005-.239-.016-.505-.016-.802-.005-.292-.005-.599-.005-.911 0-.318 0-.625.005-.922 0-.297.011-.573.016-.823ZM142.948 149.312l1.818-1.046a3.351 3.351 0 0 0 1.14-1.047c.287-.422.427-.99.427-1.714 0-.719-.14-1.12-.427-1.203-.281-.078-.661.021-1.14.297l-1.818 1.047v3.666Zm1.88-7.166c1.047-.604 1.839-.688 2.38-.255.547.432.818 1.312.818 2.64a8.17 8.17 0 0 1-.422 2.646 6.56 6.56 0 0 1-1.234 2.188l1.729 3.77.042.193-.084.344-.192.239-1.068.615c-.167.094-.292.104-.37.026l-.172-.234-1.64-3.552-1.667.963v4.495a.963.963 0 0 1-.099.427.662.662 0 0 1-.24.292l-1.015.588-.24-.021c-.068-.062-.099-.166-.099-.307v-12.469c0-.145.031-.286.099-.427.068-.146.146-.239.24-.291l3.234-1.87ZM155.776 141.156a4.44 4.44 0 0 0-.156-1.057c-.089-.302-.219-.542-.391-.703a.878.878 0 0 0-.64-.245c-.266 0-.573.104-.933.313l-1.677.968v8.688l1.74-1.005a3.38 3.38 0 0 0 .89-.735c.25-.291.459-.614.631-.974.166-.354.291-.734.38-1.146.088-.411.14-.828.156-1.25a43.8 43.8 0 0 0 0-2.854Zm-2.057-4.14c.62-.36 1.156-.542 1.609-.558.458-.01.839.125 1.146.417.302.286.536.708.703 1.271.162.562.255 1.239.292 2.031.036.932.036 1.885 0 2.859-.037.829-.13 1.62-.292 2.37a9.927 9.927 0 0 1-.698 2.084 7.41 7.41 0 0 1-1.125 1.718 5.98 5.98 0 0 1-1.573 1.282l-3.156 1.828-.24-.021c-.067-.063-.099-.162-.099-.307v-12.469a.99.99 0 0 1 .099-.427c.068-.141.146-.24.24-.292l3.094-1.786Z"/></svg>