<svg width="362" height="346" viewBox="0 0 362 346" fill="none" xmlns="http://www.w3.org/2000/svg">
<g clip-path="url(#clip0_30_4127)">
<path d="M304.94 170.324C370.353 208.089 370.353 269.319 304.94 307.084C239.527 344.85 133.472 344.85 68.0594 307.084C2.64661 269.32 2.64691 208.09 68.06 170.325C133.473 132.559 239.528 132.559 304.94 170.324Z" fill="#EDEDEB"/>
<path d="M261.37 259.549C250.386 253.208 250.386 242.927 261.37 236.586C272.353 230.245 290.161 230.245 301.144 236.586C312.128 242.928 312.128 253.208 301.144 259.549C290.161 265.891 272.353 265.891 261.37 259.549Z" fill="#DADBD8"/>
<path d="M295.346 229.282C295.346 229.282 296.29 220.979 300.42 214.535C304.55 208.091 310.225 204.07 315.521 203.65C320.815 203.232 325.092 208.104 319.426 211.448C313.76 214.795 303.695 218.208 299.063 230.72L295.346 229.282Z" fill="#33BFBF"/>
<path d="M299.063 230.719L298.678 230.57C298.826 225.686 299 220.389 299.161 216.731C299.544 215.984 299.962 215.248 300.42 214.534C304.55 208.09 310.225 204.069 315.521 203.649C315.735 203.632 315.949 203.625 316.16 203.625C319.403 203.625 322.108 205.576 322.108 207.824C322.109 209.032 321.327 210.326 319.426 211.447C313.76 214.794 303.695 218.207 299.063 230.719Z" fill="#33BFBF"/>
<path d="M296.898 227.124L296.842 227.108C296.697 227.049 296.627 226.884 296.687 226.74C302.274 212.979 312.912 207.232 317.756 206.117C317.908 206.081 318.06 206.177 318.096 206.329C318.131 206.482 318.036 206.633 317.884 206.668C313.138 207.761 302.71 213.407 297.211 226.952C297.159 227.079 297.027 227.148 296.898 227.124Z" fill="white"/>
<path d="M325.183 227.287C324.703 228.368 323.523 228.931 322.426 229.373C321.333 229.812 320.137 230.29 319.544 231.312C318.348 233.376 320.31 236.279 319.027 238.289C318.489 239.131 317.488 239.575 316.503 239.752C315.685 239.905 314.852 239.904 314.023 239.973C313.624 239.966 313.228 239.936 312.843 239.882C311.705 239.717 310.47 239.663 309.427 240.246C307.787 241.168 307.283 243.24 306.286 244.837C305.092 246.75 302.98 248.002 300.76 248.304C300.022 248.401 298.651 248.534 297.899 248.115L297.745 248.017L297.731 248.003C297.629 247.887 297.499 247.739 297.443 247.658L297.414 247.609C297.123 246.539 297.598 245.425 297.617 244.319C297.619 244.25 297.619 244.185 297.615 244.119C297.57 242.833 297.533 241.556 297.504 240.273C297.444 237.915 297.417 235.55 297.432 233.189C297.449 231.655 297.265 229.977 297.913 228.532C298.632 226.943 300.418 226.908 301.094 225.349C301.365 224.729 301.508 224.063 301.77 223.434C302.55 221.591 304.444 220.266 306.448 220.169C309.566 220.01 312.365 222.536 315.481 222.306C316.288 222.243 317.074 221.997 317.869 221.851C320.395 221.378 323.315 222.097 324.736 224.235C325.33 225.128 325.617 226.306 325.183 227.287Z" fill="#33BFBF"/>
<path d="M297.159 242.697L297.137 242.692C296.996 242.655 296.911 242.509 296.949 242.367C301.259 226.198 318.295 223.86 322.281 224.149C322.426 224.16 322.537 224.287 322.527 224.433C322.517 224.58 322.389 224.69 322.243 224.679C318.344 224.398 301.68 226.684 297.462 242.505C297.427 242.64 297.293 242.722 297.159 242.697Z" fill="white"/>
<path d="M316.088 234.503L315.946 234.428C315.904 234.386 311.559 230.102 304.353 231.162C304.208 231.182 304.072 231.084 304.05 230.938C304.029 230.793 304.13 230.658 304.275 230.636C311.76 229.536 316.28 234.009 316.325 234.054C316.428 234.159 316.427 234.327 316.323 234.43C316.259 234.494 316.17 234.518 316.088 234.503Z" fill="white"/>
<path d="M256.217 34.0353L258.479 34.9055V29.9213C258.479 25.9701 261.631 25.0231 265.053 26.998C268.474 28.9737 271.248 33.778 271.248 37.7292V38.4529C272.025 38.1437 273.027 38.2638 274.123 38.8965C276.586 40.3184 278.582 43.7755 278.582 46.6184V46.9476L281.737 48.7682C283.358 49.7052 284.673 51.9816 284.673 53.8541C284.673 55.7259 283.358 56.4852 281.737 55.5489L256.217 40.816C254.595 39.879 253.281 37.6027 253.281 35.7302C253.281 33.8583 254.595 33.0991 256.217 34.0353Z" fill="#E2E2E0"/>
<path d="M286.496 30.0955L290.598 32.4636C290.577 32.2802 290.563 32.0982 290.563 31.9205V30.7325C290.563 28.6176 292.047 27.7609 293.878 28.8181C294.62 29.246 295.302 29.9249 295.855 30.7183C296.154 28.0595 298.241 27.0692 300.774 28.5323C303.514 30.1133 305.735 33.9601 305.735 37.1236V38.9016C305.735 39.7206 305.584 40.4109 305.315 40.9604L308.722 42.9275C309.738 43.514 310.561 44.9401 310.561 46.1131C310.561 47.2854 309.738 47.7617 308.722 47.1745L286.496 34.3432C285.48 33.7567 284.657 32.3299 284.657 31.1576C284.657 29.9846 285.48 29.509 286.496 30.0955Z" fill="#E2E2E0"/>
<path d="M270.616 137.988C267.629 143.037 264.756 147.422 262.739 149.524C258.91 151.306 249.911 154.044 246.389 154.502C245.765 154.584 245.138 154.425 244.623 154.086C243.239 153.179 242.168 153.032 240.708 152.527C239.565 152.131 239.081 151.586 238.866 151.794C238.591 152.06 238.291 152.819 238.986 153.604C239.336 153.999 239.973 154.43 240.794 154.957C240.794 154.957 238.276 155.628 236.028 155.038C232.981 154.238 231.542 155.704 233.603 159.013C234.341 160.198 237.246 162.095 243.136 161.583C244.833 161.436 247.281 161.293 249.393 160.843C255.041 159.638 261.32 158.47 265.181 157.316C266.155 157.025 267.895 155.898 268.931 154.718C275.424 147.316 277.575 142.043 280.422 137.249L280.175 129.417C275.574 129.275 273.113 133.764 270.616 137.988Z" fill="#F6879F"/>
<path d="M280.97 129.276C280.97 129.276 276.952 128.421 273.931 132.286C270.77 136.33 265.182 146.043 265.182 146.043C265.182 146.043 267.016 150.914 271.949 151.714L279.873 141.01C279.873 141.01 283.626 133.6 280.97 129.276Z" fill="#072448"/>
<path d="M298.106 247.655H292.939V238.443H298.106V247.655Z" fill="#F6879F"/>
<path d="M280.192 237.953L275.029 238.137L274.77 228.389L280.192 228.204V237.953Z" fill="#F6879F"/>
<path d="M298.833 158.688C298.833 163.826 298.077 205.18 298.077 205.18C298.197 206.658 299.528 209.384 299.24 215.063C298.848 222.778 298.327 243.05 298.327 243.05C298.327 243.05 295.819 244.576 292.574 243.169C292.574 243.169 288.386 214.76 287.46 207.115C286.651 200.443 284.582 178.309 284.582 178.309L281.782 204.429C281.782 204.429 282.734 208.408 282.422 212.98C282.18 216.517 280.519 234.933 280.519 234.933C280.519 234.933 278.087 236.652 274.554 235.408C274.554 235.408 271.615 207.673 271.555 204.428C271.487 200.729 273.273 158.633 273.273 158.633L298.833 158.688Z" fill="#072448"/>
<path d="M292.939 245V244.23C292.445 244.455 291.296 249.019 289.246 250.966C287.617 252.514 285.394 254.302 284.828 256.028C284.24 257.823 287.924 258.814 289.447 258.533C291.215 258.207 294.282 256.91 295.052 255.707C295.821 254.505 296.182 252.73 296.807 251.849C297.432 250.967 298.875 249.983 299.213 248.963C299.398 248.403 299.178 247.175 298.917 246.138C298.677 245.187 298.418 244.14 298.106 244.23C298.105 244.346 298.106 244.816 298.106 244.816C297.73 245.249 296.692 245.679 295.523 245.726C294.766 245.756 292.933 245.601 292.939 245Z" fill="#072448"/>
<path d="M274.974 236.477C274.706 236.486 274.487 236.881 273.895 237.548C273.18 238.354 272.01 239.223 270.856 239.826C268.922 240.834 265.16 242.386 263.458 243.185C262.395 243.684 262.444 245.022 263.543 245.782C264.642 246.544 267.297 247.092 270.483 246.35C272.219 245.946 274.48 244.276 275.91 244.366C277.341 244.456 280.017 244.434 281.073 243.677C282.129 242.919 281.706 241.3 281.407 239.909C281.082 238.39 280.675 236.023 280.192 236.127V236.651C279.571 237.63 276.366 238.028 275.001 237.308L274.974 236.477Z" fill="#072448"/>
<path d="M284.582 178.309C284.582 178.309 280.453 177.097 277.388 174.013C277.388 174.013 278.776 176.72 282.905 179.239L282.022 202.564L284.582 178.309Z" fill="#44588F"/>
<path d="M295.94 130.045C295.94 130.045 300.188 131.028 299.901 138.731L299.008 150.999L299.032 169.412C295.233 173.717 278.39 173.402 272.623 169.067C272.623 169.067 273.277 147.278 273.666 138.893C273.943 132.932 275.314 129.932 281.173 129.275L288.377 129.592L295.94 130.045Z" fill="#33BFBF"/>
<path d="M290.512 114.033C290.512 118.458 287.068 122.044 282.821 122.044C278.572 122.044 276.058 118.359 275.128 114.033C273.428 106.121 278.572 106.022 282.821 106.022C287.068 106.022 290.512 109.609 290.512 114.033Z" fill="#072448"/>
<path d="M294.436 117.274C294.436 117.274 293.256 123.046 292.784 123.995C292.31 124.944 291.333 125.213 291.333 125.213L291.415 121.152L294.436 117.274Z" fill="#072448"/>
<path d="M292.956 109.005C292.956 109.005 293.802 108.793 294.7 110.197C295.471 111.401 295.646 114.104 294.436 117.275L292.214 117.541L292.956 109.005Z" fill="#072448"/>
<path d="M293.774 110.173L296.498 110.223C296.565 109.442 296.008 108.796 295.257 108.783C294.504 108.769 293.841 109.391 293.774 110.173Z" fill="#072448"/>
<path d="M294.107 109.528L296.126 107.586C295.627 107.009 294.771 106.975 294.214 107.511C293.657 108.047 293.608 108.95 294.107 109.528Z" fill="#072448"/>
<path d="M291.547 117.541C291.993 117.818 292.629 116.927 293.179 116.328C293.728 115.729 295.454 115.164 296.349 117.127C297.26 119.129 295.718 121.032 294.436 121.669C292.144 122.809 291.415 121.152 291.415 121.152L291.23 130.296C287.998 135.294 280.68 135.114 283.311 130.055L283.318 127.271C283.318 127.271 281.112 127.62 280.037 127.447C278.247 127.159 277.121 125.688 276.577 123.67C275.706 120.429 275.375 117.812 276.114 111.437C276.926 104.45 284.728 104.378 288.941 107.14C293.155 109.902 291.547 117.541 291.547 117.541Z" fill="#F6879F"/>
<path d="M281.821 110.347C283.685 110.161 285.528 109.781 287.396 109.643C287.8 109.614 288.213 109.596 288.605 109.702C290.036 110.088 289.851 111.753 290.079 112.914C290.47 114.916 290.795 118.308 291.547 118.323C291.771 118.328 292.624 116.855 293.179 116.329C293.538 115.989 293.599 115.255 293.677 114.8C293.818 113.971 293.896 113.13 293.96 112.292C294.013 111.582 294.084 110.86 294.081 110.147C294.078 109.349 294.093 108.535 293.895 107.755C293.714 107.046 293.382 106.516 292.897 105.964L292.755 105.805C291.836 104.814 290.664 104.072 289.419 103.558C287.632 102.821 285.696 102.528 283.774 102.331C281.852 102.134 279.915 102.027 278.021 101.638C277.91 101.616 277.793 101.592 277.688 101.633C277.523 101.696 277.451 101.887 277.418 102.06C277.251 102.938 277.646 103.897 278.382 104.402C277.095 104.505 275.616 103.834 274.374 103.497C274.165 103.441 273.929 103.388 273.742 103.5C273.614 103.577 273.539 103.719 273.493 103.861C273.388 104.191 273.412 104.547 273.459 104.891C273.597 105.906 273.943 106.908 274.568 107.718C275.468 108.885 276.95 109.938 278.41 110.23C279.565 110.462 280.642 110.464 281.821 110.347Z" fill="#072448"/>
<path d="M283.318 127.271C283.318 127.271 287.313 126.433 288.71 125.66C289.645 125.142 290.415 124.245 290.642 123.67C290.642 123.67 290.379 124.905 289.545 126.017C288.522 127.377 283.318 128.379 283.318 128.379V127.271Z" fill="#F47089"/>
<path d="M284.277 116.502C284.277 116.981 284.636 117.367 285.078 117.366C285.521 117.365 285.879 116.976 285.879 116.498C285.879 116.019 285.521 115.632 285.078 115.633C284.636 115.635 284.277 116.024 284.277 116.502Z" fill="#072448"/>
<path d="M285.564 113.048L287.277 114.033C287.529 113.52 287.351 112.885 286.878 112.612C286.405 112.341 285.816 112.536 285.564 113.048Z" fill="#273E47"/>
<path d="M283.68 122.263L281.851 122.977C282.032 123.523 282.588 123.805 283.093 123.608C283.598 123.411 283.86 122.809 283.68 122.263Z" fill="#F47089"/>
<path d="M276.932 113.784L278.495 112.529C278.176 112.064 277.568 111.966 277.136 112.312C276.705 112.659 276.614 113.317 276.932 113.784Z" fill="#072448"/>
<path d="M277.618 116.264C277.618 116.742 277.977 117.13 278.419 117.128C278.862 117.128 279.22 116.739 279.22 116.26C279.22 115.781 278.862 115.395 278.419 115.396C277.977 115.397 277.618 115.785 277.618 116.264Z" fill="#072448"/>
<path d="M281.904 115.595L281.811 120.652L278.941 119.994L281.904 115.595Z" fill="#F47089"/>
<path d="M213.703 157.926L218.156 155.355L219.921 153.218L215.468 155.789L213.703 157.926Z" fill="#33BFBF"/>
<path d="M213.703 157.925L214.33 157.167L215.468 155.789L215.469 155.788L216.421 156.357L213.703 157.925Z" fill="#072448"/>
<path d="M225.822 164.923L230.275 162.352L233.997 159.058L229.544 161.629L225.822 164.923Z" fill="#33BFBF"/>
<path d="M225.822 164.922L225.823 164.921H225.824L225.822 164.922ZM225.83 164.918L228.732 162.346L229.544 161.628L229.546 161.627L230.483 162.168L230.275 162.351L225.83 164.918Z" fill="#072448"/>
<path d="M274.04 173.941C272.542 163.738 267.061 153.645 260.526 149.874C257.391 148.061 254.49 147.996 252.165 149.355C251.485 149.75 248.964 151.204 247.971 151.774C247.89 151.818 247.809 151.862 247.737 151.913C247.554 152.015 247.371 152.133 247.196 152.256C246.859 152.49 246.537 152.753 246.231 153.053L246.092 153.185C245.961 153.316 245.829 153.463 245.704 153.609C245.551 153.784 245.398 153.967 245.259 154.157C244.966 154.544 244.689 154.961 244.44 155.414C244.316 155.633 244.192 155.867 244.075 156.108L207.451 134.965L203 137.53V140.366L203.38 140.585L203.731 140.789V141.389L203 141.812V143.465L208.38 154.851L213.7 157.928L215.469 155.787L220.161 158.593L222.858 163.212L225.825 164.922L229.545 161.626L234.113 164.264L235.648 170.594L243.301 175.008C243.688 176.63 244.177 178.216 244.747 179.766C244.798 179.926 244.857 180.087 244.923 180.263C247.466 186.949 251.515 192.672 256.075 195.311C256.661 195.647 257.23 195.925 257.793 196.137C258.115 196.268 258.437 196.37 258.75 196.459C259.036 196.539 259.32 196.604 259.606 196.648C260.548 196.816 261.462 196.809 262.318 196.641C262.441 196.611 262.566 196.582 262.69 196.553C262.865 196.517 263.041 196.466 263.209 196.4C263.34 196.348 263.472 196.298 263.603 196.247C263.742 196.195 263.881 196.129 264.013 196.056C264.144 195.998 264.269 195.932 264.393 195.859C264.458 195.822 264.524 195.786 264.583 195.749L264.67 195.698C265.687 195.114 268.193 193.666 268.873 193.279C272.256 191.321 274.45 186.358 274.45 179.342C274.45 177.558 274.311 175.746 274.04 173.941ZM263.687 173.806C264.664 175.048 265.375 176.872 265.528 178.652C264.551 177.41 263.84 175.586 263.687 173.806Z" fill="#33BFBF"/>
<path d="M269.589 176.507C268.091 166.312 262.61 156.219 256.075 152.447C253.05 150.7 250.25 150.569 247.971 151.775C247.89 151.819 247.809 151.863 247.737 151.914C247.554 152.016 247.371 152.134 247.196 152.257C246.859 152.491 246.537 152.754 246.231 153.054L246.092 153.186C245.961 153.317 245.829 153.464 245.704 153.61C245.551 153.785 245.398 153.968 245.259 154.158C244.966 154.545 244.689 154.962 244.44 155.415C244.316 155.634 244.192 155.868 244.075 156.109C243.468 157.352 242.986 158.798 242.664 160.436L203 137.531V140.367L203.38 140.586L203.731 140.79V141.39L203 141.813V143.466L208.38 154.852L213.7 157.929L215.469 155.788L220.161 158.594L222.858 163.213L225.825 164.923L229.545 161.627L234.113 164.265L235.648 170.595L243.3 175.009C243.688 176.631 244.177 178.217 244.747 179.767C244.798 179.927 244.857 180.088 244.923 180.264C247.466 186.95 251.515 192.673 256.075 195.312C256.661 195.648 257.23 195.926 257.793 196.138C258.115 196.269 258.437 196.371 258.75 196.46C259.036 196.54 259.32 196.605 259.606 196.649C260.548 196.817 261.462 196.81 262.318 196.642C262.441 196.612 262.566 196.583 262.69 196.554C262.865 196.518 263.041 196.467 263.209 196.401C263.34 196.349 263.472 196.299 263.603 196.248C263.742 196.196 263.881 196.13 264.013 196.057C264.144 195.999 264.269 195.933 264.393 195.86C264.458 195.823 264.524 195.787 264.583 195.75L264.67 195.699C267.916 193.653 269.999 188.763 269.999 181.916C269.999 180.132 269.852 178.319 269.589 176.507ZM262.381 182.413C260.624 181.399 259.2 178.384 259.2 175.679C259.2 172.974 260.624 171.603 262.381 172.618C264.138 173.632 265.562 176.647 265.562 179.353C265.562 182.057 264.138 183.428 262.381 182.413Z" fill="#33BFBF"/>
<path d="M263.498 182.748C263.151 182.748 262.775 182.64 262.383 182.413C261.898 182.133 261.438 181.702 261.027 181.168C259.947 179.761 259.2 177.639 259.2 175.679C259.2 174.104 259.682 172.982 260.432 172.519C260.683 172.365 260.962 172.284 261.263 172.284C261.612 172.284 261.989 172.392 262.383 172.619C262.43 172.646 262.478 172.675 262.525 172.705C262.762 172.859 262.992 173.049 263.213 173.268C263.378 173.433 263.535 173.614 263.684 173.811C263.837 175.587 264.554 177.414 265.525 178.656C265.538 178.758 265.547 178.86 265.552 178.961C265.559 179.092 265.562 179.222 265.562 179.352C265.562 181.45 264.703 182.748 263.498 182.748Z" fill="#072448"/>
<path d="M261.027 181.168C259.945 179.762 259.196 177.641 259.196 175.681C259.196 174.106 259.68 172.982 260.432 172.519C259.682 172.982 259.2 174.104 259.2 175.679C259.2 177.639 259.947 179.761 261.027 181.168ZM265.562 179.352C265.562 179.222 265.559 179.092 265.552 178.961C265.56 179.093 265.562 179.223 265.562 179.35C265.562 179.351 265.562 179.351 265.562 179.352ZM263.213 173.268C262.992 173.049 262.762 172.859 262.525 172.705C262.763 172.859 262.994 173.048 263.213 173.268Z" fill="#08917E"/>
<path d="M260.471 149.842C260.466 149.84 260.462 149.838 260.459 149.836C260.462 149.838 260.466 149.84 260.471 149.842ZM260.399 149.802C258.734 148.863 257.136 148.417 255.658 148.416C257.136 148.417 258.733 148.863 260.399 149.802ZM252.181 149.347C252.186 149.344 252.19 149.342 252.193 149.339C252.19 149.342 252.186 149.344 252.181 149.347ZM255.651 148.416H255.653H255.651Z" fill="#F4F4F2"/>
<path d="M269.989 181.13C269.953 179.6 269.814 178.054 269.589 176.507C268.091 166.312 262.61 156.219 256.075 152.447C254.355 151.455 252.708 150.983 251.188 150.983C250.035 150.983 248.954 151.255 247.971 151.775C248.964 151.205 251.485 149.751 252.165 149.356C252.171 149.353 252.176 149.35 252.181 149.347C252.186 149.344 252.19 149.342 252.193 149.339C253.24 148.734 254.403 148.416 255.651 148.416H255.653C255.655 148.416 255.656 148.416 255.658 148.416C257.136 148.417 258.734 148.863 260.399 149.802C260.419 149.813 260.439 149.825 260.459 149.836C260.462 149.838 260.466 149.84 260.471 149.842C260.489 149.853 260.508 149.864 260.526 149.875C267.061 153.646 272.542 163.739 274.04 173.942C274.311 175.747 274.45 177.559 274.45 179.343C274.45 179.084 274.44 178.823 274.435 178.563C272.908 179.444 271.364 180.335 269.989 181.13Z" fill="#5CC8BC"/>
<path d="M269.999 181.915C269.999 188.762 267.916 193.653 264.67 195.699C265.687 195.115 268.193 193.666 268.873 193.279C272.256 191.321 274.45 186.358 274.45 179.342C274.45 179.083 274.44 178.822 274.435 178.562C272.906 179.445 271.359 180.338 269.983 181.133C269.989 181.394 269.999 181.655 269.999 181.915Z" fill="#33BFBF"/>
<path d="M264.67 195.699C267.916 193.653 269.999 188.762 269.999 181.915C269.999 181.655 269.989 181.394 269.983 181.133C271.359 180.338 272.906 179.445 274.435 178.562C274.44 178.822 274.45 179.083 274.45 179.342C274.45 183.848 273.545 187.508 272.002 190.068C271.142 191.495 270.084 192.578 268.873 193.279C268.193 193.666 265.687 195.115 264.67 195.699Z" fill="#1DB3A0"/>
<path d="M242.825 163.958L203.731 141.383V141.39L203 141.813L203.731 141.39V140.79L242.825 163.359V163.958Z" fill="#19B19D"/>
<path d="M242.825 164.806L203 141.813L203.731 141.39V141.383L242.825 163.958V164.806Z" fill="#072448"/>
<path d="M260.156 193.297C260.152 193.297 260.149 193.297 260.145 193.297C258.804 193.297 257.372 192.882 255.897 192.031C252.602 190.124 249.677 186.4 247.556 181.914C245.437 177.428 244.127 172.173 244.127 167.182C244.127 163.308 244.915 160.153 246.293 157.938C247.664 155.727 249.667 154.453 251.994 154.453C251.997 154.453 252.002 154.453 252.005 154.453C253.345 154.453 254.778 154.868 256.252 155.72C259.548 157.625 262.472 161.35 264.593 165.835C266.712 170.322 268.022 175.577 268.023 180.568C268.022 184.442 267.234 187.597 265.856 189.813C264.485 192.023 262.483 193.297 260.156 193.297ZM244.838 167.182C244.837 172.048 246.122 177.216 248.199 181.611C250.273 186.007 253.145 189.625 256.252 191.415C257.642 192.218 258.953 192.587 260.145 192.586C262.208 192.582 263.962 191.496 265.252 189.437C266.536 187.378 267.313 184.346 267.312 180.568C267.313 175.702 266.027 170.534 263.951 166.139C261.876 161.742 259.004 158.125 255.897 156.334C254.508 155.533 253.197 155.164 252.005 155.164C249.941 155.168 248.187 156.254 246.897 158.314C245.613 160.372 244.836 163.404 244.838 167.182Z" fill="#072448"/>
<path d="M242.664 160.435L203 137.53L207.451 134.965L244.075 156.108C243.468 157.351 242.986 158.797 242.664 160.435Z" fill="#5CC8BC"/>
<path d="M295.595 158.336C297.676 154.403 300.046 145.573 301.227 141.117C302.905 134.788 300.19 130.806 297.109 130.645C295.177 130.939 288.833 154.027 288.833 154.027C288.129 154.589 278.473 159.482 275.37 160.712C274.821 160.93 274.208 160.922 273.653 160.719C272.163 160.175 271.149 160.279 269.69 160.131C268.548 160.017 267.97 159.612 267.826 159.856C267.641 160.171 267.555 160.954 268.386 161.538C268.805 161.833 269.494 162.095 270.375 162.407C270.375 162.407 268.726 162.979 266.526 162.93C263.544 162.864 262.471 164.159 264.783 167.183C266.233 169.077 268.564 169.674 273.813 167.858C275.325 167.336 277.374 166.319 279.28 165.626C283.223 164.194 284.236 164.039 287.262 163.02C291.629 161.55 294.672 160.082 295.595 158.336Z" fill="#F6879F"/>
<path d="M295.94 130.045C297.754 130.294 299.513 130.704 300.568 132.169C301.624 133.635 302.503 135.702 301.448 141.382C300.393 147.06 298.223 153.094 298.223 153.094C298.223 153.094 294.002 154.897 289.513 150.321L292.595 138.392C292.595 138.392 293.123 130.644 295.94 130.045Z" fill="#072448"/>
</g>
<defs>
<clipPath id="clip0_30_4127">
<rect width="362" height="346" fill="white"/>
</clipPath>
</defs>
</svg>
