<svg xmlns="http://www.w3.org/2000/svg" width="238" height="294" fill="none"><g clip-path="url(#a)"><path fill="#DADBD8" d="M31.854 293.554 1.293 275.978c-1.724-.992-1.724-2.599 0-3.589l177.764-102.242c1.723-.99 4.515-.99 6.24 0l30.562 17.577c1.723.992 1.723 2.599 0 3.589L38.094 293.554c-1.724.992-4.517.992-6.24 0Z"/><path fill="#33BFBF" d="m141.708 262.228 26.272-15.134c2.708-1.556 4.063-3.599 4.063-5.64 0-2.042.01-3.641.01-3.641l-27.259-15.312c-1.445-.83-2.614-2.85-2.614-4.512v-32.268l-45.889 26.415-.003 32.269c0 1.661 1.17 3.682 2.616 4.512l23.188 13.311c5.417 3.115 14.198 3.115 19.616 0Z"/><path fill="#33BFBF" d="M131.899 264.564c-3.549 0-7.099-.779-9.807-2.336l-14.785-8.487v-3.623l-2.703-1.56 2.701 1.554.005-.005 14.778 8.481c2.709 1.559 6.26 2.337 9.811 2.337.15 0 .299-.001.449-.004v3.618c3.397-.061 6.764-.814 9.362-2.317l10.261-5.907-10.263 5.913c-2.709 1.557-6.259 2.336-9.809 2.336Zm2.565-3.776c2.653-.285 5.188-1.018 7.241-2.198l17.848-10.275-17.843 10.282c-2.055 1.178-4.593 1.913-7.246 2.191Zm37.584-22.033v-.713c.003-.043.004-.088.005-.132l-.005.845Z"/><path fill="#0B584B" d="M101.131 246.362Z"/><path fill="#8F9192" d="m107.307 253.743-8.41-4.827c-1.435-.828-2.613-2.843-2.613-4.513v-4.033l.004-.002v4.037c0 1.66 1.17 3.681 2.616 4.512l8.403 4.824v.002Z"/><path fill="#33BFBF" d="m107.307 253.741-8.403-4.824c-1.445-.83-2.616-2.852-2.616-4.512v-4.037l3.166-1.821v4.041c0 .572.138 1.188.38 1.782a6.194 6.194 0 0 0 1.297 1.993c.291.296.608.548.938.738l2.535 1.458 2.703 1.559v3.623Z"/><path fill="#33BFBF" d="M99.454 242.588c0 1.662 1.171 3.683 2.614 4.513l20.02 11.487c5.417 3.116 14.198 3.116 19.616.002l26.286-15.132c5.418-3.114 5.419-8.163.002-11.278l-20.033-11.497c-1.444-.83-2.615-2.85-2.615-4.511v-25.214l-45.89 26.416v25.214Z"/><path fill="#072448" d="M131.899 260.925c-3.551 0-7.102-.778-9.811-2.337l-7.389-4.24-7.389-4.24 45.976-26.356v-.005l-5.327-3.064 20.033 11.497c2.708 1.557 4.062 3.598 4.061 5.639 0 .075-.001.149-.005.223v-.226c0 2.046-1.358 4.092-4.061 5.64l-8.434 4.859-17.849 10.275c-2.052 1.18-4.587 1.913-7.24 2.198a23.24 23.24 0 0 1-2.116.125v.008c-.15.003-.299.004-.449.004Z"/><path fill="#07211E" d="m107.305 250.112-2.701-1.553-1.046-.604 3.752 2.153-.005.004ZM101.142 246.374c-.003-.004-.008-.007-.011-.012a6.257 6.257 0 0 1 .011.012Z"/><path fill="#061513" d="m104.604 248.559-2.536-1.458a4.433 4.433 0 0 1-.937-.738l.011.011c.289.291.601.539.926.727l1.49.854 1.046.604Zm-4.77-4.189c-.242-.594-.38-1.209-.38-1.782v-4.041 4.041c0 .521.114 1.076.317 1.62l.062.162Z"/><path fill="#33BFBF" d="m107.31 250.109-3.752-2.154-1.49-.854a4.492 4.492 0 0 1-.926-.727 6.235 6.235 0 0 1-1.371-2.166 4.694 4.694 0 0 1-.317-1.62v-4.041l45.89-26.394v4.019c0 1.661 1.171 3.681 2.615 4.512l5.327 3.064v.004l-45.976 26.357ZM172.048 237.816v3.64c0 2.045-1.358 4.076-4.061 5.641l-26.277 15.125c-2.598 1.503-5.965 2.256-9.361 2.317v-3.626c3.396-.046 6.763-.827 9.361-2.316l26.277-15.141c2.703-1.548 4.061-3.594 4.061-5.64Z"/><path fill="#33BFBF" d="M132.349 264.539v-3.626c3.396-.046 6.763-.827 9.361-2.316l26.277-15.141c2.703-1.548 4.061-3.594 4.061-5.64v3.64c0 2.045-1.358 4.076-4.061 5.641l-26.277 15.125c-2.598 1.503-5.965 2.256-9.361 2.317ZM25.771 273.928c1.694.974 4.531.922 6.337-.117l177.47-102.069c1.804-1.038 3.267-3.562 3.267-5.64V23.082c0-2.076-1.373-4.55-3.066-5.524-1.694-.974-4.53-.921-6.336.117L25.976 119.744c-1.805 1.038-3.269 3.564-3.269 5.641l-.002 143.019c0 2.077 1.373 4.549 3.067 5.524Z"/><path fill="#33BFBF" d="m32.108 273.808 177.47-102.068c1.805-1.039 3.268-3.564 3.268-5.641V23.079c0-2.077-1.463-2.919-3.268-1.88L32.11 123.268c-1.805 1.039-3.268 3.563-3.268 5.64l-.003 143.019c0 2.077 1.464 2.919 3.27 1.881Z"/><path fill="#33BFBF" d="m28.84 262.354.002-133.446c0-.266.024-.539.07-.814.076-.451.207-.91.384-1.361a7.89 7.89 0 0 1 1.467-2.358c.412-.45.867-.829 1.347-1.105l62.146-35.745 115.322-66.327c.525-.302 1.021-.445 1.46-.445a1.761 1.761 0 0 1 .483.064h.004l.001.001c.802.224 1.32 1.023 1.32 2.26v21.726l-6.137 3.53V32.161c0-.884-.442-1.394-1.085-1.394-.265 0-.562.086-.876.266L36.934 127.551c-1.083.623-1.961 2.138-1.961 3.385l-.002 115.108c0 .884.442 1.395 1.086 1.395.264 0 .561-.086.876-.268l14.036-8.071v10.526l-22.13 12.728ZM31.627 277.525c-1.811.797-4.318.767-5.858-.12-1.692-.978-3.066-3.445-3.066-5.536v-13.022l6.13 3.535v13.022c0 1.895 1.209 2.753 2.794 2.121Z"/><path fill="#33BFBF" d="M28.736 278.098c-1.095 0-2.163-.23-2.968-.694-1.69-.977-3.065-3.444-3.065-5.535v-13.022l6.13 3.535v13.022c0 1.48.737 2.326 1.814 2.326.303 0 .632-.066.98-.205-.865.381-1.89.573-2.89.573Z"/><path fill="#33BFBF" d="m28.834 262.382.006 13.017c0 2.076 1.463 2.919 3.269 1.88L209.578 175.21c1.805-1.038 3.268-3.564 3.268-5.64v-13.046L28.834 262.382Z"/><path fill="#06AB91" d="M28.838 262.379v-.024.024l-.004.003"/><path fill="#0A483E" d="M28.84 262.379v-.025l22.13-12.728v.022l-22.13 12.731Z"/><path fill="#33BFBF" d="M30.649 277.724c-1.073 0-1.81-.853-1.81-2.325v-13.021l22.13-12.73v5.314c0 .883.382 1.672.965 1.98.044.023.133.072.254.14.657.371 2.163 1.24 2.67 1.512.176.095.37.148.578.148.236 0 .49-.068.756-.221l150.889-86.832 1.847 3.895-63.584 36.569-45.89 26.394-3.166 1.821-.005.002-64.175 36.909c-.524.303-1.02.445-1.46.445ZM34.971 246.044l.002-115.108c0-1.246.878-2.762 1.961-3.384l167.814-96.518c1.083-.623 1.961-.118 1.961 1.128l.005 115.111c0 1.245-.878 2.761-1.961 3.385l-167.82 96.514c-1.083.622-1.962.118-1.962-1.128Z"/><path fill="#072448" d="m34.971 246.044.002-115.108c0-1.246.878-2.762 1.961-3.384l167.814-96.518c1.083-.623 1.961-.118 1.961 1.128l.005 115.111c0 1.245-.878 2.761-1.961 3.385l-167.82 96.514c-1.083.622-1.962.118-1.962-1.128Z"/><path fill="#33BFBF" d="M120.841 213.596c-1.695.974-3.068 3.343-3.068 5.293 0 1.948 1.373 2.737 3.068 1.764 1.695-.975 3.068-3.345 3.068-5.293 0-1.949-1.374-2.738-3.068-1.764Z"/><path fill="#3E3F42" d="m22.705 197.635.002-72.25-.001 72.249v.001Z"/><path fill="#393A3C" d="m22.705 258.847-.002-.001.002-61.211v-.001 61.213Z"/><path fill="#33BFBF" d="m28.834 262.382-6.129-3.534.001-61.214.001-72.249c0-1.038.374-2.196.963-3.219l3.52 2.021 2.61 1.502v-.002a7.926 7.926 0 0 0-.504 1.046c-.179.451-.31.91-.385 1.361a5.342 5.342 0 0 0-.077.812v133.476Z"/><path fill="#071715" d="M28.911 128.094Z"/><path fill="#A7A9A8" d="m23.672 122.163-.004-.002a8.11 8.11 0 0 1 .723-1.034c-.264.322-.507.67-.72 1.036Zm1.24-1.603.004-.003-.004.003Zm.007-.006ZM211.494 19.188c-.486-.681-1.07-1.253-1.699-1.62.629.364 1.213.938 1.699 1.62Zm-2.873-2.097a7.045 7.045 0 0 1 0 0Z"/><path fill="#33BFBF" d="m29.8 125.686-2.61-1.499-3.519-2.024c.213-.366.455-.715.72-1.036a7.072 7.072 0 0 1 .525-.57l.002-.003c.22-.212.45-.405.687-.573a5.06 5.06 0 0 1 .375-.239L203.443 17.676a6.092 6.092 0 0 1 1.813-.662 7.732 7.732 0 0 1 1.542-.153c.63 0 1.253.076 1.823.23.421.114.815.27 1.161.469l.014.008c.629.366 1.213.939 1.698 1.62.702.989 1.196 2.207 1.318 3.355-.128-.933-.606-1.534-1.286-1.724l-.001-.001-.004-.001a1.772 1.772 0 0 0-.411-.062l-.075-.002c-.44 0-.936.143-1.461.442L94.256 87.525 32.11 123.267c-.481.277-.937.659-1.348 1.109a7.864 7.864 0 0 0-.963 1.31Z"/><path fill="#0A483E" d="M30.763 124.376c.41-.45.867-.832 1.348-1.109l62.145-35.742L32.11 123.27c-.48.276-.936.656-1.348 1.106ZM211.526 20.818h-.001.001Zm-.005 0Z"/><path fill="#33BFBF" d="m29.8 125.689-2.61-1.502 2.61 1.5v.002ZM222.391 40.142c-.428-.255-1.01-.246-1.667.131L53.262 136.602c-1.265.728-2.291 2.495-2.291 3.952l.001 114.405c0 .887.382 1.671.966 1.984.375.2 2.343 1.34 2.927 1.654.375.2.832.207 1.327-.077l167.455-96.365c1.268-.726 2.294-2.494 2.294-3.95V43.245c0-.751-.273-1.271-.71-1.5a128.35 128.35 0 0 1-2.84-1.603Z"/><path fill="#FAFAF9" d="M55.435 258.367c-.64 0-1.16-.787-1.16-1.754V142.207c0-1.311.963-2.973 2.103-3.628l167.459-96.328c.298-.172.587-.262.835-.262.56 0 .892.47.892 1.255v114.961c0 1.311-.962 2.971-2.104 3.625L56.004 258.196a1.143 1.143 0 0 1-.569.171Z"/><path fill="#DADBD8" d="M224.674 41.615c-.308 0-.656.1-1.024.312L56.19 138.255c-1.265.728-2.29 2.497-2.29 3.952v114.407c0 1.151.641 2.128 1.536 2.128.236 0 .49-.068.756-.221l167.455-96.366c1.267-.726 2.294-2.494 2.294-3.949V43.245c0-1.033-.516-1.63-1.267-1.63Zm0 .75c.447 0 .515.55.515.88v114.961c0 1.193-.878 2.704-1.918 3.3L55.817 257.872a.789.789 0 0 1-.381.121c-.418 0-.785-.645-.785-1.379V142.207c0-1.193.877-2.707 1.915-3.304l167.459-96.327c.305-.175.521-.212.649-.212Z"/><path fill="#EDEDEB" d="M51.934 256.941c.249.133 2.03 1.145 2.81 1.587-.526-.373-.804-1.015-.843-1.915v-106.94l-2.932-1.71v106.998c0 .884.382 1.673.965 1.98Z"/><path fill="#33BFBF" d="M225.939 43.227c-.009-1.442-1.03-2.025-2.289-1.3L56.19 138.255c-1.265.728-2.29 2.497-2.29 3.952l.002 7.465 172.037-98.955v-7.49Z"/><path fill="#fff" d="M220.724 40.273c.364-.21.707-.307 1.012-.307.243 0 .463.061.653.173.043.027.105.063.18.107-.075-.042-.134-.078-.178-.104a1.26 1.26 0 0 0-.654-.175c-.306 0-.648.097-1.013.306Z"/><path fill="#6C7A7F" d="M52.202 137.509c.317-.374.678-.69 1.06-.906-.382.22-.743.534-1.06.906Z"/><path fill="#5CC8BC" d="m54.582 139.939-2.914-1.67c.157-.27.337-.526.534-.76a4.131 4.131 0 0 1 1.06-.906l167.462-96.33c.365-.21.707-.306 1.013-.306.243 0 .463.062.654.175.044.026.103.062.179.105.61.358 2.121 1.212 2.586 1.464a1.257 1.257 0 0 0-.484-.096c-.306 0-.655.1-1.024.311l-93.836 53.98-73.622 42.349c-.627.36-1.195.977-1.608 1.684Z"/><path fill="#E8E9E6" d="M54.582 139.938c.413-.707.981-1.323 1.608-1.683l73.622-42.35-73.622 42.35c-.627.36-1.195.976-1.608 1.683Zm170.585-98.222a.994.994 0 0 0-.231-.075c.077.016.15.04.22.069l.011.006Z"/><path fill="#5CC8BC" d="m54.584 139.94-.002-.001c.413-.707.981-1.324 1.608-1.684l73.622-42.35-73.62 42.349c-.624.365-1.198.979-1.608 1.686Zm170.599-98.215a.987.987 0 0 0-.016-.008l.016.008Z"/><path fill="#122026" d="m50.97 147.964-.001-.001.001-7.412a3.278 3.278 0 0 1 0 .003v7.41Z"/><path fill="#19B19D" d="m53.9 149.671-2.929-1.707v-7.41c0-.07.002-.142.007-.214.045-.682.305-1.415.69-2.071l2.91 1.678c-.42.719-.679 1.529-.679 2.261v7.463Z"/><path fill="#B4B6B4" d="m53.902 149.672-.003-.001v-7.463c0-.732.26-1.543.678-2.261-.418.718-.678 1.529-.678 2.261l.003 7.464Z"/><path fill="#C3C5C2" d="m53.901 149.673-2.932-1.702v-.008l.002.001 2.928 1.708.002.001Z"/><path fill="#19B19D" d="m53.902 149.672-.003-7.465c0-.731.26-1.543.678-2.26l.002.001.005-.009.002.001c-.425.718-.684 1.53-.684 2.269v7.463Z"/><path fill="#4AC2AD" d="m54.577 139.947-2.909-1.678 2.914 1.67a.069.069 0 0 1-.005.008Z"/><path fill="#C0C1BF" d="m54.577 139.947.004-.009-.004.009Z"/><path fill="#4AC2AD" d="M54.578 139.947v-.001a.057.057 0 0 0 .004-.008h.001l-.005.009Z"/><path fill="#33BFBF" d="M190.624 129.465 90.327 187.152c-.924.532-1.674 1.825-1.674 2.888v28.643c0 1.064.75 2.355 1.675 2.887l2.93 1.679c.926.53 2.425.528 3.35-.003l100.283-57.678c.924-.531 1.674-1.824 1.675-2.887l.012-28.652c.001-1.063-.75-2.356-1.675-2.886l-2.93-1.68c-.925-.53-2.424-.529-3.349.002Z"/><path fill="#FEFEFE" d="M89.15 188.385v-.001c.301-.515.718-.97 1.174-1.232l23.912-13.752-23.909 13.751c-.459.265-.875.716-1.177 1.234Zm109.414-54.627a.682.682 0 0 0-.009-.063c-.131-.986-.821-2.076-1.651-2.552l-2.93-1.68c-.463-.264-1.068-.396-1.672-.396h-.009.017c.602 0 1.202.131 1.664.394l2.929 1.679c.85.485 1.553 1.617 1.661 2.618Z"/><path fill="#70CEC3" d="m95.427 191.997-6.277-3.612c.302-.518.718-.969 1.177-1.234l23.909-13.751 76.389-43.932c.46-.264 1.064-.399 1.668-.402h.009c.604 0 1.209.133 1.672.397l2.93 1.68c.83.476 1.52 1.566 1.651 2.552-.094-.548-.438-.858-.902-.858-.227 0-.481.073-.75.228L96.609 190.749c-.463.261-.88.724-1.182 1.248Z"/><path fill="#072448" fill-opacity=".84" d="M96.324 223.38c-.928.393-2.227.346-3.061-.131l-2.93-1.68c-.928-.531-1.678-1.824-1.678-2.887v-28.641c0-.54.192-1.133.494-1.657l6.278 3.613c-.31.523-.495 1.109-.495 1.64v28.649c0 .955.603 1.394 1.392 1.094Z"/><path fill="#33BFBF" d="m96.608 190.751 100.297-57.685c.924-.531 1.674-.1 1.673.963l-.012 28.652c-.001 1.063-.751 2.356-1.675 2.887L96.608 223.246c-.925.531-1.674.101-1.674-.962V193.64c0-1.064.749-2.357 1.674-2.889Z"/><path fill="#072448" fill-opacity=".83" d="m164.037 144.76-73.713 42.393c-.456.261-.873.716-1.175 1.232l6.278 3.612c.301-.524.719-.986 1.182-1.248l73.695-42.384-6.267-3.605Z"/><path fill="#072448" d="m170.304 148.366-73.696 42.385c-.925.532-1.674 1.825-1.674 2.89v28.643c0 1.063.749 1.493 1.674.962l73.696-42.385v-32.495Z"/><path fill="#33BFBF" d="m113.604 187.263 38.026-21.872c1.577-.907 2.855-.263 2.855 1.439 0 1.701-1.278 3.817-2.855 4.724l-38.024 21.868c-1.576.908-2.855.264-2.856-1.438-.001-1.7 1.276-3.815 2.854-4.721Z"/><path fill="#FAFAF9" d="m121.396 194.5.111.022c.032.036.048.092.048.168v4.267c0 .43-.036.838-.107 1.225-.07.387-.174.746-.317 1.077-.14.331-.317.624-.528.882a2.684 2.684 0 0 1-.733.624c-.283.162-.529.236-.738.223a.726.726 0 0 1-.526-.276c-.141-.168-.245-.407-.315-.714a5.178 5.178 0 0 1-.102-1.105v-4.266c0-.077.016-.151.047-.224.031-.074.067-.124.112-.148l.476-.274.111.019c.032.038.048.094.048.17v4.214c0 .284.021.515.064.691.042.177.103.306.181.389a.352.352 0 0 0 .282.12.812.812 0 0 0 .36-.118 1.57 1.57 0 0 0 .645-.742 2.71 2.71 0 0 0 .185-.601c.046-.226.067-.481.067-.767v-4.213a.57.57 0 0 1 .047-.224.292.292 0 0 1 .113-.148l.469-.271ZM124.345 198.537c0-.076-.013-.13-.041-.163-.027-.034-.076-.052-.144-.054a1.3 1.3 0 0 0-.274.034c-.113.023-.258.052-.435.083a.868.868 0 0 1-.428-.014.534.534 0 0 1-.273-.207.96.96 0 0 1-.144-.391 3.352 3.352 0 0 1-.041-.552c0-.209.028-.429.083-.662.055-.233.133-.457.236-.672a3.07 3.07 0 0 1 .38-.599c.148-.181.32-.329.511-.438.192-.111.363-.172.514-.181a.632.632 0 0 1 .385.08.649.649 0 0 1 .247.289c.058.13.092.275.1.437a.47.47 0 0 1-.045.223c-.033.075-.071.124-.115.149l-.452.26-.132.019-.097-.075-.14-.048c-.059-.005-.146.027-.265.094a1.082 1.082 0 0 0-.311.272.644.644 0 0 0-.135.412c0 .076.01.133.033.174l.121.069a.963.963 0 0 0 .255-.015c.107-.016.247-.043.419-.08.348-.069.594-.003.737.195.143.198.215.507.215.921 0 .209-.029.428-.088.66a3.276 3.276 0 0 1-.256.677 2.967 2.967 0 0 1-.411.612c-.163.188-.346.34-.549.455-.209.121-.391.182-.55.187a.66.66 0 0 1-.401-.106.709.709 0 0 1-.253-.324 1.212 1.212 0 0 1-.095-.455.5.5 0 0 1 .044-.224.337.337 0 0 1 .114-.149l.453-.26.132-.003.1.109.156.078c.066.009.165-.023.3-.1l.182-.126.173-.167c.052-.062.097-.129.132-.2a.501.501 0 0 0 .053-.224ZM127.318 194.112a.98.98 0 0 0-.291.257c-.08.105-.148.22-.203.344a2.427 2.427 0 0 0-.183.745l1.328-.764a2.178 2.178 0 0 0-.044-.302.61.61 0 0 0-.106-.252.3.3 0 0 0-.193-.117c-.081-.012-.183.017-.308.089Zm-1.44 2.389c0-.388.033-.773.1-1.155a5.68 5.68 0 0 1 .288-1.06c.125-.325.278-.613.455-.86a1.93 1.93 0 0 1 .597-.561c.218-.126.418-.171.596-.132a.794.794 0 0 1 .455.312c.125.168.222.393.291.675.068.283.103.603.103.956v.467a.555.555 0 0 1-.048.225.296.296 0 0 1-.112.148l-1.962 1.129c0 .159.02.289.057.388.037.1.087.175.149.221a.304.304 0 0 0 .218.062.572.572 0 0 0 .253-.083c.125-.072.226-.152.304-.242.08-.091.143-.185.195-.284a1.44 1.44 0 0 1 .106-.175l.111-.095.47-.27.114.015c.034.038.048.096.044.174a1.78 1.78 0 0 1-.091.427 3.204 3.204 0 0 1-.256.594 3.583 3.583 0 0 1-.42.617 2.111 2.111 0 0 1-.577.487c-.22.127-.419.174-.597.142a.721.721 0 0 1-.455-.316c-.125-.177-.221-.42-.288-.724a5.104 5.104 0 0 1-.1-1.082ZM131.123 192.027a1.173 1.173 0 0 0-.507.567c-.104.246-.156.575-.156.991v2.705a.583.583 0 0 1-.046.224c-.032.073-.069.124-.112.148l-.446.256-.112-.019c-.032-.037-.047-.094-.047-.17v-4.848c0-.077.015-.152.047-.226a.302.302 0 0 1 .112-.147l.446-.256.112.019c.03.037.046.094.046.17v.24c.102-.226.211-.415.327-.572.114-.157.266-.29.455-.398l.263-.151.112.019c.031.036.047.093.047.169v.687a.575.575 0 0 1-.047.225c-.031.073-.067.123-.112.147l-.382.22ZM136.734 191.661l.112.02c.032.037.047.094.047.171v.739a.56.56 0 0 1-.047.224c-.031.074-.069.122-.112.146l-2.572 1.481-.113-.019c-.03-.037-.046-.095-.046-.171v-6.721c0-.076.016-.15.046-.223.032-.075.068-.123.113-.149l.476-.274.111.02c.031.037.047.094.047.17v5.702l1.938-1.116ZM139.754 188.052a1.73 1.73 0 0 0-.086-.486.498.498 0 0 0-.167-.242.293.293 0 0 0-.218-.048.747.747 0 0 0-.241.093 1.137 1.137 0 0 0-.24.185 1.24 1.24 0 0 0-.217.296 1.889 1.889 0 0 0-.167.436 2.93 2.93 0 0 0-.087.583c-.003.059-.006.13-.007.214a7.406 7.406 0 0 0 .007.724c.013.208.042.37.087.485a.48.48 0 0 0 .167.242.28.28 0 0 0 .217.048.734.734 0 0 0 .24-.093c.082-.046.164-.107.241-.184.078-.077.151-.175.218-.296.067-.123.122-.268.167-.435a3.02 3.02 0 0 0 .091-.791v-.525c0-.085-.002-.153-.005-.206Zm-.712-1.932c.216-.123.41-.176.585-.159a.707.707 0 0 1 .453.229c.127.135.229.318.304.552.077.234.122.507.133.819.004.06.006.139.006.236v.578a5.337 5.337 0 0 1-.141 1.21c-.075.319-.175.62-.302.897a3.582 3.582 0 0 1-.453.744 2.13 2.13 0 0 1-.585.513c-.215.122-.41.177-.584.159a.717.717 0 0 1-.452-.224 1.36 1.36 0 0 1-.302-.549 3.235 3.235 0 0 1-.137-.817 8.179 8.179 0 0 1-.008-.229c-.001-.093-.003-.186-.003-.284 0-.098.002-.195.003-.293a9.45 9.45 0 0 1 .008-.244c.013-.326.056-.65.133-.971.077-.322.178-.624.306-.904.127-.283.278-.532.452-.75.174-.218.369-.388.584-.513ZM142.115 186.87a4.757 4.757 0 0 0 0 .585c.023.435.101.714.236.836.132.121.295.125.486.016.193-.111.353-.303.485-.58.132-.277.207-.608.226-.994a5.523 5.523 0 0 0 0-.79c-.019-.35-.094-.591-.226-.724s-.292-.143-.485-.033c-.191.11-.354.303-.486.578-.135.273-.213.643-.236 1.106Zm.704 3.631c.083-.046.166-.118.254-.213a1.53 1.53 0 0 0 .234-.348 2.14 2.14 0 0 0 .173-.468c.047-.175.068-.364.068-.565v-.385a2.681 2.681 0 0 1-.308.583 2.338 2.338 0 0 1-.252.301 1.503 1.503 0 0 1-.326.25c-.197.113-.374.148-.532.105a.736.736 0 0 1-.406-.309c-.112-.161-.2-.37-.264-.628a3.927 3.927 0 0 1-.109-.859 9.517 9.517 0 0 1-.005-.36c0-.14.001-.261.005-.368.008-.324.044-.65.109-.983.064-.332.152-.642.264-.932.111-.29.247-.549.406-.775.158-.226.335-.395.532-.508.12-.07.23-.112.326-.125a.63.63 0 0 1 .252.011c.072.02.133.052.185.097l.123.131v-.24c0-.076.015-.15.048-.224a.289.289 0 0 1 .111-.148l.446-.256.112.019c.032.037.047.094.047.17v4.88c0 .839-.133 1.547-.396 2.126-.264.579-.63 1.002-1.097 1.27-.2.115-.385.175-.554.179a.755.755 0 0 1-.444-.119.888.888 0 0 1-.3-.358 1.348 1.348 0 0 1-.122-.539.446.446 0 0 1 .044-.222.31.31 0 0 1 .114-.15l.399-.228.141.017.1.125a.35.35 0 0 0 .209.171c.087.026.226-.016.413-.125ZM146.18 187.248a.588.588 0 0 1-.046.225.307.307 0 0 1-.113.148l-.445.256-.111-.019c-.033-.037-.049-.094-.049-.17v-4.848c0-.077.016-.153.049-.225.031-.074.068-.123.111-.148l.445-.256.113.02c.03.035.046.092.046.169v4.848Zm-.13-7.031.112.018c.032.039.048.096.048.171v.812a.547.547 0 0 1-.048.224.298.298 0 0 1-.112.149l-.504.29-.112-.019c-.031-.038-.047-.095-.047-.171v-.811c0-.076.016-.152.047-.226a.3.3 0 0 1 .112-.146l.504-.291ZM150.151 184.964a.588.588 0 0 1-.046.225.298.298 0 0 1-.112.147l-.446.258-.112-.021c-.032-.036-.048-.093-.048-.169v-2.642c0-.417-.054-.718-.164-.905-.109-.186-.278-.215-.506-.084-.207.118-.37.338-.489.657-.12.317-.18.686-.18 1.101v2.644c0 .075-.016.15-.047.223-.031.074-.068.123-.112.148l-.445.257-.112-.019c-.032-.037-.048-.094-.048-.171v-4.849c0-.075.016-.15.048-.223.032-.074.069-.124.112-.149l.445-.255.112.018c.031.038.047.094.047.17v.24a3.59 3.59 0 0 1 .358-.654c.137-.197.3-.349.489-.456.238-.138.438-.188.599-.148a.62.62 0 0 1 .387.307c.097.165.167.386.209.655.041.272.061.571.061.897v2.798Z"/><path fill="#072448" d="m188.086 163.161-7.304 4.201 1.131-10.206c-.873-.46-1.429-1.592-1.429-3.218 0-2.899 1.768-6.265 3.95-7.52 2.183-1.256 3.951.077 3.951 2.975 0 1.626-.556 3.4-1.43 4.865l1.131 8.903Z"/><path fill="#072448" d="m188.086 163.16-6.428-3.696-.876 7.898 7.304-4.202ZM184.435 146.418c-1.427.82-2.676 2.548-3.371 4.454l5.891 3.388v-.002c.874-1.465 1.43-3.239 1.43-4.865 0-2.898-1.768-4.231-3.95-2.975Z"/><path fill="#33BFBF" d="M148.924 112.446c-2.499-1.441-5.951-1.236-9.766.958-7.624 4.385-13.805 15.052-13.804 23.822 0 4.401 1.559 7.487 4.073 8.916.656.372 4.206 2.43 4.865 2.81 2.498 1.439 5.949 1.233 9.761-.96 7.624-4.385 13.804-15.05 13.804-23.821 0-4.385-1.545-7.462-4.041-8.899l-4.892-2.826Z"/><path fill="#33BFBF" d="M144.051 116.23c-7.624 4.388-13.804 15.052-13.804 23.822.001 8.771 6.182 12.327 13.806 7.941 7.624-4.386 13.811-15.051 13.804-23.821-.008-8.771-6.188-12.326-13.806-7.942Z"/><path fill="#33BFBF" d="M151.674 135.69v1c-1.966 3.343-4.656 6.253-7.622 7.955-2.971 1.706-5.656 1.892-7.622.804v-2.073c0-4.004 2.728-8.714 6.211-10.723l2.004-1.149c1.779-1.023 3.503-1.153 4.86-.372 1.383.794 2.169 2.452 2.169 4.558Z"/><path fill="#FCFDFC" d="M151.919 115.272h1.897v-1.096h-1.897v1.096Z"/><path fill="#5CC8BC" d="m132.26 130.632-4.892-2.827c2.425-5.962 6.797-11.528 11.791-14.401 2.215-1.273 4.308-1.876 6.163-1.876 1.339 0 2.554.314 3.601.919l2.996 1.729 1.845 1.066c-1.036-.585-2.235-.89-3.554-.89-1.853 0-3.944.603-6.158 1.877l-.284.167-.007.005h-.001c-4.871 2.92-9.123 8.385-11.5 14.231Z"/><path fill="#5CC8BC" d="M132.262 130.632h-.002c2.378-5.846 6.629-11.311 11.5-14.231-4.87 2.921-9.121 8.386-11.498 14.231Zm11.499-14.231.007-.005-.007.005Z"/><path fill="#BFC0BE" d="m133.216 148.331-1.476-.856c.513.299 1.034.599 1.476.856Zm-5.272-3.337c-1.63-1.668-2.591-4.313-2.591-7.767h.001c.001 3.454.961 6.098 2.59 7.767Z"/><path fill="#14B099" d="m134.089 148.834-.873-.503c-.442-.257-.963-.557-1.476-.856-1.012-.584-2.004-1.158-2.313-1.334a6.609 6.609 0 0 1-1.483-1.147c-1.629-1.669-2.588-4.313-2.59-7.767l4.893 2.828c0 .325.009.645.025.957.205 3.762 1.621 6.451 3.817 7.822Z"/><path fill="#14B099" d="M134.109 148.845a.075.075 0 0 1-.021-.012c-2.196-1.371-3.611-4.06-3.816-7.822.207 3.772 1.63 6.467 3.837 7.834Z"/><path fill="#DBDCD9" d="M125.354 137.226h-.001a20.063 20.063 0 0 1 .001 0Zm.08-1.753v-.01.01Z"/><path fill="#1DB3A0" d="m130.247 140.055-4.893-2.829c0-.572.027-1.152.078-1.738l.002-.015v-.01c.223-2.506.903-5.12 1.934-7.658l4.892 2.827c-.903 2.219-1.535 4.493-1.828 6.704l-.001.017-.002.008c-.12.911-.182 1.811-.182 2.691v.003Z"/><path fill="#1DB3A0" d="m130.429 137.361.002-.008-.002.008Zm.003-.025c.293-2.211.925-4.485 1.828-6.704h.002c-.905 2.22-1.536 4.494-1.83 6.704Z"/><path fill="#fff" d="M142.317 131.038c-.478 0-.925-.115-1.329-.346-.929-.534-1.441-1.595-1.441-2.983 0-2.542 1.73-5.53 3.942-6.802v-.002c1.203-.695 2.377-.781 3.314-.245.93.534 1.443 1.594 1.443 2.983 0 2.542-1.732 5.529-3.941 6.802-.686.393-1.362.593-1.988.593Z"/><path fill="#072448" d="M149.505 131.132c-1.357-.781-3.081-.651-4.86.372l-2.004 1.149c-3.483 2.009-6.211 6.719-6.211 10.723v2.073c1.966 1.088 4.651.902 7.622-.804 2.966-1.702 5.656-4.612 7.622-7.955v-1c0-2.106-.786-3.764-2.169-4.558Z"/></g><defs><clipPath id="a"><path fill="#fff" d="M0 0h238v294H0z"/></clipPath></defs></svg>