<svg width="238" height="294" viewBox="0 0 238 294" fill="none" xmlns="http://www.w3.org/2000/svg">
<g clip-path="url(#clip0_30_4127)">
<path d="M31.854 293.554L1.29258 275.978C-0.430859 274.986 -0.430859 273.379 1.29258 272.389L179.057 170.147C180.78 169.157 183.572 169.157 185.297 170.147L215.859 187.724C217.582 188.716 217.582 190.323 215.859 191.313L38.0936 293.554C36.3704 294.546 33.5771 294.546 31.854 293.554Z" fill="#DADBD8"/>
<path d="M141.708 262.228L167.98 247.094C170.688 245.538 172.043 243.495 172.043 241.454C172.043 239.412 172.053 237.813 172.053 237.813L144.794 222.501C143.349 221.671 142.18 219.651 142.18 217.989V185.721L96.291 212.136L96.2878 244.405C96.2878 246.066 97.4588 248.087 98.9037 248.917L122.092 262.228C127.509 265.343 136.29 265.343 141.708 262.228Z" fill="#33BFBF"/>
<path d="M131.899 264.564C128.35 264.564 124.8 263.785 122.092 262.228L107.307 253.741V250.118L104.604 248.558L107.305 250.112L107.31 250.107L122.088 258.588C124.797 260.147 128.348 260.925 131.899 260.925C132.049 260.925 132.198 260.924 132.348 260.921V264.539C135.745 264.478 139.112 263.725 141.71 262.222L151.971 256.315L141.708 262.228C138.999 263.785 135.449 264.564 131.899 264.564ZM134.464 260.788C137.117 260.503 139.652 259.77 141.705 258.59L159.553 248.315L141.71 258.597C139.655 259.775 137.117 260.51 134.464 260.788ZM172.048 238.755C172.048 238.448 172.048 238.203 172.048 238.042C172.051 237.999 172.052 237.954 172.053 237.91C172.052 238.053 172.051 238.349 172.048 238.755Z" fill="#33BFBF"/>
<path d="M101.131 246.362C100.587 245.811 100.132 245.106 99.8335 244.37C100.133 245.105 100.588 245.81 101.131 246.362Z" fill="#0B584B"/>
<path d="M107.307 253.743L98.8964 248.916C97.4621 248.088 96.2837 246.073 96.2837 244.403V240.37L96.2879 240.368V244.405C96.2879 246.065 97.4589 248.086 98.9038 248.917L107.307 253.741V253.743Z" fill="#8F9192"/>
<path d="M107.307 253.741L98.9037 248.917C97.4588 248.087 96.2878 246.065 96.2878 244.405V240.368L99.4538 238.547V242.588C99.4538 243.16 99.5923 243.776 99.8335 244.37C100.132 245.107 100.587 245.812 101.131 246.363C101.422 246.659 101.739 246.911 102.069 247.101L104.604 248.559L107.307 250.118V253.741Z" fill="#33BFBF"/>
<path d="M99.4536 242.588C99.4536 244.25 100.625 246.271 102.068 247.101L122.088 258.588C127.505 261.704 136.286 261.704 141.704 258.59L167.99 243.458C173.408 240.344 173.409 235.295 167.992 232.18L147.959 220.683C146.515 219.853 145.344 217.833 145.344 216.172V190.958L99.4536 217.374V242.588Z" fill="#33BFBF"/>
<path d="M131.899 260.925C128.348 260.925 124.797 260.147 122.088 258.588L114.699 254.348L107.31 250.108L153.286 223.752V223.747L147.959 220.683L167.992 232.18C170.7 233.737 172.054 235.778 172.053 237.819C172.053 237.894 172.052 237.968 172.048 238.042C172.048 237.895 172.048 237.816 172.048 237.816C172.048 239.862 170.69 241.908 167.987 243.456L159.553 248.315L141.704 258.59C139.652 259.77 137.117 260.503 134.464 260.788C133.765 260.862 133.057 260.903 132.348 260.913V260.921C132.198 260.924 132.049 260.925 131.899 260.925Z" fill="#072448"/>
<path d="M107.305 250.112L104.604 248.559L103.558 247.955L107.31 250.108L107.305 250.112Z" fill="#07211E"/>
<path d="M101.142 246.374C101.139 246.37 101.134 246.367 101.131 246.362C100.588 245.81 100.133 245.105 99.8334 244.37C99.8122 244.316 99.7911 244.262 99.771 244.208C100.068 245.007 100.555 245.78 101.142 246.374Z" fill="#07211E"/>
<path d="M104.604 248.559L102.068 247.101C101.738 246.911 101.422 246.659 101.131 246.363C101.134 246.366 101.139 246.37 101.142 246.374C101.431 246.665 101.743 246.913 102.068 247.101L103.558 247.955L104.604 248.559ZM99.8333 244.37C99.5922 243.776 99.4536 243.161 99.4536 242.588V238.547V242.588C99.4536 243.109 99.5678 243.664 99.7709 244.208C99.791 244.262 99.8122 244.316 99.8333 244.37Z" fill="#061513"/>
<path d="M107.31 250.109L103.558 247.955L102.068 247.101C101.743 246.913 101.431 246.665 101.142 246.374C100.555 245.78 100.068 245.008 99.7709 244.208C99.5678 243.664 99.4536 243.109 99.4536 242.588V238.547L145.344 212.153V216.172C145.344 217.833 146.515 219.853 147.959 220.684L153.286 223.748V223.752L107.31 250.109Z" fill="#33BFBF"/>
<path d="M172.048 237.816C172.048 237.816 172.048 239.411 172.048 241.456C172.048 243.501 170.69 245.532 167.987 247.097L141.71 262.222C139.112 263.725 135.745 264.478 132.349 264.539V260.913C135.745 260.867 139.112 260.086 141.71 258.597L167.987 243.456C170.69 241.908 172.048 239.862 172.048 237.816Z" fill="#33BFBF"/>
<path d="M132.349 264.539V260.913C135.745 260.867 139.112 260.086 141.71 258.597L167.987 243.456C170.69 241.908 172.048 239.862 172.048 237.816C172.048 237.816 172.048 239.411 172.048 241.456C172.048 243.501 170.69 245.532 167.987 247.097L141.71 262.222C139.112 263.725 135.745 264.478 132.349 264.539Z" fill="#33BFBF"/>
<path d="M25.7715 273.928C27.465 274.902 30.302 274.85 32.1075 273.811C54.6686 260.836 187.02 184.715 209.578 171.742C211.382 170.704 212.845 168.18 212.845 166.102V23.0823C212.845 21.0058 211.472 18.5322 209.779 17.5583C208.085 16.5844 205.249 16.6369 203.443 17.6752L25.9763 119.744C24.1705 120.782 22.7071 123.308 22.7071 125.385L22.7051 268.404C22.7051 270.481 24.0778 272.953 25.7715 273.928Z" fill="#33BFBF"/>
<path d="M32.1085 273.808L209.578 171.74C211.383 170.701 212.846 168.176 212.846 166.099V23.0783C212.846 21.0017 211.383 20.1604 209.578 21.1987L32.1105 123.268C30.3051 124.307 28.8417 126.831 28.8417 128.908L28.8394 271.927C28.8394 274.004 30.3031 274.846 32.1085 273.808Z" fill="#33BFBF"/>
<path d="M28.8398 262.354L28.8419 128.908C28.8419 128.642 28.8657 128.369 28.9112 128.094C28.9876 127.643 29.1189 127.184 29.296 126.733C29.6371 125.875 30.1494 125.049 30.7627 124.375C31.1749 123.925 31.6305 123.546 32.1104 123.27L94.2558 87.5245L209.578 21.1979C210.103 20.896 210.599 20.7529 211.038 20.7529C211.062 20.7529 211.086 20.7537 211.111 20.7545C211.254 20.7597 211.392 20.7806 211.521 20.8167L211.525 20.8174L211.526 20.8182C212.328 21.0421 212.846 21.8415 212.846 23.0775V44.8038L206.709 48.3344V32.1615C206.709 31.2775 206.267 30.7666 205.624 30.7666C205.359 30.7666 205.062 30.8527 204.748 31.0332L36.9342 127.551C35.851 128.174 34.9727 129.689 34.9727 130.936L34.9712 246.044C34.9712 246.928 35.4131 247.439 36.057 247.439C36.3206 247.439 36.6181 247.353 36.9326 247.171L50.9692 239.1V249.626L28.8398 262.354Z" fill="#33BFBF"/>
<path d="M31.627 277.525C29.8155 278.322 27.3088 278.292 25.7685 277.405C24.0773 276.427 22.7031 273.96 22.7031 271.869V258.847L28.8337 262.382V275.404C28.8337 277.299 30.0419 278.157 31.627 277.525Z" fill="#33BFBF"/>
<path d="M28.7365 278.098C27.6414 278.098 26.5733 277.868 25.7685 277.404C24.0773 276.427 22.7031 273.96 22.7031 271.869V258.847L28.8337 262.382V275.404C28.8337 276.884 29.5699 277.73 30.6467 277.73C30.9497 277.73 31.2792 277.664 31.627 277.525C30.7619 277.906 29.7379 278.098 28.7365 278.098Z" fill="#33BFBF"/>
<path d="M28.834 262.382L28.8395 275.399C28.8395 277.475 30.3032 278.318 32.1087 277.279L209.578 175.21C211.383 174.172 212.846 171.646 212.846 169.57V156.524L28.834 262.382Z" fill="#33BFBF"/>
<path d="M28.8384 262.379V262.355L28.8385 262.379L28.834 262.382" fill="#06AB91"/>
<path d="M28.8398 262.379V262.354L50.9692 249.626V249.648L28.8398 262.379Z" fill="#0A483E"/>
<path d="M30.6486 277.724C29.5761 277.724 28.8394 276.871 28.8394 275.399V262.378L50.969 249.648V254.962C50.969 255.845 51.351 256.634 51.9342 256.942C51.9775 256.965 52.0665 257.014 52.1883 257.082C52.8455 257.453 54.3509 258.322 54.8579 258.594C55.0336 258.689 55.2278 258.742 55.4355 258.742C55.6722 258.742 55.9266 258.674 56.1919 258.521L207.081 171.689L208.928 175.584L145.344 212.153L99.4535 238.547L96.2876 240.368L96.2834 240.37L32.1085 277.279C31.5835 277.582 31.088 277.724 30.6486 277.724Z" fill="#33BFBF"/>
<path d="M34.9712 246.044L34.9727 130.936C34.9727 129.69 35.8509 128.174 36.9341 127.552L204.748 31.0337C205.831 30.4111 206.709 30.9161 206.709 32.1618L206.714 147.273C206.714 148.518 205.836 150.034 204.753 150.658L36.9326 247.172C35.8496 247.794 34.9712 247.29 34.9712 246.044Z" fill="#33BFBF"/>
<path d="M34.9712 246.044L34.9727 130.936C34.9727 129.69 35.8509 128.174 36.9341 127.552L204.748 31.0337C205.831 30.4111 206.709 30.9161 206.709 32.1618L206.714 147.273C206.714 148.518 205.836 150.034 204.753 150.658L36.9326 247.172C35.8496 247.794 34.9712 247.29 34.9712 246.044Z" fill="#072448"/>
<path d="M120.841 213.596C119.146 214.57 117.773 216.939 117.773 218.889C117.773 220.837 119.146 221.626 120.841 220.653C122.536 219.678 123.909 217.308 123.909 215.36C123.909 213.411 122.535 212.622 120.841 213.596Z" fill="#33BFBF"/>
<path d="M22.7051 197.635L22.7067 125.385L22.7059 197.634L22.7051 197.635Z" fill="#3E3F42"/>
<path d="M22.7046 258.847L22.7031 258.846L22.7046 197.635L22.7054 197.634L22.7046 258.847Z" fill="#393A3C"/>
<path d="M28.8338 262.382L22.7051 258.848L22.706 197.634L22.7071 125.385C22.7071 124.347 23.0813 123.189 23.6698 122.166L27.1895 124.187L29.7992 125.689C29.7995 125.688 29.8 125.688 29.8002 125.687C29.6061 126.024 29.4366 126.376 29.2959 126.733C29.117 127.184 28.9854 127.643 28.9111 128.094C28.8641 128.37 28.838 128.641 28.8338 128.906V262.382Z" fill="#33BFBF"/>
<path d="M28.9111 128.094C28.9855 127.643 29.1171 127.184 29.296 126.733C29.1189 127.184 28.9876 127.643 28.9111 128.094Z" fill="#071715"/>
<path d="M23.6715 122.163L23.668 122.161C23.8827 121.797 24.1259 121.449 24.3912 121.127C24.1265 121.449 23.8844 121.797 23.6715 122.163ZM24.9117 120.56C24.9132 120.559 24.9147 120.557 24.9161 120.557C24.9147 120.557 24.9132 120.559 24.9117 120.56ZM24.9185 120.554C25.1379 120.342 25.3676 120.149 25.6055 119.982C25.3682 120.149 25.1379 120.342 24.9185 120.554ZM211.495 19.1879C211.009 18.507 210.425 17.9347 209.796 17.5684C210.425 17.9325 211.009 18.5055 211.495 19.1879ZM208.622 17.0911C208.051 16.9376 207.428 16.8612 206.798 16.8612C206.28 16.8612 205.758 16.9121 205.256 17.0147C205.758 16.9121 206.28 16.8604 206.798 16.8604C207.428 16.8604 208.051 16.9367 208.622 17.0911Z" fill="#A7A9A8"/>
<path d="M29.8003 125.686L27.1895 124.187L23.6714 122.163C23.8844 121.797 24.1264 121.448 24.3911 121.127C24.5565 120.927 24.7303 120.736 24.9116 120.56C24.9131 120.559 24.9161 120.557 24.9161 120.557L24.9184 120.554C25.1378 120.342 25.3682 120.149 25.6054 119.981C25.7282 119.895 25.8532 119.815 25.9798 119.742L203.443 17.6758C203.977 17.3688 204.6 17.1477 205.256 17.0144C205.758 16.9117 206.28 16.8608 206.798 16.8608C207.428 16.8608 208.051 16.9372 208.621 17.0908C209.042 17.2047 209.436 17.3613 209.782 17.5598C209.787 17.5628 209.791 17.565 209.796 17.568C210.425 17.9343 211.009 18.5067 211.494 19.1877C212.196 20.1765 212.69 21.3946 212.812 22.5429C212.684 21.6104 212.206 21.0088 211.526 20.8185L211.525 20.8177L211.521 20.817C211.392 20.781 211.254 20.7601 211.11 20.7548C211.085 20.7541 211.061 20.7533 211.035 20.7533C210.595 20.7533 210.099 20.8956 209.574 21.1953L94.2556 87.5249L32.1105 123.267C31.63 123.544 31.1735 123.926 30.7625 124.376C30.4051 124.768 30.0801 125.21 29.8003 125.686Z" fill="#33BFBF"/>
<path d="M30.7627 124.376C31.1737 123.926 31.6302 123.544 32.1107 123.267L94.2558 87.5249L32.1105 123.27C31.6305 123.546 31.1749 123.926 30.7627 124.376ZM211.526 20.8185L211.525 20.8178L211.526 20.8185ZM211.521 20.8171C211.392 20.781 211.254 20.76 211.111 20.7549C211.254 20.76 211.392 20.781 211.521 20.8171Z" fill="#0A483E"/>
<path d="M29.7991 125.689L27.1895 124.187L29.8003 125.687L29.7991 125.689Z" fill="#33BFBF"/>
<path d="M222.391 40.142C221.963 39.8866 221.381 39.8956 220.724 40.2731L53.262 136.602C51.9967 137.33 50.9707 139.097 50.9707 140.554L50.9724 254.959C50.9724 255.846 51.3538 256.63 51.938 256.943C52.3129 257.143 54.2807 258.283 54.8647 258.597C55.2398 258.797 55.6974 258.804 56.1922 258.52L223.647 162.155C224.915 161.429 225.941 159.661 225.941 158.205V43.2442C225.941 42.4936 225.668 41.9737 225.231 41.7452C224.819 41.5302 222.812 40.3938 222.391 40.142Z" fill="#33BFBF"/>
<path d="M55.4353 258.367C54.7956 258.367 54.2754 257.58 54.2754 256.613V142.207C54.2754 140.896 55.2383 139.234 56.378 138.579L223.837 42.2508C224.135 42.0792 224.424 41.9893 224.672 41.9893C225.232 41.9893 225.564 42.4583 225.564 43.2441V158.205C225.564 159.516 224.602 161.176 223.46 161.83L56.0041 258.196C55.8069 258.31 55.6155 258.367 55.4353 258.367Z" fill="#FAFAF9"/>
<path d="M224.674 41.6152C224.366 41.6152 224.018 41.7157 223.65 41.9268L56.19 138.255C54.9249 138.983 53.8994 140.752 53.8994 142.207V256.614C53.8994 257.765 54.541 258.742 55.4357 258.742C55.6725 258.742 55.9269 258.674 56.1921 258.521L223.647 162.155C224.914 161.429 225.941 159.661 225.941 158.206V43.2446C225.941 42.2116 225.425 41.6152 224.674 41.6152ZM224.674 42.3644C225.121 42.3644 225.189 42.9157 225.189 43.2446V158.206C225.189 159.399 224.311 160.91 223.271 161.506L55.8173 257.872C55.6775 257.952 55.5491 257.993 55.4357 257.993C55.0177 257.993 54.6514 257.348 54.6514 256.614V142.207C54.6514 141.014 55.5283 139.5 56.5658 138.903L224.025 42.5756C224.33 42.401 224.546 42.3644 224.674 42.3644Z" fill="#DADBD8"/>
<path d="M51.9342 256.941C52.1828 257.074 53.9638 258.086 54.7445 258.528C54.218 258.155 53.94 257.513 53.9015 256.613V149.673L50.969 147.963V254.961C50.969 255.845 51.351 256.634 51.9342 256.941Z" fill="#EDEDEB"/>
<path d="M225.939 43.2271C225.93 41.785 224.909 41.2022 223.65 41.9266L56.19 138.255C54.9249 138.983 53.8994 140.752 53.8994 142.207L53.9017 149.672L225.939 50.7169V43.2271Z" fill="#33BFBF"/>
<path d="M220.724 40.2735C221.088 40.0622 221.431 39.9663 221.736 39.9663C221.979 39.9663 222.199 40.027 222.389 40.1386C222.432 40.1656 222.494 40.2024 222.569 40.2465C222.494 40.2038 222.435 40.1679 222.391 40.1424C222.2 40.0285 221.98 39.967 221.737 39.967C221.431 39.967 221.089 40.0637 220.724 40.2735Z" fill="white"/>
<path d="M52.2021 137.509C52.5188 137.135 52.8796 136.819 53.2617 136.603C52.8796 136.823 52.5192 137.137 52.2021 137.509Z" fill="#6C7A7F"/>
<path d="M54.5817 139.939L51.668 138.269C51.8255 137.999 52.0053 137.743 52.2024 137.509C52.5194 137.137 52.8798 136.823 53.2619 136.603L220.724 40.2736C221.089 40.0639 221.431 39.9673 221.737 39.9673C221.98 39.9673 222.2 40.0287 222.391 40.1425C222.435 40.168 222.494 40.204 222.57 40.2466C223.18 40.6055 224.691 41.4595 225.156 41.7105C225.086 41.6805 225.013 41.6573 224.936 41.6416C224.852 41.6236 224.764 41.6146 224.672 41.6146C224.366 41.6146 224.017 41.7157 223.648 41.9262L129.812 95.9053L56.19 138.255C55.5631 138.615 54.9953 139.232 54.5817 139.939Z" fill="#5CC8BC"/>
<path d="M54.5818 139.938C54.9954 139.231 55.5632 138.615 56.19 138.255L129.812 95.9049L56.19 138.255C55.5632 138.615 54.9954 139.231 54.5818 139.938ZM225.167 41.716C225.133 41.7003 225.097 41.6868 225.06 41.6748C225.02 41.6613 224.978 41.6494 224.936 41.6411C225.013 41.6569 225.086 41.6801 225.156 41.71C225.16 41.7123 225.164 41.7138 225.167 41.716Z" fill="#E8E9E6"/>
<path d="M54.5836 139.94L54.5818 139.939C54.9954 139.232 55.5632 138.615 56.19 138.255L129.812 95.9053L56.1927 138.254C55.5683 138.619 54.9942 139.233 54.5836 139.94ZM225.183 41.7248C225.143 41.7061 225.103 41.6888 225.06 41.6753C225.097 41.6873 225.133 41.7008 225.167 41.7166C225.173 41.7196 225.178 41.7225 225.183 41.7248Z" fill="#5CC8BC"/>
<path d="M50.9707 147.964L50.969 147.963L50.9704 140.551C50.9704 140.482 50.9726 140.411 50.9772 140.34C50.9726 140.412 50.9704 140.484 50.9704 140.554L50.9707 147.964Z" fill="#122026"/>
<path d="M53.8994 149.671L50.971 147.964L50.9707 140.554C50.9707 140.484 50.973 140.412 50.9778 140.34C51.0233 139.658 51.283 138.925 51.6681 138.269L54.5771 139.947C54.1585 140.666 53.8994 141.476 53.8994 142.208V149.671Z" fill="#19B19D"/>
<path d="M53.9017 149.672L53.8994 149.671V142.208C53.8994 141.476 54.1586 140.665 54.5771 139.947C54.1586 140.665 53.8994 141.476 53.8994 142.208L53.9017 149.672Z" fill="#B4B6B4"/>
<path d="M53.9015 149.673L50.969 147.971V147.963L50.9708 147.964L53.8991 149.672L53.9015 149.673Z" fill="#C3C5C2"/>
<path d="M53.9017 149.672L53.8994 142.207C53.8994 141.476 54.1586 140.664 54.5771 139.947L54.5785 139.948C54.5803 139.945 54.5821 139.942 54.5836 139.939L54.5859 139.94C54.1609 140.658 53.9017 141.47 53.9017 142.209V149.672Z" fill="#19B19D"/>
<path d="M54.5771 139.947L51.668 138.269L54.5817 139.939C54.5802 139.942 54.5785 139.945 54.5771 139.947Z" fill="#4AC2AD"/>
<path d="M54.5771 139.947C54.5784 139.944 54.58 139.941 54.5812 139.938C54.58 139.941 54.5784 139.944 54.5771 139.947Z" fill="#C0C1BF"/>
<path d="M54.5785 139.947L54.5771 139.946C54.5785 139.944 54.5802 139.941 54.5816 139.938H54.5834C54.5819 139.941 54.5802 139.944 54.5785 139.947Z" fill="#4AC2AD"/>
<path d="M190.624 129.465L90.3271 187.152C89.4026 187.684 88.6526 188.977 88.6526 190.04V218.683C88.6526 219.747 89.4026 221.038 90.3281 221.57L93.2582 223.249C94.1837 223.779 95.6826 223.777 96.6081 223.246L196.891 165.568C197.815 165.037 198.565 163.744 198.566 162.681L198.578 134.029C198.579 132.966 197.828 131.673 196.903 131.143L193.973 129.463C193.048 128.933 191.549 128.934 190.624 129.465Z" fill="#33BFBF"/>
<path d="M89.1499 188.385V188.384C89.4514 187.869 89.8681 187.414 90.324 187.152L114.236 173.4L90.3272 187.151C89.8681 187.416 89.4524 187.867 89.1499 188.385ZM198.564 133.758C198.562 133.737 198.559 133.716 198.555 133.695C198.424 132.709 197.734 131.619 196.904 131.143L193.974 129.463C193.511 129.199 192.906 129.067 192.302 129.067C192.299 129.067 192.296 129.067 192.293 129.067C192.298 129.067 192.304 129.067 192.31 129.067C192.912 129.067 193.512 129.198 193.974 129.461L196.903 131.14C197.753 131.625 198.456 132.757 198.564 133.758Z" fill="#FEFEFE"/>
<path d="M95.4268 191.997L89.1499 188.385C89.4524 187.867 89.8681 187.416 90.3272 187.151L114.236 173.4L190.625 129.468C191.085 129.204 191.689 129.069 192.293 129.066C192.296 129.066 192.299 129.066 192.302 129.066C192.906 129.066 193.511 129.199 193.974 129.463L196.904 131.143C197.734 131.619 198.424 132.709 198.555 133.695C198.461 133.147 198.117 132.837 197.653 132.837C197.426 132.837 197.172 132.91 196.903 133.065L96.6094 190.749C96.146 191.01 95.7282 191.473 95.4268 191.997Z" fill="#70CEC3"/>
<path d="M96.3237 223.38C95.396 223.773 94.0971 223.726 93.2625 223.249L90.3324 221.569C89.4048 221.038 88.6548 219.745 88.6548 218.682V190.041C88.6548 189.501 88.8473 188.908 89.1488 188.384L95.4267 191.997C95.1167 192.52 94.9316 193.106 94.9316 193.637V222.286C94.9316 223.241 95.5346 223.68 96.3237 223.38Z" fill="#072448" fill-opacity="0.84"/>
<path d="M96.6083 190.751L196.905 133.066C197.829 132.535 198.579 132.966 198.578 134.029L198.566 162.681C198.565 163.744 197.815 165.037 196.891 165.568L96.6083 223.246C95.6827 223.777 94.9338 223.347 94.9338 222.284V193.64C94.9338 192.576 95.6827 191.283 96.6083 190.751Z" fill="#33BFBF"/>
<path d="M164.037 144.76L90.3239 187.153C89.868 187.414 89.4512 187.869 89.1487 188.385L95.4266 191.997C95.7281 191.473 96.1459 191.011 96.6092 190.749L170.304 148.365L164.037 144.76Z" fill="#072448" fill-opacity="0.83"/>
<path d="M170.304 148.366L96.6083 190.751C95.6827 191.283 94.9338 192.576 94.9338 193.641V222.284C94.9338 223.347 95.6827 223.777 96.6083 223.246L170.304 180.861V148.366Z" fill="#072448"/>
<path d="M113.604 187.263L151.63 165.391C153.207 164.484 154.485 165.128 154.485 166.83C154.485 168.531 153.207 170.647 151.63 171.554L113.606 193.422C112.03 194.33 110.751 193.686 110.75 191.984C110.749 190.284 112.026 188.169 113.604 187.263Z" fill="#33BFBF"/>
<path d="M121.396 194.5L121.507 194.522C121.539 194.558 121.555 194.614 121.555 194.69V198.957C121.555 199.387 121.519 199.795 121.448 200.182C121.378 200.569 121.274 200.928 121.131 201.259C120.991 201.59 120.814 201.883 120.603 202.141C120.391 202.397 120.147 202.606 119.87 202.765C119.587 202.927 119.341 203.001 119.132 202.988C118.921 202.973 118.746 202.881 118.606 202.712C118.465 202.544 118.361 202.305 118.291 201.998C118.223 201.691 118.189 201.323 118.189 200.893V196.627C118.189 196.55 118.205 196.476 118.236 196.403C118.267 196.329 118.303 196.279 118.348 196.255L118.824 195.981L118.935 196C118.967 196.038 118.983 196.094 118.983 196.17V200.384C118.983 200.668 119.004 200.899 119.047 201.075C119.089 201.252 119.15 201.381 119.228 201.464C119.307 201.549 119.401 201.588 119.51 201.584C119.62 201.58 119.74 201.539 119.87 201.466C119.998 201.391 120.119 201.292 120.231 201.17C120.342 201.046 120.437 200.899 120.515 200.724C120.594 200.551 120.655 200.351 120.7 200.123C120.746 199.897 120.767 199.642 120.767 199.356V195.143C120.767 195.066 120.783 194.993 120.814 194.919C120.845 194.845 120.883 194.796 120.927 194.771L121.396 194.5Z" fill="#FAFAF9"/>
<path d="M124.345 198.537C124.345 198.461 124.332 198.407 124.304 198.374C124.277 198.34 124.228 198.322 124.16 198.32C124.091 198.319 124 198.33 123.886 198.354C123.773 198.377 123.628 198.406 123.451 198.437C123.279 198.468 123.137 198.461 123.023 198.423C122.91 198.384 122.819 198.316 122.75 198.216C122.681 198.117 122.634 197.988 122.606 197.825C122.579 197.665 122.565 197.48 122.565 197.273C122.565 197.064 122.593 196.844 122.648 196.611C122.703 196.378 122.781 196.154 122.884 195.939C122.989 195.723 123.115 195.523 123.264 195.34C123.412 195.159 123.584 195.011 123.775 194.902C123.967 194.791 124.138 194.73 124.289 194.721C124.44 194.71 124.567 194.736 124.674 194.801C124.779 194.865 124.861 194.962 124.921 195.09C124.979 195.22 125.013 195.365 125.021 195.527C125.025 195.601 125.01 195.676 124.976 195.75C124.943 195.825 124.905 195.874 124.861 195.899L124.409 196.159L124.277 196.178L124.18 196.103L124.04 196.055C123.981 196.05 123.894 196.082 123.775 196.149C123.658 196.217 123.553 196.307 123.464 196.421C123.373 196.536 123.329 196.674 123.329 196.833C123.329 196.909 123.339 196.966 123.362 197.007L123.483 197.076C123.546 197.084 123.629 197.078 123.738 197.061C123.845 197.045 123.985 197.018 124.157 196.981C124.505 196.912 124.751 196.978 124.894 197.176C125.037 197.374 125.109 197.683 125.109 198.097C125.109 198.306 125.08 198.525 125.021 198.757C124.962 198.988 124.877 199.214 124.765 199.434C124.653 199.655 124.517 199.859 124.354 200.046C124.191 200.234 124.008 200.386 123.805 200.501C123.596 200.622 123.414 200.683 123.255 200.688C123.097 200.692 122.963 200.657 122.854 200.582C122.743 200.506 122.659 200.398 122.601 200.258C122.541 200.119 122.51 199.967 122.506 199.803C122.503 199.729 122.517 199.654 122.55 199.579C122.584 199.506 122.622 199.456 122.664 199.43L123.117 199.17L123.249 199.167L123.349 199.276L123.505 199.354C123.571 199.363 123.67 199.331 123.805 199.254L123.987 199.128L124.16 198.961C124.212 198.899 124.257 198.832 124.292 198.761C124.328 198.688 124.345 198.613 124.345 198.537Z" fill="#FAFAF9"/>
<path d="M127.318 194.112C127.204 194.178 127.107 194.264 127.027 194.369C126.947 194.474 126.879 194.589 126.824 194.713C126.769 194.839 126.727 194.967 126.698 195.099C126.668 195.23 126.649 195.35 126.641 195.458L127.969 194.694C127.962 194.595 127.947 194.495 127.925 194.392C127.905 194.29 127.869 194.207 127.819 194.14C127.771 194.076 127.705 194.037 127.626 194.023C127.545 194.011 127.443 194.04 127.318 194.112ZM125.878 196.501C125.878 196.113 125.911 195.728 125.978 195.346C126.045 194.964 126.141 194.611 126.266 194.286C126.391 193.961 126.544 193.673 126.721 193.426C126.899 193.178 127.098 192.992 127.318 192.865C127.536 192.739 127.736 192.694 127.914 192.733C128.092 192.775 128.243 192.879 128.369 193.045C128.494 193.213 128.591 193.438 128.66 193.72C128.728 194.003 128.763 194.323 128.763 194.676V195.143C128.763 195.22 128.747 195.295 128.715 195.368C128.684 195.442 128.646 195.491 128.603 195.516L126.641 196.645C126.641 196.804 126.661 196.934 126.698 197.033C126.735 197.133 126.785 197.208 126.847 197.254C126.91 197.302 126.982 197.323 127.065 197.316C127.148 197.311 127.232 197.283 127.318 197.233C127.443 197.161 127.544 197.081 127.622 196.991C127.702 196.9 127.765 196.806 127.817 196.707C127.86 196.628 127.895 196.568 127.923 196.532L128.034 196.437L128.504 196.167L128.618 196.182C128.652 196.22 128.666 196.278 128.662 196.356C128.659 196.455 128.628 196.598 128.571 196.783C128.515 196.967 128.43 197.166 128.315 197.377C128.202 197.589 128.062 197.795 127.895 197.994C127.73 198.193 127.536 198.356 127.318 198.481C127.098 198.608 126.899 198.655 126.721 198.623C126.544 198.589 126.391 198.484 126.266 198.307C126.141 198.13 126.045 197.887 125.978 197.583C125.911 197.278 125.878 196.917 125.878 196.501Z" fill="#FAFAF9"/>
<path d="M131.123 192.027C130.889 192.162 130.719 192.352 130.616 192.594C130.512 192.84 130.46 193.169 130.46 193.585V196.29C130.46 196.366 130.444 196.442 130.414 196.514C130.382 196.587 130.345 196.638 130.302 196.662L129.856 196.918L129.744 196.899C129.712 196.862 129.697 196.805 129.697 196.729V191.881C129.697 191.804 129.712 191.729 129.744 191.655C129.775 191.583 129.813 191.533 129.856 191.508L130.302 191.252L130.414 191.271C130.444 191.308 130.46 191.365 130.46 191.441V191.681C130.562 191.455 130.671 191.266 130.787 191.109C130.901 190.952 131.053 190.819 131.242 190.711L131.505 190.56L131.617 190.579C131.648 190.615 131.664 190.672 131.664 190.748V191.435C131.664 191.512 131.648 191.586 131.617 191.66C131.586 191.733 131.55 191.783 131.505 191.807L131.123 192.027Z" fill="#FAFAF9"/>
<path d="M136.734 191.661L136.846 191.681C136.878 191.718 136.893 191.775 136.893 191.852V192.591C136.893 192.666 136.878 192.741 136.846 192.815C136.815 192.889 136.777 192.937 136.734 192.961L134.162 194.442L134.049 194.423C134.019 194.386 134.003 194.328 134.003 194.252V187.531C134.003 187.455 134.019 187.381 134.049 187.308C134.081 187.233 134.117 187.185 134.162 187.159L134.638 186.885L134.749 186.905C134.78 186.942 134.796 186.999 134.796 187.075V192.777L136.734 191.661Z" fill="#FAFAF9"/>
<path d="M139.754 188.052C139.741 187.844 139.712 187.683 139.668 187.566C139.623 187.45 139.568 187.369 139.501 187.324C139.434 187.278 139.361 187.264 139.283 187.276C139.206 187.29 139.124 187.321 139.042 187.369C138.96 187.415 138.88 187.477 138.802 187.554C138.723 187.63 138.652 187.729 138.585 187.85C138.518 187.973 138.461 188.118 138.418 188.286C138.373 188.453 138.344 188.649 138.331 188.869C138.328 188.928 138.325 188.999 138.324 189.083C138.321 189.168 138.319 189.255 138.319 189.346C138.319 189.435 138.321 189.523 138.324 189.608C138.325 189.694 138.328 189.761 138.331 189.807C138.344 190.015 138.373 190.177 138.418 190.292C138.461 190.409 138.518 190.489 138.585 190.534C138.652 190.58 138.723 190.596 138.802 190.582C138.88 190.568 138.96 190.537 139.042 190.489C139.124 190.443 139.206 190.382 139.283 190.305C139.361 190.228 139.434 190.13 139.501 190.009C139.568 189.886 139.623 189.741 139.668 189.574C139.712 189.406 139.741 189.211 139.754 188.989C139.757 188.939 139.759 188.869 139.759 188.783C139.759 188.696 139.759 188.606 139.759 188.516C139.759 188.427 139.759 188.34 139.759 188.258C139.759 188.173 139.757 188.105 139.754 188.052ZM139.042 186.12C139.258 185.997 139.452 185.944 139.627 185.961C139.801 185.979 139.953 186.055 140.08 186.19C140.207 186.325 140.309 186.508 140.384 186.742C140.461 186.976 140.506 187.249 140.517 187.561C140.521 187.621 140.523 187.7 140.523 187.797C140.523 187.894 140.523 187.992 140.523 188.088C140.523 188.186 140.523 188.28 140.523 188.375C140.523 188.468 140.521 188.547 140.517 188.612C140.502 188.94 140.457 189.264 140.382 189.585C140.307 189.904 140.207 190.205 140.08 190.482C139.953 190.759 139.801 191.008 139.627 191.226C139.452 191.443 139.258 191.613 139.042 191.739C138.827 191.861 138.632 191.916 138.458 191.898C138.284 191.88 138.133 191.805 138.006 191.674C137.878 191.543 137.778 191.359 137.704 191.125C137.629 190.891 137.583 190.618 137.567 190.308C137.564 190.248 137.561 190.171 137.559 190.079C137.558 189.986 137.556 189.893 137.556 189.795C137.556 189.697 137.558 189.6 137.559 189.502C137.561 189.404 137.564 189.323 137.567 189.258C137.58 188.932 137.623 188.608 137.7 188.287C137.777 187.965 137.878 187.663 138.006 187.383C138.133 187.1 138.284 186.851 138.458 186.633C138.632 186.415 138.827 186.245 139.042 186.12Z" fill="#FAFAF9"/>
<path d="M142.115 186.87C142.103 187.071 142.103 187.266 142.115 187.455C142.138 187.89 142.216 188.169 142.351 188.291C142.483 188.412 142.646 188.416 142.837 188.307C143.03 188.196 143.19 188.004 143.322 187.727C143.454 187.45 143.529 187.119 143.548 186.733C143.556 186.625 143.561 186.491 143.561 186.331C143.561 186.171 143.556 186.042 143.548 185.943C143.529 185.593 143.454 185.352 143.322 185.219C143.19 185.086 143.03 185.076 142.837 185.186C142.646 185.296 142.483 185.489 142.351 185.764C142.216 186.037 142.138 186.407 142.115 186.87ZM142.819 190.501C142.902 190.455 142.985 190.383 143.073 190.288C143.159 190.194 143.237 190.079 143.307 189.94C143.378 189.804 143.436 189.647 143.48 189.472C143.527 189.297 143.548 189.108 143.548 188.907V188.522C143.516 188.602 143.476 188.693 143.425 188.796C143.373 188.897 143.312 189.002 143.24 189.105C143.167 189.209 143.083 189.31 142.988 189.406C142.892 189.504 142.782 189.587 142.662 189.656C142.465 189.769 142.288 189.804 142.13 189.761C141.971 189.716 141.835 189.613 141.724 189.452C141.612 189.291 141.524 189.082 141.46 188.824C141.395 188.566 141.359 188.28 141.351 187.965C141.347 187.863 141.346 187.744 141.346 187.605C141.346 187.465 141.347 187.344 141.351 187.237C141.359 186.913 141.395 186.587 141.46 186.254C141.524 185.922 141.612 185.612 141.724 185.322C141.835 185.032 141.971 184.773 142.13 184.547C142.288 184.321 142.465 184.152 142.662 184.039C142.782 183.969 142.892 183.927 142.988 183.914C143.083 183.901 143.167 183.905 143.24 183.925C143.312 183.945 143.373 183.977 143.425 184.022L143.548 184.153V183.913C143.548 183.837 143.563 183.763 143.596 183.689C143.626 183.615 143.663 183.567 143.707 183.541L144.153 183.285L144.265 183.304C144.297 183.341 144.312 183.398 144.312 183.474V188.354C144.312 189.193 144.179 189.901 143.916 190.48C143.652 191.059 143.286 191.482 142.819 191.75C142.619 191.865 142.434 191.925 142.265 191.929C142.095 191.933 141.947 191.893 141.821 191.81C141.696 191.726 141.596 191.606 141.521 191.452C141.447 191.297 141.406 191.117 141.399 190.913C141.393 190.84 141.409 190.766 141.443 190.691C141.475 190.616 141.514 190.567 141.557 190.541L141.956 190.313L142.097 190.33L142.197 190.455C142.248 190.543 142.317 190.6 142.406 190.626C142.493 190.652 142.632 190.61 142.819 190.501Z" fill="#FAFAF9"/>
<path d="M146.18 187.248C146.18 187.325 146.164 187.4 146.134 187.473C146.102 187.546 146.065 187.595 146.021 187.621L145.576 187.877L145.465 187.858C145.432 187.821 145.416 187.764 145.416 187.688V182.84C145.416 182.763 145.432 182.687 145.465 182.615C145.496 182.541 145.533 182.492 145.576 182.467L146.021 182.211L146.134 182.231C146.164 182.266 146.18 182.323 146.18 182.4V187.248ZM146.05 180.217L146.162 180.235C146.194 180.274 146.21 180.331 146.21 180.406V181.218C146.21 181.295 146.194 181.37 146.162 181.442C146.131 181.516 146.094 181.565 146.05 181.591L145.546 181.881L145.434 181.862C145.403 181.824 145.387 181.767 145.387 181.691V180.88C145.387 180.804 145.403 180.728 145.434 180.654C145.466 180.581 145.504 180.532 145.546 180.508L146.05 180.217Z" fill="#FAFAF9"/>
<path d="M150.151 184.964C150.151 185.041 150.135 185.116 150.105 185.189C150.074 185.262 150.035 185.312 149.993 185.336L149.547 185.594L149.435 185.573C149.403 185.537 149.387 185.48 149.387 185.404V182.762C149.387 182.345 149.333 182.044 149.223 181.857C149.114 181.671 148.945 181.642 148.717 181.773C148.51 181.891 148.347 182.111 148.228 182.43C148.108 182.747 148.048 183.116 148.048 183.531V186.175C148.048 186.25 148.032 186.325 148.001 186.398C147.97 186.472 147.933 186.521 147.889 186.546L147.444 186.803L147.332 186.784C147.3 186.747 147.284 186.69 147.284 186.613V181.764C147.284 181.689 147.3 181.614 147.332 181.541C147.364 181.467 147.401 181.417 147.444 181.392L147.889 181.137L148.001 181.155C148.032 181.193 148.048 181.249 148.048 181.325V181.565C148.149 181.326 148.269 181.108 148.406 180.911C148.543 180.714 148.706 180.562 148.895 180.455C149.133 180.317 149.333 180.267 149.494 180.307C149.654 180.346 149.783 180.45 149.881 180.614C149.978 180.779 150.048 181 150.09 181.269C150.131 181.541 150.151 181.84 150.151 182.166V184.964Z" fill="#FAFAF9"/>
<path d="M188.086 163.161L180.782 167.362L181.913 157.156C181.04 156.696 180.484 155.564 180.484 153.938C180.484 151.039 182.252 147.673 184.434 146.418C186.617 145.162 188.385 146.495 188.385 149.393C188.385 151.019 187.829 152.793 186.955 154.258L188.086 163.161Z" fill="#072448"/>
<path d="M188.086 163.16L181.658 159.464L180.782 167.362L188.086 163.16Z" fill="#072448"/>
<path d="M184.435 146.418C183.008 147.238 181.759 148.966 181.064 150.872L186.955 154.26V154.258C187.829 152.793 188.385 151.019 188.385 149.393C188.385 146.495 186.617 145.162 184.435 146.418Z" fill="#072448"/>
<path d="M148.924 112.446C146.425 111.005 142.973 111.21 139.158 113.404C131.534 117.789 125.353 128.456 125.354 137.226C125.354 141.627 126.913 144.713 129.427 146.142C130.083 146.514 133.633 148.572 134.292 148.952C136.79 150.391 140.241 150.185 144.053 147.992C151.677 143.607 157.857 132.942 157.857 124.171C157.857 119.786 156.312 116.709 153.816 115.272L148.924 112.446Z" fill="#33BFBF"/>
<path d="M144.051 116.23C136.427 120.618 130.247 131.282 130.247 140.052C130.248 148.823 136.429 152.379 144.053 147.993C151.677 143.607 157.864 132.942 157.857 124.172C157.849 115.401 151.669 111.846 144.051 116.23Z" fill="#33BFBF"/>
<path d="M151.674 135.69V136.69C149.708 140.033 147.018 142.943 144.052 144.645C141.081 146.351 138.396 146.537 136.43 145.449V143.376C136.43 139.372 139.158 134.662 142.641 132.653L144.645 131.504C146.424 130.481 148.148 130.351 149.505 131.132C150.888 131.926 151.674 133.584 151.674 135.69Z" fill="#33BFBF"/>
<path d="M151.919 115.272H153.816V114.176H151.919V115.272Z" fill="#FCFDFC"/>
<path d="M132.26 130.632L127.368 127.805C129.793 121.843 134.165 116.277 139.159 113.404C141.374 112.131 143.467 111.528 145.322 111.528C146.661 111.528 147.876 111.842 148.923 112.447L151.919 114.176L153.764 115.242C152.728 114.657 151.529 114.352 150.21 114.352C148.357 114.352 146.266 114.955 144.052 116.229C143.958 116.284 143.862 116.34 143.768 116.396C143.766 116.398 143.763 116.399 143.761 116.401H143.76C138.889 119.321 134.637 124.786 132.26 130.632Z" fill="#5CC8BC"/>
<path d="M132.262 130.632H132.26C134.638 124.786 138.889 119.321 143.76 116.401C138.89 119.322 134.639 124.787 132.262 130.632ZM143.761 116.401C143.763 116.399 143.766 116.398 143.768 116.396C143.766 116.398 143.763 116.399 143.761 116.401Z" fill="#5CC8BC"/>
<path d="M133.216 148.331C132.778 148.077 132.256 147.775 131.74 147.475C132.253 147.774 132.774 148.074 133.216 148.331ZM127.944 144.994C126.314 143.326 125.353 140.681 125.353 137.227H125.354C125.355 140.681 126.315 143.325 127.944 144.994Z" fill="#BFC0BE"/>
<path d="M134.089 148.834C133.892 148.721 133.584 148.543 133.216 148.331C132.774 148.074 132.253 147.774 131.74 147.475C130.728 146.891 129.736 146.317 129.427 146.141C128.886 145.835 128.389 145.451 127.944 144.994C126.315 143.325 125.356 140.681 125.354 137.227L130.247 140.055C130.247 140.38 130.256 140.7 130.272 141.012C130.477 144.774 131.893 147.463 134.089 148.834Z" fill="#14B099"/>
<path d="M134.109 148.845C134.102 148.842 134.095 148.839 134.088 148.833C131.892 147.462 130.477 144.773 130.272 141.011C130.479 144.783 131.902 147.478 134.109 148.845Z" fill="#14B099"/>
<path d="M125.354 137.226H125.353C125.353 136.654 125.381 136.074 125.432 135.488C125.381 136.074 125.354 136.654 125.354 137.226ZM125.434 135.473C125.434 135.47 125.434 135.467 125.434 135.463C125.434 135.467 125.434 135.47 125.434 135.473Z" fill="#DBDCD9"/>
<path d="M130.247 140.055L125.354 137.226C125.354 136.654 125.381 136.074 125.432 135.488C125.432 135.482 125.433 135.478 125.434 135.473C125.434 135.47 125.434 135.467 125.434 135.463C125.657 132.957 126.337 130.343 127.368 127.805L132.26 130.632C131.357 132.851 130.725 135.125 130.432 137.336C130.432 137.342 130.432 137.348 130.431 137.353C130.43 137.356 130.43 137.359 130.429 137.361C130.309 138.272 130.247 139.172 130.247 140.052V140.055Z" fill="#1DB3A0"/>
<path d="M130.429 137.361C130.43 137.359 130.43 137.356 130.431 137.353C130.43 137.356 130.43 137.359 130.429 137.361ZM130.432 137.336C130.725 135.125 131.357 132.851 132.26 130.632H132.262C131.357 132.852 130.726 135.126 130.432 137.336Z" fill="#1DB3A0"/>
<path d="M142.317 131.038C141.839 131.038 141.392 130.923 140.988 130.692C140.059 130.158 139.547 129.097 139.547 127.709C139.547 125.167 141.277 122.179 143.489 120.907V120.905C144.692 120.21 145.866 120.124 146.803 120.66C147.733 121.194 148.246 122.254 148.246 123.643C148.246 126.185 146.514 129.172 144.305 130.445C143.619 130.838 142.943 131.038 142.317 131.038Z" fill="white"/>
<path d="M149.505 131.132C148.148 130.351 146.424 130.481 144.645 131.504L142.641 132.653C139.158 134.662 136.43 139.372 136.43 143.376V145.449C138.396 146.537 141.081 146.351 144.052 144.645C147.018 142.943 149.708 140.033 151.674 136.69V135.69C151.674 133.584 150.888 131.926 149.505 131.132Z" fill="#072448"/>
</g>
<defs>
<clipPath id="clip0_30_4127">
<rect width="238" height="294" fill="white"/>
</clipPath>
</defs>
</svg>
