<svg xmlns="http://www.w3.org/2000/svg" width="168" height="171" fill="none"><path fill="#33BFBF" d="m156.9 1.4 8.7 4.8c1.3.8 2.4 2.7 2.4 4.2v81.1c0 1.5-1 3.4-2.4 4.2l-129 74.4c-1.3.7-3.5.7-4.8 0l-8.7-4.9c-1.4-.7-2.5-2.6-2.5-4.2V80c0-1.6 1.1-3.5 2.5-4.2L152 1.4c1.4-.8 3.6-.8 4.9 0Z"/><path fill="#33BFBF" d="M34.2 168.7V87.6c0-1.6 1.1-3.4 2.4-4.2L165.6 9c1.4-.8 2.4-.1 2.4 1.4v81.1c0 1.5-1 3.4-2.4 4.2l-129 74.4c-1.3.7-2.4.1-2.4-1.4Z"/><path fill="#000" d="M36.6 170.1c-1.4.8-3.6.7-4.8 0l-8.7-4.9c-1.4-.7-2.5-2.6-2.5-4.2V80c0-.9.3-1.7.8-2.5l13.5 7.7c-.4.7-.7 1.6-.7 2.4v81.1c0 1.4 1 2.2 2.4 1.4Z" opacity=".2"/><path fill="#fff" d="M168 10c-.2-1.2-1.2-1.7-2.4-1L36.7 83.4c-.7.4-1.3 1-1.8 1.8l-13.5-7.7c.4-.7 1-1.4 1.7-1.7L152 1.4c1.4-.8 3.5-.8 4.9 0l8.7 4.8c1.2.7 2.2 2.3 2.4 3.8Z" opacity=".4"/><path fill="#33BFBF" d="M34.2 116.6 15 139.7s-13.1-7.5-13.5-7.8c-1.1-.6-1.4-2.2-.4-3.3l19.5-19.8 13.6 7.8Z"/><path fill="#000" d="M34.2 116.6 15 139.7s-13.1-7.5-13.5-7.8c-1.1-.6-1.4-2.2-.4-3.3l19.5-19.8 13.6 7.8Z" opacity=".1"/><path fill="#33BFBF" d="m34.2 137.5-17.7 2.6c-2 .3-3.2-2.2-1.8-3.7l19.5-19.8c1.9 0 1.9 20.9 0 20.9Z"/><path fill="#44588F" fill-rule="evenodd" d="M50 110c.067-2.267.4-4.533 1-6.8a31.362 31.362 0 0 1 2.3-6.5c1.067-2 2.3-3.867 3.7-5.6a18.924 18.924 0 0 1 5.1-4.1c1.867-1.133 3.533-1.7 5-1.7s2.7.433 3.7 1.3c1.067.867 1.867 2.133 2.4 3.8.533 1.6.833 3.5.9 5.7.067 1.667.1 3.433.1 5.3s-.033 3.633-.1 5.3a33.99 33.99 0 0 1-.9 6.8 28.2 28.2 0 0 1-2.4 6.5 24.735 24.735 0 0 1-3.7 5.6c-1.467 1.733-3.133 3.133-5 4.2-1.933 1.067-3.633 1.6-5.1 1.6-1.4.067-2.633-.367-3.7-1.3-1-.867-1.767-2.133-2.3-3.8-.6-1.6-.933-3.5-1-5.7-.067-1.6-.1-3.333-.1-5.2s.033-3.667.1-5.4Zm17 .5c0-.733.033-1.533.1-2.4V102.8c-.067-.867-.1-1.633-.1-2.3-.067-.933-.2-1.767-.4-2.5-.267-.667-.6-1.2-1-1.6-.4-.4-.867-.6-1.4-.6-.6 0-1.3.233-2.1.7-.8.467-1.5 1.033-2.1 1.7-.6.733-1.1 1.5-1.5 2.3-.4.867-.7 1.767-.9 2.7-.267 1-.4 2-.4 3-.067.733-.1 1.5-.1 2.3v5.4c0 .867.033 1.633.1 2.3.067 1.933.5 3.333 1.3 4.2.8.8 2 .767 3.6-.1 1.6-.933 2.767-2.3 3.5-4.1.8-1.733 1.267-3.633 1.4-5.7ZM98.4 90.5v4.6a24.99 24.99 0 0 1-.9 5.8c-.533 2-1.233 3.867-2.1 5.6a25.234 25.234 0 0 1-3.3 4.9 18.002 18.002 0 0 1-4.3 3.5c-1.533.933-2.933 1.4-4.2 1.4-1.267 0-2.367-.367-3.3-1.1-.867-.733-1.567-1.767-2.1-3.1-.533-1.4-.833-3.033-.9-4.9v-4.6c.067-1.867.333-3.8.8-5.8a28.738 28.738 0 0 1 2.2-5.6 30.036 30.036 0 0 1 3.3-4.9c1.267-1.467 2.667-2.633 4.2-3.5 1.6-.933 3.033-1.4 4.3-1.4s2.367.367 3.3 1.1c.933.733 1.633 1.767 2.1 3.1.533 1.4.833 3.033.9 4.9Zm-14.1 12.4c.067 1.467.433 2.433 1.1 2.9.6.533 1.4.5 2.4-.1 1.067-.6 1.9-1.5 2.5-2.7.667-1.267 1.033-2.667 1.1-4.2.067-.6.1-1.3.1-2.1 0-.733-.033-1.367-.1-1.9-.067-1.467-.433-2.467-1.1-3-.6-.467-1.433-.4-2.5.2-1 .6-1.8 1.5-2.4 2.7-.667 1.2-1.033 2.6-1.1 4.2-.067.6-.1 1.267-.1 2 0 .8.033 1.467.1 2ZM114.1 99.7c-.733.467-1.4.733-2 .8-.533.067-1 .067-1.4 0a3.523 3.523 0 0 1-1.1-.6l-.7-.7v12.6c0 .467-.1.9-.3 1.3-.2.467-.433.767-.7.9l-4.9 2.8c-.267.2-.5.2-.7 0-.2-.2-.3-.533-.3-1v-39c0-.4.1-.833.3-1.3.2-.4.433-.7.7-.9l4.7-2.7c.267-.133.5-.1.7.1.2.2.3.5.3.9v1.4c.267-.533.533-1.1.8-1.7.267-.6.6-1.167 1-1.7.4-.6.9-1.167 1.5-1.7.533-.533 1.233-1.067 2.1-1.6 1.2-.667 2.3-1.033 3.3-1.1 1-.067 1.9.267 2.7 1 .8.667 1.433 1.7 1.9 3.1.467 1.467.733 3.333.8 5.6v4.9c-.067 2.333-.333 4.5-.8 6.5s-1.1 3.767-1.9 5.3c-.8 1.6-1.7 2.967-2.7 4.1-1 1.133-2.1 2.033-3.3 2.7Zm1.8-15.4a27.108 27.108 0 0 0 0-3.3c-.133-1.333-.433-2.367-.9-3.1-.533-.733-1.4-.767-2.6-.1-.6.333-1.1.767-1.5 1.3-.4.533-.733 1.1-1 1.7-.267.6-.5 1.233-.7 1.9-.133.6-.233 1.233-.3 1.9v4.1c.067.6.167 1.133.3 1.6.2.467.433.833.7 1.1.267.333.6.5 1 .5.4.067.9-.067 1.5-.4 1.2-.667 2.067-1.667 2.6-3 .467-1.333.767-2.733.9-4.2Z" clip-rule="evenodd"/><path fill="#44588F" d="M137.8 76.2c0-.467-.1-.767-.3-.9-.133-.133-.433-.133-.9 0s-1.1.333-1.9.6c-.733.267-1.667.567-2.8.9-2 .6-3.5.367-4.5-.7-1.067-1.067-1.6-2.933-1.6-5.6 0-1.4.2-2.8.6-4.2.467-1.4 1.1-2.767 1.9-4.1a16.403 16.403 0 0 1 2.8-3.7 16.403 16.403 0 0 1 3.7-2.8c1.333-.8 2.567-1.267 3.7-1.4 1.133-.2 2.133-.133 3 .2.8.267 1.433.767 1.9 1.5.467.733.733 1.6.8 2.6 0 .4-.1.833-.3 1.3-.2.4-.433.7-.7.9l-4.6 2.6c-.333.2-.567.233-.7.1-.2-.067-.4-.167-.6-.3a3.72 3.72 0 0 0-.9-.1c-.4 0-.933.2-1.6.6-.6.333-1.1.733-1.5 1.2-.4.533-.6 1.1-.6 1.7 0 .4.067.7.2.9.133.133.4.167.8.1s.933-.233 1.6-.5a48.371 48.371 0 0 1 2.8-.9c2.333-.8 4.033-.567 5.1.7 1.067 1.2 1.6 3 1.6 5.4 0 1.333-.233 2.7-.7 4.1a14.83 14.83 0 0 1-1.9 4.2c-.867 1.4-1.9 2.7-3.1 3.9a17.43 17.43 0 0 1-4.1 3.2c-1.533.867-2.9 1.367-4.1 1.5-1.2.2-2.2.1-3-.3-.8-.4-1.4-.967-1.8-1.7-.4-.733-.633-1.567-.7-2.5 0-.4.1-.833.3-1.3.2-.4.433-.7.7-.9l4.8-2.8c.333-.133.533-.133.6 0 .133.133.3.267.5.4.267.133.567.2.9.2.4 0 1-.2 1.8-.6a9.673 9.673 0 0 0 2-1.7c.533-.6.8-1.2.8-1.8ZM155.3 61c0 .4-.133.833-.4 1.3-.2.467-.433.767-.7.9l-4.9 2.8c-.267.2-.5.2-.7 0-.2-.2-.3-.533-.3-1V39.4c0-.467.1-.9.3-1.3.2-.467.433-.767.7-.9l4.9-2.8c.267-.2.5-.2.7 0 .267.2.4.533.4 1V61Zm0 12.7c0 .467-.133.933-.4 1.4-.2.4-.433.7-.7.9l-4.9 2.8c-.267.133-.5.1-.7-.1-.2-.2-.3-.5-.3-.9v-6c0-.467.1-.933.3-1.4.2-.4.433-.7.7-.9l4.9-2.8c.267-.133.5-.1.7.1.267.2.4.5.4.9v6Z"/></svg>