<svg width="907" height="565" viewBox="0 0 907 565" fill="none" xmlns="http://www.w3.org/2000/svg">
<g clip-path="url(#clip0_41_2)">
<path d="M128.114 100.506H36.3838V4.88503H128.114V100.506Z" fill="#DADBD8"/>
<path d="M121.902 100.506H30.1719V4.88503H121.902V100.506Z" fill="#F3F2F1"/>
<path d="M30.2004 100.478H121.874V4.91298H30.2004V100.478ZM121.931 100.536H30.1431V4.85699H121.931V100.536" fill="#DADBD8"/>
<path d="M109.571 87.6528H42.5024V17.7395H109.571V87.6528Z" fill="white"/>
<path d="M42.5025 88.1168C42.5556 88.1795 41.9186 88.9115 40.8477 90.0408C39.7769 91.1715 38.2712 92.7008 36.5848 94.3635C34.8968 96.0261 33.3462 97.5061 32.2029 98.5568C31.0592 99.6075 30.3222 100.23 30.2644 100.171C30.2066 100.113 30.8394 99.3861 31.9108 98.2555C32.9816 97.1248 34.491 95.5915 36.1837 93.9248C37.8753 92.2581 39.4296 90.7741 40.5733 89.7235C41.717 88.6715 42.4498 88.0542 42.5025 88.1168" fill="#DADBD8"/>
<path d="M109.571 87.9447C109.634 87.8927 110.365 88.5287 111.496 89.5994C112.626 90.6714 114.156 92.1767 115.818 93.8634C117.48 95.5514 118.96 97.1021 120.011 98.2447C121.062 99.3887 121.684 100.126 121.626 100.183C121.568 100.241 120.84 99.6087 119.71 98.5381C118.58 97.4661 117.046 95.9567 115.379 94.2647C113.713 92.5727 112.229 91.0181 111.178 89.8754C110.126 88.7314 109.508 87.9981 109.571 87.9447" fill="#DADBD8"/>
<path d="M109.387 17.9263C109.335 17.8637 109.972 17.1317 111.042 16.001C112.114 14.8717 113.619 13.341 115.306 11.6796C116.993 10.017 118.544 8.53694 119.687 7.48628C120.831 6.43428 121.568 5.81296 121.626 5.87163C121.684 5.92896 121.051 6.65698 119.98 7.78764C118.909 8.91698 117.399 10.4503 115.707 12.1183C114.015 13.785 112.461 15.2676 111.317 16.3196C110.174 17.3703 109.44 17.989 109.387 17.9263" fill="#DADBD8"/>
<path d="M42.3193 18.0981C42.2568 18.1501 41.5255 17.5141 40.3953 16.4421C39.2645 15.3714 37.7349 13.8661 36.0729 12.1781C34.4104 10.4914 32.9303 8.94078 31.8792 7.79811C30.8281 6.65411 30.2063 5.91678 30.2651 5.85944C30.3229 5.80078 31.0505 6.43409 32.1807 7.50475C33.3115 8.57675 34.8448 10.0861 36.5115 11.7781C38.1781 13.4701 39.662 15.0248 40.7131 16.1674C41.764 17.3114 42.3817 18.0448 42.3193 18.0981Z" fill="#DADBD8"/>
<path d="M109.387 87.6531C109.383 87.6477 109.378 87.5331 109.373 87.3117C109.369 87.0744 109.364 86.753 109.358 86.337C109.351 85.4597 109.342 84.1997 109.328 82.5624C109.312 79.2504 109.289 74.4331 109.26 68.3144C109.228 56.0691 109.183 38.6263 109.129 17.7397L109.387 17.9984C89.8634 18.0091 66.9342 18.0224 42.5097 18.0357H42.5029L42.7998 17.7397C42.7842 43.3997 42.7701 67.4064 42.7582 87.6517L42.5029 87.397C62.5452 87.4517 79.2321 87.4957 90.9316 87.5277C96.7769 87.5557 101.375 87.5784 104.535 87.5944C106.096 87.6077 107.297 87.617 108.134 87.6237C108.53 87.6304 108.836 87.6344 109.063 87.6384C109.274 87.6437 109.383 87.6477 109.387 87.6531C109.392 87.6571 109.293 87.6624 109.092 87.6664C108.871 87.6704 108.574 87.6744 108.189 87.6811C107.364 87.6877 106.179 87.6984 104.639 87.7104C101.493 87.7264 96.9144 87.7477 91.0941 87.7771C79.3556 87.8091 62.6124 87.853 42.5029 87.9077H42.2482L42.2477 87.6517C42.2358 67.4064 42.2212 43.3997 42.2056 17.7397V17.4424H42.5029H42.5097C66.9342 17.4557 89.8634 17.469 109.387 17.481H109.647L109.647 17.7397C109.592 38.6944 109.547 56.1957 109.515 68.4797C109.485 74.5731 109.463 79.3717 109.447 82.669C109.434 84.285 109.424 85.529 109.417 86.3944C109.411 86.7984 109.406 87.1104 109.402 87.3424C109.397 87.553 109.392 87.6571 109.387 87.6531" fill="#DADBD8"/>
<path d="M87.2264 63.8862H64.8472V41.5062H87.2264V63.8862" fill="#DADBD8"/>
<path d="M899.676 151.711H796.391V2.00209H899.676V151.711Z" fill="#DADBD8"/>
<path d="M894.502 151.711H791.216V2.00209H894.502V151.711Z" fill="#F3F2F1"/>
<path d="M881.671 135.497H804.048V18.2171H881.671V135.497Z" fill="white"/>
<path d="M881.671 135.497C881.671 135.497 881.66 135.298 881.655 134.924C881.651 134.536 881.647 133.984 881.64 133.26C881.632 131.786 881.623 129.629 881.608 126.828C881.592 121.206 881.569 113.016 881.539 102.668C881.508 81.9878 881.464 52.7025 881.412 18.2172L881.669 18.4745C857.955 18.4812 831.677 18.4892 804.057 18.4972H804.048L804.329 18.2172C804.308 62.4598 804.288 103.252 804.272 135.497L804.048 135.273C827.688 135.323 847.064 135.362 860.547 135.39C867.292 135.416 872.559 135.435 876.156 135.448C877.944 135.459 879.315 135.467 880.253 135.473C881.181 135.481 881.671 135.497 881.671 135.497C881.671 135.497 881.213 135.513 880.3 135.521C879.371 135.527 878.015 135.536 876.245 135.547C872.659 135.56 867.409 135.579 860.685 135.603C847.169 135.632 827.745 135.672 804.048 135.721H803.825L803.824 135.497C803.809 103.252 803.789 62.4598 803.768 18.2172V17.9358H804.048H804.057C831.677 17.9438 857.955 17.9518 881.669 17.9585H881.928V18.2172C881.876 52.7718 881.832 82.1158 881.801 102.837C881.771 113.16 881.748 121.331 881.732 126.939C881.719 129.717 881.708 131.857 881.7 133.32C881.693 134.031 881.689 134.573 881.685 134.953C881.68 135.319 881.671 135.497 881.671 135.497Z" fill="#DADBD8"/>
<path d="M894.792 2.00214C894.853 2.04881 894.152 3.07148 892.952 4.67681C891.752 6.28081 890.049 8.46349 888.105 10.8235C886.161 13.1835 884.345 15.2728 883 16.7581C881.655 18.2435 880.785 19.1274 880.728 19.0781C880.668 19.0261 881.432 18.0488 882.699 16.4995C884.084 14.8195 885.788 12.7528 887.672 10.4661C889.553 8.17947 891.256 6.11147 892.64 4.43013C893.919 2.89013 894.731 1.95281 894.792 2.00214Z" fill="#DADBD8"/>
<path d="M882.065 135.12C885.92 141.249 890.472 146.941 895.604 152.05Z" fill="white"/>
<path d="M895.604 152.05C895.553 152.102 894.632 151.302 893.244 149.904C891.856 148.505 890.017 146.493 888.137 144.144C886.259 141.792 884.699 139.556 883.641 137.894C882.581 136.232 882.004 135.157 882.065 135.118C882.136 135.076 882.831 136.073 883.969 137.672C885.108 139.269 886.708 141.456 888.576 143.793C890.444 146.128 892.224 148.169 893.533 149.632C894.841 151.094 895.663 151.992 895.604 152.05Z" fill="#DADBD8"/>
<path d="M791.201 151.593C795.711 146.029 800.22 140.465 804.731 134.901Z" fill="white"/>
<path d="M804.731 134.901C804.851 134.998 801.92 138.814 798.184 143.423C794.448 148.033 791.321 151.69 791.201 151.593C791.08 151.495 794.011 147.68 797.748 143.069C801.483 138.461 804.609 134.804 804.731 134.901Z" fill="#DADBD8"/>
<path d="M791.216 2.00234C791.337 1.90501 794.277 5.42102 797.782 9.85169C801.288 14.2837 804.03 17.9543 803.909 18.0503C803.786 18.1463 800.848 14.633 797.341 10.1997C793.837 5.76901 791.094 2.09834 791.216 2.00234Z" fill="#DADBD8"/>
<path d="M857.487 115.824H831.496V42.0291H857.487V115.824Z" fill="#DADBD8"/>
<path d="M34.9783 274.276C29.2351 270.669 22.6553 268.405 15.9095 267.712C12.7933 267.392 9.38919 267.484 6.88971 269.37C6.35897 269.772 5.84179 270.364 5.96053 271.018C6.04804 271.498 6.45429 271.848 6.84283 272.145C14.6012 278.064 26.3376 278.81 34.9783 274.276Z" fill="#DADBD8"/>
<path d="M34.4892 273.736C30.1725 270.368 25.8304 266.976 22.173 262.9C18.5157 258.824 15.5438 253.985 14.4512 248.62C14.1199 246.992 14.0173 245.133 15.0616 243.841C24.8788 251.508 32.5908 261.425 34.4892 273.736Z" fill="#DADBD8"/>
<path d="M34.8763 274.202C34.1367 268.83 33.8711 263.31 35.1045 258.032C36.3378 252.752 39.2097 247.7 43.7181 244.688C45.4149 248.653 44.6853 253.221 43.4899 257.365C41.643 263.769 38.7462 269.869 34.9493 275.348" fill="#DADBD8"/>
<path d="M44.5006 291.446C38.6584 292.157 33.5703 295.235 29.2084 299.186C24.8459 303.137 21.7454 308.459 20.4604 314.202C26.1912 313.849 31.0527 309.807 34.5787 305.275C38.1047 300.745 40.5474 295.773 44.4208 291.535" fill="#DADBD8"/>
<path d="M46.5906 294.205C41.8854 282.613 43.5901 268.646 50.9458 258.528C54.2745 270.368 53.0521 283.74 46.5906 294.205Z" fill="#DADBD8"/>
<path d="M59.3073 309.346C54.0052 309.017 48.6145 310.28 44.0104 312.93C39.4068 315.58 35.6073 319.608 33.2292 324.357C32.9057 325.004 32.6208 325.824 33.0536 326.402C33.4292 326.905 34.1562 326.952 34.7828 326.912C39.9218 326.578 44.477 323.486 48.236 319.965C51.9942 316.444 55.2688 312.376 59.4218 309.33" fill="#DADBD8"/>
<path d="M58.9016 308.522C56.1662 299.77 55.9959 290.234 58.4167 281.39C59.3724 277.898 60.9771 274.222 64.2063 272.584C64.4818 272.445 64.8031 272.32 65.0922 272.429C65.3667 272.532 65.5255 272.813 65.6522 273.077C66.8011 275.477 67.1355 278.202 67.0172 280.861C66.899 283.52 66.3474 286.137 65.7974 288.741C64.7807 293.557 64.2396 298.732 61.5979 302.885C60.9708 303.872 60.4188 304.936 59.9188 305.992C59.4188 307.048 59.4151 307.42 58.9568 308.258" fill="#DADBD8"/>
<path d="M92.5614 313.537C90.0677 304.05 92.7145 292.55 98.6921 284.774C99.1322 284.201 99.7155 283.588 100.435 283.654C101.536 283.756 101.821 285.224 101.772 286.328C101.34 296.021 98.1062 305.574 92.5614 313.537" fill="#DADBD8"/>
<path d="M95.5962 315.611C107.121 318.61 120.342 315.694 129.928 308.629C124.247 305.749 117.551 304.927 111.342 306.347C105.134 307.767 99.4607 310.549 95.5962 315.611" fill="#DADBD8"/>
<path d="M98.1558 309.294C104.61 298.772 116.985 291.904 129.314 291.278C127.894 296.293 123.773 300.19 119.123 302.545C114.473 304.901 109.283 305.926 104.166 306.92C102.176 307.306 99.4459 307.732 98.1558 309.294Z" fill="#DADBD8"/>
<path d="M93.2033 278.646C94.9508 272.658 96.7086 266.618 97.1877 260.398C97.668 254.179 96.7809 247.686 93.5538 242.347C87.5248 254.015 86.9142 267.646 93.0221 279.271" fill="#DADBD8"/>
<path d="M113.501 268.386C120.553 255.573 134.937 245.337 149.493 243.902C143.877 257.882 128.565 268.688 113.501 268.386" fill="#DADBD8"/>
<path d="M109.065 270.898C119.58 272.5 128.54 279.216 138.366 283.286C140.468 284.158 142.735 284.852 144.991 284.556C147.247 284.26 149.472 282.746 149.977 280.529C150.397 278.688 149.559 276.732 148.237 275.382C146.916 274.033 145.169 273.19 143.425 272.464C132.723 268.008 121.245 267.897 109.971 270.6" fill="#DADBD8"/>
<path d="M102.981 278.273C105.362 278.954 106.175 280.188 108.06 281.793C114.456 287.24 122.126 291.181 130.279 293.206C131.128 293.418 132.242 293.502 132.662 292.734C133.03 292.065 132.565 291.254 132.088 290.657C128.672 286.382 123.799 283.46 118.672 281.55C113.544 279.64 109.102 277.338 102.981 277.833" fill="#DADBD8"/>
<path d="M96.1138 233.73C104.665 241.71 116.709 245.809 128.352 244.698C128.882 244.648 129.46 244.564 129.82 244.172C130.631 243.289 129.658 241.926 128.712 241.189C119.234 233.8 107.753 230.736 96.1138 233.73" fill="#DADBD8"/>
<path d="M104.256 230.75C115.559 222.277 131.057 219.718 144.483 224.113C139.417 229.106 132.388 231.792 125.314 232.529C118.239 233.265 111.155 232.481 104.256 230.75" fill="#DADBD8"/>
<path d="M101.02 210.282C100.089 200.821 100.693 193.353 100.037 183.849C99.9841 183.089 99.821 182.176 99.1106 181.902C98.1216 181.521 97.2972 182.737 96.9726 183.746C94.1554 192.508 95.695 202.557 101.006 210.073" fill="#DADBD8"/>
<path d="M100.339 211.328C106.751 207.362 111.562 202.182 116.01 196.096C119.106 191.861 121.715 186.788 121.011 181.589C116.665 181.502 112.534 183.9 109.707 187.202C106.88 190.505 105.199 194.634 103.945 198.797C102.69 202.958 101.811 207.237 100.339 211.328Z" fill="#DADBD8"/>
<path d="M115.736 207.049C129.809 201.845 142.938 194.103 154.303 184.309C149.696 182.453 144.422 183.563 139.816 185.422C129.293 189.67 120.696 196.839 115.535 206.946" fill="#DADBD8"/>
<path d="M104.668 216.502C111.788 217.281 119.02 217.788 126.084 216.608C133.026 215.446 139.587 212.694 146.075 209.963C146.612 209.738 147.199 209.466 147.434 208.933C147.69 208.353 147.416 207.647 146.947 207.222C146.478 206.797 145.852 206.594 145.242 206.423C138.188 204.45 130.577 205.374 123.637 207.714C116.697 210.054 111.008 212.834 104.668 216.502Z" fill="#DADBD8"/>
<path d="M64.0161 234.053C59.1588 224.249 59.4745 212.806 63.6702 202.702C66.624 207.202 66.9849 212.934 66.4448 218.29C65.9046 223.646 64.2739 229.158 64.1687 234.541" fill="#DADBD8"/>
<path d="M44.6119 224.266C32.4848 224.034 20.3535 229.202 12.1191 238.109C18.1717 239.06 24.4056 237.498 29.9113 234.81C35.4171 232.121 40.3092 228.349 45.1587 224.605" fill="#DADBD8"/>
<path d="M31.5661 219.903C25.6333 219.422 19.9251 218.687 14.2208 220.435C8.51667 222.183 3.325 226.151 1 231.646C6.54896 232.271 12.1755 230.879 17.262 228.575C22.3479 226.27 26.9729 223.078 31.5661 219.903Z" fill="#DADBD8"/>
<path d="M50.8817 220.103C45.5448 216.606 40.0645 213.045 33.85 211.597C27.6355 210.147 20.4344 211.218 16.1011 215.902C21.1312 218.854 27.2349 219.202 33.0672 219.198C38.9 219.193 46.05 219.127 51.5484 221.073" fill="#DADBD8"/>
<path d="M50.9137 220.385C41.7897 211.425 38.3307 195.33 42.0017 183.081C49.1735 193.978 52.3855 207.422 50.9137 220.385" fill="#DADBD8"/>
<path d="M76.0029 194.999C77.7239 190.998 78.9343 186.799 80.478 182.727C82.0217 178.655 83.9405 174.649 86.8577 171.415C89.7749 168.182 93.8092 165.774 98.1583 165.558C95.4359 177.886 87.2472 188.902 76.2264 195.063" fill="#DADBD8"/>
<path d="M71.463 200.289C68.615 196.369 65.3254 191.049 61.4635 188.122C57.6021 185.197 52.5734 183.426 47.8604 184.55C52.6536 193.118 61.7104 199.158 71.463 200.289Z" fill="#DADBD8"/>
<path d="M72.3711 195.325C70.5045 190.582 68.6243 185.789 67.8695 180.749C67.1149 175.708 67.5743 170.324 70.1519 165.926C75.1602 175.394 76.7733 185.557 72.6263 195.433" fill="#DADBD8"/>
<path d="M76.0488 165.926C78.8859 156.541 87.4802 149.63 96.7583 146.458C97.928 146.06 99.1676 145.726 100.389 145.914C101.611 146.104 102.809 146.938 103.065 148.149C103.404 149.745 102.085 151.176 100.845 152.236C93.6196 158.414 85.1264 163.104 76.0488 165.926" fill="#DADBD8"/>
<path d="M76.1515 158.25C76.5124 152.198 76.89 146.059 78.8583 140.326C80.8259 134.591 84.6196 129.214 90.1384 126.705C91.0769 132.815 88.3805 138.897 85.1285 144.155C81.8764 149.415 77.9567 154.379 76.0029 160.246" fill="#DADBD8"/>
<path d="M76.0028 162.416C73.6582 155.576 73.4159 146.888 69.32 140.929C66.4571 136.764 61.8716 133.925 59.405 129.514C57.7659 133.634 58.2675 138.382 59.9815 142.472C61.6956 146.562 64.5279 150.082 67.5591 153.32C70.5899 156.557 73.1852 158.992 76.0028 162.416" fill="#DADBD8"/>
<path d="M76.0491 363.852C75.8674 363.852 75.709 318.221 75.6966 261.946C75.6841 205.653 75.8215 160.033 76.0033 160.033C76.1857 160.033 76.3434 205.653 76.3565 261.946C76.369 318.221 76.2314 363.852 76.0491 363.852Z" fill="#DADBD8"/>
<path d="M115.924 227.167C115.937 227.211 115.325 227.438 114.209 227.811C112.976 228.227 111.39 228.762 109.487 229.405C105.506 230.761 100.037 232.725 94.1021 235.157C88.225 237.678 82.6822 239.725 79.5259 242.459C77.9489 243.81 77.0437 245.27 76.5969 246.335C76.1442 247.406 76.0635 248.062 76.003 248.05C75.9806 248.046 75.9879 247.883 76.0229 247.571C76.075 247.263 76.1541 246.805 76.3578 246.242C76.7426 245.117 77.6229 243.554 79.2161 242.111C80.8026 240.665 83.0109 239.365 85.5406 238.182C88.0702 237.002 90.8745 235.77 93.8521 234.547C99.8057 232.107 105.317 230.206 109.343 228.961C111.355 228.334 112.996 227.871 114.135 227.566C115.275 227.267 115.911 227.123 115.924 227.167Z" fill="#DADBD8"/>
<path d="M128.995 195.064C129.009 195.08 128.844 195.256 128.514 195.576C128.125 195.941 127.641 196.396 127.049 196.952C125.689 198.188 123.839 199.868 121.583 201.917C116.863 206.12 110.463 211.82 103.39 218.117C96.2879 224.438 90.1509 230.478 85.8972 235.026C83.7676 237.297 82.0905 239.18 80.9463 240.493C80.4119 241.102 79.9749 241.602 79.6244 242.002C79.3176 242.345 79.1482 242.517 79.1305 242.504C79.1124 242.489 79.2477 242.288 79.5207 241.918C79.7972 241.552 80.1993 241.005 80.7493 240.328C81.8353 238.961 83.4629 237.028 85.5545 234.71C89.731 230.069 95.8348 223.958 102.951 217.625C110.077 211.317 116.562 205.652 121.275 201.568C123.588 199.584 125.485 197.956 126.88 196.758C127.504 196.241 128.015 195.817 128.425 195.477C128.784 195.189 128.98 195.046 128.995 195.064" fill="#DADBD8"/>
<path d="M95.7234 224.545C95.5369 224.461 97.0208 221.035 98.4989 216.703C99.9912 212.373 100.693 208.717 100.882 208.747C101.055 208.765 100.634 212.527 99.124 216.915C98.3802 219.105 97.5598 221.031 96.9145 222.399C96.2682 223.766 95.8041 224.581 95.7234 224.545" fill="#DADBD8"/>
<path d="M76.0908 252.162C76.0543 252.189 75.6663 251.736 74.9965 250.893C74.2537 249.94 73.3141 248.736 72.1928 247.297C69.8376 244.253 66.5824 240.052 62.9335 235.453C59.2819 230.854 55.9283 226.729 53.498 223.745C52.3528 222.326 51.3923 221.138 50.6329 220.198C49.9641 219.356 49.61 218.874 49.6449 218.845C49.6793 218.816 50.0991 219.24 50.8288 220.032C51.5595 220.824 52.5939 221.989 53.8553 223.445C56.3788 226.356 59.7939 230.438 63.4496 235.044C67.1032 239.648 70.3043 243.9 72.5657 247.017C73.6971 248.577 74.5975 249.849 75.2032 250.74C75.8095 251.63 76.1277 252.136 76.0908 252.162" fill="#DADBD8"/>
<path d="M67.3478 240.938C67.24 241.054 64.9072 238.286 63.6848 234.081C62.7832 231.118 62.7431 228.408 62.854 227.168L63.1452 227.192C63.015 227.72 62.9196 227.998 62.8676 227.99C62.8155 227.982 62.813 227.688 62.8562 227.145L63.1472 227.168C63.254 228.397 63.4406 231.014 64.3171 233.893C65.4972 237.968 67.5244 240.826 67.3478 240.938" fill="#DADBD8"/>
<path d="M56.0597 226.74C55.9753 226.832 55.2248 225.885 53.5024 225.255C51.7946 224.593 49.2238 224.448 46.4024 224.689C43.579 224.897 41.0571 225.4 39.2524 225.844C37.4476 226.291 36.3446 226.643 36.3102 226.549C36.2805 226.472 37.3305 225.964 39.1274 225.395C40.9211 224.829 43.4779 224.243 46.3529 224.032C49.2055 223.785 51.9118 224.005 53.6774 224.823C55.4675 225.615 56.1191 226.724 56.0597 226.74" fill="#DADBD8"/>
<path d="M53.3843 223.298C53.3343 223.401 51.8947 222.701 49.4665 221.871C47.0425 221.038 43.5895 220.163 39.6911 219.859C35.7905 219.569 32.2447 219.91 29.7223 220.366C27.1963 220.818 25.6676 221.291 25.6332 221.182C25.6192 221.139 25.9884 220.985 26.6723 220.739C27.3525 220.486 28.3639 220.197 29.6311 219.909C32.1613 219.329 35.7696 218.905 39.7416 219.202C43.7103 219.51 47.2129 220.477 49.6259 221.434C50.8348 221.909 51.7905 222.349 52.4249 222.703C53.0635 223.049 53.4051 223.258 53.3843 223.298" fill="#DADBD8"/>
<path d="M76.0031 208.748C75.8266 208.792 74.5473 204.348 73.1459 198.822C71.7443 193.294 70.7511 188.778 70.9282 188.734C71.1042 188.689 72.3833 193.133 73.7855 198.66C75.1864 204.186 76.1798 208.702 76.0031 208.748" fill="#DADBD8"/>
<path d="M76.1847 208.748C75.9889 208.81 75.1659 205.841 73.0181 202.805C70.9274 199.705 68.2591 198.149 68.3571 197.994C68.3915 197.925 69.1279 198.196 70.156 198.922C71.1862 199.64 72.4597 200.854 73.5577 202.426C75.7873 205.586 76.3446 208.736 76.1847 208.748Z" fill="#DADBD8"/>
<path d="M76.0491 339.526C75.9783 339.537 75.8439 338.43 75.3299 336.492C74.8215 334.554 73.8641 331.806 72.2808 328.592C69.1283 322.15 63.3913 313.981 56.1023 305.8C52.4903 301.673 48.9861 297.78 46.0121 294.053C43.0329 290.332 40.584 286.784 38.7965 283.646C37.0032 280.512 35.8356 277.821 35.1537 275.924C34.8189 274.972 34.5736 274.229 34.4387 273.714C34.2944 273.204 34.2293 272.933 34.2512 272.926C34.31 272.908 34.6419 273.972 35.3933 275.832C36.1449 277.69 37.3679 280.329 39.1991 283.41C41.0252 286.494 43.4944 289.989 46.4851 293.672C49.4709 297.36 52.9808 301.232 56.5991 305.366C63.9075 313.569 69.6304 321.841 72.7007 328.389C74.2439 331.657 75.1433 334.458 75.5788 336.43C75.7903 337.418 75.9324 338.189 75.9824 338.72C76.0485 339.246 76.072 339.524 76.0491 339.526Z" fill="#DADBD8"/>
<path d="M112.082 298.828C112.103 298.877 111.413 299.225 110.193 299.888C108.982 300.569 107.263 301.617 105.295 303.126C103.326 304.633 101.123 306.613 98.8624 308.993C96.6045 311.378 94.2785 314.148 91.9045 317.117C87.1586 323.072 82.7196 328.341 80.0618 332.546C78.7124 334.633 77.731 336.392 77.0889 337.625C76.4405 338.857 76.0968 339.549 76.0488 339.526C76.0285 339.517 76.0889 339.333 76.2238 338.992C76.3644 338.652 76.5556 338.142 76.8582 337.512C77.4332 336.237 78.3586 334.432 79.6676 332.297C82.2488 327.99 86.6525 322.649 91.3905 316.704C93.7686 313.73 96.1228 310.954 98.4233 308.573C100.728 306.196 102.988 304.229 105.015 302.753C107.042 301.274 108.817 300.276 110.074 299.661C110.7 299.346 111.21 299.154 111.548 299.008C111.889 298.869 112.072 298.808 112.082 298.828" fill="#DADBD8"/>
<path d="M112.787 312.031C112.795 312.127 111.263 312.313 108.795 312.61C106.337 312.929 102.914 313.339 99.3293 314.475C95.7569 315.638 92.7876 317.411 90.8532 318.923C88.8991 320.433 87.9783 321.682 87.8871 321.609C87.8559 321.586 88.0471 321.246 88.4788 320.69C88.9053 320.131 89.6043 319.385 90.558 318.562C92.4616 316.922 95.4595 315.042 99.1267 313.847C102.8 312.685 106.269 312.347 108.749 312.146C111.238 311.966 112.78 311.945 112.787 312.031Z" fill="#DADBD8"/>
<path d="M89.0522 320.158C88.8438 320.041 90.6428 317.293 92.0381 313.598C93.3474 309.869 93.6542 306.598 93.8892 306.636C93.9741 306.646 93.9704 307.464 93.8225 308.777C93.6657 310.086 93.3517 311.906 92.6585 313.822C91.9605 315.736 91.046 317.336 90.3433 318.45C89.6318 319.562 89.1261 320.205 89.0522 320.158" fill="#DADBD8"/>
<path d="M123.752 263.381C123.759 263.402 123.539 263.52 123.112 263.721C122.618 263.946 121.997 264.228 121.237 264.574C120.415 264.926 119.418 265.373 118.294 265.965C117.167 266.546 115.85 267.146 114.481 267.969C113.785 268.365 113.058 268.778 112.303 269.208C111.548 269.641 110.801 270.157 110.006 270.654C108.401 271.629 106.793 272.828 105.076 274.052C101.718 276.601 98.186 279.618 94.786 283.102C91.4188 286.621 88.5229 290.254 86.0901 293.698C84.925 295.457 83.7812 297.105 82.863 298.742C82.3926 299.554 81.9026 300.318 81.4948 301.088C81.0912 301.857 80.703 302.597 80.3317 303.306C79.5562 304.704 79.0021 306.04 78.4593 307.186C77.9057 308.329 77.4932 309.341 77.1693 310.174C76.85 310.946 76.5896 311.576 76.3812 312.078C76.1942 312.512 76.0854 312.736 76.064 312.728C76.0426 312.721 76.1093 312.482 76.2562 312.033C76.4344 311.518 76.6568 310.873 76.9302 310.081C77.2182 309.232 77.5973 308.201 78.1213 307.038C78.6344 305.873 79.162 304.516 79.915 303.097C80.2765 302.377 80.6546 301.626 81.0473 300.845C81.4464 300.065 81.9281 299.289 82.3912 298.466C83.2953 296.805 84.4297 295.134 85.5896 293.354C88.0125 289.865 90.9177 286.19 94.3114 282.645C97.7385 279.133 101.311 276.105 104.714 273.564C106.454 272.344 108.085 271.153 109.714 270.193C110.52 269.702 111.279 269.194 112.045 268.769C112.812 268.349 113.55 267.946 114.257 267.56C115.649 266.758 116.987 266.185 118.135 265.633C119.28 265.069 120.296 264.654 121.136 264.338C121.917 264.038 122.555 263.793 123.064 263.597C123.507 263.436 123.743 263.36 123.752 263.381" fill="#DADBD8"/>
<path d="M95.234 282.489C95.1761 282.478 95.4933 281.371 96.8022 280.153C98.0788 278.937 100.408 277.81 103.12 277.729C105.824 277.658 108.168 278.414 109.769 279.027C111.379 279.661 112.314 280.173 112.282 280.249C112.245 280.341 111.243 279.979 109.616 279.469C107.995 278.971 105.703 278.318 103.141 278.389C100.589 278.466 98.3845 279.45 97.1064 280.506C95.8001 281.558 95.3397 282.553 95.234 282.489Z" fill="#DADBD8"/>
<path d="M90.9711 286.886C90.7905 286.785 92.3987 284.428 92.7649 281.049C93.1862 277.677 92.1638 275.013 92.3634 274.956C92.4358 274.926 92.7946 275.546 93.1039 276.656C93.4159 277.761 93.6222 279.369 93.4201 281.126C93.2123 282.881 92.6415 284.4 92.0837 285.402C91.5269 286.41 91.0353 286.932 90.9711 286.886" fill="#DADBD8"/>
<path d="M44.5342 346.065C45.5175 363.502 50.7722 381.237 58.8544 399.167H94.0024C101.711 381.415 106.602 363.707 107.472 346.065H44.5342Z" fill="#DADBD8"/>
<path d="M101.776 374.282C101.776 374.465 90.2031 374.612 75.9313 374.612C61.6542 374.612 50.0845 374.465 50.0845 374.282C50.0845 374.101 61.6542 373.953 75.9313 373.953C90.2031 373.953 101.776 374.101 101.776 374.282Z" fill="#FAFAF9"/>
<path d="M100.99 380.6C100.99 380.783 90.1413 380.929 76.7621 380.929C63.3777 380.929 52.5312 380.783 52.5312 380.6C52.5312 380.419 63.3777 380.271 76.7621 380.271C90.1413 380.271 100.99 380.419 100.99 380.6Z" fill="#FAFAF9"/>
<path d="M59.422 357.514C59.6043 357.514 59.7517 361.139 59.7517 365.61C59.7517 370.082 59.6043 373.706 59.422 373.706C59.2403 373.706 59.0923 370.082 59.0923 365.61C59.0923 361.139 59.2403 357.514 59.422 357.514Z" fill="#FAFAF9"/>
<path d="M78.2534 357.514C78.4358 357.514 78.5837 361.268 78.5837 365.898C78.5837 370.529 78.4358 374.282 78.2534 374.282C78.0717 374.282 77.9238 370.529 77.9238 365.898C77.9238 361.268 78.0717 357.514 78.2534 357.514Z" fill="#FAFAF9"/>
<path d="M95.9328 357.371C96.115 357.371 96.2625 361.201 96.2625 365.923C96.2625 370.646 96.115 374.474 95.9328 374.474C95.7505 374.474 95.603 370.646 95.603 365.923C95.603 361.201 95.7505 357.371 95.9328 357.371" fill="#FAFAF9"/>
<path d="M106.356 357.514C106.356 357.697 92.7832 357.844 76.0436 357.844C59.2983 357.844 45.728 357.697 45.728 357.514C45.728 357.332 59.2983 357.185 76.0436 357.185C92.7832 357.185 106.356 357.332 106.356 357.514Z" fill="#FAFAF9"/>
<path d="M896.174 279.093H806.993V186.129H896.174V279.093Z" fill="#DADBD8"/>
<path d="M890.135 279.093H800.955V186.129H890.135V279.093Z" fill="#F3F2F1"/>
<path d="M800.981 279.065H890.107V186.157H800.981V279.065ZM890.163 279.12H800.927V186.101H890.163V279.12Z" fill="#DADBD8"/>
<path d="M878.146 266.596H812.942V198.626H878.146V266.596Z" fill="white"/>
<path d="M812.943 267.047C812.993 267.107 812.375 267.819 811.333 268.918C810.292 270.017 808.829 271.503 807.189 273.119C805.548 274.735 804.04 276.175 802.929 277.197C801.817 278.219 801.1 278.823 801.044 278.767C800.988 278.71 801.604 278.003 802.645 276.903C803.687 275.805 805.153 274.314 806.799 272.694C808.444 271.074 809.955 269.63 811.067 268.609C812.179 267.587 812.891 266.986 812.943 267.047" fill="#DADBD8"/>
<path d="M878.147 266.881C878.208 266.829 878.919 267.449 880.017 268.489C881.116 269.53 882.604 270.994 884.22 272.634C885.836 274.274 887.275 275.782 888.298 276.894C889.319 278.006 889.923 278.722 889.867 278.778C889.81 278.834 889.103 278.22 888.004 277.178C886.905 276.137 885.414 274.669 883.794 273.024C882.174 271.38 880.731 269.868 879.708 268.757C878.687 267.645 878.086 266.932 878.147 266.881Z" fill="#DADBD8"/>
<path d="M877.968 198.807C877.917 198.746 878.536 198.035 879.577 196.937C880.618 195.837 882.081 194.35 883.722 192.734C885.362 191.118 886.87 189.679 887.981 188.657C889.093 187.635 889.809 187.03 889.866 187.087C889.922 187.143 889.306 187.851 888.266 188.95C887.225 190.049 885.757 191.539 884.112 193.161C882.466 194.781 880.956 196.223 879.844 197.245C878.732 198.267 878.02 198.867 877.968 198.807" fill="#DADBD8"/>
<path d="M812.764 198.974C812.703 199.025 811.992 198.406 810.893 197.365C809.795 196.323 808.307 194.86 806.692 193.22C805.075 191.58 803.636 190.071 802.615 188.961C801.592 187.849 800.988 187.131 801.045 187.075C801.101 187.019 801.808 187.634 802.907 188.675C804.007 189.717 805.497 191.185 807.117 192.83C808.737 194.475 810.18 195.986 811.203 197.098C812.224 198.21 812.825 198.922 812.764 198.974Z" fill="#DADBD8"/>
<path d="M877.968 266.596C877.964 266.59 877.959 266.48 877.955 266.265C877.951 266.033 877.945 265.721 877.94 265.317C877.933 264.465 877.923 263.238 877.911 261.648C877.895 258.428 877.873 253.744 877.844 247.794C877.813 235.89 877.769 218.932 877.717 198.626L877.968 198.877C858.987 198.888 836.695 198.901 812.949 198.914H812.943L813.231 198.626C813.216 223.573 813.203 246.912 813.191 266.596L812.943 266.348C832.428 266.4 848.651 266.444 860.025 266.474C865.708 266.502 870.179 266.524 873.251 266.538C874.768 266.552 875.936 266.561 876.749 266.568C877.135 266.573 877.432 266.578 877.653 266.581C877.857 266.586 877.964 266.59 877.968 266.596C877.973 266.6 877.876 266.605 877.681 266.609C877.465 266.613 877.177 266.617 876.804 266.624C876.001 266.63 874.849 266.64 873.352 266.652C870.293 266.668 865.841 266.689 860.183 266.717C848.771 266.748 832.493 266.792 812.943 266.844H812.695V266.596C812.683 246.912 812.669 223.573 812.653 198.626V198.337H812.943H812.949C836.695 198.35 858.987 198.364 877.968 198.374H878.22V198.626C878.167 218.998 878.123 236.013 878.092 247.956C878.064 253.88 878.041 258.545 878.027 261.752C878.013 263.322 878.004 264.532 877.996 265.372C877.991 265.765 877.985 266.069 877.983 266.293C877.977 266.498 877.973 266.6 877.968 266.596" fill="#DADBD8"/>
<path d="M856.424 243.489H834.666V221.731H856.424V243.489Z" fill="#DADBD8"/>
<path d="M578.903 510.312V552.488H708.607V510.312H578.903Z" fill="#F3F2F1"/>
<path d="M573.461 498.521V510.312H713.143V498.521H640.58H573.461" fill="#DADBD8"/>
<path d="M643.301 552.488H708.607V510.312H713.143V498.521H640.58V509.221L643.301 552.488" fill="#DADBD8"/>
<path d="M597.042 517.113V523.462H623.347V517.113H597.042Z" fill="#DADBD8"/>
<path d="M627.433 544.805H593.657V531.4H627.433V544.805Z" fill="white"/>
<path d="M598.857 456.401V498.577H728.561V456.401H598.857Z" fill="#F3F2F1"/>
<path d="M593.416 444.609V456.401H733.097V444.609H660.535H593.416" fill="#E7E8E5"/>
<path d="M663.256 498.577H728.561V456.401H733.097V444.609H660.535V455.309L663.256 498.577" fill="#E7E8E5"/>
<path d="M616.999 463.202V469.55H643.301V463.202H616.999Z" fill="#DADBD8"/>
<path d="M647.388 490.894H613.613V477.488H647.388V490.894" fill="white"/>
<path d="M185.773 207.21C184.42 202.909 180.156 199.697 175.648 199.584C176.811 196.3 174.563 192.493 171.364 191.112C168.165 189.729 164.403 190.352 161.252 191.84C159.023 192.893 156.955 194.37 154.551 194.913C151.393 195.626 148.127 194.636 144.892 194.528C138.297 194.309 131.731 198.129 128.662 203.97C127.586 206.018 126.917 208.269 125.73 210.254C124.78 211.844 123.517 213.229 122.578 214.825C119.86 219.444 120.314 225.724 123.669 229.904L169.164 219.445C172.871 222.013 178.209 221.936 181.839 219.261C185.469 216.586 187.127 211.512 185.773 207.21" fill="#17282F"/>
<path d="M290.48 374.572L246.656 370.228L244.12 392.99L293.609 391.27L290.48 374.572Z" fill="#F9A78D"/>
<path d="M323.768 387.909C323.193 388.708 322.195 389.13 321.24 388.893C321.049 388.845 320.853 388.774 320.656 388.676C319.35 388.017 319.922 385.236 319.922 385.236L313.501 383.118C313.501 383.118 304.056 387.29 300.428 390.472C296.8 393.653 289.489 389.457 289.489 389.457L289.013 374.982L302.879 365.929C302.879 365.929 302.03 366.465 303.192 364.545C304.353 362.625 308.043 364.004 308.043 364.004C308.796 363.082 311.344 363.112 311.344 363.112L321.79 366.02C323.944 366.62 325.709 368.161 326.593 370.213L329.968 378.048C329.968 378.048 331.533 383.552 330.962 384.684C330.101 386.392 328.262 385.69 328.262 385.69C328.262 385.69 327.207 388.98 326.303 388.957C325.399 388.934 323.768 387.909 323.768 387.909" fill="#F9A78D"/>
<path d="M303.115 388.572C303.127 388.59 303.369 388.458 303.823 388.19C304.336 387.896 305.001 387.514 305.831 387.04C307.595 386.073 310.203 384.713 313.585 383.329L313.431 383.333C315.343 383.978 317.5 384.706 319.837 385.494L319.655 385.181C319.556 385.717 319.503 386.248 319.524 386.81C319.549 387.365 319.629 387.97 320.02 388.513C320.227 388.78 320.552 388.972 320.831 389.053C321.112 389.174 321.427 389.254 321.749 389.254C322.392 389.264 323.035 389.026 323.532 388.605C323.659 388.504 323.772 388.385 323.88 388.261L323.956 388.165L323.995 388.117L324.013 388.093L324.016 388.089C324.105 388.07 323.237 388.241 323.607 388.169L323.613 388.173L323.627 388.182L323.821 388.3C324.083 388.454 324.349 388.598 324.625 388.736C324.901 388.87 325.187 388.998 325.492 389.102C325.645 389.154 325.801 389.202 325.973 389.234C326.132 389.265 326.325 389.301 326.601 389.212C327.015 389.006 327.197 388.714 327.385 388.442C327.564 388.165 327.719 387.88 327.856 387.589C328.135 387.006 328.363 386.413 328.573 385.79L328.147 385.996C328.977 386.281 330.017 386.234 330.733 385.546C331.059 385.225 331.348 384.812 331.396 384.292C331.448 383.828 331.408 383.406 331.364 382.981C331.159 381.29 330.752 379.637 330.296 377.954L330.291 377.934L330.281 377.913C329.708 376.58 329.099 375.165 328.483 373.733C328.1 372.844 327.719 371.96 327.341 371.084C326.957 370.233 326.641 369.294 326.041 368.488C325.467 367.689 324.731 367.018 323.904 366.524C323.085 366.006 322.124 365.757 321.279 365.53C317.815 364.577 314.513 363.668 311.425 362.818L311.384 362.806H311.347C310.715 362.814 310.115 362.868 309.515 362.992C308.928 363.128 308.304 363.285 307.817 363.82L308.205 363.762C307.151 363.122 305.848 362.91 304.757 363.413C303.663 363.909 303.04 364.889 302.64 365.84L302.743 365.714C298.764 368.296 295.516 370.404 293.193 371.91C292.12 372.626 291.261 373.198 290.613 373.63C290.027 374.03 289.725 374.25 289.739 374.272C289.753 374.293 290.08 374.114 290.692 373.754C291.359 373.352 292.241 372.818 293.345 372.15C295.697 370.689 298.985 368.646 303.016 366.144L303.081 366.104L303.119 366.017C303.48 365.18 304.081 364.29 304.979 363.913C305.859 363.504 306.999 363.701 307.88 364.244L308.097 364.378L308.268 364.186C308.552 363.868 309.099 363.681 309.635 363.576C310.177 363.466 310.767 363.42 311.34 363.417L311.263 363.406C314.344 364.273 317.641 365.201 321.1 366.174C321.983 366.414 322.809 366.63 323.556 367.104C324.304 367.553 324.968 368.161 325.487 368.885C326.019 369.59 326.317 370.472 326.712 371.356C327.089 372.232 327.469 373.114 327.852 374.005C328.469 375.436 329.079 376.85 329.653 378.182L329.639 378.141C330.088 379.788 330.496 381.446 330.696 383.054C330.74 383.452 330.773 383.86 330.733 384.212C330.721 384.52 330.516 384.822 330.277 385.065C329.809 385.545 329.011 385.594 328.379 385.385L328.056 385.28L327.952 385.592C327.756 386.177 327.533 386.766 327.275 387.313C327.031 387.83 326.687 388.453 326.36 388.628C326.344 388.633 326.225 388.65 326.088 388.614C325.96 388.593 325.824 388.553 325.692 388.509C325.424 388.42 325.159 388.304 324.897 388.177C324.637 388.052 324.381 387.914 324.132 387.77L323.948 387.661L323.937 387.654L323.933 387.65C324.3 387.578 323.429 387.748 323.519 387.732L323.517 387.733L323.501 387.753L323.472 387.792L323.413 387.868L323.14 388.141C322.751 388.477 322.248 388.664 321.756 388.661C321.509 388.662 321.271 388.604 321.039 388.504C320.781 388.426 320.617 388.324 320.476 388.157C319.952 387.404 320.047 386.222 320.189 385.29L320.227 385.048L320.008 384.977C317.661 384.221 315.493 383.522 313.572 382.902L313.489 382.877L313.416 382.908C310.023 384.362 307.444 385.788 305.707 386.826C304.841 387.352 304.187 387.78 303.755 388.082C303.321 388.386 303.103 388.554 303.115 388.572" fill="#F57F62"/>
<path d="M309.256 368.037C309.221 368.108 310.407 368.794 312.509 369.596C314.607 370.398 317.653 371.262 321.185 371.62L320.872 371.326C320.969 371.878 321.073 372.461 321.211 373.046C322.092 376.928 323.801 380.16 325.291 382.268C326.036 383.328 326.72 384.122 327.213 384.65C327.715 385.17 328.016 385.433 328.051 385.402C328.139 385.324 327.073 384.138 325.709 381.989C324.352 379.846 322.761 376.668 321.903 372.888C321.769 372.317 321.665 371.75 321.568 371.213L321.52 370.944L321.255 370.918C317.788 370.589 314.777 369.825 312.664 369.15C310.548 368.477 309.299 367.944 309.256 368.037" fill="#F57F62"/>
<path d="M318.375 375.834C318.199 375.841 318.431 378.886 320.063 382.218C321.671 385.563 323.92 387.627 324.035 387.493C324.197 387.35 322.251 385.138 320.701 381.907C319.123 378.693 318.588 375.794 318.375 375.834Z" fill="#F57F62"/>
<path d="M288.067 384.848C288.056 384.865 288.161 384.95 288.375 385.098C288.585 385.249 288.916 385.446 289.361 385.669C290.251 386.109 291.637 386.65 293.475 386.814C295.293 386.976 297.599 386.745 299.852 385.584C302.088 384.446 304.253 382.404 305.465 379.609L305.037 379.797C307.34 380.629 309.948 381.212 312.68 381.378C313.66 381.438 314.632 381.445 315.587 381.402C316.529 381.35 317.507 381.312 318.441 380.938C318.877 380.768 319.407 380.457 319.649 379.94C319.901 379.44 319.9 378.865 319.719 378.373C319.535 377.878 319.147 377.466 318.672 377.257C318.273 377.088 317.88 376.921 317.492 376.757C314.383 375.462 311.527 374.437 309.105 373.654C306.683 372.873 304.697 372.324 303.317 371.98C301.937 371.634 301.164 371.486 301.152 371.532C301.139 371.582 301.888 371.82 303.243 372.245C304.596 372.67 306.552 373.292 308.944 374.13C311.336 374.97 314.159 376.04 317.237 377.36C317.62 377.526 318.008 377.696 318.4 377.865C318.712 378.009 318.96 378.276 319.083 378.609C319.201 378.94 319.195 379.324 319.036 379.629C318.887 379.941 318.581 380.13 318.18 380.294C317.405 380.604 316.488 380.652 315.556 380.696C314.625 380.736 313.679 380.728 312.724 380.669C310.061 380.506 307.519 379.949 305.267 379.154L304.963 379.048L304.837 379.342C303.717 381.98 301.689 383.948 299.58 385.065C297.459 386.205 295.268 386.482 293.507 386.385C291.728 386.285 290.359 385.825 289.457 385.458C288.555 385.082 288.093 384.805 288.067 384.848" fill="#F57F62"/>
<path d="M148.316 318.261C137.651 318.165 129.015 309.321 128.878 298.352L128.049 232.344C127.278 214.617 136.665 199.381 153.915 199.078L155.511 199.146C171.568 199.829 184.431 213.074 185.06 229.592C185.645 244.958 186.271 259.81 185.841 268.022C184.953 285.025 168.136 286.705 168.136 286.705C168.099 286.705 168.091 293.049 168.1 298.046C168.12 309.27 159.229 318.36 148.316 318.261Z" fill="#F9A78D"/>
<path d="M168.136 286.814C168.136 286.814 157.685 287.001 146.864 279.352C146.864 279.352 151.53 292.361 168.096 291.53L168.136 286.814" fill="#F57F62"/>
<path d="M178.959 244.712C178.952 245.997 177.888 247.049 176.583 247.066C175.281 247.082 174.229 246.057 174.236 244.772C174.244 243.488 175.307 242.433 176.609 242.416C177.915 242.4 178.967 243.428 178.959 244.712" fill="#17282F"/>
<path d="M181.242 236.954C180.936 237.258 179.202 235.821 176.659 235.72C174.122 235.581 172.202 236.846 171.94 236.514C171.81 236.368 172.131 235.808 172.968 235.234C173.791 234.662 175.179 234.132 176.762 234.205C178.344 234.282 179.652 234.938 180.394 235.584C181.15 236.234 181.392 236.818 181.242 236.954" fill="#17282F"/>
<path d="M155.887 244.712C155.88 245.997 154.816 247.049 153.511 247.066C152.209 247.082 151.157 246.057 151.164 244.772C151.172 243.488 152.236 242.433 153.539 242.417C154.843 242.4 155.895 243.428 155.887 244.712Z" fill="#17282F"/>
<path d="M156.302 236.501C155.996 236.806 154.258 235.368 151.718 235.266C149.181 235.129 147.261 236.394 146.998 236.062C146.869 235.914 147.188 235.356 148.028 234.782C148.85 234.21 150.238 233.68 151.821 233.753C153.404 233.83 154.712 234.486 155.453 235.132C156.208 235.781 156.45 236.366 156.302 236.501" fill="#17282F"/>
<path d="M164.613 256.975C164.607 256.826 166.199 256.613 168.772 256.385C169.424 256.343 170.044 256.237 170.171 255.786C170.343 255.31 170.1 254.579 169.817 253.789C169.272 252.147 168.701 250.427 168.103 248.625C165.727 241.274 164.037 235.242 164.325 235.146C164.615 235.05 166.773 240.93 169.148 248.281C169.717 250.093 170.263 251.819 170.781 253.471C170.996 254.241 171.384 255.119 171.012 256.106C170.817 256.598 170.327 256.939 169.907 257.037C169.485 257.15 169.119 257.142 168.797 257.147C166.216 257.181 164.617 257.125 164.613 256.975" fill="#17282F"/>
<path d="M157.453 228.36C157.081 229.012 154.642 228.206 151.642 228.012C148.646 227.756 146.121 228.189 145.844 227.489C145.724 227.154 146.255 226.576 147.335 226.08C148.404 225.584 150.032 225.229 151.83 225.362C153.628 225.5 155.189 226.093 156.178 226.744C157.176 227.394 157.62 228.048 157.453 228.36" fill="#17282F"/>
<path d="M181.667 229.273C181.123 229.853 179.068 229.179 176.579 229.083C174.093 228.91 171.971 229.358 171.501 228.722C171.297 228.415 171.644 227.829 172.579 227.291C173.501 226.757 175.032 226.339 176.741 226.431C178.451 226.525 179.92 227.103 180.771 227.735C181.635 228.369 181.908 228.989 181.667 229.273" fill="#17282F"/>
<path d="M128.894 244.997C128.617 244.86 117.669 241.057 117.563 252.702C117.457 264.348 128.847 262.054 128.869 261.721C128.891 261.388 128.894 244.997 128.894 244.997" fill="#F9A78D"/>
<path d="M125.45 257.276C125.401 257.239 125.251 257.416 124.916 257.571C124.59 257.72 124.03 257.82 123.442 257.587C122.25 257.124 121.26 255.161 121.225 253.061C121.206 252.001 121.43 250.995 121.803 250.163C122.157 249.315 122.698 248.724 123.301 248.62C123.902 248.483 124.324 248.857 124.46 249.187C124.609 249.513 124.535 249.745 124.595 249.767C124.626 249.796 124.839 249.573 124.753 249.092C124.708 248.86 124.578 248.584 124.314 248.357C124.044 248.128 123.646 248.008 123.226 248.051C122.352 248.104 121.559 248.923 121.149 249.836C120.691 250.753 120.414 251.885 120.435 253.076C120.487 255.423 121.635 257.631 123.267 258.132C124.062 258.353 124.728 258.113 125.074 257.841C125.427 257.557 125.489 257.297 125.45 257.276" fill="#F57F62"/>
<path d="M137.008 215.927C137.483 212.899 139.76 210.449 142.664 209.47C145.113 208.643 147.805 208.651 150.315 209.565C156.689 211.889 167.576 215.359 170.421 213.137C174.515 209.937 175.495 207.849 175.495 207.849L177.744 210.295C179.577 209.255 174.081 203.149 169.579 201.045C162.775 197.866 152.383 195.903 146.105 197.731C138.549 199.93 132.27 203.793 128.473 210.863C124.676 217.934 123.245 226.174 123.462 234.249C123.528 236.711 123.077 243.774 125.46 244.319C127.302 244.741 129.667 245.563 129.532 249.114C129.483 250.413 129.842 251.723 130.707 252.67C132.777 254.938 135.312 252.81 136.479 250.675C138.971 246.115 139.251 240.67 139.472 235.445C139.629 231.73 139.777 227.937 138.761 224.369C138.761 224.369 137.081 219.769 136.936 217.211C136.912 216.786 136.941 216.353 137.008 215.927Z" fill="#17282F"/>
<path d="M165.056 263.271C165.124 263.447 164.6 263.886 163.55 264.115C162.518 264.349 160.93 264.287 159.45 263.471C157.97 262.659 157.058 261.375 156.68 260.393C156.288 259.397 156.347 258.721 156.531 258.675C156.923 258.543 157.77 260.882 160.158 262.179C162.535 263.503 164.942 262.878 165.056 263.271" fill="#17282F"/>
<path d="M176.824 418.598L122.669 406.688L87.9099 320.433C87.9099 320.433 41.3943 330.75 33.7156 356.738C27.0766 379.209 13.3729 478.508 44.5251 539.725C52.5364 555.467 68.8599 565.238 86.5246 565.238H323.487C353.401 565.238 378.556 542.757 381.876 513.026C383.216 501.038 384.145 489.652 383.957 482.246L345.911 453.038L176.824 418.598Z" fill="#33535F"/>
<path d="M383.732 482.073L345.911 453.038L322.5 448.269L339.257 441.289L384.077 473.188L383.732 482.073Z" fill="#A7A9A8"/>
<path d="M382.928 502.761C358.655 489.978 338.356 470.394 321.684 448.609L322.5 448.269L345.911 453.038L383.732 482.073L382.928 502.761" fill="#20353D"/>
<path d="M142.787 303.662C142.787 305.23 155.103 310.306 160.672 308.082C169.145 304.698 168.1 298.046 168.1 298.046L172.795 303.009L219.961 374.869L255.019 398.008L198.903 415.778L140.088 348.202L142.787 303.662" fill="#F3F2F1"/>
<path d="M127.921 279.54L126.681 281.855L121.087 292.298L97.7871 307.154L145.691 364.092L167.563 415.778L219.961 432.181C219.961 432.181 195.03 393.837 187.283 374.245C179.538 354.652 178.743 355.56 171.679 341.206C164.915 327.465 158.874 310.068 158.874 310.068L127.921 279.54Z" fill="#33BFBF"/>
<path d="M240.161 382.09L250.436 391.681L253.344 397.605L215.136 379.826L187.552 341.206C187.552 341.206 177.72 319.404 174.342 311.594C170.789 303.377 168.136 298.729 168.136 298.729L168.097 292.24L182.039 304.797L193.66 308.261L213.072 338.945L240.161 382.09Z" fill="#33BFBF"/>
<path d="M228.385 345.981C228.385 345.981 223.748 336.081 219.961 327.857C211.427 309.321 191.308 307.56 191.308 307.56L213.544 369.238L240.795 388.557C240.795 388.557 248.543 391.262 249.515 388.557C249.515 388.557 255.191 368.11 255.019 368.026C254.847 367.944 235.629 362.202 235.629 362.202L227.889 344.922" fill="#33BFBF"/>
<path d="M269.363 326.724L242.895 370.824L270.612 370.002L295.053 329.145C295.992 327.576 294.863 325.581 293.033 325.581H271.381C270.555 325.581 269.788 326.016 269.363 326.724" fill="#17282F"/>
<path d="M167.562 376.592L233.808 368.706L244.95 349.208L253.669 344.413C255.148 343.6 256.962 343.716 258.325 344.71L259.146 345.309L265.616 344.494C266.718 344.356 267.834 344.578 268.8 345.126L273.385 347.737C274.061 348.13 274.476 348.853 274.476 349.634C274.476 351.006 273.23 352.044 271.881 351.794L267.423 350.974L260.604 353.198C260.604 353.198 265.005 353.665 265.562 357.008C266.12 360.35 263.891 360.417 263.891 360.417C263.891 360.417 268.521 363.112 265.284 367.036C265.284 367.036 269.142 369.604 264.819 374.486C261.891 377.793 240.794 388.557 240.794 388.557L167.562 415.778V376.592Z" fill="#F9A78D"/>
<path d="M265.111 367.105C265.105 367.077 265.608 367.106 266.188 367.707C266.743 368.285 267.285 369.518 266.893 370.978C266.523 372.429 265.353 373.771 264.043 375.053C262.723 376.362 261.149 377.675 259.389 378.894C255.86 381.329 252.364 383.007 249.833 384.169C247.292 385.317 245.687 385.943 245.648 385.862C245.605 385.77 247.141 384.985 249.62 383.726C252.089 382.457 255.52 380.719 258.993 378.325C260.725 377.125 262.279 375.851 263.596 374.594C264.924 373.347 266.037 372.118 266.421 370.842C266.825 369.582 266.421 368.451 265.983 367.882C265.525 367.29 265.079 367.165 265.111 367.105" fill="#F57F62"/>
<path d="M258.891 345.481C258.94 345.665 257.46 346.228 255.583 346.736C253.705 347.245 252.143 347.506 252.092 347.322C252.043 347.137 253.524 346.574 255.401 346.066C257.277 345.557 258.84 345.296 258.891 345.481Z" fill="#F57F62"/>
<path d="M267.423 350.974C267.484 351.157 265.424 352.005 262.824 352.869C260.223 353.734 258.066 354.287 258.004 354.105C257.944 353.923 260.003 353.075 262.604 352.21C265.206 351.346 267.363 350.793 267.423 350.974Z" fill="#F57F62"/>
<path d="M259.48 359.815C259.284 359.794 259.192 359.214 258.964 358.57C258.749 357.921 258.468 357.406 258.611 357.269C258.737 357.133 259.347 357.535 259.621 358.346C259.9 359.154 259.665 359.846 259.48 359.815Z" fill="#F57F62"/>
<path d="M261.748 367.465C261.552 367.421 261.626 366.475 261.348 365.385C261.09 364.289 260.586 363.485 260.738 363.355C260.865 363.221 261.713 363.941 262.022 365.219C262.34 366.494 261.921 367.525 261.748 367.465" fill="#F57F62"/>
<path d="M99.6483 305.968C97.4457 307.308 78.7113 320.093 81.4452 341.052C84.1791 362.012 125.643 409.398 134.3 410.31L167.563 415.778V376.592L151.615 375.681L130.655 334.673L99.6483 305.968" fill="#33BFBF"/>
<path d="M167.562 374.693C167.562 374.729 167.148 374.769 166.37 374.81C165.482 374.844 164.366 374.886 163.013 374.938C159.99 375.005 155.913 375.094 151.098 375.201L150.93 375.205L150.828 375.066C148.325 371.704 145.452 367.841 142.402 363.742C137.38 356.95 132.868 350.778 129.632 346.288C128.084 344.112 126.802 342.313 125.83 340.946C124.947 339.676 124.477 338.958 124.519 338.928C124.561 338.897 125.109 339.556 126.065 340.773C127.086 342.102 128.432 343.854 130.058 345.973C133.403 350.382 137.983 356.505 143.005 363.297C146.029 367.413 148.88 371.293 151.361 374.672L151.092 374.537C155.906 374.54 159.985 374.544 163.008 374.545C164.364 374.569 165.48 374.588 166.369 374.602C167.145 374.628 167.561 374.657 167.562 374.693Z" fill="#17282F"/>
<path d="M159.472 315.254C159.438 315.269 159.212 314.855 158.822 314.066C158.392 313.17 157.846 312.027 157.178 310.63L157.532 310.666C156.534 312.102 155.423 313.955 154.323 316.198C153.219 318.431 151.97 321.023 150.154 323.539L149.886 323.91L149.596 323.554C147.444 320.901 144.98 318.07 142.328 315.179C136.52 308.863 130.975 303.407 127.015 299.406C125.109 297.466 123.534 295.862 122.341 294.649C121.252 293.511 120.667 292.865 120.703 292.827C120.74 292.791 121.394 293.367 122.546 294.441C123.781 295.611 125.413 297.158 127.386 299.029C131.442 302.933 137.052 308.335 142.88 314.673C145.542 317.573 148.003 320.429 150.142 323.115L149.586 323.13C151.39 320.679 152.648 318.161 153.803 315.931C154.954 313.697 156.136 311.837 157.199 310.426L157.418 310.135L157.554 310.462C158.15 311.891 158.638 313.059 159.02 313.977C159.348 314.794 159.507 315.238 159.472 315.254" fill="#17282F"/>
<path d="M182.163 305.23C182.221 305.204 182.637 305.898 183.168 307.202C183.709 308.501 184.272 310.432 184.909 312.716L185.359 314.332L184.327 313C183.055 311.357 181.343 309.612 179.436 307.848C177.898 306.426 176.383 305.118 175.012 303.925L175.577 303.708C175.233 306.338 175.444 308.657 175.37 310.289C175.332 311.928 175.116 312.873 175.047 312.86C174.963 312.849 175.033 311.908 174.951 310.293C174.909 308.68 174.595 306.377 174.893 303.617L174.961 302.985L175.459 303.4C176.856 304.565 178.392 305.862 179.945 307.297C181.871 309.078 183.59 310.877 184.854 312.604L184.272 312.888C183.694 310.574 183.231 308.653 182.801 307.333C182.385 306.01 182.092 305.262 182.163 305.23" fill="#17282F"/>
<path d="M230.329 369.121C230.292 369.156 229.732 368.634 228.752 367.662C227.687 366.58 226.309 365.18 224.653 363.497C222.939 361.697 220.889 359.677 218.655 357.186C217.628 355.876 216.724 354.433 215.652 353.029C214.548 351.58 213.707 349.913 212.884 348.205C211.292 344.758 210.099 341.36 209.016 338.28C207.941 335.196 206.993 332.417 206.116 330.117C205.237 327.818 204.455 325.988 203.836 324.761C203.22 323.534 202.829 322.877 202.884 322.841C202.905 322.826 203.025 322.976 203.235 323.276C203.431 323.581 203.769 324.01 204.093 324.622C204.797 325.82 205.661 327.636 206.608 329.922C207.555 332.212 208.557 334.981 209.667 338.049C210.784 341.112 211.993 344.49 213.563 347.888C214.371 349.566 215.195 351.205 216.241 352.59C217.316 354.017 218.225 355.492 219.199 356.761C221.291 359.149 223.391 361.306 225.032 363.126C226.62 364.877 227.941 366.334 228.963 367.461C229.879 368.496 230.368 369.085 230.329 369.121" fill="#17282F"/>
<path d="M249.567 391.25L375.327 387.714C377.317 387.665 379.303 388.012 381.135 388.792C385.707 390.741 393.933 395.737 399.572 407.717C407.753 425.104 445.877 498.346 445.877 498.346L407.317 518.106L360.027 430.382L214.273 418.004L215.957 406.353L249.567 391.25" fill="#17282F"/>
<path d="M395.865 502.688L415.964 537.177L417.303 545.896C418.12 551.229 423.108 554.889 428.441 554.07L489.601 544.684C492.663 544.214 494.667 540.961 493.379 538.145C492.888 537.07 492 536.166 490.465 535.774C485.349 534.469 445.883 519.981 445.883 519.981L429.421 487.017L395.865 502.688Z" fill="#DADBD8"/>
<path d="M412.705 510.664C412.551 510.778 410.529 508.297 408.191 505.124C405.852 501.949 404.081 499.284 404.236 499.17C404.391 499.057 406.411 501.537 408.749 504.712C411.088 507.885 412.859 510.55 412.705 510.664" fill="#17282F"/>
<path d="M424.705 505.841C424.563 505.953 422.487 503.47 420.488 500.029C418.48 496.591 417.345 493.561 417.513 493.491C417.699 493.41 419.104 496.282 421.088 499.679C423.063 503.08 424.867 505.721 424.705 505.841" fill="#17282F"/>
<path d="M433.092 552.967C432.962 553.001 432.637 551.77 431.721 549.979C430.818 548.191 429.216 545.858 426.814 543.973C424.41 542.086 421.764 541.085 419.814 540.633C417.854 540.168 416.584 540.145 416.586 540.01C416.58 539.921 417.869 539.737 419.928 540.069C421.97 540.389 424.789 541.35 427.316 543.333C429.842 545.316 431.444 547.825 432.241 549.733C433.053 551.655 433.18 552.95 433.092 552.967" fill="#17282F"/>
<path d="M474.303 547.032C474.223 547.068 473.719 546.248 473.329 544.746C472.943 543.258 472.824 541.006 473.625 538.741C474.416 536.476 475.775 534.767 476.809 533.653C477.868 532.545 478.637 531.991 478.705 532.062C478.792 532.152 478.168 532.851 477.245 534.026C476.344 535.208 475.128 536.893 474.393 539.006C473.648 541.117 473.667 543.181 473.893 544.634C474.123 546.094 474.429 546.984 474.303 547.032" fill="#17282F"/>
<path d="M211.049 408.398C211.049 408.398 340.833 395.393 347.137 395.913C358.777 396.873 380.24 415.229 418.328 440.798C449.925 462.01 472.973 486.732 472.973 486.732L460.803 514.524C460.803 514.524 375.447 483.412 362.064 472.229C350.941 462.933 330.657 449.697 330.657 449.697L280.595 450.202L243.392 453.484C224.737 455.129 206.539 447.117 195.153 432.249L180.708 413.384L211.049 408.398" fill="#17282F"/>
<path d="M330.053 449.306C330.053 449.306 330.262 449.43 330.657 449.697C331.068 449.98 331.648 450.378 332.405 450.9C333.953 451.988 336.213 453.573 339.14 455.627C344.986 459.803 353.581 465.8 364.109 473.77C364.77 474.258 365.4 474.837 366.11 475.27C366.818 475.712 367.534 476.158 368.26 476.61C369.801 477.384 371.35 478.227 372.985 478.996C374.622 479.757 376.297 480.536 378.006 481.329C379.732 482.091 381.492 482.869 383.286 483.661C390.489 486.78 398.284 490.041 406.602 493.415C423.234 500.176 441.906 507.526 462.056 515.268L461.608 515.468C465.128 506.55 468.838 497.149 472.644 487.512L472.722 487.91C467.909 483.001 462.78 477.77 457.578 472.465L457.6 472.485C454.048 469.403 450.232 466.126 446.33 462.89C421.432 442.162 396.325 424.436 373.589 409.528L373.572 409.516L373.549 409.496C370.08 406.508 366.342 403.933 362.532 401.749C358.714 399.572 354.774 397.789 350.756 396.636C349.749 396.362 348.734 396.144 347.733 395.898C346.716 395.742 345.705 395.586 344.701 395.433C343.689 395.38 342.682 395.325 341.682 395.273C340.67 395.27 339.666 395.269 338.669 395.268C334.677 395.261 330.794 395.256 327.028 395.25C311.966 395.221 298.76 395.194 287.837 395.172C276.934 395.13 268.32 395.098 262.402 395.076C259.472 395.053 257.213 395.036 255.662 395.024C254.914 395.012 254.34 395.002 253.93 394.996C253.541 394.986 253.344 394.968 253.344 394.968C253.344 394.968 253.541 394.949 253.93 394.94C254.34 394.933 254.914 394.924 255.662 394.912C257.213 394.9 259.472 394.882 262.402 394.86C268.32 394.837 276.934 394.805 287.836 394.764C298.758 394.742 311.966 394.716 327.026 394.685C330.793 394.68 334.676 394.674 338.666 394.669C339.665 394.668 340.669 394.666 341.681 394.666C342.701 394.717 343.729 394.769 344.762 394.821C345.785 394.976 346.814 395.132 347.85 395.288C348.868 395.534 349.898 395.754 350.922 396.029C355.002 397.192 358.989 398.986 362.848 401.177C366.704 403.38 370.456 405.952 373.992 408.986L373.95 408.956C396.725 423.836 421.869 441.558 446.797 462.31C450.702 465.55 454.522 468.832 458.078 471.917L458.089 471.926L458.098 471.937C463.298 477.245 468.425 482.477 473.237 487.389L473.406 487.561L473.317 487.788C469.505 497.421 465.786 506.819 462.258 515.733L462.129 516.057L461.809 515.934C441.662 508.169 423.001 500.784 406.38 493.98C398.066 490.581 390.277 487.296 383.08 484.15C381.286 483.35 379.526 482.565 377.802 481.797C376.092 480.994 374.417 480.208 372.778 479.438C371.142 478.661 369.584 477.805 368.04 477.021C367.298 476.553 366.566 476.091 365.844 475.636C365.114 475.185 364.506 474.617 363.845 474.124C353.368 466.114 344.806 460.057 339.005 455.822C336.106 453.726 333.869 452.109 332.336 451C331.593 450.457 331.025 450.042 330.622 449.748C330.24 449.464 330.053 449.306 330.053 449.306" fill="#33535F"/>
<path d="M433.235 507.453L469.198 521.602L475.187 528.077C478.852 532.038 485.034 532.279 488.995 528.614L534.416 486.596C536.688 484.493 536.528 480.674 533.884 479.062C532.875 478.448 531.634 478.196 530.143 478.729C525.174 480.512 484.36 490.605 484.36 490.605L457.02 468.798L433.235 507.453" fill="#DADBD8"/>
<path d="M433.235 507.453C433.235 507.453 433.354 507.228 433.62 506.777C433.907 506.301 434.307 505.633 434.824 504.772C435.912 502.976 437.487 500.373 439.504 497.043C443.622 490.285 449.538 480.577 456.798 468.661L456.951 468.409L457.183 468.594C465.216 474.98 474.476 482.341 484.559 490.355L484.284 490.294C492.028 488.344 500.174 486.291 508.624 484.161C512.843 483.067 517.138 481.951 521.496 480.819C523.671 480.236 525.866 479.655 528.051 479.015C528.603 478.863 529.139 478.688 529.678 478.515C530.2 478.343 530.823 478.129 531.438 478.1C532.694 478.01 533.95 478.51 534.847 479.373C536.715 481.098 536.787 484.141 535.33 486.076C534.982 486.584 534.51 486.97 534.114 487.346L532.874 488.494C532.048 489.257 531.226 490.017 530.406 490.776C527.128 493.805 523.898 496.792 520.724 499.725C514.375 505.589 508.251 511.245 502.418 516.633C499.5 519.325 496.656 521.949 493.892 524.5C492.511 525.775 491.15 527.029 489.808 528.267C489.155 528.882 488.436 529.512 487.654 529.997C486.858 530.458 486.028 530.873 485.147 531.098C481.642 532.12 477.808 531.063 475.424 528.682C473.142 526.294 471.062 523.97 469.018 521.769L469.108 521.831C458.002 517.398 449.01 513.81 442.764 511.317C439.702 510.085 437.314 509.124 435.663 508.46C434.88 508.14 434.272 507.892 433.835 507.715C433.427 507.545 433.235 507.453 433.235 507.453C433.235 507.453 433.472 507.531 433.902 507.691C434.355 507.863 434.983 508.101 435.792 508.408C437.467 509.052 439.888 509.984 442.995 511.177C449.228 513.596 458.203 517.076 469.287 521.375L469.338 521.394L469.378 521.437C471.423 523.616 473.546 525.963 475.795 528.297C478.06 530.54 481.687 531.52 484.987 530.546C485.819 530.332 486.596 529.937 487.346 529.5C488.087 529.033 488.735 528.465 489.406 527.831C490.743 526.591 492.1 525.331 493.478 524.052C496.235 521.494 499.074 518.863 501.983 516.164C507.807 510.767 513.922 505.101 520.262 499.227C523.434 496.289 526.662 493.301 529.938 490.268C530.756 489.51 531.579 488.749 532.403 487.985C533.19 487.213 534.151 486.476 534.768 485.669C536.04 483.988 535.959 481.328 534.37 479.877C533.6 479.139 532.532 478.716 531.483 478.793C530.94 478.824 530.466 478.985 529.903 479.17C529.35 479.349 528.798 479.528 528.247 479.68C526.047 480.324 523.852 480.903 521.675 481.486C517.311 482.616 513.014 483.728 508.792 484.82C500.336 486.936 492.187 488.976 484.438 490.915L484.284 490.953L484.162 490.855C474.106 482.806 464.87 475.415 456.858 469.003L457.243 468.936C449.918 480.724 443.948 490.329 439.795 497.015C437.715 500.34 436.091 502.939 434.97 504.732C434.422 505.601 433.998 506.273 433.695 506.755C433.403 507.212 433.235 507.453 433.235 507.453" fill="#17282F"/>
<path d="M492.229 525.096C492.141 525.197 491.183 524.36 489.42 523.388C487.672 522.412 485.039 521.376 481.992 521.158C478.945 520.941 476.192 521.593 474.323 522.31C472.439 523.022 471.372 523.714 471.3 523.602C471.245 523.532 472.209 522.657 474.101 521.78C475.973 520.901 478.845 520.12 482.051 520.349C485.253 520.577 487.985 521.758 489.713 522.894C491.463 524.032 492.293 525.033 492.229 525.096" fill="#17282F"/>
<path d="M523.053 497.106C523.007 497.18 522.131 496.784 520.967 495.757C519.813 494.743 518.453 492.943 517.849 490.616C517.236 488.296 517.405 486.12 517.639 484.617C517.897 483.106 518.224 482.217 518.32 482.238C518.443 482.264 518.316 483.193 518.209 484.682C518.124 486.165 518.061 488.244 518.635 490.405C519.2 492.572 520.369 494.272 521.372 495.349C522.379 496.431 523.132 496.996 523.053 497.106" fill="#17282F"/>
<path d="M307.983 449.32C305.199 436.112 299.505 422.596 288.243 415.159C279.696 409.515 269.121 408.118 258.956 406.868C188.069 398.152 117.183 389.434 46.2974 380.718C44.3949 414.233 58.7345 455.944 73.3689 486.155C75.6397 490.843 78.2698 495.638 82.6194 498.505C87.9204 501.998 94.7152 501.968 101.062 501.805C172.595 499.984 244.164 496.943 315.291 489.112C311.289 476.22 310.767 462.528 307.983 449.32" fill="#33535F"/>
<path d="M124.519 390.337C124.513 390.388 123.621 390.329 122.015 390.176C120.286 389.989 117.994 389.743 115.219 389.443C109.486 388.783 101.574 387.803 92.8517 386.597C84.1255 385.393 76.2422 384.187 70.5553 383.191C67.7126 382.687 65.4146 382.267 63.837 381.92C62.2574 381.583 61.3891 381.372 61.399 381.321C61.4089 381.271 62.2959 381.384 63.8891 381.632C65.6063 381.896 67.8834 382.245 70.6402 382.668C76.3427 383.528 84.2323 384.652 92.9537 385.855C101.616 387.043 109.454 388.117 115.286 388.917C118.048 389.313 120.33 389.64 122.051 389.887C123.646 390.129 124.526 390.285 124.519 390.337" fill="#17282F"/>
<path d="M125.616 565.238C125.604 565.243 125.529 565.105 125.395 564.83C125.247 564.517 125.056 564.112 124.814 563.602C124.299 562.469 123.573 560.876 122.649 558.846C122.181 557.806 121.664 556.655 121.1 555.4C120.561 554.129 120.038 552.722 119.444 551.224C118.294 548.212 116.852 544.827 115.634 540.953C114.989 539.026 114.313 537.01 113.609 534.91C112.914 532.806 112.348 530.567 111.678 528.277C110.281 523.707 109.195 518.721 107.968 513.493C105.778 502.982 103.968 491.294 103.061 478.929C102.255 466.551 102.435 454.722 103.156 444.009C103.651 438.662 104.038 433.571 104.793 428.853C105.142 426.491 105.395 424.197 105.792 422.017C106.2 419.839 106.592 417.749 106.966 415.753C107.638 411.746 108.6 408.197 109.324 405.055C109.707 403.489 110.031 402.023 110.39 400.691C110.775 399.369 111.13 398.159 111.449 397.065C112.085 394.927 112.585 393.249 112.94 392.057C113.108 391.518 113.242 391.091 113.345 390.759C113.441 390.469 113.495 390.322 113.508 390.326C113.52 390.33 113.49 390.485 113.418 390.782C113.333 391.118 113.223 391.553 113.084 392.099C112.762 393.301 112.308 394.99 111.731 397.142C111.43 398.241 111.098 399.454 110.735 400.781C110.398 402.117 110.095 403.585 109.732 405.153C109.047 408.298 108.124 411.849 107.486 415.851C107.129 417.846 106.753 419.935 106.362 422.11C105.981 424.287 105.744 426.578 105.409 428.935C104.683 433.646 104.32 438.725 103.845 444.058C103.164 454.745 103.005 466.537 103.809 478.877C104.714 491.205 106.496 502.859 108.644 513.349C109.848 518.566 110.908 523.545 112.276 528.11C112.933 530.4 113.483 532.635 114.161 534.739C114.847 536.839 115.507 538.857 116.136 540.782C117.319 544.659 118.723 548.049 119.834 551.07C120.409 552.574 120.911 553.986 121.43 555.264C121.972 556.527 122.468 557.684 122.917 558.73C123.785 560.782 124.467 562.394 124.952 563.539C125.164 564.062 125.334 564.477 125.464 564.798C125.576 565.083 125.628 565.233 125.616 565.238Z" fill="#17282F"/>
<path d="M123.366 497.689C123.357 497.896 119.609 497.889 114.996 497.674C110.382 497.46 106.651 497.119 106.66 496.912C106.67 496.705 110.417 496.712 115.031 496.926C119.644 497.141 123.376 497.482 123.366 497.689" fill="#17282F"/>
<path d="M121.424 507.397C121.398 507.584 117.41 507.017 112.837 505.153C108.255 503.312 104.996 500.945 105.107 500.793C105.226 500.601 108.614 502.649 113.119 504.458C117.612 506.291 121.471 507.177 121.424 507.397Z" fill="#17282F"/>
<path d="M102.803 440.648C102.892 440.815 100.507 442.034 97.267 442.334C94.0279 442.657 91.455 441.915 91.5096 441.734C91.5487 441.513 94.0873 441.901 97.1951 441.588C100.304 441.303 102.723 440.438 102.803 440.648Z" fill="#17282F"/>
<path d="M107.048 437.441C107.103 437.621 104.182 438.063 100.947 436.672C97.6963 435.315 95.9822 432.91 96.1494 432.824C96.3135 432.661 98.1775 434.71 101.239 435.981C104.281 437.297 107.051 437.21 107.048 437.441Z" fill="#17282F"/>
<path d="M181.921 209.023C180.983 206.221 178.399 204.166 175.556 203.358C172.713 202.551 169.651 202.862 166.812 203.687L139.187 210.007C143.136 212.639 151.413 215.181 156.132 215.682C163.027 216.414 167.881 216.479 171.993 214.113C172.836 216.945 176.676 218.199 179.252 216.751C181.829 215.305 182.86 211.826 181.921 209.023Z" fill="#17282F"/>
<path d="M457.928 498.832C457.88 499.009 454.12 498.119 449.669 496.441C445.212 494.772 441.797 492.967 441.877 492.801C441.963 492.62 445.488 494.133 449.913 495.791C454.333 497.457 457.983 498.64 457.928 498.832" fill="#17282F"/>
<path d="M464.02 487.017C463.92 487.189 460.827 485.541 456.937 483.676C453.049 481.801 449.831 480.415 449.903 480.23C449.967 480.057 453.32 481.161 457.239 483.049C461.159 484.929 464.116 486.86 464.02 487.017" fill="#17282F"/>
<path d="M243.958 403.353L299.661 404.034L366.908 390.709C369.081 390.278 370.752 388.529 371.082 386.338L380.222 325.781C380.674 322.792 378.082 320.23 375.098 320.716L306.356 331.898C304.402 332.216 302.892 333.784 302.648 335.748L294.978 397.332L244.048 397.086C242.312 397.078 240.898 398.484 240.898 400.22C240.898 401.921 242.257 403.312 243.958 403.353" fill="#DADBD8"/>
<path d="M243.959 403.352C243.959 403.352 243.581 403.418 242.901 403.177C242.255 402.953 241.216 402.28 240.893 400.865C240.751 400.178 240.817 399.336 241.265 398.576C241.701 397.822 242.528 397.165 243.572 397.017C245.617 396.938 247.928 396.996 250.556 396.98C261.067 397.004 276.237 397.038 294.98 397.082L294.732 397.301C296.923 379.577 299.519 358.578 302.393 335.321C302.703 333.776 303.84 332.42 305.329 331.849C306.092 331.544 306.851 331.513 307.572 331.37L309.784 331.009C312.743 330.526 315.735 330.038 318.757 329.545C324.804 328.558 330.975 327.552 337.253 326.528C343.533 325.504 349.921 324.464 356.403 323.406C359.643 322.88 362.907 322.348 366.192 321.813C367.835 321.546 369.483 321.277 371.136 321.009L373.619 320.605C374.44 320.494 375.267 320.261 376.204 320.325C378.12 320.465 379.845 321.85 380.397 323.676C380.699 324.564 380.639 325.6 380.476 326.429L380.085 329.021C379.564 332.469 379.047 335.893 378.533 339.293C377.505 346.09 376.492 352.785 375.499 359.357C374.504 365.93 373.527 372.38 372.571 378.69C372.332 380.268 372.095 381.837 371.859 383.397C371.74 384.177 371.621 384.954 371.504 385.73C371.411 386.482 371.248 387.353 370.86 388.08C370.117 389.564 368.685 390.661 367.083 390.997C365.569 391.297 364.067 391.596 362.573 391.892C338.716 396.589 317.373 400.792 299.708 404.269L299.683 404.274H299.657C282.371 404.017 268.452 403.809 258.832 403.666C254.047 403.58 250.335 403.513 247.795 403.468C246.551 403.437 245.597 403.414 244.932 403.398C244.288 403.38 243.959 403.352 243.959 403.352C243.959 403.352 244.289 403.333 244.933 403.33C245.599 403.33 246.552 403.33 247.797 403.332C250.337 403.348 254.051 403.372 258.836 403.402C268.457 403.494 282.376 403.628 299.664 403.793L299.615 403.798C317.272 400.277 338.604 396.022 362.449 391.268C363.939 390.97 365.436 390.67 366.944 390.369C368.361 390.07 369.627 389.097 370.281 387.785C370.625 387.121 370.756 386.432 370.859 385.632C370.976 384.857 371.092 384.08 371.209 383.3C371.444 381.738 371.68 380.17 371.917 378.592C372.867 372.281 373.837 365.829 374.827 359.256C375.817 352.682 376.825 345.988 377.851 339.189C378.363 335.79 378.879 332.365 379.399 328.917L379.791 326.326C379.955 325.444 379.987 324.678 379.735 323.884C379.265 322.325 377.783 321.136 376.149 321.017C375.395 320.956 374.568 321.173 373.731 321.29L371.247 321.693C369.595 321.962 367.947 322.23 366.304 322.497C363.019 323.032 359.755 323.562 356.513 324.089C350.032 325.141 343.643 326.18 337.363 327.2C331.083 328.218 324.912 329.22 318.864 330.2C315.841 330.69 312.849 331.176 309.889 331.654L307.676 332.013C306.94 332.154 306.185 332.194 305.565 332.452C304.279 332.944 303.291 334.116 303.023 335.452C300.097 358.684 297.456 379.658 295.227 397.362L295.199 397.582L294.977 397.581C276.235 397.444 261.064 397.332 250.555 397.256C247.94 397.248 245.585 397.173 243.601 397.226C242.625 397.352 241.839 397.96 241.417 398.666C240.984 399.378 240.908 400.178 241.033 400.837C241.319 402.192 242.303 402.87 242.928 403.11C243.583 403.368 243.964 403.321 243.959 403.352" fill="#17282F"/>
<path d="M308.591 333.827C308.781 333.851 306.936 349.931 304.471 369.739C302.004 389.553 299.851 405.592 299.661 405.568C299.471 405.544 301.315 389.467 303.782 369.652C306.247 349.844 308.4 333.803 308.591 333.827" fill="#17282F"/>
<path d="M338.484 358.834C337.084 361.754 337.852 365.033 340.199 366.158C342.547 367.284 345.584 365.83 346.984 362.91C348.384 359.992 347.616 356.712 345.268 355.586C342.921 354.461 339.884 355.916 338.484 358.834Z" fill="white"/>
<path d="M847.125 333.674C847.137 333.678 847.089 333.848 846.987 334.176C846.869 334.534 846.712 335.013 846.512 335.624C846.084 336.893 845.463 338.769 844.604 341.165C842.919 345.966 840.389 352.885 837.035 361.345C830.295 378.228 820.324 401.428 806.181 425.354C802.803 431.408 799.693 437.432 797.355 443.525C794.985 449.602 793.493 455.752 792.644 461.682C790.979 473.579 791.651 484.469 792.587 493.485C793.563 502.521 794.867 509.772 795.707 514.786C796.135 517.262 796.471 519.2 796.705 520.558C796.809 521.192 796.892 521.689 796.952 522.061C797.004 522.401 797.025 522.576 797.013 522.579C797.001 522.581 796.957 522.41 796.883 522.074C796.805 521.705 796.701 521.212 796.568 520.584C796.303 519.231 795.924 517.301 795.44 514.834C794.519 509.832 793.14 502.589 792.099 493.538C791.097 484.509 790.369 473.576 792.011 461.593C792.848 455.62 794.34 449.409 796.72 443.281C799.067 437.138 802.189 431.081 805.575 425.017C819.708 401.105 829.723 377.994 836.58 361.162C839.989 352.733 842.587 345.844 844.351 341.073C845.221 338.716 845.903 336.87 846.38 335.578C846.608 334.977 846.787 334.505 846.92 334.153C847.045 333.833 847.115 333.67 847.125 333.674" fill="#072448"/>
<path d="M833.5 415C833.52 415.013 833.372 415.28 833.071 415.775C832.725 416.328 832.28 417.04 831.728 417.924C830.553 419.784 828.809 422.447 826.643 425.728C822.325 432.301 816.161 441.253 809.971 451.515C806.895 456.659 804.171 461.677 801.868 466.328C799.557 470.976 797.739 475.285 796.283 478.931C794.861 482.589 793.771 485.577 793.096 487.668C792.757 488.652 792.484 489.447 792.272 490.061C792.075 490.607 791.961 490.889 791.939 490.883C791.915 490.876 791.984 490.58 792.137 490.021C792.317 489.395 792.392 488.586 792.68 487.585C793.277 485.467 794.3 482.447 795.665 478.753C797.067 475.075 799.005 470.729 801.293 466.047C803.572 461.362 806.291 456.317 809.375 451.159C815.584 440.868 821.816 431.956 826.236 425.455C828.424 422.264 830.211 419.657 831.503 417.775C832.1 416.92 832.581 416.232 832.955 415.699C833.292 415.228 833.48 414.988 833.5 415Z" fill="#072448"/>
<path d="M846.991 333.674C847.317 330.417 843.803 327.176 840.733 326.036C837.664 324.896 834.245 325.264 831.049 325.973C812.516 330.084 797.2 346.074 793.892 364.768C802.448 360.53 811.257 356.806 820.257 353.621C819.749 353.765 819.241 353.909 818.735 354.053C827.435 352.36 835.265 346.64 839.525 338.868C840.345 337.372 841.065 335.77 842.309 334.602C843.553 333.433 845.517 332.813 846.991 333.674" fill="#63D5BE"/>
<path d="M847.012 333.642C855.453 327.874 866.128 325.287 876.192 327.091C886.256 328.894 895.532 335.211 900.436 344.182C905.34 353.154 905.576 364.642 900.588 373.567C895.869 363.765 890.82 353.558 882.036 347.139C879.98 345.637 877.653 344.265 876.496 341.995C875.153 339.363 875.702 336.113 874.554 333.39C873.14 330.037 869.242 329.063 865.608 328.873C861.973 328.683 851.438 332.029 847.012 333.642" fill="#63D5BE"/>
<path d="M846.784 333.481C855.51 330.894 865.376 335.16 871.315 341.696C877.254 348.232 880.271 357.004 881.294 365.774C882.316 374.546 881.492 383.417 880.604 392.204C873.783 382.041 868.68 370.728 865.578 358.888C864.175 353.532 863.152 348.001 860.63 343.073C858.108 338.144 852.263 334.28 846.784 333.481Z" fill="#63D5BE"/>
<path d="M846.493 333.674C853.465 330.445 857.395 323.158 858.292 315.528C859.188 307.897 855.873 299.904 849.84 295.146C842.897 301.472 840.224 312.074 843.336 320.936C844.811 325.133 847.493 329.34 846.493 333.674Z" fill="#63D5BE"/>
<path d="M790.997 475C790.976 475.008 790.836 474.659 790.587 473.988C790.329 473.321 790.008 472.316 789.509 471.054C788.561 468.514 787.078 464.88 785.058 460.483C781.023 451.685 774.673 439.905 766.694 427.543C758.721 415.174 750.723 404.517 744.384 397.325C741.214 393.731 738.472 390.985 736.4 389.316C735.37 388.473 734.517 387.898 733.923 387.535C733.311 387.208 732.991 387.024 733 387.002C733.008 386.98 733.345 387.122 733.984 387.416C734.604 387.744 735.491 388.291 736.553 389.109C738.691 390.729 741.495 393.438 744.72 397.003C751.17 404.139 759.243 414.776 767.234 427.172C775.228 439.559 781.533 451.408 785.472 460.281C787.445 464.717 788.867 468.388 789.746 470.963C790.21 472.242 790.492 473.263 790.711 473.944C790.919 474.63 791.018 474.993 790.997 475Z" fill="#072448"/>
<path d="M815.849 554.749H768.201L760.771 499.585H824.717L815.849 554.749Z" fill="#072448"/>
<path d="M860.503 433.372C855.691 423.042 843.324 416.298 831.967 417.222C834.496 418.24 836.056 420.864 836.688 423.516C837.32 426.168 837.205 428.932 837.419 431.649C838.444 444.696 846.839 455.829 854.9 466.137C860.565 473.381 866.263 480.661 873.037 486.878C872.224 468.319 871.056 448.66 860.503 433.372" fill="#63D5BE"/>
<path d="M831.967 417.367C839.175 411.813 848.488 409.511 857.588 409.418C866.688 409.325 875.677 411.287 884.5 413.521C889.799 414.862 895.18 416.353 899.711 419.411C904.241 422.469 907.848 427.401 907.939 432.866C900.457 424.642 888.403 423.055 877.727 419.954C870.491 417.853 863.511 414.847 856.135 413.31C848.759 411.773 838.489 413.595 831.967 417.367" fill="#63D5BE"/>
<path d="M833.203 415.895C830.037 412.581 831.785 404.82 834.54 401.157C837.296 397.496 841.667 395.443 845.984 393.907C851.667 391.885 857.58 390.511 863.572 389.817C862.964 393.583 860.755 396.94 858.012 399.591C855.269 402.24 851.999 404.268 848.755 406.275C843.571 409.481 838.387 412.688 833.203 415.895" fill="#63D5BE"/>
<path d="M803.541 411.44C794.508 415.399 787.509 422.79 780.772 429.993C790.771 427.558 800.391 423.573 809.183 418.227C812.68 416.099 816.148 413.715 820.143 412.824C824.139 411.932 828.629 413.708 831.967 416.473C826.312 408.145 812.575 407.481 803.541 411.44" fill="#63D5BE"/>
<path d="M799.297 470.517C804.347 458.922 802.219 444.858 808.632 433.958C813.542 425.613 822.615 420.658 831.636 417.138C833.729 423.424 832.736 430.437 830.08 436.505C827.423 442.574 823.215 447.829 818.769 452.741C812.628 459.531 805.949 465.809 799.279 472.08L799.297 470.517" fill="#63D5BE"/>
<path d="M827.658 512H756.394V499.585H827.658V512Z" fill="#072448"/>
<path d="M825.282 512.395C825.282 512.588 809.859 512.742 790.839 512.742C771.812 512.742 756.394 512.588 756.394 512.395C756.394 512.203 771.812 512.048 790.839 512.048C809.859 512.048 825.282 512.203 825.282 512.395Z" fill="#17282F"/>
<path d="M850.272 334.162C847.776 329.834 845.259 325.477 841.988 321.701C838.716 317.925 834.605 314.722 829.812 313.315C823.389 311.431 816.492 312.926 810.077 314.834C802.581 317.065 795.252 319.857 788.172 323.178C797.429 326.702 807.917 326.889 817.293 323.695C822.196 322.025 826.959 322.242 832.104 322.827C838.369 323.541 846.212 329.335 850.272 334.162Z" fill="#63D5BE"/>
<path d="M680.002 407.685C668.768 421.978 665.035 441.067 666.291 459.202C672.871 435.17 686.982 413.259 706.139 397.327C713.462 391.238 722.826 386.419 731.902 386.419C713.226 384.755 691.588 392.943 680.002 407.685Z" fill="#63D5BE"/>
<path d="M706.076 378.981C699.815 379.44 694.085 382.614 688.911 386.168C680.983 391.61 673.548 398.474 670.091 407.446C683.904 390.844 706.44 381.946 727.869 384.637C721.044 381.241 713.679 378.424 706.076 378.981" fill="#63D5BE"/>
<path d="M723.628 357.514C720.001 360.031 717.225 364.167 717.413 368.578C717.541 371.602 719.031 374.441 721.013 376.727C722.996 379.014 726.163 382.19 728.604 383.979C730.901 373.793 733.671 363.15 735.968 352.963C731.641 353.843 727.256 354.998 723.628 357.514" fill="#63D5BE"/>
<path d="M744.841 356.535C739.943 359.678 735.571 363.899 733.188 369.21C730.805 374.521 729.809 381.223 732.817 386.206C741.368 373.51 750.732 360.783 760.603 349.083C755.192 351.229 749.741 353.393 744.841 356.535" fill="#63D5BE"/>
<path d="M762.844 374.037C751.603 373.133 740.052 378.193 733.097 387.07C737.72 384.685 743.911 383.38 749.069 384.048C762.879 385.837 776.59 388.378 790.122 391.66C784.677 381.785 774.084 374.941 762.844 374.037" fill="#63D5BE"/>
<path d="M734.396 386.206C723.817 386.788 714.558 394.932 710.865 404.861C707.173 414.792 708.434 426.064 712.429 435.876C716.424 445.688 722.956 454.248 729.878 462.269C733.353 450.325 736.842 438.32 738.37 425.974C739.9 413.63 738.74 397.862 734.396 386.206" fill="#63D5BE"/>
<path d="M666.291 459.202C666.136 456.971 666.057 454.725 666.059 452.476C666.067 436.442 670.151 420.219 680.001 407.685C690.596 394.206 709.591 386.206 727.043 386.206C728.679 386.206 730.301 386.277 731.901 386.419C722.825 386.419 713.461 391.238 706.139 397.327C686.981 413.259 672.871 435.17 666.291 459.202Z" fill="#63D5BE"/>
<path d="M670.091 407.446C673.548 398.474 680.983 391.61 688.911 386.168C694.085 382.614 699.815 379.44 706.076 378.981C706.728 378.933 707.376 378.91 708.024 378.91C714.936 378.91 721.629 381.532 727.869 384.637C725.331 384.318 722.779 384.162 720.225 384.162C701.224 384.162 682.267 392.81 670.091 407.446" fill="#63D5BE"/>
<path d="M728.604 383.979C726.162 382.19 722.996 379.014 721.013 376.727C719.031 374.441 717.541 371.602 717.413 368.578C717.407 368.441 717.404 368.303 717.404 368.166C717.4 363.91 720.115 359.953 723.628 357.514C727.256 354.998 731.641 353.843 735.968 352.963C733.67 363.15 730.901 373.793 728.604 383.979" fill="#63D5BE"/>
<path d="M732.817 386.206C731.501 384.026 730.952 381.517 730.949 378.939C730.947 375.625 731.848 372.198 733.188 369.21C735.571 363.899 739.943 359.678 744.841 356.535C749.741 353.393 755.192 351.229 760.603 349.083C750.732 360.783 741.368 373.51 732.817 386.206" fill="#63D5BE"/>
<path d="M790.123 391.66C789.156 391.425 788.188 391.194 787.22 390.968C787.157 390.953 787.095 390.938 787.032 390.924C774.504 387.997 761.828 385.7 749.069 384.048C748.16 383.929 747.219 383.873 746.259 383.873C742.3 383.873 738.037 384.834 734.472 386.413C734.447 386.344 734.421 386.276 734.396 386.206C734.184 386.218 733.972 386.233 733.761 386.25C740.216 378.546 750.204 373.933 760.248 373.933C761.113 373.933 761.98 373.968 762.844 374.037C774.084 374.941 784.677 381.785 790.123 391.66Z" fill="#63D5BE"/>
<path d="M729.879 462.269C729.437 461.758 728.999 461.245 728.561 460.731C724.249 455.646 720.145 450.332 716.781 444.609C715.132 441.803 713.66 438.898 712.429 435.876C710.073 430.088 708.668 423.793 708.669 417.564C708.669 413.233 709.351 408.934 710.865 404.861C714.485 395.13 723.448 387.114 733.761 386.25C733.972 386.233 734.184 386.218 734.396 386.206C737.535 394.63 739.012 405.2 739.012 415.074C739.012 418.864 738.795 422.552 738.371 425.974C737.323 434.441 735.352 442.748 733.097 450.984C732.601 452.791 732.092 454.598 731.576 456.401C731.016 458.36 730.447 460.314 729.879 462.269" fill="#63D5BE"/>
<path d="M873.037 486.878C866.263 480.661 860.565 473.381 854.9 466.137C846.839 455.829 838.444 444.696 837.419 431.649C837.205 428.932 837.32 426.168 836.688 423.516C836.068 420.916 834.556 418.342 832.113 417.284C832.163 417.256 832.212 417.228 832.261 417.201C832.86 417.158 833.461 417.138 834.064 417.138C844.811 417.138 855.985 423.676 860.503 433.372C871.056 448.66 872.224 468.319 873.037 486.878" fill="#63D5BE"/>
<path d="M832.089 417.274C832.076 417.268 832.064 417.262 832.051 417.257C832.023 417.245 831.995 417.234 831.967 417.222C832.037 417.217 832.108 417.212 832.179 417.206C832.148 417.229 832.119 417.252 832.089 417.274Z" fill="#63D5BE"/>
<path d="M907.939 432.866C900.457 424.642 888.403 423.055 877.727 419.954C870.491 417.853 863.511 414.847 856.135 413.31C854.357 412.939 852.412 412.765 850.392 412.765C844.152 412.765 837.197 414.437 832.261 417.201C832.212 417.227 832.163 417.255 832.113 417.283C832.064 417.311 832.016 417.339 831.967 417.367C839.175 411.813 848.488 409.511 857.588 409.418C857.796 409.417 858.004 409.415 858.212 409.415C867.1 409.415 875.879 411.338 884.5 413.521C889.799 414.862 895.18 416.353 899.711 419.411C904.241 422.469 907.848 427.401 907.939 432.866" fill="#63D5BE"/>
<path d="M833.202 415.895C833.144 415.832 833.085 415.768 833.029 415.703C832.98 415.645 832.932 415.587 832.885 415.527C831.916 414.284 831.509 412.552 831.508 410.677C831.506 407.288 832.829 403.432 834.54 401.157C837.296 397.496 841.666 395.443 845.984 393.907C851.666 391.885 857.58 390.511 863.572 389.817C862.964 393.583 860.754 396.94 858.012 399.591C855.269 402.24 851.998 404.268 848.754 406.275C843.57 409.481 838.386 412.688 833.202 415.895" fill="#63D5BE"/>
<path d="M780.772 429.993C787.509 422.79 794.508 415.399 803.541 411.44C806.979 409.933 811.097 409.097 815.193 409.097C821.859 409.097 828.464 411.315 831.967 416.473C829.22 414.197 825.692 412.592 822.301 412.592C821.572 412.592 820.849 412.665 820.143 412.824C816.789 413.572 813.808 415.372 810.868 417.188C810.464 417.439 810.06 417.689 809.656 417.937C809.499 418.033 809.34 418.131 809.183 418.227C800.391 423.573 790.771 427.558 780.772 429.993" fill="#63D5BE"/>
<path d="M799.279 472.08L799.297 470.517C804.347 458.922 802.219 444.858 808.632 433.958C813.542 425.613 822.615 420.658 831.636 417.138C832.412 419.47 832.764 421.904 832.764 424.35C832.764 428.498 831.751 432.689 830.08 436.505C827.423 442.574 823.215 447.829 818.769 452.741C812.628 459.531 805.949 465.809 799.279 472.08" fill="#63D5BE"/>
<path d="M251.348 254.629C252.996 252.756 254.644 250.882 256.292 249.009C256.525 248.744 256.759 248.478 256.992 248.214C257.133 248.053 256.899 247.817 256.756 247.978C255.108 249.852 253.46 251.725 251.812 253.598C251.579 253.864 251.345 254.129 251.112 254.393C250.971 254.554 251.207 254.79 251.348 254.629Z" fill="white"/>
</g>
<defs>
<clipPath id="clip0_41_2">
<rect width="906.933" height="564.8" fill="white"/>
</clipPath>
</defs>
</svg>
