<svg xmlns="http://www.w3.org/2000/svg" width="907" height="565" fill="none"><g clip-path="url(#a)"><path fill="#DADBD8" d="M128.114 100.506h-91.73V4.885h91.73v95.621Z"/><path fill="#F3F2F1" d="M121.902 100.506h-91.73V4.885h91.73v95.621Z"/><path fill="#DADBD8" d="M30.2 100.478h91.674V4.913H30.2v95.565Zm91.731.058H30.143V4.857h91.788v95.679"/><path fill="#fff" d="M109.571 87.653H42.502V17.74h67.069v69.913Z"/><path fill="#DADBD8" d="M42.502 88.117c.054.063-.583.794-1.654 1.924a187.81 187.81 0 0 1-4.263 4.323 185.335 185.335 0 0 1-4.382 4.193c-1.144 1.05-1.88 1.673-1.939 1.614-.057-.058.575-.785 1.647-1.916 1.07-1.13 2.58-2.663 4.273-4.33a183.862 183.862 0 0 1 4.39-4.201c1.143-1.053 1.876-1.67 1.928-1.607M109.571 87.945c.063-.052.794.584 1.925 1.654 1.13 1.072 2.66 2.578 4.322 4.264a188.64 188.64 0 0 1 4.193 4.382c1.051 1.144 1.673 1.881 1.615 1.938-.058.058-.786-.574-1.916-1.645a190.372 190.372 0 0 1-4.331-4.273 188.855 188.855 0 0 1-4.201-4.39c-1.052-1.144-1.67-1.877-1.607-1.93M109.387 17.926c-.052-.062.585-.794 1.655-1.925 1.072-1.13 2.577-2.66 4.264-4.321a184.097 184.097 0 0 1 4.381-4.194c1.144-1.052 1.881-1.673 1.939-1.614.058.057-.575.785-1.646 1.916a191.668 191.668 0 0 1-4.273 4.33 186.825 186.825 0 0 1-4.39 4.202c-1.143 1.05-1.877 1.669-1.93 1.606M42.32 18.098c-.063.052-.794-.584-1.925-1.656-1.13-1.07-2.66-2.576-4.322-4.264a185.595 185.595 0 0 1-4.194-4.38c-1.05-1.144-1.673-1.881-1.614-1.939.058-.058.785.575 1.916 1.646a188.14 188.14 0 0 1 4.33 4.273 188.198 188.198 0 0 1 4.202 4.39c1.051 1.143 1.669 1.877 1.606 1.93Z"/><path fill="#DADBD8" d="M109.387 87.653a3.846 3.846 0 0 1-.014-.341l-.015-.975-.03-3.775-.068-14.248-.131-50.574.258.258-66.877.038h-.007l.297-.296-.042 69.912-.255-.255c20.042.055 36.73.099 48.429.13l13.603.067 3.599.03.929.014c.211.006.32.01.324.015a2.28 2.28 0 0 1-.295.013l-.903.015-3.55.03-13.545.066-48.591.13h-.255v-.255l-.042-69.912v-.298h.304l66.877.039h.26v.259l-.132 50.74-.068 14.189-.03 3.725-.015.948c-.005.211-.01.315-.015.311"/><path fill="#DADBD8" d="M87.226 63.886H64.847v-22.38h22.38v22.38M899.676 151.711H796.391V2.002h103.285v149.709Z"/><path fill="#F3F2F1" d="M894.502 151.711H791.216V2.002h103.286v149.709Z"/><path fill="#fff" d="M881.671 135.497h-77.623V18.217h77.623v117.28Z"/><path fill="#DADBD8" d="M881.671 135.497s-.011-.199-.016-.573l-.015-1.664c-.008-1.474-.017-3.631-.032-6.432l-.069-24.16-.127-84.45.257.256-77.612.023h-.009l.281-.28-.057 117.28-.224-.224c23.64.05 43.016.089 56.499.117l15.609.058 4.097.025c.928.008 1.418.024 1.418.024s-.458.016-1.371.024l-4.055.026-15.56.056-56.637.118h-.223l-.001-.224-.056-117.28v-.281H804.057l77.612.023h.259v.258l-.127 84.62-.069 24.102a8308.57 8308.57 0 0 1-.032 6.381l-.015 1.633a16.66 16.66 0 0 1-.014.544Z"/><path fill="#DADBD8" d="M894.792 2.002c.061.047-.64 1.07-1.84 2.675a174.164 174.164 0 0 1-4.847 6.146c-1.944 2.36-3.76 4.45-5.105 5.935-1.345 1.486-2.215 2.37-2.272 2.32-.06-.052.704-1.03 1.971-2.578l4.973-6.034c1.881-2.287 3.584-4.355 4.968-6.036 1.279-1.54 2.091-2.477 2.152-2.428Z"/><path fill="#fff" d="M882.065 135.12a96.15 96.15 0 0 0 13.539 16.93Z"/><path fill="#DADBD8" d="M895.604 152.05c-.051.052-.972-.748-2.36-2.146a74.642 74.642 0 0 1-5.107-5.76 74.487 74.487 0 0 1-4.496-6.25c-1.06-1.662-1.637-2.737-1.576-2.776.071-.042.766.955 1.904 2.554a140.91 140.91 0 0 0 4.607 6.121 140.1 140.1 0 0 0 4.957 5.839c1.308 1.462 2.13 2.36 2.071 2.418Z"/><path fill="#fff" d="m791.201 151.593 13.53-16.692Z"/><path fill="#DADBD8" d="M804.731 134.901c.12.097-2.811 3.913-6.547 8.522-3.736 4.61-6.863 8.267-6.983 8.17-.121-.098 2.81-3.913 6.547-8.524 3.735-4.608 6.861-8.265 6.983-8.168ZM791.216 2.002c.121-.097 3.061 3.419 6.566 7.85 3.506 4.432 6.248 8.102 6.127 8.198-.123.096-3.061-3.417-6.568-7.85-3.504-4.431-6.247-8.102-6.125-8.198ZM857.487 115.824h-25.991V42.029h25.991v73.795ZM34.978 274.276a44.57 44.57 0 0 0-19.069-6.564c-3.116-.32-6.52-.228-9.02 1.658-.53.402-1.047.994-.928 1.648.087.48.493.83.882 1.127 7.758 5.919 19.495 6.665 28.135 2.131ZM34.49 273.736c-4.318-3.368-8.66-6.76-12.317-10.836-3.657-4.076-6.63-8.915-7.722-14.28-.331-1.628-.434-3.487.61-4.779 9.818 7.667 17.53 17.584 19.428 29.895Z"/><path fill="#DADBD8" d="M34.876 274.202c-.74-5.372-1.005-10.892.229-16.17 1.233-5.28 4.105-10.332 8.613-13.344 1.697 3.965.967 8.533-.228 12.677a61.616 61.616 0 0 1-8.54 17.983M44.5 291.446c-5.842.711-10.93 3.789-15.292 7.74a28.936 28.936 0 0 0-8.748 15.016c5.731-.353 10.593-4.395 14.119-8.927 3.526-4.53 5.968-9.502 9.842-13.74M46.59 294.205c-4.705-11.592-3-25.559 4.356-35.677 3.329 11.84 2.106 25.212-4.355 35.677ZM59.307 309.346a27.465 27.465 0 0 0-15.297 3.584 27.466 27.466 0 0 0-10.78 11.427c-.324.647-.61 1.467-.176 2.045.375.503 1.102.55 1.729.51 5.139-.334 9.694-3.426 13.453-6.947 3.758-3.521 7.033-7.589 11.186-10.635M58.902 308.522c-2.736-8.752-2.906-18.288-.485-27.132.955-3.492 2.56-7.168 5.79-8.806.275-.139.596-.264.885-.155.275.103.433.384.56.648 1.15 2.4 1.483 5.125 1.365 7.784-.118 2.659-.67 5.276-1.22 7.88-1.016 4.816-1.557 9.991-4.2 14.144-.626.987-1.178 2.051-1.678 3.107s-.504 1.428-.962 2.266M92.561 313.537c-2.493-9.487.153-20.987 6.131-28.763.44-.573 1.024-1.186 1.743-1.12 1.101.102 1.386 1.57 1.337 2.674-.432 9.693-3.666 19.246-9.21 27.209M95.596 315.611c11.525 2.999 24.746.083 34.332-6.982-5.681-2.88-12.377-3.702-18.586-2.282-6.208 1.42-11.881 4.202-15.746 9.264M98.156 309.294c6.454-10.522 18.829-17.39 31.158-18.016-1.42 5.015-5.541 8.912-10.191 11.267-4.65 2.356-9.84 3.381-14.957 4.375-1.99.386-4.72.812-6.01 2.374ZM93.203 278.646c1.748-5.988 3.506-12.028 3.985-18.248.48-6.219-.407-12.712-3.634-18.051-6.03 11.668-6.64 25.299-.532 36.924M113.501 268.386c7.052-12.813 21.436-23.049 35.992-24.484-5.616 13.98-20.928 24.786-35.992 24.484M109.065 270.898c10.515 1.602 19.475 8.318 29.301 12.388 2.102.872 4.369 1.566 6.625 1.27 2.256-.296 4.481-1.81 4.986-4.027.42-1.841-.418-3.797-1.74-5.147-1.321-1.349-3.068-2.192-4.812-2.918-10.702-4.456-22.18-4.567-33.454-1.864"/><path fill="#DADBD8" d="M102.981 278.273c2.381.681 3.194 1.915 5.079 3.52a54.788 54.788 0 0 0 22.219 11.413c.849.212 1.963.296 2.383-.472.368-.669-.097-1.48-.574-2.077-3.416-4.275-8.289-7.197-13.416-9.107-5.128-1.91-9.57-4.212-15.691-3.717M96.114 233.73c8.551 7.98 20.595 12.079 32.238 10.968.53-.05 1.108-.134 1.468-.526.811-.883-.162-2.246-1.108-2.983-9.478-7.389-20.959-10.453-32.598-7.459"/><path fill="#DADBD8" d="M104.256 230.75c11.303-8.473 26.801-11.032 40.227-6.637-5.066 4.993-12.095 7.679-19.169 8.416-7.075.736-14.159-.048-21.058-1.779M101.02 210.282c-.931-9.461-.327-16.929-.983-26.433-.053-.76-.216-1.673-.926-1.947-.99-.381-1.814.835-2.138 1.844-2.818 8.762-1.278 18.811 4.033 26.327"/><path fill="#DADBD8" d="M100.339 211.328c6.412-3.966 11.223-9.146 15.671-15.232 3.096-4.235 5.705-9.308 5.001-14.507-4.346-.087-8.477 2.311-11.304 5.613-2.827 3.303-4.508 7.432-5.762 11.595-1.255 4.161-2.134 8.44-3.606 12.531ZM115.736 207.049a126.377 126.377 0 0 0 38.567-22.74c-4.607-1.856-9.881-.746-14.487 1.113-10.523 4.248-19.12 11.417-24.281 21.524M104.668 216.502c7.12.779 14.352 1.286 21.416.106 6.942-1.162 13.503-3.914 19.991-6.645.537-.225 1.124-.497 1.359-1.03.256-.58-.018-1.286-.487-1.711-.469-.425-1.095-.628-1.705-.799-7.054-1.973-14.665-1.049-21.605 1.291-6.94 2.34-12.629 5.12-18.969 8.788ZM64.016 234.053c-4.857-9.804-4.542-21.247-.346-31.351 2.954 4.5 3.315 10.232 2.775 15.588s-2.171 10.868-2.276 16.251M44.612 224.266c-12.127-.232-24.259 4.936-32.493 13.843 6.053.951 12.287-.611 17.792-3.299 5.506-2.689 10.398-6.461 15.248-10.205M31.566 219.903c-5.933-.481-11.64-1.216-17.345.532C8.517 222.183 3.325 226.151 1 231.646c5.549.625 11.175-.767 16.262-3.071 5.086-2.305 9.71-5.497 14.304-8.672ZM50.882 220.103c-5.337-3.497-10.817-7.058-17.032-8.506-6.215-1.45-13.416-.379-17.749 4.305 5.03 2.952 11.134 3.3 16.966 3.296 5.833-.005 12.983-.071 18.481 1.875"/><path fill="#DADBD8" d="M50.914 220.385c-9.124-8.96-12.583-25.055-8.912-37.304 7.171 10.897 10.383 24.341 8.912 37.304M76.003 194.999c1.72-4.001 2.931-8.2 4.475-12.272 1.544-4.072 3.463-8.078 6.38-11.312 2.917-3.233 6.951-5.641 11.3-5.857-2.722 12.328-10.91 23.344-21.932 29.505M71.463 200.289c-2.848-3.92-6.138-9.24-10-12.167-3.86-2.925-8.89-4.696-13.603-3.572 4.794 8.568 13.85 14.608 23.603 15.739ZM72.371 195.325c-1.867-4.743-3.747-9.536-4.501-14.576-.755-5.041-.296-10.425 2.282-14.823 5.008 9.468 6.621 19.631 2.474 29.507M76.049 165.926c2.837-9.385 11.431-16.296 20.71-19.468 1.169-.398 2.409-.732 3.63-.544 1.222.19 2.42 1.024 2.676 2.235.339 1.596-.98 3.027-2.22 4.087a70.484 70.484 0 0 1-24.796 13.69M76.151 158.25c.361-6.052.739-12.191 2.707-17.924 1.968-5.735 5.762-11.112 11.28-13.621.939 6.11-1.758 12.192-5.01 17.45-3.252 5.26-7.171 10.224-9.125 16.091M76.003 162.416c-2.345-6.84-2.587-15.528-6.683-21.487-2.863-4.165-7.448-7.004-9.915-11.415-1.64 4.12-1.138 8.868.576 12.958 1.715 4.09 4.547 7.61 7.578 10.848 3.03 3.237 5.626 5.672 8.444 9.096"/><path fill="#DADBD8" d="M76.05 363.852c-.183 0-.341-45.631-.353-101.906-.013-56.293.124-101.913.306-101.913.183 0 .34 45.62.353 101.913.013 56.275-.125 101.906-.307 101.906Z"/><path fill="#DADBD8" d="M115.924 227.167c.013.044-.599.271-1.715.644l-4.722 1.594a275.125 275.125 0 0 0-15.385 5.752c-5.877 2.521-11.42 4.568-14.576 7.302-1.577 1.351-2.482 2.811-2.93 3.876-.452 1.071-.532 1.727-.593 1.715-.022-.004-.015-.167.02-.479a7.23 7.23 0 0 1 .335-1.329c.385-1.125 1.265-2.688 2.858-4.131 1.587-1.446 3.795-2.746 6.325-3.929 2.53-1.18 5.334-2.412 8.311-3.635 5.954-2.44 11.465-4.341 15.491-5.586 2.012-.627 3.653-1.09 4.792-1.395 1.14-.299 1.776-.443 1.789-.399Z"/><path fill="#DADBD8" d="M128.995 195.064c.014.016-.151.192-.481.512l-1.465 1.376-5.466 4.965-18.193 16.2c-7.102 6.321-13.24 12.361-17.493 16.909a203.584 203.584 0 0 0-4.95 5.467l-1.323 1.509c-.306.343-.476.515-.493.502-.019-.015.117-.216.39-.586.276-.366.678-.913 1.228-1.59 1.086-1.367 2.714-3.3 4.806-5.618 4.176-4.641 10.28-10.752 17.396-17.085a2377.451 2377.451 0 0 1 18.324-16.057l5.605-4.81 1.545-1.281c.359-.288.555-.431.57-.413"/><path fill="#DADBD8" d="M95.723 224.545c-.186-.084 1.298-3.51 2.776-7.842 1.492-4.33 2.194-7.986 2.383-7.956.173.018-.248 3.78-1.758 8.168a53.475 53.475 0 0 1-2.21 5.484c-.646 1.367-1.11 2.182-1.19 2.146M76.09 252.162c-.036.027-.424-.426-1.094-1.269l-2.803-3.596c-2.355-3.044-5.61-7.245-9.26-11.844a1194.193 1194.193 0 0 0-9.435-11.708l-2.865-3.547c-.669-.842-1.023-1.324-.988-1.353.034-.029.454.395 1.184 1.187s1.765 1.957 3.026 3.413a359.573 359.573 0 0 1 9.595 11.599 361.199 361.199 0 0 1 9.116 11.973 161.104 161.104 0 0 1 2.637 3.723c.606.89.925 1.396.888 1.422"/><path fill="#DADBD8" d="M67.348 240.938c-.108.116-2.44-2.652-3.663-6.857-.902-2.963-.942-5.673-.831-6.913l.291.024c-.13.528-.225.806-.277.798-.053-.008-.055-.302-.012-.845l.291.023c.107 1.229.294 3.846 1.17 6.725 1.18 4.075 3.207 6.933 3.03 7.045M56.06 226.74c-.085.092-.835-.855-2.558-1.485-1.707-.662-4.278-.807-7.1-.566a43.85 43.85 0 0 0-7.15 1.155c-1.804.447-2.907.799-2.942.705-.03-.077 1.02-.585 2.817-1.154 1.794-.566 4.35-1.152 7.226-1.363 2.852-.247 5.559-.027 7.324.791 1.79.792 2.442 1.901 2.383 1.917M53.384 223.298c-.05.103-1.49-.597-3.917-1.427a40.465 40.465 0 0 0-9.776-2.012c-3.9-.29-7.446.051-9.969.507-2.526.452-4.054.925-4.089.816-.014-.043.355-.197 1.04-.443.68-.253 1.69-.542 2.958-.83 2.53-.58 6.139-1.004 10.11-.707 3.97.308 7.472 1.275 9.885 2.232 1.209.475 2.165.915 2.799 1.269.639.346.98.555.96.595M76.003 208.748c-.176.044-1.456-4.4-2.857-9.926-1.402-5.528-2.395-10.044-2.218-10.088.176-.045 1.455 4.399 2.858 9.926 1.4 5.526 2.394 10.042 2.217 10.088"/><path fill="#DADBD8" d="M76.185 208.748c-.196.062-1.02-2.907-3.167-5.943-2.09-3.1-4.759-4.656-4.66-4.811.033-.069.77.202 1.798.928 1.03.718 2.304 1.932 3.402 3.504 2.23 3.16 2.787 6.31 2.627 6.322ZM76.05 339.526c-.072.011-.206-1.096-.72-3.034-.508-1.938-1.466-4.686-3.05-7.9-3.152-6.442-8.889-14.611-16.178-22.792-3.612-4.127-7.116-8.02-10.09-11.747-2.98-3.721-5.428-7.269-7.215-10.407-1.794-3.134-2.961-5.825-3.643-7.722-.335-.952-.58-1.695-.715-2.21-.145-.51-.21-.781-.188-.788.059-.018.39 1.046 1.142 2.906.752 1.858 1.975 4.497 3.806 7.578 1.826 3.084 4.295 6.579 7.286 10.262 2.986 3.688 6.496 7.56 10.114 11.694 7.309 8.203 13.031 16.475 16.102 23.023 1.543 3.268 2.442 6.069 2.878 8.041.211.988.353 1.759.403 2.29.067.526.09.804.067.806Z"/><path fill="#DADBD8" d="M112.082 298.828c.021.049-.669.397-1.889 1.06a41.297 41.297 0 0 0-4.898 3.238c-1.969 1.507-4.172 3.487-6.433 5.867-2.257 2.385-4.584 5.155-6.957 8.124-4.746 5.955-9.185 11.224-11.843 15.429a63.271 63.271 0 0 0-2.973 5.079c-.648 1.232-.992 1.924-1.04 1.901-.02-.009.04-.193.175-.534.14-.34.332-.85.634-1.48.575-1.275 1.5-3.08 2.81-5.215 2.58-4.307 6.984-9.648 11.722-15.593 2.379-2.974 4.733-5.75 7.033-8.131 2.305-2.377 4.565-4.344 6.592-5.82 2.027-1.479 3.802-2.477 5.059-3.092.626-.315 1.136-.507 1.474-.653.341-.139.524-.2.534-.18"/><path fill="#DADBD8" d="M112.787 312.031c.008.096-1.524.282-3.992.579-2.458.319-5.881.729-9.466 1.865-3.572 1.163-6.541 2.936-8.476 4.448-1.954 1.51-2.875 2.759-2.966 2.686-.031-.023.16-.363.592-.919.426-.559 1.125-1.305 2.079-2.128 1.904-1.64 4.901-3.52 8.569-4.715 3.673-1.162 7.142-1.5 9.622-1.701 2.489-.18 4.031-.201 4.038-.115Z"/><path fill="#DADBD8" d="M89.052 320.158c-.208-.117 1.59-2.865 2.986-6.56 1.31-3.729 1.616-7 1.851-6.962.085.01.081.828-.066 2.141-.157 1.309-.471 3.129-1.164 5.045-.699 1.914-1.613 3.514-2.316 4.628-.711 1.112-1.217 1.755-1.29 1.708M123.752 263.381c.007.021-.213.139-.64.34l-1.875.853c-.822.352-1.819.799-2.943 1.391-1.127.581-2.444 1.181-3.813 2.004l-2.178 1.239c-.755.433-1.502.949-2.297 1.446-1.605.975-3.213 2.174-4.93 3.398-3.358 2.549-6.89 5.566-10.29 9.05-3.367 3.519-6.263 7.152-8.696 10.596-1.165 1.759-2.309 3.407-3.227 5.044-.47.812-.96 1.576-1.368 2.346l-1.163 2.218c-.776 1.398-1.33 2.734-1.873 3.88a39.832 39.832 0 0 0-1.29 2.988l-.788 1.904c-.187.434-.296.658-.317.65-.021-.007.045-.246.192-.695l.674-1.952c.288-.849.667-1.88 1.191-3.043.513-1.165 1.041-2.522 1.794-3.941l1.132-2.252c.4-.78.881-1.556 1.344-2.379.904-1.661 2.039-3.332 3.199-5.112 2.422-3.489 5.328-7.164 8.721-10.709 3.427-3.512 7-6.54 10.403-9.081 1.74-1.22 3.371-2.411 5-3.371.806-.491 1.565-.999 2.331-1.424l2.212-1.209c1.392-.802 2.73-1.375 3.878-1.927a33.093 33.093 0 0 1 3.001-1.295l1.928-.741c.443-.161.679-.237.688-.216"/><path fill="#DADBD8" d="M95.234 282.489c-.058-.011.26-1.118 1.568-2.336 1.277-1.216 3.606-2.343 6.318-2.424 2.704-.071 5.048.685 6.649 1.298 1.61.634 2.545 1.146 2.513 1.222-.037.092-1.039-.27-2.666-.78-1.621-.498-3.913-1.151-6.475-1.08-2.552.077-4.757 1.061-6.035 2.117-1.306 1.052-1.766 2.047-1.872 1.983ZM90.971 286.886c-.18-.101 1.428-2.458 1.794-5.837.421-3.372-.601-6.036-.402-6.093.073-.03.432.59.74 1.7.313 1.105.52 2.713.317 4.47-.208 1.755-.779 3.274-1.336 4.276-.557 1.008-1.049 1.53-1.113 1.484M44.534 346.065c.983 17.437 6.238 35.172 14.32 53.102h35.148c7.709-17.752 12.6-35.46 13.47-53.102H44.534Z"/><path fill="#FAFAF9" d="M101.776 374.282c0 .183-11.573.33-25.845.33-14.277 0-25.846-.147-25.846-.33 0-.181 11.57-.329 25.846-.329 14.272 0 25.845.148 25.845.329ZM100.99 380.6c0 .183-10.849.329-24.228.329-13.384 0-24.23-.146-24.23-.329 0-.181 10.846-.329 24.23-.329 13.38 0 24.228.148 24.228.329ZM59.422 357.514c.182 0 .33 3.625.33 8.096 0 4.472-.148 8.096-.33 8.096-.182 0-.33-3.624-.33-8.096 0-4.471.148-8.096.33-8.096Z"/><path fill="#FAFAF9" d="M78.253 357.514c.183 0 .33 3.754.33 8.384 0 4.631-.147 8.384-.33 8.384-.181 0-.33-3.753-.33-8.384 0-4.63.149-8.384.33-8.384ZM95.933 357.371c.182 0 .33 3.83.33 8.552 0 4.723-.148 8.551-.33 8.551-.183 0-.33-3.828-.33-8.551 0-4.722.148-8.552.33-8.552"/><path fill="#FAFAF9" d="M106.356 357.514c0 .183-13.573.33-30.312.33-16.746 0-30.316-.147-30.316-.33 0-.182 13.57-.329 30.316-.329 16.74 0 30.312.147 30.312.329Z"/><path fill="#DADBD8" d="M896.174 279.093h-89.181v-92.964h89.181v92.964Z"/><path fill="#F3F2F1" d="M890.135 279.093h-89.18v-92.964h89.18v92.964Z"/><path fill="#DADBD8" d="M800.981 279.065h89.126v-92.908h-89.126v92.908Zm89.182.055h-89.236v-93.019h89.236v93.019Z"/><path fill="#fff" d="M878.146 266.596h-65.204v-67.97h65.204v67.97Z"/><path fill="#DADBD8" d="M812.943 267.047c.05.06-.568.772-1.61 1.871a181.33 181.33 0 0 1-4.144 4.201 183.344 183.344 0 0 1-4.26 4.078c-1.112 1.022-1.829 1.626-1.885 1.57-.056-.057.56-.764 1.601-1.864a182.53 182.53 0 0 1 4.154-4.209 179.395 179.395 0 0 1 4.268-4.085c1.112-1.022 1.824-1.623 1.876-1.562M878.147 266.881c.061-.052.772.568 1.87 1.608a181.198 181.198 0 0 1 4.203 4.145 181.44 181.44 0 0 1 4.078 4.26c1.021 1.112 1.625 1.828 1.569 1.884-.057.056-.764-.558-1.863-1.6a180.306 180.306 0 0 1-4.21-4.154 184.09 184.09 0 0 1-4.086-4.267c-1.021-1.112-1.622-1.825-1.561-1.876ZM877.968 198.807c-.051-.061.568-.772 1.609-1.87 1.041-1.1 2.504-2.587 4.145-4.203a181.245 181.245 0 0 1 4.259-4.077c1.112-1.022 1.828-1.627 1.885-1.57.056.056-.56.764-1.6 1.863a184.11 184.11 0 0 1-4.154 4.211 183.106 183.106 0 0 1-4.268 4.084c-1.112 1.022-1.824 1.622-1.876 1.562M812.764 198.974c-.061.051-.772-.568-1.871-1.609a183.717 183.717 0 0 1-4.201-4.145 179.103 179.103 0 0 1-4.077-4.259c-1.023-1.112-1.627-1.83-1.57-1.886.056-.056.763.559 1.862 1.6 1.1 1.042 2.59 2.51 4.21 4.155a183.861 183.861 0 0 1 4.086 4.268c1.021 1.112 1.622 1.824 1.561 1.876Z"/><path fill="#DADBD8" d="M877.968 266.596a3.465 3.465 0 0 1-.013-.331c-.004-.232-.01-.544-.015-.948l-.029-3.669-.067-13.854-.127-49.168.251.251-65.019.037h-.006l.288-.288-.04 67.97-.248-.248 47.082.126 13.226.064 3.498.03.904.013c.204.005.311.009.315.015.005.004-.092.009-.287.013l-.877.015-3.452.028-13.169.065-47.24.127h-.248v-.248l-.042-67.97v-.289h.296l65.019.037h.252v.252l-.128 49.33c-.028 5.924-.051 10.589-.065 13.796l-.031 3.62c-.005.393-.011.697-.013.921-.006.205-.01.307-.015.303"/><path fill="#DADBD8" d="M856.424 243.489h-21.758v-21.758h21.758v21.758Z"/><path fill="#F3F2F1" d="M578.903 510.312v42.176h129.704v-42.176H578.903Z"/><path fill="#DADBD8" d="M573.461 498.521v11.791h139.682v-11.791H573.461"/><path fill="#DADBD8" d="M643.301 552.488h65.306v-42.176h4.536v-11.791H640.58v10.7l2.721 43.267M597.042 517.113v6.349h26.305v-6.349h-26.305Z"/><path fill="#fff" d="M627.433 544.805h-33.776V531.4h33.776v13.405Z"/><path fill="#F3F2F1" d="M598.857 456.401v42.176h129.704v-42.176H598.857Z"/><path fill="#E7E8E5" d="M593.416 444.609v11.792h139.681v-11.792H593.416"/><path fill="#E7E8E5" d="M663.256 498.577h65.305v-42.176h4.536v-11.792h-72.562v10.7l2.721 43.268"/><path fill="#DADBD8" d="M616.999 463.202v6.348h26.302v-6.348h-26.302Z"/><path fill="#fff" d="M647.388 490.894h-33.775v-13.406h33.775v13.406"/><path fill="#17282F" d="M185.773 207.21c-1.353-4.301-5.617-7.513-10.125-7.626 1.163-3.284-1.085-7.091-4.284-8.472-3.199-1.383-6.961-.76-10.112.728-2.229 1.053-4.297 2.53-6.701 3.073-3.158.713-6.424-.277-9.659-.385-6.595-.219-13.161 3.601-16.23 9.442-1.076 2.048-1.745 4.299-2.932 6.284-.95 1.59-2.213 2.975-3.152 4.571-2.718 4.619-2.264 10.899 1.091 15.079l45.495-10.459c3.707 2.568 9.045 2.491 12.675-.184 3.63-2.675 5.288-7.749 3.934-12.051"/><path fill="#F9A78D" d="m290.48 374.572-43.824-4.344-2.536 22.762 49.489-1.72-3.129-16.698Z"/><path fill="#F9A78D" d="M323.768 387.909c-.575.799-1.573 1.221-2.528.984a2.896 2.896 0 0 1-.584-.217c-1.306-.659-.734-3.44-.734-3.44l-6.421-2.118s-9.445 4.172-13.073 7.354c-3.628 3.181-10.939-1.015-10.939-1.015l-.476-14.475 13.866-9.053s-.849.536.313-1.384c1.161-1.92 4.851-.541 4.851-.541.753-.922 3.301-.892 3.301-.892l10.446 2.908a7.386 7.386 0 0 1 4.803 4.193l3.375 7.835s1.565 5.504.994 6.636c-.861 1.708-2.7 1.006-2.7 1.006s-1.055 3.29-1.959 3.267c-.904-.023-2.535-1.048-2.535-1.048"/><path fill="#F57F62" d="M303.115 388.572c.012.018.254-.114.708-.382.513-.294 1.178-.676 2.008-1.15a74.914 74.914 0 0 1 7.754-3.711l-.154.004 6.406 2.161-.182-.313a7.338 7.338 0 0 0-.131 1.629c.025.555.105 1.16.496 1.703.207.267.532.459.811.54.281.121.596.201.918.201a2.723 2.723 0 0 0 1.783-.649c.127-.101.24-.22.348-.344l.076-.096.039-.048.018-.024.003-.004a22.09 22.09 0 0 0-.409.08l.006.004.014.009.194.118c.262.154.528.298.804.436.276.134.562.262.867.366.153.052.309.1.481.132.159.031.352.067.628-.022.414-.206.596-.498.784-.77.179-.277.334-.562.471-.853.279-.583.507-1.176.717-1.799l-.426.206c.83.285 1.87.238 2.586-.45.326-.321.615-.734.663-1.254.052-.464.012-.886-.032-1.311-.205-1.691-.612-3.344-1.068-5.027l-.005-.02-.01-.021-1.798-4.18-1.142-2.649c-.384-.851-.7-1.79-1.3-2.596a7.17 7.17 0 0 0-2.137-1.964c-.819-.518-1.78-.767-2.625-.994l-9.854-2.712-.041-.012h-.037a9.549 9.549 0 0 0-1.832.186c-.587.136-1.211.293-1.698.828l.388-.058c-1.054-.64-2.357-.852-3.448-.349-1.094.496-1.717 1.476-2.117 2.427l.103-.126-9.55 6.196-2.58 1.72c-.586.4-.888.62-.874.642.014.021.341-.158.953-.518.667-.402 1.549-.936 2.653-1.604 2.352-1.461 5.64-3.504 9.671-6.006l.065-.04.038-.087c.361-.837.962-1.727 1.86-2.104.88-.409 2.02-.212 2.901.331l.217.134.171-.192c.284-.318.831-.505 1.367-.61a8.953 8.953 0 0 1 1.705-.159l-.077-.011 9.837 2.768c.883.24 1.709.456 2.456.93a6.503 6.503 0 0 1 1.931 1.781c.532.705.83 1.587 1.225 2.471l1.14 2.649 1.801 4.177-.014-.041c.449 1.647.857 3.305 1.057 4.913.044.398.077.806.037 1.158-.012.308-.217.61-.456.853-.468.48-1.266.529-1.898.32l-.323-.105-.104.312a15.934 15.934 0 0 1-.677 1.721c-.244.517-.588 1.14-.915 1.315a.639.639 0 0 1-.272-.014 2.641 2.641 0 0 1-.396-.105 6.626 6.626 0 0 1-.795-.332c-.26-.125-.516-.263-.765-.407l-.184-.109-.011-.007-.004-.004c.367-.072-.504.098-.414.082l-.002.001-.016.02-.029.039-.059.076-.273.273a2.127 2.127 0 0 1-1.384.52 1.782 1.782 0 0 1-.717-.157c-.258-.078-.422-.18-.563-.347-.524-.753-.429-1.935-.287-2.867l.038-.242-.219-.071-6.436-2.075-.083-.025-.073.031a64.396 64.396 0 0 0-7.709 3.918c-.866.526-1.52.954-1.952 1.256-.434.304-.652.472-.64.49"/><path fill="#F57F62" d="M309.256 368.037c-.035.071 1.151.757 3.253 1.559 2.098.802 5.144 1.666 8.676 2.024l-.313-.294c.097.552.201 1.135.339 1.72.881 3.882 2.59 7.114 4.08 9.222a22.217 22.217 0 0 0 1.922 2.382c.502.52.803.783.838.752.088-.078-.978-1.264-2.342-3.413-1.357-2.143-2.948-5.321-3.806-9.101a32.839 32.839 0 0 1-.335-1.675l-.048-.269-.265-.026a41.547 41.547 0 0 1-8.591-1.768c-2.116-.673-3.365-1.206-3.408-1.113"/><path fill="#F57F62" d="M318.375 375.834c-.176.007.056 3.052 1.688 6.384 1.608 3.345 3.857 5.409 3.972 5.275.162-.143-1.784-2.355-3.334-5.586-1.578-3.214-2.113-6.113-2.326-6.073Z"/><path fill="#F57F62" d="M288.067 384.848c-.011.017.094.102.308.25.21.151.541.348.986.571.89.44 2.276.981 4.114 1.145 1.818.162 4.124-.069 6.377-1.23a12.24 12.24 0 0 0 5.613-5.975l-.428.188a27.424 27.424 0 0 0 10.55 1.605c.942-.052 1.92-.09 2.854-.464.436-.17.966-.481 1.208-.998.252-.5.251-1.075.07-1.567a1.99 1.99 0 0 0-1.047-1.116l-1.18-.5a109.762 109.762 0 0 0-8.387-3.103 91.088 91.088 0 0 0-5.788-1.674c-1.38-.346-2.153-.494-2.165-.448-.013.05.736.288 2.091.713 1.353.425 3.309 1.047 5.701 1.885 2.392.84 5.215 1.91 8.293 3.23.383.166.771.336 1.163.505.312.144.56.411.683.744.118.331.112.715-.047 1.02-.149.312-.455.501-.856.665-.775.31-1.692.358-2.624.402-.931.04-1.877.032-2.832-.027a27.637 27.637 0 0 1-7.457-1.515l-.304-.106-.126.294c-1.12 2.638-3.148 4.606-5.257 5.723-2.121 1.14-4.312 1.417-6.073 1.32-1.779-.1-3.148-.56-4.05-.927-.902-.376-1.364-.653-1.39-.61"/><path fill="#F9A78D" d="M148.316 318.261c-10.665-.096-19.301-8.94-19.438-19.909l-.829-66.008c-.771-17.727 8.616-32.963 25.866-33.266l1.596.068c16.057.683 28.92 13.928 29.549 30.446.585 15.366 1.211 30.218.781 38.43-.888 17.003-17.705 18.683-17.705 18.683-.037 0-.045 6.344-.036 11.341.02 11.224-8.871 20.314-19.784 20.215Z"/><path fill="#F57F62" d="M168.136 286.814s-10.451.187-21.272-7.462c0 0 4.666 13.009 21.232 12.178l.04-4.716"/><path fill="#17282F" d="M178.959 244.712c-.007 1.285-1.071 2.337-2.376 2.354-1.302.016-2.354-1.009-2.347-2.294.008-1.284 1.071-2.339 2.373-2.356 1.306-.016 2.358 1.012 2.35 2.296M181.242 236.954c-.306.304-2.04-1.133-4.583-1.234-2.537-.139-4.457 1.126-4.719.794-.13-.146.191-.706 1.028-1.28.823-.572 2.211-1.102 3.794-1.029 1.582.077 2.89.733 3.632 1.379.756.65.998 1.234.848 1.37M155.887 244.712c-.007 1.285-1.071 2.337-2.376 2.354-1.302.016-2.354-1.009-2.347-2.294.008-1.284 1.072-2.339 2.375-2.355 1.304-.017 2.356 1.011 2.348 2.295ZM156.302 236.501c-.306.305-2.044-1.133-4.584-1.235-2.537-.137-4.457 1.128-4.72.796-.129-.148.19-.706 1.03-1.28.822-.572 2.21-1.102 3.793-1.029 1.583.077 2.891.733 3.632 1.379.755.649.997 1.234.849 1.369M164.613 256.975c-.006-.149 1.586-.362 4.159-.59.652-.042 1.272-.148 1.399-.599.172-.476-.071-1.207-.354-1.997l-1.714-5.164c-2.376-7.351-4.066-13.383-3.778-13.479.29-.096 2.448 5.784 4.823 13.135.569 1.812 1.115 3.538 1.633 5.19.215.77.603 1.648.231 2.635-.195.492-.685.833-1.105.931-.422.113-.788.105-1.11.11-2.581.034-4.18-.022-4.184-.172M157.453 228.36c-.372.652-2.811-.154-5.811-.348-2.996-.256-5.521.177-5.798-.523-.12-.335.411-.913 1.491-1.409 1.069-.496 2.697-.851 4.495-.718 1.798.138 3.359.731 4.348 1.382.998.65 1.442 1.304 1.275 1.616M181.667 229.273c-.544.58-2.599-.094-5.088-.19-2.486-.173-4.608.275-5.078-.361-.204-.307.143-.893 1.078-1.431.922-.534 2.453-.952 4.162-.86 1.71.094 3.179.672 4.03 1.304.864.634 1.137 1.254.896 1.538"/><path fill="#F9A78D" d="M128.894 244.997c-.277-.137-11.225-3.94-11.331 7.705-.106 11.646 11.284 9.352 11.306 9.019.022-.333.025-16.724.025-16.724"/><path fill="#F57F62" d="M125.45 257.276c-.049-.037-.199.14-.534.295a1.924 1.924 0 0 1-1.474.016c-1.192-.463-2.182-2.426-2.217-4.526a6.856 6.856 0 0 1 .578-2.898c.354-.848.895-1.439 1.498-1.543a.996.996 0 0 1 1.159.567c.149.326.075.558.135.58.031.029.244-.194.158-.675a1.307 1.307 0 0 0-.439-.735c-.27-.229-.668-.349-1.088-.306-.874.053-1.667.872-2.077 1.785a7.055 7.055 0 0 0-.714 3.24c.052 2.347 1.2 4.555 2.832 5.056.795.221 1.461-.019 1.807-.291.353-.284.415-.544.376-.565"/><path fill="#17282F" d="M137.008 215.927c.475-3.028 2.752-5.478 5.656-6.457a11.54 11.54 0 0 1 7.651.095c6.374 2.324 17.261 5.794 20.106 3.572 4.094-3.2 5.074-5.288 5.074-5.288l2.249 2.446c1.833-1.04-3.663-7.146-8.165-9.25-6.804-3.179-17.196-5.142-23.474-3.314-7.556 2.199-13.835 6.062-17.632 13.132-3.797 7.071-5.228 15.311-5.011 23.386.066 2.462-.385 9.525 1.998 10.07 1.842.422 4.207 1.244 4.072 4.795-.049 1.299.31 2.609 1.175 3.556 2.07 2.268 4.605.14 5.772-1.995 2.492-4.56 2.772-10.005 2.993-15.23.157-3.715.305-7.508-.711-11.076 0 0-1.68-4.6-1.825-7.158a6.088 6.088 0 0 1 .072-1.284ZM165.056 263.271c.068.176-.456.615-1.506.844-1.032.234-2.62.172-4.1-.644-1.48-.812-2.392-2.096-2.77-3.078-.392-.996-.333-1.672-.149-1.718.392-.132 1.239 2.207 3.627 3.504 2.377 1.324 4.784.699 4.898 1.092"/><path fill="#33535F" d="m176.824 418.598-54.155-11.91-34.76-86.255s-46.515 10.317-54.193 36.305c-6.64 22.471-20.343 121.77 10.81 182.987 8.01 15.742 24.334 25.513 41.999 25.513h236.962c29.914 0 55.069-22.481 58.389-52.212 1.34-11.988 2.269-23.374 2.081-30.78l-38.046-29.208-169.087-34.44Z"/><path fill="#A7A9A8" d="m383.732 482.073-37.821-29.035-23.411-4.769 16.757-6.98 44.82 31.899-.345 8.885Z"/><path fill="#20353D" d="M382.928 502.761c-24.273-12.783-44.572-32.367-61.244-54.152l.816-.34 23.411 4.769 37.821 29.035-.804 20.688"/><path fill="#F3F2F1" d="M142.787 303.662c0 1.568 12.316 6.644 17.885 4.42 8.473-3.384 7.428-10.036 7.428-10.036l4.695 4.963 47.166 71.86 35.058 23.139-56.116 17.77-58.815-67.576 2.699-44.54"/><path fill="#33BFBF" d="m127.921 279.54-1.24 2.315-5.594 10.443-23.3 14.856 47.904 56.938 21.872 51.686 52.398 16.403s-24.931-38.344-32.678-57.936c-7.745-19.593-8.54-18.685-15.604-33.039-6.764-13.741-12.805-31.138-12.805-31.138l-30.953-30.528ZM240.161 382.09l10.275 9.591 2.908 5.924-38.208-17.779-27.584-38.62s-9.832-21.802-13.21-29.612c-3.553-8.217-6.206-12.865-6.206-12.865l-.039-6.489 13.942 12.557 11.621 3.464 19.412 30.684 27.089 43.145Z"/><path fill="#33BFBF" d="M228.385 345.981s-4.637-9.9-8.424-18.124c-8.534-18.536-28.653-20.297-28.653-20.297l22.236 61.678 27.251 19.319s7.748 2.705 8.72 0c0 0 5.676-20.447 5.504-20.531-.172-.082-19.39-5.824-19.39-5.824l-7.74-17.28"/><path fill="#17282F" d="m269.363 326.724-26.468 44.1 27.717-.822 24.441-40.857c.939-1.569-.19-3.564-2.02-3.564h-21.652c-.826 0-1.593.435-2.018 1.143"/><path fill="#F9A78D" d="m167.562 376.592 66.246-7.886 11.142-19.498 8.719-4.795a4.346 4.346 0 0 1 4.656.297l.821.599 6.47-.815a5.154 5.154 0 0 1 3.184.632l4.585 2.611a2.197 2.197 0 0 1-1.504 4.057l-4.458-.82-6.819 2.224s4.401.467 4.958 3.81c.558 3.342-1.671 3.409-1.671 3.409s4.63 2.695 1.393 6.619c0 0 3.858 2.568-.465 7.45-2.928 3.307-24.025 14.071-24.025 14.071l-73.232 27.221v-39.186Z"/><path fill="#F57F62" d="M265.111 367.105c-.006-.028.497.001 1.077.602.555.578 1.097 1.811.705 3.271-.37 1.451-1.54 2.793-2.85 4.075a34.753 34.753 0 0 1-4.654 3.841c-3.529 2.435-7.025 4.113-9.556 5.275-2.541 1.148-4.146 1.774-4.185 1.693-.043-.092 1.493-.877 3.972-2.136 2.469-1.269 5.9-3.007 9.373-5.401a38.301 38.301 0 0 0 4.603-3.731c1.328-1.247 2.441-2.476 2.825-3.752.404-1.26 0-2.391-.438-2.96-.458-.592-.904-.717-.872-.777M258.891 345.481c.049.184-1.431.747-3.308 1.255-1.878.509-3.44.77-3.491.586-.049-.185 1.432-.748 3.309-1.256 1.876-.509 3.439-.77 3.49-.585ZM267.423 350.974c.061.183-1.999 1.031-4.599 1.895-2.601.865-4.758 1.418-4.82 1.236-.06-.182 1.999-1.03 4.6-1.895 2.602-.864 4.759-1.417 4.819-1.236ZM259.48 359.815c-.196-.021-.288-.601-.516-1.245-.215-.649-.496-1.164-.353-1.301.126-.136.736.266 1.01 1.077.279.808.044 1.5-.141 1.469ZM261.748 367.465c-.196-.044-.122-.99-.4-2.08-.258-1.096-.762-1.9-.61-2.03.127-.134.975.586 1.284 1.864.318 1.275-.101 2.306-.274 2.246"/><path fill="#33BFBF" d="M99.648 305.968c-2.202 1.34-20.937 14.125-18.203 35.084 2.734 20.96 44.198 68.346 52.855 69.258l33.263 5.468v-39.186l-15.948-.911-20.96-41.008-31.007-28.705"/><path fill="#17282F" d="M167.562 374.693c0 .036-.414.076-1.192.117l-3.357.128-11.915.263-.168.004-.102-.139c-2.503-3.362-5.376-7.225-8.426-11.324a1878.815 1878.815 0 0 1-12.77-17.454l-3.802-5.342c-.883-1.27-1.353-1.988-1.311-2.018.042-.031.59.628 1.546 1.845l3.993 5.2a1853.898 1853.898 0 0 1 12.947 17.324l8.356 11.375-.269-.135c4.814.003 8.893.007 11.916.008 1.356.024 2.472.043 3.361.057.776.026 1.192.055 1.193.091ZM159.472 315.254c-.034.015-.26-.399-.65-1.188-.43-.896-.976-2.039-1.644-3.436l.354.036c-.998 1.436-2.109 3.289-3.209 5.532-1.104 2.233-2.353 4.825-4.169 7.341l-.268.371-.29-.356c-2.152-2.653-4.616-5.484-7.268-8.375-5.808-6.316-11.353-11.772-15.313-15.773l-4.674-4.757c-1.089-1.138-1.674-1.784-1.638-1.822.037-.036.691.54 1.843 1.614l4.84 4.588c4.056 3.904 9.666 9.306 15.494 15.644 2.662 2.9 5.123 5.756 7.262 8.442l-.556.015c1.804-2.451 3.062-4.969 4.217-7.199 1.151-2.234 2.333-4.094 3.396-5.505l.219-.291.136.327 1.466 3.515c.328.817.487 1.261.452 1.277M182.163 305.23c.058-.026.474.668 1.005 1.972.541 1.299 1.104 3.23 1.741 5.514l.45 1.616-1.032-1.332c-1.272-1.643-2.984-3.388-4.891-5.152-1.538-1.422-3.053-2.73-4.424-3.923l.565-.217c-.344 2.63-.133 4.949-.207 6.581-.038 1.639-.254 2.584-.323 2.571-.084-.011-.014-.952-.096-2.567-.042-1.613-.356-3.916-.058-6.676l.068-.632.498.415c1.397 1.165 2.933 2.462 4.486 3.897 1.926 1.781 3.645 3.58 4.909 5.307l-.582.284c-.578-2.314-1.041-4.235-1.471-5.555-.416-1.323-.709-2.071-.638-2.103M230.329 369.121c-.037.035-.597-.487-1.577-1.459l-4.099-4.165c-1.714-1.8-3.764-3.82-5.998-6.311-1.027-1.31-1.931-2.753-3.003-4.157-1.104-1.449-1.945-3.116-2.768-4.824-1.592-3.447-2.785-6.845-3.868-9.925-1.075-3.084-2.023-5.863-2.9-8.163-.879-2.299-1.661-4.129-2.28-5.356-.616-1.227-1.007-1.884-.952-1.92.021-.015.141.135.351.435.196.305.534.734.858 1.346.704 1.198 1.568 3.014 2.515 5.3.947 2.29 1.949 5.059 3.059 8.127 1.117 3.063 2.326 6.441 3.896 9.839.808 1.678 1.632 3.317 2.678 4.702 1.075 1.427 1.984 2.902 2.958 4.171 2.092 2.388 4.192 4.545 5.833 6.365l3.931 4.335c.916 1.035 1.405 1.624 1.366 1.66M249.567 391.25l125.76-3.536c1.99-.049 3.976.298 5.808 1.078 4.572 1.949 12.798 6.945 18.437 18.925 8.181 17.387 46.305 90.629 46.305 90.629l-38.56 19.76-47.29-87.724-145.754-12.378 1.684-11.651 33.61-15.103"/><path fill="#DADBD8" d="m395.865 502.688 20.099 34.489 1.339 8.719c.817 5.333 5.805 8.993 11.138 8.174l61.16-9.386c3.062-.47 5.066-3.723 3.778-6.539-.491-1.075-1.379-1.979-2.914-2.371-5.116-1.305-44.582-15.793-44.582-15.793l-16.462-32.964-33.556 15.671Z"/><path fill="#17282F" d="M412.705 510.664c-.154.114-2.176-2.367-4.514-5.54-2.339-3.175-4.11-5.84-3.955-5.954.155-.113 2.175 2.367 4.513 5.542 2.339 3.173 4.11 5.838 3.956 5.952M424.705 505.841c-.142.112-2.218-2.371-4.217-5.812-2.008-3.438-3.143-6.468-2.975-6.538.186-.081 1.591 2.791 3.575 6.188 1.975 3.401 3.779 6.042 3.617 6.162M433.092 552.967c-.13.034-.455-1.197-1.371-2.988-.903-1.788-2.505-4.121-4.907-6.006-2.404-1.887-5.05-2.888-7-3.34-1.96-.465-3.23-.488-3.228-.623-.006-.089 1.283-.273 3.342.059 2.042.32 4.861 1.281 7.388 3.264 2.526 1.983 4.128 4.492 4.925 6.4.812 1.922.939 3.217.851 3.234M474.303 547.032c-.08.036-.584-.784-.974-2.286-.386-1.488-.505-3.74.296-6.005.791-2.265 2.15-3.974 3.184-5.088 1.059-1.108 1.828-1.662 1.896-1.591.087.09-.537.789-1.46 1.964-.901 1.182-2.117 2.867-2.852 4.98-.745 2.111-.726 4.175-.5 5.628.23 1.46.536 2.35.41 2.398"/><path fill="#17282F" d="M211.049 408.398s129.784-13.005 136.088-12.485c11.64.96 33.103 19.316 71.191 44.885 31.597 21.212 54.645 45.934 54.645 45.934l-12.17 27.792s-85.356-31.112-98.739-42.295c-11.123-9.296-31.407-22.532-31.407-22.532l-50.062.505-37.203 3.282a54.706 54.706 0 0 1-48.239-21.235l-14.445-18.865 30.341-4.986"/><path fill="#33535F" d="M330.053 449.306s.209.124.604.391l1.748 1.203c1.548 1.088 3.808 2.673 6.735 4.727 5.846 4.176 14.441 10.173 24.969 18.143.661.488 1.291 1.067 2.001 1.5l2.15 1.34c1.541.774 3.09 1.617 4.725 2.386l5.021 2.333 5.28 2.332c7.203 3.119 14.998 6.38 23.316 9.754 16.632 6.761 35.304 14.111 55.454 21.853l-.448.2c3.52-8.918 7.23-18.319 11.036-27.956l.078.398-15.144-15.445.022.02c-3.552-3.082-7.368-6.359-11.27-9.595-24.898-20.728-50.005-38.454-72.741-53.362l-.017-.012-.023-.02c-3.469-2.988-7.207-5.563-11.017-7.747-3.818-2.177-7.758-3.96-11.776-5.113-1.007-.274-2.022-.492-3.023-.738l-3.032-.465-3.019-.16c-1.012-.003-2.016-.004-3.013-.005l-11.641-.018-39.191-.078-25.435-.096-6.74-.052-1.732-.028c-.389-.01-.586-.028-.586-.028s.197-.019.586-.028l1.732-.028 6.74-.052 25.434-.096 39.19-.079 11.64-.016c.999-.001 2.003-.003 3.015-.003l3.081.155 3.088.467c1.018.246 2.048.466 3.072.741 4.08 1.163 8.067 2.957 11.926 5.148 3.856 2.203 7.608 4.775 11.144 7.809l-.042-.03c22.775 14.88 47.919 32.602 72.847 53.354 3.905 3.24 7.725 6.522 11.281 9.607l.011.009.009.011 15.139 15.452.169.172-.089.227-11.059 27.945-.129.324-.32-.123c-20.147-7.765-38.808-15.15-55.429-21.954a1058.96 1058.96 0 0 1-23.3-9.83l-5.278-2.353-5.024-2.359c-1.636-.777-3.194-1.633-4.738-2.417l-2.196-1.385c-.73-.451-1.338-1.019-1.999-1.512-10.477-8.01-19.039-14.067-24.84-18.302L332.336 451l-1.714-1.252a12.983 12.983 0 0 1-.569-.442"/><path fill="#DADBD8" d="m433.235 507.453 35.963 14.149 5.989 6.475c3.665 3.961 9.847 4.202 13.808.537l45.421-42.018c2.272-2.103 2.112-5.922-.532-7.534-1.009-.614-2.25-.866-3.741-.333-4.969 1.783-45.783 11.876-45.783 11.876l-27.34-21.807-23.785 38.655"/><path fill="#17282F" d="M433.235 507.453s.119-.225.385-.676l1.204-2.005 4.68-7.729 17.294-28.382.153-.252.232.185 27.376 21.761-.275-.061c7.744-1.95 15.89-4.003 24.34-6.133 4.219-1.094 8.514-2.21 12.872-3.342 2.175-.583 4.37-1.164 6.555-1.804.552-.152 1.088-.327 1.627-.5.522-.172 1.145-.386 1.76-.415 1.256-.09 2.512.41 3.409 1.273 1.868 1.725 1.94 4.768.483 6.703-.348.508-.82.894-1.216 1.27l-1.24 1.148-2.468 2.282-9.682 8.949-18.306 16.908-8.526 7.867-4.084 3.767c-.653.615-1.372 1.245-2.154 1.73-.796.461-1.626.876-2.507 1.101-3.505 1.022-7.339-.035-9.723-2.416-2.282-2.388-4.362-4.712-6.406-6.913l.09.062-26.344-10.514-7.101-2.857c-.783-.32-1.391-.568-1.828-.745-.408-.17-.6-.262-.6-.262s.237.078.667.238l1.89.717c1.675.644 4.096 1.576 7.203 2.769 6.233 2.419 15.208 5.899 26.292 10.198l.051.019.04.043c2.045 2.179 4.168 4.526 6.417 6.86 2.265 2.243 5.892 3.223 9.192 2.249.832-.214 1.609-.609 2.359-1.046.741-.467 1.389-1.035 2.06-1.669l4.072-3.779 8.505-7.888 18.279-16.937 9.676-8.959 2.465-2.283c.787-.772 1.748-1.509 2.365-2.316 1.272-1.681 1.191-4.341-.398-5.792-.77-.738-1.838-1.161-2.887-1.084-.543.031-1.017.192-1.58.377-.553.179-1.105.358-1.656.51-2.2.644-4.395 1.223-6.572 1.806l-12.883 3.334-24.354 6.095-.154.038-.122-.098-27.304-21.852.385-.067c-7.325 11.788-13.295 21.393-17.448 28.079l-4.825 7.717-1.275 2.023c-.292.457-.46.698-.46.698"/><path fill="#17282F" d="M492.229 525.096c-.088.101-1.046-.736-2.809-1.708-1.748-.976-4.381-2.012-7.428-2.23-3.047-.217-5.8.435-7.669 1.152-1.884.712-2.951 1.404-3.023 1.292-.055-.07.909-.945 2.801-1.822 1.872-.879 4.744-1.66 7.95-1.431 3.202.228 5.934 1.409 7.662 2.545 1.75 1.138 2.58 2.139 2.516 2.202M523.053 497.106c-.046.074-.922-.322-2.086-1.349-1.154-1.014-2.514-2.814-3.118-5.141-.613-2.32-.444-4.496-.21-5.999.258-1.511.585-2.4.681-2.379.123.026-.004.955-.111 2.444-.085 1.483-.148 3.562.426 5.723.565 2.167 1.734 3.867 2.737 4.944 1.007 1.082 1.76 1.647 1.681 1.757"/><path fill="#33535F" d="M307.983 449.32c-2.784-13.208-8.478-26.724-19.74-34.161-8.547-5.644-19.122-7.041-29.287-8.291l-212.659-26.15c-1.902 33.515 12.438 75.226 27.072 105.437 2.27 4.688 4.9 9.483 9.25 12.35 5.301 3.493 12.096 3.463 18.443 3.3 71.533-1.821 143.102-4.862 214.229-12.693-4.002-12.892-4.524-26.584-7.308-39.792"/><path fill="#17282F" d="M124.519 390.337c-.006.051-.898-.008-2.504-.161l-6.796-.733c-5.733-.66-13.645-1.64-22.367-2.846-8.727-1.204-16.61-2.41-22.297-3.406-2.842-.504-5.14-.924-6.718-1.271-1.58-.337-2.448-.548-2.438-.599.01-.05.897.063 2.49.311l6.751 1.036c5.703.86 13.592 1.984 22.314 3.187l22.332 3.062 6.765.97c1.595.242 2.475.398 2.468.45M125.616 565.238c-.012.005-.087-.133-.221-.408l-.581-1.228-2.165-4.756-1.549-3.446c-.539-1.271-1.062-2.678-1.656-4.176-1.15-3.012-2.592-6.397-3.81-10.271l-2.025-6.043c-.695-2.104-1.261-4.343-1.931-6.633-1.397-4.57-2.483-9.556-3.71-14.784-2.19-10.511-4-22.199-4.907-34.564-.806-12.378-.626-24.207.095-34.92.495-5.347.882-10.438 1.637-15.156.349-2.362.602-4.656.999-6.836l1.174-6.264c.672-4.007 1.634-7.556 2.358-10.698.383-1.566.707-3.032 1.066-4.364.385-1.322.74-2.532 1.059-3.626l1.491-5.008.405-1.298c.096-.29.15-.437.163-.433.012.004-.018.159-.09.456l-.334 1.317-1.353 5.043-.996 3.639c-.337 1.336-.64 2.804-1.003 4.372-.685 3.145-1.608 6.696-2.246 10.698-.357 1.995-.733 4.084-1.124 6.259-.381 2.177-.618 4.468-.953 6.825-.726 4.711-1.089 9.79-1.564 15.123-.681 10.687-.84 22.479-.036 34.819.905 12.328 2.687 23.982 4.835 34.472 1.204 5.217 2.264 10.196 3.632 14.761.657 2.29 1.207 4.525 1.885 6.629l1.975 6.043c1.183 3.877 2.587 7.267 3.698 10.288.575 1.504 1.077 2.916 1.596 4.194l1.487 3.466 2.035 4.809.512 1.259c.112.285.164.435.152.44Z"/><path fill="#17282F" d="M123.366 497.689c-.009.207-3.757.2-8.37-.015-4.614-.214-8.345-.555-8.336-.762.01-.207 3.757-.2 8.371.014 4.613.215 8.345.556 8.335.763M121.424 507.397c-.026.187-4.014-.38-8.587-2.244-4.582-1.841-7.841-4.208-7.73-4.36.119-.192 3.507 1.856 8.012 3.665 4.493 1.833 8.352 2.719 8.305 2.939ZM102.803 440.648c.089.167-2.296 1.386-5.536 1.686-3.24.323-5.812-.419-5.757-.6.039-.221 2.577.167 5.685-.146 3.109-.285 5.528-1.15 5.608-.94ZM107.048 437.441c.055.18-2.866.622-6.101-.769-3.25-1.357-4.965-3.762-4.798-3.848.165-.163 2.028 1.886 5.09 3.157 3.042 1.316 5.812 1.229 5.809 1.46ZM181.921 209.023c-.938-2.802-3.522-4.857-6.365-5.665-2.843-.807-5.905-.496-8.744.329l-27.625 6.32c3.949 2.632 12.226 5.174 16.945 5.675 6.895.732 11.749.797 15.861-1.569.843 2.832 4.683 4.086 7.259 2.638 2.577-1.446 3.608-4.925 2.669-7.728ZM457.928 498.832c-.048.177-3.808-.713-8.259-2.391-4.457-1.669-7.872-3.474-7.792-3.64.086-.181 3.611 1.332 8.036 2.99 4.42 1.666 8.07 2.849 8.015 3.041M464.02 487.017c-.1.172-3.193-1.476-7.083-3.341-3.888-1.875-7.106-3.261-7.034-3.446.064-.173 3.417.931 7.336 2.819 3.92 1.88 6.877 3.811 6.781 3.968"/><path fill="#DADBD8" d="m243.958 403.353 55.703.681 67.247-13.325a5.256 5.256 0 0 0 4.174-4.371l9.14-60.557c.452-2.989-2.14-5.551-5.124-5.065l-68.742 11.182a4.458 4.458 0 0 0-3.708 3.85l-7.67 61.584-50.93-.246a3.136 3.136 0 0 0-3.15 3.134 3.135 3.135 0 0 0 3.06 3.133"/><path fill="#17282F" d="M243.959 403.352s-.378.066-1.058-.175a3.166 3.166 0 0 1-2.008-2.312 3.22 3.22 0 0 1 2.679-3.848c2.045-.079 4.356-.021 6.984-.037l44.424.102-.248.219 7.661-61.98a4.793 4.793 0 0 1 2.936-3.472c.763-.305 1.522-.336 2.243-.479l2.212-.361 8.973-1.464 18.496-3.017c6.28-1.024 12.668-2.064 19.15-3.122 3.24-.526 6.504-1.058 9.789-1.593l4.944-.804 2.483-.404c.821-.111 1.648-.344 2.585-.28 1.916.14 3.641 1.525 4.193 3.351.302.888.242 1.924.079 2.753l-.391 2.592-1.552 10.272-3.034 20.064-2.928 19.333-.712 4.707c-.119.78-.238 1.557-.355 2.333-.093.752-.256 1.623-.644 2.35a5.564 5.564 0 0 1-3.777 2.917l-4.51.895-62.865 12.377-.025.005h-.026l-40.825-.608-11.037-.198-2.863-.07c-.644-.018-.973-.046-.973-.046s.33-.019.974-.022c.666 0 1.619 0 2.864.002l11.039.07 40.828.391-.049.005c17.657-3.521 38.989-7.776 62.834-12.53l4.495-.899a4.92 4.92 0 0 0 3.337-2.584c.344-.664.475-1.353.578-2.153l.35-2.332.708-4.708 2.91-19.336c.99-6.574 1.998-13.268 3.024-20.067l1.548-10.272.392-2.591c.164-.882.196-1.648-.056-2.442-.47-1.559-1.952-2.748-3.586-2.867-.754-.061-1.581.156-2.418.273l-2.484.403-4.943.804-9.791 1.592-19.15 3.111-18.499 3c-3.023.49-6.015.976-8.975 1.454l-2.213.359c-.736.141-1.491.181-2.111.439a4.146 4.146 0 0 0-2.542 3l-7.796 61.91-.028.22-.222-.001-44.422-.325c-2.615-.008-4.97-.083-6.954-.03a3.034 3.034 0 0 0-2.184 1.44 3.093 3.093 0 0 0-.384 2.171 3.11 3.11 0 0 0 1.895 2.273c.655.258 1.036.211 1.031.242"/><path fill="#17282F" d="M308.591 333.827c.19.024-1.655 16.104-4.12 35.912-2.467 19.814-4.62 35.853-4.81 35.829-.19-.024 1.654-16.101 4.121-35.916 2.465-19.808 4.618-35.849 4.809-35.825"/><path fill="#fff" d="M338.484 358.834c-1.4 2.92-.632 6.199 1.715 7.324 2.348 1.126 5.385-.328 6.785-3.248 1.4-2.918.632-6.198-1.716-7.324-2.347-1.125-5.384.33-6.784 3.248Z"/><path fill="#072448" d="M847.125 333.674c.012.004-.036.174-.138.502l-.475 1.448c-.428 1.269-1.049 3.145-1.908 5.541-1.685 4.801-4.215 11.72-7.569 20.18-6.74 16.883-16.711 40.083-30.854 64.009-3.378 6.054-6.488 12.078-8.826 18.171-2.37 6.077-3.862 12.227-4.711 18.157-1.665 11.897-.993 22.787-.057 31.803.976 9.036 2.28 16.287 3.12 21.301l.998 5.772c.104.634.187 1.131.247 1.503.052.34.073.515.061.518-.012.002-.056-.169-.13-.505l-.315-1.49-1.128-5.75c-.921-5.002-2.3-12.245-3.341-21.296-1.002-9.029-1.73-19.962-.088-31.945.837-5.973 2.329-12.184 4.709-18.312 2.347-6.143 5.469-12.2 8.855-18.264 14.133-23.912 24.148-47.023 31.005-63.855a707.034 707.034 0 0 0 7.771-20.089l2.029-5.495.54-1.425c.125-.32.195-.483.205-.479"/><path fill="#072448" d="M833.5 415c.02.013-.128.28-.429.775l-1.343 2.149c-1.175 1.86-2.919 4.523-5.085 7.804-4.318 6.573-10.482 15.525-16.672 25.787a215.013 215.013 0 0 0-8.103 14.813c-2.311 4.648-4.129 8.957-5.585 12.603-1.422 3.658-2.512 6.646-3.187 8.737l-.824 2.393c-.197.546-.311.828-.333.822-.024-.007.045-.303.198-.862.18-.626.255-1.435.543-2.436.597-2.118 1.62-5.138 2.985-8.832 1.402-3.678 3.34-8.024 5.628-12.706 2.279-4.685 4.998-9.73 8.082-14.888 6.209-10.291 12.441-19.203 16.861-25.704 2.188-3.191 3.975-5.798 5.267-7.68l1.452-2.076c.337-.471.525-.711.545-.699Z"/><path fill="#63D5BE" d="M846.991 333.674c.326-3.257-3.188-6.498-6.258-7.638-3.069-1.14-6.488-.772-9.684-.063-18.533 4.111-33.849 20.101-37.157 38.795a239.213 239.213 0 0 1 26.365-11.147l-1.522.432c8.7-1.693 16.53-7.413 20.79-15.185.82-1.496 1.54-3.098 2.784-4.266 1.244-1.169 3.208-1.789 4.682-.928M847.012 333.642c8.441-5.768 19.116-8.355 29.18-6.551 10.064 1.803 19.34 8.12 24.244 17.091 4.904 8.972 5.14 20.46.152 29.385-4.719-9.802-9.768-20.009-18.552-26.428-2.056-1.502-4.383-2.874-5.54-5.144-1.343-2.632-.794-5.882-1.942-8.605-1.414-3.353-5.312-4.327-8.946-4.517-3.635-.19-14.17 3.156-18.596 4.769"/><path fill="#63D5BE" d="M846.784 333.481c8.726-2.587 18.592 1.679 24.531 8.215s8.956 15.308 9.979 24.078c1.022 8.772.198 17.643-.69 26.43a109.904 109.904 0 0 1-15.026-33.316c-1.403-5.356-2.426-10.887-4.948-15.815-2.522-4.929-8.367-8.793-13.846-9.592Z"/><path fill="#63D5BE" d="M846.493 333.674c6.972-3.229 10.902-10.516 11.799-18.146.896-7.631-2.419-15.624-8.452-20.382-6.943 6.326-9.616 16.928-6.504 25.79 1.475 4.197 4.157 8.404 3.157 12.738Z"/><path fill="#072448" d="M790.997 475c-.021.008-.161-.341-.41-1.012-.258-.667-.579-1.672-1.078-2.934-.948-2.54-2.431-6.174-4.451-10.571-4.035-8.798-10.385-20.578-18.364-32.94-7.973-12.369-15.971-23.026-22.31-30.218-3.17-3.594-5.912-6.34-7.984-8.009a22.418 22.418 0 0 0-2.477-1.781c-.612-.327-.932-.511-.923-.533.008-.022.345.12.984.414.62.328 1.507.875 2.569 1.693 2.138 1.62 4.942 4.329 8.167 7.894 6.45 7.136 14.523 17.773 22.514 30.169 7.994 12.387 14.299 24.236 18.238 33.109 1.973 4.436 3.395 8.107 4.274 10.682.464 1.279.746 2.3.965 2.981.208.686.307 1.049.286 1.056ZM815.849 554.749h-47.648l-7.43-55.164h63.946l-8.868 55.164Z"/><path fill="#63D5BE" d="M860.503 433.372c-4.812-10.33-17.179-17.074-28.536-16.15 2.529 1.018 4.089 3.642 4.721 6.294.632 2.652.517 5.416.731 8.133 1.025 13.047 9.42 24.18 17.481 34.488 5.665 7.244 11.363 14.524 18.137 20.741-.813-18.559-1.981-38.218-12.534-53.506"/><path fill="#63D5BE" d="M831.967 417.367c7.208-5.554 16.521-7.856 25.621-7.949 9.1-.093 18.089 1.869 26.912 4.103 5.299 1.341 10.68 2.832 15.211 5.89 4.53 3.058 8.137 7.99 8.228 13.455-7.482-8.224-19.536-9.811-30.212-12.912-7.236-2.101-14.216-5.107-21.592-6.644-7.376-1.537-17.646.285-24.168 4.057M833.203 415.895c-3.166-3.314-1.418-11.075 1.337-14.738 2.756-3.661 7.127-5.714 11.444-7.25a79.97 79.97 0 0 1 17.588-4.09c-.608 3.766-2.817 7.123-5.56 9.774-2.743 2.649-6.013 4.677-9.257 6.684l-15.552 9.62M803.541 411.44c-9.033 3.959-16.032 11.35-22.769 18.553a100.615 100.615 0 0 0 28.411-11.766c3.497-2.128 6.965-4.512 10.96-5.403 3.996-.892 8.486.884 11.824 3.649-5.655-8.328-19.392-8.992-28.426-5.033M799.297 470.517c5.05-11.595 2.922-25.659 9.335-36.559 4.91-8.345 13.983-13.3 23.004-16.82 2.093 6.286 1.1 13.299-1.556 19.367-2.657 6.069-6.865 11.324-11.311 16.236-6.141 6.79-12.82 13.068-19.49 19.339l.018-1.563"/><path fill="#072448" d="M827.658 512h-71.264v-12.415h71.264V512Z"/><path fill="#17282F" d="M825.282 512.395c0 .193-15.423.347-34.443.347-19.027 0-34.445-.154-34.445-.347 0-.192 15.418-.347 34.445-.347 19.02 0 34.443.155 34.443.347Z"/><path fill="#63D5BE" d="M850.272 334.162c-2.496-4.328-5.013-8.685-8.284-12.461-3.272-3.776-7.383-6.979-12.176-8.386-6.423-1.884-13.32-.389-19.735 1.519a157.202 157.202 0 0 0-21.905 8.344c9.257 3.524 19.745 3.711 29.121.517 4.903-1.67 9.666-1.453 14.811-.868 6.265.714 14.108 6.508 18.168 11.335ZM680.002 407.685c-11.234 14.293-14.967 33.382-13.711 51.517 6.58-24.032 20.691-45.943 39.848-61.875 7.323-6.089 16.687-10.908 25.763-10.908-18.676-1.664-40.314 6.524-51.9 21.266Z"/><path fill="#63D5BE" d="M706.076 378.981c-6.261.459-11.991 3.633-17.165 7.187-7.928 5.442-15.363 12.306-18.82 21.278 13.813-16.602 36.349-25.5 57.778-22.809-6.825-3.396-14.19-6.213-21.793-5.656M723.628 357.514c-3.627 2.517-6.403 6.653-6.215 11.064.128 3.024 1.618 5.863 3.6 8.149 1.983 2.287 5.15 5.463 7.591 7.252 2.297-10.186 5.067-20.829 7.364-31.016-4.327.88-8.712 2.035-12.34 4.551M744.841 356.535c-4.898 3.143-9.27 7.364-11.653 12.675-2.383 5.311-3.379 12.013-.371 16.996 8.551-12.696 17.915-25.423 27.786-37.123-5.411 2.146-10.862 4.31-15.762 7.452M762.844 374.037c-11.241-.904-22.792 4.156-29.747 13.033 4.623-2.385 10.814-3.69 15.972-3.022a382.923 382.923 0 0 1 41.053 7.612c-5.445-9.875-16.038-16.719-27.278-17.623"/><path fill="#63D5BE" d="M734.396 386.206c-10.579.582-19.838 8.726-23.531 18.655-3.692 9.931-2.431 21.203 1.564 31.015 3.995 9.812 10.527 18.372 17.449 26.393 3.475-11.944 6.964-23.949 8.492-36.295 1.53-12.344.37-28.112-3.974-39.768"/><path fill="#63D5BE" d="M666.291 459.202a95.87 95.87 0 0 1-.232-6.726c.008-16.034 4.092-32.257 13.942-44.791 10.595-13.479 29.59-21.479 47.042-21.479 1.636 0 3.258.071 4.858.213-9.076 0-18.44 4.819-25.762 10.908-19.158 15.932-33.268 37.843-39.848 61.875Z"/><path fill="#63D5BE" d="M670.091 407.446c3.457-8.972 10.892-15.836 18.82-21.278 5.174-3.554 10.904-6.728 17.165-7.187.652-.048 1.3-.071 1.948-.071 6.912 0 13.605 2.622 19.845 5.727a61.28 61.28 0 0 0-7.644-.475c-19.001 0-37.958 8.648-50.134 23.284M728.604 383.979c-2.442-1.789-5.608-4.965-7.591-7.252-1.982-2.286-3.472-5.125-3.6-8.149a9.438 9.438 0 0 1-.009-.412c-.004-4.256 2.711-8.213 6.224-10.652 3.628-2.516 8.013-3.671 12.34-4.551-2.298 10.187-5.067 20.83-7.364 31.016M732.817 386.206c-1.316-2.18-1.865-4.689-1.868-7.267-.002-3.314.899-6.741 2.239-9.729 2.383-5.311 6.755-9.532 11.653-12.675 4.9-3.142 10.351-5.306 15.762-7.452-9.871 11.7-19.235 24.427-27.786 37.123M790.123 391.66c-.967-.235-1.935-.466-2.903-.692l-.188-.044a383.151 383.151 0 0 0-37.963-6.876 21.688 21.688 0 0 0-2.81-.175c-3.959 0-8.222.961-11.787 2.54l-.076-.207c-.212.012-.424.027-.635.044 6.455-7.704 16.443-12.317 26.487-12.317.865 0 1.732.035 2.596.104 11.24.904 21.833 7.748 27.279 17.623Z"/><path fill="#63D5BE" d="M729.879 462.269c-.442-.511-.88-1.024-1.318-1.538-4.312-5.085-8.416-10.399-11.78-16.122-1.649-2.806-3.121-5.711-4.352-8.733-2.356-5.788-3.761-12.083-3.76-18.312 0-4.331.682-8.63 2.196-12.703 3.62-9.731 12.583-17.747 22.896-18.611.211-.017.423-.032.635-.044 3.139 8.424 4.616 18.994 4.616 28.868 0 3.79-.217 7.478-.641 10.9-1.048 8.467-3.019 16.774-5.274 25.01a518.891 518.891 0 0 1-1.521 5.417c-.56 1.959-1.129 3.913-1.697 5.868M873.037 486.878c-6.774-6.217-12.472-13.497-18.137-20.741-8.061-10.308-16.456-21.441-17.481-34.488-.214-2.717-.099-5.481-.731-8.133-.62-2.6-2.132-5.174-4.575-6.232l.148-.083c.599-.043 1.2-.063 1.803-.063 10.747 0 21.921 6.538 26.439 16.234 10.553 15.288 11.721 34.947 12.534 53.506M832.089 417.274l-.038-.017-.084-.035.212-.016-.09.068Z"/><path fill="#63D5BE" d="M907.939 432.866c-7.482-8.224-19.536-9.811-30.212-12.912-7.236-2.101-14.216-5.107-21.592-6.644-1.778-.371-3.723-.545-5.743-.545-6.24 0-13.195 1.672-18.131 4.436-.049.026-.098.054-.148.082l-.146.084c7.208-5.554 16.521-7.856 25.621-7.949l.624-.003c8.888 0 17.667 1.923 26.288 4.106 5.299 1.341 10.68 2.832 15.211 5.89 4.53 3.058 8.137 7.99 8.228 13.455M833.202 415.895c-.058-.063-.117-.127-.173-.192a6.125 6.125 0 0 1-.144-.176c-.969-1.243-1.376-2.975-1.377-4.85-.002-3.389 1.321-7.245 3.032-9.52 2.756-3.661 7.126-5.714 11.444-7.25a79.957 79.957 0 0 1 17.588-4.09c-.608 3.766-2.818 7.123-5.56 9.774-2.743 2.649-6.014 4.677-9.258 6.684l-15.552 9.62M780.772 429.993c6.737-7.203 13.736-14.594 22.769-18.553 3.438-1.507 7.556-2.343 11.652-2.343 6.666 0 13.271 2.218 16.774 7.376-2.747-2.276-6.275-3.881-9.666-3.881a9.81 9.81 0 0 0-2.158.232c-3.354.748-6.335 2.548-9.275 4.364-.404.251-.808.501-1.212.749l-.473.29a100.615 100.615 0 0 1-28.411 11.766M799.279 472.08l.018-1.563c5.05-11.595 2.922-25.659 9.335-36.559 4.91-8.345 13.983-13.3 23.004-16.82.776 2.332 1.128 4.766 1.128 7.212 0 4.148-1.013 8.339-2.684 12.155-2.657 6.069-6.865 11.324-11.311 16.236-6.141 6.79-12.82 13.068-19.49 19.339"/><path fill="#fff" d="m251.348 254.629 4.944-5.62.7-.795c.141-.161-.093-.397-.236-.236l-4.944 5.62-.7.795c-.141.161.095.397.236.236Z"/></g><defs><clipPath id="a"><path fill="#fff" d="M0 0h906.933v564.8H0z"/></clipPath></defs></svg>