<svg xmlns="http://www.w3.org/2000/svg" width="515" height="343" fill="none"><path fill="#fff" d="M337.675 117.049h-160.35c-4.607 0-8.341 3.722-8.341 8.314v72.828c0 4.592 3.734 8.314 8.341 8.314h67.269l14.289 18.267 11.908-18.267h66.884c4.607 0 8.341-3.722 8.341-8.314v-72.828c0-4.592-3.734-8.314-8.341-8.314Z"/><path fill="#17282F" d="M337.988 117.125s.267-.01.794.007c.519.055 1.315.133 2.283.514a8.221 8.221 0 0 1 3.166 2.142c1.051 1.106 1.941 2.747 2.186 4.748.144 7.939.107 19.495.165 34.127l.05 24.156.022 13.656c-.022 1.166.087 2.376-.163 3.62a8.54 8.54 0 0 1-1.516 3.42c-1.483 2.059-3.965 3.436-6.598 3.529l-67.353.085.336-.183-11.911 18.305-.317.486-.357-.458-14.313-18.29.334.163-57.88.01h-6.952c-1.172-.021-2.273.05-3.508-.059a8.74 8.74 0 0 1-3.418-1.134c-2.093-1.207-3.635-3.299-4.154-5.641-.285-1.182-.209-2.375-.22-3.484v-3.394l.006-26.679.012-25.75a49426.552 49426.552 0 0 1 .009-15.561 8.774 8.774 0 0 1 .59-3.135 8.787 8.787 0 0 1 4.161-4.626 8.506 8.506 0 0 1 3.002-.91c1.067-.098 2.036-.047 3.036-.06l5.928.005 11.615.01 22.209.022c14.329.018 27.679.036 39.866.053 24.358.058 44.07.105 57.725.136 6.797.037 12.081.064 15.694.082 1.776.02 3.136.033 4.081.043.919.015 1.39.045 1.39.045s-.471.03-1.39.044l-4.081.043-15.694.081c-13.655.034-33.367.08-57.725.139l-39.866.053-22.209.021c-3.817.004-7.69.005-11.615.009l-5.928.005c-.987.011-2.016-.032-2.946.058-.948.1-1.876.393-2.725.831a7.99 7.99 0 0 0-3.773 4.204 8.025 8.025 0 0 0-.533 2.847l.002 3.077.007 12.484.01 25.75c.003 8.746.005 17.646.006 26.679l.002 3.394c.01 1.15-.057 2.254.199 3.296.467 2.105 1.859 3.993 3.745 5.082a7.889 7.889 0 0 0 3.079 1.02c1.059.098 2.271.035 3.411.053h6.952l57.88.01h.209l.127.163 14.295 18.303-.672.029 11.932-18.29.118-.181h.219l67.322.046c2.43-.08 4.725-1.343 6.104-3.244a7.901 7.901 0 0 0 1.411-3.159c.234-1.121.139-2.311.162-3.497.009-4.718.015-9.272.022-13.656l.05-24.156c.012-14.621.124-26.216.063-34.099-.217-1.943-1.061-3.55-2.072-4.642a8.18 8.18 0 0 0-3.069-2.153c-1.918-.749-3.044-.566-3.029-.644"/><path fill="#33BFBF" d="M214.831 148.562H199.1a2.112 2.112 0 0 1-2.113-2.11v-11.215c0-1.166.947-2.11 2.113-2.11h15.731c1.167 0 2.113.944 2.113 2.11v11.215c0 1.166-.946 2.11-2.113 2.11Z"/><path fill="#fff" d="m197.046 133.481 7.798 8.124c.482.501.941.988 1.675 1.128.917.175 1.669-.23 2.284-.851 1.404-1.42 2.77-2.878 4.154-4.318 1.31-1.36 2.618-2.721 3.928-4.083.186-.193-.113-.484-.299-.29l-7.447 7.74c-.361.376-.733.867-1.185 1.148-1.113.689-2.07.007-2.811-.766l-4.21-4.384a6461.377 6461.377 0 0 0-3.588-3.738c-.186-.194-.485.097-.299.29"/><path fill="#fff" d="m216.89 147.881-5.833-6.651-.844-.961c-.176-.201-.472.092-.297.291 1.945 2.217 3.889 4.435 5.835 6.651l.842.962c.176.201.472-.092.297-.292Z"/><path fill="#17282F" d="m232.081 146.311-.012-5.21-2.606 4.292h-.924l-2.592-4.18v5.098h-1.922v-8.682h1.695l3.314 5.394 3.262-5.394h1.681l.026 8.682h-1.922ZM237.225 142.173h3.311c-.138-.868-.774-1.429-1.648-1.429-.888 0-1.524.549-1.663 1.429Zm5.11 1.162h-5.084c.187.856.899 1.38 1.923 1.38.712 0 1.224-.217 1.687-.665l1.036 1.15c-.625.727-1.561 1.111-2.772 1.111-2.322 0-3.834-1.495-3.834-3.537 0-2.056 1.535-3.537 3.583-3.537 1.974 0 3.498 1.353 3.498 3.563 0 .151-.025.368-.037.535M243.337 145.571l.585-1.432c.539.397 1.359.665 2.101.665.809 0 1.112-.243 1.112-.627 0-1.122-3.651.028-3.651-2.719 0-1.303 1.034-2.221 2.797-2.221.832 0 1.753.217 2.325.599l-.583 1.417a3.154 3.154 0 0 0-1.742-.509c-.786 0-1.123.28-1.123.637 0 1.174 3.651.039 3.651 2.746 0 1.276-1.045 2.184-2.854 2.184-1.022 0-2.056-.319-2.618-.74M249.453 145.571l.652-1.432c.605.397 1.521.665 2.349.665.905 0 1.243-.243 1.243-.627 0-1.122-4.081.028-4.081-2.719 0-1.303 1.155-2.221 3.128-2.221.93 0 1.959.217 2.6.599l-.654 1.417a3.837 3.837 0 0 0-1.946-.509c-.879 0-1.257.28-1.257.637 0 1.174 4.082.039 4.082 2.746 0 1.276-1.167 2.184-3.189 2.184-1.143 0-2.299-.319-2.927-.74M260.782 144.038v-.703h-1.281c-.873 0-1.149.345-1.149.804 0 .498.397.831 1.054.831.623 0 1.162-.307 1.376-.932Zm1.868-1.75v3.921h-1.748v-.855c-.347.625-1.017.957-1.963.957-1.507 0-2.405-.894-2.405-2.082 0-1.212.801-2.056 2.763-2.056h1.485c0-.856-.479-1.354-1.485-1.354-.681 0-1.386.243-1.854.639l-.67-1.391c.705-.538 1.746-.83 2.776-.83 1.963 0 3.101.969 3.101 3.051M269.186 142.476c0-.983-.702-1.644-1.679-1.644-.976 0-1.69.661-1.69 1.644 0 .985.714 1.646 1.69 1.646.977 0 1.679-.661 1.679-1.646Zm1.833-3.14v5.585c0 2.493-1.286 3.641-3.595 3.641-1.214 0-2.392-.313-3.143-.923l.738-1.397c.549.462 1.442.76 2.263.76 1.308 0 1.88-.622 1.88-1.831v-.287c-.488.561-1.19.835-2.024.835-1.772 0-3.2-1.284-3.2-3.243 0-1.957 1.428-3.239 3.2-3.239.894 0 1.631.311 2.12.96v-.861h1.761M274.329 142.173h3.461c-.144-.868-.81-1.429-1.723-1.429-.928 0-1.594.549-1.738 1.429Zm5.342 1.162h-5.316c.196.856.941 1.38 2.011 1.38.745 0 1.28-.217 1.764-.665l1.083 1.15c-.653.727-1.632 1.111-2.898 1.111-2.428 0-4.009-1.495-4.009-3.537 0-2.056 1.606-3.537 3.747-3.537 2.063 0 3.656 1.353 3.656 3.563 0 .151-.026.368-.038.535M280.353 145.571l.619-1.432c.571.397 1.439.665 2.225.665.857 0 1.177-.243 1.177-.627 0-1.122-3.865.028-3.865-2.719 0-1.303 1.094-2.221 2.961-2.221.88 0 1.856.217 2.463.599l-.619 1.417a3.485 3.485 0 0 0-1.844-.509c-.833 0-1.189.28-1.189.637 0 1.174 3.866.039 3.866 2.746 0 1.276-1.107 2.184-3.022 2.184-1.083 0-2.177-.319-2.772-.74M297.99 141.971c0-1.595-1.146-2.686-2.669-2.686-1.523 0-2.668 1.091-2.668 2.686 0 1.594 1.145 2.686 2.668 2.686 1.523 0 2.669-1.092 2.669-2.686Zm-7.337 0c0-2.495 1.975-4.342 4.668-4.342 2.68 0 4.667 1.835 4.667 4.342 0 2.506-1.987 4.34-4.667 4.34-2.693 0-4.668-1.847-4.668-4.34ZM303.146 139.266h-2.836v-1.637h7.725v1.637h-2.838v7.045h-2.051v-7.045M314.316 140.778c0-.955-.637-1.512-1.896-1.512h-1.681v3.013h1.681c1.259 0 1.896-.557 1.896-1.501Zm2.087 0c0 1.935-1.488 3.138-3.868 3.138h-1.796v2.395h-2.061v-8.682h3.857c2.38 0 3.868 1.202 3.868 3.149M211.173 171.393c0-5.51-1.983-7.796-4.851-7.796-2.833 0-4.814 2.286-4.814 7.796 0 5.509 1.981 7.794 4.814 7.794 2.868 0 4.851-2.285 4.851-7.794Zm-15.473 0c0-8.004 4.532-12.541 10.622-12.541 6.126 0 10.622 4.537 10.622 12.541 0 8.002-4.496 12.541-10.622 12.541-6.09 0-10.622-4.539-10.622-12.541ZM226.114 166.022c0 1.836 1.49 2.979 3.83 2.979 2.376 0 3.901-1.143 3.901-2.979 0-1.904-1.56-3.048-3.901-3.048-2.305 0-3.83 1.144-3.83 3.048Zm8.512 10.29c0-2.148-1.809-3.464-4.682-3.464-2.837 0-4.609 1.316-4.609 3.464 0 2.148 1.772 3.499 4.609 3.499 2.873 0 4.682-1.351 4.682-3.499Zm5.814.173c0 4.574-4.184 7.449-10.496 7.449-6.276 0-10.425-2.875-10.425-7.449 0-2.598 1.382-4.537 3.76-5.718-1.844-1.107-2.874-2.804-2.874-4.987 0-4.261 3.9-6.928 9.539-6.928 5.71 0 9.61 2.667 9.61 6.928 0 2.183-1.065 3.88-2.907 4.987 2.411 1.181 3.793 3.12 3.793 5.718ZM249.831 166.022c0 1.836 1.467 2.979 3.772 2.979 2.339 0 3.84-1.143 3.84-2.979 0-1.904-1.536-3.048-3.84-3.048-2.27 0-3.772 1.144-3.772 3.048Zm8.381 10.29c0-2.148-1.781-3.464-4.609-3.464-2.794 0-4.539 1.316-4.539 3.464 0 2.148 1.745 3.499 4.539 3.499 2.828 0 4.609-1.351 4.609-3.499Zm5.725.173c0 4.574-4.12 7.449-10.334 7.449-6.18 0-10.266-2.875-10.266-7.449 0-2.598 1.362-4.537 3.703-5.718-1.816-1.107-2.83-2.804-2.83-4.987 0-4.261 3.84-6.928 9.393-6.928 5.621 0 9.462 2.667 9.462 6.928 0 2.183-1.049 3.88-2.863 4.987 2.374 1.181 3.735 3.12 3.735 5.718M275.847 159.174v24.438h-5.697v-19.899h-4.925v-4.539h10.622ZM298.7 179.022v4.59h-18.514v-3.651l9.45-8.87c2.17-2.051 2.553-3.302 2.553-4.484 0-1.913-1.329-3.027-3.919-3.027-2.101 0-3.885.801-5.074 2.435l-4.131-2.643c1.89-2.746 5.32-4.52 9.729-4.52 5.461 0 9.101 2.782 9.101 7.198 0 2.365-.665 4.52-4.094 7.686l-5.637 5.286H298.7ZM319.622 176.075c0 4.102-3.208 7.859-10.222 7.859-3.456 0-7.016-.94-9.413-2.607l2.221-4.312c1.868 1.388 4.478 2.19 7.05 2.19 2.856 0 4.618-1.148 4.618-3.13 0-1.844-1.375-2.992-4.618-2.992h-2.609v-3.72l5.076-5.668h-10.504v-4.522h17.274v3.652l-5.57 6.259c4.441.695 6.697 3.409 6.697 6.991"/></svg>