<svg xmlns="http://www.w3.org/2000/svg" width="1730" height="1193" fill="none"><g clip-path="url(#a)"><path fill="#ECECEC" d="M-1032.38 417.189H697.622v-.8H-1032.38v.8ZM1493.17 1064.43h114.61v.8h-114.61v-.8ZM1167.06 1073.12h30.07v.8h-30.07v-.8ZM1423.3 1034.7h66.41v.8h-66.41v-.8ZM232.632 1040.08h149.442v.8H232.632v-.8ZM412.876 1040.88h21.922v-.8h-21.922v.8ZM506.012 1054.4H830.13v-.8H506.012v.8Z"/><path fill="#ECECEC" d="M203.059-34.705c-10.407 0-18.881 7.841-18.881 17.472v869.059c0 9.63 8.474 17.472 18.881 17.472h668.132c10.407 0 18.881-7.842 18.881-17.472v-869.06c0-9.63-8.474-17.471-18.881-17.471H203.059Zm668.132 904.804H203.059c-10.88 0-19.746-8.192-19.746-18.273v-869.06c0-10.067 8.866-18.272 19.746-18.272h668.132c10.88 0 19.746 8.205 19.746 18.273v869.059c0 10.081-8.866 18.273-19.746 18.273ZM951.447-34.705c-10.407 0-18.881 7.841-18.881 17.472v869.059c0 9.63 8.474 17.472 18.881 17.472h668.133c10.41 0 18.88-7.842 18.88-17.472v-869.06c0-9.63-8.47-17.471-18.88-17.471H951.447Zm668.133 904.804H951.447c-10.88 0-19.746-8.192-19.746-18.273v-869.06c0-10.067 8.866-18.272 19.746-18.272h668.133c10.88 0 19.74 8.205 19.74 18.273v869.059c0 10.081-8.86 18.273-19.74 18.273Z"/><path fill="#F1F2F2" d="M398.347 1011.76h491.266V345.264H398.347v666.496Z"/><path fill="#E1E1E1" d="M415.714 489.342h456.531V366.25H415.714v123.092Z"/><path fill="#ECECEC" d="M441.637 489.341h-25.923V386.173h25.923v103.168ZM541.112 489.341h25.937V386.173h-25.937v103.168ZM728.345 485.264l-25.559 4.078-18.935-101.668 25.558-4.077 18.936 101.667ZM473.777 489.342h-25.936v-89.573h25.936v89.573ZM507.458 489.342h25.937v-89.573h-25.937v89.573ZM657.915 489.342h25.936v-89.573h-25.936v89.573ZM622.112 484.139l-25.315 5.203-21.004-87.448 25.315-5.203 21.004 87.448ZM496.2 489.341h-12.962V381.045H496.2v108.296ZM637.492 489.341h12.975V381.045h-12.975v108.296Z"/><path fill="#E1E1E1" d="M415.714 631.932h456.531V508.827H415.714v123.105Z"/><path fill="#ECECEC" d="M846.309 631.932h25.936V528.764h-25.936v103.168ZM720.911 631.932h25.936V528.764h-25.936v103.168ZM559.615 627.854l25.558 4.077 18.936-101.68-25.558-4.064-18.936 101.667ZM814.182 631.932h25.937v-89.574h-25.937v89.574ZM754.564 631.932h25.937v-89.574h-25.937v89.574ZM604.109 631.932h25.936v-89.574h-25.936v89.574ZM665.848 626.729l25.315 5.203 21.003-87.448-25.315-5.203-21.003 87.448ZM791.76 631.932h12.961V523.636H791.76v108.296ZM637.492 631.932h12.975V523.636h-12.975v108.296ZM441.637 631.932h-25.923V528.764h25.923v103.168ZM473.777 631.932h-25.936v-89.574h25.936v89.574ZM507.458 631.932h25.937v-89.574h-25.937v89.574ZM496.2 631.932h-12.962V523.636H496.2v108.296Z"/><path fill="#E1E1E1" d="M415.714 774.509h456.531V651.417H415.714v123.092Z"/><path fill="#ECECEC" d="M677.742 774.509h25.936V671.341h-25.936v103.168ZM864.987 770.432l-25.558 4.078-18.949-101.668 25.559-4.077 18.948 101.667ZM584.484 774.509h25.937v-89.573h-25.937v89.573ZM644.088 774.509h25.936v-89.573h-25.936v89.573ZM794.558 774.509h25.923v-89.573h-25.923v89.573ZM758.741 769.306l-25.315 5.203-20.989-87.435 25.314-5.203 20.99 87.435ZM619.868 774.509h12.975V666.226h-12.975v108.283ZM774.135 774.509h12.961V666.226h-12.961v108.283ZM566.616 770.432l-25.558 4.078-18.935-101.668 25.558-4.077 18.935 101.667ZM496.187 774.509h25.936v-89.573h-25.936v89.573ZM460.37 769.306l-25.315 5.203-20.99-87.435 25.315-5.203 20.99 87.435ZM488.739 774.509h-12.975V666.226h12.975v108.283Z"/><path fill="#E1E1E1" d="M313.59 1013.51h84.757V345.264H313.59v668.246Z"/><path fill="#F6F7F8" d="M1177.13 996.067h-72.01l37.86-285.292c1.6-12.082 13.49-21.875 26.53-21.875h314.2l-46.07 307.167h-260.51Z"/><path fill="#F1F2F2" d="M1405.5 996.067h72.02l37.85-285.292c1.61-12.082-7.67-21.875-20.73-21.875h-24.75c-13.04 0-24.92 9.793-26.53 21.875l-37.86 285.292Z"/><path fill="#E7E7E7" d="m1378.97 995.729 13.06-137.987c.58-6.166 5.73-11.119 12.35-11.907l5.37-.625c8.9-1.05 15.8-7.704 16.58-15.971l2.38-25.151c.97-10.318-7.8-19.186-18.99-19.186h120.34c11.18 0 19.97 8.868 18.99 19.186l-2.38 25.151c-.78 8.267-7.69 14.921-16.58 15.971l-5.36.625c-6.63.788-11.78 5.741-12.36 11.907l-13.04 137.987c-.96 10.071-10.06 17.781-20.98 17.781h-120.34c10.92 0 20.02-7.71 20.96-17.781ZM1047.81 823.198c-2.05-21.674-21.66-38.296-45.17-38.296h104.78c23.5 0 43.11 16.622 45.15 38.296l10.34 109.385h-104.76l-10.34-109.385Z"/><path fill="#F1F2F2" d="M956.109 784.902h46.531c23.51 0 43.12 16.622 45.17 38.296l10.34 109.385h249.51l10.36-109.385c2.04-21.674 21.65-38.296 45.17-38.296h46.53c11.19 0 19.96 8.868 18.99 19.186l-2.38 25.151c-.78 8.267-7.68 14.921-16.58 15.971l-5.37.625c-6.62.788-11.77 5.741-12.35 11.907l-13.06 137.987c-.94 10.071-10.04 17.781-20.96 17.781h-350.2c-10.91 0-20.02-7.71-20.966-17.781l-13.043-137.987c-.581-6.166-5.73-11.119-12.366-11.907l-5.366-.625c-8.893-1.05-15.8-7.704-16.584-15.971l-2.379-25.151c-.973-10.318 7.812-19.186 19.003-19.186Z"/><path fill="#E7E7E7" d="M404.591 311.97s-3.839-23.388 14.597-38.383c18.422-14.983 16.8-23.913 11.542-25.076-5.271-1.163-10.123 13.832-18.232 17.959 0 0-.257-21.374 7.974-29.24 8.231-7.867 12.556-28.141 4.717-28.503-7.826-.351-8.637 12.044-10.259 20.836-1.622 8.792-10.339 21.161-10.339 21.161s-1.703-19.11-7.028-26.989c-5.312-7.867 8.866-25.864 3.392-33.731-5.46-7.867-15.191 7.116-14.38 23.988.81 16.872 12.961 34.856 10.136 52.478 0 0-5.365-12.369-10.177-13.494-4.812-1.126-9.677-9.305-12.921-12.345-3.23-3.026-7.285 7.467 0 17.21 7.299 9.755 25.923 35.819 23.098 56.893l7.88-2.764Z"/><path fill="#E7E7E7" d="m415.606 301.327 6.042 35.044c1.851 10.819-7.177 20.624-19.03 20.624h-6.434c-11.839 0-20.881-9.805-19.016-20.624l6.028-35.044h32.41Z"/><path fill="#ECECEC" d="M777.906 350.116h18.8v-74.765h-18.8v74.765ZM687.027 350.116h18.801v-74.765h-18.801v74.765ZM570.144 347.165l18.516 2.951 13.718-73.677-18.516-2.952-13.718 73.678ZM754.619 350.116h18.8v-64.91h-18.8v64.91ZM711.423 350.116h18.8v-64.91h-18.8v64.91ZM602.379 350.116h18.8v-64.91h-18.8v64.91ZM647.129 346.351l18.354 3.765 15.219-63.359-18.354-3.778-15.219 63.372ZM738.373 350.116h9.393v-78.48h-9.393v78.48ZM626.585 350.116h9.393v-78.48h-9.393v78.48ZM467.979 349.278h91.569v-58.507h-91.569v58.507ZM796.95 358.408h76.714v-43.674H796.95v43.674Z"/><path fill="#ECECEC" d="M817.372 320.024h38.357v-43.673h-38.357v43.673Z"/><path fill="#E1E1E1" d="M1405.5 570.374h91.25V218.558h-91.25v351.816Z"/><path fill="#E1E1E1" d="M1145.75 571.312h341.21V218.558h-341.21v352.754Z"/><path fill="#F1F2F2" d="M1134.73 571.312h354.03V218.558h-354.03v352.754Z"/><path fill="#fff" d="M1149.86 555.102h324.36V229.801h-324.36v325.301Z"/><path fill="#E1E1E1" d="M1149.86 555.102h6.02V229.801h-6.02v325.301Z"/><path fill="#E1E1E1" d="M1154.87 472.495h320.19v-8.767h-320.19v8.767Z"/><path fill="#F1F2F2" d="M1149.86 463.728h329.44v-14.733h-329.44v14.733Z"/><path fill="#F6F7F8" d="M1586.98 1121.23c0 20.03-300.36 36.26-670.863 36.26-370.504 0-670.862-16.23-670.862-36.26 0-20.02 300.358-36.24 670.862-36.24 370.503 0 670.863 16.22 670.863 36.24Z"/><path fill="#192F36" d="M1553.65 879.178c-.14-.075-10.48-8.154-23.83-8.204-6.66-.013-14.07 2.126-20.9 8.292-2.74 2.464-4.98 6.278-7.02 11.068-7.07 16.722-11.24 45.888-13.71 71.014-2.46 25.101-3.19 46.072-3.19 46.092l3.27.1s.06-1.71.19-4.72c.5-10.58 2.01-37.295 5.54-63.234 1.76-12.97 4.03-25.752 6.91-36.195 2.84-10.443 6.45-18.572 10.3-21.962 6.27-5.628 12.68-7.416 18.61-7.429 5.93 0 11.41 1.864 15.38 3.765 1.97.938 3.59 1.888 4.69 2.589.55.362.97.65 1.26.85l.32.225.1.075 2.08-2.326Z"/><path fill="#192F36" d="M1486.64 1028.77c0-.03 1.63-15.54 1.63-38.056 0-21.199-1.44-48.601-7.07-75.19-5.62-26.59-15.39-52.391-32.3-70.351l-2.46 1.988c16.3 17.285 26 42.636 31.56 68.938 5.55 26.314 7 53.541 7 74.615 0 11.196-.4 20.646-.81 27.286-.2 3.33-.41 5.94-.55 7.75-.15 1.78-.26 2.72-.26 2.73l3.26.29Z"/><path fill="#192F36" d="M1491.47 1014.99c0-.01-.08-1.13-.2-3.23-.36-6.26-1.09-21.183-1.09-39.893 0-22.875 1.09-51.441 5.24-76.829 2.08-12.695 4.92-24.601 8.75-34.569 3.82-9.981 8.65-17.998 14.51-22.975l-2.21-2.226c-6.48 5.515-11.44 13.957-15.39 24.188-11.74 30.691-14.15 77.942-14.16 112.411 0 25.051 1.3 43.303 1.3 43.323l3.25-.2ZM1486.65 1015.08c-.01-.04-.23-24.241-4-50.393-1.89-13.082-4.68-26.639-8.8-37.97-4.14-11.307-9.53-20.462-17.25-24.614-3.97-2.101-7.78-3.064-11.38-3.064-5.86 0-10.94 2.539-15.15 6.166-6.31 5.44-10.9 13.357-14 19.936-3.08 6.566-4.62 11.806-4.63 11.856l3.14.788.13-.388c.62-1.951 3.6-10.981 8.86-19.398 2.62-4.202 5.8-8.254 9.45-11.181 3.66-2.939 7.69-4.752 12.2-4.752 2.96 0 6.19.775 9.76 2.664 6.44 3.364 11.79 11.919 15.78 22.962 6.02 16.534 9.2 38.434 10.85 56.156.81 8.854 1.26 16.682 1.5 22.272.12 2.8.17 5.05.22 6.59.04 1.55.05 2.38.05 2.39l3.27-.02Z"/><path fill="#192F36" d="M1497.83 1015c0-.01-.1-1.61-.2-4.45-.1-2.85-.21-6.93-.21-11.832 0-11.656.58-28.028 3.07-43.736 2.46-15.709 6.92-30.767 14.34-39.684 5.51-6.641 10.75-8.817 15.58-8.83 3.48 0 6.88 1.163 10.07 3.014 4.8 2.764 9.02 7.029 11.99 10.606a63.692 63.692 0 0 1 3.47 4.552c.41.576.72 1.039.92 1.364.21.312.3.475.3.475l2.85-1.488c-.04-.063-3.24-5.328-8.48-10.669-2.63-2.664-5.76-5.353-9.3-7.404-3.56-2.051-7.53-3.477-11.82-3.477-6.01-.012-12.31 2.89-18.17 10.018-8.05 9.743-12.45 25.139-14.99 41.085-2.52 15.946-3.08 32.418-3.08 44.174 0 9.892.4 16.432.4 16.442l3.26-.16ZM1490.18 1025.13c0-.01 4.26-52 4.26-103.941 0-21.486-.73-42.973-2.8-60.808-1.03-8.917-2.39-16.921-4.19-23.575-1.81-6.666-4-11.982-6.88-15.596l-2.64 1.801c2.45 3.039 4.61 8.067 6.34 14.533 5.25 19.398 6.91 51.515 6.89 83.645 0 25.902-1.05 51.841-2.12 71.289-.52 9.732-1.07 17.852-1.46 23.522-.4 5.67-.66 8.9-.66 8.91l3.26.22Z"/><path fill="#33BFBF" d="M1431.52 917.499s14.14 4.815 9.93 16.196c-4.2 11.381-48.87 30.104-48.87 30.104s-18.7-15.871-1.53-41.673c17.18-25.814 40.09-12.769 40.47-4.627Z"/><path fill="#33BFBF" d="M1392.58 963.799s-8.8-7.466-8.78-20.461c0-5.965 1.85-13.107 7.25-21.211 7.6-11.419 16.33-15.233 23.72-15.233 9.33 0 16.55 6.065 16.75 10.605 0 0 10.73 3.652 10.72 12.119-.02 1.251-.25 2.614-.79 4.078-4.2 11.381-48.87 30.103-48.87 30.103ZM1492.93 895.838s-15.04-.588-15.89 11.419c-.85 11.994 32.59 45.187 32.59 45.187s23.87-7.992 18.74-37.921c-5.12-29.941-31.69-26.064-35.44-18.685Z"/><path fill="#33BFBF" d="M1509.63 952.444s-3.03-3.014-7.25-7.542c-.84-.913-1.74-1.888-2.66-2.914a288.106 288.106 0 0 1-5.39-6.103 210.394 210.394 0 0 1-3.22-3.84c-3.32-4.052-6.51-8.254-9.03-12.181-3.03-4.741-5.05-9.068-5.05-12.145 0-.162 0-.312.01-.462.78-10.944 13.35-11.419 15.57-11.419h.33c1.47-2.889 6.42-5.24 12.23-5.24 9.01 0 20.08 5.69 23.2 23.925.5 2.889.72 5.578.72 8.08.01 23.325-19.46 29.841-19.46 29.841ZM1505.68 838.406s-10.03-1.001-9.22-6.654c.8-5.653 38.98-20.198 61.51 3.327 0 0-14.42 22.937-35.27 23.225-20.86.3-17.02-19.898-17.02-19.898Z"/><path fill="#33BFBF" d="M1522.24 858.318c-7.73 0-11.98-2.877-14.28-6.441a14.983 14.983 0 0 1-1.67-3.665c-.7-2.226-.89-4.44-.89-6.203 0-2.139.28-3.602.28-3.602s-9.26-.913-9.27-6.004c0-.212.01-.425.05-.65.46-3.302 13.72-9.643 29.14-9.643 10.96 0 23.02 3.202 32.37 12.97 0 0-2.85 4.54-7.86 9.605-6.25 6.329-15.84 13.457-27.41 13.62-.15.013-.31.013-.46.013ZM1486.99 824.675s9.08 4.064 11.62-1.126c2.56-5.19-21.54-36.232-54.1-27.29 0 0-.87 26.527 16.66 36.983 17.52 10.455 25.82-8.567 25.82-8.567Z"/><path fill="#33BFBF" d="M1471.23 836.381c-2.93 0-6.29-.888-10.06-3.139-15.96-9.518-16.67-32.343-16.67-36.37 0-.4.01-.613.01-.613a44.218 44.218 0 0 1 11.74-1.601c24.94 0 42.55 21.712 42.55 27.953 0 .375-.07.688-.19.938-.98 2.026-2.97 2.639-5.03 2.639-3.21 0-6.59-1.513-6.59-1.513s-.76 1.738-2.3 3.877c-.65.9-1.43 1.863-2.36 2.814-2.6 2.626-6.28 5.015-11.1 5.015ZM1534.47 912.922s-6.92-5.166.55-7.692c7.48-2.526 44.13-1.814 44.51 31.792 0 0-42.68 6.566-47.98-6.241-5.29-12.794 2.92-17.859 2.92-17.859Z"/><path fill="#33BFBF" d="M1557.08 938.699c-11.2 0-22.92-1.601-25.53-7.917-1.29-3.127-1.77-5.778-1.77-8.029.01-6.941 4.69-9.831 4.69-9.831s-2.92-2.188-2.92-4.414c.01-1.189.86-2.402 3.47-3.277 1.52-.513 4.22-.888 7.58-.888 13.24 0 36.63 5.878 36.93 32.68 0 0-10.95 1.676-22.45 1.676ZM1447.41 837.569s6.94-5.178-.54-7.705c-7.47-2.513-44.13-1.801-44.5 31.793 0 0 42.69 6.566 47.98-6.229 5.27-12.794-2.94-17.859-2.94-17.859Z"/><path fill="#33BFBF" d="M1424.8 863.345c-11.49 0-22.43-1.688-22.43-1.688.29-26.802 23.69-32.68 36.93-32.68 3.36 0 6.06.387 7.57.888 2.61.888 3.46 2.088 3.48 3.289 0 2.226-2.94 4.415-2.94 4.415s4.69 2.889 4.71 9.83c0 .425-.02.863-.06 1.313-.09 1.238-.35 2.589-.78 4.052-.24.851-.55 1.739-.93 2.664-2.61 6.316-14.34 7.917-25.55 7.917ZM1469.99 864.634s.6-6.291-4.87-3.827c-5.49 2.463-24.6 21.549-4.78 39.646 0 0 26.65-18.272 21.85-27.79-4.81-9.518-12.2-8.029-12.2-8.029Z"/><path fill="#33BFBF" d="M1460.33 900.452c-6.47-5.903-8.78-11.919-8.79-17.409 0-11.369 9.88-20.574 13.58-22.237.89-.4 1.63-.576 2.23-.576 2.41 0 2.66 2.702 2.66 3.865 0 .325-.03.538-.03.538s.42-.088 1.13-.088c2.25 0 7.42.863 11.08 8.117.39.788.58 1.639.58 2.539-.01 4.215-4.09 9.418-8.77 14.008-.85.838-1.72 1.663-2.6 2.439-5.55 5.027-11.07 8.804-11.07 8.804ZM1540.66 873.587s-4.14-5.015 1.93-5.64c6.06-.613 33.21 6.091 26.88 31.179 0 0-33.08-2.301-34.49-12.732-1.42-10.418 5.68-12.807 5.68-12.807Z"/><path fill="#33BFBF" d="M1569.47 899.126s-33.08-2.301-34.49-12.732c-.13-.938-.19-1.801-.19-2.614-.01-8.217 5.87-10.193 5.87-10.193s-1.38-1.676-1.38-3.214c.01-1.113.76-2.164 3.31-2.426.24-.025.53-.038.84-.038 6.59 0 27 5.703 27 24.038 0 2.201-.29 4.59-.96 7.179Z"/><path fill="#192F36" d="M1433.99 1108.23h106.97l14.21-96.25h-135.4l14.22 96.25Z"/><path fill="#4B5B61" d="M1540.96 1108.23h-106.97l-14.22-96.25h135.4l-4 27.05-.1.8-10.11 68.4Z"/><path fill="#192F36" d="M1560.68 1005.6v8.33c0 5.58-4.9 10.1-10.95 10.1h-127.65c-6.04 0-10.95-4.52-10.95-10.1v-8.33h149.55Z"/><path fill="#33BFBF" d="M976.832 645.847s-54.621-6.373-137.36 14.655c0 0-13.318-137.088-11.725-155.923 1.592-18.825 127.729-13.315 127.729-13.315s3.259 54.86 11.37 87.965c8.123 33.105 14.139 60.256 9.986 66.618Z"/><path fill="#33BFBF" d="M840.848 659.479c-1.176-10.354-2.77-29.809-2.991-60.418 4.18 15.208 9.549 31.637 16.364 49.217h-.012l.037 8.05a547.14 547.14 0 0 0-13.398 3.151Z"/><path fill="#F58A7D" d="m798.935 1101.13 22.486 5.85 5.358-32.21 2.884-17.23-22.499-5.86-3.824 23.09-4.405 26.36ZM927.993 1103.11l22.179 2.85.213-31.11.142-19.32-22.202-2.82-.154 22.14-.178 28.26Z"/><path fill="#CD6F62" d="M950.479 1074.21h-22.486l.048-6.14h22.486l-.048 6.14ZM826.335 1074.21h-23.303l1.525-9.21 2.658.18 20.399 1.37-1.279 7.66Z"/><path fill="#F58A7D" d="m699.635 515.064-22.589-6.119 4.13 23.616s20.499 4.342 22.501-5.431l-4.042-12.066Z"/><path fill="#F58A7D" d="m655.536 514.411 10.635 19.111 14.972-1.061-3.965-23.516-21.642 5.466ZM730.308 521.519l-36.622-7.454-3.325 16.178 33.248 7.375 6.699-16.099Z"/><path fill="#33BFBF" d="M840.93 506.518s-.792.872-2.152 2.344c-4.626 4.962-15.92 16.935-27.51 27.265-9.499 8.405-19.135 15.734-25.406 17.218-17.948 4.236-83.209-13.366-83.209-13.366l6.741-24.241s60.796 7.397 65.521 7.397c3.574 0 40.559-49.07 49.527-53.103l16.488 36.486Z"/><path fill="#33BFBF" d="M811.226 536.595c1.709-13.077 5.908-25.33 11.615-34.818.083 7.202.32 14.803.676 22.621a335.329 335.329 0 0 1-5.101 5.201 291.765 291.765 0 0 1-7.19 6.996Z"/><path fill="#192F36" d="m798.959 1097.38 25.298-.64c.944-.02 1.79.57 2.035 1.41l5.307 18.95c.552 1.96-.993 3.87-3.174 3.89-9.144.08-22.345-.08-33.818.21-13.409.33-21.94-.27-37.666.11-9.511.24-12.502-8.59-8.543-9.49 17.969-4.12 29.724-3.31 45.045-12.63 1.667-1.01 3.518-1.76 5.516-1.81Z"/><path fill="#33BFBF" d="m784.153 1097.82-.194.08c-.219.12-.316.27-.328.54-.024.65.206 1.15.716 1.54 1.457 1.09 5.244 1.19 10.281.31-3.702-1.46-8.764-3.04-10.475-2.47Zm12.381 3.11-.06.01c-3.678.75-10.221 1.72-12.819-.21-.777-.59-1.153-1.38-1.104-2.35.024-.58.315-1.04.837-1.31 2.743-1.48 12.127 2.5 13.183 2.96l.315.49-.352.41Z"/><path fill="#33BFBF" d="M790.144 1092.74c-.413.16-.435.38-.446.47-.179 1.41 3.371 4.84 6.027 6.3-.335-1.62-1.205-4.94-3.013-6.31-.637-.48-1.306-.66-2.065-.58l-.503.12Zm6.418 8.1-.368-.01c-2.589-1.06-7.791-5.4-7.49-7.76.067-.55.447-1.24 1.809-1.42 1.015-.13 1.964.14 2.801.77 2.768 2.1 3.539 7.66 3.572 7.9l-.19.45-.134.07Z"/><path fill="#192F36" d="m928.65 1097.38 25.601-.64c.955-.02 1.811.57 2.046 1.41l5.384 18.95c.558 1.96-1.005 3.87-3.225 3.89-9.241.08-22.6-.08-34.21.21-13.582.33-22.215-.27-38.129.11-9.625.24-12.639-8.59-8.645-9.49 18.196-4.12 30.091-3.31 45.596-12.63 1.687-1.01 3.56-1.76 5.582-1.81Z"/><path fill="#33BFBF" d="m914.234 1097.82-.194.08c-.207.12-.304.27-.316.54-.036.65.206 1.15.716 1.54 1.457 1.09 5.245 1.19 10.283.31-3.703-1.46-8.777-3.04-10.489-2.47Zm12.395 3.11-.073.01c-3.666.75-10.21 1.72-12.808-.21-.789-.59-1.153-1.38-1.117-2.35.037-.58.316-1.04.85-1.31 2.744-1.48 12.128 2.5 13.184 2.96l.304.49-.34.41Z"/><path fill="#33BFBF" d="M919.387 1092.74c-.466.16-.503.38-.516.47-.201 1.41 3.81 4.84 6.803 6.3-.377-1.62-1.358-4.94-3.408-6.31-.704-.48-1.471-.66-2.313-.58l-.566.12Zm7.23 8.1-.415-.01c-2.917-1.06-8.777-5.4-8.437-7.76.075-.55.49-1.24 2.037-1.42 1.144-.13 2.2.14 3.156.77 3.106 2.1 3.973 7.66 4.011 7.9l-.214.45-.138.07Z"/><path fill="#192F36" d="M975.373 632.854c12.255 49.097-8.784 435.216-8.784 435.216h-40.682l-17.394-321.785-64.056 321.785-43.474-2.92c28.415-249.274 53.543-398.094 53.543-398.094l-.062-18.806 120.909-15.396Z"/><path fill="#fff" d="M925.945 1068.07h-.01l-2.039-46.08h.011l2.038 46.08Z"/><path fill="#FAFBFC" d="m912.616 818.204-4.084-71.637v-.046l4.097 71.671-.013.012Z"/><path fill="#F7F8F9" d="M923.896 1021.99h-.013l-11.254-203.775.013-.011 11.254 203.786Z"/><path fill="#fff" d="m845.027 1068.07 9.206-46.08h.013l-9.219 46.08Z"/><path fill="#F7F8F9" d="m854.246 1021.99 5.121-27.652-5.121 27.652Z"/><path fill="#fff" d="m804.436 1065-3.453-.23c1.671-14.63 3.318-28.88 4.952-42.81-1.634 13.93-3.281 28.18-4.939 42.81l3.44.23Zm40.582-338.912c5.775-38.521 9.228-59.018 9.228-59.018l-.037-10.664.037 10.664s-3.441 20.497-9.228 59.018Z"/><path fill="#FAFBFC" d="M815.335 948.256h-.012c12.046-98.71 22.653-174.348 29.704-222.215-7.051 47.867-17.658 123.516-29.692 222.215Z"/><path fill="#F7F8F9" d="M806.117 1021.99h-.013c3.141-25.834 6.218-50.422 9.206-73.734h.013a9865.657 9865.657 0 0 0-9.206 73.734Z"/><path fill="#1F2F3E" d="M966.578 1068.07h-40.67l-2.471-45.77-.012-.16-11.032-204.099-3.88-71.73v.046l-.012-.034-2.619-36.23s-18.692 62.823-11.008 104.686l-35.69 179.301-5.585 28.06-.037.16-9.105 45.77-37.346-2.51-2.668-.18-3.46-.23c1.668-14.64 3.324-28.91 4.967-42.85 0-.03.012-.11.024-.16 3.04-25.847 6.029-50.457 8.945-73.789 12.292-98.688 23.127-174.329 30.329-222.19 5.819-38.556 9.278-59.072 9.278-59.072l-.037-10.674-.025-8.13 7.709-.981c15.776-2.007 35.432-4.505 54.136-6.888l27.302-3.467c1.94 12.236 3.175 20.253 3.175 20.253l31.096-3.831c6.189 93.966-11.304 414.699-11.304 414.699Z"/><path fill="#17282F" d="M953.321 452.039c-1.461 23.917-.356 47.779 1.929 70.006 1.67 16.247 4.016 31.61 6.497 45.487 5.809 32.506 12.417 56.867 13.363 65.365-17.625 2.246-83.998 10.722-120.206 15.317-43.822-113.212-27.315-179.111-27.315-179.111s12.528-4.947 27.561-8.713c1.978-.511 4.004-.976 6.067-1.407 13.351-2.86 35.643-5.231 51.107-6.513 3.254-.272 6.558-.465 9.776-.601 16.421-.693 31.221.17 31.221.17Z"/><path fill="#F58A7D" d="M888.756 400.397c.875 15.685 2.673 45.087 16.703 52.535 0 0-8.733 15.456-27.629 17.023-14.289 1.19-13.328-11.898-13.328-11.898 8.265-5.743 6.282-15.433-.013-26.358l24.267-31.302Z"/><path fill="#CECECE" d="M868.572 439.311c-.093-.22-.186-.441-.266-.661l.279.661h-.013Zm-4.084-7.609 4.057-4.68-4.057 4.68Z"/><path fill="#CD6F62" d="m868.368 439.311-.264-.665c-.945-2.361-2.217-4.71-3.616-6.993l3.842-4.71 10.846-13.233c1.033 1.385 2.066 4.444 2.62 7.758 1.096 6.616-6.638 15.449-13.428 17.843Z"/><path fill="#192F36" d="M827.767 369.327c-2.768 7.864-1.254 24.036 11.07 18.775 12.312-5.251-6.292-32.299-11.07-18.775Z"/><path fill="#F58A7D" d="M890.029 379.849c1.326 20.952 3.235 33.161-6.555 45.014-14.728 17.843-43.26 11.188-51.214-9.03-7.164-18.199-8.137-49.397 12.441-59.965 20.274-10.408 43.99 3.029 45.328 23.981Z"/><path fill="#192F36" d="M874.731 368.762v-23.568s26.997-1.861 25.792 10.975c14.952 6.886 7.88 28.502-12.194 39.108-11-8.191-9.745-27.901-9.745-27.901a56.942 56.942 0 0 1-3.853 1.386Z"/><path fill="#F58A7D" d="M901.17 396.469c-1.102 5.608-4.923 10.196-9.157 12.78-6.363 3.87-11.925-.892-12.15-7.578-.213-6.025 2.856-15.294 10.209-16.487 7.24-1.171 12.363 4.866 11.098 11.285Z"/><path fill="#192F36" d="M857.283 388.91c.208 1.684-.529 3.161-1.645 3.287-1.105.126-2.175-1.145-2.382-2.84-.207-1.695.529-3.161 1.634-3.287 1.116-.126 2.186 1.145 2.393 2.84ZM836.798 391.508c.207 1.412-.528 2.634-1.641 2.739-1.113.105-2.18-.955-2.386-2.367-.207-1.412.527-2.634 1.64-2.739 1.113-.105 2.181.954 2.387 2.367Z"/><path fill="#F15855" d="M843.14 391.182s-3.159 10.054-7.331 15.193c3.672 2.364 9.218.48 9.218.48l-1.887-15.673Z"/><path fill="#192F36" d="M856.122 412.319c-.724.16-1.485.288-2.305.363-.29.032-.556-.16-.592-.406-.036-.257.181-.492.459-.524 7.857-.781 10.839-5.978 10.875-6.031l.712-.203.241.62c-.12.214-2.703 4.694-9.39 6.181ZM862.677 382.961a1.08 1.08 0 0 1-1.028-.296c-3.289-3.332-7.136-2.682-7.172-2.682a1.056 1.056 0 0 1-1.234-.828c-.121-.555.266-1.099.835-1.193.206-.047 5.019-.851 9.095 3.297a1.01 1.01 0 0 1-.036 1.453l-.46.249ZM826.893 386.061l-.615-.024a1.067 1.067 0 0 1-.652-1.361c1.907-5.539 6.616-6.694 6.821-6.779a1.067 1.067 0 0 1 1.28.79 1.051 1.051 0 0 1-.749 1.276c-.205.036-3.827.984-5.36 5.43a1.03 1.03 0 0 1-.725.668ZM886.465 377.869s-15.623-5.383-22.889-13.936c0 0-14.261 3.492-17.182 8.945 0 0-4.946-3.896-1.239-8.945 0 0-10.666 2.109-12.789 8.945 0 0-5.326-1.718-5.007-8.945 0 0-4.75 1.671-6.259 8.945 0 0-11.795-23.054 27.123-29.67 0 0-3.068-1.222-9.119-1.464 0 0 27.16-10.282 48.699-.864 21.551 9.428 17.612 27.525-1.338 36.989Z"/><path fill="#33BFBF" d="m984.329 652.759-37.902 4.672s-15.642-100.892-22.531-133.478V454.36l19.815-4.808 15.26 4.808c3.679 11.291 6.901 26.103 9.716 42.59 1.864 10.904 3.531 22.571 5.024 34.386 2.05 16.099 3.753 32.495 5.21 47.842a2092.5 2092.5 0 0 1 4.618 60.057c.53 8.511.79 13.524.79 13.524Z"/><path fill="#33BFBF" d="M924.31 524.306s3.187-49.084 20.071-74.418c0 0-.424-7.248-3.799-8.399-3.374-1.151-16.272 5.766-16.272 5.766s-8.036-5.003-9.81-2.689c-1.763 2.302-6.024 17.915 9.81 79.74Z"/><path fill="#C2D7EF" d="M924.313 524.306c-9.322-36.397-11.684-56.783-11.684-67.859 0-7.726 1.15-10.928 1.874-11.874.338-.433.888-.615 1.575-.615 2.936 0 8.235 3.304 8.235 3.304s10.984-5.903 15.332-5.903c.363 0 .675.046.938.137 3.374 1.151 3.798 8.398 3.798 8.398-16.882 25.332-20.068 74.412-20.068 74.412Z"/><path fill="#33BFBF" d="m838.593 666.827 4.323 2.892s-6.244-32.637-3.719-115.16c.123-3.978.283-7.819.443-11.478 3.215-69.823 14.879-82.523 15.63-83.289l-10.9 3.452-19.781 6.322c-5.826 59.581 14.004 197.261 14.004 197.261Z"/><path fill="#33BFBF" d="M840.082 531.474s-11.04-47.818-7.763-64.313c3.29-16.484 15.066-9.162 15.066-9.162s10.816-8.008 14.03.823c0 0-14.853 9.595-21.333 72.652Z"/><path fill="#C2D7EF" d="M840.084 531.474c-.062-.239-8.36-36.282-8.373-56.479 0-3.016.187-5.689.611-7.837 1.744-8.728 5.856-10.784 9.357-10.784 3.103 0 5.707 1.622 5.707 1.622s4.498-3.324 8.547-3.324c2.243 0 4.349 1.005 5.482 4.147 0 0-14.852 9.596-21.331 72.655Z"/><path fill="#33BFBF" d="M974.086 531.474c-16.277-8.479-18.437-30.594-18.437-30.594.981-.358 7.027-2.273 13.384-4.223 1.875 11.041 3.551 22.854 5.053 34.817Z"/><path fill="#1F2F3E" d="M895.008 815.131c-7.627-41.769 10.925-104.451 10.925-104.451l2.599 36.148-13.524 68.303Z"/><path fill="#33BFBF" d="M983.304 638.998c-9.97-.643-18.6-1.251-18.6-1.251l-1.885-37.76s2.465-1.915 7.892-1.915a25.8 25.8 0 0 1 2.538.135s3.251-7.392 5.535-18.603a2084.054 2084.054 0 0 1 4.52 59.394Z"/><path fill="#F58A7D" d="m987.036 579.604-20.12 28.729 15.908 8.136 18.916-25.888-14.704-10.977Z"/><path fill="#33BFBF" d="M958.591 453.647c13.184 1.363 69.239 73.547 71.709 95.309 2.47 21.763-32.927 59.321-32.927 59.321l-23.658-13.058s24.024-34.625 25.257-43.88c1.248-9.244-43.897-47.122-43.897-47.122s-4.92-11.133-5.542-27.158c-.635-16.024 9.058-23.412 9.058-23.412ZM962.917 600.084s20.387 4.051 28.582 15.929c0 0-8.516 24.763-14.6 27.452-6.084 2.701-21.214 2.701-21.214 2.701s-.975-27.544 7.232-46.082Z"/></g><defs><clipPath id="a"><path fill="#fff" d="M0 0h1730v1193H0z"/></clipPath></defs></svg>