<svg xmlns="http://www.w3.org/2000/svg" width="81" height="88" fill="none"><path fill="#33BFBF" d="M65.154 0H15.342C6.868 0 0 6.867 0 15.333v43.35c0 8.471 6.868 15.332 15.342 15.332h14.542L26.37 87.702 40.2 74.015h24.954c8.473 0 15.342-6.86 15.342-15.333v-43.35C80.496 6.868 73.627 0 65.154 0Z"/><path fill="#E7E7E7" d="m26.369 87.702 3.515-13.687H15.342C6.868 74.015 0 67.155 0 58.682v-43.35C0 6.868 6.868 0 15.342 0h49.812c8.473 0 15.342 6.867 15.342 15.333v43.35c0 8.471-6.869 15.332-15.342 15.332H40.2L26.37 87.702Z"/><path fill="#33BFBF" d="M64.971 36.822c0 13.653-11.068 24.718-24.723 24.718S15.525 50.476 15.525 36.823c0-13.654 11.068-24.72 24.723-24.72S64.97 23.17 64.97 36.822Z"/><path fill="#fff" d="M37.653 47.86c-.67 0-1.3-.291-1.734-.8l-9.7-11.424a2.273 2.273 0 0 1 .258-3.203 2.269 2.269 0 0 1 3.204.264l7.972 9.386 13.154-15.502a2.274 2.274 0 0 1 3.468 2.94L39.381 47.06c-.427.508-1.064.8-1.728.8Z"/></svg>