<svg width="1730" height="1193" viewBox="0 0 1730 1193" fill="none" xmlns="http://www.w3.org/2000/svg">
<g clip-path="url(#clip0_82_281)">
<path d="M-1032.38 417.189H697.622V416.389H-1032.38V417.189Z" fill="#ECECEC"/>
<path d="M1493.17 1064.43H1607.78V1065.23H1493.17V1064.43Z" fill="#ECECEC"/>
<path d="M1167.06 1073.12H1197.13V1073.92H1167.06V1073.12Z" fill="#ECECEC"/>
<path d="M1423.3 1034.7H1489.71V1035.5H1423.3V1034.7Z" fill="#ECECEC"/>
<path d="M232.632 1040.08H382.074V1040.88H232.632V1040.08Z" fill="#ECECEC"/>
<path d="M412.876 1040.88H434.798V1040.08H412.876V1040.88Z" fill="#ECECEC"/>
<path d="M506.012 1054.4H830.13V1053.6H506.012V1054.4Z" fill="#ECECEC"/>
<path d="M203.059 -34.7054C192.652 -34.7054 184.178 -26.8637 184.178 -17.2334V851.826C184.178 861.456 192.652 869.298 203.059 869.298H871.191C881.598 869.298 890.072 861.456 890.072 851.826V-17.2334C890.072 -26.8637 881.598 -34.7054 871.191 -34.7054H203.059ZM871.191 870.099H203.059C192.179 870.099 183.313 861.907 183.313 851.826V-17.2334C183.313 -27.3014 192.179 -35.5059 203.059 -35.5059H871.191C882.071 -35.5059 890.937 -27.3014 890.937 -17.2334V851.826C890.937 861.907 882.071 870.099 871.191 870.099Z" fill="#ECECEC"/>
<path d="M951.447 -34.7054C941.04 -34.7054 932.566 -26.8637 932.566 -17.2334V851.826C932.566 861.456 941.04 869.298 951.447 869.298H1619.58C1629.99 869.298 1638.46 861.456 1638.46 851.826V-17.2334C1638.46 -26.8637 1629.99 -34.7054 1619.58 -34.7054H951.447ZM1619.58 870.099H951.447C940.567 870.099 931.701 861.907 931.701 851.826V-17.2334C931.701 -27.3014 940.567 -35.5059 951.447 -35.5059H1619.58C1630.46 -35.5059 1639.32 -27.3014 1639.32 -17.2334V851.826C1639.32 861.907 1630.46 870.099 1619.58 870.099Z" fill="#ECECEC"/>
<path d="M398.347 1011.76H889.613V345.264H398.347V1011.76Z" fill="#F1F2F2"/>
<path d="M415.714 489.342H872.245V366.25H415.714V489.342Z" fill="#E1E1E1"/>
<path d="M441.637 489.341H415.714V386.173H441.637V489.341Z" fill="#ECECEC"/>
<path d="M541.112 489.341H567.049V386.173H541.112V489.341Z" fill="#ECECEC"/>
<path d="M728.345 485.264L702.786 489.342L683.851 387.674L709.409 383.597L728.345 485.264Z" fill="#ECECEC"/>
<path d="M473.777 489.342H447.841V399.769H473.777V489.342Z" fill="#ECECEC"/>
<path d="M507.458 489.342H533.395V399.769H507.458V489.342Z" fill="#ECECEC"/>
<path d="M657.915 489.342H683.851V399.769H657.915V489.342Z" fill="#ECECEC"/>
<path d="M622.112 484.139L596.797 489.342L575.793 401.894L601.108 396.691L622.112 484.139Z" fill="#ECECEC"/>
<path d="M496.2 489.341H483.238V381.045H496.2V489.341Z" fill="#ECECEC"/>
<path d="M637.492 489.341H650.467V381.045H637.492V489.341Z" fill="#ECECEC"/>
<path d="M415.714 631.932H872.245V508.827H415.714V631.932Z" fill="#E1E1E1"/>
<path d="M846.309 631.932H872.245V528.764H846.309V631.932Z" fill="#ECECEC"/>
<path d="M720.911 631.932H746.847V528.764H720.911V631.932Z" fill="#ECECEC"/>
<path d="M559.615 627.854L585.173 631.931L604.109 530.251L578.551 526.187L559.615 627.854Z" fill="#ECECEC"/>
<path d="M814.182 631.932H840.119V542.358H814.182V631.932Z" fill="#ECECEC"/>
<path d="M754.564 631.932H780.501V542.358H754.564V631.932Z" fill="#ECECEC"/>
<path d="M604.109 631.932H630.045V542.358H604.109V631.932Z" fill="#ECECEC"/>
<path d="M665.848 626.729L691.163 631.932L712.166 544.484L686.851 539.281L665.848 626.729Z" fill="#ECECEC"/>
<path d="M791.76 631.932H804.721V523.636H791.76V631.932Z" fill="#ECECEC"/>
<path d="M637.492 631.932H650.467V523.636H637.492V631.932Z" fill="#ECECEC"/>
<path d="M441.637 631.932H415.714V528.764H441.637V631.932Z" fill="#ECECEC"/>
<path d="M473.777 631.932H447.841V542.358H473.777V631.932Z" fill="#ECECEC"/>
<path d="M507.458 631.932H533.395V542.358H507.458V631.932Z" fill="#ECECEC"/>
<path d="M496.2 631.932H483.238V523.636H496.2V631.932Z" fill="#ECECEC"/>
<path d="M415.714 774.509H872.245V651.417H415.714V774.509Z" fill="#E1E1E1"/>
<path d="M677.742 774.509H703.678V671.341H677.742V774.509Z" fill="#ECECEC"/>
<path d="M864.987 770.432L839.429 774.51L820.48 672.842L846.039 668.765L864.987 770.432Z" fill="#ECECEC"/>
<path d="M584.484 774.509H610.421V684.936H584.484V774.509Z" fill="#ECECEC"/>
<path d="M644.088 774.509H670.024V684.936H644.088V774.509Z" fill="#ECECEC"/>
<path d="M794.558 774.509H820.481V684.936H794.558V774.509Z" fill="#ECECEC"/>
<path d="M758.741 769.306L733.426 774.509L712.437 687.074L737.751 681.871L758.741 769.306Z" fill="#ECECEC"/>
<path d="M619.868 774.509H632.843V666.226H619.868V774.509Z" fill="#ECECEC"/>
<path d="M774.135 774.509H787.096V666.226H774.135V774.509Z" fill="#ECECEC"/>
<path d="M566.616 770.432L541.058 774.51L522.123 672.842L547.681 668.765L566.616 770.432Z" fill="#ECECEC"/>
<path d="M496.187 774.509H522.123V684.936H496.187V774.509Z" fill="#ECECEC"/>
<path d="M460.37 769.306L435.055 774.509L414.065 687.074L439.38 681.871L460.37 769.306Z" fill="#ECECEC"/>
<path d="M488.739 774.509H475.764V666.226H488.739V774.509Z" fill="#ECECEC"/>
<path d="M313.59 1013.51H398.347V345.264H313.59V1013.51Z" fill="#E1E1E1"/>
<path d="M1177.13 996.067H1105.12L1142.98 710.775C1144.58 698.693 1156.47 688.9 1169.51 688.9H1483.71L1437.64 996.067H1177.13Z" fill="#F6F7F8"/>
<path d="M1405.5 996.067H1477.52L1515.37 710.775C1516.98 698.693 1507.7 688.9 1494.64 688.9H1469.89C1456.85 688.9 1444.97 698.693 1443.36 710.775L1405.5 996.067Z" fill="#F1F2F2"/>
<path d="M1378.97 995.729L1392.03 857.742C1392.61 851.576 1397.76 846.623 1404.38 845.835L1409.75 845.21C1418.65 844.16 1425.55 837.506 1426.33 829.239L1428.71 804.088C1429.68 793.77 1420.91 784.902 1409.72 784.902H1530.06C1541.24 784.902 1550.03 793.77 1549.05 804.088L1546.67 829.239C1545.89 837.506 1538.98 844.16 1530.09 845.21L1524.73 845.835C1518.1 846.623 1512.95 851.576 1512.37 857.742L1499.33 995.729C1498.37 1005.8 1489.27 1013.51 1478.35 1013.51H1358.01C1368.93 1013.51 1378.03 1005.8 1378.97 995.729Z" fill="#E7E7E7"/>
<path d="M1047.81 823.198C1045.76 801.524 1026.15 784.902 1002.64 784.902H1107.42C1130.92 784.902 1150.53 801.524 1152.57 823.198L1162.91 932.583H1058.15L1047.81 823.198Z" fill="#E7E7E7"/>
<path d="M956.109 784.902H1002.64C1026.15 784.902 1045.76 801.524 1047.81 823.198L1058.15 932.583H1307.66L1318.02 823.198C1320.06 801.524 1339.67 784.902 1363.19 784.902H1409.72C1420.91 784.902 1429.68 793.77 1428.71 804.088L1426.33 829.239C1425.55 837.506 1418.65 844.16 1409.75 845.21L1404.38 845.835C1397.76 846.623 1392.61 851.576 1392.03 857.742L1378.97 995.729C1378.03 1005.8 1368.93 1013.51 1358.01 1013.51H1007.81C996.9 1013.51 987.79 1005.8 986.844 995.729L973.801 857.742C973.22 851.576 968.071 846.623 961.435 845.835L956.069 845.21C947.176 844.16 940.269 837.506 939.485 829.239L937.106 804.088C936.133 793.77 944.918 784.902 956.109 784.902Z" fill="#F1F2F2"/>
<path d="M404.591 311.97C404.591 311.97 400.752 288.582 419.188 273.587C437.61 258.604 435.988 249.674 430.73 248.511C425.459 247.348 420.607 262.343 412.498 266.47C412.498 266.47 412.241 245.096 420.472 237.23C428.703 229.363 433.028 209.089 425.189 208.727C417.363 208.376 416.552 220.771 414.93 229.563C413.308 238.355 404.591 250.724 404.591 250.724C404.591 250.724 402.888 231.614 397.563 223.735C392.251 215.868 406.429 197.871 400.955 190.004C395.495 182.137 385.764 197.12 386.575 213.992C387.385 230.864 399.536 248.848 396.711 266.47C396.711 266.47 391.346 254.101 386.534 252.976C381.722 251.85 376.857 243.671 373.613 240.631C370.383 237.605 366.328 248.098 373.613 257.841C380.912 267.596 399.536 293.66 396.711 314.734L404.591 311.97Z" fill="#E7E7E7"/>
<path d="M415.606 301.327L421.648 336.371C423.499 347.19 414.471 356.995 402.618 356.995H396.184C384.345 356.995 375.303 347.19 377.168 336.371L383.196 301.327H415.606Z" fill="#E7E7E7"/>
<path d="M777.906 350.116H796.706V275.351H777.906V350.116Z" fill="#ECECEC"/>
<path d="M687.027 350.116H705.828V275.351H687.027V350.116Z" fill="#ECECEC"/>
<path d="M570.144 347.165L588.66 350.116L602.378 276.439L583.862 273.487L570.144 347.165Z" fill="#ECECEC"/>
<path d="M754.619 350.116H773.419V285.206H754.619V350.116Z" fill="#ECECEC"/>
<path d="M711.423 350.116H730.223V285.206H711.423V350.116Z" fill="#ECECEC"/>
<path d="M602.379 350.116H621.179V285.206H602.379V350.116Z" fill="#ECECEC"/>
<path d="M647.129 346.351L665.483 350.116L680.702 286.757L662.348 282.979L647.129 346.351Z" fill="#ECECEC"/>
<path d="M738.373 350.116H747.766V271.636H738.373V350.116Z" fill="#ECECEC"/>
<path d="M626.585 350.116H635.978V271.636H626.585V350.116Z" fill="#ECECEC"/>
<path d="M467.979 349.278H559.548V290.771H467.979V349.278Z" fill="#ECECEC"/>
<path d="M796.95 358.408H873.664V314.734H796.95V358.408Z" fill="#ECECEC"/>
<path d="M817.372 320.024H855.729V276.351H817.372V320.024Z" fill="#ECECEC"/>
<path d="M1405.5 570.374H1496.75V218.558H1405.5V570.374Z" fill="#E1E1E1"/>
<path d="M1145.75 571.312H1486.96V218.558H1145.75V571.312Z" fill="#E1E1E1"/>
<path d="M1134.73 571.312H1488.76V218.558H1134.73V571.312Z" fill="#F1F2F2"/>
<path d="M1149.86 555.102H1474.22V229.801H1149.86V555.102Z" fill="white"/>
<path d="M1149.86 555.102H1155.88V229.801H1149.86V555.102Z" fill="#E1E1E1"/>
<path d="M1154.87 472.495H1475.06V463.728H1154.87V472.495Z" fill="#E1E1E1"/>
<path d="M1149.86 463.728H1479.3V448.995H1149.86V463.728Z" fill="#F1F2F2"/>
<path d="M1586.98 1121.23C1586.98 1141.26 1286.62 1157.49 916.117 1157.49C545.613 1157.49 245.255 1141.26 245.255 1121.23C245.255 1101.21 545.613 1084.99 916.117 1084.99C1286.62 1084.99 1586.98 1101.21 1586.98 1121.23Z" fill="#F6F7F8"/>
<path d="M1553.65 879.178C1553.51 879.103 1543.17 871.024 1529.82 870.974C1523.16 870.961 1515.75 873.1 1508.92 879.266C1506.18 881.73 1503.94 885.544 1501.9 890.334C1494.83 907.056 1490.66 936.222 1488.19 961.348C1485.73 986.449 1485 1007.42 1485 1007.44L1488.27 1007.54C1488.27 1007.54 1488.33 1005.83 1488.46 1002.82C1488.96 992.24 1490.47 965.525 1494 939.586C1495.76 926.616 1498.03 913.834 1500.91 903.391C1503.75 892.948 1507.36 884.819 1511.21 881.429C1517.48 875.801 1523.89 874.013 1529.82 874C1535.75 874 1541.23 875.864 1545.2 877.765C1547.17 878.703 1548.79 879.653 1549.89 880.354C1550.44 880.716 1550.86 881.004 1551.15 881.204L1551.47 881.429L1551.57 881.504L1553.65 879.178Z" fill="#192F36"/>
<path d="M1486.64 1028.77C1486.64 1028.74 1488.27 1013.23 1488.27 990.714C1488.27 969.515 1486.83 942.113 1481.2 915.524C1475.58 888.934 1465.81 863.133 1448.9 845.173L1446.44 847.161C1462.74 864.446 1472.44 889.797 1478 916.099C1483.55 942.413 1485 969.64 1485 990.714C1485 1001.91 1484.6 1011.36 1484.19 1018C1483.99 1021.33 1483.78 1023.94 1483.64 1025.75C1483.49 1027.53 1483.38 1028.47 1483.38 1028.48L1486.64 1028.77Z" fill="#192F36"/>
<path d="M1491.47 1014.99C1491.47 1014.98 1491.39 1013.86 1491.27 1011.76C1490.91 1005.5 1490.18 990.577 1490.18 971.867C1490.18 948.992 1491.27 920.426 1495.42 895.038C1497.5 882.343 1500.34 870.437 1504.17 860.469C1507.99 850.488 1512.82 842.471 1518.68 837.494L1516.47 835.268C1509.99 840.783 1505.03 849.225 1501.08 859.456C1489.34 890.147 1486.93 937.398 1486.92 971.867C1486.92 996.918 1488.22 1015.17 1488.22 1015.19L1491.47 1014.99Z" fill="#192F36"/>
<path d="M1486.65 1015.08C1486.64 1015.04 1486.42 990.839 1482.65 964.687C1480.76 951.605 1477.97 938.048 1473.85 926.717C1469.71 915.41 1464.32 906.255 1456.6 902.103C1452.63 900.002 1448.82 899.039 1445.22 899.039C1439.36 899.039 1434.28 901.578 1430.07 905.205C1423.76 910.645 1419.17 918.562 1416.07 925.141C1412.99 931.707 1411.45 936.947 1411.44 936.997L1414.58 937.785L1414.71 937.397C1415.33 935.446 1418.31 926.416 1423.57 917.999C1426.19 913.797 1429.37 909.745 1433.02 906.818C1436.68 903.879 1440.71 902.066 1445.22 902.066C1448.18 902.066 1451.41 902.841 1454.98 904.73C1461.42 908.094 1466.77 916.649 1470.76 927.692C1476.78 944.226 1479.96 966.126 1481.61 983.848C1482.42 992.702 1482.87 1000.53 1483.11 1006.12C1483.23 1008.92 1483.28 1011.17 1483.33 1012.71C1483.37 1014.26 1483.38 1015.09 1483.38 1015.1L1486.65 1015.08Z" fill="#192F36"/>
<path d="M1497.83 1015C1497.83 1014.99 1497.73 1013.39 1497.63 1010.55C1497.53 1007.7 1497.42 1003.62 1497.42 998.718C1497.42 987.062 1498 970.69 1500.49 954.982C1502.95 939.273 1507.41 924.215 1514.83 915.298C1520.34 908.657 1525.58 906.481 1530.41 906.468C1533.89 906.468 1537.29 907.631 1540.48 909.482C1545.28 912.246 1549.5 916.511 1552.47 920.088C1553.96 921.864 1555.13 923.477 1555.94 924.64C1556.35 925.216 1556.66 925.679 1556.86 926.004C1557.07 926.316 1557.16 926.479 1557.16 926.479L1560.01 924.991C1559.97 924.928 1556.77 919.663 1551.53 914.322C1548.9 911.658 1545.77 908.969 1542.23 906.918C1538.67 904.867 1534.7 903.441 1530.41 903.441C1524.4 903.429 1518.1 906.331 1512.24 913.459C1504.19 923.202 1499.79 938.598 1497.25 954.544C1494.73 970.49 1494.17 986.962 1494.17 998.718C1494.17 1008.61 1494.57 1015.15 1494.57 1015.16L1497.83 1015Z" fill="#192F36"/>
<path d="M1490.18 1025.13C1490.18 1025.12 1494.44 973.13 1494.44 921.189C1494.44 899.703 1493.71 878.216 1491.64 860.381C1490.61 851.464 1489.25 843.46 1487.45 836.806C1485.64 830.14 1483.45 824.824 1480.57 821.21L1477.93 823.011C1480.38 826.05 1482.54 831.078 1484.27 837.544C1489.52 856.942 1491.18 889.059 1491.16 921.189C1491.16 947.091 1490.11 973.03 1489.04 992.478C1488.52 1002.21 1487.97 1010.33 1487.58 1016C1487.18 1021.67 1486.92 1024.9 1486.92 1024.91L1490.18 1025.13Z" fill="#192F36"/>
<path d="M1431.52 917.499C1431.52 917.499 1445.66 922.314 1441.45 933.695C1437.25 945.076 1392.58 963.799 1392.58 963.799C1392.58 963.799 1373.88 947.928 1391.05 922.126C1408.23 896.312 1431.14 909.357 1431.52 917.499Z" fill="#33BFBF"/>
<path d="M1392.58 963.799C1392.58 963.799 1383.78 956.333 1383.8 943.338C1383.8 937.373 1385.65 930.231 1391.05 922.127C1398.65 910.708 1407.38 906.894 1414.77 906.894C1424.1 906.894 1431.32 912.959 1431.52 917.499C1431.52 917.499 1442.25 921.151 1442.24 929.618C1442.22 930.869 1441.99 932.232 1441.45 933.696C1437.25 945.077 1392.58 963.799 1392.58 963.799Z" fill="#33BFBF"/>
<path d="M1492.93 895.838C1492.93 895.838 1477.89 895.25 1477.04 907.257C1476.19 919.251 1509.63 952.444 1509.63 952.444C1509.63 952.444 1533.5 944.452 1528.37 914.523C1523.25 884.582 1496.68 888.459 1492.93 895.838Z" fill="#33BFBF"/>
<path d="M1509.63 952.444C1509.63 952.444 1506.6 949.43 1502.38 944.902C1501.54 943.989 1500.64 943.014 1499.72 941.988C1498 940.1 1496.18 938.036 1494.33 935.885C1493.25 934.634 1492.18 933.346 1491.11 932.045C1487.79 927.993 1484.6 923.791 1482.08 919.864C1479.05 915.123 1477.03 910.796 1477.03 907.719C1477.03 907.557 1477.03 907.407 1477.04 907.257C1477.82 896.313 1490.39 895.838 1492.61 895.838C1492.83 895.838 1492.94 895.838 1492.94 895.838C1494.41 892.949 1499.36 890.598 1505.17 890.598C1514.18 890.598 1525.25 896.288 1528.37 914.523C1528.87 917.412 1529.09 920.101 1529.09 922.603C1529.1 945.928 1509.63 952.444 1509.63 952.444Z" fill="#33BFBF"/>
<path d="M1505.68 838.406C1505.68 838.406 1495.65 837.405 1496.46 831.752C1497.26 826.099 1535.44 811.554 1557.97 835.079C1557.97 835.079 1543.55 858.016 1522.7 858.304C1501.84 858.604 1505.68 838.406 1505.68 838.406Z" fill="#33BFBF"/>
<path d="M1522.24 858.318C1514.51 858.318 1510.26 855.441 1507.96 851.877C1507.21 850.701 1506.67 849.45 1506.29 848.212C1505.59 845.986 1505.4 843.772 1505.4 842.009C1505.4 839.87 1505.68 838.407 1505.68 838.407C1505.68 838.407 1496.42 837.494 1496.41 832.403C1496.41 832.191 1496.42 831.978 1496.46 831.753C1496.92 828.451 1510.18 822.11 1525.6 822.11C1536.56 822.11 1548.62 825.312 1557.97 835.08C1557.97 835.08 1555.12 839.62 1550.11 844.685C1543.86 851.014 1534.27 858.142 1522.7 858.305C1522.55 858.318 1522.39 858.318 1522.24 858.318Z" fill="#33BFBF"/>
<path d="M1486.99 824.675C1486.99 824.675 1496.07 828.739 1498.61 823.549C1501.17 818.359 1477.07 787.317 1444.51 796.259C1444.51 796.259 1443.64 822.786 1461.17 833.242C1478.69 843.697 1486.99 824.675 1486.99 824.675Z" fill="#33BFBF"/>
<path d="M1471.23 836.381C1468.3 836.381 1464.94 835.493 1461.17 833.242C1445.21 823.724 1444.5 800.899 1444.5 796.872C1444.5 796.472 1444.51 796.259 1444.51 796.259C1448.56 795.146 1452.5 794.658 1456.25 794.658C1481.19 794.658 1498.8 816.37 1498.8 822.611C1498.8 822.986 1498.73 823.299 1498.61 823.549C1497.63 825.575 1495.64 826.188 1493.58 826.188C1490.37 826.188 1486.99 824.675 1486.99 824.675C1486.99 824.675 1486.23 826.413 1484.69 828.552C1484.04 829.452 1483.26 830.415 1482.33 831.366C1479.73 833.992 1476.05 836.381 1471.23 836.381Z" fill="#33BFBF"/>
<path d="M1534.47 912.922C1534.47 912.922 1527.55 907.756 1535.02 905.23C1542.5 902.704 1579.15 903.416 1579.53 937.022C1579.53 937.022 1536.85 943.588 1531.55 930.781C1526.26 917.987 1534.47 912.922 1534.47 912.922Z" fill="#33BFBF"/>
<path d="M1557.08 938.699C1545.88 938.699 1534.16 937.098 1531.55 930.782C1530.26 927.655 1529.78 925.004 1529.78 922.753C1529.79 915.812 1534.47 912.922 1534.47 912.922C1534.47 912.922 1531.55 910.734 1531.55 908.508C1531.56 907.319 1532.41 906.106 1535.02 905.231C1536.54 904.718 1539.24 904.343 1542.6 904.343C1555.84 904.343 1579.23 910.221 1579.53 937.023C1579.53 937.023 1568.58 938.699 1557.08 938.699Z" fill="#33BFBF"/>
<path d="M1447.41 837.569C1447.41 837.569 1454.35 832.391 1446.87 829.864C1439.4 827.351 1402.74 828.063 1402.37 861.657C1402.37 861.657 1445.06 868.223 1450.35 855.428C1455.62 842.634 1447.41 837.569 1447.41 837.569Z" fill="#33BFBF"/>
<path d="M1424.8 863.345C1413.31 863.345 1402.37 861.657 1402.37 861.657C1402.66 834.855 1426.06 828.977 1439.3 828.977C1442.66 828.977 1445.36 829.364 1446.87 829.865C1449.48 830.753 1450.33 831.953 1450.35 833.154C1450.35 835.38 1447.41 837.569 1447.41 837.569C1447.41 837.569 1452.1 840.458 1452.12 847.399C1452.12 847.824 1452.1 848.262 1452.06 848.712C1451.97 849.95 1451.71 851.301 1451.28 852.764C1451.04 853.615 1450.73 854.503 1450.35 855.428C1447.74 861.744 1436.01 863.345 1424.8 863.345Z" fill="#33BFBF"/>
<path d="M1469.99 864.634C1469.99 864.634 1470.59 858.343 1465.12 860.807C1459.63 863.27 1440.52 882.356 1460.34 900.453C1460.34 900.453 1486.99 882.181 1482.19 872.663C1477.38 863.145 1469.99 864.634 1469.99 864.634Z" fill="#33BFBF"/>
<path d="M1460.33 900.452C1453.86 894.549 1451.55 888.533 1451.54 883.043C1451.54 871.674 1461.42 862.469 1465.12 860.806C1466.01 860.406 1466.75 860.23 1467.35 860.23C1469.76 860.23 1470.01 862.932 1470.01 864.095C1470.01 864.42 1469.98 864.633 1469.98 864.633C1469.98 864.633 1470.4 864.545 1471.11 864.545C1473.36 864.545 1478.53 865.408 1482.19 872.662C1482.58 873.45 1482.77 874.301 1482.77 875.201C1482.76 879.416 1478.68 884.619 1474 889.209C1473.15 890.047 1472.28 890.872 1471.4 891.648C1465.85 896.675 1460.33 900.452 1460.33 900.452Z" fill="#33BFBF"/>
<path d="M1540.66 873.587C1540.66 873.587 1536.52 868.572 1542.59 867.947C1548.65 867.334 1575.8 874.038 1569.47 899.126C1569.47 899.126 1536.39 896.825 1534.98 886.394C1533.56 875.976 1540.66 873.587 1540.66 873.587Z" fill="#33BFBF"/>
<path d="M1569.47 899.126C1569.47 899.126 1536.39 896.825 1534.98 886.394C1534.85 885.456 1534.79 884.593 1534.79 883.78C1534.78 875.563 1540.66 873.587 1540.66 873.587C1540.66 873.587 1539.28 871.911 1539.28 870.373C1539.29 869.26 1540.04 868.209 1542.59 867.947C1542.83 867.922 1543.12 867.909 1543.43 867.909C1550.02 867.909 1570.43 873.612 1570.43 891.947C1570.43 894.148 1570.14 896.537 1569.47 899.126Z" fill="#33BFBF"/>
<path d="M1433.99 1108.23H1540.96L1555.17 1011.98H1419.77L1433.99 1108.23Z" fill="#192F36"/>
<path d="M1540.96 1108.23H1433.99L1419.77 1011.98H1555.17L1551.17 1039.03L1551.07 1039.83L1540.96 1108.23Z" fill="#4B5B61"/>
<path d="M1560.68 1005.6V1013.93C1560.68 1019.51 1555.78 1024.03 1549.73 1024.03H1422.08C1416.04 1024.03 1411.13 1019.51 1411.13 1013.93V1005.6H1560.68Z" fill="#192F36"/>
<path d="M976.832 645.847C976.832 645.847 922.211 639.474 839.472 660.502C839.472 660.502 826.154 523.414 827.747 504.579C829.339 485.754 955.476 491.264 955.476 491.264C955.476 491.264 958.735 546.124 966.846 579.229C974.969 612.334 980.985 639.485 976.832 645.847Z" fill="#33BFBF"/>
<path d="M840.848 659.479C839.672 649.125 838.078 629.67 837.857 599.061C842.037 614.269 847.406 630.698 854.221 648.278H854.209L854.246 656.328C849.87 657.299 845.396 658.349 840.848 659.479Z" fill="#33BFBF"/>
<path d="M798.935 1101.13L821.421 1106.98L826.779 1074.77L829.663 1057.54L807.164 1051.68L803.34 1074.77L798.935 1101.13Z" fill="#F58A7D"/>
<path d="M927.993 1103.11L950.172 1105.96L950.385 1074.85L950.527 1055.53L928.325 1052.71L928.171 1074.85L927.993 1103.11Z" fill="#F58A7D"/>
<path d="M950.479 1074.21H927.993L928.041 1068.07H950.527L950.479 1074.21Z" fill="#CD6F62"/>
<path d="M826.335 1074.21H803.032L804.557 1065L807.215 1065.18L827.614 1066.55L826.335 1074.21Z" fill="#CD6F62"/>
<path d="M699.635 515.064L677.046 508.945L681.176 532.561C681.176 532.561 701.675 536.903 703.677 527.13L699.635 515.064Z" fill="#F58A7D"/>
<path d="M655.536 514.411L666.171 533.522L681.143 532.461L677.178 508.945L655.536 514.411Z" fill="#F58A7D"/>
<path d="M730.308 521.519L693.686 514.065L690.361 530.243L723.609 537.618L730.308 521.519Z" fill="#F58A7D"/>
<path d="M840.93 506.518C840.93 506.518 840.138 507.39 838.778 508.862C834.152 513.824 822.858 525.797 811.268 536.127C801.769 544.532 792.133 551.861 785.862 553.345C767.914 557.581 702.653 539.979 702.653 539.979L709.394 515.738C709.394 515.738 770.19 523.135 774.915 523.135C778.489 523.135 815.474 474.065 824.442 470.032L840.93 506.518Z" fill="#33BFBF"/>
<path d="M811.226 536.595C812.935 523.518 817.134 511.265 822.841 501.777C822.924 508.979 823.161 516.58 823.517 524.398C821.88 526.101 820.172 527.85 818.416 529.599C816.079 531.954 813.658 534.308 811.226 536.595Z" fill="#33BFBF"/>
<path d="M798.959 1097.38L824.257 1096.74C825.201 1096.72 826.047 1097.31 826.292 1098.15L831.599 1117.1C832.151 1119.06 830.606 1120.97 828.425 1120.99C819.281 1121.07 806.08 1120.91 794.607 1121.2C781.198 1121.53 772.667 1120.93 756.941 1121.31C747.43 1121.55 744.439 1112.72 748.398 1111.82C766.367 1107.7 778.122 1108.51 793.443 1099.19C795.11 1098.18 796.961 1097.43 798.959 1097.38Z" fill="#192F36"/>
<path d="M784.153 1097.82L783.959 1097.9C783.74 1098.02 783.643 1098.17 783.631 1098.44C783.607 1099.09 783.837 1099.59 784.347 1099.98C785.804 1101.07 789.591 1101.17 794.628 1100.29C790.926 1098.83 785.864 1097.25 784.153 1097.82ZM796.534 1100.93L796.474 1100.94C792.796 1101.69 786.253 1102.66 783.655 1100.73C782.878 1100.14 782.502 1099.35 782.551 1098.38C782.575 1097.8 782.866 1097.34 783.388 1097.07C786.131 1095.59 795.515 1099.57 796.571 1100.03L796.886 1100.52L796.534 1100.93Z" fill="#33BFBF"/>
<path d="M790.144 1092.74C789.731 1092.9 789.709 1093.12 789.698 1093.21C789.519 1094.62 793.069 1098.05 795.725 1099.51C795.39 1097.89 794.52 1094.57 792.712 1093.2C792.075 1092.72 791.406 1092.54 790.647 1092.62L790.144 1092.74ZM796.562 1100.84L796.194 1100.83C793.605 1099.77 788.403 1095.43 788.704 1093.07C788.771 1092.52 789.151 1091.83 790.513 1091.65C791.528 1091.52 792.477 1091.79 793.314 1092.42C796.082 1094.52 796.853 1100.08 796.886 1100.32L796.696 1100.77L796.562 1100.84Z" fill="#33BFBF"/>
<path d="M928.65 1097.38L954.251 1096.74C955.206 1096.72 956.062 1097.31 956.297 1098.15L961.681 1117.1C962.239 1119.06 960.676 1120.97 958.456 1120.99C949.215 1121.07 935.856 1120.91 924.246 1121.2C910.664 1121.53 902.031 1120.93 886.117 1121.31C876.492 1121.55 873.478 1112.72 877.472 1111.82C895.668 1107.7 907.563 1108.51 923.068 1099.19C924.755 1098.18 926.628 1097.43 928.65 1097.38Z" fill="#192F36"/>
<path d="M914.234 1097.82L914.04 1097.9C913.833 1098.02 913.736 1098.17 913.724 1098.44C913.688 1099.09 913.93 1099.59 914.44 1099.98C915.897 1101.07 919.685 1101.17 924.723 1100.29C921.02 1098.83 915.946 1097.25 914.234 1097.82ZM926.629 1100.93L926.556 1100.94C922.89 1101.69 916.346 1102.66 913.748 1100.73C912.959 1100.14 912.595 1099.35 912.631 1098.38C912.668 1097.8 912.947 1097.34 913.481 1097.07C916.225 1095.59 925.609 1099.57 926.665 1100.03L926.969 1100.52L926.629 1100.93Z" fill="#33BFBF"/>
<path d="M919.387 1092.74C918.921 1092.9 918.884 1093.12 918.871 1093.21C918.67 1094.62 922.681 1098.05 925.674 1099.51C925.297 1097.89 924.316 1094.57 922.266 1093.2C921.562 1092.72 920.795 1092.54 919.953 1092.62L919.387 1092.74ZM926.617 1100.84L926.202 1100.83C923.285 1099.77 917.425 1095.43 917.765 1093.07C917.84 1092.52 918.255 1091.83 919.802 1091.65C920.946 1091.52 922.002 1091.79 922.958 1092.42C926.064 1094.52 926.931 1100.08 926.969 1100.32L926.755 1100.77L926.617 1100.84Z" fill="#33BFBF"/>
<path d="M975.373 632.854C987.628 681.951 966.589 1068.07 966.589 1068.07H925.907L908.513 746.285L844.457 1068.07L800.983 1065.15C829.398 815.876 854.526 667.056 854.526 667.056L854.464 648.25L975.373 632.854Z" fill="#192F36"/>
<path d="M925.945 1068.07H925.935L923.896 1021.99H923.907L925.945 1068.07Z" fill="white"/>
<path d="M912.616 818.204L908.532 746.567V746.521L912.629 818.192C912.629 818.192 912.629 818.192 912.616 818.204Z" fill="#FAFBFC"/>
<path d="M923.896 1021.99H923.883L912.629 818.215C912.642 818.204 912.642 818.204 912.642 818.204L923.896 1021.99Z" fill="#F7F8F9"/>
<path d="M845.027 1068.07L854.233 1021.99H854.246L845.027 1068.07Z" fill="white"/>
<path d="M854.246 1021.99L859.367 994.338L854.246 1021.99Z" fill="#F7F8F9"/>
<path d="M804.436 1065L800.983 1064.77C802.654 1050.14 804.301 1035.89 805.935 1021.96C804.301 1035.89 802.654 1050.14 800.996 1064.77L804.436 1065ZM845.018 726.088C850.793 687.567 854.246 667.07 854.246 667.07L854.209 656.406L854.246 667.07C854.246 667.07 850.805 687.567 845.018 726.088Z" fill="white"/>
<path d="M815.335 948.256H815.323C827.369 849.546 837.976 773.908 845.027 726.041C837.976 773.908 827.369 849.557 815.335 948.256Z" fill="#FAFBFC"/>
<path d="M806.117 1021.99H806.104C809.245 996.156 812.322 971.568 815.31 948.256H815.323C812.322 971.568 809.245 996.156 806.117 1021.99Z" fill="#F7F8F9"/>
<path d="M966.578 1068.07H925.908L923.437 1022.3L923.425 1022.14L912.393 818.041L908.513 746.311V746.357L908.501 746.323L905.882 710.093C905.882 710.093 887.19 772.916 894.874 814.779L859.184 994.08L853.599 1022.14L853.562 1022.3L844.457 1068.07L807.111 1065.56L804.443 1065.38L800.983 1065.15C802.651 1050.51 804.307 1036.24 805.95 1022.3C805.95 1022.27 805.962 1022.19 805.974 1022.14C809.014 996.293 812.003 971.683 814.919 948.351C827.211 849.663 838.046 774.022 845.248 726.161C851.067 687.605 854.526 667.089 854.526 667.089L854.489 656.415L854.464 648.285L862.173 647.304C877.949 645.297 897.605 642.799 916.309 640.416L943.611 636.949C945.551 649.185 946.786 657.202 946.786 657.202L977.882 653.371C984.071 747.337 966.578 1068.07 966.578 1068.07Z" fill="#1F2F3E"/>
<path d="M953.321 452.039C951.86 475.956 952.965 499.818 955.25 522.045C956.92 538.292 959.266 553.655 961.747 567.532C967.556 600.038 974.164 624.399 975.11 632.897C957.485 635.143 891.112 643.619 854.904 648.214C811.082 535.002 827.589 469.103 827.589 469.103C827.589 469.103 840.117 464.156 855.15 460.39C857.128 459.879 859.154 459.414 861.217 458.983C874.568 456.123 896.86 453.752 912.324 452.47C915.578 452.198 918.882 452.005 922.1 451.869C938.521 451.176 953.321 452.039 953.321 452.039Z" fill="#17282F"/>
<path d="M888.756 400.397C889.631 416.082 891.429 445.484 905.459 452.932C905.459 452.932 896.726 468.388 877.83 469.955C863.541 471.145 864.502 458.057 864.502 458.057C872.767 452.314 870.784 442.624 864.489 431.699L888.756 400.397Z" fill="#F58A7D"/>
<path d="M868.572 439.311C868.479 439.091 868.386 438.87 868.306 438.65C868.399 438.87 868.492 439.091 868.585 439.311H868.572ZM864.488 431.702L868.545 427.022L864.488 431.702Z" fill="#CECECE"/>
<path d="M868.368 439.311C868.28 439.089 868.192 438.868 868.104 438.646C867.159 436.285 865.887 433.936 864.488 431.653L868.33 426.943L879.176 413.71C880.209 415.095 881.242 418.154 881.796 421.468C882.892 428.084 875.158 436.917 868.368 439.311Z" fill="#CD6F62"/>
<path d="M827.767 369.327C824.999 377.191 826.513 393.363 838.837 388.102C851.149 382.851 832.545 355.803 827.767 369.327Z" fill="#192F36"/>
<path d="M890.029 379.849C891.355 400.801 893.264 413.01 883.474 424.863C868.746 442.706 840.214 436.051 832.26 415.833C825.096 397.634 824.123 366.436 844.701 355.868C864.975 345.46 888.691 358.897 890.029 379.849Z" fill="#F58A7D"/>
<path d="M874.731 368.762V345.194C874.731 345.194 901.728 343.333 900.523 356.169C915.475 363.055 908.403 384.671 888.329 395.277C877.329 387.086 878.584 367.376 878.584 367.376C877.391 367.861 876.086 368.323 874.731 368.762Z" fill="#192F36"/>
<path d="M901.17 396.469C900.068 402.077 896.247 406.665 892.013 409.249C885.65 413.119 880.088 408.357 879.863 401.671C879.65 395.646 882.719 386.377 890.072 385.184C897.312 384.013 902.435 390.05 901.17 396.469Z" fill="#F58A7D"/>
<path d="M857.283 388.91C857.491 390.594 856.754 392.071 855.638 392.197C854.533 392.323 853.463 391.052 853.256 389.357C853.049 387.662 853.785 386.196 854.89 386.07C856.006 385.944 857.076 387.215 857.283 388.91Z" fill="#192F36"/>
<path d="M836.798 391.508C837.005 392.92 836.27 394.142 835.157 394.247C834.044 394.352 832.977 393.292 832.771 391.88C832.564 390.468 833.298 389.246 834.411 389.141C835.524 389.036 836.592 390.095 836.798 391.508Z" fill="#192F36"/>
<path d="M843.14 391.182C843.14 391.182 839.981 401.236 835.809 406.375C839.481 408.739 845.027 406.855 845.027 406.855L843.14 391.182Z" fill="#F15855"/>
<path d="M856.122 412.319C855.398 412.479 854.637 412.607 853.817 412.682C853.527 412.714 853.261 412.522 853.225 412.276C853.189 412.019 853.406 411.784 853.684 411.752C861.541 410.971 864.523 405.774 864.559 405.721L865.271 405.518L865.512 406.138C865.392 406.352 862.809 410.832 856.122 412.319Z" fill="#192F36"/>
<path d="M862.677 382.961C862.315 383.043 861.916 382.949 861.649 382.665C858.36 379.333 854.513 379.983 854.477 379.983C853.909 380.089 853.352 379.723 853.243 379.155C853.122 378.6 853.509 378.056 854.078 377.962C854.284 377.915 859.097 377.111 863.173 381.259C863.573 381.661 863.56 382.322 863.137 382.712L862.677 382.961Z" fill="#192F36"/>
<path d="M826.893 386.061L826.278 386.037C825.722 385.843 825.433 385.235 825.626 384.676C827.533 379.137 832.242 377.982 832.447 377.897C833.014 377.764 833.594 378.116 833.727 378.687C833.871 379.246 833.533 379.817 832.978 379.963C832.773 379.999 829.151 380.947 827.618 385.393C827.509 385.733 827.219 385.976 826.893 386.061Z" fill="#192F36"/>
<path d="M886.465 377.869C886.465 377.869 870.842 372.486 863.576 363.933C863.576 363.933 849.315 367.425 846.394 372.878C846.394 372.878 841.448 368.982 845.155 363.933C845.155 363.933 834.489 366.042 832.366 372.878C832.366 372.878 827.04 371.16 827.359 363.933C827.359 363.933 822.609 365.604 821.1 372.878C821.1 372.878 809.305 349.824 848.223 343.208C848.223 343.208 845.155 341.986 839.104 341.744C839.104 341.744 866.264 331.462 887.803 340.88C909.354 350.308 905.415 368.405 886.465 377.869Z" fill="#192F36"/>
<path d="M984.329 652.759L946.427 657.431C946.427 657.431 930.785 556.539 923.896 523.953V454.36L943.711 449.552L958.971 454.36C962.65 465.651 965.872 480.463 968.687 496.95C970.551 507.854 972.218 519.521 973.711 531.336C975.761 547.435 977.464 563.831 978.921 579.178C981.193 603.937 982.711 625.87 983.539 639.235C984.069 647.746 984.329 652.759 984.329 652.759Z" fill="#33BFBF"/>
<path d="M924.31 524.306C924.31 524.306 927.497 475.222 944.381 449.888C944.381 449.888 943.957 442.64 940.582 441.489C937.208 440.338 924.31 447.255 924.31 447.255C924.31 447.255 916.274 442.252 914.5 444.566C912.737 446.868 908.476 462.481 924.31 524.306Z" fill="#33BFBF"/>
<path d="M924.313 524.306C914.991 487.909 912.629 467.523 912.629 456.447C912.629 448.721 913.779 445.519 914.503 444.573C914.841 444.14 915.391 443.958 916.078 443.958C919.014 443.958 924.313 447.262 924.313 447.262C924.313 447.262 935.297 441.359 939.645 441.359C940.008 441.359 940.32 441.405 940.583 441.496C943.957 442.647 944.381 449.894 944.381 449.894C927.499 475.226 924.313 524.306 924.313 524.306Z" fill="#C2D7EF"/>
<path d="M838.593 666.827L842.916 669.719C842.916 669.719 836.672 637.082 839.197 554.559C839.32 550.581 839.48 546.74 839.64 543.081C842.855 473.258 854.519 460.558 855.27 459.792L844.37 463.244L824.589 469.566C818.763 529.147 838.593 666.827 838.593 666.827Z" fill="#33BFBF"/>
<path d="M840.082 531.474C840.082 531.474 829.042 483.656 832.319 467.161C835.609 450.677 847.385 457.999 847.385 457.999C847.385 457.999 858.201 449.991 861.415 458.822C861.415 458.822 846.562 468.417 840.082 531.474Z" fill="#33BFBF"/>
<path d="M840.084 531.474C840.022 531.235 831.724 495.192 831.711 474.995C831.711 471.979 831.898 469.306 832.322 467.158C834.066 458.43 838.178 456.374 841.679 456.374C844.782 456.374 847.386 457.996 847.386 457.996C847.386 457.996 851.884 454.672 855.933 454.672C858.176 454.672 860.282 455.677 861.415 458.819C861.415 458.819 846.563 468.415 840.084 531.474Z" fill="#C2D7EF"/>
<path d="M974.086 531.474C957.809 522.995 955.649 500.88 955.649 500.88C956.63 500.522 962.676 498.607 969.033 496.657C970.908 507.698 972.584 519.511 974.086 531.474Z" fill="#33BFBF"/>
<path d="M895.008 815.131C887.381 773.362 905.933 710.68 905.933 710.68L908.532 746.828L895.008 815.131Z" fill="#1F2F3E"/>
<path d="M983.304 638.998C973.334 638.355 964.704 637.747 964.704 637.747L962.819 599.987C962.819 599.987 965.284 598.072 970.711 598.072C971.496 598.072 972.342 598.117 973.249 598.207C973.249 598.207 976.5 590.815 978.784 579.604C981.008 604.089 982.495 625.78 983.304 638.998Z" fill="#33BFBF"/>
<path d="M987.036 579.604L966.916 608.333L982.824 616.469L1001.74 590.581L987.036 579.604Z" fill="#F58A7D"/>
<path d="M958.591 453.647C971.775 455.01 1027.83 527.194 1030.3 548.956C1032.77 570.719 997.373 608.277 997.373 608.277L973.715 595.219C973.715 595.219 997.739 560.594 998.972 551.339C1000.22 542.095 955.075 504.217 955.075 504.217C955.075 504.217 950.155 493.084 949.533 477.059C948.898 461.035 958.591 453.647 958.591 453.647Z" fill="#33BFBF"/>
<path d="M962.917 600.084C962.917 600.084 983.304 604.135 991.499 616.013C991.499 616.013 982.983 640.776 976.899 643.465C970.815 646.166 955.685 646.166 955.685 646.166C955.685 646.166 954.71 618.622 962.917 600.084Z" fill="#33BFBF"/>
</g>
<defs>
<clipPath id="clip0_82_281">
<rect width="1730" height="1193" fill="white"/>
</clipPath>
</defs>
</svg>
