<svg width="87" height="107" viewBox="0 0 87 107" fill="none" xmlns="http://www.w3.org/2000/svg">
<g clip-path="url(#clip0_49_414)">
<path d="M26.4478 34.4204L27.0144 34.7378L38.6331 28.4277L38.0672 28.11L26.4478 34.4204Z" fill="#FAFAF9"/>
<path d="M44.5 24.4785L45.0663 24.7959L56.6854 18.4858L56.1194 18.1681L44.5 24.4785" fill="#FAFAF9"/>
<path d="M43.5972 92.7314C43.2577 92.5332 41.9506 91.7872 41.5697 91.5504C41.4362 91.4676 41.3224 91.342 41.2492 91.1726L40.438 88.9682L41.7988 88.1748L43.2745 92.3041C43.3486 92.4759 43.4605 92.6206 43.5972 92.7314" fill="#33BFBF"/>
<path d="M74.7679 5.11098L11.9654 39.8538C11.4889 40.1174 11.103 40.7583 11.103 41.2854V101.582C11.103 102.109 11.4899 102.749 11.967 103.011L12.5052 103.306C12.9826 103.568 13.7554 103.566 14.2315 103.303L77.0347 68.5264C77.5108 68.2628 77.897 67.6216 77.897 67.0944V6.83217C77.897 6.30501 77.5101 5.66539 77.0327 5.40339L76.4945 5.10814C76.0174 4.84614 75.2443 4.8474 74.7679 5.11098" fill="#33BFBF"/>
<path d="M13.3646 103.501C13.0537 103.501 12.7428 103.436 12.5052 103.306L11.967 103.011C11.4899 102.749 11.103 102.109 11.103 101.582V41.2855C11.103 41.027 11.1959 40.7413 11.3465 40.4859L13.6758 41.7744L13.689 41.749C13.8916 41.4085 14.1869 41.1189 14.5553 40.9184L76.7027 6.49902C76.8312 6.42806 76.967 6.39574 77.0998 6.39574C77.5072 6.39574 77.8815 6.7002 77.897 7.12978V43.0242V43.2751V50.9845V51.4131V56.4008V56.6736V62.3146V66.9931V67.0945C77.897 67.1224 77.8957 67.1506 77.8937 67.1788C77.8941 67.1705 77.8941 67.162 77.8941 67.1534V7.1586C77.8941 6.68878 77.4821 6.39797 77.1004 6.39797C76.9623 6.39797 76.8295 6.4325 76.7053 6.50093L14.557 40.9196C13.8261 41.3245 13.3722 42.0788 13.3722 42.8879V102.455C13.3722 102.949 13.6302 103.269 14.0297 103.269C14.1945 103.269 14.3729 103.216 14.5596 103.113L41.7168 88.0789L41.7181 88.0824L40.2439 88.8988L14.2315 103.303C13.9923 103.435 13.6785 103.501 13.3646 103.501M47.8562 84.6837L47.8582 84.6771L76.704 68.7048C76.9713 68.5575 77.2845 68.3595 77.5224 68.0893C77.5085 68.1076 77.4939 68.126 77.4791 68.1441C77.3492 68.3025 77.1973 68.4365 77.0347 68.5264L75.5929 69.3251L47.8562 84.6837M11.3918 40.4127C11.5444 40.178 11.7453 39.9756 11.9654 39.8539L74.7679 5.11111C75.0071 4.97869 75.3209 4.91247 75.6345 4.91247C75.9457 4.91247 76.2569 4.97774 76.4945 5.10826L77.0327 5.40352C77.3122 5.55685 77.5607 5.83976 77.7186 6.15371C77.5604 5.83976 77.3112 5.55685 77.0311 5.40415L76.4935 5.10826C76.2569 4.97806 75.946 4.9128 75.6348 4.9128C75.3216 4.9128 75.0074 4.97869 74.7679 5.11111L11.9667 39.8555C11.744 39.9765 11.5458 40.1789 11.3918 40.4127" fill="#33BFBF"/>
<path d="M77.8969 6.83288V7.15765C77.8969 6.57179 77.2352 6.20582 76.7059 6.49891L14.7536 40.9236C14.3864 41.1242 14.0919 41.4138 13.89 41.7544L13.8768 41.7798L11.5542 40.4908C11.7133 40.2266 11.928 39.9943 12.1731 39.8606L74.7772 5.11078C75.2535 4.84684 76.0245 4.84685 76.4975 5.10793L77.0333 5.40387C77.5099 5.66464 77.8969 6.30468 77.8969 6.83288" fill="#33BFBF"/>
<path d="M13.8768 41.7798L11.5549 40.4912L11.5542 40.4908C11.7133 40.2266 11.928 39.9943 12.1731 39.8606L74.7772 5.11081C75.016 4.97837 75.3292 4.91247 75.6414 4.91247C75.9517 4.91247 76.2616 4.97774 76.4975 5.10797L77.0333 5.4039C77.5099 5.66467 77.8969 6.30472 77.8969 6.83291V7.15768C77.8969 7.14818 77.8969 7.13899 77.8966 7.1298C77.8811 6.70015 77.5079 6.39564 77.1018 6.39564C76.9694 6.39564 76.8341 6.42797 76.7059 6.49895L14.7536 40.9237C14.3864 41.1242 14.0919 41.4138 13.89 41.7544L13.8768 41.7798" fill="#33BFBF"/>
<path d="M76.9622 6.5696C76.8784 6.5696 76.7977 6.5912 76.7224 6.63312L14.8378 41.1369C14.2045 41.4901 13.811 42.1478 13.811 42.8538V102.568C13.811 102.724 13.8449 103.087 14.1591 103.087C14.268 103.087 14.3973 103.047 14.5335 102.971L41.8932 87.7232L43.603 92.3009C43.9317 93.0282 45.018 92.9752 45.2687 92.2196L47.5842 84.5493L76.4145 68.4779C77.1277 68.0821 77.4459 67.6817 77.4459 67.1793V7.03613C77.4459 6.74808 77.1948 6.5696 76.9622 6.5696Z" fill="#FAFAF9"/>
<path d="M77.103 7.16033L77.0155 7.18442L14.8528 41.6246C14.3115 41.9245 13.9754 42.4831 13.9754 43.0825V102.687C13.9754 102.824 14.0081 102.902 14.023 102.917C14.0368 102.911 14.1112 102.905 14.2394 102.834L42.0406 87.4373L43.8834 92.3388C43.9957 92.5845 44.2489 92.666 44.4438 92.6587C44.6401 92.6489 44.8824 92.5411 44.9739 92.2675L47.3312 84.5054L47.4386 84.4461L76.3991 68.4038C77.1761 67.9755 77.2808 67.6373 77.2808 67.3634V7.33055C77.2808 7.20311 77.1589 7.16033 77.103 7.16033M14.017 103.501C13.6175 103.501 13.3594 103.182 13.3594 102.687V43.0825C13.3594 42.2729 13.8134 41.5181 14.5445 41.113L76.7078 6.67246C76.832 6.60399 76.9649 6.56943 77.103 6.56943C77.4847 6.56943 77.8968 6.86043 77.8968 7.33055V67.3634C77.8968 68.1667 77.2174 68.6339 76.7065 68.9158L47.8537 84.8981L45.5625 92.4403C45.4059 92.9097 44.9799 93.2239 44.4752 93.2486C43.9729 93.2721 43.5139 93.002 43.3113 92.5572L41.7108 88.3021L14.5471 103.345C14.3604 103.449 14.1819 103.501 14.017 103.501" fill="#33BFBF"/>
<path d="M27.4829 67.4114L28.2333 65.4623V64.4084L26.8951 63.0617V61.1055L28.213 59.4795V55.7491C30.1018 53.4993 31.421 49.9465 31.4118 46.6808C31.4045 44.1225 30.5812 42.3157 29.3136 41.604C29.0961 41.4819 28.2324 40.9984 28.0165 40.8763C27.1402 40.3813 26.0514 40.4103 24.8722 41.0798C21.9915 42.7158 19.6656 47.5484 19.6778 51.8742C19.685 54.4203 20.5304 56.2224 21.8042 56.9402C22.0223 57.0629 22.8927 57.5509 23.1118 57.6733C23.2344 57.7417 23.3609 57.7998 23.491 57.8484V76.6734L24.7924 77.4043L26.2351 76.5945L28.2507 72.3981V70.0112L27.4829 69.4532V67.4114Z" fill="#009B9B"/>
<path d="M26.2001 41.9077C23.3335 43.5391 21.0197 48.3586 21.0318 52.6723C21.0416 56.2166 22.6735 58.3118 24.8258 58.0432V77.4043L26.2612 76.5967L28.2667 72.4117V70.0313L27.5028 69.4749V67.4386L28.2494 65.4945V64.4437L26.9179 63.1007V61.1499L28.2291 59.5283V55.8081C30.1085 53.5644 31.421 50.0213 31.4118 46.7644C31.3997 42.4507 29.0663 40.2762 26.2001 41.9077" fill="#33BFBF"/>
<path d="M24.8258 77.4043V58.0433C24.7022 58.0589 24.5803 58.0662 24.4603 58.0662C22.4914 58.0662 21.0409 56.0131 21.0317 52.6725C21.0317 52.6597 21.0317 52.6473 21.0317 52.6345C21.033 48.3304 23.342 43.5346 26.2001 41.9079C26.8464 41.5398 27.4655 41.3655 28.0369 41.3655C30.0006 41.3655 31.4027 43.4233 31.4119 46.7646C31.4119 46.7774 31.4119 46.7901 31.4119 46.8029C31.4106 50.0492 30.101 53.5735 28.2292 55.8082V59.5285L26.918 61.15V63.1008L28.2494 64.4438V65.4946L27.5028 67.4387V69.4749L28.2668 70.0314V72.4118L26.2612 76.5967L24.8258 77.4043Z" fill="#33BFBF"/>
<path d="M25.0938 76.9902L25.5451 76.7917V57.521L25.0938 57.7157V76.9902" fill="#009B9B"/>
<path d="M27.9795 42.8953C27.3352 42.8953 26.6253 43.1591 25.9115 43.674C23.4296 45.4637 21.5895 49.7107 21.8098 53.1414C21.9251 54.9374 22.592 56.2192 23.6386 56.6583C24.468 57.0064 25.4965 56.788 26.5319 56.0417C29.0135 54.252 30.8539 50.0046 30.6333 46.5739C30.5179 44.7779 29.8514 43.4961 28.8044 43.057C28.5468 42.9489 28.27 42.8953 27.9795 42.8953ZM24.4639 57.1069C24.1306 57.1069 23.8107 57.0448 23.511 56.9192C22.3562 56.4348 21.6237 55.0643 21.5012 53.1582C21.2754 49.6448 23.1688 45.2887 25.7216 43.4476C26.8521 42.6335 27.9918 42.402 28.9321 42.7961C30.0868 43.2806 30.8197 44.6511 30.9422 46.5571C31.1677 50.0706 29.2742 54.4267 26.7214 56.2677C25.9516 56.8229 25.1766 57.1069 24.4639 57.1069Z" fill="#009B9B"/>
<path d="M28.1056 45.6639C28.0071 45.4498 27.8682 45.2959 27.689 45.2017C27.5102 45.1075 27.2949 45.0751 27.044 45.1039C26.7926 45.1334 26.5145 45.227 26.2086 45.3857C25.9841 45.502 25.7749 45.6347 25.5817 45.7831C25.3886 45.9315 25.2094 46.0908 25.0445 46.2604C24.8795 46.43 24.726 46.6085 24.5836 46.7957C24.4415 46.9829 24.3105 47.1707 24.1909 47.3588L24.5333 47.831C24.5897 47.9278 24.6811 47.9435 24.8074 47.8778C24.8603 47.8505 24.9199 47.7935 24.9863 47.7063C25.0534 47.6191 25.1348 47.5178 25.2315 47.4027C25.3279 47.2874 25.4457 47.1678 25.5846 47.0431C25.7235 46.9187 25.8927 46.8046 26.0929 46.7008C26.2297 46.63 26.3571 46.5867 26.4749 46.5723C26.5924 46.5575 26.6934 46.5713 26.7776 46.6139C26.8622 46.6562 26.9279 46.7252 26.9751 46.8203C27.0229 46.9155 27.0465 47.0389 27.0465 47.1902C27.0465 47.4258 27.005 47.6499 26.9226 47.863C26.8401 48.0762 26.7373 48.2832 26.6145 48.4832C26.4917 48.6835 26.3596 48.8781 26.2193 49.0666C26.079 49.255 25.9516 49.4409 25.8373 49.624C25.7235 49.8073 25.6321 49.9913 25.5635 50.1759C25.495 50.3605 25.4711 50.5464 25.4921 50.733L25.5817 51.7147L26.4724 51.2532L26.5934 50.2695C26.6109 50.1259 26.6645 49.9772 26.7541 49.8236C26.8437 49.6701 26.9497 49.5057 27.0729 49.3304C27.1957 49.1554 27.3267 48.9688 27.4652 48.7707C27.6041 48.5726 27.7312 48.3573 27.8472 48.1249C27.9632 47.8925 28.0596 47.6396 28.1371 47.3662C28.2142 47.0928 28.2527 46.7963 28.2527 46.4767C28.2527 46.1489 28.2035 45.8777 28.1056 45.6639ZM26.5488 52.2013C26.4767 52.1545 26.3925 52.1308 26.2957 52.1304C26.199 52.1301 26.0947 52.159 25.9823 52.2173C25.8698 52.2756 25.7645 52.3555 25.6663 52.4567C25.5678 52.5583 25.4836 52.6692 25.4132 52.7898C25.3429 52.9103 25.2876 53.0398 25.2472 53.1786C25.2069 53.317 25.1869 53.4516 25.1869 53.5818C25.1869 53.7167 25.2069 53.8311 25.2472 53.9257C25.2876 54.0206 25.3429 54.0917 25.4132 54.1395C25.4836 54.1872 25.5678 54.2097 25.6663 54.2068C25.7645 54.2042 25.8698 54.1738 25.9823 54.1158C26.0947 54.0574 26.199 53.9789 26.2957 53.8805C26.3925 53.7821 26.4767 53.6722 26.5488 53.551C26.6206 53.4295 26.6777 53.3 26.7198 53.1625C26.7619 53.025 26.783 52.8891 26.783 52.7545C26.783 52.6244 26.7619 52.5109 26.7198 52.4151C26.6777 52.3192 26.6206 52.2481 26.5488 52.2013Z" fill="#EDEDED"/>
<path d="M39.4967 35.6555L40.2302 35.2217C40.4382 35.0982 40.5996 34.9467 40.7141 34.7663C40.8283 34.5858 40.8853 34.369 40.8853 34.116C40.8853 33.8631 40.8283 33.7177 40.7141 33.6807C40.5996 33.6436 40.4382 33.6865 40.2302 33.8101L39.4967 34.2441V35.6555ZM40.2518 33.2629C40.3935 33.179 40.5273 33.1238 40.6532 33.0964C40.7788 33.0698 40.8898 33.0773 40.9849 33.1198C41.0807 33.1621 41.1565 33.2437 41.2129 33.3643C41.2694 33.4853 41.2976 33.6547 41.2976 33.8722C41.2976 34.1924 41.2389 34.4821 41.1219 34.7412C41.0046 35.0007 40.8546 35.2237 40.6726 35.4103L41.328 36.5827L41.341 36.6402C41.341 36.676 41.3315 36.7124 41.3131 36.7492C41.2938 36.7862 41.2716 36.8119 41.2456 36.8275L41.0588 36.9377C41.0008 36.9722 40.9583 36.9777 40.931 36.9543L40.8723 36.8883L40.2432 35.7478L39.4967 36.1896V37.7024C39.4967 37.746 39.4853 37.7905 39.4618 37.836C39.4387 37.8809 39.4114 37.9131 39.3794 37.9319L39.2012 38.0373C39.1698 38.0561 39.1422 38.0565 39.119 38.0389C39.0959 38.0207 39.0845 37.9901 39.0845 37.9466V34.1141C39.0845 34.0708 39.0959 34.0263 39.119 33.9808C39.1422 33.9359 39.1698 33.9034 39.2012 33.8849L40.2518 33.2629" fill="#33535F"/>
<path d="M42.2385 34.4087L43.6093 33.7205V33.7034C43.6093 33.4734 43.5466 33.3212 43.4214 33.2462C43.2967 33.1715 43.1298 33.1863 42.9216 33.2905C42.8271 33.3379 42.7391 33.4003 42.6581 33.4768C42.5765 33.5534 42.5052 33.6402 42.4435 33.7372C42.3815 33.8343 42.333 33.939 42.2974 34.051C42.2613 34.1635 42.2417 34.277 42.2385 34.3917V34.4087ZM41.8043 34.6099C41.8171 34.4298 41.8531 34.2494 41.9116 34.0693C41.9701 33.8891 42.0467 33.7186 42.1412 33.5581C42.235 33.3978 42.3483 33.2524 42.4799 33.1222C42.6118 32.9917 42.7587 32.8859 42.9216 32.8041C43.097 32.7161 43.2542 32.6705 43.3922 32.6668C43.5305 32.6634 43.6485 32.6996 43.7462 32.775C43.8436 32.8506 43.9184 32.9638 43.9705 33.115C44.0225 33.266 44.0485 33.4508 44.0485 33.6693V33.8222C44.0485 33.8637 44.0354 33.9062 44.0097 33.9493C43.9837 33.9927 43.9526 34.0231 43.917 34.041L42.2385 34.8837V34.9177C42.2453 35.171 42.3127 35.3338 42.441 35.4073C42.5697 35.4804 42.7294 35.4686 42.9216 35.3722C43.1006 35.2826 43.2346 35.1862 43.3241 35.0824C43.4136 34.9791 43.4856 34.8781 43.5412 34.7786C43.5673 34.7352 43.5901 34.7032 43.6093 34.6818C43.6289 34.6608 43.6582 34.6403 43.6974 34.6208L43.8436 34.5473C43.8796 34.5293 43.9116 34.5284 43.9412 34.5436C43.9705 34.5594 43.9819 34.5895 43.9755 34.6341C43.9655 34.7069 43.938 34.7953 43.8927 34.8992C43.8471 35.003 43.7808 35.1115 43.6949 35.2247C43.6086 35.3378 43.5013 35.45 43.373 35.5613C43.2443 35.6732 43.0938 35.7724 42.9216 35.8589C42.7587 35.9408 42.6125 35.9811 42.4824 35.9805C42.3523 35.9795 42.2392 35.9457 42.1433 35.8791C42.0474 35.8121 41.9701 35.7154 41.9116 35.588C41.8531 35.4612 41.8171 35.3084 41.8043 35.1301C41.7879 34.9649 41.7879 34.7913 41.8043 34.6099" fill="#33535F"/>
<path d="M45.9121 33.4383C45.9121 33.3679 45.8973 33.3178 45.867 33.2881C45.8367 33.2584 45.7913 33.2437 45.731 33.244C45.6707 33.2446 45.5934 33.256 45.5 33.2789C45.4063 33.3012 45.2978 33.3306 45.1738 33.3664C44.9406 33.4334 44.7775 33.4197 44.6841 33.3251C44.5904 33.2306 44.5437 33.0846 44.5437 32.8873C44.5437 32.7756 44.561 32.6596 44.5954 32.54C44.6298 32.4204 44.6819 32.302 44.751 32.1851C44.8198 32.0685 44.9072 31.9581 45.0119 31.855C45.1173 31.7512 45.24 31.6598 45.3814 31.5808C45.5221 31.5019 45.6452 31.4539 45.7506 31.4358C45.8556 31.4177 45.944 31.4202 46.0159 31.4431C46.0878 31.4664 46.1428 31.5037 46.18 31.5554C46.2172 31.6071 46.2377 31.6653 46.2406 31.731C46.2434 31.7702 46.2327 31.8115 46.2084 31.855C46.1838 31.8987 46.1557 31.929 46.1238 31.9468L45.9815 32.0266L45.9187 32.0477L45.8522 32.0211C45.8146 31.9786 45.7591 31.9565 45.6856 31.955C45.6124 31.9532 45.5108 31.9887 45.3814 32.0609C45.2489 32.1352 45.1416 32.227 45.0596 32.3362C44.9775 32.4455 44.9362 32.5556 44.9362 32.6673C44.9362 32.7383 44.9482 32.7888 44.9712 32.8184C44.9939 32.8481 45.0315 32.8646 45.0832 32.8674C45.135 32.8698 45.2034 32.8604 45.2886 32.8389C45.3732 32.8172 45.4792 32.7897 45.6057 32.756C45.7379 32.719 45.849 32.7046 45.938 32.7123C46.0276 32.7199 46.0992 32.7447 46.1541 32.7869C46.209 32.8288 46.2478 32.887 46.2705 32.9616C46.2936 33.0363 46.3052 33.122 46.3052 33.2183C46.3052 33.33 46.2844 33.4502 46.2428 33.5775C46.2008 33.7048 46.1412 33.8296 46.0635 33.9514C45.9859 34.0729 45.8916 34.1891 45.7805 34.2993C45.6698 34.41 45.5436 34.5049 45.4029 34.5835C45.2618 34.6628 45.1366 34.7102 45.0274 34.727C44.9179 34.7435 44.8245 34.7411 44.7466 34.7194C44.6689 34.698 44.609 34.6606 44.5677 34.6074C44.5257 34.5545 44.5033 34.4954 44.5005 34.4299C44.4976 34.3908 44.5077 34.3498 44.5304 34.3069C44.5538 34.2647 44.5822 34.2335 44.6172 34.2142L44.7724 34.1273L44.8327 34.1016L44.8977 34.1295C44.9438 34.1858 45.0069 34.2133 45.0876 34.213C45.1681 34.2124 45.2732 34.176 45.4029 34.1035C45.466 34.068 45.5287 34.0236 45.5909 33.9704C45.6527 33.9168 45.7073 33.8602 45.7547 33.8003C45.8026 33.7403 45.8405 33.6791 45.8692 33.6164C45.8979 33.5537 45.9121 33.4943 45.9121 33.4383" fill="#33535F"/>
<path d="M47.1135 31.9232L48.2103 31.235V31.2179C48.2103 30.9879 48.1601 30.8356 48.06 30.7606C47.9599 30.6859 47.8264 30.7008 47.6602 30.8052C47.5846 30.8524 47.5142 30.9144 47.4494 30.9913C47.3841 31.0678 47.3271 31.1547 47.2775 31.2517C47.2282 31.3487 47.1891 31.4535 47.1606 31.5655C47.1318 31.678 47.1164 31.7915 47.1135 31.9062V31.9232ZM46.7662 32.1241C46.7765 31.9443 46.8053 31.7639 46.852 31.5837C46.8988 31.4036 46.9601 31.2334 47.0354 31.0728C47.111 30.9122 47.2013 30.7671 47.3069 30.6366C47.4121 30.5064 47.5299 30.4003 47.6602 30.3185C47.8005 30.2304 47.9262 30.1849 48.0366 30.1815C48.1472 30.1777 48.2416 30.214 48.3192 30.2894C48.3976 30.365 48.4575 30.4782 48.4991 30.6295C48.5408 30.7804 48.5616 30.9652 48.5616 31.1838V31.3367C48.5616 31.3782 48.551 31.4207 48.5302 31.4641C48.5094 31.5072 48.4849 31.5379 48.4561 31.5555L47.1135 32.3982V32.4323C47.1186 32.6856 47.1728 32.8484 47.2755 32.9219C47.3784 32.995 47.5065 32.9832 47.6602 32.8868C47.803 32.7972 47.9106 32.7008 47.9821 32.5969C48.0534 32.494 48.1113 32.3926 48.1555 32.2931C48.1763 32.2497 48.1949 32.2178 48.2103 32.1967C48.2257 32.1756 48.249 32.1551 48.2807 32.1353L48.3976 32.0618C48.4261 32.0438 48.4521 32.0429 48.4758 32.0581C48.4991 32.0739 48.5083 32.104 48.5028 32.1486C48.4951 32.2215 48.4732 32.3095 48.4367 32.4137C48.4002 32.5176 48.3474 32.6261 48.2784 32.7392C48.2094 32.8524 48.1236 32.9646 48.0209 33.0763C47.918 33.1879 47.7976 33.2871 47.6602 33.3736C47.5299 33.4551 47.4129 33.4957 47.3086 33.4951C47.2048 33.4942 47.1144 33.4604 47.0374 33.3934C46.961 33.3268 46.8988 33.23 46.852 33.1029C46.8053 32.9755 46.7765 32.823 46.7662 32.6447C46.7531 32.4794 46.7531 32.3058 46.7662 32.1241" fill="#33535F"/>
<path d="M49.9869 30.9497C49.9869 31.0181 49.9929 31.0793 50.0047 31.1335C50.0166 31.1871 50.0377 31.2288 50.0681 31.2578C50.0985 31.2874 50.1415 31.3008 50.197 31.2984C50.2534 31.296 50.3249 31.2744 50.4123 31.2341L50.6817 31.1098C50.7191 31.093 50.7506 31.0924 50.7777 31.1089C50.8051 31.1249 50.8184 31.1533 50.8184 31.193V31.3656C50.8184 31.4052 50.8051 31.4455 50.7777 31.4872C50.7506 31.5281 50.7191 31.5574 50.6817 31.5746L50.3623 31.722C50.0681 31.8575 49.855 31.8747 49.7231 31.7735C49.5916 31.6722 49.5256 31.4686 49.5256 31.1625V29.7636L49.1499 29.9368C49.1132 29.9539 49.081 29.9542 49.0536 29.938C49.0265 29.9217 49.0132 29.8939 49.0132 29.8542V29.6813C49.0132 29.642 49.0265 29.6014 49.0536 29.56C49.081 29.5188 49.1132 29.4892 49.1499 29.4723L49.5256 29.2992V28.4189C49.5256 28.3792 49.539 28.3387 49.5656 28.2978C49.5927 28.2564 49.6249 28.2271 49.6624 28.2099L49.8498 28.1235C49.8869 28.106 49.9188 28.106 49.9466 28.1223C49.9732 28.1383 49.9869 28.1667 49.9869 28.2061V29.0864L50.6306 28.7895C50.668 28.772 50.7002 28.772 50.7273 28.7883C50.7539 28.8049 50.7677 28.8327 50.7677 28.8721V29.0452C50.7677 29.0846 50.7539 29.1251 50.7273 29.1663C50.7002 29.2074 50.668 29.2367 50.6306 29.2539L49.9869 29.5511V30.9497" fill="#33535F"/>
<path d="M52.609 31.5136C52.6001 31.5491 52.5849 31.5882 52.564 31.6307C52.5428 31.6726 52.514 31.7037 52.4779 31.7236L52.2921 31.8256C52.262 31.842 52.2358 31.8426 52.215 31.8275C52.1941 31.8124 52.1832 31.7859 52.1832 31.7475L52.1878 31.705L52.6226 30.265L51.7255 28.2352L51.7212 28.1978C51.7212 28.1594 51.7315 28.1209 51.7527 28.0825C51.7738 28.0444 51.7993 28.0167 51.8298 28L52.0156 27.898C52.052 27.8782 52.0805 27.8778 52.1017 27.8967L52.1471 27.9638L52.8448 29.5338L53.5519 27.1926C53.5608 27.1571 53.576 27.1183 53.5972 27.0758C53.6181 27.0336 53.6469 27.0025 53.6833 26.9826L53.8691 26.8803C53.8993 26.8639 53.9251 26.8633 53.9463 26.8784C53.9671 26.8935 53.9777 26.9203 53.9777 26.9587L53.9734 27.0012L52.609 31.5136" fill="#33535F"/>
<path d="M56.25 27.3542C56.2562 27.2792 56.2597 27.1902 56.2597 27.0868C56.2597 26.9836 56.2562 26.8961 56.25 26.8238C56.2407 26.7034 56.2199 26.5971 56.1888 26.5061C56.157 26.4148 56.1127 26.3456 56.056 26.2981C55.9993 26.2514 55.9302 26.2282 55.8479 26.2293C55.766 26.2303 55.6699 26.2625 55.5592 26.3265C55.4486 26.3905 55.3528 26.4691 55.2705 26.5629C55.1886 26.6566 55.1191 26.7598 55.0624 26.8726C55.0057 26.9854 54.9618 27.1054 54.93 27.2331C54.8986 27.3608 54.8782 27.4906 54.8685 27.6221C54.8623 27.7017 54.8591 27.793 54.8591 27.8958C54.8591 27.9993 54.8623 28.0847 54.8685 28.1525C54.8782 28.2737 54.8986 28.3796 54.93 28.4706C54.9618 28.5619 55.0057 28.6311 55.0624 28.6782C55.1191 28.7256 55.1886 28.7488 55.2705 28.7474C55.3528 28.7464 55.4486 28.7138 55.5592 28.6502C55.6699 28.5861 55.766 28.5076 55.8479 28.4135C55.9302 28.3204 55.9993 28.2173 56.056 28.1041C56.1127 27.9913 56.157 27.8712 56.1888 27.7435C56.2199 27.6159 56.2407 27.4861 56.25 27.3542V27.3542ZM55.5592 25.7836C55.73 25.685 55.8808 25.6324 56.0139 25.6254C56.1463 25.6182 56.2597 25.6483 56.3544 25.7158C56.4488 25.7832 56.5235 25.8881 56.5791 26.031C56.6341 26.1736 56.668 26.3449 56.6808 26.5435C56.6839 26.5795 56.6853 26.6241 56.6853 26.6767C56.6853 26.7293 56.6853 26.784 56.6853 26.8407C56.6853 26.8978 56.6853 26.9525 56.6853 27.0047C56.6853 27.0577 56.6839 27.1016 56.6808 27.1369C56.6649 27.3567 56.6299 27.5684 56.5767 27.7719C56.5228 27.9754 56.4488 28.1654 56.3544 28.3422C56.2597 28.5193 56.1463 28.6803 56.0139 28.8263C55.8808 28.9723 55.73 29.0945 55.5592 29.1931C55.3891 29.2914 55.2377 29.3443 55.1053 29.3516C54.9729 29.3585 54.8591 29.3284 54.7648 29.2609C54.6697 29.1934 54.595 29.0893 54.5397 28.9491C54.4844 28.8083 54.4505 28.6363 54.438 28.4328C54.4346 28.4014 54.4325 28.3595 54.4311 28.3076C54.4294 28.256 54.4287 28.2017 54.4287 28.1449C54.4287 28.0878 54.4294 28.0332 54.4311 27.9795C54.4325 27.9259 54.4346 27.8792 54.438 27.8394C54.4505 27.6262 54.4844 27.4158 54.5397 27.2093C54.595 27.0027 54.6697 26.811 54.7648 26.6345C54.8591 26.458 54.9729 26.2961 55.1053 26.1504C55.2377 26.004 55.3891 25.8819 55.5592 25.7836" fill="#33535F"/>
<path d="M57.1367 25.1979C57.1367 25.1556 57.1475 25.1126 57.1685 25.0684C57.1898 25.0245 57.2152 24.9933 57.2447 24.9749L57.3921 24.8824C57.4215 24.8644 57.4466 24.8638 57.4682 24.8811C57.4892 24.8988 57.5 24.9285 57.5 24.9708V26.4919C57.5 26.7881 57.5459 26.9805 57.6378 27.0689C57.73 27.1573 57.8637 27.1466 58.0393 27.037C58.2068 26.9321 58.3388 26.7771 58.4348 26.5708C58.5305 26.3652 58.5783 26.1145 58.5783 25.8182V24.2972C58.5783 24.2549 58.5889 24.2119 58.6104 24.1677C58.6315 24.1235 58.6566 24.0922 58.6863 24.0742L58.834 23.9817C58.8629 23.9633 58.8886 23.963 58.9099 23.9804C58.9312 23.9981 58.942 24.0278 58.942 24.0701V26.7553C58.942 26.7976 58.9312 26.8409 58.9099 26.8851C58.8886 26.929 58.8629 26.9599 58.834 26.9782L58.6863 27.0708C58.6566 27.0891 58.6315 27.0894 58.6104 27.072C58.5889 27.0547 58.5783 27.025 58.5783 26.9827V26.8039C58.5279 26.9315 58.4561 27.0654 58.3627 27.2066C58.2696 27.3474 58.1418 27.4684 57.9792 27.5701C57.854 27.6481 57.7396 27.6898 57.6357 27.6952C57.5321 27.7005 57.4426 27.6718 57.3681 27.6089C57.2937 27.5461 57.2362 27.4472 57.1965 27.3127C57.1568 27.1782 57.1367 27.0092 57.1367 26.8058V25.1979" fill="#33535F"/>
<path d="M61.0728 22.7394C61.1072 22.7205 61.1368 22.7202 61.1616 22.7381C61.1864 22.7564 61.1987 22.787 61.1987 22.8306V23.0208C61.1987 23.0644 61.1864 23.1087 61.1616 23.1539C61.1368 23.1992 61.1072 23.2314 61.0728 23.2506L60.8031 23.3995C60.446 23.5968 60.2678 23.9231 60.2678 24.3789V26.1138C60.2678 26.1571 60.2556 26.2017 60.2307 26.2473C60.2056 26.2926 60.1763 26.3245 60.1423 26.3434L59.9699 26.4388C59.9359 26.4574 59.9063 26.458 59.8815 26.4401C59.857 26.4222 59.8447 26.3912 59.8447 26.3479V23.5792C59.8447 23.5356 59.857 23.4913 59.8815 23.4457C59.9063 23.4001 59.9359 23.3679 59.9699 23.3493L60.1423 23.2539C60.1763 23.235 60.2056 23.2347 60.2307 23.2526C60.2556 23.2708 60.2678 23.3014 60.2678 23.3451V23.5291C60.3297 23.376 60.4045 23.2477 60.4913 23.1442C60.5783 23.0406 60.6916 22.9504 60.831 22.8733L61.0728 22.7394" fill="#33535F"/>
<path d="M40.0749 41.9971L40.7337 41.5886C40.8832 41.4957 41.0075 41.3716 41.1056 41.216C41.2042 41.0604 41.2532 40.8753 41.2532 40.6607C41.2532 40.4457 41.2042 40.3217 41.1056 40.2878C41.0075 40.2546 40.8832 40.2841 40.7337 40.377L40.0749 40.7854V41.9971ZM40.7605 39.1717C40.9888 39.0302 41.1945 38.9397 41.3763 38.9011C41.5586 38.8622 41.7138 38.8783 41.8421 38.9494C41.9708 39.0208 42.0694 39.1473 42.1394 39.329C42.209 39.5111 42.2436 39.7499 42.2436 40.0463C42.2436 40.3481 42.209 40.6329 42.1394 40.9011C42.0694 41.1691 41.9708 41.4173 41.8421 41.645C41.7138 41.873 41.5586 42.0816 41.3763 42.2714C41.1945 42.4609 40.9888 42.6269 40.7605 42.7684L40.0749 43.1936V44.758C40.0749 44.8144 40.0608 44.8714 40.0321 44.9301C40.0037 44.9887 39.9697 45.0303 39.9306 45.0545L39.229 45.4894C39.1897 45.5139 39.1557 45.5146 39.1269 45.4914C39.0985 45.4683 39.0845 45.4284 39.0845 45.372V40.4182C39.0845 40.3619 39.0985 40.3046 39.1269 40.2459C39.1557 40.1872 39.1897 40.1459 39.229 40.1214L40.7605 39.1717" fill="#33BFBF"/>
<path d="M43.8019 40.8263L44.7472 40.3328L44.2746 38.8911L43.8019 40.8263ZM44.7472 37.2584C44.8252 37.2178 44.8844 37.2125 44.9252 37.2427C44.966 37.2731 44.9943 37.3101 45.0099 37.3531L46.2823 41.1217C46.298 41.1604 46.3055 41.1915 46.3055 41.2149C46.3055 41.257 46.2929 41.2998 46.268 41.3438C46.2425 41.3875 46.2122 41.4182 46.1772 41.4367L45.4418 41.8204C45.3642 41.861 45.3087 41.8702 45.2754 41.8474C45.2424 41.8253 45.2219 41.797 45.2141 41.7634L45.0508 41.2647L43.4983 42.0751L43.335 42.7446C43.3268 42.7861 43.3067 42.8356 43.2734 42.8926C43.2407 42.9498 43.1849 42.9984 43.1073 43.039L42.3719 43.423C42.3369 43.4411 42.3066 43.4417 42.2814 43.4245C42.2562 43.407 42.2437 43.3771 42.2437 43.3353C42.2437 43.3119 42.2511 43.2725 42.2668 43.2174L43.5392 38.1207C43.5545 38.0614 43.5827 37.9949 43.6239 37.922C43.6647 37.8494 43.7239 37.7925 43.8019 37.7519L44.7472 37.2584" fill="#33BFBF"/>
<path d="M48.078 35.3816C48.3278 35.2554 48.557 35.1817 48.7658 35.1609C48.9743 35.1397 49.1551 35.1564 49.307 35.2116C49.4591 35.2668 49.5779 35.3521 49.6639 35.4682C49.7498 35.5839 49.7949 35.7137 49.7983 35.8569C49.7983 35.8981 49.7857 35.9398 49.7604 35.9822C49.7352 36.0246 49.7069 36.0538 49.6755 36.0693L48.9091 36.4562C48.8542 36.484 48.8105 36.4968 48.7774 36.4953C48.744 36.4941 48.7099 36.484 48.6751 36.4652L48.6191 36.4252C48.5939 36.4061 48.5581 36.3912 48.5113 36.3808C48.4642 36.3703 48.4059 36.3703 48.3353 36.3808C48.2653 36.3912 48.1797 36.4219 48.078 36.4733C48.004 36.5105 47.9327 36.5523 47.8644 36.5983C47.7962 36.6442 47.7358 36.6925 47.6829 36.7444C47.6307 36.7958 47.5877 36.8527 47.5543 36.9151C47.5212 36.9771 47.5048 37.0425 47.5048 37.1105C47.5048 37.1788 47.5229 37.2265 47.5601 37.2534C47.5973 37.28 47.6597 37.2904 47.7474 37.285C47.8351 37.2791 47.9514 37.2579 48.0957 37.2215C48.2401 37.1851 48.4192 37.1379 48.6341 37.0795C48.8484 37.0213 49.0357 36.9906 49.1957 36.987C49.3558 36.9834 49.4895 37.0126 49.597 37.0744C49.7038 37.1362 49.784 37.2322 49.8365 37.3626C49.8894 37.493 49.9157 37.6651 49.9157 37.8787C49.9157 38.1108 49.8706 38.3405 49.7809 38.5676C49.6912 38.7949 49.5653 39.0139 49.4032 39.2254C49.2415 39.4366 49.0504 39.6323 48.83 39.8116C48.6096 39.9912 48.3687 40.147 48.1073 40.2788C47.8419 40.4128 47.6003 40.4939 47.3816 40.5226C47.1633 40.5509 46.9753 40.5378 46.817 40.4832C46.659 40.4292 46.5351 40.3403 46.4454 40.2174C46.3557 40.0945 46.3089 39.9474 46.3052 39.7764C46.3052 39.7353 46.3175 39.6941 46.3427 39.6517C46.3686 39.6094 46.3966 39.5801 46.4277 39.5646L47.1943 39.1774C47.2493 39.1499 47.2922 39.1362 47.323 39.1365C47.3543 39.1368 47.3854 39.1449 47.4171 39.1607C47.4325 39.1711 47.456 39.1887 47.4871 39.2138C47.5184 39.2391 47.5601 39.26 47.613 39.2764C47.6652 39.2934 47.732 39.2976 47.8115 39.289C47.8914 39.2803 47.9907 39.2466 48.1073 39.1872C48.3141 39.0831 48.4868 38.9697 48.6253 38.8474C48.7635 38.7254 48.8327 38.5959 48.8327 38.4593C48.8327 38.3913 48.8075 38.3471 48.7573 38.3271C48.7061 38.3074 48.6304 38.3038 48.5291 38.3164C48.4274 38.3289 48.2977 38.357 48.1394 38.4002C47.9818 38.4435 47.7952 38.4921 47.5805 38.5458C47.179 38.6487 46.8852 38.6296 46.6999 38.4891C46.5147 38.3483 46.4222 38.0825 46.4222 37.6911C46.4222 37.4957 46.4601 37.2901 46.5365 37.0741C46.6119 36.8584 46.7225 36.646 46.8668 36.4366C47.0108 36.2271 47.1858 36.0308 47.3905 35.8482C47.5952 35.6651 47.8245 35.5096 48.078 35.3816Z" fill="#33BFBF"/>
<path d="M52.14 33.3103C52.3894 33.1844 52.6187 33.1108 52.8275 33.0896C53.0363 33.0684 53.2168 33.0851 53.3687 33.1403C53.5212 33.1955 53.6396 33.2808 53.7255 33.3969C53.8115 33.5126 53.8566 33.6424 53.8603 33.7859C53.8603 33.8268 53.8477 33.8685 53.8224 33.9106C53.7965 33.9533 53.7685 33.9825 53.7375 33.9983L52.9708 34.3853C52.9159 34.4127 52.8722 34.4255 52.8395 34.424C52.806 34.4228 52.7716 34.4127 52.7371 34.3939L52.6811 34.3539C52.6559 34.3351 52.6197 34.3199 52.573 34.3095C52.5262 34.299 52.4676 34.299 52.3973 34.3095C52.3273 34.3199 52.2417 34.3506 52.14 34.402C52.0656 34.4396 51.9943 34.481 51.9264 34.527C51.8582 34.5729 51.7978 34.6212 51.7449 34.6732C51.692 34.7245 51.649 34.7814 51.6163 34.8438C51.5829 34.9062 51.5665 34.9712 51.5665 35.0392C51.5665 35.1075 51.5849 35.1553 51.6217 35.1821C51.6593 35.2087 51.7214 35.2191 51.8091 35.2134C51.8971 35.2081 52.0131 35.1866 52.1578 35.1502C52.3021 35.1138 52.4812 35.0667 52.6962 35.0082C52.9104 34.95 53.0977 34.9193 53.2574 34.9157C53.4174 34.9121 53.5512 34.9414 53.6587 35.0031C53.7658 35.0652 53.846 35.1609 53.8982 35.2913C53.9514 35.422 53.9777 35.5938 53.9777 35.8074C53.9777 36.0395 53.9323 36.2693 53.8426 36.4963C53.7528 36.7236 53.6269 36.9429 53.4652 37.1541C53.3035 37.3656 53.1124 37.5611 52.892 37.7404C52.6716 37.92 52.4304 38.0757 52.1694 38.2076C51.9039 38.3415 51.6624 38.423 51.4436 38.4513C51.2249 38.4796 51.0369 38.4665 50.879 38.4119C50.721 38.3579 50.5968 38.269 50.5074 38.1461C50.4173 38.0232 50.3706 37.8761 50.3672 37.7052C50.3672 37.6643 50.3795 37.6228 50.4047 37.5804C50.43 37.5381 50.4583 37.5091 50.4897 37.4933L51.2563 37.1061C51.3109 37.0786 51.3539 37.0649 51.385 37.0652C51.4164 37.0655 51.4474 37.0736 51.4788 37.0894C51.4941 37.0998 51.518 37.1177 51.5487 37.1428C51.5801 37.1678 51.6217 37.1887 51.675 37.2051C51.7272 37.2221 51.7934 37.2263 51.8736 37.2177C51.9534 37.209 52.052 37.1753 52.1694 37.1162C52.3758 37.0118 52.5484 36.8985 52.687 36.7761C52.8255 36.6541 52.8947 36.5246 52.8947 36.388C52.8947 36.32 52.8695 36.2758 52.8186 36.2558C52.7682 36.2361 52.6917 36.2326 52.5904 36.2451C52.4891 36.2576 52.3594 36.2857 52.2014 36.3289C52.0435 36.3725 51.8572 36.4211 51.6426 36.4745C51.2406 36.5774 50.9472 36.5586 50.7619 36.4178C50.5767 36.277 50.4839 36.0112 50.4839 35.6201C50.4839 35.4244 50.5221 35.2188 50.5978 35.0028C50.6739 34.7871 50.7841 34.5747 50.9285 34.3653C51.0728 34.1561 51.2478 33.9598 51.4522 33.7769C51.6572 33.5941 51.8862 33.4383 52.14 33.3103" fill="#33BFBF"/>
<path d="M57.0482 33.1925L57.4205 30.4977C57.4324 30.4174 57.4554 30.3533 57.4904 30.3047C57.525 30.256 57.5619 30.2212 57.6009 30.1996L58.3625 29.782C58.3977 29.7627 58.4279 29.762 58.453 29.7801C58.4778 29.7984 58.4906 29.8294 58.4906 29.8735L58.4845 29.9357L57.7345 35.0043C57.7267 35.0775 57.6955 35.1584 57.6416 35.247C57.587 35.3356 57.5216 35.4013 57.4436 35.4439L56.9611 35.7087C56.8834 35.7513 56.8204 35.7561 56.7722 35.7239C56.7237 35.6917 56.6898 35.6465 56.6705 35.5882L56.2341 34.162L55.798 36.0667C55.7784 36.1463 55.7445 36.2288 55.6963 36.3142C55.6475 36.3996 55.5851 36.4637 55.5071 36.5063L55.0243 36.7711C54.947 36.814 54.8812 36.8204 54.8269 36.7911C54.7723 36.7621 54.7415 36.7154 54.7337 36.6506L53.9836 32.4053L53.9775 32.3495C53.9775 32.3054 53.9908 32.2603 54.0159 32.2148C54.0406 32.1688 54.0708 32.1365 54.1057 32.1175L54.8676 31.6993C54.9066 31.678 54.9429 31.6725 54.9782 31.6828C55.0131 31.6931 55.0365 31.7321 55.048 31.7995L55.42 34.086L55.7631 32.5638C55.7709 32.5251 55.7882 32.4716 55.8153 32.4027C55.8425 32.3337 55.8913 32.2796 55.9608 32.2416L56.5074 31.9416C56.5772 31.9032 56.6257 31.9039 56.6529 31.9432C56.68 31.9822 56.6976 32.0167 56.7051 32.0466L57.0482 33.1925" fill="#33BFBF"/>
<path d="M61.4774 31.2191C61.4807 31.129 61.4848 31.0294 61.4888 30.9201C61.4928 30.8101 61.4945 30.6992 61.4945 30.5867C61.4945 30.4742 61.4928 30.3669 61.4888 30.264C61.4848 30.1608 61.4807 30.0688 61.4774 29.9877C61.4693 29.8701 61.4492 29.7688 61.4167 29.6842C61.3842 29.5992 61.3386 29.5358 61.2789 29.4925C61.2193 29.4502 61.1455 29.4307 61.0574 29.4355C60.9692 29.44 60.8656 29.4752 60.747 29.5409C60.628 29.6066 60.5247 29.6855 60.4366 29.7781C60.3481 29.8707 60.2747 29.9717 60.215 30.0797C60.1557 30.1887 60.1098 30.3031 60.0772 30.4236C60.0447 30.5441 60.0246 30.6675 60.0169 30.7938C60.0095 30.8813 60.0045 30.9781 60.0025 31.0842C60.0005 31.1906 59.9995 31.2995 59.9995 31.412C59.9995 31.5242 60.0005 31.6338 60.0025 31.7402C60.0045 31.8467 60.0095 31.9415 60.0169 32.0252C60.0323 32.2614 60.0983 32.4274 60.215 32.5242C60.3323 32.621 60.5093 32.6037 60.747 32.4726C60.9846 32.3415 61.1606 32.1633 61.2759 31.9386C61.3912 31.714 61.4579 31.4742 61.4774 31.2191V31.2191ZM58.9533 31.3444C58.965 31.0646 59.0116 30.781 59.0941 30.4935C59.1765 30.2063 59.2935 29.9316 59.4447 29.6694C59.5962 29.4076 59.7802 29.1646 59.9971 28.94C60.213 28.7153 60.4634 28.5246 60.747 28.3679C61.0269 28.2137 61.2759 28.1288 61.4945 28.113C61.713 28.0977 61.8977 28.1374 62.0496 28.232C62.2004 28.3268 62.3174 28.4723 62.4002 28.6688C62.4823 28.8653 62.5293 29.0967 62.5407 29.364C62.5484 29.5704 62.5524 29.7877 62.5524 30.0175C62.5524 30.2473 62.5484 30.4643 62.5407 30.6688C62.5293 30.9489 62.4823 31.2326 62.4002 31.5197C62.3174 31.8069 62.2004 32.0832 62.0496 32.3473C61.8977 32.6117 61.713 32.8556 61.4945 33.0784C61.2759 33.3018 61.0269 33.4905 60.747 33.645C60.4634 33.8018 60.213 33.8886 59.9971 33.9053C59.7802 33.9226 59.5962 33.8822 59.4447 33.7851C59.2935 33.688 59.1765 33.5409 59.0941 33.3447C59.0116 33.1482 58.965 32.9165 58.9533 32.6489C58.9456 32.4531 58.9419 32.2402 58.9419 32.0104C58.9419 31.7809 58.9456 31.5592 58.9533 31.3444Z" fill="#33BFBF"/>
<path d="M63.9976 28.8736L64.6051 28.5202C64.7555 28.4324 64.8799 28.3219 64.9782 28.1874C65.0769 28.0532 65.1261 27.8848 65.1261 27.6824C65.1261 27.48 65.0769 27.3695 64.9782 27.3499C64.8799 27.33 64.7555 27.3638 64.6051 27.4513L63.9976 27.8046V28.8736ZM64.6051 26.332C64.8413 26.1947 65.0528 26.1053 65.2389 26.0639C65.4253 26.0232 65.5838 26.032 65.7145 26.0908C65.8454 26.1495 65.9454 26.2632 66.0155 26.4318C66.0851 26.6005 66.1205 26.8247 66.1205 27.1039C66.1205 27.4651 66.0647 27.7971 65.9535 28.0999C65.8426 28.4028 65.685 28.6762 65.4807 28.9204L66.1471 30.2512L66.1631 30.3216C66.1631 30.3645 66.1515 30.4087 66.1283 30.4536C66.1051 30.4987 66.0772 30.5303 66.045 30.5489L65.3141 30.9743C65.2426 31.016 65.1913 31.0242 65.1612 30.9983C65.1305 30.9731 65.1061 30.9437 65.0885 30.9109L64.492 29.7127L63.9976 30.0004V31.5456C63.9976 31.5987 63.9832 31.6527 63.9547 31.708C63.9262 31.7632 63.8918 31.8021 63.8526 31.8248L63.1486 32.2347C63.1092 32.2578 63.0753 32.2584 63.0468 32.2363C63.0177 32.2145 63.0039 32.1772 63.0039 32.1242V27.4588C63.0039 27.4058 63.0177 27.3521 63.0468 27.2968C63.0753 27.2416 63.1092 27.2027 63.1486 27.1797L64.6051 26.332" fill="#33BFBF"/>
<path d="M69.2595 25.3992C69.239 24.8525 69.0034 24.7164 68.5543 24.9897L68.025 25.3121V28.0832L68.58 27.7454C69.0158 27.4801 69.2423 27.0626 69.2595 26.4934C69.2629 26.3891 69.2647 26.2921 69.2647 26.2019C69.2647 26.1119 69.2647 26.0245 69.2647 25.9394C69.2647 25.8542 69.2647 25.7678 69.2647 25.6804C69.2647 25.5927 69.2629 25.4993 69.2595 25.3992V25.3992ZM68.58 23.8074C68.8186 23.6623 69.0367 23.5794 69.2335 23.559C69.431 23.5386 69.601 23.5749 69.7446 23.6671C69.888 23.7599 70.0002 23.9066 70.0819 24.1072C70.1626 24.3088 70.2089 24.554 70.2192 24.8442C70.2228 24.9444 70.2246 25.0365 70.2246 25.1217C70.2246 25.2069 70.2246 25.2882 70.2246 25.366C70.2246 25.4438 70.2246 25.5239 70.2246 25.6065C70.2246 25.6894 70.2228 25.7803 70.2192 25.8798C70.2089 26.1875 70.1638 26.4895 70.0843 26.7861C70.0047 27.0821 69.895 27.363 69.7549 27.6284C69.6149 27.8931 69.448 28.1348 69.2544 28.3523C69.0606 28.5698 68.8446 28.7513 68.606 28.8964L67.2055 29.7492C67.1673 29.7725 67.1347 29.7731 67.1072 29.7508C67.079 29.7291 67.0654 29.6911 67.0654 29.6376V24.9262C67.0654 24.8726 67.079 24.8184 67.1072 24.7626C67.1347 24.7068 67.1673 24.6676 67.2055 24.6443L68.58 23.8074" fill="#33BFBF"/>
<path d="M34.7967 72.8477C34.6724 72.8477 34.5713 72.7816 34.5713 72.7V35.7141C34.5713 35.6325 34.6724 35.5661 34.7967 35.5661C34.9215 35.5661 35.0226 35.6325 35.0226 35.7141V72.7C35.0226 72.7816 34.9215 72.8477 34.7967 72.8477Z" fill="#DADBD8"/>
<path d="M70.7505 35.4507L70.68 35.4741L39.2328 53.1891C39.0764 53.2771 38.939 53.5395 38.939 53.7506V58.2979C38.939 58.39 38.9659 58.4469 38.9905 58.461C39.0089 58.4706 39.0423 58.4629 39.0797 58.4418L70.5269 40.7267C70.6836 40.6388 70.8213 40.3761 70.8213 40.1653V35.618C70.8213 35.5259 70.7944 35.4689 70.7698 35.4549L70.7505 35.4507ZM39.0085 58.7637C38.9479 58.7637 38.8895 58.7493 38.8374 58.7198C38.7076 58.6466 38.6328 58.4927 38.6328 58.2979V53.7506C38.6328 53.4316 38.8292 53.0714 39.0797 52.9303L70.5269 35.2152C70.6636 35.1385 70.8082 35.1311 70.9226 35.196C71.0528 35.2693 71.1272 35.4232 71.1272 35.618V40.1653C71.1272 40.4842 70.9311 40.8445 70.68 40.9859L39.2328 58.7006C39.1587 58.7426 39.0816 58.7637 39.0085 58.7637" fill="#DADBD8"/>
<path d="M39.8801 51.2047L39.8395 51.2064L39.8109 51.17L39.2489 50.2113V51.5653L39.2349 51.6274L39.2021 51.6719L39.1312 51.7207L39.0982 51.7217L39.0845 51.6786V49.9009L39.0982 49.8394L39.1312 49.7943L39.1917 49.7525L39.2321 49.7508L39.2609 49.7876L39.823 50.7463V49.3923L39.8367 49.3305L39.8697 49.2854L39.9406 49.2366L39.9737 49.2362L39.9871 49.279V51.0564L39.9737 51.1185L39.9406 51.163L39.8801 51.2047" fill="#33535F"/>
<path d="M40.6163 50.1072L41.1649 49.7627V49.7545C41.1649 49.6394 41.1399 49.5632 41.0897 49.5261C41.0398 49.4883 40.9731 49.4962 40.8897 49.548C40.852 49.5717 40.817 49.603 40.7841 49.6411C40.7519 49.6792 40.7234 49.7229 40.6985 49.7716C40.6738 49.8201 40.6542 49.8723 40.64 49.9283C40.6255 49.9846 40.6179 50.0413 40.6163 50.099V50.1072ZM40.4425 50.2078C40.4482 50.1175 40.4624 50.0279 40.4858 49.9375C40.5092 49.8475 40.5398 49.7624 40.5774 49.682C40.6154 49.6016 40.6605 49.5292 40.7133 49.4639C40.7658 49.3986 40.8246 49.3461 40.8897 49.3049C40.9601 49.2609 41.023 49.2379 41.0783 49.2362C41.1333 49.2348 41.1804 49.2527 41.2196 49.2904C41.2584 49.3282 41.2885 49.3849 41.3093 49.4605C41.3302 49.5357 41.3406 49.6281 41.3406 49.7376V49.8139L41.3248 49.8774L41.2882 49.9231L40.6163 50.3445V50.3617C40.6191 50.4881 40.646 50.5699 40.6975 50.6066C40.749 50.643 40.8132 50.6372 40.8897 50.5891C40.9614 50.5441 41.0151 50.496 41.0508 50.4441C41.0865 50.3926 41.1153 50.3418 41.1374 50.292L41.1649 50.2439L41.2003 50.2133L41.2584 50.1766L41.2976 50.1749L41.3112 50.2199C41.3074 50.2563 41.296 50.3002 41.2784 50.3524C41.26 50.4043 41.2335 50.4589 41.199 50.5152C41.1646 50.5719 41.1219 50.6279 41.0701 50.6839C41.0189 50.7395 40.9589 50.789 40.8897 50.8323C40.8246 50.8731 40.7661 50.8934 40.7143 50.8931C40.6618 50.8927 40.6169 50.8759 40.5784 50.8426C40.5401 50.8093 40.5092 50.7605 40.4858 50.6969C40.4624 50.6337 40.4482 50.5571 40.4425 50.4682C40.4365 50.3854 40.4365 50.2985 40.4425 50.2078" fill="#33535F"/>
<path d="M42.3182 49.3749L42.526 48.5263L42.5464 48.4802L42.5888 48.4406L42.65 48.4088L42.6815 48.408L42.6948 48.439L42.693 48.4578L42.4089 49.6252L42.3894 49.6799L42.3536 49.7163L42.296 49.7459L42.2597 49.7457L42.2383 49.7136L42.0179 49.0912L41.7969 49.9424L41.7756 49.9965L41.7393 50.0342L41.6822 50.0641L41.6459 50.0649L41.6264 50.0307L41.3429 49.157L41.3408 49.1403L41.3537 49.0958L41.385 49.064L41.4462 49.0322L41.4892 49.0279L41.5096 49.0527L41.7174 49.6864L41.9399 48.8299L41.9576 48.7852L41.9969 48.7469L42.0381 48.7259L42.078 48.7229L42.0957 48.7491L42.3182 49.3749" fill="#33535F"/>
<path d="M43.7621 48.2693L44.0726 48.0781C44.1561 48.0266 44.2202 47.9615 44.266 47.8824C44.3121 47.8033 44.3348 47.7113 44.3348 47.6058C44.3348 47.5007 44.3121 47.4383 44.266 47.4189C44.2202 47.3991 44.1561 47.4147 44.0726 47.4662L43.7621 47.6574V48.2693ZM44.0814 47.2385C44.1378 47.2037 44.1915 47.1812 44.2418 47.1704C44.2921 47.1602 44.3362 47.1647 44.3745 47.1839C44.4127 47.2031 44.443 47.2388 44.4655 47.2909C44.4883 47.3427 44.4998 47.4138 44.4998 47.5043C44.4998 47.5948 44.4883 47.6802 44.4655 47.7608C44.443 47.8414 44.4127 47.9157 44.3745 47.9834C44.3362 48.0515 44.2921 48.1117 44.2418 48.1641C44.1915 48.2166 44.1378 48.26 44.0814 48.2948L43.7621 48.4914V49.0961L43.7481 49.1518L43.7152 49.1917L43.6438 49.2354L43.6107 49.2363L43.5972 49.1977V47.6035L43.6107 47.5483L43.6438 47.5079L44.0814 47.2385" fill="#33535F"/>
<path d="M44.8798 48.1052C44.9299 48.0767 44.9747 48.041 45.0162 47.9974C45.0573 47.9541 45.0931 47.9058 45.1225 47.8536C45.1522 47.8014 45.175 47.7462 45.1907 47.6883C45.2067 47.6301 45.2144 47.5713 45.2144 47.5111V47.443L44.971 47.6338C44.8841 47.7019 44.8153 47.7703 44.7641 47.8391C44.7133 47.9081 44.6879 47.9743 44.6879 48.0377L44.6982 48.092L44.7313 48.1303L44.7905 48.1402C44.8143 48.1372 44.8443 48.1253 44.8798 48.1052V48.1052ZM44.5 48.172C44.5 48.0999 44.511 48.0301 44.5331 47.963C44.5548 47.8959 44.5853 47.8324 44.624 47.7723C44.6625 47.7121 44.7073 47.6552 44.7594 47.6024C44.8109 47.5491 44.8654 47.4999 44.9236 47.4543L45.2144 47.2255V47.1901C45.2144 47.0976 45.1917 47.041 45.1455 47.0212C45.0991 47.0013 45.0416 47.0109 44.9727 47.0503C44.9125 47.0847 44.8667 47.1253 44.8353 47.1723C44.8046 47.2189 44.7781 47.2688 44.7561 47.321L44.7293 47.3663L44.6899 47.3967L44.628 47.4321L44.5879 47.4334L44.5722 47.3908C44.5752 47.3491 44.5869 47.3015 44.6086 47.2473C44.6297 47.1938 44.6588 47.1399 44.6952 47.086C44.732 47.0328 44.7738 46.9818 44.8209 46.9342C44.8687 46.886 44.9192 46.847 44.9727 46.8162C45.0349 46.7808 45.0924 46.7597 45.1455 46.7531C45.1984 46.7461 45.2438 46.7547 45.2816 46.7789C45.3197 46.8023 45.3488 46.842 45.3705 46.8969C45.3916 46.9521 45.4026 47.0225 45.4026 47.1098V47.9402L45.3862 48.0014L45.3468 48.0457L45.2702 48.0893L45.2311 48.09L45.2144 48.0477V47.9362C45.2024 47.9772 45.1827 48.0192 45.1566 48.0602C45.1305 48.1015 45.1004 48.1409 45.067 48.1782C45.0332 48.2156 44.9981 48.249 44.9617 48.2791C44.9252 48.3088 44.8908 48.3329 44.8594 48.3508C44.8056 48.3815 44.7564 48.3997 44.7116 48.4057C44.6668 48.411 44.629 48.406 44.598 48.3901C44.5675 48.3739 44.5431 48.3475 44.5261 48.3101C44.5087 48.2724 44.5 48.2268 44.5 48.172" fill="#33535F"/>
<path d="M46.5598 47.3441C46.5598 47.3089 46.5528 47.2834 46.5378 47.2689L46.4693 47.2468C46.4389 47.2472 46.4008 47.2526 46.3539 47.2638C46.3071 47.2753 46.2529 47.2902 46.191 47.3078C46.0742 47.3417 45.9928 47.3346 45.9459 47.2875C45.8988 47.2404 45.8757 47.1672 45.8757 47.0685C45.8757 47.0126 45.8844 46.9546 45.9016 46.895C45.9187 46.835 45.9445 46.7756 45.9795 46.7173C46.0141 46.6587 46.0575 46.6038 46.1099 46.5519C46.1623 46.5 46.2242 46.4546 46.2945 46.4153C46.3651 46.3756 46.4266 46.3516 46.4794 46.3424C46.5315 46.3336 46.5759 46.335 46.6122 46.3465C46.6479 46.358 46.6752 46.3767 46.694 46.4021C46.7126 46.4282 46.7231 46.4573 46.7241 46.4902L46.708 46.5523L46.6661 46.598L46.5948 46.638L46.5633 46.6485L46.5297 46.635C46.5112 46.6139 46.4832 46.6031 46.4469 46.6021C46.4098 46.6011 46.3592 46.619 46.2945 46.6553C46.2284 46.6923 46.1749 46.7384 46.1337 46.7926C46.0924 46.8475 46.0725 46.9028 46.0725 46.9587C46.0725 46.9936 46.0777 47.019 46.0893 47.0339L46.1456 47.058C46.1718 47.0594 46.2053 47.055 46.248 47.0441C46.291 47.0336 46.3438 47.0194 46.407 47.0024C46.4731 46.9845 46.5283 46.977 46.5731 46.9811C46.6175 46.9848 46.6538 46.997 46.6811 47.0183C46.7084 47.039 46.728 47.0682 46.7395 47.1055C46.7507 47.1428 46.7566 47.1858 46.7566 47.2343C46.7566 47.2899 46.7461 47.3495 46.7255 47.4136C46.7042 47.4773 46.6745 47.5397 46.6357 47.6004C46.5972 47.6611 46.5497 47.7194 46.4944 47.7746C46.4385 47.8299 46.3759 47.877 46.3057 47.9163C46.2347 47.956 46.1721 47.98 46.1172 47.9882C46.0627 47.9966 46.0159 47.9953 45.9774 47.9841C45.9383 47.9736 45.9085 47.955 45.8876 47.9285C45.8669 47.9021 45.8554 47.8722 45.854 47.8397L45.8694 47.7783L45.9127 47.7319L45.99 47.6885L46.0204 47.6753L46.0526 47.6895C46.0756 47.7177 46.1074 47.7312 46.1476 47.7312C46.1882 47.7309 46.2406 47.7126 46.3057 47.6763L46.399 47.6099L46.4812 47.5248C46.5049 47.495 46.5245 47.4641 46.5385 47.4329C46.5532 47.4014 46.5598 47.3719 46.5598 47.3441" fill="#33535F"/>
<path d="M47.4622 46.5155C47.4622 46.4803 47.4552 46.4548 47.4401 46.4399L47.3716 46.4182C47.3412 46.4182 47.3031 46.424 47.2563 46.4352C47.2094 46.4464 47.1552 46.4613 47.0933 46.4793C46.9766 46.5131 46.8951 46.506 46.8483 46.4589C46.8011 46.4115 46.778 46.3386 46.778 46.2399C46.778 46.184 46.7868 46.126 46.8039 46.0661C46.821 46.0064 46.8469 45.9471 46.8819 45.8884C46.9165 45.8301 46.9598 45.7749 47.0122 45.7234C47.0647 45.6715 47.1266 45.6261 47.1968 45.5867C47.2674 45.5471 47.329 45.523 47.3817 45.5135C47.4338 45.5051 47.4782 45.5064 47.5146 45.5179C47.5502 45.5291 47.5775 45.5481 47.5964 45.5735C47.6149 45.5996 47.6254 45.6284 47.6265 45.6617L47.6104 45.7237L47.5681 45.7695L47.4971 45.8094L47.4656 45.82L47.4321 45.8064C47.4136 45.7854 47.3856 45.7745 47.3492 45.7735C47.3122 45.7725 47.2615 45.7905 47.1968 45.8267C47.1308 45.8637 47.0773 45.9094 47.036 45.964C46.9948 46.0189 46.9745 46.0738 46.9745 46.1298C46.9745 46.165 46.9801 46.1904 46.9916 46.2054L47.0479 46.2294C47.0738 46.2308 47.1077 46.2264 47.1503 46.2155C47.193 46.205 47.2461 46.1908 47.3094 46.1738C47.3755 46.1559 47.4307 46.1484 47.4754 46.1525C47.5198 46.1562 47.5562 46.1684 47.5835 46.1898C47.6107 46.2104 47.6303 46.2396 47.6418 46.2765C47.653 46.3142 47.659 46.3572 47.659 46.4054C47.659 46.4609 47.6485 46.5209 47.6279 46.585C47.6065 46.6487 47.5768 46.7111 47.538 46.7718C47.4996 46.8325 47.452 46.8908 47.3968 46.946C47.3409 47.0013 47.2783 47.0484 47.208 47.0877C47.137 47.1274 47.0745 47.1514 47.0196 47.1596C46.965 47.168 46.9182 47.1667 46.8798 47.1555C46.8406 47.145 46.8109 47.1263 46.7899 47.0999C46.7693 47.0735 46.7577 47.0436 46.7563 47.0111L46.7717 46.9497L46.8151 46.9033L46.8923 46.8599L46.9227 46.8467L46.9549 46.8609C46.978 46.8891 47.0098 46.9026 47.05 46.9026C47.0905 46.9023 47.143 46.884 47.208 46.8477L47.3013 46.7813L47.3835 46.6962C47.4073 46.666 47.4268 46.6355 47.4408 46.6043C47.4555 46.5728 47.4622 46.5433 47.4622 46.5155" fill="#33535F"/>
<path d="M48.9627 45.8885L49.2398 44.8276L49.2666 44.77L49.3239 44.7202L49.4052 44.6808L49.4472 44.6798L49.4644 44.7185L49.4624 44.7417L49.0836 46.2013L49.058 46.2697L49.0099 46.3148L48.9326 46.3522L48.8846 46.3519L48.8561 46.3118L48.5622 45.5339L48.2675 46.5977L48.239 46.6654L48.191 46.7126L48.1141 46.7496L48.066 46.751L48.04 46.7082L47.662 45.616L47.6592 45.5951L47.6764 45.5396L47.7184 45.4998L47.7997 45.4601L47.857 45.4547L47.8842 45.4857L48.1613 46.2775L48.4581 45.2072L48.4813 45.1513L48.5346 45.1035L48.589 45.0772L48.6423 45.0731L48.6659 45.1061L48.9627 45.8885" fill="#33535F"/>
<path d="M50.193 45.0344C50.1954 45.001 50.1969 44.9615 50.1969 44.9155C50.1969 44.8695 50.1954 44.8306 50.193 44.7982C50.189 44.7451 50.181 44.6977 50.1684 44.6571C50.1559 44.6166 50.1381 44.5855 50.1154 44.5651C50.0925 44.544 50.0649 44.5337 50.0321 44.5341C49.9993 44.5348 49.9607 44.5491 49.9166 44.5774C49.8725 44.6057 49.8339 44.6408 49.8014 44.6823C49.7683 44.7243 49.7404 44.7699 49.7177 44.8204C49.6954 44.8701 49.6776 44.9236 49.6647 44.9802C49.6522 45.0371 49.6442 45.0947 49.6402 45.1534C49.6375 45.1885 49.6362 45.2294 49.6362 45.2754C49.6362 45.321 49.6375 45.3589 49.6402 45.3892C49.6442 45.4427 49.6522 45.4901 49.6647 45.5307C49.6776 45.5709 49.6954 45.6019 49.7177 45.6227C49.7404 45.6438 49.7683 45.6544 49.8014 45.6533C49.8339 45.653 49.8725 45.6387 49.9166 45.6104C49.9607 45.5818 49.9993 45.547 50.0321 45.5051C50.0649 45.4639 50.0925 45.4178 50.1154 45.3674C50.1381 45.3176 50.1559 45.2641 50.1684 45.2072C50.181 45.1506 50.189 45.0927 50.193 45.0344V45.0344ZM49.9166 44.3361C49.9846 44.2924 50.0453 44.2689 50.098 44.2658C50.1513 44.2628 50.1969 44.2757 50.2346 44.3057C50.2723 44.3361 50.3023 44.3827 50.3244 44.4461C50.3465 44.5095 50.3602 44.5855 50.3648 44.6738L50.367 44.7328V44.8061V44.879L50.3648 44.9376C50.359 45.0354 50.3449 45.1295 50.3235 45.2198C50.302 45.3105 50.2723 45.395 50.2346 45.4734C50.1969 45.5521 50.1513 45.6237 50.098 45.6888C50.0453 45.7536 49.9846 45.8077 49.9166 45.8517C49.8486 45.8953 49.7882 45.9189 49.7349 45.9219C49.6822 45.925 49.6362 45.912 49.5986 45.8817C49.5606 45.852 49.5312 45.8057 49.5085 45.743C49.4867 45.6806 49.4732 45.6043 49.468 45.514L49.4653 45.4581L49.4644 45.3858L49.4653 45.3122L49.468 45.2502C49.4732 45.1551 49.4867 45.0617 49.5085 44.97C49.5312 44.878 49.5606 44.7931 49.5986 44.714C49.6362 44.6356 49.6822 44.5641 49.7349 44.499C49.7882 44.4339 49.8486 44.38 49.9166 44.3361" fill="#33535F"/>
<path d="M51.228 43.4374L51.2574 43.4368L51.2697 43.4781V43.563L51.2574 43.6231L51.228 43.666L51.138 43.7329C51.0189 43.821 50.9593 43.9673 50.9593 44.171V44.9472L50.947 45.0072L50.9176 45.0502L50.8603 45.0928L50.8304 45.0938L50.8184 45.0521V43.8133L50.8304 43.7532L50.8603 43.7103L50.9176 43.6676L50.947 43.667L50.9593 43.7083V43.7907C50.9802 43.7219 51.0048 43.6651 51.034 43.6186C51.0629 43.5721 51.1008 43.5317 51.1473 43.4972L51.228 43.4374" fill="#33535F"/>
<path d="M51.9988 43.8985C52.0001 43.873 52.0007 43.8402 52.0007 43.7996C52.0007 43.759 52.0001 43.7269 51.9988 43.7028C51.9951 43.588 51.9683 43.5125 51.9181 43.4773C51.8678 43.4419 51.803 43.447 51.7229 43.4918C51.639 43.539 51.573 43.6108 51.5246 43.7073C51.4761 43.8038 51.4496 43.913 51.4447 44.0344C51.4435 44.0816 51.4435 44.1276 51.4447 44.1733C51.4496 44.289 51.4761 44.3684 51.5246 44.4105C51.573 44.4526 51.639 44.4499 51.7229 44.403C51.8015 44.3585 51.8662 44.2909 51.9171 44.1995C51.968 44.1081 51.9951 44.008 51.9988 43.8985V43.8985ZM51.7037 43.2897C51.7824 43.2455 51.8453 43.2278 51.8925 43.2368C51.9393 43.2458 51.9745 43.2645 51.9988 43.2918V42.7447L52.014 42.6891L52.05 42.6491L52.1207 42.6094L52.157 42.6085L52.1722 42.647V44.2713L52.157 44.3269L52.1207 44.3672L52.05 44.4066L52.014 44.4075L51.9988 44.3687V44.2921C51.9733 44.351 51.9375 44.4105 51.8906 44.4706C51.8431 44.5314 51.7811 44.5828 51.7037 44.6264C51.6439 44.66 51.5884 44.6778 51.5369 44.6796C51.4857 44.6811 51.441 44.6672 51.4028 44.6378C51.3648 44.6077 51.334 44.5632 51.3115 44.5031C51.2887 44.4436 51.2754 44.3693 51.2714 44.2806C51.2698 44.2566 51.2695 44.2304 51.2695 44.2013C51.2695 44.1724 51.2698 44.1453 51.2714 44.1198C51.2754 44.0269 51.2887 43.9376 51.3115 43.8519C51.334 43.7668 51.3648 43.6881 51.4028 43.6162C51.441 43.5447 51.4857 43.4806 51.5369 43.4244C51.5884 43.3682 51.6439 43.3234 51.7037 43.2897" fill="#33535F"/>
<path d="M52.974 43.8921L53.0446 43.8915L53.0748 43.9301V44.0963L53.0446 44.1524L52.974 44.1925L52.7244 44.2645L52.6531 44.2651L52.6235 44.2265V44.0601L52.6531 44.0043L52.7244 43.9642L52.974 43.8921ZM52.974 43.0227L53.0446 43.0224L53.0748 43.061V43.2275L53.0446 43.283L52.974 43.3234L52.7244 43.3954L52.6531 43.3961L52.6235 43.3575V43.191L52.6531 43.1352L52.7244 43.0948L52.974 43.0227Z" fill="#33535F"/>
<path d="M70.7502 46.221L70.68 46.2444L39.2328 63.9594C39.0764 64.0477 38.939 64.31 38.939 64.5208V69.068C38.939 69.1602 38.9659 69.2174 38.9905 69.2312C39.0089 69.2411 39.0423 69.2334 39.0797 69.212L70.5269 51.497C70.6836 51.4091 70.8213 51.1467 70.8213 50.9356V46.3884C70.8213 46.2962 70.7944 46.2393 70.7698 46.2255L70.7502 46.221ZM39.0085 69.5342C38.9479 69.5342 38.8895 69.5195 38.8374 69.4904C38.7076 69.4171 38.6328 69.2632 38.6328 69.068V64.5208C38.6328 64.2022 38.8292 63.8419 39.0797 63.7005L70.5269 45.9856C70.6636 45.9088 70.8082 45.9017 70.9226 45.9667C71.0528 46.0399 71.1272 46.1935 71.1272 46.3884V50.9356C71.1272 51.2545 70.9311 51.6151 70.68 51.7562L39.2328 69.4712C39.1587 69.5127 39.0816 69.5342 39.0085 69.5342" fill="#DADBD8"/>
<path d="M38.8651 61.4513C38.8616 61.5323 38.86 61.6073 38.86 61.6761C38.86 61.7449 38.8616 61.8182 38.8651 61.8961C38.8698 62.0405 38.9098 62.1402 38.9861 62.1945C39.062 62.2492 39.1717 62.2424 39.3144 62.1743C39.3907 62.1376 39.4561 62.0961 39.5086 62.0495C39.5619 62.0032 39.6051 61.9552 39.6397 61.9051C39.6743 61.8552 39.7004 61.8041 39.7191 61.752C39.7374 61.6999 39.7514 61.6494 39.7611 61.6008L39.7852 61.5455L39.8233 61.5127L39.9342 61.46L39.9712 61.4596L39.9867 61.4934C39.9852 61.5519 39.9716 61.6221 39.9459 61.7034C39.9202 61.7845 39.8809 61.8684 39.8272 61.9546C39.7735 62.0411 39.7047 62.1247 39.6206 62.2055C39.5362 62.2865 39.4343 62.3553 39.3144 62.4126C39.2098 62.4624 39.1172 62.4888 39.0351 62.4914C38.9534 62.4943 38.8834 62.4779 38.825 62.4422C38.7667 62.4065 38.7211 62.3524 38.6892 62.2804C38.6569 62.2087 38.6394 62.1212 38.6363 62.0183C38.6316 61.8636 38.6316 61.7063 38.6363 61.5471C38.6394 61.4429 38.6569 61.3394 38.6892 61.2355C38.7211 61.1319 38.7667 61.0345 38.825 60.9431C38.8834 60.8518 38.9534 60.7685 39.0351 60.6932C39.1172 60.6177 39.2098 60.5556 39.3144 60.5057C39.4343 60.4485 39.5362 60.4199 39.6206 60.4205C39.7047 60.4212 39.7735 60.4388 39.8272 60.4742C39.8809 60.5096 39.9202 60.5553 39.9459 60.6119C39.9716 60.6688 39.9852 60.7257 39.9867 60.7833L39.9712 60.8315L39.9342 60.8666L39.8233 60.9193L39.7852 60.9235L39.7611 60.891C39.7514 60.8515 39.7374 60.8145 39.7191 60.7801C39.7004 60.7453 39.6743 60.7196 39.6397 60.7026C39.6051 60.6858 39.5619 60.6788 39.5086 60.683C39.4561 60.6868 39.3907 60.7077 39.3144 60.7441C39.1717 60.8122 39.062 60.9097 38.9861 61.037C38.9098 61.1647 38.8698 61.3024 38.8651 61.4513" fill="#33535F"/>
<path d="M41.0797 60.7753C41.0834 60.7419 41.0852 60.7027 41.0852 60.6567C41.0852 60.6107 41.0834 60.5715 41.0797 60.5395C41.0742 60.486 41.0613 60.4389 41.0429 60.398C41.0236 60.3578 40.9974 60.3268 40.963 60.306C40.929 60.2852 40.8871 60.275 40.8384 60.2754C40.7892 60.276 40.7318 60.2903 40.6652 60.3186C40.599 60.3469 40.5411 60.382 40.4919 60.4236C40.4427 60.4655 40.4014 60.5112 40.3674 60.5613C40.3329 60.6111 40.3067 60.6649 40.2878 60.7215C40.269 60.7784 40.2566 60.836 40.2511 60.8946C40.2469 60.9297 40.2451 60.9706 40.2451 61.0163C40.2451 61.0623 40.2469 61.1001 40.2511 61.1304C40.2566 61.184 40.269 61.2313 40.2878 61.2715C40.3067 61.3121 40.3329 61.3431 40.3674 61.3639C40.4014 61.3847 40.4427 61.3953 40.4919 61.3946C40.5411 61.3942 40.599 61.3796 40.6652 61.3513C40.7318 61.323 40.7892 61.2879 40.8384 61.2463C40.8871 61.2051 40.929 61.1587 40.963 61.1086C40.9974 61.0585 41.0236 61.005 41.0429 60.9484C41.0613 60.8919 41.0742 60.8339 41.0797 60.7753ZM40.6652 60.0773C40.7676 60.0337 40.8582 60.0099 40.9377 60.0071C41.0172 60.0037 41.0852 60.017 41.1417 60.047C41.1987 60.0773 41.2438 60.1237 41.2769 60.1871C41.31 60.2505 41.3306 60.3268 41.338 60.4151L41.3407 60.474V60.5473V60.6203L41.338 60.6789C41.3283 60.7763 41.3072 60.8707 41.2755 60.9611C41.2438 61.0514 41.1987 61.1362 41.1417 61.2143C41.0852 61.2934 41.0172 61.3646 40.9377 61.4297C40.8582 61.4948 40.7676 61.549 40.6652 61.5926C40.5627 61.6365 40.4721 61.6601 40.3926 61.6631C40.3131 61.6662 40.2451 61.6532 40.1881 61.6229C40.1316 61.5933 40.0865 61.5469 40.0535 61.4842C40.0204 61.4218 40.0001 61.3452 39.9923 61.2552L39.9877 61.1993L39.9868 61.127L39.9877 61.0531L39.9923 60.9911C40.0001 60.8963 40.0204 60.8026 40.0535 60.7109C40.0865 60.6192 40.1316 60.534 40.1881 60.4553C40.2451 60.3766 40.3131 60.3053 40.3926 60.2403C40.4721 60.1752 40.5627 60.121 40.6652 60.0773" fill="#33535F"/>
<path d="M42.2434 60.5592L42.2276 60.6314L42.1906 60.6831L42.1179 60.7344L42.0812 60.7351L42.0654 60.6854V59.841C42.0654 59.6767 42.0413 59.571 41.9933 59.524C41.9449 59.4774 41.8778 59.4844 41.7921 59.5454C41.7099 59.6036 41.6438 59.691 41.5935 59.8076C41.5435 59.9241 41.5186 60.0643 41.5186 60.2286V61.0731L41.5027 61.1453L41.4657 61.197L41.3933 61.2482L41.3563 61.249L41.3408 61.1989V59.7085L41.3563 59.6367L41.3933 59.585L41.4657 59.5337L41.5027 59.5326L41.5186 59.5827V59.6817C41.5432 59.611 41.5799 59.5353 41.6286 59.4549C41.6773 59.3745 41.7418 59.3061 41.8212 59.2498C41.8823 59.2063 41.9392 59.1822 41.9914 59.1783C42.0432 59.1748 42.0875 59.19 42.1252 59.2241C42.1622 59.2591 42.1909 59.3135 42.2118 59.3885C42.2327 59.463 42.2434 59.5559 42.2434 59.667V60.5592" fill="#33535F"/>
<path d="M43.5974 59.9297L43.5823 59.9939L43.5458 60.0398L43.4754 60.0854L43.4392 60.0861L43.4241 60.0419V58.8848L43.0786 59.1074V60.2645L43.0632 60.3287L43.0267 60.3746L42.9559 60.4202L42.9201 60.4209L42.9046 60.3767V59.2196L42.7464 59.3218L42.71 59.3225L42.6948 59.2783V59.1875L42.71 59.1233L42.7464 59.0774L42.9046 58.9752V58.833C42.9046 58.6721 42.9294 58.5351 42.9791 58.4225C43.0289 58.31 43.1089 58.2182 43.2195 58.1467L43.5458 57.9362L43.5823 57.9355L43.5974 57.9796V58.0708L43.5823 58.1346L43.5458 58.1806L43.2387 58.379C43.2056 58.4004 43.1784 58.4236 43.1577 58.4498L43.1089 58.5337C43.0975 58.5637 43.0894 58.5958 43.0848 58.63C43.0808 58.6642 43.0786 58.6994 43.0786 58.7349V58.863L43.5458 58.5616L43.5823 58.5606L43.5974 58.6051V59.9297" fill="#33535F"/>
<path d="M44.4159 57.936L44.4747 57.9353L44.4998 57.977V58.0616L44.4747 58.1216L44.4159 58.1646L44.2361 58.2314C43.998 58.3199 43.8795 58.4661 43.8795 58.6699V59.446L43.8549 59.5058L43.7956 59.549L43.6805 59.5916L43.6218 59.5923L43.5972 59.5506V58.3118L43.6218 58.2521L43.6805 58.2088L43.7956 58.1665L43.8549 58.1655L43.8795 58.2072V58.2895C43.9212 58.2207 43.9699 58.1636 44.0286 58.1171C44.0864 58.0709 44.1618 58.0306 44.2547 57.996L44.4159 57.936Z" fill="#33535F"/>
<path d="M44.7205 57.8775C44.735 57.8495 44.7519 57.8199 44.7715 57.7883C44.7907 57.757 44.8131 57.727 44.8378 57.6987L44.9265 57.6152C44.9602 57.5887 45.0003 57.5646 45.0454 57.5433C45.1439 57.4965 45.2255 57.4775 45.2902 57.4865C45.3546 57.4959 45.4056 57.5288 45.4424 57.5852C45.4636 57.5436 45.486 57.5033 45.5091 57.464C45.5327 57.4243 45.5601 57.3863 45.5915 57.3502C45.6233 57.3141 45.6586 57.2809 45.6983 57.2503C45.7375 57.2203 45.7846 57.1926 45.8375 57.1674C46.0008 57.0897 46.1197 57.0872 46.1942 57.1587C46.268 57.2306 46.3052 57.3595 46.3052 57.5452V58.2805L46.286 58.3404L46.2401 58.3833L46.1503 58.4259L46.104 58.4265L46.0847 58.3849V57.6764C46.0847 57.5401 46.0608 57.4511 46.0122 57.4098C45.9639 57.3679 45.8925 57.3695 45.7991 57.414C45.7132 57.4546 45.6441 57.5181 45.5915 57.6052C45.5394 57.6922 45.5127 57.7999 45.5127 57.9291V58.6563L45.4934 58.7163L45.4475 58.7592L45.3581 58.8017L45.3118 58.8024L45.2926 58.7608V58.0523C45.2926 57.9159 45.2682 57.8269 45.2196 57.7857C45.1713 57.7438 45.0999 57.7454 45.0065 57.7899C44.9206 57.8305 44.8519 57.894 44.7994 57.981C44.7464 58.0681 44.7205 58.1757 44.7205 58.305V59.0322L44.7013 59.0922L44.655 59.135L44.5655 59.1776L44.5192 59.1782L44.5 59.1366V57.9001L44.5192 57.8402L44.5655 57.7973L44.655 57.7547L44.7013 57.7538L44.7205 57.7954V57.8775" fill="#33535F"/>
<path d="M46.9296 57.0597C46.9284 57.085 46.9277 57.1181 46.9277 57.1583C46.9277 57.1989 46.9284 57.2314 46.9296 57.2552C46.9333 57.3703 46.9604 57.4455 47.0107 57.4807C47.0606 57.5161 47.126 57.511 47.2058 57.4662C47.2897 57.419 47.3556 57.3472 47.404 57.2506C47.4521 57.1541 47.4786 57.045 47.4836 56.9235C47.4848 56.8763 47.4848 56.8303 47.4836 56.7846C47.4786 56.6688 47.4521 56.5895 47.404 56.5474C47.3556 56.5053 47.2897 56.5077 47.2058 56.5552C47.1269 56.5994 47.0621 56.6673 47.0113 56.7584C46.9607 56.8498 46.9333 56.95 46.9296 57.0597V57.0597ZM47.2249 57.6683C47.146 57.7128 47.0834 57.7305 47.0363 57.7215C46.9894 57.7122 46.9539 57.6938 46.9296 57.6662V58.2137L46.9145 58.269L46.8784 58.3093L46.8078 58.3487L46.7718 58.3496L46.7563 58.3111V56.6869L46.7718 56.631L46.8078 56.591L46.8784 56.5513L46.9145 56.5504L46.9296 56.5892V56.6658C46.9552 56.6069 46.9912 56.5477 47.0384 56.4872C47.0853 56.4268 47.1475 56.3751 47.2249 56.3315C47.2844 56.2978 47.3402 56.2801 47.3914 56.2786C47.4429 56.2768 47.4876 56.2906 47.5255 56.3204C47.5637 56.3501 47.5942 56.3946 47.617 56.4548C47.6399 56.5143 47.6531 56.5889 47.6571 56.6773C47.6584 56.7013 47.659 56.7278 47.659 56.7569C47.659 56.7855 47.6584 56.8126 47.6571 56.8384C47.6531 56.9313 47.6399 57.0203 47.617 57.106C47.5942 57.1914 47.5637 57.2699 47.5255 57.3417C47.4876 57.4136 47.4429 57.4774 47.3914 57.5339C47.3402 57.5901 47.2844 57.6346 47.2249 57.6683" fill="#33535F"/>
<path d="M48.4904 57.2184C48.5399 57.19 48.5854 57.1543 48.6266 57.1107C48.668 57.0673 48.7035 57.0191 48.7329 56.9668C48.7627 56.9149 48.7851 56.8597 48.8009 56.8015C48.8169 56.7433 48.825 56.6845 48.825 56.6247V56.5565L48.5814 56.747C48.4944 56.8151 48.4252 56.8835 48.3743 56.9523C48.3238 57.0214 48.298 57.0875 48.298 57.151L48.3087 57.2052L48.3412 57.2436L48.4004 57.2535C48.4245 57.2505 48.4546 57.2386 48.4904 57.2184V57.2184ZM48.1104 57.2855C48.1104 57.2131 48.1207 57.1434 48.1431 57.0763C48.1652 57.0092 48.1953 56.9457 48.2341 56.8855C48.2726 56.8253 48.3174 56.7688 48.3693 56.7156C48.4212 56.6623 48.4757 56.6131 48.5339 56.5675L48.825 56.3387V56.3033C48.825 56.2107 48.8019 56.1542 48.756 56.1344C48.7099 56.1145 48.652 56.1241 48.5834 56.1635C48.5225 56.1982 48.477 56.2388 48.4459 56.2854C48.4148 56.3321 48.3884 56.382 48.3663 56.4342L48.3392 56.4795L48.3 56.5099L48.2382 56.5453L48.198 56.5466L48.1823 56.504C48.1853 56.4623 48.197 56.4147 48.2184 56.3605C48.2398 56.3069 48.2689 56.253 48.3054 56.1992C48.3419 56.1459 48.3837 56.095 48.4315 56.0474C48.4787 55.9991 48.5295 55.9601 48.5834 55.9294C48.6453 55.894 48.7025 55.8728 48.756 55.8662C48.8089 55.8596 48.8544 55.8679 48.8922 55.892C48.93 55.9155 48.9594 55.9552 48.9809 56.0101C49.0023 56.0653 49.013 56.136 49.013 56.223V57.0535L48.9966 57.1146L48.9571 57.1589L48.8812 57.2026L48.8414 57.2032L48.825 57.1609V57.0495C48.8126 57.0905 48.7932 57.1325 48.7674 57.1735C48.741 57.2148 48.7109 57.2541 48.6771 57.2915C48.6436 57.3289 48.6085 57.3626 48.572 57.3923C48.5352 57.4221 48.5011 57.4462 48.4693 57.4644C48.4158 57.4948 48.3666 57.513 48.3218 57.519C48.2773 57.5242 48.2392 57.5193 48.208 57.5034C48.1773 57.4872 48.1532 57.4608 48.1358 57.4234C48.1187 57.3857 48.1104 57.3401 48.1104 57.2855" fill="#33535F"/>
<path d="M49.7193 56.0428C49.7193 56.0076 49.7116 55.9821 49.6966 55.9676L49.6288 55.9455C49.5984 55.9459 49.5599 55.9513 49.5131 55.9628C49.4662 55.974 49.4121 55.9889 49.3502 56.0066C49.2334 56.0404 49.152 56.0337 49.1051 55.9862C49.0579 55.9391 49.0349 55.8659 49.0349 55.7672C49.0349 55.7113 49.0436 55.6533 49.0607 55.5937C49.0779 55.5337 49.1041 55.4744 49.1383 55.4161C49.1729 55.3574 49.2166 55.3025 49.2694 55.2506C49.3215 55.1991 49.3834 55.1533 49.4537 55.114C49.5243 55.0744 49.5858 55.0503 49.6382 55.0412C49.691 55.0323 49.7354 55.0337 49.7711 55.0452C49.8071 55.0567 49.8347 55.0754 49.8529 55.1012C49.8718 55.1269 49.8819 55.1561 49.8829 55.1889L49.8672 55.251L49.8249 55.2967L49.7536 55.3367L49.7221 55.3472L49.6889 55.334C49.6704 55.313 49.6424 55.3018 49.6057 55.3008C49.5694 55.2998 49.5183 55.3178 49.4537 55.354C49.3872 55.3913 49.3338 55.4371 49.2929 55.4913C49.2519 55.5462 49.2313 55.6015 49.2313 55.6574C49.2313 55.6923 49.2369 55.7177 49.2485 55.7327L49.3047 55.7571C49.3306 55.7584 49.3645 55.7537 49.4072 55.7428C49.4498 55.7323 49.5026 55.7181 49.5659 55.7015C49.6323 55.6832 49.6875 55.6757 49.7323 55.6798C49.777 55.6835 49.8127 55.6957 49.8399 55.7171C49.8676 55.7377 49.8871 55.7669 49.8983 55.8042C49.9099 55.8415 49.9158 55.8845 49.9158 55.933C49.9158 55.9886 49.9053 56.0483 49.8843 56.1123C49.8634 56.176 49.8337 56.2384 49.7945 56.2991C49.756 56.3598 49.7085 56.4181 49.6536 56.4733C49.598 56.5286 49.5348 56.5757 49.4645 56.615C49.3939 56.6547 49.3313 56.6787 49.2764 56.6869C49.2219 56.6954 49.175 56.694 49.1366 56.6831C49.0971 56.6723 49.0674 56.6537 49.0467 56.6272C49.0258 56.6008 49.0146 56.5709 49.0132 56.5384L49.0282 56.4771L49.0716 56.4306L49.1492 56.3872L49.1796 56.374L49.2117 56.3882C49.2348 56.4164 49.2666 56.4299 49.3072 56.4299C49.347 56.4296 49.3998 56.4113 49.4645 56.375C49.4963 56.3574 49.5278 56.3354 49.5585 56.3089L49.6403 56.2238C49.6641 56.1937 49.6833 56.1628 49.6977 56.132C49.712 56.1001 49.7193 56.0706 49.7193 56.0428" fill="#33535F"/>
<path d="M50.7203 55.6288C50.7203 55.5935 50.7164 55.5681 50.7089 55.5535L50.675 55.5315C50.6598 55.5318 50.6406 55.5373 50.6171 55.5484C50.5937 55.56 50.5666 55.5745 50.5357 55.5925C50.4773 55.6264 50.4366 55.6193 50.4132 55.5722C50.3896 55.5251 50.378 55.4518 50.378 55.3532C50.378 55.2973 50.3824 55.2393 50.391 55.1793C50.3995 55.1196 50.4126 55.0603 50.4298 55.002C50.4471 54.9434 50.4687 54.8884 50.4953 54.8366C50.5214 54.7847 50.5523 54.7393 50.5874 54.7C50.6227 54.6603 50.6535 54.6362 50.6797 54.6271C50.7061 54.6183 50.7283 54.6196 50.7461 54.6312C50.7641 54.6423 50.7778 54.6613 50.787 54.6868C50.7965 54.7129 50.8015 54.7417 50.8021 54.7749L50.7942 54.8369L50.7731 54.8827L50.7374 54.9227L50.7217 54.9332L50.7051 54.9196C50.6958 54.8986 50.6818 54.8878 50.6635 54.8868C50.6453 54.8857 50.6198 54.9037 50.5874 54.94C50.5542 54.9769 50.5275 55.023 50.507 55.0773C50.4866 55.1322 50.4763 55.1871 50.4763 55.243C50.4763 55.2783 50.4791 55.3037 50.4848 55.3186L50.513 55.3427C50.5259 55.344 50.5429 55.3396 50.5642 55.3288C50.5855 55.3183 50.6119 55.304 50.6435 55.2871C50.6767 55.2691 50.7044 55.2617 50.7267 55.2657C50.7491 55.2695 50.7669 55.2817 50.7806 55.303C50.7942 55.3237 50.8042 55.3528 50.8098 55.3901C50.8155 55.4274 50.8185 55.4705 50.8185 55.5186C50.8185 55.5745 50.8133 55.6342 50.8028 55.6983C50.7923 55.762 50.7774 55.8244 50.7578 55.885C50.7386 55.9457 50.7148 56.004 50.6872 56.0593C50.6596 56.1145 50.628 56.1617 50.5928 56.201C50.5575 56.2406 50.5262 56.2647 50.4988 56.2728C50.4715 56.2813 50.4481 56.28 50.4289 56.2688C50.4091 56.2583 50.3943 56.2396 50.384 56.2132C50.3735 56.1867 50.3679 56.1569 50.3672 56.1244L50.3747 56.063L50.3964 56.0166L50.4352 55.9732L50.4504 55.96L50.4665 55.9742C50.478 56.0023 50.4939 56.0159 50.514 56.0159C50.5341 56.0156 50.5605 55.9973 50.5928 55.961C50.6087 55.9434 50.6245 55.921 50.6399 55.8945L50.6808 55.8095C50.6926 55.7793 50.7023 55.7488 50.7094 55.7176C50.7166 55.6861 50.7203 55.6566 50.7203 55.6288" fill="#33535F"/>
<path d="M52.2472 54.5872L52.4547 53.5264L52.4751 53.4688L52.5178 53.4193L52.5793 53.3795L52.6106 53.3785L52.6235 53.4172L52.6217 53.4408L52.3382 54.9001L52.3184 54.9684L52.2824 55.0136L52.2247 55.051L52.1887 55.0506L52.1673 55.0105L51.9467 54.2326L51.7262 55.2965L51.7046 55.3642L51.6683 55.4113L51.6109 55.4484L51.5749 55.4497L51.5554 55.4069L51.2716 54.3148L51.2695 54.2939L51.2824 54.2383L51.3143 54.1986L51.3755 54.1588L51.4179 54.1534L51.4386 54.1844L51.6464 54.9765L51.8686 53.9059L51.8863 53.85L51.9262 53.8022L51.9668 53.7759L52.0067 53.7719L52.0247 53.8049L52.2472 54.5872" fill="#33535F"/>
<path d="M53.7165 53.7336C53.7197 53.7002 53.722 53.6607 53.722 53.6147C53.722 53.5687 53.7197 53.5298 53.7165 53.4974C53.711 53.4443 53.6981 53.3969 53.6793 53.3563C53.6605 53.3158 53.6343 53.2848 53.5998 53.2643C53.5658 53.2432 53.524 53.2333 53.4753 53.2336C53.4262 53.234 53.3687 53.2483 53.3021 53.2766C53.2355 53.3049 53.1781 53.3403 53.1289 53.3819C53.0797 53.4235 53.0384 53.4691 53.0039 53.5196C52.9699 53.5693 52.9438 53.6229 52.9249 53.6798C52.9056 53.7364 52.8932 53.7943 52.8877 53.8526C52.884 53.8877 52.8817 53.9286 52.8817 53.9746C52.8817 54.0206 52.884 54.0581 52.8877 54.0884C52.8932 54.1419 52.9056 54.1893 52.9249 54.2299C52.9438 54.2704 52.9699 54.3011 53.0039 54.3219C53.0384 54.343 53.0797 54.3536 53.1289 54.3526C53.1781 54.3522 53.2355 54.3379 53.3021 54.3096C53.3687 54.281 53.4262 54.2462 53.4753 54.2043C53.524 54.1631 53.5658 54.1171 53.5998 54.0666C53.6343 54.0169 53.6605 53.9633 53.6793 53.9064C53.6981 53.8499 53.711 53.7919 53.7165 53.7336V53.7336ZM53.3021 53.0353C53.4041 52.9917 53.4951 52.9681 53.5745 52.9651C53.654 52.962 53.722 52.975 53.7785 53.0049C53.8355 53.0353 53.8805 53.082 53.9136 53.1454C53.9462 53.2088 53.9669 53.2848 53.9747 53.373L53.9775 53.4323V53.5053V53.5782L53.9747 53.6372C53.9651 53.7346 53.9439 53.8287 53.9118 53.919C53.8801 54.0097 53.8355 54.0942 53.7785 54.1726C53.722 54.2513 53.654 54.3229 53.5745 54.388C53.4951 54.4528 53.4041 54.507 53.3021 54.5509C53.1997 54.5946 53.1092 54.6181 53.0297 54.6211C52.9502 54.6242 52.8817 54.6113 52.8252 54.5809C52.7687 54.5513 52.7237 54.5049 52.6906 54.4422C52.6575 54.3798 52.6373 54.3035 52.6295 54.2132L52.6249 54.1573L52.6235 54.085L52.6249 54.0114L52.6295 53.9494C52.6373 53.8543 52.6575 53.7609 52.6906 53.6692C52.7237 53.5772 52.7687 53.4923 52.8252 53.4133C52.8817 53.3349 52.9502 53.2633 53.0297 53.1985C53.1092 53.1334 53.1997 53.0792 53.3021 53.0353Z" fill="#33535F"/>
<path d="M54.3869 52.5507L54.4163 52.5501L54.4288 52.5914V52.6763L54.4163 52.7364L54.3869 52.7793L54.2971 52.8461C54.1781 52.9343 54.1186 53.0805 54.1186 53.2843V54.0608L54.1063 54.1205L54.0769 54.1634L54.0195 54.2061L53.9901 54.207L53.9775 54.1654V52.9265L53.9901 52.8665L54.0195 52.8235L54.0769 52.7809L54.1063 52.7803L54.1186 52.8219V52.9039C54.1394 52.8355 54.164 52.7783 54.1929 52.7319C54.222 52.6854 54.2597 52.645 54.3064 52.6105L54.3869 52.5507" fill="#33535F"/>
<path d="M55.6099 52.5971C55.6115 52.5716 55.6118 52.5388 55.6118 52.4982C55.6118 52.4576 55.6115 52.4254 55.6099 52.4014C55.6059 52.2865 55.5791 52.2111 55.5291 52.1759C55.4788 52.1407 55.4137 52.1455 55.3335 52.1906C55.2499 52.2375 55.1836 52.3097 55.1355 52.4059C55.0874 52.5024 55.0605 52.6116 55.0556 52.733C55.0544 52.7803 55.0544 52.8263 55.0556 52.872C55.0605 52.9877 55.0874 53.0671 55.1355 53.1092C55.1836 53.1513 55.2499 53.1489 55.3335 53.1017C55.4125 53.0572 55.477 52.9895 55.5279 52.8984C55.5788 52.8067 55.6059 52.7066 55.6099 52.5971V52.5971ZM55.3147 51.9883C55.3934 51.9441 55.4563 51.9263 55.5032 51.9353C55.5504 51.9444 55.5859 51.963 55.6099 51.9904V51.4431L55.625 51.3875L55.6615 51.3475L55.7318 51.3078L55.7682 51.3072L55.783 51.3457V52.97L55.7682 53.0256L55.7318 53.0659L55.6615 53.1056L55.625 53.1062L55.6099 53.0674V52.9907C55.5843 53.05 55.5485 53.1092 55.5013 53.1693C55.4541 53.2301 55.3921 53.2818 55.3147 53.3254C55.2552 53.3588 55.1993 53.3765 55.1478 53.3783C55.0966 53.3798 55.0516 53.366 55.0133 53.3365C54.9754 53.3064 54.9452 53.2619 54.922 53.2018C54.8992 53.1423 54.8859 53.0683 54.8822 52.9793C54.881 52.9555 54.8804 52.9291 54.8804 52.8999C54.8804 52.8711 54.881 52.844 54.8822 52.8184C54.8859 52.7255 54.8992 52.6365 54.922 52.5505C54.9452 52.4654 54.9754 52.3867 55.0133 52.3148C55.0516 52.2432 55.0966 52.1792 55.1478 52.123C55.1993 52.0667 55.2552 52.0219 55.3147 51.9883" fill="#33535F"/>
<path d="M56.1331 52.5911L56.2044 52.5905L56.234 52.6291V52.7952L56.2044 52.8513L56.1331 52.8914L55.8836 52.9635L55.8123 52.9644L55.7827 52.9255V52.759L55.8123 52.7033L55.8836 52.6632L56.1331 52.5911ZM56.1331 51.7219L56.2044 51.7216L56.234 51.7602V51.9266L56.2044 51.9821L56.1331 52.0225L55.8836 52.0946L55.8123 52.0952L55.7827 52.0566V51.8902L55.8123 51.8344L55.8836 51.794L56.1331 51.7219Z" fill="#33535F"/>
<path d="M19.9111 92.3174C19.7727 92.3174 19.6777 92.2114 19.6777 92.0276V85.3801C19.6777 85.1214 19.8664 84.8066 20.0994 84.677L71.1568 56.3339C71.2245 56.2963 71.2883 56.2786 71.3451 56.2786C71.4835 56.2786 71.5785 56.3845 71.5785 56.5683V57.8491L71.4904 57.801C71.3619 57.7314 71.1953 57.6969 71.0286 57.6969C70.8581 57.6969 70.6878 57.733 70.5587 57.8051L47.4842 70.612L21.2556 85.1691C21.2474 85.1736 21.2395 85.1783 21.2316 85.1834C21.1169 85.2527 21.0144 85.3618 20.9362 85.4874H20.9365C20.8474 85.6303 20.7916 85.7933 20.7906 85.9403V85.9407C20.7906 85.9419 20.7906 85.9429 20.7906 85.9441V91.8786L20.0994 92.262C20.0317 92.2997 19.9679 92.3174 19.9111 92.3174" fill="#BFC0BE"/>
<path d="M70.6337 57.6305L21.0483 85.1939C20.7901 85.3376 20.5806 85.6871 20.5806 85.9745V92.1924C20.5806 92.4798 20.7911 92.8268 21.0509 92.9683L21.9414 93.4552C22.2013 93.5967 22.621 93.5947 22.8792 93.451L72.4649 65.8874C72.7231 65.7437 72.9326 65.3941 72.9326 65.1067V58.8895C72.9326 58.6021 72.7221 58.2544 72.4623 58.113L71.5718 57.6261C71.3119 57.4846 70.8922 57.4865 70.6337 57.6305" fill="#33BFBF"/>
<path d="M22.4091 93.5601C22.3522 93.5601 22.2952 93.5566 22.2406 93.5491C22.135 93.5336 22.0354 93.5039 21.9518 93.4597L21.4252 93.1799L21.0545 92.9822C20.7934 92.8457 20.5806 92.5051 20.5806 92.2239V86.1389C20.5806 86.1376 20.5806 86.1367 20.5806 86.1354V86.1351C20.5816 85.9898 20.6395 85.8305 20.7298 85.6895L22.5637 86.6817C22.5387 86.722 22.5167 86.7638 22.4981 86.8062C22.4518 86.9091 22.4254 87.0166 22.4254 87.1164V93.1999C22.4254 93.2071 22.4258 93.2139 22.4261 93.2208C22.4328 93.4051 22.5337 93.5124 22.6792 93.5158C22.6826 93.5158 22.6856 93.5158 22.6889 93.5158C22.7339 93.5158 22.7838 93.5058 22.8371 93.484C22.7159 93.5345 22.5613 93.5601 22.4091 93.5601Z" fill="#009B9B"/>
<path d="M72.9325 58.7637C72.8401 58.5853 72.6719 58.4191 72.4791 58.3342L71.5786 57.9361V57.9352L72.4788 58.3337C72.6711 58.4191 72.8405 58.5853 72.9325 58.7637" fill="#FBFBFA"/>
<path d="M21.0321 85.6895H21.0317C21.1098 85.5622 21.2122 85.4515 21.3266 85.3813C21.2128 85.4519 21.1098 85.5628 21.0321 85.6895ZM47.5297 70.6119L70.5607 57.6308C70.6896 57.5577 70.8595 57.5212 71.0297 57.5212C71.1961 57.5212 71.3624 57.5561 71.4906 57.6267L71.5786 57.6754V57.6764L71.4903 57.6273C71.3627 57.5568 71.1964 57.5218 71.0301 57.5218C70.8595 57.5218 70.6889 57.5584 70.5593 57.6318L47.5297 70.6119Z" fill="#CCCDCB"/>
<path d="M22.8427 86.5176L21.0337 85.5031L21.0331 85.5041L21.0317 85.5031C21.1096 85.3773 21.2128 85.2671 21.3269 85.197C21.3348 85.1919 21.3433 85.1871 21.3515 85.1827L47.5796 70.5247L70.6529 57.6301C70.7827 57.5571 70.9536 57.5208 71.1245 57.5208C71.2912 57.5208 71.4578 57.5555 71.5856 57.6256L71.674 57.6743L72.471 58.1123C72.6416 58.2056 72.7905 58.3884 72.8723 58.5846C72.9029 58.6582 72.9236 58.7334 72.9325 58.8066C72.9078 58.6531 72.8122 58.5662 72.6811 58.5662C72.6183 58.5662 72.5476 58.5859 72.473 58.6276L37.8881 77.9566L23.1713 86.1812C23.0431 86.2529 22.9268 86.3762 22.8427 86.5176Z" fill="#009B9B"/>
<path d="M72.4646 58.8252L22.8537 86.2715C22.5954 86.4146 22.3861 86.7626 22.3861 87.0488L22.3857 88.3021L22.3861 93.2396C22.3861 93.5258 22.5954 93.6419 22.8537 93.4988L72.4646 66.0525C72.7232 65.9094 72.9326 65.5614 72.9326 65.2752V59.0844C72.9326 58.7982 72.7232 58.6821 72.4646 58.8252" fill="#33BFBF"/>
<path d="M33.1477 84.764C33.1526 84.7153 33.1662 84.6733 33.1876 84.6377C33.2093 84.6018 33.2323 84.5766 33.2579 84.5611L33.5659 84.3774L33.6398 84.3724C33.6609 84.3861 33.6706 84.4143 33.6683 84.4577C33.6606 84.6058 33.6343 84.765 33.5905 84.9346C33.5458 85.1043 33.4781 85.2742 33.3873 85.4442C33.2959 85.6141 33.1808 85.7774 33.0414 85.9342C32.9023 86.0911 32.7338 86.2288 32.5367 86.347C32.3616 86.4511 32.2073 86.5076 32.0731 86.516C31.9389 86.5254 31.8248 86.4935 31.7311 86.4216C31.6374 86.35 31.5648 86.2405 31.5129 86.0934C31.4607 85.946 31.4299 85.7703 31.4196 85.5664C31.415 85.4368 31.4121 85.2913 31.4121 85.1304C31.4121 84.9696 31.415 84.8214 31.4196 84.6851C31.4299 84.4694 31.4607 84.2568 31.5129 84.0472C31.5648 83.8376 31.6374 83.6415 31.7311 83.4574C31.8248 83.2737 31.9389 83.1061 32.0731 82.9539C32.2073 82.8021 32.3616 82.6738 32.5367 82.5693C32.7338 82.4514 32.9023 82.3873 33.0414 82.3772C33.1808 82.3675 33.2959 82.393 33.3873 82.4538C33.4781 82.5146 33.5458 82.6043 33.5905 82.7232C33.6343 82.8417 33.6606 82.969 33.6683 83.1041C33.6706 83.1444 33.6609 83.1843 33.6398 83.2236C33.6181 83.2626 33.5931 83.2905 33.5659 83.3069L33.2579 83.4913L33.1856 83.5004C33.163 83.4913 33.1487 83.4655 33.1442 83.4231C33.1361 83.3573 33.1189 83.2995 33.091 83.2505C33.0628 83.2005 33.0252 83.1638 32.9769 83.14C32.9289 83.1161 32.868 83.1098 32.7947 83.1205C32.7211 83.1309 32.6349 83.1659 32.5367 83.225C32.4378 83.2838 32.3512 83.3566 32.2783 83.4426C32.2047 83.5286 32.1434 83.621 32.0938 83.7207C32.0446 83.8198 32.0066 83.927 31.9801 84.0408C31.9535 84.1544 31.9376 84.2672 31.9324 84.3784C31.9275 84.5148 31.9249 84.6629 31.9249 84.8238C31.9249 84.9847 31.9275 85.1301 31.9324 85.2598C31.9376 85.3686 31.9535 85.4636 31.9801 85.5439C32.0066 85.6239 32.0446 85.6843 32.0938 85.725C32.1434 85.7649 32.2047 85.7848 32.2783 85.7827C32.3512 85.7807 32.4378 85.7498 32.5367 85.6907C32.6349 85.6319 32.7211 85.5637 32.7947 85.4868C32.868 85.4096 32.9296 85.33 32.9788 85.248C33.0281 85.166 33.0667 85.0834 33.0946 85.0001C33.1221 84.9172 33.1403 84.8386 33.1477 84.764" fill="white"/>
<path d="M35.9249 84.1374C35.9249 84.1743 35.9148 84.2116 35.8952 84.2498C35.8753 84.2883 35.8519 84.3152 35.8251 84.331L35.5437 84.4963L35.4736 84.4973C35.4537 84.4822 35.444 84.4565 35.444 84.4193V83.1456C35.444 82.9453 35.4092 82.805 35.3404 82.725C35.2709 82.6454 35.1651 82.6473 35.0221 82.7315C34.8914 82.8079 34.7887 82.9286 34.713 83.0933C34.6378 83.2577 34.6005 83.4404 34.6005 83.6407V84.9144C34.6005 84.9516 34.5908 84.9888 34.5709 85.027C34.5513 85.0659 34.5276 85.0929 34.5008 85.1086L34.2194 85.2736L34.149 85.2749C34.1294 85.2598 34.1196 85.2341 34.1196 85.1969V81.9067C34.1196 81.8704 34.1294 81.8328 34.149 81.7946C34.1689 81.7564 34.1923 81.7294 34.2194 81.7131L34.5008 81.548L34.5709 81.5467C34.5908 81.5618 34.6005 81.5878 34.6005 81.6244V82.6929C34.6646 82.5684 34.7395 82.4525 34.8263 82.3452C34.9122 82.2374 35.0148 82.1487 35.1332 82.0794C35.2832 81.9914 35.4092 81.949 35.5103 81.9532C35.6116 81.9574 35.6928 81.995 35.7544 82.0653C35.8163 82.1365 35.8598 82.2354 35.8857 82.3619C35.9116 82.4891 35.9249 82.631 35.9249 82.7883V84.1374" fill="white"/>
<path d="M37.1473 82.9096C37.234 82.8638 37.3105 82.8083 37.3783 82.7426C37.4457 82.6769 37.5021 82.607 37.548 82.533C37.594 82.4586 37.6282 82.3839 37.6513 82.3089C37.6741 82.2346 37.6852 82.1644 37.6852 82.0987V82.0519L37.1665 82.4403C37.0619 82.5177 36.987 82.5896 36.9411 82.6562C36.8955 82.7225 36.8723 82.7918 36.8723 82.8638C36.8723 82.9294 36.8997 82.963 36.9548 82.9651C37.0092 82.9675 37.0733 82.9489 37.1473 82.9096ZM36.51 81.9272C36.5201 81.8564 36.5436 81.7736 36.5804 81.6788C36.6176 81.5844 36.6694 81.4863 36.7368 81.3846C36.8046 81.2838 36.887 81.1858 36.9851 81.0919C37.0831 80.9974 37.1968 80.9159 37.3268 80.8469C37.4565 80.7779 37.5738 80.7368 37.678 80.7233C37.782 80.7101 37.8722 80.7239 37.9468 80.7653C38.0221 80.807 38.0797 80.8781 38.1205 80.98C38.1612 81.0817 38.1817 81.2122 38.1817 81.3714V82.7486C38.1817 82.7834 38.1716 82.8182 38.1511 82.8539C38.1309 82.8902 38.1065 82.915 38.0784 82.93L37.7885 83.0839L37.7158 83.0851C37.6956 83.071 37.6852 83.047 37.6852 83.0125V82.8581C37.6318 82.9768 37.5552 83.0953 37.4545 83.2123C37.3539 83.3298 37.2261 83.43 37.0711 83.5122C36.9616 83.5706 36.8635 83.6045 36.7769 83.6147C36.6905 83.6249 36.6179 83.6123 36.5596 83.5778C36.5009 83.5436 36.4556 83.4903 36.424 83.418C36.3924 83.346 36.3765 83.2569 36.3765 83.1508C36.3765 82.9351 36.4384 82.7336 36.5635 82.5453C36.6879 82.3572 36.8547 82.186 37.0632 82.0315L37.6852 81.57C37.6852 81.4416 37.6513 81.369 37.5822 81.3525C37.5138 81.336 37.4281 81.3549 37.3268 81.4089C37.263 81.4428 37.2134 81.4803 37.1779 81.5208C37.1418 81.5616 37.1079 81.6095 37.0746 81.6647C37.0518 81.7016 37.031 81.7301 37.0118 81.7496L36.9489 81.797L36.5941 81.9856L36.5293 81.9922C36.511 81.9829 36.5045 81.9613 36.51 81.9272" fill="white"/>
<path d="M40.4381 81.6548C40.4381 81.6916 40.4283 81.7291 40.4084 81.7672C40.3888 81.8056 40.3654 81.8325 40.3386 81.8482L40.0572 82.0129L39.9871 82.0138C39.9672 81.9988 39.9575 81.9731 39.9575 81.9363V80.6654C39.9575 80.4656 39.9224 80.3259 39.8539 80.2462C39.7844 80.1667 39.6786 80.1683 39.5356 80.2522C39.4049 80.3285 39.3019 80.4489 39.2265 80.6132C39.1513 80.7775 39.114 80.9594 39.114 81.1593V82.4302C39.114 82.467 39.1043 82.5042 39.0844 82.5426C39.0648 82.5814 39.0408 82.6083 39.0139 82.6236L38.7329 82.7883L38.6625 82.7896C38.6429 82.7745 38.6328 82.7489 38.6328 82.712V80.3807C38.6328 80.3435 38.6429 80.3064 38.6625 80.2683C38.6821 80.2298 38.7058 80.2029 38.7329 80.1872L39.0139 80.0223L39.0844 80.0213C39.1043 80.0364 39.114 80.062 39.114 80.0992V80.2138C39.1781 80.0895 39.253 79.9739 39.3398 79.8669C39.4257 79.7593 39.528 79.6712 39.6464 79.6021C39.7967 79.514 39.9224 79.472 40.0238 79.4759C40.1251 79.48 40.2063 79.5175 40.2679 79.588C40.3294 79.6591 40.3733 79.7574 40.3992 79.8839C40.4251 80.0104 40.4381 80.1523 40.4381 80.3093V81.6548" fill="white"/>
<path d="M41.475 79.6436C41.4659 79.7374 41.4659 79.8263 41.475 79.9109C41.493 80.1095 41.5525 80.2308 41.6535 80.2748C41.755 80.3185 41.8785 80.3069 42.0246 80.2391C42.1703 80.1715 42.2931 80.0689 42.3934 79.9302C42.4929 79.7921 42.5501 79.6335 42.565 79.4544C42.5711 79.4043 42.5745 79.3423 42.5745 79.2687C42.5745 79.1959 42.5711 79.137 42.565 79.092C42.5501 78.9335 42.4929 78.8296 42.3934 78.7801C42.2931 78.7309 42.1703 78.7401 42.0246 78.8076C41.8785 78.8748 41.755 78.9775 41.6535 79.1147C41.5525 79.2528 41.493 79.4288 41.475 79.6436V79.6436ZM42.0109 81.2477C42.0734 81.2183 42.1379 81.1786 42.2035 81.1276C42.2687 81.0766 42.3285 81.0167 42.3819 80.9473C42.4353 80.8776 42.4796 80.8013 42.5139 80.7169C42.5478 80.6323 42.565 80.544 42.565 80.452V80.2754C42.5414 80.3148 42.5101 80.3607 42.4712 80.412C42.4323 80.4633 42.3854 80.5159 42.3308 80.57C42.2755 80.624 42.2111 80.6778 42.1386 80.7307C42.0658 80.7832 41.9826 80.8312 41.8907 80.874C41.7412 80.9427 41.6066 80.9739 41.4861 80.9678C41.366 80.9614 41.2626 80.9265 41.1776 80.8621C41.0933 80.7982 41.0262 80.7099 40.9766 80.5975C40.9274 80.485 40.9003 80.3567 40.8938 80.2131C40.8912 80.167 40.8896 80.112 40.8896 80.0481C40.8896 79.9845 40.8912 79.9283 40.8938 79.8791C40.9003 79.73 40.9274 79.5763 40.9766 79.4187C41.0262 79.2604 41.0933 79.1101 41.1776 78.9674C41.2626 78.8247 41.366 78.6945 41.4861 78.5769C41.6066 78.459 41.7412 78.3658 41.8907 78.2967C41.9826 78.2542 42.0658 78.2252 42.1386 78.2106C42.2111 78.1962 42.2755 78.1904 42.3308 78.1934C42.3854 78.1968 42.4323 78.206 42.4712 78.2212C42.5101 78.2365 42.5414 78.253 42.565 78.2711V78.1611C42.565 78.1259 42.5768 78.0905 42.6008 78.0541C42.6245 78.0175 42.6531 77.9918 42.6859 77.9768L43.0253 77.8195L43.1104 77.8185C43.134 77.8329 43.1462 77.8573 43.1462 77.8925V80.1309C43.1462 80.5156 43.0455 80.8526 42.8445 81.1413C42.6432 81.4304 42.3655 81.6565 42.0109 81.8206C41.8595 81.8905 41.7184 81.9342 41.5891 81.9513C41.4594 81.9681 41.3469 81.9629 41.2516 81.9354C41.1562 81.9076 41.0803 81.8618 41.0239 81.7973C40.9671 81.7329 40.9358 81.6546 40.9301 81.5615C40.927 81.5278 40.9381 81.4927 40.9636 81.4554C40.9884 81.4185 41.0178 81.3922 41.0502 81.3772L41.3542 81.2364C41.3961 81.2171 41.4316 81.2153 41.4617 81.2321L41.5376 81.2804C41.5761 81.3167 41.6291 81.3366 41.6962 81.3409C41.763 81.3448 41.8682 81.3137 42.0109 81.2477" fill="white"/>
<path d="M44.4979 77.6979C44.427 77.7392 44.3661 77.7885 44.3159 77.8457C44.2657 77.9031 44.2233 77.9634 44.1891 78.0275C44.1546 78.0923 44.1282 78.1567 44.11 78.2217C44.0918 78.2868 44.0802 78.3452 44.0752 78.3976L44.9062 77.9148C44.9009 77.8684 44.8921 77.8217 44.8786 77.7752C44.8648 77.7291 44.8431 77.6925 44.8124 77.6657C44.7816 77.6392 44.7415 77.6268 44.6909 77.6278C44.6407 77.6294 44.5764 77.6524 44.4979 77.6979V77.6979ZM43.5972 78.9606C43.5972 78.7768 43.6182 78.5911 43.6596 78.4045C43.7014 78.2176 43.7613 78.0411 43.8401 77.8753C43.9182 77.7099 44.013 77.5605 44.1247 77.4267C44.2365 77.2925 44.3608 77.1857 44.4979 77.1062C44.6351 77.0266 44.7597 76.9878 44.8711 76.9906C44.9825 76.9931 45.0776 77.0282 45.156 77.0961C45.2345 77.1643 45.2951 77.2618 45.3384 77.39C45.3811 77.5182 45.4024 77.666 45.4024 77.8333V78.0553C45.4024 78.0916 45.3927 78.1289 45.3729 78.1665C45.3535 78.204 45.3305 78.2306 45.3032 78.2463L44.0752 78.9593C44.0752 79.0354 44.0868 79.0951 44.11 79.139C44.1335 79.1832 44.1646 79.2135 44.2038 79.2302C44.2431 79.2469 44.2883 79.2498 44.3397 79.24C44.3912 79.2296 44.4439 79.2091 44.4979 79.1778C44.5764 79.132 44.6401 79.0843 44.6894 79.0348C44.738 78.9846 44.7788 78.9337 44.8105 78.8826C44.8372 78.8403 44.8595 78.81 44.8764 78.7897C44.894 78.7702 44.9172 78.7515 44.9464 78.7345L45.2408 78.5633L45.3126 78.5618C45.333 78.576 45.3425 78.6016 45.3403 78.6394C45.3374 78.6868 45.3183 78.7569 45.2828 78.8497C45.2474 78.9429 45.194 79.0446 45.1228 79.1551C45.0518 79.2653 44.9643 79.3751 44.8604 79.4847C44.7559 79.5949 44.6351 79.6896 44.4979 79.7695C44.3608 79.8494 44.2365 79.8895 44.1247 79.8901C44.013 79.8908 43.9182 79.8545 43.8401 79.7815C43.7613 79.7086 43.7014 79.6031 43.6596 79.4648C43.6182 79.3265 43.5972 79.1579 43.5972 78.9606" fill="white"/>
<path d="M47.1996 76.1774L47.7084 75.8503C47.8331 75.7705 47.9326 75.6698 48.0071 75.5491C48.0813 75.4281 48.1186 75.2766 48.1186 75.0948C48.1186 74.913 48.0813 74.811 48.0071 74.7892C47.9326 74.7674 47.8331 74.796 47.7084 74.8762L47.1996 75.2033V76.1774ZM47.7249 74.2572C47.9894 74.087 48.1954 74.0471 48.3419 74.1378C48.4885 74.2288 48.5616 74.4533 48.5616 74.8101C48.5616 75.1677 48.4885 75.487 48.3419 75.7702C48.1954 76.0524 47.9894 76.2784 47.7249 76.4484L47.1996 76.7861V77.8724C47.1996 77.9083 47.1909 77.9448 47.1733 77.9816C47.1559 78.019 47.1349 78.0452 47.1108 78.0608L46.8449 78.2317L46.7827 78.2329C46.765 78.2183 46.7563 78.193 46.7563 78.1571V75.0106C46.7563 74.975 46.765 74.9389 46.7827 74.9014C46.8001 74.8637 46.8211 74.8375 46.8449 74.8222L47.7249 74.2572" fill="white"/>
<path d="M49.784 75.868C49.8707 75.8215 49.9476 75.7661 50.015 75.7004C50.0825 75.6347 50.1391 75.5651 50.1851 75.4907C50.2307 75.4164 50.2652 75.342 50.288 75.2673C50.3108 75.1926 50.3226 75.1224 50.3226 75.0571V75.01L49.8032 75.3984C49.699 75.4757 49.6237 75.5474 49.5781 75.6143C49.5325 75.6806 49.5094 75.7499 49.5094 75.8215C49.5094 75.8872 49.5367 75.9211 49.5915 75.9232C49.6459 75.9253 49.7104 75.9073 49.784 75.868V75.868ZM49.1468 74.8852C49.1569 74.8141 49.1806 74.7316 49.2175 74.6369C49.2543 74.5424 49.3064 74.4446 49.3738 74.3429C49.4413 74.2419 49.524 74.1441 49.6218 74.0496C49.7202 73.9555 49.8339 73.8739 49.9635 73.8049C50.0932 73.7359 50.2105 73.6948 50.3147 73.6813C50.419 73.6681 50.5089 73.6819 50.5839 73.7233C50.6588 73.765 50.7168 73.8361 50.7572 73.9378C50.7979 74.0397 50.8184 74.1705 50.8184 74.3298V75.707C50.8184 75.7415 50.8083 75.7763 50.7878 75.8119C50.7676 75.8479 50.7435 75.8731 50.7158 75.8878L50.4255 76.0423L50.3529 76.0432C50.3327 76.0291 50.3226 76.0051 50.3226 75.9706V75.8158C50.2688 75.9349 50.1919 76.0531 50.0916 76.1706C49.9909 76.2879 49.8629 76.3881 49.7078 76.4706C49.5986 76.5287 49.5003 76.5626 49.4136 76.5725C49.3273 76.583 49.2549 76.5707 49.1963 76.536C49.138 76.5018 49.0927 76.4484 49.0607 76.3761C49.0291 76.3044 49.0132 76.2147 49.0132 76.1086C49.0132 75.8932 49.0754 75.6917 49.2002 75.5033C49.325 75.3153 49.4918 75.144 49.7 74.9896L50.3226 74.5277C50.3226 74.3996 50.288 74.3271 50.2193 74.3106C50.1505 74.2941 50.0652 74.3127 49.9635 74.3669C49.9 74.4005 49.8502 74.438 49.8146 74.4788C49.7791 74.5199 49.7446 74.5676 49.7117 74.6225C49.6889 74.6594 49.668 74.6882 49.6485 74.7077L49.5859 74.755L49.2308 74.9437L49.166 74.95C49.1481 74.941 49.1415 74.9197 49.1468 74.8852" fill="white"/>
<path d="M52.5452 74.2229C52.5452 74.1875 52.5358 74.1632 52.5166 74.1502C52.4975 74.1375 52.4645 74.1334 52.4172 74.1384C52.3692 74.1437 52.3059 74.157 52.2273 74.1782C52.1487 74.1993 52.0482 74.2254 51.9258 74.2559C51.8065 74.2854 51.7074 74.2959 51.6285 74.2882C51.5499 74.2801 51.4866 74.2559 51.439 74.2158C51.3917 74.176 51.3583 74.1194 51.3395 74.0467C51.3204 73.9737 51.311 73.8889 51.311 73.7919C51.311 73.6947 51.3298 73.5896 51.368 73.4759C51.4059 73.3625 51.4609 73.2506 51.5329 73.1406C51.6049 73.0312 51.6925 72.9268 51.7958 72.8283C51.899 72.7295 52.0169 72.6462 52.1498 72.5775C52.2833 72.5089 52.4022 72.4651 52.5066 72.447C52.6109 72.4284 52.6999 72.4296 52.7733 72.4498C52.8467 72.4703 52.9037 72.5082 52.9444 72.5632C52.9854 72.6182 53.008 72.6832 53.0139 72.7581C53.0164 72.7923 53.0059 72.8283 52.9833 72.8659C52.9597 72.9038 52.9336 72.9305 52.9037 72.9458L52.59 73.1077C52.5493 73.1285 52.5187 73.1356 52.4986 73.1282L52.4311 73.1021C52.4068 73.0924 52.3741 73.0887 52.3337 73.0918C52.2923 73.0952 52.2315 73.1179 52.1498 73.1599C52.0687 73.2018 51.9964 73.2537 51.9342 73.3149C51.8716 73.3761 51.8406 73.4442 51.8406 73.5185C51.8406 73.5542 51.8479 73.5803 51.8629 73.5968C51.8775 73.6136 51.906 73.6207 51.9484 73.6182C51.9905 73.616 52.0486 73.6061 52.1233 73.5887C52.1981 73.571 52.2951 73.5461 52.4151 73.5135C52.6564 73.4504 52.8272 73.4585 52.9263 73.5383C53.0254 73.6185 53.0748 73.7552 53.0748 73.9495C53.0748 74.0467 53.0543 74.1521 53.0139 74.2652C52.9729 74.3783 52.9141 74.4911 52.8366 74.6039C52.759 74.7167 52.6641 74.8239 52.5518 74.9261C52.4384 75.028 52.3118 75.1151 52.1706 75.1878C52.0267 75.2623 51.8997 75.3074 51.7895 75.3239C51.6796 75.3403 51.5864 75.3357 51.5106 75.3099C51.4345 75.2847 51.376 75.2418 51.3353 75.1819C51.2943 75.1219 51.2728 75.0541 51.27 74.978C51.2672 74.9435 51.2776 74.9075 51.3006 74.8699C51.3235 74.8323 51.3503 74.8052 51.3799 74.79L51.6939 74.6281C51.7346 74.6073 51.7652 74.6026 51.7853 74.6148L51.8549 74.6567C51.8806 74.6726 51.9164 74.68 51.9627 74.6791C52.0089 74.6775 52.0778 74.6536 52.1706 74.6054C52.2113 74.5846 52.2531 74.5594 52.2969 74.5309C52.3403 74.5016 52.38 74.4709 52.4172 74.437C52.4534 74.4038 52.484 74.3687 52.5086 74.3317C52.533 74.2947 52.5452 74.2583 52.5452 74.2229" fill="white"/>
<path d="M54.3503 73.3944C54.3503 73.3589 54.3406 73.3347 54.3218 73.3216C54.3027 73.3086 54.2693 73.3049 54.2224 73.3098C54.1744 73.3151 54.1111 73.3282 54.0325 73.3496C53.9539 73.3707 53.8534 73.3968 53.731 73.4273C53.6117 73.4568 53.5126 73.4674 53.4337 73.4593C53.3547 73.4515 53.2921 73.4276 53.2442 73.3872C53.1965 73.3471 53.1635 73.2909 53.1447 73.2178C53.1252 73.1454 53.1162 73.0603 53.1162 72.9633C53.1162 72.8661 53.135 72.761 53.1732 72.6473C53.2108 72.5339 53.2661 72.422 53.338 72.312C53.41 72.2026 53.4977 72.0982 53.6009 71.9997C53.7039 71.9009 53.8221 71.8176 53.9549 71.7489C54.0885 71.6803 54.2074 71.6364 54.3114 71.6184C54.4161 71.5998 54.5051 71.601 54.5784 71.6212C54.6518 71.6417 54.7089 71.6796 54.7495 71.7343C54.7902 71.7896 54.8132 71.8546 54.8187 71.9292C54.8215 71.9637 54.8111 71.9997 54.7885 72.0373C54.7648 72.0752 54.7388 72.1019 54.7089 72.1172L54.3952 72.2791C54.3545 72.2999 54.3239 72.307 54.3037 72.2996L54.2363 72.2735C54.2116 72.2638 54.1792 72.2601 54.1386 72.2632C54.0975 72.2666 54.0363 72.2893 53.9549 72.3313C53.8739 72.3732 53.8016 72.4251 53.7393 72.4863C53.6767 72.5476 53.6455 72.6156 53.6455 72.6899C53.6455 72.7253 53.6531 72.7517 53.6681 72.7682C53.6827 72.785 53.7112 72.7921 53.7536 72.7896C53.7957 72.7875 53.8538 72.7772 53.9285 72.7601C54.0033 72.7424 54.1003 72.7175 54.2203 72.6849C54.4616 72.6215 54.632 72.6299 54.7311 72.7098C54.8306 72.7896 54.88 72.9267 54.88 73.1209C54.88 73.2182 54.8594 73.3235 54.8187 73.4363C54.7781 73.5497 54.7189 73.6625 54.6417 73.7753C54.5642 73.8881 54.4693 73.9953 54.3566 74.0973C54.2436 74.1992 54.117 74.2865 53.9758 74.3595C53.8318 74.4335 53.7046 74.4792 53.5947 74.4953C53.4848 74.5118 53.3916 74.5068 53.3158 74.4814C53.2393 74.4559 53.1809 74.4136 53.1405 74.3533C53.0995 74.2937 53.0779 74.2256 53.0751 74.1495C53.0724 74.115 53.0828 74.0789 53.1058 74.0413C53.1287 74.0037 53.1555 73.9767 53.185 73.9615L53.499 73.7996C53.5397 73.7788 53.5703 73.7741 53.5905 73.7862L53.6597 73.8282C53.6858 73.844 53.7216 73.8515 53.7679 73.8502C53.8141 73.849 53.883 73.8247 53.9758 73.7769C54.0165 73.7561 54.0582 73.7309 54.102 73.7023C54.1455 73.6731 54.1855 73.642 54.2224 73.6085C54.2585 73.5752 54.2891 73.5401 54.3135 73.5031C54.3382 73.4661 54.3503 73.4298 54.3503 73.3944" fill="white"/>
<path d="M57.2583 71.4552L57.5763 69.8716C57.5832 69.8413 57.5932 69.8095 57.6061 69.7758C57.6191 69.7418 57.6421 69.7153 57.6752 69.6957L57.9438 69.5353L58.011 69.5341C58.0301 69.5487 58.0394 69.574 58.0394 69.6099L58.0358 69.6457L57.5021 72.2111C57.4951 72.2445 57.4843 72.2785 57.4704 72.3128C57.4559 72.3474 57.4324 72.3743 57.3998 72.3939L57.1309 72.5543C57.0981 72.5739 57.0751 72.5749 57.0622 72.5565L57.0284 72.4938L56.6859 71.3972L56.3429 72.9031C56.3335 72.938 56.3218 72.9723 56.3088 73.006C56.2961 73.04 56.2729 73.0666 56.24 73.0862L55.9715 73.2466C55.9386 73.2662 55.9151 73.2675 55.9009 73.2497L55.8689 73.1857L55.3352 71.258L55.3315 71.2262C55.3315 71.1903 55.3409 71.1538 55.3602 71.1167C55.3789 71.0793 55.4015 71.0531 55.4272 71.0378L55.6957 70.8771C55.7289 70.8575 55.7518 70.8568 55.7648 70.8752L55.7947 70.9351L56.113 72.1387L56.4521 70.5427C56.4572 70.5137 56.4684 70.4809 56.4856 70.4447C56.5034 70.4079 56.5254 70.382 56.5511 70.3667L56.8199 70.2064H56.8854L56.9188 70.2641L57.2583 71.4552" fill="white"/>
<path d="M59.8277 69.4037C59.8206 69.2928 59.8029 69.2083 59.7758 69.1507C59.7483 69.0927 59.7145 69.0555 59.6739 69.0379C59.6336 69.0207 59.5894 69.0197 59.5418 69.0351C59.4942 69.0508 59.4451 69.0755 59.395 69.1092C59.345 69.1432 59.2965 69.1847 59.2486 69.2337C59.201 69.2828 59.1567 69.3436 59.1162 69.4156C59.0756 69.4879 59.042 69.5713 59.0146 69.6665C58.9868 69.7613 58.97 69.8691 58.9627 69.9893C58.9603 70.0208 58.9587 70.0591 58.9575 70.1046C58.956 70.1504 58.9557 70.1977 58.9557 70.2456C58.9557 70.2943 58.956 70.3416 58.9575 70.387C58.9587 70.4332 58.9603 70.4683 58.9627 70.4926C58.97 70.6032 58.9868 70.6877 59.0146 70.7453C59.042 70.8033 59.0756 70.8409 59.1162 70.8584C59.1567 70.8756 59.201 70.8763 59.2486 70.8609C59.2965 70.8455 59.345 70.8208 59.395 70.7868C59.4451 70.7528 59.4942 70.7117 59.5418 70.6623C59.5894 70.6136 59.6336 70.5527 59.6739 70.4808C59.7145 70.4085 59.7483 70.3247 59.7758 70.2299C59.8029 70.1347 59.8206 70.0273 59.8277 69.9067C59.8301 69.8791 59.8313 69.8419 59.8313 69.795C59.8313 69.7488 59.8313 69.7012 59.8313 69.6525C59.8313 69.6042 59.8313 69.5573 59.8313 69.5126C59.8313 69.4678 59.8301 69.4317 59.8277 69.4037V69.4037ZM59.395 68.4384C59.5262 68.3496 59.6449 68.3009 59.7508 68.2927C59.8569 68.2841 59.9488 68.3095 60.0263 68.3689C60.1038 68.4284 60.1654 68.5171 60.2118 68.6345C60.2581 68.7523 60.285 68.894 60.2923 69.0608C60.2947 69.093 60.296 69.1346 60.296 69.1868C60.296 69.2391 60.296 69.2914 60.296 69.3433C60.296 69.3959 60.296 69.4467 60.296 69.4972C60.296 69.5476 60.2947 69.5902 60.2923 69.6253C60.2825 69.8036 60.2557 69.9822 60.2099 70.1622C60.1651 70.3416 60.1038 70.513 60.0263 70.6752C59.9488 70.8377 59.8569 70.9866 59.7508 71.1219C59.6449 71.2568 59.5262 71.3688 59.395 71.4576C59.2641 71.5464 59.1455 71.5951 59.0396 71.6033C58.9337 71.6119 58.8419 71.5875 58.7644 71.5299C58.6869 71.4726 58.6256 71.3842 58.5801 71.2661C58.535 71.1476 58.5075 71.0059 58.498 70.8409C58.4956 70.809 58.4938 70.7682 58.4926 70.7188C58.4913 70.6691 58.4907 70.6186 58.4907 70.566C58.4907 70.5141 58.4913 70.4615 58.4926 70.4081C58.4938 70.3552 58.4956 70.3115 58.498 70.2764C58.5051 70.0999 58.5319 69.9217 58.5786 69.7409C58.625 69.5605 58.6869 69.3876 58.7644 69.2233C58.8419 69.059 58.9337 68.9094 59.0396 68.7745C59.1455 68.6392 59.2641 68.5275 59.395 68.4384" fill="white"/>
<path d="M61.7294 67.814C61.5676 67.9032 61.4509 68.0133 61.3799 68.1441C61.3081 68.275 61.2729 68.4431 61.2729 68.6493V69.9916C61.2729 70.0296 61.2622 70.0682 61.2405 70.1075C61.2191 70.1472 61.1929 70.175 61.1635 70.1911L60.8564 70.3613L60.7795 70.3623C60.7581 70.3468 60.7471 70.3203 60.7471 70.282V67.8771C60.7471 67.8391 60.7581 67.8005 60.7795 67.7611C60.8009 67.7215 60.8268 67.6937 60.8564 67.6775L61.1635 67.5074L61.2405 67.5064C61.2622 67.5219 61.2729 67.5483 61.2729 67.5867V67.705C61.343 67.5837 61.4175 67.4786 61.4968 67.3904C61.5765 67.3015 61.6807 67.2215 61.8101 67.1498L61.9923 67.0494L62.0686 67.0484C62.0903 67.0639 62.101 67.0904 62.101 67.1284V67.469C62.101 67.507 62.0903 67.5457 62.0686 67.585C62.0472 67.6247 62.022 67.6521 61.9923 67.6686L61.7294 67.814" fill="white"/>
<path d="M62.6865 67.767C62.6773 67.8621 62.6773 67.9532 62.6865 68.04C62.704 68.2424 62.7639 68.3663 62.865 68.4112C62.966 68.4561 63.09 68.444 63.2356 68.375C63.3817 68.3061 63.5049 68.2009 63.6044 68.0596C63.7043 67.9183 63.7615 67.7561 63.7764 67.5735C63.7821 67.5221 63.7856 67.4591 63.7856 67.3842C63.7856 67.3096 63.7821 67.2491 63.7764 67.2035C63.7615 67.0413 63.7043 66.9355 63.6044 66.885C63.5049 66.8348 63.3817 66.8441 63.2356 66.9128C63.09 66.9817 62.966 67.0865 62.865 67.2269C62.7639 67.3673 62.704 67.5473 62.6865 67.767ZM63.1018 66.3914C63.1941 66.3481 63.2768 66.3184 63.3497 66.3038C63.4229 66.2888 63.487 66.2829 63.5419 66.286C63.5972 66.2894 63.6441 66.2988 63.6826 66.3144C63.7215 66.3303 63.7528 66.3471 63.7764 66.3649V65.327C63.7764 65.2914 63.7886 65.2549 63.8123 65.2178C63.8359 65.1806 63.8641 65.1544 63.8973 65.1388L64.2367 64.9785L64.3214 64.9772C64.3458 64.9919 64.3576 65.0172 64.3576 65.0527V68.2496C64.3576 68.2855 64.3458 68.322 64.3214 68.3591C64.2978 68.3966 64.2692 68.4228 64.2367 68.4381L63.8973 68.5987L63.8123 68.5997C63.7886 68.585 63.7764 68.56 63.7764 68.5238V68.4118C63.7528 68.4524 63.7215 68.4989 63.6826 68.5513C63.6441 68.6037 63.5972 68.6577 63.5419 68.7126C63.487 68.7681 63.4229 68.8227 63.3497 68.8767C63.2768 68.9307 63.1941 68.9793 63.1018 69.023C62.9527 69.0935 62.8184 69.1253 62.6975 69.1188C62.577 69.1126 62.4741 69.0767 62.3894 69.0108C62.3043 68.9456 62.2372 68.8555 62.188 68.7407C62.1388 68.6259 62.1114 68.4951 62.1056 68.3482C62.1026 68.3011 62.1011 68.2449 62.1011 68.1797C62.1011 68.1148 62.1026 68.0571 62.1056 68.0075C62.1114 67.855 62.1388 67.698 62.188 67.537C62.2372 67.3758 62.3043 67.2219 62.3894 67.0762C62.4741 66.9309 62.577 66.798 62.6975 66.6775C62.8184 66.5571 62.9527 66.462 63.1018 66.3914" fill="white"/>
</g>
<defs>
<clipPath id="clip0_49_414">
<rect width="87" height="107" fill="white"/>
</clipPath>
</defs>
</svg>
