<svg xmlns="http://www.w3.org/2000/svg" width="87" height="107" fill="none"><g clip-path="url(#a)"><path fill="#FAFAF9" d="m26.448 34.42.566.318 11.62-6.31-.567-.318-11.62 6.31ZM44.5 24.479l.566.317 11.62-6.31-.567-.318-11.619 6.31"/><path fill="#33BFBF" d="M43.597 92.731c-.34-.198-1.646-.944-2.027-1.18a.82.82 0 0 1-.32-.378l-.812-2.205 1.36-.793 1.477 4.13c.074.17.186.316.322.426M74.768 5.111 11.965 39.854c-.476.263-.862.904-.862 1.431v60.297c0 .527.387 1.167.864 1.429l.538.295c.478.262 1.25.26 1.726-.003l62.804-34.777c.476-.263.862-.904.862-1.432V6.832c0-.527-.387-1.167-.864-1.429l-.538-.295c-.478-.262-1.25-.26-1.727.003"/><path fill="#33BFBF" d="M13.365 103.501c-.311 0-.622-.065-.86-.195l-.538-.295c-.477-.262-.864-.902-.864-1.429V41.286c0-.259.093-.545.244-.8l2.329 1.288.013-.025c.203-.34.498-.63.866-.83l62.148-34.42a.817.817 0 0 1 .397-.103c.407 0 .782.304.797.734v59.964c0 .028-.001.057-.003.085V7.159c0-.47-.412-.761-.794-.761a.81.81 0 0 0-.395.103L14.557 40.92a2.264 2.264 0 0 0-1.185 1.968v59.567c0 .494.258.814.658.814.165 0 .343-.053.53-.156l27.157-15.034.001.003-1.474.817-26.012 14.404c-.24.132-.553.198-.867.198m34.491-18.817.002-.007 28.846-15.972c.267-.147.58-.346.818-.616a1.576 1.576 0 0 1-.488.437l-1.441.8-27.737 15.358M11.392 40.413c.152-.235.353-.437.573-.56L74.768 5.112c.24-.132.553-.199.867-.199.31 0 .622.066.86.196l.538.296c.28.153.528.436.686.75-.159-.314-.408-.597-.688-.75l-.538-.296c-.236-.13-.547-.195-.858-.195-.313 0-.628.066-.867.198L11.967 39.855c-.223.122-.421.324-.575.558"/><path fill="#33BFBF" d="M77.897 6.833v.325c0-.586-.662-.952-1.191-.66L14.754 40.925c-.368.2-.662.49-.864.83l-.013.026-2.323-1.29c.16-.263.374-.496.62-.63L74.776 5.11c.477-.263 1.248-.263 1.72-.002l.536.296c.477.26.864.9.864 1.429"/><path fill="#33BFBF" d="m13.877 41.78-2.322-1.289c.158-.264.373-.497.618-.63L74.777 5.11c.239-.133.552-.199.864-.199.31 0 .62.066.856.196l.536.296c.477.26.864.9.864 1.429v.325-.028c-.016-.43-.39-.734-.795-.734a.813.813 0 0 0-.396.103L14.754 40.924c-.368.2-.662.49-.864.83l-.013.026"/><path fill="#FAFAF9" d="M76.962 6.57a.488.488 0 0 0-.24.063L14.838 41.137a1.977 1.977 0 0 0-1.027 1.717v59.714c0 .156.034.519.348.519a.8.8 0 0 0 .374-.116l27.36-15.248 1.71 4.578c.329.727 1.415.674 1.666-.081l2.315-7.67 28.83-16.072c.714-.396 1.032-.796 1.032-1.299V7.036c0-.288-.251-.466-.484-.466Z"/><path fill="#33BFBF" d="m77.103 7.16-.087.024-62.163 34.44c-.541.3-.878.86-.878 1.459v59.604c0 .137.033.215.048.23.014-.006.088-.012.216-.083l27.802-15.397 1.842 4.902c.113.246.366.327.56.32a.576.576 0 0 0 .53-.392l2.358-7.762.108-.059 28.96-16.042c.777-.428.882-.767.882-1.04V7.33c0-.128-.122-.17-.178-.17M14.017 103.5c-.4 0-.658-.319-.658-.814V43.083c0-.81.454-1.565 1.185-1.97l62.164-34.44a.81.81 0 0 1 .395-.104c.382 0 .794.291.794.762v60.032c0 .804-.68 1.27-1.19 1.553L47.854 84.898l-2.291 7.542a1.19 1.19 0 0 1-1.088.809 1.203 1.203 0 0 1-1.164-.692l-1.6-4.255-27.164 15.043a1.1 1.1 0 0 1-.53.156"/><path fill="#009B9B" d="m27.483 67.411.75-1.949v-1.054l-1.338-1.346v-1.956l1.318-1.627v-3.73c1.889-2.25 3.208-5.803 3.199-9.068-.008-2.558-.83-4.365-2.098-5.077-.218-.122-1.082-.606-1.297-.728-.877-.495-1.966-.466-3.145.204-2.88 1.636-5.206 6.468-5.194 10.794.007 2.546.852 4.348 2.126 5.066l1.308.733c.122.069.249.127.379.175v18.825l1.301.731 1.443-.81 2.016-4.196v-2.387l-.768-.558v-2.042Z"/><path fill="#33BFBF" d="M26.2 41.908c-2.866 1.631-5.18 6.45-5.168 10.764.01 3.545 1.642 5.64 3.794 5.371v19.361l1.435-.807 2.006-4.185v-2.38l-.764-.557v-2.036l.746-1.944v-1.051L26.918 63.1V61.15l1.311-1.622v-3.72c1.88-2.244 3.192-5.787 3.183-9.044-.012-4.313-2.346-6.488-5.212-4.856"/><path fill="#33BFBF" d="M24.826 77.404v-19.36a2.916 2.916 0 0 1-.366.022c-1.969 0-3.42-2.053-3.428-5.394v-.037c.001-4.305 2.31-9.1 5.168-10.727.646-.368 1.265-.543 1.837-.543 1.964 0 3.366 2.058 3.375 5.4v.038c-.001 3.246-1.311 6.77-3.183 9.005v3.72l-1.311 1.622v1.95l1.331 1.344v1.05l-.746 1.945v2.036l.764.556v2.38l-2.006 4.186-1.435.807Z"/><path fill="#009B9B" d="m25.094 76.99.451-.198V57.52l-.451.195V76.99M27.98 42.895c-.645 0-1.355.264-2.069.779-2.481 1.79-4.322 6.037-4.101 9.467.115 1.796.782 3.078 1.829 3.517.829.348 1.858.13 2.893-.616 2.482-1.79 4.322-6.037 4.101-9.468-.115-1.796-.782-3.078-1.829-3.517a2.116 2.116 0 0 0-.824-.162Zm-3.516 14.212c-.333 0-.653-.062-.953-.188-1.155-.484-1.887-1.855-2.01-3.76-.226-3.514 1.668-7.87 4.22-9.711 1.131-.815 2.27-1.046 3.211-.652 1.155.485 1.888 1.855 2.01 3.761.226 3.514-1.668 7.87-4.22 9.71-.77.556-1.545.84-2.258.84Z"/><path fill="#EDEDED" d="M28.106 45.664a.945.945 0 0 0-.417-.462 1.092 1.092 0 0 0-.645-.098c-.251.03-.53.123-.835.282a4.194 4.194 0 0 0-.627.397 4.984 4.984 0 0 0-.538.477c-.165.17-.318.349-.46.536a8.283 8.283 0 0 0-.393.563l.342.472c.057.097.148.112.274.047a.596.596 0 0 0 .18-.172 9.18 9.18 0 0 1 .245-.303 3.56 3.56 0 0 1 .353-.36c.139-.124.308-.238.508-.342.137-.071.264-.114.382-.129a.516.516 0 0 1 .303.042.44.44 0 0 1 .197.206.826.826 0 0 1 .072.37c0 .236-.042.46-.124.673-.083.213-.186.42-.308.62-.123.2-.255.395-.396.584a8.25 8.25 0 0 0-.382.557 3.087 3.087 0 0 0-.273.552c-.069.184-.093.37-.072.557l.09.982.89-.462.121-.983a1.17 1.17 0 0 1 .161-.446c.09-.154.196-.318.319-.494.123-.175.254-.361.392-.56.14-.197.266-.413.382-.645.116-.233.213-.485.29-.759.077-.273.116-.57.116-.89 0-.327-.05-.598-.147-.812ZM26.549 52.2a.458.458 0 0 0-.253-.07.681.681 0 0 0-.314.086 1.23 1.23 0 0 0-.316.24 1.729 1.729 0 0 0-.419.722 1.44 1.44 0 0 0-.06.403c0 .135.02.25.06.344.04.095.096.166.166.213.07.048.155.07.253.068a.738.738 0 0 0 .316-.091c.113-.059.217-.137.314-.236a1.725 1.725 0 0 0 .424-.718c.042-.137.063-.273.063-.407a.84.84 0 0 0-.063-.34.473.473 0 0 0-.171-.214Z"/><path fill="#33535F" d="m39.497 35.656.733-.434c.208-.124.37-.275.484-.456.114-.18.171-.397.171-.65s-.057-.398-.17-.435c-.115-.037-.277.006-.485.13l-.733.433v1.412Zm.755-2.393c.142-.084.275-.14.401-.167a.53.53 0 0 1 .332.024.467.467 0 0 1 .228.244c.056.121.085.29.085.508 0 .32-.06.61-.176.87-.117.259-.267.482-.45.668l.656 1.173.013.057c0 .036-.01.072-.028.11a.19.19 0 0 1-.067.078l-.187.11c-.058.034-.1.04-.128.016l-.059-.066-.629-1.14-.746.442v1.512a.29.29 0 0 1-.035.134.227.227 0 0 1-.083.096l-.178.105c-.031.02-.059.02-.082.002-.023-.018-.035-.049-.035-.092v-3.833c0-.043.012-.088.035-.133a.23.23 0 0 1 .082-.096l1.05-.622M42.239 34.409l1.37-.688v-.018c0-.23-.062-.382-.188-.457-.124-.075-.291-.06-.5.044-.094.048-.182.11-.263.187a1.345 1.345 0 0 0-.42.915v.017Zm-.435.2c.013-.18.05-.36.108-.54.058-.18.135-.35.23-.51.093-.161.206-.307.338-.437.132-.13.279-.236.442-.318.175-.088.332-.134.47-.137a.54.54 0 0 1 .354.108.708.708 0 0 1 .224.34c.053.151.078.336.078.554v.153a.248.248 0 0 1-.038.127.232.232 0 0 1-.093.092l-1.678.843v.034c.006.253.074.416.202.49.129.072.288.06.48-.036.18-.09.314-.186.403-.29.09-.103.162-.204.217-.303a.654.654 0 0 1 .068-.097.308.308 0 0 1 .088-.061l.147-.074c.036-.018.068-.019.097-.003.03.015.04.046.034.09-.01.073-.037.161-.082.265a1.636 1.636 0 0 1-.198.326 2.29 2.29 0 0 1-.773.634.984.984 0 0 1-.44.121.588.588 0 0 1-.339-.1.7.7 0 0 1-.231-.292 1.316 1.316 0 0 1-.108-.458 2.755 2.755 0 0 1 0-.52M45.912 33.438c0-.07-.015-.12-.045-.15s-.076-.044-.136-.044c-.06 0-.138.012-.231.035a7.29 7.29 0 0 0-.326.087c-.233.067-.396.054-.49-.04-.094-.095-.14-.241-.14-.439 0-.111.017-.227.051-.347a1.621 1.621 0 0 1 .416-.685c.106-.104.229-.195.37-.274.141-.08.264-.127.37-.145a.564.564 0 0 1 .265.007c.072.023.127.06.164.112.037.052.058.11.06.176a.221.221 0 0 1-.032.124.23.23 0 0 1-.084.092l-.143.08-.062.02-.067-.026c-.037-.042-.093-.065-.166-.066-.074-.002-.175.034-.305.106-.132.074-.24.166-.321.275a.548.548 0 0 0-.124.331c0 .071.012.122.035.151.023.03.06.047.112.05a.742.742 0 0 0 .206-.03c.084-.02.19-.048.317-.082a.964.964 0 0 1 .332-.044c.09.008.161.033.216.075.055.042.094.1.116.175a.87.87 0 0 1 .035.256c0 .112-.02.232-.062.36a1.664 1.664 0 0 1-.18.373 2.03 2.03 0 0 1-.282.348c-.111.111-.237.206-.378.285-.141.079-.266.126-.376.143a.677.677 0 0 1-.28-.008.329.329 0 0 1-.18-.112.3.3 0 0 1-.066-.177.227.227 0 0 1 .03-.123.227.227 0 0 1 .086-.093l.155-.087.06-.025.066.028a.23.23 0 0 0 .19.083.71.71 0 0 0 .315-.11 1.183 1.183 0 0 0 .352-.303.885.885 0 0 0 .114-.184.429.429 0 0 0 .043-.178M47.114 31.923l1.096-.688v-.017c0-.23-.05-.382-.15-.457-.1-.075-.234-.06-.4.044a.9.9 0 0 0-.21.186 1.334 1.334 0 0 0-.172.26 1.516 1.516 0 0 0-.164.655v.017Zm-.348.201a2.945 2.945 0 0 1 .27-1.051c.075-.16.165-.306.27-.436.106-.13.224-.237.354-.319a.776.776 0 0 1 .377-.137.372.372 0 0 1 .282.108.733.733 0 0 1 .18.34c.042.151.063.336.063.555v.153c0 .041-.011.084-.032.127a.21.21 0 0 1-.074.091l-1.343.843v.034c.006.254.06.416.163.49.102.073.23.061.384-.035.143-.09.25-.186.322-.29.071-.103.13-.204.174-.304a.635.635 0 0 1 .054-.096.249.249 0 0 1 .07-.062l.118-.073c.028-.018.054-.02.078-.004.023.016.032.046.027.09-.008.073-.03.161-.066.266-.037.104-.09.212-.159.325a2.169 2.169 0 0 1-.257.337 1.77 1.77 0 0 1-.36.298.674.674 0 0 1-.352.121.406.406 0 0 1-.272-.102.695.695 0 0 1-.185-.29 1.605 1.605 0 0 1-.086-.458 3.451 3.451 0 0 1 0-.52M49.987 30.95c0 .068.006.13.018.184a.239.239 0 0 0 .063.124c.03.03.074.043.129.04a.607.607 0 0 0 .215-.064l.27-.124c.037-.017.069-.018.096-.001.027.016.04.044.04.084v.173a.22.22 0 0 1-.04.121.234.234 0 0 1-.096.088l-.32.147c-.294.136-.507.153-.639.051-.131-.1-.197-.304-.197-.61v-1.4l-.376.174c-.037.017-.069.017-.096.001-.028-.016-.04-.044-.04-.084v-.173c0-.039.012-.08.04-.121a.237.237 0 0 1 .096-.088l.376-.173v-.88c0-.04.013-.08.04-.121a.233.233 0 0 1 .096-.088l.188-.087c.037-.017.069-.017.097 0 .026.015.04.044.04.083v.88l.644-.296c.037-.018.07-.018.096-.002.027.017.04.045.04.084v.173c0 .04-.013.08-.04.121a.235.235 0 0 1-.096.088l-.644.297v1.399M52.609 31.514a.603.603 0 0 1-.045.117.211.211 0 0 1-.086.093l-.186.102c-.03.016-.056.017-.077.002-.02-.016-.032-.042-.032-.08l.005-.043.435-1.44-.898-2.03-.004-.037c0-.039.01-.077.032-.116A.201.201 0 0 1 51.83 28l.186-.102c.036-.02.065-.02.086-.001l.045.067.698 1.57.707-2.341a.585.585 0 0 1 .045-.117.207.207 0 0 1 .086-.093l.186-.103c.03-.016.056-.017.077-.002.021.015.032.042.032.08l-.005.043-1.364 4.513M56.25 27.354a3.284 3.284 0 0 0 0-.53c-.01-.12-.03-.227-.061-.318a.462.462 0 0 0-.133-.208.31.31 0 0 0-.208-.069.614.614 0 0 0-.289.098 1.14 1.14 0 0 0-.288.236 1.476 1.476 0 0 0-.209.31 1.73 1.73 0 0 0-.132.36 2.351 2.351 0 0 0-.062.39 3.562 3.562 0 0 0 0 .53c.01.12.03.227.062.318.032.09.076.16.132.207.057.048.127.07.209.07a.616.616 0 0 0 .288-.098c.11-.064.207-.142.289-.236.082-.094.151-.197.208-.31.057-.113.101-.233.133-.36.03-.128.052-.258.061-.39Zm-.69-1.57c.17-.099.32-.152.454-.159a.52.52 0 0 1 .34.09c.095.068.17.173.225.316.055.143.089.314.102.513.003.035.004.08.004.133v.328c0 .053-.001.097-.004.132-.016.22-.051.431-.104.635a2.641 2.641 0 0 1-.223.57 2.405 2.405 0 0 1-.34.484 1.89 1.89 0 0 1-.455.367c-.17.098-.321.151-.454.159a.521.521 0 0 1-.34-.091.67.67 0 0 1-.225-.312 1.706 1.706 0 0 1-.102-.516 4.965 4.965 0 0 1 0-.593c.013-.214.046-.424.102-.63.055-.207.13-.399.225-.576.094-.176.208-.338.34-.484a1.87 1.87 0 0 1 .454-.366M57.137 25.198a.3.3 0 0 1 .032-.13.218.218 0 0 1 .076-.093l.147-.093c.03-.018.055-.018.076 0 .021.017.032.046.032.089v1.52c0 .297.046.49.138.578.092.088.226.078.401-.032.168-.105.3-.26.396-.466.096-.206.143-.457.143-.753v-1.52c0-.043.01-.086.032-.13a.211.211 0 0 1 .076-.094l.148-.092c.029-.019.055-.019.076-.002.021.018.032.048.032.09v2.685a.298.298 0 0 1-.108.223l-.148.093c-.03.018-.054.018-.076.001-.021-.017-.032-.047-.032-.09v-.178c-.05.128-.122.261-.215.403-.093.14-.221.261-.384.363a.737.737 0 0 1-.343.125.37.37 0 0 1-.268-.086.6.6 0 0 1-.172-.296 1.821 1.821 0 0 1-.06-.507v-1.608M61.073 22.74c.034-.02.064-.02.089-.002.024.018.037.049.037.093v.19a.275.275 0 0 1-.037.133.236.236 0 0 1-.09.097l-.269.148c-.357.198-.535.524-.535.98v1.735a.278.278 0 0 1-.037.133.236.236 0 0 1-.089.096l-.172.096c-.034.018-.064.019-.088.001-.025-.018-.037-.049-.037-.092v-2.769a.28.28 0 0 1 .037-.133.231.231 0 0 1 .088-.097l.172-.095c.034-.019.064-.02.089-.001.025.018.037.048.037.092v.184c.062-.153.136-.281.223-.385.087-.103.2-.194.34-.27l.242-.135"/><path fill="#33BFBF" d="m40.075 41.997.659-.408a1.16 1.16 0 0 0 .372-.373c.098-.156.147-.34.147-.555 0-.215-.049-.34-.147-.373-.099-.033-.223-.004-.372.089l-.66.408v1.212Zm.685-2.825c.229-.142.434-.232.616-.27a.655.655 0 0 1 .466.047c.129.072.227.198.297.38.07.182.105.42.105.717 0 .302-.035.587-.105.855a3.092 3.092 0 0 1-.763 1.37c-.181.19-.387.356-.615.497l-.686.426v1.564a.389.389 0 0 1-.043.172.29.29 0 0 1-.101.124l-.702.435c-.04.025-.073.026-.102.002-.029-.023-.043-.063-.043-.119v-4.954a.393.393 0 0 1 .145-.297l1.532-.95M43.802 40.826l.945-.493-.472-1.442-.473 1.935Zm.945-3.568c.078-.04.137-.046.178-.015.041.03.07.067.085.11l1.272 3.769c.016.038.024.07.024.093a.26.26 0 0 1-.038.129.234.234 0 0 1-.09.093l-.736.383c-.078.041-.133.05-.167.027a.138.138 0 0 1-.06-.084l-.164-.498-1.553.81-.163.67a.495.495 0 0 1-.062.148.393.393 0 0 1-.166.146l-.735.384c-.035.018-.065.019-.09.002-.026-.018-.038-.048-.038-.09 0-.023.007-.063.023-.118l1.272-5.096a.84.84 0 0 1 .085-.199c.04-.073.1-.13.178-.17l.945-.494M48.078 35.382c.25-.127.479-.2.688-.221a1.22 1.22 0 0 1 .541.05c.152.056.27.141.357.257a.665.665 0 0 1 .134.389.243.243 0 0 1-.038.125.215.215 0 0 1-.084.087l-.767.387a.284.284 0 0 1-.132.04.233.233 0 0 1-.102-.03l-.056-.04a.278.278 0 0 0-.108-.045.49.49 0 0 0-.176 0 .887.887 0 0 0-.257.092 1.951 1.951 0 0 0-.214.125 1.27 1.27 0 0 0-.181.146.708.708 0 0 0-.129.171.41.41 0 0 0-.05.196c0 .068.019.116.056.142.037.027.1.037.187.032.088-.006.204-.027.349-.063.144-.037.323-.084.538-.142a2.39 2.39 0 0 1 .562-.093.76.76 0 0 1 .401.087.562.562 0 0 1 .24.289c.052.13.079.302.079.516 0 .232-.045.462-.135.689-.09.227-.216.446-.378.657a3.497 3.497 0 0 1-.573.587c-.22.18-.461.335-.723.467a2.303 2.303 0 0 1-.725.244 1.24 1.24 0 0 1-.565-.04.744.744 0 0 1-.372-.266.757.757 0 0 1-.14-.44c0-.042.013-.083.038-.125a.222.222 0 0 1 .085-.087l.766-.388a.311.311 0 0 1 .129-.04c.031 0 .062.008.094.024.015.01.039.028.07.053a.376.376 0 0 0 .126.062.484.484 0 0 0 .199.013.9.9 0 0 0 .295-.102 2.43 2.43 0 0 0 .518-.34c.139-.122.208-.251.208-.388 0-.068-.026-.112-.076-.132a.497.497 0 0 0-.228-.01c-.102.012-.231.04-.39.083a25.53 25.53 0 0 1-.559.146c-.401.103-.695.084-.88-.057-.185-.14-.278-.406-.278-.798 0-.195.038-.4.114-.617.076-.216.186-.428.33-.637a3.282 3.282 0 0 1 1.212-1.055ZM52.14 33.31c.25-.126.479-.2.688-.22a1.22 1.22 0 0 1 .54.05c.153.056.272.14.357.257a.667.667 0 0 1 .135.389c0 .04-.012.082-.038.125a.224.224 0 0 1-.085.087l-.766.387a.288.288 0 0 1-.131.039.231.231 0 0 1-.103-.03l-.056-.04a.285.285 0 0 0-.108-.044.49.49 0 0 0-.176 0 .887.887 0 0 0-.257.092 1.94 1.94 0 0 0-.214.125 1.264 1.264 0 0 0-.181.146.671.671 0 0 0-.129.17.408.408 0 0 0-.05.196c0 .069.019.116.056.143.037.027.1.037.187.031.088-.005.204-.026.349-.063.144-.036.323-.083.538-.142.214-.058.402-.089.561-.092a.76.76 0 0 1 .402.087.56.56 0 0 1 .24.288c.052.131.079.303.079.516 0 .232-.046.462-.135.69-.09.227-.216.446-.378.657a3.486 3.486 0 0 1-.573.586c-.22.18-.462.336-.723.468a2.295 2.295 0 0 1-.725.243 1.238 1.238 0 0 1-.565-.04.743.743 0 0 1-.372-.265.752.752 0 0 1-.14-.44c0-.042.013-.083.038-.126a.218.218 0 0 1 .085-.087l.766-.387a.308.308 0 0 1 .129-.04c.031 0 .062.008.094.023.015.01.039.029.07.054a.38.38 0 0 0 .126.062.484.484 0 0 0 .199.013.912.912 0 0 0 .295-.102c.207-.104.38-.218.518-.34.139-.122.208-.251.208-.388 0-.068-.026-.112-.076-.132a.497.497 0 0 0-.229-.01c-.1.012-.23.04-.389.083-.157.044-.344.092-.558.145-.402.103-.696.085-.881-.056-.185-.141-.278-.407-.278-.798 0-.196.038-.401.114-.617.076-.216.186-.428.33-.638.145-.209.32-.405.524-.588.205-.183.434-.339.688-.467M57.048 33.193l.372-2.695a.435.435 0 0 1 .07-.193.344.344 0 0 1 .11-.105l.762-.418c.036-.02.066-.02.091-.002.025.018.038.05.038.093l-.007.063-.75 5.068a.602.602 0 0 1-.092.243.537.537 0 0 1-.198.197l-.483.265c-.078.042-.14.047-.189.015a.253.253 0 0 1-.102-.136l-.436-1.426-.436 1.905a.987.987 0 0 1-.102.247.486.486 0 0 1-.189.192l-.483.265c-.077.043-.143.05-.197.02a.172.172 0 0 1-.093-.14l-.75-4.246-.007-.056a.28.28 0 0 1 .039-.134.23.23 0 0 1 .09-.098l.762-.418a.141.141 0 0 1 .11-.016c.035.01.058.05.07.116l.372 2.287.343-1.522c.008-.039.025-.092.052-.161a.31.31 0 0 1 .146-.161l.546-.3c.07-.039.119-.038.146.001a.332.332 0 0 1 .052.104l.343 1.146M61.477 31.22l.012-.3a9.17 9.17 0 0 0 0-.656l-.012-.276a1.052 1.052 0 0 0-.06-.304.408.408 0 0 0-.138-.192.34.34 0 0 0-.222-.056.744.744 0 0 0-.31.105 1.275 1.275 0 0 0-.31.237 1.45 1.45 0 0 0-.36.646 1.85 1.85 0 0 0-.06.37 4.454 4.454 0 0 0-.015.29 17.422 17.422 0 0 0 0 .656c.002.107.008.202.015.285.015.236.081.402.198.5.117.096.294.079.532-.052a1.26 1.26 0 0 0 .529-.534 1.87 1.87 0 0 0 .201-.72Zm-2.524.124a3.671 3.671 0 0 1 1.044-2.404c.216-.225.466-.415.75-.572.28-.154.529-.24.748-.255a.905.905 0 0 1 .555.119c.15.095.267.24.35.437.082.196.13.428.14.695a17.531 17.531 0 0 1 0 1.305c-.01.28-.058.564-.14.85-.083.288-.2.564-.35.828a3.606 3.606 0 0 1-.555.731 3.207 3.207 0 0 1-.748.567c-.284.157-.534.244-.75.26a.869.869 0 0 1-.552-.12.934.934 0 0 1-.35-.44 2.02 2.02 0 0 1-.142-.696 18.599 18.599 0 0 1 0-1.304ZM63.998 28.874l.607-.354c.15-.088.275-.198.373-.333a.83.83 0 0 0 .148-.505c0-.202-.05-.313-.148-.332-.098-.02-.222.014-.373.101l-.607.354v1.069Zm.607-2.542c.236-.137.448-.227.634-.268a.753.753 0 0 1 .475.027c.131.058.231.172.302.34.07.17.105.394.105.673 0 .361-.056.693-.167.996-.111.303-.269.576-.473.82l.666 1.331.016.07a.287.287 0 0 1-.035.133.224.224 0 0 1-.083.095l-.73.425c-.072.042-.124.05-.154.024a.291.291 0 0 1-.073-.087l-.596-1.198-.494.287v1.546a.353.353 0 0 1-.043.162.276.276 0 0 1-.102.117l-.704.41c-.04.023-.074.023-.102.001-.03-.021-.043-.059-.043-.112V27.46c0-.053.014-.107.043-.162a.277.277 0 0 1 .102-.117l1.456-.848M69.26 25.4c-.021-.547-.257-.684-.706-.41l-.529.322v2.771l.555-.338c.436-.265.662-.682.68-1.252a8.99 8.99 0 0 0 .005-.291v-.522c0-.087-.002-.18-.005-.28Zm-.68-1.593c.239-.145.457-.228.654-.248a.771.771 0 0 1 .51.108c.144.093.256.24.338.44.08.202.127.447.137.737.004.1.006.192.006.278v.484c0 .083-.002.174-.006.274a4.007 4.007 0 0 1-.464 1.748c-.14.265-.307.507-.5.724a2.85 2.85 0 0 1-.649.544l-1.4.853c-.039.024-.071.024-.099.002-.028-.022-.042-.06-.042-.113v-4.712a.36.36 0 0 1 .042-.163.275.275 0 0 1 .099-.119l1.374-.837"/><path fill="#DADBD8" d="M34.797 72.848c-.125 0-.226-.066-.226-.148V35.714c0-.081.101-.148.226-.148s.226.066.226.148V72.7c0 .082-.102.148-.226.148ZM70.75 35.45l-.07.024L39.233 53.19c-.157.088-.294.35-.294.562v4.547c0 .092.027.149.051.163.019.01.052.002.09-.02l31.447-17.714c.157-.088.294-.35.294-.562v-4.547c0-.092-.027-.15-.051-.163l-.02-.004ZM39.008 58.765a.345.345 0 0 1-.17-.044c-.13-.073-.205-.227-.205-.422V53.75c0-.32.196-.68.447-.82l31.447-17.716c.137-.077.281-.084.396-.019.13.073.204.227.204.422v4.547c0 .32-.196.68-.447.82L39.233 58.702a.457.457 0 0 1-.224.063"/><path fill="#33535F" d="m39.88 51.205-.04.001-.03-.036-.561-.959v1.354l-.014.062-.033.045-.07.049h-.034l-.014-.042V49.9l.014-.062.033-.045.06-.041.041-.002.029.037.562.958v-1.354l.014-.062.033-.045.07-.048h.034l.013.042v1.777l-.013.063-.033.044-.06.042M40.616 50.107l.549-.344v-.008c0-.116-.025-.192-.075-.229-.05-.038-.117-.03-.2.022a.475.475 0 0 0-.106.093.683.683 0 0 0-.144.287.766.766 0 0 0-.024.171v.008Zm-.173.1a1.434 1.434 0 0 1 .134-.525c.038-.08.084-.153.136-.218a.718.718 0 0 1 .177-.16.39.39 0 0 1 .188-.068.189.189 0 0 1 .142.054.37.37 0 0 1 .09.17c.02.076.03.168.03.278v.076l-.015.063-.037.046-.672.421v.018c.003.126.03.208.081.245.052.036.116.03.193-.018a.538.538 0 0 0 .16-.145.931.931 0 0 0 .087-.152l.028-.048.035-.03.058-.037.04-.002.013.045a.642.642 0 0 1-.033.132 1.056 1.056 0 0 1-.208.331.872.872 0 0 1-.18.15.336.336 0 0 1-.176.06.203.203 0 0 1-.136-.05.348.348 0 0 1-.092-.146.815.815 0 0 1-.043-.229 1.885 1.885 0 0 1 0-.26M42.318 49.375l.208-.849.02-.046.043-.04.061-.031.032-.001.013.031-.002.019-.284 1.167-.02.055-.035.036-.058.03h-.036l-.022-.032-.22-.623-.221.851-.021.054-.037.038-.057.03h-.036l-.02-.033-.283-.874-.002-.017.013-.044.031-.032.061-.032.043-.004.02.025.208.633.223-.856.018-.045.039-.038.041-.021.04-.003.018.026.222.626M43.762 48.27l.31-.192a.554.554 0 0 0 .194-.196.539.539 0 0 0 .069-.276c0-.105-.023-.168-.069-.187-.046-.02-.11-.004-.193.047l-.31.191v.612Zm.32-1.032a.515.515 0 0 1 .16-.068.2.2 0 0 1 .133.014c.038.02.068.055.09.107a.541.541 0 0 1 .035.213.996.996 0 0 1-.125.48.887.887 0 0 1-.294.31l-.319.197v.605l-.014.056-.033.04-.071.043-.033.001-.014-.038v-1.595l.014-.055.033-.04.437-.27M44.88 48.105a.59.59 0 0 0 .136-.108.728.728 0 0 0 .198-.486v-.068l-.243.19a1.105 1.105 0 0 0-.207.206.338.338 0 0 0-.076.199l.01.054.033.038.06.01a.26.26 0 0 0 .089-.035Zm-.38.067c0-.072.011-.142.033-.209a.814.814 0 0 1 .091-.19c.038-.06.083-.118.135-.17.052-.054.106-.103.165-.149l.29-.229v-.035c0-.092-.022-.149-.069-.169-.046-.02-.103-.01-.172.03a.399.399 0 0 0-.138.121.92.92 0 0 0-.079.149l-.027.045-.04.03-.061.036-.04.001-.016-.042a.485.485 0 0 1 .037-.144.842.842 0 0 1 .086-.161c.037-.053.079-.104.126-.152a.718.718 0 0 1 .152-.118.473.473 0 0 1 .172-.063.197.197 0 0 1 .137.026.232.232 0 0 1 .089.118.601.601 0 0 1 .032.213v.83l-.017.061-.04.045-.076.043-.039.001-.017-.042v-.112a.49.49 0 0 1-.057.124.89.89 0 0 1-.298.29.415.415 0 0 1-.147.056.195.195 0 0 1-.114-.016.163.163 0 0 1-.072-.08.327.327 0 0 1-.026-.138M46.56 47.344c0-.035-.007-.06-.022-.075l-.069-.022a.542.542 0 0 0-.115.017 4.839 4.839 0 0 0-.163.044c-.117.034-.198.027-.245-.02-.047-.048-.07-.12-.07-.22a.738.738 0 0 1 .104-.351.819.819 0 0 1 .314-.302.6.6 0 0 1 .185-.073.285.285 0 0 1 .133.005c.036.011.063.03.082.055.019.026.03.055.03.088l-.016.062-.042.046-.071.04-.032.01-.033-.013c-.019-.021-.047-.032-.083-.033a.327.327 0 0 0-.153.053.515.515 0 0 0-.16.138.274.274 0 0 0-.062.166c0 .035.006.06.017.075l.057.024a.353.353 0 0 0 .102-.014c.043-.01.096-.025.159-.042a.487.487 0 0 1 .166-.02.2.2 0 0 1 .108.036c.027.021.047.05.059.087.01.038.017.08.017.13 0 .055-.01.114-.032.179a.842.842 0 0 1-.09.186c-.038.061-.085.12-.14.175a.872.872 0 0 1-.19.141.572.572 0 0 1-.188.072.327.327 0 0 1-.14-.004.164.164 0 0 1-.09-.056.152.152 0 0 1-.033-.088l.015-.062.044-.046.077-.044.03-.013.033.015a.116.116 0 0 0 .095.041c.04 0 .093-.018.158-.055l.093-.066.082-.085a.437.437 0 0 0 .057-.092.209.209 0 0 0 .022-.089M47.462 46.516c0-.036-.007-.061-.022-.076l-.068-.022a.516.516 0 0 0-.116.017 3.573 3.573 0 0 0-.163.044c-.116.034-.198.027-.245-.02-.047-.048-.07-.12-.07-.22 0-.055.009-.113.026-.173a.813.813 0 0 1 .393-.48.613.613 0 0 1 .185-.072.29.29 0 0 1 .133.004c.035.011.063.03.081.056a.158.158 0 0 1 .03.088l-.016.062-.042.046-.07.04-.032.01-.034-.014c-.018-.02-.046-.031-.083-.032a.329.329 0 0 0-.152.053.512.512 0 0 0-.161.137.274.274 0 0 0-.062.166c0 .035.006.06.018.075l.056.024a.354.354 0 0 0 .102-.014l.16-.041a.487.487 0 0 1 .165-.021c.045.003.081.015.108.037.028.02.047.05.059.087.011.037.017.08.017.128a.59.59 0 0 1-.031.18.847.847 0 0 1-.09.187c-.038.06-.086.119-.141.174a.87.87 0 0 1-.189.142.571.571 0 0 1-.188.072.326.326 0 0 1-.14-.004.165.165 0 0 1-.09-.056.153.153 0 0 1-.034-.089l.016-.061.043-.047.077-.043.03-.013.033.014a.116.116 0 0 0 .095.042c.04 0 .093-.019.158-.055l.093-.067.082-.085a.443.443 0 0 0 .058-.092.209.209 0 0 0 .021-.088M48.963 45.889l.277-1.061.027-.058.057-.05.081-.04h.042l.017.038-.002.024-.378 1.46-.026.068-.048.045-.077.037h-.048l-.029-.04-.294-.778-.294 1.064-.029.067-.048.048-.077.037-.048.001-.026-.043-.378-1.092-.003-.02.017-.056.042-.04.082-.04.057-.005.027.03.277.793.297-1.07.023-.057.054-.048.054-.026.053-.004.024.033.297.782M50.193 45.034a1.668 1.668 0 0 0 0-.236.644.644 0 0 0-.025-.14.201.201 0 0 0-.053-.093.116.116 0 0 0-.083-.03.233.233 0 0 0-.115.042.464.464 0 0 0-.116.105.656.656 0 0 0-.083.138.854.854 0 0 0-.053.16 1.178 1.178 0 0 0-.029.295c0 .046.002.084.004.114a.65.65 0 0 0 .025.142c.013.04.03.07.053.092.022.02.05.031.083.03a.228.228 0 0 0 .116-.043.47.47 0 0 0 .115-.105.655.655 0 0 0 .083-.138.799.799 0 0 0 .053-.16c.013-.056.021-.114.025-.173Zm-.276-.698a.392.392 0 0 1 .181-.07.194.194 0 0 1 .137.04c.037.03.067.077.09.14.021.064.035.14.04.228l.002.059v.146l-.002.059c-.006.097-.02.191-.041.282-.022.09-.052.175-.09.253-.037.08-.083.15-.136.216a.776.776 0 0 1-.181.163.39.39 0 0 1-.182.07.192.192 0 0 1-.136-.04.3.3 0 0 1-.09-.139.849.849 0 0 1-.041-.229l-.003-.056v-.146l.003-.062c.005-.095.019-.188.04-.28.023-.092.053-.177.09-.256a1.09 1.09 0 0 1 .137-.215.78.78 0 0 1 .182-.163M51.228 43.437h.03l.012.041v.085l-.013.06-.029.043-.09.067c-.12.088-.179.234-.179.438v.776l-.012.06-.03.043-.057.043h-.03l-.012-.04v-1.24l.012-.06.03-.043.058-.042.029-.001.012.041v.083a.711.711 0 0 1 .075-.172.44.44 0 0 1 .113-.122l.081-.06M51.999 43.898a2.025 2.025 0 0 0 0-.195c-.004-.115-.03-.19-.08-.226-.051-.035-.116-.03-.196.015a.491.491 0 0 0-.198.215.791.791 0 0 0-.08.327 2.68 2.68 0 0 0 0 .14c.005.115.031.194.08.236.048.043.114.04.198-.007a.512.512 0 0 0 .194-.203.654.654 0 0 0 .082-.302Zm-.295-.608c.078-.044.141-.062.188-.053a.184.184 0 0 1 .107.055v-.547l.015-.056.036-.04.07-.04h.037l.015.038v1.624l-.015.056-.036.04-.071.04h-.036l-.015-.038v-.077a.823.823 0 0 1-.108.179.615.615 0 0 1-.187.155.371.371 0 0 1-.167.054.203.203 0 0 1-.134-.042.302.302 0 0 1-.091-.135.719.719 0 0 1-.04-.222 1.216 1.216 0 0 1 0-.161c.003-.093.017-.182.04-.268.022-.085.053-.164.09-.236a.943.943 0 0 1 .135-.192.678.678 0 0 1 .167-.134M52.974 43.892h.07l.03.038v.166l-.03.056-.07.04-.25.072-.07.001-.03-.038v-.167l.03-.056.07-.04.25-.072Zm0-.87h.07l.03.039v.166l-.03.056-.07.04-.25.072-.07.001-.03-.038v-.167l.03-.056.07-.04.25-.072Z"/><path fill="#DADBD8" d="m70.75 46.221-.07.023L39.233 63.96c-.157.089-.294.351-.294.562v4.547c0 .092.027.15.051.163.019.01.052.002.09-.019l31.447-17.715c.157-.088.294-.35.294-.561v-4.548c0-.092-.027-.149-.051-.163l-.02-.004ZM39.008 69.534a.349.349 0 0 1-.17-.044c-.13-.073-.205-.227-.205-.422v-4.547c0-.319.196-.68.447-.82l31.447-17.715c.137-.077.281-.084.396-.02.13.074.204.227.204.422v4.548c0 .319-.196.68-.447.82L39.233 69.471a.463.463 0 0 1-.224.063"/><path fill="#33535F" d="M38.865 61.451a5.222 5.222 0 0 0 0 .445c.005.145.045.244.121.298.076.055.186.048.328-.02a.84.84 0 0 0 .326-.269.658.658 0 0 0 .08-.153c.017-.052.031-.103.041-.151l.024-.056.038-.032.111-.053h.037l.016.033a.783.783 0 0 1-.041.21 1.114 1.114 0 0 1-.119.252c-.053.086-.122.17-.206.25-.085.081-.187.15-.307.208a.716.716 0 0 1-.279.078.37.37 0 0 1-.21-.049.35.35 0 0 1-.136-.162.688.688 0 0 1-.053-.262 7.875 7.875 0 0 1 0-.47 1.197 1.197 0 0 1 .399-.854c.082-.076.175-.138.28-.188a.728.728 0 0 1 .306-.086c.084.001.152.019.206.054a.32.32 0 0 1 .119.138.44.44 0 0 1 .04.171l-.015.048-.037.036-.11.052-.039.005-.024-.033a.478.478 0 0 0-.042-.11.177.177 0 0 0-.08-.078.251.251 0 0 0-.13-.02.573.573 0 0 0-.195.061.744.744 0 0 0-.328.293.846.846 0 0 0-.12.414M41.08 60.775a1.092 1.092 0 0 0 0-.236.457.457 0 0 0-.037-.141.21.21 0 0 0-.08-.092.232.232 0 0 0-.125-.03.468.468 0 0 0-.173.043.681.681 0 0 0-.298.242.63.63 0 0 0-.08.16.783.783 0 0 0-.036.174 1.046 1.046 0 0 0 0 .235c.006.054.018.101.037.142a.205.205 0 0 0 .204.123.674.674 0 0 0 .588-.62Zm-.415-.698a.782.782 0 0 1 .273-.07c.08-.003.147.01.204.04.057.03.102.077.135.14.033.064.054.14.061.228l.003.059v.146l-.003.059c-.01.097-.03.192-.063.282a.98.98 0 0 1-.133.253 1.12 1.12 0 0 1-.477.379.782.782 0 0 1-.272.07.396.396 0 0 1-.205-.04.32.32 0 0 1-.135-.139.597.597 0 0 1-.06-.229l-.005-.056-.001-.072v-.074l.005-.062a1.085 1.085 0 0 1 .196-.536 1.145 1.145 0 0 1 .477-.378M42.243 60.56l-.015.071-.037.052-.073.051-.037.001-.016-.05v-.844c0-.164-.024-.27-.072-.317-.048-.047-.115-.04-.2.021a.603.603 0 0 0-.2.263c-.05.116-.074.256-.074.42v.845l-.016.072-.037.052-.073.051-.037.001-.015-.05v-1.49l.015-.072.037-.052.073-.051.037-.001.016.05v.099c.024-.071.06-.147.11-.227a.686.686 0 0 1 .192-.205.347.347 0 0 1 .17-.072.174.174 0 0 1 .134.046c.037.035.066.09.087.165.02.074.031.167.031.278v.892M43.597 59.93l-.015.064-.036.046-.07.045-.037.001-.015-.044v-1.157l-.345.222v1.157l-.016.065-.036.046-.071.045h-.036l-.015-.043V59.22l-.159.102h-.036l-.015-.044v-.09l.015-.065.036-.046.159-.102v-.142c0-.16.024-.298.074-.41a.627.627 0 0 1 .24-.276l.327-.21.036-.002.015.045v.09l-.015.065-.036.046-.307.198a.33.33 0 0 0-.081.07l-.05.085a.433.433 0 0 0-.023.096.905.905 0 0 0-.006.105v.128l.467-.301.036-.001.015.044v1.325"/><path fill="#33535F" d="M44.416 57.936h.059l.025.041v.085l-.025.06-.06.043-.179.066c-.238.089-.356.235-.356.439v.776l-.025.06-.06.043-.114.043h-.06l-.024-.041v-1.24l.025-.059.059-.043.115-.043h.059l.025.041v.082a.636.636 0 0 1 .149-.172.819.819 0 0 1 .226-.121l.16-.06Z"/><path fill="#33535F" d="M44.72 57.877c.015-.028.032-.057.052-.089a.668.668 0 0 1 .066-.09l.088-.083a.623.623 0 0 1 .12-.072.451.451 0 0 1 .244-.056c.065.009.116.042.152.098a2.3 2.3 0 0 1 .067-.121.782.782 0 0 1 .19-.214.786.786 0 0 1 .139-.083c.163-.077.282-.08.356-.008.074.072.111.2.111.386v.736l-.019.06-.046.042-.09.043h-.046l-.02-.041v-.709c0-.136-.023-.225-.072-.266-.048-.042-.12-.04-.213.004a.478.478 0 0 0-.207.191.62.62 0 0 0-.08.324v.727l-.019.06-.046.043-.089.043h-.046l-.02-.041v-.709c0-.136-.024-.225-.072-.266-.049-.042-.12-.04-.213.004a.477.477 0 0 0-.208.191.612.612 0 0 0-.078.324v.727l-.02.06-.046.043-.09.043h-.046l-.019-.041V57.9l.02-.06.045-.043.09-.042.046-.001.02.041v.082M46.93 57.06a2.153 2.153 0 0 0 0 .195c.003.115.03.19.08.226.05.035.116.03.196-.015a.49.49 0 0 0 .198-.215.799.799 0 0 0 .08-.328 2.68 2.68 0 0 0 0-.138c-.005-.116-.032-.195-.08-.238-.048-.042-.114-.04-.198.008a.51.51 0 0 0-.195.203.658.658 0 0 0-.081.302Zm.295.608c-.079.045-.142.063-.189.053a.185.185 0 0 1-.106-.055v.548l-.016.055-.036.04-.07.04h-.036l-.016-.038v-1.624l.016-.056.036-.04.07-.04h.036l.016.038v.077a.83.83 0 0 1 .108-.179.612.612 0 0 1 .187-.156.364.364 0 0 1 .166-.052.199.199 0 0 1 .135.041c.038.03.068.075.091.135.023.06.036.134.04.222a1.484 1.484 0 0 1-.04.429 1.108 1.108 0 0 1-.091.236.92.92 0 0 1-.135.192.675.675 0 0 1-.166.134M48.49 57.218a.592.592 0 0 0 .137-.107.717.717 0 0 0 .198-.486v-.069l-.244.191a1.094 1.094 0 0 0-.207.205.34.34 0 0 0-.076.199l.01.054.033.039.06.01a.262.262 0 0 0 .09-.036Zm-.38.067c0-.072.01-.142.033-.209a.829.829 0 0 1 .091-.19c.039-.06.083-.117.135-.17.052-.054.107-.103.165-.148l.291-.23v-.035c0-.092-.023-.149-.069-.169-.046-.02-.104-.01-.173.03a.397.397 0 0 0-.137.121.903.903 0 0 0-.08.15l-.027.044-.039.03-.062.036-.04.002-.016-.043a.493.493 0 0 1 .036-.143.85.85 0 0 1 .087-.162c.037-.053.079-.104.127-.152a.688.688 0 0 1 .151-.118.468.468 0 0 1 .173-.063.2.2 0 0 1 .136.026.233.233 0 0 1 .089.118.596.596 0 0 1 .032.213v.83l-.016.062-.04.044-.076.044h-.04l-.016-.042v-.111a.515.515 0 0 1-.058.123.894.894 0 0 1-.195.22.79.79 0 0 1-.103.071.416.416 0 0 1-.147.055.197.197 0 0 1-.114-.016.165.165 0 0 1-.072-.08.332.332 0 0 1-.026-.138"/><path fill="#33535F" d="M49.72 56.043c0-.035-.008-.06-.023-.075l-.068-.023a.528.528 0 0 0-.116.018 3.961 3.961 0 0 0-.163.044c-.117.033-.198.027-.245-.02-.047-.048-.07-.121-.07-.22a.63.63 0 0 1 .026-.173.773.773 0 0 1 .208-.343.853.853 0 0 1 .37-.21.283.283 0 0 1 .132.004.154.154 0 0 1 .112.144l-.016.062-.042.046-.071.04-.032.01-.033-.013c-.019-.021-.047-.032-.083-.033a.33.33 0 0 0-.152.053.51.51 0 0 0-.161.137.276.276 0 0 0-.062.166c0 .035.006.06.017.076l.057.024a.361.361 0 0 0 .102-.014c.043-.01.096-.025.159-.041a.481.481 0 0 1 .166-.022c.045.004.08.016.108.037.028.02.047.05.058.087.012.038.018.08.018.129 0 .056-.01.115-.032.18a.808.808 0 0 1-.09.186c-.038.06-.085.12-.14.174a.865.865 0 0 1-.19.142.567.567 0 0 1-.188.072.33.33 0 0 1-.14-.004.165.165 0 0 1-.09-.056.151.151 0 0 1-.033-.089l.015-.06.044-.047.077-.044.03-.013.033.014a.116.116 0 0 0 .095.042c.04 0 .093-.019.157-.055a.557.557 0 0 0 .095-.066l.081-.085a.47.47 0 0 0 .058-.092.219.219 0 0 0 .021-.09M50.72 55.629a.18.18 0 0 0-.011-.075l-.034-.023a.15.15 0 0 0-.058.017c-.023.012-.05.026-.081.044-.059.034-.1.027-.123-.02a.514.514 0 0 1-.035-.219 1.227 1.227 0 0 1 .117-.516.626.626 0 0 1 .092-.137.248.248 0 0 1 .093-.073c.026-.009.048-.007.066.004.018.011.032.03.041.056.01.026.014.055.015.088l-.008.062-.02.046-.037.04-.015.01-.017-.013c-.01-.021-.023-.032-.041-.033-.019-.001-.044.017-.077.053a.471.471 0 0 0-.111.303c0 .035.003.06.009.076l.028.024a.098.098 0 0 0 .051-.014c.022-.01.048-.025.08-.042.033-.018.06-.025.083-.021.022.004.04.016.054.037.013.02.023.05.029.087a1.113 1.113 0 0 1-.007.308 1.286 1.286 0 0 1-.116.361.64.64 0 0 1-.094.142.228.228 0 0 1-.094.072c-.028.008-.05.007-.07-.004a.1.1 0 0 1-.045-.056.255.255 0 0 1-.017-.089l.008-.061.021-.046.04-.044.014-.013.017.014c.011.028.027.042.047.042s.046-.019.079-.055a.398.398 0 0 0 .047-.066l.04-.086a.646.646 0 0 0 .03-.091.4.4 0 0 0 .01-.09M52.247 54.587l.208-1.06.02-.058.043-.05.061-.04h.032l.013.038-.002.024-.284 1.46-.02.067-.036.046-.057.037h-.036l-.022-.04-.22-.778-.22 1.064-.022.067-.037.047-.057.037-.036.002-.02-.043-.283-1.092-.002-.021.012-.056.032-.04.062-.04.042-.005.02.031.208.793.223-1.071.017-.056.04-.048.04-.026.04-.004.019.033.222.782M53.717 53.734a1.243 1.243 0 0 0 0-.237.444.444 0 0 0-.038-.14.202.202 0 0 0-.08-.093.23.23 0 0 0-.124-.03.464.464 0 0 0-.173.043.674.674 0 0 0-.414.576 1.171 1.171 0 0 0 0 .235c.005.054.018.101.037.142.019.04.045.071.079.092a.225.225 0 0 0 .125.03c.05 0 .107-.014.173-.042a.673.673 0 0 0 .415-.576Zm-.415-.699a.784.784 0 0 1 .273-.07c.079-.003.147.01.203.04.058.03.102.077.136.14.032.064.053.14.06.228l.004.06v.145l-.003.06c-.01.097-.031.19-.063.281a.978.978 0 0 1-.133.254 1.13 1.13 0 0 1-.477.378.783.783 0 0 1-.272.07.394.394 0 0 1-.205-.04.32.32 0 0 1-.134-.139.595.595 0 0 1-.062-.229l-.004-.056-.002-.072.002-.074.005-.062a1.082 1.082 0 0 1 .195-.536 1.13 1.13 0 0 1 .477-.378Z"/><path fill="#33535F" d="M54.387 52.55h.03l.012.041v.085l-.013.06-.03.043-.089.067c-.119.088-.178.235-.178.438v.777l-.013.06-.03.042-.056.043-.03.001-.013-.042v-1.239l.013-.06.03-.042.057-.043h.03l.012.04v.083a.724.724 0 0 1 .074-.172.441.441 0 0 1 .113-.121l.08-.06M55.61 52.597a1.704 1.704 0 0 0 0-.196c-.004-.115-.03-.19-.08-.225-.051-.035-.116-.03-.197.015a.49.49 0 0 0-.197.215.798.798 0 0 0-.08.327 2.684 2.684 0 0 0 0 .139c.005.116.031.195.08.237.048.042.114.04.197-.007a.511.511 0 0 0 .195-.204.66.66 0 0 0 .082-.3Zm-.295-.609c.078-.044.141-.062.188-.053.047.01.083.028.107.055v-.547l.015-.055.036-.04.07-.04h.037l.015.038v1.624l-.015.056-.036.04-.07.04h-.037l-.015-.039v-.076a.81.81 0 0 1-.109.178.611.611 0 0 1-.186.156.372.372 0 0 1-.167.053.204.204 0 0 1-.135-.041.308.308 0 0 1-.091-.135.71.71 0 0 1-.04-.223 1.586 1.586 0 0 1 .04-.428c.023-.086.053-.164.091-.236a.946.946 0 0 1 .135-.192.68.68 0 0 1 .167-.135"/><path fill="#33535F" d="M56.133 52.591h.071l.03.038v.166l-.03.056-.07.04-.25.073h-.072l-.03-.038v-.167l.03-.056.072-.04.25-.072Zm0-.87h.071l.03.04v.166l-.03.055-.07.04-.25.073h-.072l-.03-.038v-.167l.03-.056.072-.04.25-.072Z"/><path fill="#BFC0BE" d="M19.911 92.317c-.138 0-.233-.106-.233-.29V85.38c0-.259.188-.573.421-.703l51.058-28.343a.393.393 0 0 1 .188-.055c.139 0 .234.105.234.29v1.28l-.089-.048a.992.992 0 0 0-.461-.104c-.17 0-.341.036-.47.108L47.484 70.612 21.256 85.169a.927.927 0 0 0-.32.318.902.902 0 0 0-.145.453V91.88l-.692.383a.392.392 0 0 1-.188.055"/><path fill="#33BFBF" d="M70.634 57.63 21.048 85.195c-.258.144-.467.493-.467.78v6.218c0 .288.21.635.47.776l.89.487c.26.142.68.14.938-.004l49.586-27.564c.258-.143.468-.493.468-.78v-6.218c0-.287-.21-.635-.47-.776l-.891-.487c-.26-.141-.68-.14-.938.005"/><path fill="#009B9B" d="M22.41 93.56c-.058 0-.115-.003-.17-.01a.904.904 0 0 1-.288-.09l-.527-.28-.37-.198c-.262-.136-.474-.477-.474-.758V86.135a.87.87 0 0 1 .149-.446l1.834.993a.995.995 0 0 0-.066.124.77.77 0 0 0-.073.31V93.2l.001.02c.007.185.108.292.253.296h.01c.045 0 .095-.01.148-.032-.121.05-.276.076-.428.076Z"/><path fill="#FBFBFA" d="M72.933 58.764a.975.975 0 0 0-.454-.43l-.9-.398.9.398a.98.98 0 0 1 .454.43"/><path fill="#CCCDCB" d="M21.032 85.69ZM47.53 70.611 70.56 57.63a.973.973 0 0 1 .47-.11c.166 0 .332.035.46.106l.089.048v.001l-.089-.049a.974.974 0 0 0-.46-.105.978.978 0 0 0-.47.11l-23.03 12.98Z"/><path fill="#009B9B" d="m22.843 86.518-1.81-1.015v.001h-.001a.943.943 0 0 1 .32-.321L47.58 70.525 70.653 57.63c.13-.073.3-.11.471-.11.167 0 .334.035.462.106l.088.048.797.438a.978.978 0 0 1 .462.695c-.025-.154-.12-.24-.252-.24a.432.432 0 0 0-.208.06l-34.585 19.33-14.717 8.224a.933.933 0 0 0-.328.337Z"/><path fill="#33BFBF" d="M72.465 58.825 22.854 86.272c-.259.143-.468.49-.468.777v6.191c0 .286.21.402.468.259l49.61-27.447c.26-.143.469-.49.469-.777v-6.19c0-.287-.21-.403-.468-.26"/><path fill="#fff" d="M33.148 84.764a.3.3 0 0 1 .04-.126.218.218 0 0 1 .07-.077l.308-.184.074-.005c.02.014.03.042.028.086a2.421 2.421 0 0 1-.28.986c-.092.17-.207.333-.347.49-.139.157-.307.295-.504.413-.175.104-.33.16-.464.169a.487.487 0 0 1-.342-.094.687.687 0 0 1-.218-.329 1.87 1.87 0 0 1-.093-.527 12.303 12.303 0 0 1 0-.88 3.28 3.28 0 0 1 .093-.639c.052-.21.124-.406.218-.59.094-.183.208-.35.342-.503.134-.152.289-.28.464-.385.197-.118.365-.182.504-.192a.54.54 0 0 1 .346.077c.091.06.159.15.203.27.044.118.07.245.078.38a.223.223 0 0 1-.028.12.218.218 0 0 1-.074.083l-.308.184-.072.01c-.023-.01-.037-.035-.042-.078a.46.46 0 0 0-.053-.172.262.262 0 0 0-.114-.111.306.306 0 0 0-.182-.02.717.717 0 0 0-.258.105 1.02 1.02 0 0 0-.259.218 1.352 1.352 0 0 0-.298.598 1.862 1.862 0 0 0-.048.337 12.433 12.433 0 0 0 0 .882c.006.109.021.204.048.284.027.08.065.14.114.181.05.04.11.06.184.058a.557.557 0 0 0 .259-.092c.098-.06.184-.127.258-.204a1.38 1.38 0 0 0 .184-.239 1.255 1.255 0 0 0 .169-.484M35.925 84.137c0 .037-.01.075-.03.113a.194.194 0 0 1-.07.081l-.281.165-.07.001c-.02-.015-.03-.04-.03-.078v-1.273c0-.2-.035-.341-.104-.421-.07-.08-.175-.078-.318.007a.778.778 0 0 0-.309.361 1.301 1.301 0 0 0-.113.548v1.273c0 .038-.01.075-.03.113a.19.19 0 0 1-.07.082l-.28.165h-.071c-.02-.014-.03-.04-.03-.077v-3.29c0-.037.01-.074.03-.112a.198.198 0 0 1 .07-.082l.282-.165.07-.001c.02.015.03.04.03.077v1.069c.064-.125.139-.24.225-.348a1.1 1.1 0 0 1 .307-.266c.15-.088.276-.13.377-.126a.328.328 0 0 1 .244.112.64.64 0 0 1 .132.297c.026.127.039.269.039.426v1.35M37.147 82.91a1 1 0 0 0 .231-.167c.068-.066.124-.136.17-.21a.968.968 0 0 0 .103-.224.717.717 0 0 0 .034-.21v-.047l-.519.388a.982.982 0 0 0-.225.216.362.362 0 0 0-.069.208c0 .065.028.099.083.101a.388.388 0 0 0 .192-.055Zm-.637-.983c.01-.07.034-.153.07-.248.038-.095.09-.193.157-.294.068-.101.15-.2.248-.293.098-.095.212-.176.342-.245.13-.07.247-.11.351-.124a.432.432 0 0 1 .269.042.403.403 0 0 1 .173.215c.041.102.062.232.062.391v1.378a.21.21 0 0 1-.03.105.184.184 0 0 1-.074.076l-.29.154-.072.001c-.02-.014-.03-.038-.03-.072v-.155c-.054.119-.13.237-.231.354-.101.118-.229.218-.384.3a.852.852 0 0 1-.294.103.34.34 0 0 1-.217-.037.331.331 0 0 1-.136-.16.665.665 0 0 1-.047-.267c0-.216.061-.417.186-.606.125-.188.292-.359.5-.514l.622-.461c0-.128-.034-.201-.103-.217-.068-.017-.154.002-.255.056a.52.52 0 0 0-.15.112.98.98 0 0 0-.102.144.494.494 0 0 1-.063.085l-.063.047-.355.189-.065.006c-.018-.01-.025-.03-.019-.065M40.438 81.655c0 .037-.01.074-.03.112a.19.19 0 0 1-.07.081l-.28.165h-.07c-.02-.014-.03-.04-.03-.077v-1.27c0-.2-.036-.34-.104-.42-.07-.08-.175-.078-.318.006a.776.776 0 0 0-.31.361 1.296 1.296 0 0 0-.112.546v1.271c0 .037-.01.074-.03.113a.186.186 0 0 1-.07.08l-.281.165-.07.002c-.02-.016-.03-.041-.03-.078v-2.331c0-.037.01-.075.03-.113a.19.19 0 0 1 .07-.08l.28-.166h.071c.02.014.03.04.03.077v.115c.064-.124.139-.24.226-.347.086-.108.188-.196.306-.265.15-.088.276-.13.378-.126a.327.327 0 0 1 .244.112c.061.071.105.17.131.296.026.126.04.268.04.425v1.346M41.475 79.644c-.01.093-.01.182 0 .267.018.198.078.32.178.364.102.043.226.032.372-.036a.938.938 0 0 0 .368-.309.93.93 0 0 0 .172-.476 1.568 1.568 0 0 0 0-.362c-.015-.159-.072-.262-.172-.312-.1-.05-.223-.04-.368.028a.954.954 0 0 0-.371.307c-.102.138-.161.314-.179.529Zm.536 1.604a1.03 1.03 0 0 0 .503-.531.706.706 0 0 0 .051-.265v-.177a1.548 1.548 0 0 1-.674.599.874.874 0 0 1-.405.094.547.547 0 0 1-.308-.106.656.656 0 0 1-.201-.264 1.075 1.075 0 0 1-.083-.385 2.957 2.957 0 0 1 0-.334c.006-.149.033-.303.083-.46.05-.159.116-.309.2-.452.086-.142.189-.272.31-.39a1.436 1.436 0 0 1 .652-.366.785.785 0 0 1 .192-.018.467.467 0 0 1 .14.028c.04.016.07.032.094.05v-.11c0-.035.012-.07.036-.107a.203.203 0 0 1 .085-.077l.34-.157.084-.001c.024.014.036.038.036.073v2.239c0 .385-.1.722-.302 1.01-.2.29-.479.515-.833.68-.152.07-.293.113-.422.13a.834.834 0 0 1-.337-.016.467.467 0 0 1-.228-.138.38.38 0 0 1-.094-.236.162.162 0 0 1 .034-.106.216.216 0 0 1 .086-.078l.304-.14c.042-.02.078-.022.108-.005l.076.048a.246.246 0 0 0 .158.06c.067.005.172-.026.315-.092M44.498 77.698a.726.726 0 0 0-.182.148.969.969 0 0 0-.24.552l.83-.483a.843.843 0 0 0-.027-.14.227.227 0 0 0-.067-.11.173.173 0 0 0-.121-.037.44.44 0 0 0-.193.07Zm-.9 1.263a2.564 2.564 0 0 1 .242-1.086c.078-.165.173-.314.285-.448.111-.135.236-.241.373-.32a.723.723 0 0 1 .373-.116.436.436 0 0 1 .285.105c.078.068.14.166.182.294.043.128.064.276.064.443v.222c0 .037-.01.074-.03.111a.187.187 0 0 1-.069.08l-1.228.713c0 .076.012.136.035.18a.191.191 0 0 0 .094.091c.04.017.084.02.136.01a.522.522 0 0 0 .158-.062.931.931 0 0 0 .191-.143.916.916 0 0 0 .121-.152.892.892 0 0 1 .066-.093.29.29 0 0 1 .07-.056l.295-.17.072-.002c.02.014.03.04.027.077a.791.791 0 0 1-.057.21 1.67 1.67 0 0 1-.16.306c-.071.11-.159.22-.263.33-.104.11-.225.205-.362.284a.764.764 0 0 1-.373.121.398.398 0 0 1-.285-.109.694.694 0 0 1-.18-.316 1.778 1.778 0 0 1-.063-.504M47.2 76.177l.508-.327a.943.943 0 0 0 .3-.3.855.855 0 0 0 .11-.455c0-.182-.037-.284-.11-.306-.075-.022-.175.007-.3.087l-.508.327v.974Zm.525-1.92c.264-.17.47-.21.617-.12.147.092.22.316.22.673 0 .358-.073.677-.22.96a1.752 1.752 0 0 1-.617.678l-.525.338v1.086a.252.252 0 0 1-.027.11.183.183 0 0 1-.062.079l-.266.17-.062.002c-.018-.015-.027-.04-.027-.076v-3.146c0-.036.009-.072.027-.11a.18.18 0 0 1 .062-.079l.88-.565M49.784 75.868a1.1 1.1 0 0 0 .401-.377.97.97 0 0 0 .103-.224.724.724 0 0 0 .035-.21v-.047l-.52.388a.973.973 0 0 0-.225.216.361.361 0 0 0-.069.207c0 .066.028.1.083.102a.39.39 0 0 0 .192-.055Zm-.637-.983c.01-.07.034-.153.07-.248.037-.095.09-.192.157-.294.067-.101.15-.199.248-.293.098-.094.212-.176.342-.245.13-.07.247-.11.35-.124a.433.433 0 0 1 .27.042.403.403 0 0 1 .173.215c.04.102.061.233.061.392v1.377c0 .035-.01.07-.03.105a.184.184 0 0 1-.072.076l-.29.154-.073.001c-.02-.014-.03-.038-.03-.072v-.155c-.054.119-.131.237-.231.355-.101.117-.23.217-.384.3a.847.847 0 0 1-.294.102.337.337 0 0 1-.218-.037.336.336 0 0 1-.135-.16.666.666 0 0 1-.048-.267c0-.216.062-.417.187-.606a2.07 2.07 0 0 1 .5-.513l.623-.462c0-.128-.035-.2-.104-.217-.069-.017-.154.002-.255.056a.515.515 0 0 0-.15.112c-.035.04-.07.089-.102.144a.481.481 0 0 1-.064.085l-.062.047-.355.189-.065.006c-.018-.009-.024-.03-.02-.065M52.545 74.223c0-.035-.01-.06-.028-.073-.02-.013-.053-.017-.1-.012a1.331 1.331 0 0 0-.19.04l-.301.078a.909.909 0 0 1-.297.032.341.341 0 0 1-.19-.072.318.318 0 0 1-.1-.17 1.012 1.012 0 0 1 .029-.57c.038-.114.093-.225.165-.335.072-.11.16-.214.263-.313.103-.099.22-.182.354-.25.133-.07.252-.113.357-.131a.61.61 0 0 1 .266.003c.074.02.13.058.171.113.041.055.064.12.07.195a.184.184 0 0 1-.03.108.21.21 0 0 1-.08.08l-.314.162c-.04.02-.071.028-.091.02l-.068-.026a.222.222 0 0 0-.097-.01.885.885 0 0 0-.4.223.28.28 0 0 0-.093.204c0 .035.007.061.022.078.014.017.043.024.085.021.042-.002.1-.012.175-.03a9.48 9.48 0 0 0 .292-.075c.241-.063.412-.055.511.025.1.08.149.217.149.412 0 .097-.02.202-.061.315-.041.113-.1.226-.177.339a1.798 1.798 0 0 1-.666.584c-.144.074-.271.12-.382.136a.597.597 0 0 1-.278-.014.33.33 0 0 1-.176-.128.378.378 0 0 1-.065-.204.18.18 0 0 1 .03-.108.208.208 0 0 1 .08-.08l.314-.162c.04-.02.071-.025.091-.013l.07.042a.197.197 0 0 0 .108.022.554.554 0 0 0 .208-.074 1.045 1.045 0 0 0 .247-.168.578.578 0 0 0 .09-.105.198.198 0 0 0 .037-.11M54.35 73.394c0-.035-.01-.06-.028-.072-.02-.013-.053-.017-.1-.012a1.304 1.304 0 0 0-.19.04c-.078.02-.179.047-.301.077a.897.897 0 0 1-.297.032.336.336 0 0 1-.19-.072.316.316 0 0 1-.1-.17.988.988 0 0 1 .03-.57c.037-.113.092-.225.164-.335.072-.11.16-.214.263-.312.103-.1.221-.182.354-.251.134-.069.252-.113.356-.13a.61.61 0 0 1 .267.002.31.31 0 0 1 .171.113c.041.056.064.12.07.195a.181.181 0 0 1-.03.108.211.211 0 0 1-.08.08l-.314.162c-.04.02-.071.028-.091.02l-.068-.026a.224.224 0 0 0-.097-.01.889.889 0 0 0-.4.223.28.28 0 0 0-.093.204c0 .035.007.062.022.078.015.017.043.024.086.022.042-.003.1-.013.175-.03a9.48 9.48 0 0 0 .291-.075c.242-.064.412-.055.511.025.1.08.149.217.149.41 0 .098-.02.203-.061.316-.04.114-.1.226-.177.34a1.845 1.845 0 0 1-.666.584c-.144.073-.271.12-.381.135a.6.6 0 0 1-.28-.014.327.327 0 0 1-.174-.128.376.376 0 0 1-.066-.203.18.18 0 0 1 .03-.109.209.209 0 0 1 .08-.08l.314-.161c.04-.021.071-.026.091-.014l.07.042a.197.197 0 0 0 .108.022.552.552 0 0 0 .208-.073c.04-.02.082-.046.126-.075.044-.029.084-.06.12-.093a.576.576 0 0 0 .091-.106.195.195 0 0 0 .037-.109M57.258 71.455l.318-1.583a.71.71 0 0 1 .03-.096.156.156 0 0 1 .07-.08l.268-.16.067-.002c.02.015.028.04.028.076l-.003.036-.534 2.565a.6.6 0 0 1-.032.102.168.168 0 0 1-.07.08l-.27.161c-.032.02-.055.02-.068.002l-.034-.062-.342-1.097-.343 1.506c-.01.035-.021.07-.034.103a.155.155 0 0 1-.069.08l-.269.16c-.032.02-.056.022-.07.004l-.032-.064-.534-1.928-.004-.032c0-.036.01-.072.03-.11a.184.184 0 0 1 .066-.078l.269-.16c.033-.02.056-.021.069-.003l.03.06.318 1.204.34-1.596a.391.391 0 0 1 .033-.098.177.177 0 0 1 .065-.078l.269-.16h.065l.034.057.34 1.191M59.828 69.404a.725.725 0 0 0-.052-.253c-.028-.058-.062-.096-.102-.113a.184.184 0 0 0-.132-.003.605.605 0 0 0-.147.074.88.88 0 0 0-.279.306c-.04.073-.074.156-.101.252a1.469 1.469 0 0 0-.052.322 4.341 4.341 0 0 0 0 .503c.007.111.024.196.052.253.027.058.06.096.101.113.04.018.085.018.133.003a.575.575 0 0 0 .146-.074.86.86 0 0 0 .279-.306c.04-.073.074-.156.102-.251a1.503 1.503 0 0 0 .055-.435V69.513c0-.045 0-.081-.003-.11Zm-.433-.966a.762.762 0 0 1 .356-.145.386.386 0 0 1 .275.076c.078.06.14.148.186.266.046.117.073.259.08.426.003.032.004.074.004.126v.31a2.79 2.79 0 0 1-.27 1.178c-.077.163-.17.312-.275.447a1.576 1.576 0 0 1-.356.336.76.76 0 0 1-.355.145.392.392 0 0 1-.276-.073.574.574 0 0 1-.184-.264 1.43 1.43 0 0 1-.082-.425 5.825 5.825 0 0 1 0-.565c.007-.176.034-.354.08-.535a2.91 2.91 0 0 1 .186-.518c.078-.164.17-.314.276-.448a1.58 1.58 0 0 1 .355-.337M61.73 67.814a.847.847 0 0 0-.35.33c-.072.131-.107.3-.107.505v1.343c0 .038-.01.076-.033.115a.2.2 0 0 1-.077.084l-.307.17-.077.001c-.02-.015-.032-.042-.032-.08v-2.405c0-.038.011-.076.032-.116a.2.2 0 0 1 .077-.084l.307-.17h.078c.021.015.032.041.032.08v.118c.07-.121.144-.226.224-.315a1.19 1.19 0 0 1 .313-.24l.182-.1.077-.002c.021.016.032.042.032.08v.341c0 .038-.01.077-.032.116a.2.2 0 0 1-.077.084l-.263.145M62.687 67.767c-.01.095-.01.186 0 .273.017.202.077.326.178.371.101.045.225.033.37-.036a.961.961 0 0 0 .54-.802 1.739 1.739 0 0 0 .001-.37c-.015-.162-.072-.267-.172-.318-.1-.05-.222-.04-.368.028a.959.959 0 0 0-.371.314 1.05 1.05 0 0 0-.178.54Zm.415-1.376c.092-.043.175-.073.248-.087a.759.759 0 0 1 .192-.018.45.45 0 0 1 .234.079v-1.038c0-.036.013-.072.036-.11a.204.204 0 0 1 .085-.078l.34-.16.084-.002c.025.015.037.04.037.076v3.197a.198.198 0 0 1-.037.11.204.204 0 0 1-.084.078l-.34.16-.085.002c-.023-.015-.036-.04-.036-.076v-.112a1.532 1.532 0 0 1-.426.465 1.477 1.477 0 0 1-.248.146.848.848 0 0 1-.404.096.533.533 0 0 1-.309-.108.658.658 0 0 1-.201-.27 1.1 1.1 0 0 1-.082-.393 2.703 2.703 0 0 1 0-.34c.005-.153.033-.31.082-.471.05-.161.116-.315.201-.46.085-.146.188-.279.308-.4.121-.12.256-.215.405-.286"/></g><defs><clipPath id="a"><path fill="#fff" d="M0 0h87v107H0z"/></clipPath></defs></svg>