<svg xmlns="http://www.w3.org/2000/svg" width="650" height="617" fill="none"><path fill="#DADBD8" d="m579.824 533.565-79.037-45.613-114.951 66.429c-2.533 1.463-2.532 3.833.003 5.295 1.729.997 73.073 42.144 74.796 43.14 1.525.885 3.145 1.071 4.234 1.071 1.38.014 2.682-.326 3.844-.864l111.112-64.163c2.522-1.456 2.522-3.839-.001-5.295ZM83.105 543.364c-4.375 0-8.586.789-12.178 2.282-4.584 1.907-7.59 4.796-8.04 7.73-.406 2.644 1.348 4.745 2.891 6.041 3.569 2.997 9.607 4.787 16.152 4.787 4.377 0 8.588-.79 12.179-2.284 4.584-1.906 7.591-4.795 8.042-7.73.404-2.642-1.349-4.742-2.891-6.039-3.57-2.998-9.608-4.787-16.155-4.787M79.02 586.92c-.157 0-.314-.008-.467-.021L66.869 585.8a4.626 4.626 0 0 1-3.205-1.73 4.694 4.694 0 0 1-.983-3.562l.567-4.324a48.717 48.717 0 0 1-4.961-1.815c-.23-.099-.728-.205-1.28-.205-.343 0-.595.042-.707.08l-9.134 2.998a5.961 5.961 0 0 1-1.874.287c-1.58 0-3.17-.544-4.252-1.456l-5.913-4.967c-1.107-.931-1.656-2.224-1.51-3.548.15-1.334.984-2.486 2.287-3.161l7.062-3.656a16.633 16.633 0 0 1-.703-2.011c-.057-.201-.274-.441-.386-.491l-10.08-1.626a4.447 4.447 0 0 1-3.094-2.047c-.677-1.103-.83-2.47-.421-3.75l1.68-5.26c.708-2.211 2.894-3.816 5.201-3.816l10.83.312c.337 0 1.128-.355 1.478-.716a28.365 28.365 0 0 1 2.256-2.099l-3.602-3.892c-.967-1.044-1.36-2.385-1.079-3.679.284-1.302 1.211-2.367 2.543-2.921l9.406-3.912c.725-.301 1.573-.46 2.453-.46 1.386 0 2.704.371 3.712 1.044l6.244 4.161c.21.14.861.343 1.491.343l.302-.021a65.12 65.12 0 0 1 6.33-.871c.26-.028.791-.377.915-.604l2.383-4.626c.958-1.857 3.092-3.151 5.191-3.151.159 0 .316.008.471.022l11.682 1.099a4.61 4.61 0 0 1 3.202 1.728 4.69 4.69 0 0 1 .984 3.567l-.567 4.321a48.04 48.04 0 0 1 4.962 1.814c.23.098.727.206 1.279.206.342 0 .594-.044.705-.08l9.138-3a6.005 6.005 0 0 1 1.873-.286c1.579 0 3.169.543 4.252 1.455l5.912 4.969c1.107.929 1.657 2.222 1.51 3.546-.149 1.335-.982 2.487-2.287 3.163l-7.061 3.655c.28.663.515 1.338.703 2.013.056.2.272.44.384.49l10.081 1.626a4.44 4.44 0 0 1 3.094 2.045c.678 1.105.831 2.472.42 3.753l-1.68 5.259c-.706 2.211-2.894 3.816-5.199 3.816l-10.832-.313c-.335 0-1.128.353-1.476.716a28.536 28.536 0 0 1-2.257 2.1l3.603 3.892c.968 1.042 1.361 2.384 1.078 3.678-.284 1.303-1.212 2.368-2.544 2.922l-9.405 3.912c-.724.3-1.572.458-2.452.458-1.366 0-2.719-.38-3.714-1.042l-6.242-4.162c-.21-.138-.863-.342-1.495-.342l-.3.022a65.618 65.618 0 0 1-6.325.869c-.263.029-.796.378-.92.606l-2.382 4.625c-.954 1.855-3.088 3.15-5.19 3.15M160.257 562.642l.034-.002-.03-.003-.004.005Zm3.875 11.379c-2.827 0-5.543.508-7.853 1.469-2.798 1.164-4.622 2.854-4.879 4.523-.211 1.377.777 2.533 1.644 3.262 2.247 1.888 6.097 3.014 10.3 3.014 2.828 0 5.544-.508 7.855-1.468 2.798-1.165 4.622-2.855 4.878-4.524.211-1.376-.776-2.532-1.641-3.26-2.249-1.888-6.1-3.016-10.304-3.016m3.087 23.654.002-.006-.032.003h.01l.02.003Zm-5.831 5.637c-.133 0-.268-.007-.4-.019l-7.855-.739a3.964 3.964 0 0 1-2.754-1.488 4.071 4.071 0 0 1-.846-3.053l.287-2.184a32.71 32.71 0 0 1-2.721-1.028 1.806 1.806 0 0 0-.746-.049l-6.116 2.011c-.474.155-.99.234-1.53.234-1.279 0-2.526-.431-3.42-1.18l-3.979-3.344c-.972-.816-1.452-1.964-1.321-3.149.132-1.194.862-2.216 2.002-2.807l4.058-2.099a12.388 12.388 0 0 1-.15-.461l-6.406-1.036a3.871 3.871 0 0 1-2.686-1.782 3.924 3.924 0 0 1-.371-3.245l1.132-3.538c.587-1.838 2.407-3.174 4.327-3.174l7.31.211.346-.221c.278-.292.575-.58.888-.864l-1.813-1.959c-.848-.917-1.188-2.104-.936-3.256.255-1.159 1.067-2.101 2.231-2.583l6.32-2.63a5.228 5.228 0 0 1 1.985-.376c1.103 0 2.16.301 2.98.847l4.2 2.801c.037.013.291.082.519.082a48.057 48.057 0 0 1 4.33-.592l.006-.008.012-.025 1.554-3.017c.786-1.528 2.54-2.593 4.268-2.593.132 0 .264.006.394.018l7.858.74a3.975 3.975 0 0 1 2.759 1.491 4.07 4.07 0 0 1 .839 3.054l-.283 2.18c.94.31 1.851.655 2.721 1.028a1.793 1.793 0 0 0 .743.05l6.116-2.011a4.928 4.928 0 0 1 1.532-.233c1.279 0 2.525.429 3.42 1.178l3.979 3.345c.97.814 1.452 1.962 1.321 3.149-.132 1.193-.864 2.217-2.005 2.806l-4.054 2.099c.052.153.103.308.148.461l6.407 1.036c1.12.182 2.1.83 2.683 1.778.59.96.726 2.144.374 3.248l-1.132 3.54c-.586 1.837-2.408 3.173-4.328 3.173l-7.309-.211-.345.222c-.282.292-.579.58-.89.865l1.812 1.956c.85.919 1.191 2.105.938 3.257-.254 1.159-1.067 2.102-2.231 2.583l-6.323 2.631a5.224 5.224 0 0 1-1.984.376c-1.101 0-2.16-.302-2.98-.848l-4.2-2.8a1.94 1.94 0 0 0-.52-.083c-1.42.26-2.862.46-4.328.591l-.005.009-.011.024-1.554 3.019c-.786 1.526-2.54 2.592-4.267 2.592"/><path fill="#E2E2E0" d="M32.22 542.429c-.902-.144-1.487-.841-1.5-1.699l-.116 9.791.019-.007c.009.84.585 1.55 1.488 1.694l8.264 1.339 4.313-2.235c1.026-.536 1.36-1.749.888-2.806a13.603 13.603 0 0 1-.75-2.035c-.313-1.112-1.322-2.202-2.451-2.396l-10.155-1.646m85.191 21.116c0 .524-.345 1.011-.991 1.275l-9.4 3.908c-.69.288-1.618.324-2.45.138a3.28 3.28 0 0 1-1.221-.476l-6.238-4.157c-.955-.633-2.634-.949-3.768-.721a66.356 66.356 0 0 1-6.064.832c-.688.061-1.438.396-2.05.876-.426.327-.784.725-1 1.155l-2.39 4.637c-.333.657-1.011 1.199-1.733 1.484-.435.175-.886.24-1.313.206l-11.678-1.101c-1.135-.1-1.937-1.136-1.793-2.295l.6-4.509c.144-1.16-.63-2.325-1.725-2.662a44.162 44.162 0 0 1-4.856-1.758c-1.049-.442-2.772-.571-3.872-.209l-.103.038-9.028 2.963c-.668.219-1.51.191-2.278-.024-.492-.137-.967-.362-1.307-.656l-5.913-4.968c-.364-.308-.556-.664-.575-1.017l-.123 9.72c.023.373.208.742.583 1.057l5.907 4.979c.61.516 1.582.816 2.477.809.178.021.36.011.535-.018l.081-.002a2.12 2.12 0 0 0 .492-.109l9.036-2.974.101-.038c1.1-.363 2.824-.235 3.866.22a47.108 47.108 0 0 0 4.856 1.757 2.47 2.47 0 0 1 1.201.842l-.084 6.621c.02 1.041.766 1.897 1.809 1.992l11.678 1.103a3.11 3.11 0 0 0 1.312-.207c.268-.107.527-.252.769-.423.13-.088.249-.184.356-.285l.032-.03.263-.29c.095-.108.177-.224.248-.347l.064-.11 2.383-4.624c.066-.142.156-.27.258-.391l.218-.267a3.38 3.38 0 0 1 .532-.509c.612-.481 1.363-.816 2.05-.878a62.744 62.744 0 0 0 6.064-.83c1.127-.216 2.813.088 3.768.72l6.25 4.165c.321.218.751.352 1.205.449l-.007.012.311.067a5.14 5.14 0 0 0 1.428.007l.309-.067c.145-.031.278-.069.406-.125l9.407-3.92c.39-.152.655-.391.818-.672a1.28 1.28 0 0 0 .166-.591l.121-9.772M47.509 530.69l.012.007c-.012.354.13.714.44 1.056l.537.588c.344-.211.652-.441.893-.694a25.055 25.055 0 0 1 2.583-2.351c.927-.724 1.075-1.945.296-2.772l-4.194-4.531a1.497 1.497 0 0 1-.438-.84l-.129 9.537Zm86.806 13.139a2.04 2.04 0 0 1-.103.561l-1.677 5.278c-.352 1.104-1.576 1.984-2.722 1.958l-10.696-.322c-.514-.019-1.109.129-1.672.36-.69.288-1.348.709-1.809 1.178-.765.8-1.634 1.59-2.582 2.351-.908.718-1.069 1.933-.297 2.772l3.659 3.943a4.37 4.37 0 0 1 .92-.466l.007-.013c.575-.223 1.139-.372 1.653-.353l10.702.311c1.14.036 2.364-.843 2.723-1.961l1.671-5.263c.071-.204.091-.406.092-.6l.012.006.119-9.74m-64.41-12.192c-8.793 3.655-11.941 10.239-8.176 15.732 1.585-2.305 4.304-4.397 8.054-5.96 10.192-4.234 24.11-2.934 31.074 2.916.984.831 1.769 1.676 2.368 2.512 2.734-3.964 2.135-8.576-2.254-12.271-6.963-5.852-20.874-7.164-31.067-2.929m58.87-3.562c-.007.453-.305.886-.86 1.186l-7.556 3.911c-1.037.529-1.36 1.748-.9 2.799.306.683.549 1.364.743 2.047.313 1.112 1.322 2.202 2.458 2.383l1.891.308 3.242-1.676c.575-.305.856-.765.851-1.225l.012.007.119-9.74Z"/><path fill="#C6C7C6" d="M78.876 582.471c-.066 0-.131-.003-.196-.008l-11.678-1.103c-1.043-.094-1.79-.951-1.81-1.992l.085-6.621a2.467 2.467 0 0 0-1.201-.841 47.111 47.111 0 0 1-4.856-1.758c-.63-.275-1.51-.43-2.35-.43-.549 0-1.081.066-1.516.21l-.101.038-9.036 2.974a2.12 2.12 0 0 1-.492.109l-.081.002a2.126 2.126 0 0 1-.339.029c-.066 0-.131-.003-.196-.011h-.03c-.886 0-1.844-.298-2.447-.809l-5.907-4.979c-.375-.315-.56-.684-.583-1.057l.123-9.72c.019.353.211.709.575 1.017l5.913 4.968c.34.294.815.519 1.307.656.407.114.835.175 1.247.175.365 0 .717-.048 1.03-.151l9.029-2.962.103-.039c.437-.144.973-.211 1.525-.211.838 0 1.715.154 2.347.42a44.162 44.162 0 0 0 4.856 1.758c1.004.309 1.74 1.317 1.742 2.377 0 .095-.006.189-.018.285l-.599 4.51c-.011.09-.017.18-.017.269 0 1.045.764 1.933 1.81 2.025l11.678 1.101c.07.006.143.01.215.01.361 0 .736-.07 1.098-.216.722-.285 1.4-.827 1.732-1.484l2.39-4.637c.217-.43.575-.828 1.002-1.155.611-.48 1.361-.814 2.049-.876a66.356 66.356 0 0 0 6.064-.832c.249-.049.525-.073.813-.073 1.024 0 2.21.3 2.955.794l6.238 4.157a3.28 3.28 0 0 0 1.221.476c.338.077.693.115 1.041.115.507 0 1-.082 1.409-.253l9.4-3.908c.634-.259.978-.732.99-1.244l-.12 9.742a1.28 1.28 0 0 1-.166.59c-.163.281-.428.52-.818.672l-9.407 3.92a2.02 2.02 0 0 1-.406.125l-.309.067c-.216.032-.44.047-.669.047a5.58 5.58 0 0 1-.759-.054l-.311-.066.007-.012c-.454-.098-.884-.232-1.205-.45l-6.25-4.165c-.749-.496-1.946-.79-2.972-.79-.282 0-.552.023-.796.07a62.127 62.127 0 0 1-6.064.83c-.688.062-1.438.397-2.05.878a3.38 3.38 0 0 0-.532.509l-.218.267c-.102.121-.192.25-.258.391l-2.383 4.624-.064.11c-.07.123-.153.239-.248.347l-.263.291-.032.029a2.758 2.758 0 0 1-.356.285c-.242.171-.5.316-.769.423a3.197 3.197 0 0 1-1.116.215m38.534-18.895.001-.031-.001.031Zm-.994-1.668-3.659-3.942a1.804 1.804 0 0 1-.493-1.233c0-.567.275-1.133.79-1.539a26.878 26.878 0 0 0 2.582-2.351c.461-.47 1.119-.891 1.809-1.179.531-.217 1.09-.362 1.583-.362.029 0 .059 0 .089.002l10.696.322.047.002c1.133-.002 2.328-.871 2.675-1.96l1.677-5.278c.064-.191.096-.384.103-.56l-.119 9.739-.012-.006a1.826 1.826 0 0 1-.092.6l-1.671 5.263c-.352 1.095-1.534 1.962-2.653 1.962l-.07-.001-10.702-.311-.09-.001c-.489 0-1.021.144-1.563.355l-.007.013c-.325.123-.633.27-.92.465m-76.041-8.361-8.264-1.339c-.903-.144-1.48-.853-1.488-1.694l-.02.007.117-9.79c.013.857.598 1.554 1.5 1.699l10.155 1.645c1.129.194 2.139 1.284 2.45 2.396.195.684.438 1.364.75 2.036.143.317.212.649.211.973-.002.752-.381 1.457-1.098 1.832l-4.313 2.235Zm21.354-6.178c-1.052-1.534-1.565-3.153-1.565-4.77-.002-4.172 3.404-8.328 9.74-10.962 4.037-1.676 8.655-2.483 13.195-2.483 6.924 0 13.666 1.878 17.872 5.412 2.64 2.223 3.909 4.778 3.905 7.323-.002 1.687-.562 3.37-1.651 4.948-.599-.836-1.384-1.681-2.368-2.512-4.202-3.53-10.936-5.404-17.858-5.404-4.546 0-9.175.81-13.216 2.488-3.75 1.563-6.47 3.655-8.054 5.96m62.821-6.66-1.891-.308c-1.136-.181-2.145-1.27-2.458-2.382a15.044 15.044 0 0 0-.743-2.048 2.386 2.386 0 0 1-.204-.958c-.001-.756.375-1.469 1.104-1.841l7.556-3.911c.555-.3.853-.733.86-1.186l-.119 9.74-.012-.007v.011c0 .457-.281.911-.851 1.214l-3.242 1.676m-76.052-8.367-.536-.588c-.299-.33-.442-.676-.442-1.015l.001-.042-.012-.007.13-9.536a1.5 1.5 0 0 0 .437.84l4.194 4.53c.338.359.501.791.503 1.225.001.567-.274 1.138-.8 1.547a25.055 25.055 0 0 0-2.582 2.351 4.45 4.45 0 0 1-.893.695Z"/><path fill="#DADBD8" d="m55.366 560.207-9.028 2.962c-.668.219-1.51.191-2.278-.024l-.118 9.74a4.87 4.87 0 0 0 1.167.184c.178.022.36.011.535-.018l.081-.001c.169-.018.333-.054.492-.108l9.036-2.975.113-9.76M85.23 565.22c-.427.327-.785.725-1.001 1.156l-2.39 4.636c-.333.657-1.01 1.199-1.733 1.484l-.114 9.76c.268-.107.527-.252.769-.423.13-.088.249-.184.356-.285l.032-.03.264-.29c.094-.108.177-.224.248-.347l.064-.11 2.382-4.624c.067-.142.156-.27.258-.391l.218-.267a6.6 6.6 0 0 1 .53-.478l.003-.031.114-9.76M128.78 528.078c-.007.454-.305.888-.872 1.181l-7.555 3.91c-1.026.537-1.36 1.749-.889 2.806.306.684.556 1.35.743 2.048.313 1.112 1.322 2.201 2.458 2.384l1.879.299 3.242-1.675c.575-.307.868-.759.863-1.219l.012.007.119-9.741M134.315 543.83a2.047 2.047 0 0 1-.103.561l-1.677 5.276c-.352 1.105-1.576 1.985-2.722 1.96l-10.696-.323c-.514-.019-1.109.129-1.672.36l-.102 9.766c.575-.223 1.138-.373 1.653-.354l10.702.311c1.141.036 2.364-.843 2.723-1.96l1.671-5.264c.071-.204.091-.406.092-.6l.012.006.119-9.739M117.411 563.545c0 .523-.345 1.011-.991 1.275l-9.4 3.908c-.69.288-1.618.324-2.45.138l-.125 9.753.311.066c.486.069.976.072 1.428.007l.309-.067a2.02 2.02 0 0 0 .406-.125l9.407-3.92c.39-.15.655-.391.818-.672a1.28 1.28 0 0 0 .166-.59l.121-9.773"/><path fill="#F3F2F1" d="M100.974 534.568c6.968 5.853 4.353 14.033-5.84 18.272-10.192 4.24-24.104 2.931-31.071-2.923-6.968-5.854-4.354-14.036 5.84-18.275 10.192-4.238 24.103-2.929 31.071 2.926Zm17.729-13.252-9.138 3c-1.101.361-2.821.241-3.869-.211a46.322 46.322 0 0 0-4.856-1.764c-1.094-.33-1.872-1.499-1.72-2.657l.59-4.511c.152-1.159-.65-2.184-1.792-2.292l-11.682-1.098c-1.142-.107-2.502.65-3.04 1.693l-2.383 4.629c-.537 1.042-1.905 1.936-3.051 2.037-2.041.182-4.07.458-6.07.835-1.133.213-2.817-.089-3.767-.723l-6.245-4.162c-.95-.633-2.589-.784-3.661-.339l-9.404 3.911c-1.072.445-1.31 1.488-.533 2.326l4.192 4.53c.777.839.621 2.049-.293 2.777a26.511 26.511 0 0 0-2.588 2.344c-.812.844-2.329 1.568-3.477 1.535l-10.689-.311c-1.147-.033-2.367.844-2.723 1.96l-1.682 5.26c-.356 1.116.271 2.169 1.402 2.352l10.15 1.644c1.13.184 2.144 1.273 2.456 2.387a14.3 14.3 0 0 0 .743 2.041c.474 1.05.142 2.269-.891 2.804l-7.553 3.911c-1.033.535-1.161 1.563-.287 2.299l5.915 4.969c.874.734 2.475 1.037 3.577.676l9.137-3c1.1-.362 2.82-.242 3.87.209a45.63 45.63 0 0 0 4.857 1.765c1.093.331 1.87 1.499 1.718 2.658l-.59 4.509c-.15 1.159.652 2.185 1.794 2.292L78.8 572.7c1.142.108 2.503-.651 3.04-1.694l2.383-4.628c.537-1.042 1.905-1.937 3.052-2.038 2.04-.18 4.07-.456 6.068-.834 1.135-.213 2.819.09 3.768.723l6.245 4.163c.95.633 2.589.784 3.661.338l9.404-3.91c1.072-.447 1.31-1.488.534-2.328l-4.193-4.528c-.778-.839-.622-2.05.293-2.777a26.411 26.411 0 0 0 2.587-2.345c.813-.843 2.33-1.567 3.478-1.534l10.688.31c1.148.034 2.368-.843 2.724-1.959l1.682-5.262c.357-1.115-.271-2.169-1.401-2.352l-10.152-1.644c-1.131-.183-2.144-1.272-2.455-2.387a14.467 14.467 0 0 0-.743-2.039c-.473-1.051-.143-2.271.89-2.806l7.553-3.909c1.034-.535 1.162-1.563.288-2.299l-5.915-4.969c-.875-.735-2.476-1.038-3.577-.676"/><path fill="#E7E8E5" d="M81.93 555.329c-6.923 0-13.66-1.877-17.867-5.412-6.968-5.854-4.354-14.036 5.84-18.275 4.037-1.678 8.66-2.488 13.202-2.488 6.924 0 13.661 1.878 17.869 5.414 6.968 5.853 4.353 14.033-5.84 18.272-4.038 1.68-8.66 2.489-13.204 2.489Zm4.086-43.556c-1.09-.001-2.316.727-2.82 1.703l-2.383 4.629c-.537 1.041-1.905 1.936-3.051 2.037-2.041.182-4.07.458-6.07.835a4.258 4.258 0 0 1-.795.068c-1.03 0-2.227-.293-2.972-.791l-6.245-4.162c-.581-.387-1.422-.595-2.231-.595-.513 0-1.014.083-1.43.256l-9.404 3.911c-1.072.445-1.31 1.488-.533 2.326l4.192 4.53c.777.838.621 2.049-.293 2.777a26.384 26.384 0 0 0-2.588 2.344c-.794.825-2.262 1.535-3.4 1.535h-.077l-10.689-.311-.063-.001c-1.129 0-2.31.865-2.66 1.961l-1.682 5.26c-.356 1.116.271 2.169 1.402 2.352l10.15 1.644c1.13.184 2.144 1.273 2.456 2.387.19.685.439 1.366.743 2.041.474 1.049.142 2.269-.891 2.804l-7.553 3.911c-1.033.534-1.161 1.563-.287 2.298l5.915 4.97c.624.524 1.618.828 2.536.828.369 0 .725-.05 1.04-.152l9.138-3c.44-.146.98-.212 1.536-.212.834 0 1.705.15 2.334.421a46.072 46.072 0 0 0 4.857 1.765c1.093.331 1.87 1.499 1.718 2.658l-.59 4.509c-.15 1.159.652 2.185 1.794 2.292L78.8 572.7l.22.01c1.091 0 2.317-.726 2.82-1.704l2.383-4.628c.537-1.042 1.905-1.937 3.052-2.038 2.04-.18 4.07-.456 6.068-.834.244-.046.514-.067.796-.067 1.029 0 2.227.293 2.972.79l6.245 4.163c.581.388 1.422.595 2.231.595.513 0 1.014-.083 1.43-.257l9.404-3.91c1.072-.447 1.31-1.488.534-2.328l-4.193-4.528c-.778-.839-.622-2.05.293-2.777a26.411 26.411 0 0 0 2.587-2.345c.795-.825 2.263-1.536 3.401-1.536l.077.002 10.688.31.064.002c1.129 0 2.31-.866 2.66-1.962l1.682-5.261c.357-1.116-.271-2.169-1.401-2.352l-10.152-1.644c-1.131-.183-2.144-1.272-2.455-2.387a14.467 14.467 0 0 0-.743-2.039c-.473-1.051-.143-2.271.89-2.806l7.553-3.909c1.034-.535 1.162-1.563.288-2.299l-5.915-4.969c-.624-.524-1.618-.828-2.536-.828-.369 0-.725.049-1.041.152l-9.138 3c-.44.145-.98.212-1.536.212-.834 0-1.704-.151-2.333-.423a46.322 46.322 0 0 0-4.856-1.764c-1.094-.331-1.872-1.499-1.72-2.657l.59-4.511c.152-1.159-.65-2.184-1.792-2.292l-11.682-1.099-.22-.009Zm-4.086 44.7c4.874 0 9.591-.891 13.644-2.576 5.909-2.457 9.679-6.346 10.343-10.669.526-3.429-.968-6.816-4.206-9.538-4.298-3.609-11.079-5.68-18.606-5.68-4.874 0-9.59.891-13.642 2.575-5.91 2.457-9.68 6.347-10.343 10.671-.527 3.429.968 6.816 4.206 9.537 4.298 3.609 11.078 5.68 18.604 5.68m4.086-43.556.113.005 11.682 1.099a.833.833 0 0 1 .582.311c.151.19.216.436.183.693l-.59 4.511c-.222 1.692.886 3.405 2.522 3.901a45.08 45.08 0 0 1 4.735 1.72c.762.328 1.777.516 2.786.516.702 0 1.357-.093 1.893-.269l9.139-3c.19-.063.426-.096.683-.096.677 0 1.401.225 1.8.56l5.915 4.971c.131.109.169.193.173.2-.007.024-.07.112-.251.205l-7.553 3.909c-1.545.799-2.15 2.644-1.408 4.291.277.616.508 1.248.684 1.878.452 1.617 1.871 2.966 3.374 3.21l10.153 1.643c.207.034.364.129.454.277.098.158.112.37.04.597l-1.682 5.261c-.198.62-.931 1.165-1.6 1.165l-10.689-.311-.11-.001c-1.397 0-3.174.793-4.225 1.885a25.55 25.55 0 0 1-2.476 2.244c-.718.571-1.15 1.36-1.216 2.218a2.93 2.93 0 0 0 .796 2.232l4.193 4.527c.125.135.159.243.151.279-.009.041-.094.136-.285.215l-9.404 3.912c-.261.107-.612.167-.99.167-.612 0-1.224-.154-1.596-.402l-6.245-4.163c-.91-.607-2.292-.983-3.607-.983-.36 0-.699.03-1.008.087-1.932.365-3.937.64-5.957.819-1.553.137-3.26 1.278-3.969 2.654l-2.383 4.63c-.303.586-1.127 1.082-1.803 1.082l-.111-.005-11.683-1.098a.845.845 0 0 1-.582-.312.912.912 0 0 1-.183-.693l.59-4.51c.222-1.692-.886-3.406-2.522-3.902a45.337 45.337 0 0 1-4.736-1.719c-.762-.328-1.777-.517-2.786-.517-.702 0-1.356.094-1.893.27l-9.137 3c-.19.062-.427.096-.684.096-.678 0-1.401-.225-1.8-.56l-5.914-4.97c-.132-.11-.17-.194-.174-.201.008-.024.07-.112.25-.205l7.553-3.91c1.545-.8 2.15-2.645 1.408-4.291a13.297 13.297 0 0 1-.684-1.879c-.452-1.616-1.872-2.964-3.375-3.208l-10.15-1.644c-.207-.033-.365-.13-.455-.276-.098-.16-.112-.372-.04-.598l1.681-5.261c.199-.62.932-1.164 1.6-1.164h.001l10.69.311.11.001c1.395 0 3.171-.793 4.224-1.887a25.415 25.415 0 0 1 2.475-2.241c.72-.572 1.15-1.36 1.216-2.22a2.93 2.93 0 0 0-.795-2.231l-4.192-4.529c-.125-.135-.16-.241-.152-.277.01-.042.095-.136.285-.216l9.403-3.91c.261-.109.613-.169.99-.169.612 0 1.224.155 1.597.403l6.245 4.164c.91.605 2.291.981 3.606.981.36 0 .7-.029 1.01-.088a61.908 61.908 0 0 1 5.956-.819c1.554-.137 3.26-1.278 3.969-2.654L84.214 514c.302-.587 1.128-1.083 1.802-1.083"/><path fill="#E2E2E0" d="M129.915 572.68c-.607-.099-.999-.567-1.009-1.144l-.078 6.584.013-.003c.006.564.394 1.04 1.001 1.137l5.557.9 2.901-1.502c.689-.36.913-1.176.596-1.887a9.299 9.299 0 0 1-.504-1.368c-.209-.748-.889-1.481-1.648-1.61l-6.829-1.107Zm57.289 14.198c0 .352-.232.681-.667.859l-6.321 2.627c-.464.195-1.088.219-1.648.093a2.2 2.2 0 0 1-.82-.32l-4.196-2.796c-.641-.425-1.771-.637-2.533-.484a44.806 44.806 0 0 1-4.078.559c-.462.041-.968.267-1.378.589a2.325 2.325 0 0 0-.674.778l-1.608 3.117c-.222.442-.678.806-1.164.999a1.958 1.958 0 0 1-.882.138l-7.854-.741c-.764-.067-1.302-.763-1.205-1.543l.403-3.032c.096-.78-.424-1.564-1.16-1.791a29.567 29.567 0 0 1-3.266-1.182c-.705-.297-1.864-.384-2.604-.14l-.069.027-6.071 1.991c-.449.147-1.016.128-1.532-.015-.332-.094-.65-.245-.878-.442l-3.978-3.341c-.244-.207-.373-.447-.386-.684l-.083 6.537c.016.251.141.499.393.709l3.972 3.35c.41.347 1.063.548 1.666.544l.36-.012.053-.003.332-.072 6.076-2 .068-.026c.74-.243 1.899-.158 2.6.149 1.037.445 2.137.837 3.265 1.181.319.096.598.301.808.565l-.057 4.454c.013.7.516 1.276 1.217 1.34l7.852.74c.287.023.596-.029.883-.139.181-.072.355-.169.517-.284l.24-.192.022-.02.177-.194.167-.234.042-.074 1.603-3.11.173-.263.147-.178a2.29 2.29 0 0 1 .357-.344c.412-.323.916-.548 1.379-.59a42.308 42.308 0 0 0 4.077-.558c.759-.145 1.892.058 2.535.485l4.204 2.8c.215.146.504.236.809.303l-.005.008.211.044c.325.045.656.049.958.004l.208-.044.274-.084 6.326-2.636c.262-.101.44-.263.55-.452a.855.855 0 0 0 .112-.397l.081-6.573m-47.008-22.093.008.005c-.008.237.088.479.297.71l.36.394c.231-.141.439-.295.602-.466a16.824 16.824 0 0 1 1.736-1.58c.624-.487.724-1.309.198-1.864l-2.82-3.047a1.014 1.014 0 0 1-.293-.565l-.088 6.413m58.375 8.835a1.399 1.399 0 0 1-.068.379l-1.128 3.548c-.238.742-1.06 1.334-1.831 1.317l-7.193-.217c-.346-.012-.746.086-1.124.242-.464.194-.907.477-1.218.792a17.665 17.665 0 0 1-1.736 1.582c-.61.482-.718 1.3-.198 1.863l2.46 2.651c.193-.129.4-.23.618-.312l.006-.009c.386-.15.765-.251 1.11-.238l7.198.21c.766.024 1.589-.568 1.83-1.319l1.124-3.54c.047-.137.062-.272.062-.404l.008.006.08-6.551m-43.315-8.197c-5.912 2.455-8.029 6.885-5.497 10.578 1.066-1.55 2.894-2.957 5.416-4.007 6.854-2.849 16.214-1.974 20.897 1.96a9.403 9.403 0 0 1 1.592 1.69c1.839-2.666 1.436-5.768-1.516-8.252-4.683-3.935-14.037-4.817-20.892-1.969Zm39.589-2.398c-.005.305-.205.596-.578.799l-5.082 2.629c-.697.356-.913 1.176-.605 1.883.205.46.369.916.5 1.377.211.748.889 1.481 1.653 1.603l1.272.207 2.18-1.127c.386-.207.575-.515.572-.824l.008.004.08-6.551Z"/><path fill="#C6C7C6" d="M161.289 599.605c-.044 0-.088-.001-.132-.005l-7.852-.74c-.701-.064-1.204-.64-1.217-1.34l.057-4.454a1.656 1.656 0 0 0-.808-.565 31.929 31.929 0 0 1-3.265-1.181c-.424-.185-1.015-.289-1.58-.289-.369 0-.727.044-1.02.14l-.068.026-6.076 2-.332.072-.053.003-.36.012h-.02c-.596 0-1.242-.201-1.646-.544l-3.972-3.35c-.252-.21-.377-.458-.393-.709l.083-6.537c.013.237.142.477.386.684l3.978 3.341c.228.197.546.348.878.442.274.076.562.117.839.117.245 0 .481-.032.693-.102l6.071-1.991.069-.027a3.4 3.4 0 0 1 1.027-.142c.563 0 1.152.103 1.577.282a29.57 29.57 0 0 0 3.266 1.183c.676.208 1.169.886 1.17 1.598 0 .064-.002.128-.01.192l-.403 3.032a1.402 1.402 0 0 0-.012.182c0 .704.513 1.3 1.217 1.361l7.854.741a2.004 2.004 0 0 0 .882-.138c.486-.192.942-.556 1.164-.999l1.608-3.117c.146-.291.387-.559.674-.778.41-.322.916-.548 1.378-.589a44.806 44.806 0 0 0 4.078-.559c.168-.033.353-.049.546-.049.69 0 1.487.201 1.987.533l4.196 2.796a2.2 2.2 0 0 0 .82.32c.228.051.467.078.701.078.34 0 .672-.055.947-.171l6.321-2.627c.427-.176.659-.494.667-.838l-.081 6.552a.855.855 0 0 1-.112.397c-.11.189-.288.351-.55.452l-6.326 2.636-.274.084-.208.044a3.146 3.146 0 0 1-.45.032c-.168 0-.339-.012-.508-.036l-.211-.044.005-.008c-.305-.067-.594-.157-.809-.303l-4.204-2.8c-.504-.334-1.309-.532-1.999-.532-.189 0-.372.015-.536.047a41.996 41.996 0 0 1-4.077.558c-.463.042-.967.267-1.379.59a2.29 2.29 0 0 0-.357.344l-.147.178-.173.263-1.603 3.11-.042.074-.167.234-.177.194-.022.02-.24.192a2.156 2.156 0 0 1-1.268.428m25.915-12.706v-.021.021Zm-.669-1.122-2.46-2.651a1.197 1.197 0 0 1-.332-.827c0-.382.185-.763.53-1.036a17.665 17.665 0 0 0 1.736-1.582c.311-.315.754-.598 1.218-.792.357-.146.733-.242 1.064-.242h.06l7.193.217.032.001c.761 0 1.565-.585 1.799-1.318l1.128-3.548c.042-.13.064-.26.068-.379l-.08 6.551-.008-.006c0 .132-.015.267-.062.404l-1.124 3.54c-.236.736-1.03 1.319-1.784 1.319h-.046l-7.198-.209-.061-.002c-.329 0-.685.097-1.049.239l-.006.009a3.012 3.012 0 0 0-.618.312m-51.136-5.622-5.557-.9c-.607-.098-.995-.574-1.001-1.138l-.013.003.078-6.584c.01.577.402 1.045 1.009 1.144l6.829 1.107c.759.129 1.439.862 1.648 1.61.131.46.295.917.504 1.368.096.215.143.437.141.655a1.367 1.367 0 0 1-.737 1.232l-2.901 1.503m14.36-4.154c-.707-1.032-1.052-2.121-1.052-3.208-.002-2.805 2.289-5.599 6.549-7.37 2.715-1.128 5.82-1.671 8.873-1.671 4.658 0 9.191 1.262 12.019 3.64 1.776 1.495 2.629 3.212 2.627 4.924-.002 1.135-.379 2.265-1.111 3.328a9.367 9.367 0 0 0-1.592-1.689c-2.827-2.375-7.355-3.635-12.009-3.635-3.058 0-6.17.544-8.888 1.674-2.522 1.05-4.35 2.457-5.416 4.007m42.246-4.478-1.272-.207c-.764-.122-1.442-.855-1.653-1.603a10.246 10.246 0 0 0-.5-1.377 1.604 1.604 0 0 1-.137-.644c0-.508.252-.988.742-1.239l5.082-2.629c.373-.203.573-.493.578-.799l-.08 6.551-.008-.004v.006c0 .307-.189.612-.572.818l-2.18 1.127m-51.144-5.628-.36-.395c-.2-.22-.296-.451-.297-.676v-.034l-.008-.005.088-6.413c.028.192.119.387.293.565l2.82 3.047c.228.24.338.53.339.823.001.381-.184.765-.537 1.041a16.824 16.824 0 0 0-1.736 1.58 3.004 3.004 0 0 1-.602.467"/><path fill="#DADBD8" d="m145.48 584.635-6.071 1.991c-.449.147-1.016.129-1.532-.015l-.08 6.549c.259.072.523.115.786.124l.36-.012.053-.003.332-.072 6.076-2 .076-6.562M165.563 588.006a2.331 2.331 0 0 0-.674.777l-1.608 3.117c-.222.443-.678.807-1.164.999l-.077 6.562a2.48 2.48 0 0 0 .517-.283l.24-.193.022-.019.177-.195.167-.233.042-.075 1.603-3.109.173-.263.147-.179c.108-.115.232-.218.356-.322l.001-.022.078-6.562M194.849 563.029c-.005.304-.205.596-.586.794l-5.082 2.629c-.689.36-.913 1.176-.596 1.887.206.46.374.908.499 1.377.211.748.889 1.48 1.653 1.602l1.264.202 2.18-1.127c.387-.205.583-.509.58-.818l.008.003.08-6.549M198.571 573.62a1.399 1.399 0 0 1-.068.379l-1.128 3.548c-.238.742-1.06 1.334-1.831 1.317l-7.193-.216c-.346-.013-.746.085-1.124.241l-.068 6.567c.386-.149.765-.25 1.11-.237l7.198.209c.766.024 1.589-.567 1.83-1.319l1.124-3.54c.047-.137.062-.272.062-.403l.008.005.08-6.551M187.204 586.878c0 .352-.232.681-.667.858l-6.321 2.628c-.464.195-1.088.219-1.647.093l-.085 6.559.209.044c.327.045.658.049.96.005l.208-.045.274-.084 6.326-2.636c.262-.101.44-.263.55-.452a.852.852 0 0 0 .112-.397l.081-6.573"/><path fill="#F3F2F1" d="M176.151 567.392c4.685 3.937 2.926 9.438-3.928 12.288-6.854 2.85-16.21 1.971-20.895-1.966-4.685-3.936-2.927-9.438 3.928-12.289 6.853-2.85 16.209-1.969 20.895 1.967Zm11.922-8.911-6.145 2.018c-.741.242-1.897.162-2.603-.142a30.636 30.636 0 0 0-3.265-1.186c-.736-.223-1.259-1.008-1.156-1.788l.396-3.032c.103-.779-.437-1.47-1.204-1.542l-7.856-.738c-.768-.072-1.684.437-2.044 1.138l-1.604 3.112c-.36.702-1.281 1.303-2.052 1.371a42.097 42.097 0 0 0-4.081.561c-.763.144-1.895-.06-2.534-.485l-4.2-2.8c-.638-.426-1.74-.528-2.461-.228l-6.324 2.629c-.72.3-.881 1.002-.359 1.566l2.82 3.045c.523.565.418 1.379-.197 1.868a17.862 17.862 0 0 0-1.741 1.576c-.546.568-1.566 1.054-2.338 1.032l-7.188-.208c-.771-.023-1.592.566-1.831 1.317l-1.131 3.539c-.24.749.182 1.457.942 1.581l6.827 1.105c.76.123 1.441.857 1.651 1.606.129.46.294.917.5 1.372.317.705.094 1.526-.6 1.885l-5.079 2.63c-.695.359-.781 1.052-.193 1.546l3.977 3.342c.589.494 1.665.697 2.405.454l6.146-2.017c.74-.244 1.897-.163 2.602.141 1.04.447 2.132.843 3.266 1.187.736.223 1.258 1.008 1.156 1.787l-.396 3.033c-.103.779.437 1.469 1.205 1.541l7.856.739c.767.072 1.683-.437 2.044-1.139l1.603-3.112c.36-.701 1.281-1.302 2.052-1.371a42.366 42.366 0 0 0 4.081-.561c.763-.144 1.895.06 2.533.486l4.2 2.8c.639.425 1.74.527 2.462.227l6.324-2.63c.721-.3.881-1 .358-1.565l-2.82-3.045c-.522-.565-.417-1.378.198-1.867a17.722 17.722 0 0 0 1.74-1.578c.546-.567 1.566-1.053 2.338-1.03l7.188.208c.772.022 1.592-.567 1.832-1.318l1.131-3.539c.24-.75-.183-1.458-.943-1.581l-6.826-1.105c-.76-.124-1.442-.856-1.651-1.605a9.644 9.644 0 0 0-.5-1.372c-.317-.707-.096-1.527.599-1.887l5.08-2.628c.694-.36.781-1.052.193-1.547l-3.979-3.341c-.588-.495-1.664-.697-2.404-.455"/><path fill="#E7E8E5" d="M163.344 581.353c-4.656 0-9.187-1.263-12.016-3.639-4.686-3.936-2.927-9.438 3.926-12.289 2.716-1.129 5.824-1.673 8.879-1.673 4.656 0 9.188 1.262 12.017 3.64 4.686 3.936 2.927 9.438-3.928 12.288-2.714 1.129-5.824 1.673-8.878 1.673Zm2.748-29.29c-.734 0-1.559.489-1.896 1.146l-1.603 3.112c-.361.702-1.283 1.303-2.053 1.371a42.034 42.034 0 0 0-4.08.561 2.94 2.94 0 0 1-.536.046c-.692 0-1.498-.198-1.999-.531l-4.2-2.8c-.391-.26-.956-.4-1.5-.4a2.55 2.55 0 0 0-.961.172l-6.324 2.629c-.72.3-.882 1.002-.359 1.566l2.82 3.045c.523.565.417 1.379-.197 1.868a17.994 17.994 0 0 0-1.742 1.576c-.533.554-1.52 1.033-2.285 1.033l-.052-.001-7.188-.208-.043-.001c-.759 0-1.553.582-1.788 1.318l-1.132 3.539c-.239.749.183 1.457.943 1.581l6.827 1.105c.76.123 1.441.857 1.65 1.606.13.46.295.917.5 1.372.319.705.096 1.526-.6 1.885l-5.079 2.63c-.694.359-.78 1.052-.192 1.546l3.977 3.342c.42.352 1.089.557 1.706.557.248 0 .487-.034.699-.103l6.145-2.017a3.406 3.406 0 0 1 1.032-.143c.562 0 1.147.101 1.571.284a31.31 31.31 0 0 0 3.265 1.187c.736.223 1.259 1.008 1.156 1.787l-.396 3.033c-.102.779.438 1.469 1.206 1.541l7.856.739.146.006c.735 0 1.559-.489 1.898-1.145l1.602-3.112c.362-.701 1.282-1.302 2.052-1.371a42.386 42.386 0 0 0 4.082-.561c.164-.03.345-.045.534-.045.692 0 1.498.197 1.999.531l4.2 2.8c.391.26.956.4 1.5.4.345 0 .681-.056.961-.173l6.324-2.63c.722-.3.882-1 .359-1.565l-2.82-3.045c-.523-.565-.417-1.378.197-1.867a17.496 17.496 0 0 0 1.74-1.578c.535-.555 1.523-1.032 2.287-1.032l.052.002 7.188.208.043.001c.758 0 1.553-.583 1.789-1.319l1.131-3.539c.24-.75-.182-1.458-.943-1.581l-6.827-1.105c-.76-.124-1.441-.856-1.65-1.605a9.768 9.768 0 0 0-.5-1.372c-.318-.707-.096-1.527.598-1.887l5.08-2.628c.695-.36.782-1.052.194-1.547l-3.979-3.341c-.419-.353-1.087-.558-1.705-.558-.248 0-.487.034-.699.103l-6.145 2.018c-.296.097-.66.142-1.034.142-.56 0-1.146-.102-1.569-.284a30.636 30.636 0 0 0-3.265-1.186c-.736-.223-1.259-1.008-1.156-1.788l.397-3.032c.101-.779-.439-1.47-1.207-1.542l-7.854-.738-.148-.008Zm-2.748 30.525c3.338 0 6.572-.611 9.353-1.768 4.127-1.716 6.765-4.461 7.236-7.533.38-2.473-.681-4.902-2.989-6.84-2.972-2.498-7.642-3.93-12.811-3.93-3.337 0-6.572.612-9.352 1.768-4.128 1.716-6.765 4.463-7.237 7.535-.379 2.472.682 4.901 2.989 6.84 2.972 2.496 7.641 3.928 12.811 3.928Zm2.748-29.289.032.001 7.856.739.07.036.026.115-.398 3.033a2.908 2.908 0 0 0 2.024 3.129c1.095.332 2.15.716 3.135 1.138.568.246 1.317.386 2.057.386.52 0 1.011-.071 1.419-.204l6.145-2.018c.047-.015.15-.041.314-.041.385 0 .757.138.912.268l3.624 3.045-4.692 2.428c-1.263.654-1.76 2.155-1.158 3.491.178.394.324.796.436 1.197.356 1.274 1.443 2.298 2.643 2.493l6.788 1.1-1.128 3.53c-.072.223-.387.46-.62.46l-7.188-.209-.069-.002h-.019c-1.069 0-2.376.58-3.176 1.411-.485.504-1.031.998-1.619 1.467a2.604 2.604 0 0 0-.992 1.821 2.43 2.43 0 0 0 .658 1.852l2.562 2.768-5.993 2.493a1.301 1.301 0 0 1-.488.078c-.364 0-.672-.098-.816-.193l-4.199-2.799c-.684-.456-1.712-.74-2.684-.74-.27 0-.528.022-.764.068a40.716 40.716 0 0 1-3.96.544c-1.21.106-2.489.963-3.042 2.036l-1.603 3.112c-.123.239-.516.474-.828.474h-.003l-7.856-.738-.07-.036-.026-.116.398-3.033c.177-1.358-.712-2.732-2.023-3.13a29.27 29.27 0 0 1-3.136-1.139c-.568-.243-1.319-.384-2.059-.384-.52 0-1.01.071-1.417.205l-6.145 2.017a.996.996 0 0 1-.314.042c-.385 0-.757-.14-.912-.269l-3.624-3.047 4.692-2.427c1.263-.654 1.76-2.154 1.158-3.491a8.41 8.41 0 0 1-.436-1.197c-.356-1.274-1.443-2.298-2.643-2.491l-6.788-1.101 1.129-3.53c.071-.224.386-.46.619-.46l7.188.209.069.002h.019c1.071 0 2.376-.58 3.175-1.411.488-.506 1.032-1 1.62-1.467a2.602 2.602 0 0 0 .992-1.82 2.434 2.434 0 0 0-.658-1.853l-2.561-2.769 5.993-2.492c.056-.023.215-.078.487-.078.364 0 .672.098.816.194l4.199 2.798c.684.457 1.712.739 2.684.739.27 0 .528-.022.764-.067a40.78 40.78 0 0 1 3.961-.543c1.209-.109 2.489-.964 3.041-2.036l1.603-3.112c.124-.242.519-.476.799-.476"/><path fill="#FAFAF9" d="M494.931 363.499c10.981.876 14.369 7.698 14.79 11.902-2.733.936-5.548 1.548-7.82 1.556-7.592.03-12.797-2.081-14.286-4.826-1.738-3.203-.507-5.758 7.316-8.632"/><path fill="#273E47" d="m134.2 507.976 137.323 79.269c4.457 2.575 9.708 2.63 14.328.269l276.468-159.627c3.037-1.755 7.808-5.708 7.769-10.58-.02-2.628.118-5.316.118-6.654 0-4.424-3.529-10.048-7.885-12.562L425.507 319.1c-4.338-2.504-11.435-2.504-15.774 0L134.2 478.181c-4.356 2.515-7.887 8.139-7.887 12.563 0 .35.066 4.634.066 5.055 0 6.118 3.81 9.862 7.821 12.177Z"/><path fill="#17282F" d="M271.523 587.245 134.2 507.977c-3.556-2.053-7.821-5.36-7.821-12.178 0-1.146-.066-4.243-.066-5.055 0-4.424 3.531-10.048 7.887-12.563l144.797-83.598v194.63a14.576 14.576 0 0 1-7.474-1.968Z"/><path fill="#33535F" d="M274.789 568.451c3.826 2.207 10.084 2.207 13.908 0l273.659-157.995c5.884-3.398 5.883-8.956 0-12.354L425.519 319.1c-4.338-2.504-11.435-2.504-15.774 0L134.212 478.181c-4.337 2.505-4.337 6.603 0 9.107l140.577 81.163Z"/><path fill="#273E47" d="M288.08 552.543c4.139 2.389 10.849 2.389 14.988 0L538.543 416.59c4.138-2.39 4.138-6.264 0-8.654l-128.726-74.31c-4.122-2.38-10.866-2.38-14.989 0L159.353 469.578c-4.121 2.38-4.121 6.274 0 8.654l128.727 74.311Z"/><path fill="#17282F" d="M402.779 331.865c2.562.063 5.093.636 7.038 1.76l128.726 74.311c4.138 2.389 4.138 6.264 0 8.653l-25.516 14.732-110.248-70.401v-29.055ZM491.489 373.178l-22.813-13.17c-1.361-.787-1.429-2.022-.152-2.759 1.276-.736 3.415-.697 4.776.088l22.813 13.172c1.362.787 1.43 2.021.154 2.757-1.278.738-3.416.699-4.778-.088M452.315 350.594c-1.278-.737-1.278-1.932 0-2.669 1.277-.737 3.346-.737 4.624 0 1.276.737 1.276 1.932 0 2.669-1.278.738-3.347.738-4.624 0ZM443.067 345.248c-1.276-.738-1.276-1.932 0-2.67 1.277-.737 3.346-.737 4.624 0 1.276.738 1.277 1.932 0 2.67-1.278.737-3.347.737-4.624 0M517.052 387.966c-1.277-.738-1.277-1.932 0-2.67 1.277-.737 3.347-.737 4.624 0 1.276.738 1.276 1.932 0 2.67-1.277.737-3.347.737-4.624 0ZM507.804 382.619c-1.276-.736-1.276-1.932 0-2.669 1.277-.738 3.348-.738 4.624 0 1.277.737 1.277 1.933 0 2.669-1.276.737-3.347.737-4.624 0Z"/><path fill="#FAFAF9" d="M394.74 339.251c4.121-2.38 10.867-2.38 14.988 0l128.727 74.312c.817.472 1.462 1.004 1.956 1.569-.483.524-1.104 1.016-1.868 1.458L303.068 552.543c-4.139 2.389-10.849 2.389-14.988 0l-128.727-74.311c-.808-.466-1.452-.993-1.942-1.553a7.55 7.55 0 0 1 1.854-1.475L394.74 339.251Z"/><path fill="#33535F" d="M390.993 354.704a1.121 1.121 0 0 1-.242-.547l-.384-3.092c-.052-.415.216-.707.634-.689l5.355.222c.473.02.968.422 1.105.902.138.478-.133.85-.605.83l-4.632-.192.296 2.374c.057.469-.291.769-.779.672a1.327 1.327 0 0 1-.748-.48M500.154 414.119c-.757.437-2.081.382-2.956-.123-.874-.505-.969-1.269-.212-1.707.758-.437 2.082-.382 2.957.123.873.505.969 1.269.211 1.707ZM506.836 417.976c-.757.438-2.081.383-2.955-.122-.874-.506-.97-1.27-.213-1.707.757-.437 2.081-.381 2.956.123.875.505.969 1.269.212 1.706M513.517 421.833c-.757.437-2.08.383-2.954-.123-.875-.504-.971-1.268-.212-1.705.757-.437 2.08-.383 2.954.123.875.504.97 1.268.212 1.705Z"/><path fill="#33BFBF" d="M451.084 393.235c-1.059-1.347-2.574-2.608-4.466-3.702-7.722-4.457-19.457-4.937-26.16-1.068-3.473 2.006-5.037 4.887-4.29 7.906.612 2.465 2.755 4.87 6.036 6.765 7.721 4.457 19.456 4.937 26.158 1.068 3.474-2.005 5.038-4.887 4.291-7.905-.259-1.044-.792-2.078-1.569-3.064Zm-33.907 6.521c-.869-1.104-1.467-2.267-1.759-3.448-.814-3.293.827-6.4 4.506-8.523 6.877-3.972 18.949-3.465 26.909 1.131 3.558 2.053 5.891 4.697 6.57 7.445.814 3.294-.827 6.4-4.504 8.524-6.879 3.971-18.951 3.464-26.91-1.132-2.028-1.17-3.658-2.533-4.812-3.997"/><path fill="#33BFBF" d="M416.08 395.935c.459 2.632 2.623 5.181 6.124 7.201 3.649 2.107 8.32 3.397 13.163 3.641l.246-.184c1.42-1.056 1.98-2.408 1.575-3.808-.352-1.218-1.451-2.412-3.089-3.358l-4.615-2.666c-3.801-2.193-9.459-2.596-13.16-.937l-.244.111Zm1.096 3.829c-1.045-1.328-1.692-2.739-1.895-4.177-.017-.127.035-.234.138-.279l.414-.185c3.88-1.742 9.842-1.302 13.864 1.021l4.616 2.665c1.902 1.098 3.186 2.522 3.616 4.004.482 1.668-.134 3.24-1.736 4.431l-.321.239-.184.05c-5.019-.234-9.884-1.577-13.699-3.78-2.041-1.177-3.666-2.533-4.813-3.989M445.232 392.766c-.408-.517-.995-1.005-1.733-1.432-3.102-1.79-7.82-1.978-10.519-.42-1.365.788-1.985 1.904-1.699 3.063.231.932 1.055 1.847 2.32 2.577 3.102 1.79 7.819 1.979 10.519.42 1.367-.789 1.985-1.905 1.699-3.062a3.062 3.062 0 0 0-.587-1.146Zm-13.921 2.678c-.384-.488-.65-1.004-.779-1.53-.355-1.432.343-2.774 1.912-3.681 2.876-1.66 7.932-1.444 11.269.484 1.544.889 2.555 2.045 2.856 3.256.354 1.433-.342 2.776-1.913 3.681-2.876 1.662-7.932 1.446-11.268-.481-.873-.504-1.577-1.093-2.077-1.729"/><path fill="#33535F" d="M401.196 396.469c.56.324.989.647 1.287.97.296.322.488.621.577.898.089.279.088.527 0 .748a1.124 1.124 0 0 1-.425.528.452.452 0 0 1-.307.067.767.767 0 0 1-.325-.092l-.88-.508c-.143-.084-.226-.159-.25-.227l-.004-.222c.055-.178.023-.378-.098-.603-.123-.227-.434-.483-.936-.773a4.974 4.974 0 0 0-.683-.326 4.02 4.02 0 0 0-.689-.196 2.554 2.554 0 0 0-.623-.04 1.164 1.164 0 0 0-.496.142c-.167.097-.263.197-.288.304-.025.108.017.236.129.389.112.153.291.339.536.555.246.217.554.482.928.798.407.346.731.66.97.944.236.283.381.543.433.779a.858.858 0 0 1-.099.652c-.12.2-.328.385-.624.556a3.209 3.209 0 0 1-1.161.38 5.379 5.379 0 0 1-1.435.001 8.126 8.126 0 0 1-1.617-.386 9.684 9.684 0 0 1-1.693-.778c-.47-.27-.87-.557-1.199-.861-.328-.303-.565-.604-.712-.901-.147-.299-.189-.58-.128-.847.06-.267.236-.5.531-.699a.455.455 0 0 1 .305-.069.756.756 0 0 1 .328.096l.879.507c.141.081.23.157.26.226l-.006.222-.07.288a.575.575 0 0 0 .089.338c.071.126.189.263.356.414.167.15.407.316.727.501.252.145.509.276.777.392.267.117.528.204.78.263.252.056.488.084.709.081.222 0 .416-.051.583-.147.159-.092.232-.201.216-.328-.016-.125-.107-.278-.273-.458a7.805 7.805 0 0 0-.679-.632c-.287-.24-.611-.523-.969-.848a5.968 5.968 0 0 1-.788-.814c-.195-.249-.31-.485-.339-.702a.854.854 0 0 1 .155-.623c.136-.193.366-.384.693-.572a3.157 3.157 0 0 1 1.155-.377 5.62 5.62 0 0 1 1.398-.01c.488.056.992.168 1.511.339.52.171 1.015.391 1.484.661M400.409 404.597a.552.552 0 0 1-.306.063.708.708 0 0 1-.327-.088l-.955-.551-.152-.188.106-.178 5.07-2.928a.558.558 0 0 1 .31-.06.687.687 0 0 1 .325.086l.955.552.152.188-.107.178-5.071 2.926Zm7.156-4.45.152.189-.106.176-.85.491a.57.57 0 0 1-.306.061.694.694 0 0 1-.326-.087l-1.08-.624-.152-.188.106-.178.849-.491a.572.572 0 0 1 .308-.06.703.703 0 0 1 .325.088l1.08.623M406.328 404.736a3.32 3.32 0 0 0-.609.352c-.422.301-.594.595-.515.877.077.284.321.543.732.782.411.237.861.376 1.352.416.491.04.955-.042 1.388-.243.125-.052.269-.128.437-.224.167-.097.299-.18.39-.253.334-.242.47-.508.408-.795-.063-.288-.299-.549-.71-.787a3.248 3.248 0 0 0-1.353-.422c-.492-.044-.999.054-1.52.297Zm-2.715 3.308c.176.103.379.191.611.271.232.08.472.132.725.161.254.029.506.025.759-.008.251-.036.483-.113.692-.235l.404-.233a4.742 4.742 0 0 1-1.083-.135 5.884 5.884 0 0 1-.706-.218 5.031 5.031 0 0 1-.76-.364c-.419-.242-.728-.503-.927-.779-.199-.279-.299-.555-.3-.828-.004-.275.08-.54.251-.797.169-.259.412-.488.729-.691a7.68 7.68 0 0 1 .763-.44c.35-.183.749-.324 1.196-.421a6.281 6.281 0 0 1 2.814.029c.48.113.931.292 1.35.535.258.148.469.297.63.438.163.144.29.28.379.408.088.126.151.244.183.35l.052.274.249-.144a.567.567 0 0 1 .308-.061.712.712 0 0 1 .327.088l.954.552.152.188-.108.177-5.102 2.947a4.89 4.89 0 0 1-2.834.657c-1.013-.07-2.017-.392-3.014-.966a4.989 4.989 0 0 1-1.04-.771c-.266-.267-.452-.525-.558-.775-.104-.248-.133-.478-.086-.69a.843.843 0 0 1 .374-.52.449.449 0 0 1 .302-.064.697.697 0 0 1 .33.092l.856.493.198.233.025.234c-.016.133.029.277.14.432.108.156.363.349.765.581M416.055 413.631a.58.58 0 0 1-.308.062.718.718 0 0 1-.326-.088l-.956-.553-.15-.187.105-.178 2.764-1.595c.436-.252.667-.52.693-.807.028-.286-.204-.569-.689-.85a2.795 2.795 0 0 0-1.44-.379 2.837 2.837 0 0 0-1.429.381l-2.764 1.596a.565.565 0 0 1-.307.062.682.682 0 0 1-.325-.088l-.956-.551-.152-.188.106-.179 5.071-2.928a.578.578 0 0 1 .308-.06.679.679 0 0 1 .325.088l.956.551.152.188-.108.177-.249.144c.407.018.817.075 1.236.174a4.48 4.48 0 0 1 1.227.496c.51.294.869.581 1.074.858.206.279.298.544.275.8-.024.254-.145.496-.365.724-.22.23-.5.443-.842.639l-2.926 1.691M422.223 417.192a.562.562 0 0 1-.307.063.712.712 0 0 1-.325-.088l-.955-.552-.152-.188.107-.176 5.07-2.928a.564.564 0 0 1 .307-.063.736.736 0 0 1 .327.088l.954.552.152.188-.108.176-5.07 2.928Zm7.157-4.45.151.188-.106.178-.848.491a.558.558 0 0 1-.309.06.677.677 0 0 1-.325-.088l-1.08-.623-.152-.188.108-.177.848-.491a.574.574 0 0 1 .308-.061.698.698 0 0 1 .325.087l1.08.624ZM430.091 421.735a.58.58 0 0 1-.308.061.692.692 0 0 1-.326-.088l-.954-.551-.152-.188.105-.178 2.764-1.596c.436-.251.667-.519.693-.806.028-.286-.204-.57-.688-.849a2.803 2.803 0 0 0-1.441-.381c-.517.004-.993.13-1.429.381l-2.764 1.596a.556.556 0 0 1-.307.063.705.705 0 0 1-.325-.088l-.956-.551-.152-.188.108-.177 5.07-2.928a.565.565 0 0 1 .307-.062.707.707 0 0 1 .325.087l.956.552.152.188-.108.177-.249.144a6.76 6.76 0 0 1 1.236.174c.416.097.825.264 1.227.494.51.295.869.583 1.076.862.204.277.296.542.273.798-.023.255-.145.496-.364.726-.22.228-.501.44-.843.637l-2.926 1.691M341.635 391.919l.096.12-.069.11-.247.144-.194.039-.206-.055-3.216-1.857-.098-.119.068-.113 4.453-2.572.195-.037.207.054 3.152 1.82.096.12-.065.112-.249.143-.196.039-.206-.056-2.611-1.506-1.455.84 2.436 1.406.096.12-.068.11-.247.144-.195.04-.205-.056-2.436-1.406-1.511.872 2.675 1.544M344.012 391.962l-.095-.119.067-.112.22-.128.196-.039.204.055 2.351 1.357.096.119-.068.112-.22.127-.195.04-.207-.055-2.349-1.357M349.853 393.703a4.6 4.6 0 0 1 .336-.003 2.503 2.503 0 0 1 .768.147c.139.046.283.114.432.201.323.185.539.369.648.553a.59.59 0 0 1 .056.546c.154-.007.304-.01.455-.008a2.786 2.786 0 0 1 .941.173c.162.059.328.136.502.237.538.311.789.618.754.918-.033.302-.29.592-.774.87l-1.91 1.103-.194.039-.207-.056-.295-.17-.097-.12.068-.11 1.841-1.063c.355-.205.535-.403.543-.592.009-.188-.141-.372-.448-.549a1.899 1.899 0 0 0-.923-.254c-.332-.008-.668.088-1.002.282l-1.89 1.09-.194.039-.207-.056-.295-.171-.096-.12.067-.11 1.841-1.063c.355-.204.535-.401.543-.591.009-.188-.141-.372-.448-.549a1.886 1.886 0 0 0-.923-.255 1.914 1.914 0 0 0-1.001.282l-1.889 1.09-.196.039-.207-.056-.295-.169-.096-.12.068-.111 3.214-1.856.193-.04.207.056.294.171.096.12-.066.112-.214.124M354.723 399.587a2.837 2.837 0 0 0 1.22.374c.205.014.401.004.585-.033.187-.036.353-.099.505-.187l.172-.098-1.069-.467a4.777 4.777 0 0 0-1.017-.333c-.298-.054-.528-.036-.688.057l-.111.111-.019.157.116.195c.067.069.167.144.306.224Zm-1.084-1.064c.184-.107.385-.175.608-.206.224-.03.457-.03.701-.002.247.03.497.085.757.168.258.078.515.174.77.284l1.282.557.09-.052c.234-.135.321-.289.261-.457-.061-.171-.224-.334-.491-.487a1.772 1.772 0 0 0-.637-.241 3.048 3.048 0 0 0-.569-.026l-.18-.016-.172-.076-.239-.138-.1-.122.071-.11c.112-.051.261-.084.448-.099.19-.013.396-.003.62.032.222.033.45.087.689.163.235.074.457.172.663.29.238.138.43.284.576.436.144.154.232.304.264.456a.61.61 0 0 1-.086.444c-.088.144-.242.282-.462.41l-2.104 1.213-.194.04-.208-.057-.293-.168-.097-.12.068-.114.282-.162a1.658 1.658 0 0 1-.453.005 3.317 3.317 0 0 1-.516-.103 4.072 4.072 0 0 1-.509-.176 3.693 3.693 0 0 1-.43-.208 2.066 2.066 0 0 1-.493-.372.955.955 0 0 1-.235-.37l.03-.338a.685.685 0 0 1 .288-.278M358.287 402.034l-.196.038-.207-.055-.295-.171-.094-.117.066-.113 3.214-1.856.194-.038.206.055.294.169.096.12-.066.114-3.212 1.854Zm4.209-2.34-.193.04-.21-.057-.452-.261-.097-.119.069-.112.392-.227.195-.04.207.056.452.262.097.121-.068.111-.392.226ZM360.204 403.143l-.195.037-.206-.056-.295-.169-.095-.119.067-.113 4.524-2.611.195-.038.205.054.295.171.096.119-.067.113-4.524 2.612"/><path fill="#DADBD8" d="M332.992 399.748c.102-.005.214-.005.336-.001a2.407 2.407 0 0 1 .768.145c.138.049.282.115.432.201.324.187.54.371.648.554a.594.594 0 0 1 .057.546c.152-.008.303-.012.453-.009a2.919 2.919 0 0 1 1.446.412c.535.309.785.616.752.916-.035.303-.292.592-.775.871l-1.909 1.102-.195.039-.208-.056-.292-.168-.097-.12.067-.112 1.841-1.064c.353-.204.536-.4.544-.589.008-.19-.141-.372-.448-.55a1.878 1.878 0 0 0-.923-.253 1.918 1.918 0 0 0-1.004.28l-1.889 1.091-.195.037-.205-.053-.295-.171-.096-.119.066-.113 1.841-1.063c.355-.204.536-.4.544-.589.008-.189-.141-.372-.448-.549a1.887 1.887 0 0 0-.923-.255c-.333-.007-.668.087-1.004.28l-1.889 1.091-.195.038-.205-.054-.295-.17-.096-.12.067-.112 3.212-1.856.195-.037.206.056.296.169.095.119-.067.112-.213.124M336.099 406.541l-.191.018-.207-.056-.326-.188-.087-.106.063-.101.054-.023 2.206-.39 1.45-2.658.04-.032.175-.036.183.051.326.188.096.119-.03.11-1.119 2.062 3.587-.638.19-.016.206.054.326.19.087.106-.061.098-.056.024-6.912 1.224M344.323 409.753l-.194.04-.206-.056-.295-.17-.096-.12.068-.111 1.82-1.051c.353-.204.519-.414.499-.628-.023-.214-.21-.424-.559-.625a2.321 2.321 0 0 0-1.069-.315 1.977 1.977 0 0 0-1.1.28l-1.822 1.052-.194.038-.207-.056-.295-.17-.094-.118.066-.112 3.214-1.855.194-.039.206.054.294.17.096.12-.065.112-.215.124c.215-.009.474.016.77.074.298.057.609.18.933.366.251.144.445.3.587.463.14.164.22.327.241.491a.7.7 0 0 1-.132.484c-.108.161-.283.309-.521.448l-1.924 1.11M346.987 410.901a2.897 2.897 0 0 0 1.22.374c.204.014.4.004.585-.034.185-.034.353-.098.504-.185l.173-.1-1.07-.465a4.756 4.756 0 0 0-1.018-.334c-.296-.054-.528-.036-.688.056l-.109.112-.019.158.116.193c.066.071.167.144.306.225Zm-1.084-1.065c.182-.105.385-.175.608-.205a2.66 2.66 0 0 1 .702 0c.244.029.496.085.755.165s.516.175.772.287l1.281.555.088-.051c.235-.136.324-.288.262-.459-.06-.171-.223-.331-.49-.487a1.804 1.804 0 0 0-.638-.24 2.89 2.89 0 0 0-.57-.026l-.178-.016-.172-.076-.239-.138-.1-.12.071-.11a1.29 1.29 0 0 1 .449-.099 2.69 2.69 0 0 1 .617.029c.224.034.454.088.69.163.236.076.457.173.664.291.24.14.43.285.576.437a.952.952 0 0 1 .262.455.605.605 0 0 1-.084.444c-.086.146-.242.282-.464.409l-2.102 1.215-.194.04-.208-.056-.293-.171-.097-.119.068-.113.281-.163a1.578 1.578 0 0 1-.453.006 3.891 3.891 0 0 1-1.024-.278 3.736 3.736 0 0 1-.428-.208 2.136 2.136 0 0 1-.495-.373.915.915 0 0 1-.233-.369l.026-.339a.69.69 0 0 1 .29-.28M353.549 411.616c.103-.004.215-.004.336-.001.122.004.244.016.371.04.125.023.257.057.397.105.14.05.283.116.432.202.324.188.54.372.648.554.11.182.128.364.058.547a7.63 7.63 0 0 1 .453-.011 2.932 2.932 0 0 1 1.444.414c.537.309.788.614.752.916-.032.301-.291.592-.773.87l-1.91 1.103-.194.039-.207-.056-.296-.171-.095-.117.067-.114 1.841-1.062c.355-.204.535-.402.544-.59.008-.189-.141-.372-.449-.55a1.876 1.876 0 0 0-.921-.254 1.932 1.932 0 0 0-1.004.28l-1.89 1.091-.194.039-.207-.055-.295-.171-.094-.118.065-.112 1.841-1.063c.355-.205.535-.403.544-.589.008-.191-.141-.372-.449-.552a1.879 1.879 0 0 0-.921-.252 1.903 1.903 0 0 0-1.003.28l-1.891 1.09-.194.039-.207-.056-.295-.171-.094-.117.065-.112 3.215-1.856.194-.039.206.055.294.171.096.118-.066.114-.214.122M359.359 416.205l2.237 1.291.02-.012c.281-.161.403-.349.367-.564-.038-.216-.226-.421-.564-.616a2.183 2.183 0 0 0-.498-.212 2.611 2.611 0 0 0-.534-.095 2.193 2.193 0 0 0-.532.032 1.637 1.637 0 0 0-.475.164l-.021.012Zm-.687-.421c.232-.109.488-.191.767-.241.28-.051.565-.072.857-.063a3.705 3.705 0 0 1 1.716.481c.287.166.501.336.648.514.143.176.22.353.228.534a.817.817 0 0 1-.185.528c-.131.175-.331.338-.598.492l-.186.107-.194.04-.206-.055-2.739-1.581-.041.024c-.303.185-.432.388-.391.607.041.217.22.417.533.597.291.168.547.275.763.317.217.043.415.066.593.068l.187.02.165.072.238.136.104.124-.076.108a1.54 1.54 0 0 1-.407.08 2.755 2.755 0 0 1-.599-.028 4.282 4.282 0 0 1-1.561-.554c-.265-.154-.464-.315-.595-.484a.97.97 0 0 1-.224-.511.83.83 0 0 1 .119-.504c.095-.165.245-.32.449-.461.184-.138.396-.26.635-.367ZM365.009 419.737l-.258.189-.154.227.012.241c.035.082.119.16.252.236.276.16.538.224.79.195.249-.032.505-.123.768-.273.128-.075.233-.15.316-.222l.153-.22-.044-.229a.806.806 0 0 0-.28-.233 1.113 1.113 0 0 0-.409-.146 1.729 1.729 0 0 0-.815.084 2.13 2.13 0 0 0-.331.151Zm3.394 2.352a2.152 2.152 0 0 1-1.131.225 2.404 2.404 0 0 1-1.029-.321c-.24-.137-.404-.271-.492-.399-.092-.129-.135-.237-.131-.325l-.269.004-.302-.031a2.478 2.478 0 0 1-.37-.11 3.286 3.286 0 0 1-.464-.23c-.218-.125-.37-.256-.459-.39a.56.56 0 0 1-.1-.408.796.796 0 0 1 .208-.396c.117-.128.272-.248.464-.359.193-.112.403-.201.627-.271a2.87 2.87 0 0 1 .685-.12c.232-.012.468.008.705.059.238.049.466.136.683.261.223.128.361.248.415.358l.082.277.062-.036.194-.04.207.055.255.148.097.12-.068.112-1.465.846c-.147.086-.224.175-.23.274-.005.097.07.19.224.278l.279.111.264.017.24-.04.187-.076c.06-.028.172-.088.337-.176.163-.089.329-.193.495-.314.494-.358.677-.727.554-1.107-.122-.377-.534-.769-1.236-1.175a4.897 4.897 0 0 0-.873-.388 4.539 4.539 0 0 0-.973-.21 4.222 4.222 0 0 0-.998.014 3.47 3.47 0 0 0-.958.279l-.254.129-.32.175-.31.184-.23.153c-.237.176-.396.359-.472.55a.85.85 0 0 0-.021.573c.061.192.183.379.365.561.184.184.408.351.672.504.218.126.414.228.587.311.172.08.335.147.488.2.152.053.301.095.445.124.144.029.295.055.452.075l.215.036.168.064.351.202.102.12-.08.116-.16.028a7.302 7.302 0 0 1-.665-.061 6.502 6.502 0 0 1-1.555-.445 8.056 8.056 0 0 1-.9-.452 4.028 4.028 0 0 1-.893-.678c-.233-.244-.391-.496-.467-.752a1.111 1.111 0 0 1 .034-.754c.1-.248.305-.479.618-.696l.247-.156.333-.198.338-.19.261-.136c.36-.18.759-.298 1.191-.358.433-.06.87-.07 1.312-.025a6.31 6.31 0 0 1 1.31.267c.434.136.832.308 1.191.516.447.257.801.518 1.061.78.263.262.432.52.508.773a.97.97 0 0 1-.069.74c-.123.239-.343.465-.661.679l-.27.17-.268.155-.229.123-.141.077M370.585 422.687l2.237 1.29.02-.012c.28-.161.403-.349.367-.564-.037-.216-.225-.421-.564-.616a2.461 2.461 0 0 0-1.032-.305 2.19 2.19 0 0 0-.532.031 1.689 1.689 0 0 0-.475.164l-.021.012Zm-.688-.42c.233-.111.489-.192.768-.242a3.846 3.846 0 0 1 1.736.07c.292.077.571.194.837.348.287.165.502.336.647.513.144.176.221.355.229.535a.816.816 0 0 1-.186.529c-.13.173-.33.336-.596.491l-.187.108-.193.038-.207-.054-2.739-1.582-.041.024c-.303.187-.433.388-.391.607.042.217.22.417.534.597.29.168.545.275.764.318.216.042.413.065.59.068l.188.02.166.072.237.136.104.124-.074.109a1.615 1.615 0 0 1-.407.079 2.82 2.82 0 0 1-.6-.028 4.364 4.364 0 0 1-1.562-.555c-.265-.153-.464-.315-.594-.483a.973.973 0 0 1-.224-.512.848.848 0 0 1 .118-.504c.096-.165.246-.318.45-.461a3.29 3.29 0 0 1 .633-.365M376.296 424.749c.103-.005.215-.004.336-.001a2.617 2.617 0 0 1 .768.145c.139.048.283.115.432.202.324.186.54.37.648.553a.597.597 0 0 1 .057.547c.152-.008.302-.011.455-.008a2.836 2.836 0 0 1 .94.172c.16.058.329.138.503.238.536.31.786.615.753.918-.035.3-.292.59-.775.869l-1.909 1.103-.196.038-.207-.056-.293-.168-.096-.12.067-.112 1.84-1.062c.354-.206.536-.402.544-.591.009-.189-.14-.372-.448-.549a1.893 1.893 0 0 0-.922-.254 1.927 1.927 0 0 0-1.004.28l-1.889 1.091-.196.039-.205-.055-.295-.171-.096-.118.067-.114 1.841-1.062c.355-.204.536-.4.543-.59.009-.189-.14-.372-.448-.549a1.878 1.878 0 0 0-.922-.255 1.927 1.927 0 0 0-1.004.28l-1.889 1.091-.195.039-.205-.054-.295-.17-.097-.12.067-.112 3.213-1.856.195-.038.206.055.296.171.095.118-.068.112-.212.124M381.167 430.635a2.874 2.874 0 0 0 1.22.375c.204.013.4.004.585-.034.185-.036.353-.098.505-.186l.172-.099-1.069-.467a4.871 4.871 0 0 0-1.017-.333c-.298-.053-.53-.036-.69.057l-.11.112-.018.156.116.195c.067.069.166.144.306.224Zm-1.086-1.064c.184-.105.387-.175.61-.205a2.66 2.66 0 0 1 .702 0c.244.028.496.084.756.165.258.079.515.175.771.285l1.28.556.091-.052c.234-.136.321-.286.26-.457-.06-.172-.223-.332-.49-.487a1.815 1.815 0 0 0-.638-.241 2.953 2.953 0 0 0-.568-.025l-.182-.016-.17-.076-.239-.139-.101-.121.072-.111c.112-.051.261-.084.449-.097.188-.015.395-.004.617.03.224.034.454.088.69.163.236.075.457.172.664.291.24.14.43.284.576.437a.973.973 0 0 1 .264.453c.03.151.001.3-.086.446-.089.144-.244.281-.464.409l-2.102 1.215-.194.038-.208-.057-.293-.168-.097-.12.068-.113.282-.163a1.582 1.582 0 0 1-.453.005 3.432 3.432 0 0 1-.516-.102 4.352 4.352 0 0 1-.509-.174 3.682 3.682 0 0 1-.43-.21 2.135 2.135 0 0 1-.493-.372.906.906 0 0 1-.233-.368l.026-.34a.705.705 0 0 1 .288-.279M384.729 433.082l-.195.039-.206-.056-.295-.171-.095-.117.067-.113 3.213-1.855.195-.039.205.054.295.17.096.12-.067.112-3.213 1.856Zm4.211-2.34-.195.04-.208-.057-.452-.261-.097-.119.068-.112.393-.227.193-.04.207.056.453.262.098.121-.068.111-.392.226ZM386.648 434.189l-.195.039-.206-.056-.295-.169-.095-.119.067-.112 4.523-2.612.196-.039.205.055.295.169.096.12-.067.114-4.524 2.61M389.143 434.881l.097.122-.068.11-.461.267-.195.04-.208-.057-.532-.307-.096-.12.067-.112.461-.267.196-.038.205.056.534.306ZM391.644 435.497c-.163.119-.272.236-.329.352l-.055.334.164.306c.089.098.199.183.331.259.256.148.513.248.777.305.264.056.541.059.837.006l.263-.02.185.064.239.137.1.121-.071.111c-.116.06-.277.108-.486.137a2.979 2.979 0 0 1-.708.014 4.642 4.642 0 0 1-.843-.156 3.82 3.82 0 0 1-.885-.376c-.292-.17-.51-.342-.652-.52-.144-.179-.223-.354-.236-.527a.803.803 0 0 1 .136-.503c.106-.161.264-.308.476-.441l.258-.164.294-.155c.24-.116.501-.204.781-.265a3.789 3.789 0 0 1 2.667.424c.29.168.508.34.65.512.142.172.232.336.271.487a.615.615 0 0 1-.261.689l-.191.041-.211-.057-.238-.139-.11-.106.034-.152a.444.444 0 0 0-.01-.483c-.097-.153-.273-.301-.528-.449a2.357 2.357 0 0 0-.453-.194 2.36 2.36 0 0 0-.532-.096 2.546 2.546 0 0 0-.58.031 2.152 2.152 0 0 0-.601.195 3.39 3.39 0 0 0-.483.278M398.339 439.419l.302-.156.276-.179a1.09 1.09 0 0 0 .284-.283l.087-.308-.143-.321a1.492 1.492 0 0 0-.41-.324 2.302 2.302 0 0 0-1.651-.268 2.625 2.625 0 0 0-.492.161l-.307.162-.272.173a1.136 1.136 0 0 0-.28.284l-.089.308.144.32c.088.109.224.217.408.325a2.371 2.371 0 0 0 1.12.32 2.14 2.14 0 0 0 .533-.052c.174-.037.336-.09.49-.162Zm.989-1.914c.287.166.503.335.652.508.145.172.232.343.257.511a.734.734 0 0 1-.106.5c-.099.163-.25.317-.454.459l-.141.09-.177.103-.18.104-.15.077a3.737 3.737 0 0 1-.801.262c-.28.056-.567.077-.859.061a3.908 3.908 0 0 1-1.765-.525c-.287-.166-.504-.335-.651-.507a1.041 1.041 0 0 1-.258-.512.737.737 0 0 1 .105-.497c.095-.163.247-.315.456-.46l.129-.09.176-.105.182-.101.161-.079a3.52 3.52 0 0 1 1.659-.324c.293.016.588.065.886.149.299.084.592.211.879.376M402.481 439.868c.103-.004.215-.004.338 0a2.39 2.39 0 0 1 .766.144c.14.048.283.115.434.201.322.187.538.371.646.554a.59.59 0 0 1 .059.546c.152-.008.301-.01.455-.008a2.87 2.87 0 0 1 1.442.411c.536.309.787.616.754.917-.035.302-.294.592-.775.87l-1.911 1.104-.194.037-.207-.055-.293-.169-.096-.12.066-.113 1.842-1.063c.353-.204.534-.4.544-.589.008-.19-.143-.372-.45-.55a1.9 1.9 0 0 0-.922-.253c-.334-.007-.668.087-1.004.28l-1.89 1.091-.194.038-.206-.054-.294-.171-.096-.119.066-.113 1.842-1.063c.353-.204.534-.4.544-.589.008-.189-.142-.372-.45-.549a1.877 1.877 0 0 0-.922-.254 1.923 1.923 0 0 0-1.004.28l-1.89 1.091-.194.037-.206-.053-.294-.171-.096-.12.066-.112 3.214-1.854.194-.039.207.056.295.169.094.119-.065.112-.215.124M344.52 381.976l-.092-.374c.059-.171.272-.215.477-.095l114.762 66.257c.205.119.322.352.262.523-.058.171-.272.213-.477.095l-114.761-66.258-.171-.148M308.519 477.21l-.092-.374c.058-.171.272-.214.477-.095l50.287 29.034c.205.118.324.353.262.522-.058.171-.272.213-.477.095l-50.287-29.034-.17-.148M244.044 439.987l-.092-.375c.059-.171.272-.213.477-.095l50.287 29.032c.205.119.324.354.264.523-.06.171-.273.215-.479.095l-50.286-29.032-.171-.148M302.429 472.267c.281-.186.403-.386.363-.598-.042-.216-.23-.418-.568-.614a2.377 2.377 0 0 0-1.063-.328 1.961 1.961 0 0 0-1.036.209 12.08 12.08 0 0 0-1.06.612c-.283.185-.404.384-.361.597.042.212.233.418.57.612.339.196.691.304 1.062.331.366.023.712-.047 1.033-.209a13.128 13.128 0 0 0 1.06-.612Zm-3.252-1.914a3.573 3.573 0 0 1 1.753-.376c.327.014.666.067 1.016.167.352.099.704.251 1.063.457.353.204.616.407.788.608.175.202.271.398.288.586.02.19-.027.37-.14.542a1.684 1.684 0 0 1-.507.476l-.252.158-.294.174-.302.171-.276.147a3.557 3.557 0 0 1-1.75.376 4.353 4.353 0 0 1-1.018-.171 4.683 4.683 0 0 1-1.056-.457c-.358-.208-.622-.411-.796-.612-.173-.203-.27-.396-.29-.586a.756.756 0 0 1 .145-.538c.116-.171.284-.33.505-.472l.252-.16.296-.174.3-.17.275-.146M305.845 474.485c-.288-.166-.553-.256-.792-.264a1.336 1.336 0 0 0-.734.202l-1.632.942-.178.035-.188-.049-.549-.319-.089-.109.061-.103 2.925-1.688.178-.036.188.052.55.317.087.108-.06.103-.145.084c.226.015.437.047.634.099.198.049.411.141.643.276l.327.188.088.109-.06.103-.416.24-.176.034-.19-.052-.472-.272"/><path fill="#DADBD8" d="m423.02 461.348.007.009-.007-.009Zm14.688-6.74c-.279-.352-.673-.631-1.011-.827L335.48 395.345c-1.936-1.118-4.893-1.233-6.589-.253l-7.24 4.18c-.819.472-1.195 1.123-1.031 1.781.161.656.811 1.15 1.327 1.447l101.216 58.436c1.937 1.119 4.894 1.232 6.59.253l7.239-4.178c.819-.474 1.195-1.124 1.032-1.784a1.648 1.648 0 0 0-.316-.619Zm-117.516-52.511a2.99 2.99 0 0 1-.572-1.125c-.255-1.027.227-1.977 1.317-2.607l7.24-4.18c1.966-1.134 5.298-.988 7.59.335l101.216 58.437c1.097.634 1.822 1.47 2.04 2.352.254 1.027-.226 1.978-1.318 2.607l-7.238 4.18c-1.964 1.135-5.299.988-7.59-.336l-101.216-58.437c-.614-.355-1.112-.772-1.469-1.226"/><path fill="#33535F" d="m312.429 405.692 1.426.823c.381.22.748.349 1.1.388.354.04.676-.026.97-.196.294-.17.404-.352.326-.552-.075-.199-.304-.407-.686-.628l-1.425-.822-1.711.987Zm3.796-.5c.259.149.476.309.65.475.173.166.288.336.342.505a.631.631 0 0 1-.036.503c-.08.166-.246.322-.5.469a2.416 2.416 0 0 1-.814.289c-.288.05-.583.059-.883.028a3.88 3.88 0 0 1-.884-.192 4.652 4.652 0 0 1-.828-.373l-1.463-.845-1.689.974-.195.039-.206-.056-.327-.188-.096-.119.067-.113 4.454-2.572.195-.037.207.054 2.006 1.159M315.8 409.916c.189.108.391.196.6.257.211.063.417.102.62.116.204.015.4.003.585-.033a1.68 1.68 0 0 0 .506-.185l.172-.1-1.071-.468a4.612 4.612 0 0 0-1.017-.331c-.298-.056-.527-.036-.688.056l-.111.111-.019.156.118.196c.065.068.166.144.305.225Zm-1.085-1.067c.182-.105.385-.174.608-.205a2.66 2.66 0 0 1 .702 0c.247.031.498.084.756.165a7.9 7.9 0 0 1 .771.287l1.283.556.089-.051c.233-.136.321-.289.26-.46-.06-.169-.224-.332-.489-.485a1.762 1.762 0 0 0-.639-.241 2.958 2.958 0 0 0-.569-.026l-.18-.017-.171-.075-.239-.137-.101-.121.072-.111c.111-.053.261-.084.448-.099a2.83 2.83 0 0 1 .619.03c.222.033.452.088.689.162.235.075.457.172.664.292.239.139.431.284.575.436a.97.97 0 0 1 .264.455c.032.152.002.3-.086.444-.086.147-.242.281-.464.409l-2.102 1.215-.194.039-.206-.055-.295-.171-.097-.118.069-.112.283-.163a1.6 1.6 0 0 1-.455.003 3.993 3.993 0 0 1-1.453-.484 2.191 2.191 0 0 1-.494-.372.94.94 0 0 1-.234-.371l.029-.337a.678.678 0 0 1 .287-.282ZM321.8 412.837l.136-.173-.104-.231a2.597 2.597 0 0 0-.309-.313 15.463 15.463 0 0 0-.483-.414c-.352-.293-.523-.542-.513-.746.006-.206.134-.378.378-.519.138-.079.3-.137.488-.172a2.31 2.31 0 0 1 .618-.024c.224.016.46.065.709.145.248.08.504.196.764.347.26.149.461.295.605.436.143.141.24.272.296.395.054.12.072.228.05.32l-.146.213-.192.041-.21-.058-.262-.151-.098-.077-.044-.116-.11-.292c-.082-.108-.242-.231-.482-.368a2.197 2.197 0 0 0-.711-.276c-.231-.043-.413-.023-.551.056l-.145.158.068.199c.056.077.147.172.271.28.125.109.281.245.468.405.198.168.344.319.438.456.091.135.146.26.155.37l-.08.294a.944.944 0 0 1-.279.234c-.137.08-.309.136-.514.165a2.605 2.605 0 0 1-.668.005 4.1 4.1 0 0 1-1.543-.517c-.26-.151-.464-.3-.611-.448a1.684 1.684 0 0 1-.313-.416.57.57 0 0 1-.068-.343l.143-.224.188-.042.212.058.286.167.103.069.039.115.116.337c.093.119.26.247.498.384.116.068.244.128.382.18.137.054.269.092.397.119.131.027.251.04.36.036l.268-.064M325.831 415.165l.132-.176-.102-.228a2.513 2.513 0 0 0-.308-.313c-.136-.121-.297-.26-.485-.416-.351-.293-.523-.541-.513-.747.009-.204.134-.377.378-.518.138-.079.302-.135.488-.171.19-.035.395-.043.619-.027.224.02.46.068.709.147.248.08.503.196.763.345.26.151.463.298.605.439.143.14.243.272.298.393.053.123.07.228.049.32l-.147.214-.19.04-.211-.056-.263-.152-.097-.076-.045-.118-.108-.289c-.084-.111-.244-.233-.484-.372a2.26 2.26 0 0 0-.711-.275c-.228-.041-.412-.022-.549.056l-.147.159.067.199c.057.077.148.172.273.281.124.108.28.244.468.405.197.167.343.319.437.456a.796.796 0 0 1 .156.368l-.081.296-.277.235a1.466 1.466 0 0 1-.515.163c-.207.03-.429.032-.669.005a4.094 4.094 0 0 1-1.543-.517 2.877 2.877 0 0 1-.609-.447 1.664 1.664 0 0 1-.315-.417.561.561 0 0 1-.067-.343l.142-.223.186-.044.215.062.287.165.101.069.04.115.115.336c.093.119.26.247.498.384.116.067.244.128.382.18.137.053.27.093.398.12.13.027.25.039.36.037l.27-.064M331.409 418.243l3.194-.816.197-.013.239.073.262.153.087.106-.06.1-.064.026-4.391 1.128-.22.032-.21-.058-.247-.143-.097-.123.042-.129 1.342-1.871-3.236.776-.226.024-.213-.056-.248-.142-.1-.122.053-.128 1.956-2.533.047-.037.173-.035.183.051.261.15.128.138-.021.114-1.412 1.844 3.259-.778.185-.019.227.067.174.1.116.132-.033.106-1.347 1.883ZM337.04 421.047l.304-.156.275-.178c.124-.088.217-.182.285-.281l.085-.309-.141-.32a1.453 1.453 0 0 0-.412-.327 2.395 2.395 0 0 0-1.117-.319 2.302 2.302 0 0 0-1.023.215l-.309.159-.271.176a1.058 1.058 0 0 0-.281.282l-.088.307.144.323c.086.108.222.216.408.322.186.108.373.187.562.239.188.049.374.076.556.081.186.007.362-.012.535-.049.172-.04.336-.093.488-.165Zm.989-1.914c.288.167.504.338.652.51.147.17.232.342.259.51a.75.75 0 0 1-.107.499c-.098.165-.25.317-.454.46l-.14.089-.179.104-.18.103-.149.077a3.544 3.544 0 0 1-1.659.324 3.91 3.91 0 0 1-1.767-.526c-.284-.163-.502-.332-.65-.506a1.048 1.048 0 0 1-.258-.51.739.739 0 0 1 .104-.499c.096-.161.248-.316.456-.46l.13-.089.176-.107.182-.1.16-.079a3.434 3.434 0 0 1 1.66-.322 3.917 3.917 0 0 1 1.764.522M342.961 422.061l.096.12-.068.111-.221.128-.193.04-.207-.056-.463-.268c-.61-.352-1.177-.375-1.706-.069l-2.014 1.162-.194.039-.207-.056-.295-.171-.096-.118.067-.112 3.213-1.855.194-.04.206.056.295.171.096.118-.065.114-.215.122c.245-.018.473-.004.687.046.21.048.438.142.677.28l.413.238M344.527 425.377l.28-.152.264-.162c.31-.198.45-.408.417-.631-.032-.224-.216-.432-.551-.625a2.258 2.258 0 0 0-1.117-.311 2.394 2.394 0 0 0-1.121.261 7.825 7.825 0 0 0-.386.223c-.31.203-.46.419-.452.647.008.228.188.442.539.645.331.191.688.296 1.075.317.386.022.736-.049 1.052-.212Zm.925-1.957c.328.189.541.371.639.539.097.172.138.318.125.444l1.524-.88.193-.04.208.057.294.169.096.119-.067.113-4.523 2.611-.194.039-.208-.056-.292-.168-.099-.122.069-.112.214-.122a3.122 3.122 0 0 1-1.703-.442 2.146 2.146 0 0 1-.584-.468.943.943 0 0 1-.233-.513.806.806 0 0 1 .136-.519c.104-.173.277-.336.513-.492l.217-.134.232-.124c.27-.136.551-.236.85-.296a3.716 3.716 0 0 1 1.781.06c.289.078.561.192.812.337"/><path fill="#DADBD8" d="M302.411 416.939c.222-.13.477-.222.765-.276.288-.059.588-.079.9-.067.313.013.621.06.927.141.302.082.584.196.84.344.257.148.456.31.596.486.141.177.224.354.245.534a.801.801 0 0 1-.113.52c-.1.166-.259.314-.482.442a2.48 2.48 0 0 1-.764.277 3.746 3.746 0 0 1-.9.065 4.055 4.055 0 0 1-.925-.142 3.397 3.397 0 0 1-.843-.343 2.086 2.086 0 0 1-.594-.485 1.083 1.083 0 0 1-.246-.535.803.803 0 0 1 .114-.519c.098-.168.258-.314.48-.442M308.347 420.365c.221-.128.477-.22.765-.276a3.7 3.7 0 0 1 .9-.066c.311.012.62.06.925.141.306.081.586.195.842.344.257.149.456.311.596.485.141.178.222.356.245.535a.788.788 0 0 1-.115.52c-.097.167-.257.313-.48.441-.221.13-.476.222-.765.278-.287.057-.587.08-.9.066a4.169 4.169 0 0 1-.924-.142 3.436 3.436 0 0 1-.843-.343 2.09 2.09 0 0 1-.594-.487 1.05 1.05 0 0 1-.246-.534.793.793 0 0 1 .115-.519c.096-.167.257-.315.479-.443ZM314.282 423.794c.222-.128.476-.223.764-.279.288-.057.588-.077.899-.065.313.013.623.06.927.141.305.083.585.196.841.344.257.148.456.309.597.487.14.176.222.353.244.533a.795.795 0 0 1-.113.52c-.1.165-.26.313-.481.441-.223.128-.478.22-.764.278a3.815 3.815 0 0 1-.902.065 4.189 4.189 0 0 1-.922-.14 3.518 3.518 0 0 1-.844-.345 2.076 2.076 0 0 1-.595-.487 1.067 1.067 0 0 1-.247-.533.808.808 0 0 1 .115-.52c.097-.167.26-.312.481-.44M320.217 427.218c.222-.128.478-.22.766-.276.286-.058.586-.08.9-.066.312.013.621.061.925.141.304.081.584.195.841.344.258.149.455.311.596.485.142.178.223.356.246.535a.789.789 0 0 1-.116.52c-.098.167-.256.313-.479.443-.221.126-.477.22-.765.276-.287.057-.587.08-.9.065a4.144 4.144 0 0 1-.926-.141 3.385 3.385 0 0 1-.841-.344 2.064 2.064 0 0 1-.595-.486 1.062 1.062 0 0 1-.245-.534.783.783 0 0 1 .113-.519c.098-.167.259-.315.48-.443M326.153 430.646c.222-.128.475-.222.764-.278a3.91 3.91 0 0 1 .899-.066c.313.014.621.06.927.142.305.081.585.196.841.344.257.148.455.309.597.486.14.176.222.354.244.535a.794.794 0 0 1-.114.519 1.304 1.304 0 0 1-.48.441 2.5 2.5 0 0 1-.764.277 3.913 3.913 0 0 1-.9.067 4.33 4.33 0 0 1-.926-.141 3.539 3.539 0 0 1-.842-.346 2.075 2.075 0 0 1-.595-.486 1.057 1.057 0 0 1-.247-.534.812.812 0 0 1 .115-.52c.097-.165.259-.312.481-.44M332.087 434.072a2.47 2.47 0 0 1 .765-.276c.288-.059.589-.079.9-.067.313.014.623.062.927.142.304.081.585.197.841.344.257.149.455.31.596.485.141.177.223.356.245.535a.8.8 0 0 1-.114.52 1.295 1.295 0 0 1-.48.441 2.477 2.477 0 0 1-.766.277 4.129 4.129 0 0 1-1.825-.076 3.347 3.347 0 0 1-.841-.344 2.048 2.048 0 0 1-.596-.485 1.08 1.08 0 0 1-.246-.535.798.798 0 0 1 .115-.518c.097-.167.259-.315.479-.443ZM338.024 437.499c.221-.127.476-.219.765-.276.287-.057.587-.08.899-.065.312.012.62.058.927.141.304.08.584.195.841.344.257.148.455.309.596.485.141.178.221.354.244.535a.785.785 0 0 1-.113.519 1.297 1.297 0 0 1-.48.442c-.223.128-.478.22-.766.276-.286.059-.588.08-.9.067a4.161 4.161 0 0 1-.925-.143 3.42 3.42 0 0 1-.841-.342 2.084 2.084 0 0 1-.595-.487 1.048 1.048 0 0 1-.247-.533.793.793 0 0 1 .115-.52c.097-.166.257-.314.48-.443M343.958 440.927c.223-.128.476-.222.764-.278.288-.058.588-.078.9-.066.312.013.622.061.927.141.304.081.585.197.84.344.259.149.456.311.596.485.141.178.224.356.245.535a.797.797 0 0 1-.113.521c-.099.166-.259.312-.48.44a2.45 2.45 0 0 1-.764.279 4.167 4.167 0 0 1-1.826-.077 3.533 3.533 0 0 1-.843-.343 2.093 2.093 0 0 1-.595-.487 1.061 1.061 0 0 1-.245-.534.794.794 0 0 1 .115-.519c.097-.167.258-.313.479-.441"/><path fill="#DADBD8" d="m394.615 477.749.005.008-.005-.008Zm14.686-6.741c-.277-.352-.672-.631-1.01-.827l-101.216-58.437c-1.938-1.118-4.895-1.231-6.591-.252l-7.239 4.178c-.818.474-1.194 1.124-1.032 1.784.164.655.812 1.146 1.327 1.446l101.216 58.437c1.939 1.117 4.896 1.231 6.591.252l7.238-4.179c.82-.473 1.196-1.122 1.034-1.782a1.671 1.671 0 0 0-.318-.62Zm-117.514-52.511a2.975 2.975 0 0 1-.572-1.125c-.255-1.028.225-1.978 1.317-2.607l7.239-4.18c1.965-1.135 5.298-.988 7.589.336l101.216 58.437c1.099.632 1.824 1.468 2.041 2.352.255 1.027-.226 1.976-1.317 2.607l-7.239 4.179c-1.965 1.134-5.298.988-7.589-.335l-101.216-58.437c-.615-.355-1.112-.774-1.469-1.227ZM292.512 426.823l1.079.621c.305.176.594.283.866.32.274.036.527-.015.762-.149.236-.136.32-.28.248-.434-.071-.154-.259-.318-.564-.494l-1.076-.623-1.315.759Zm2.919-.406c.208.12.382.247.524.379.141.132.233.265.282.4a.504.504 0 0 1-.018.397c-.06.131-.192.255-.395.371a1.925 1.925 0 0 1-.969.261 3.184 3.184 0 0 1-1.035-.162l-.488 1.392-.043.045-.126.025-.134-.036-.274-.157-.132-.14.008-.105.482-1.346-1.097-.632-1.407.812-.154.032-.164-.044-.262-.152-.077-.094.053-.091 3.563-2.057.157-.031.164.044 1.542.889M295.995 429.247l1.79 1.033.016-.009c.226-.13.323-.28.294-.452-.03-.172-.18-.335-.451-.492a1.849 1.849 0 0 0-.397-.17 2.108 2.108 0 0 0-.43-.076c-.145-.009-.286 0-.425.026a1.322 1.322 0 0 0-.38.13l-.017.01Zm-.55-.336a2.43 2.43 0 0 1 .615-.192 3.117 3.117 0 0 1 1.388.054c.235.063.456.155.671.279.228.132.401.269.517.411a.722.722 0 0 1 .183.426.65.65 0 0 1-.148.424c-.104.14-.264.271-.478.394l-.149.086-.155.031-.165-.043-2.192-1.266-.033.018c-.242.15-.346.312-.311.487.032.173.175.333.427.477.232.135.434.219.609.255.175.035.332.053.473.053l.151.016.131.056.192.112.082.099-.061.087a1.199 1.199 0 0 1-.325.062 2.24 2.24 0 0 1-.479-.021 3.474 3.474 0 0 1-1.248-.444 1.603 1.603 0 0 1-.477-.387.773.773 0 0 1-.178-.408.66.66 0 0 1 .094-.404c.076-.132.196-.257.358-.37.148-.11.319-.207.508-.292M300.564 430.899l.269-.003.298.034.316.082.346.163c.258.148.431.297.52.443.086.145.1.292.044.437a6.34 6.34 0 0 1 .363-.008c.12.003.245.015.372.037.125.02.253.055.381.103.128.044.263.108.403.189.428.247.629.494.603.734-.027.241-.235.473-.62.696l-1.528.882-.156.032-.166-.045-.236-.135-.077-.097.055-.089 1.473-.851c.283-.163.428-.32.435-.471.005-.152-.114-.298-.359-.44a1.501 1.501 0 0 0-.737-.202 1.517 1.517 0 0 0-.804.224l-1.511.872-.156.03-.165-.044-.236-.137-.078-.095.056-.089 1.472-.849c.283-.164.427-.322.434-.474.008-.15-.112-.297-.359-.438a1.492 1.492 0 0 0-.737-.204 1.525 1.525 0 0 0-.803.225l-1.511.872-.157.032-.164-.045-.235-.135-.078-.096.053-.091 2.571-1.484.156-.03.166.045.235.135.076.096-.052.089-.172.1M305.213 434.571l1.79 1.032.017-.01c.225-.129.321-.281.293-.452-.03-.172-.181-.336-.452-.494a1.886 1.886 0 0 0-.826-.244c-.144-.008-.287 0-.426.025a1.273 1.273 0 0 0-.378.132l-.018.011Zm-.55-.339c.186-.087.39-.152.614-.192.224-.041.452-.057.686-.051a2.965 2.965 0 0 1 1.373.384c.229.134.401.27.516.411a.724.724 0 0 1 .184.427.645.645 0 0 1-.148.425 1.596 1.596 0 0 1-.476.393l-.151.087-.156.029-.164-.044-2.19-1.264-.034.019c-.244.148-.346.311-.313.485.032.174.176.334.427.478.233.134.437.221.61.254.174.034.332.054.474.054l.152.017.13.056.191.111.083.098-.06.088a1.185 1.185 0 0 1-.327.062 2.069 2.069 0 0 1-.479-.022 3.517 3.517 0 0 1-1.249-.444 1.601 1.601 0 0 1-.476-.386.79.79 0 0 1-.179-.408.668.668 0 0 1 .095-.404c.076-.134.197-.255.359-.371.148-.109.317-.207.508-.292M309.781 436.219l.268-.001.298.032.318.085.346.161c.258.15.43.298.518.443a.48.48 0 0 1 .046.437c.121-.006.242-.009.362-.008a2.37 2.37 0 0 1 1.156.33c.43.248.63.493.602.733-.027.241-.234.473-.62.696l-1.528.883-.155.032-.165-.046-.236-.136-.078-.096.055-.089 1.473-.851c.283-.162.427-.321.435-.47.007-.151-.115-.299-.36-.44a1.494 1.494 0 0 0-1.54.021l-1.511.872-.156.032-.166-.045-.235-.135-.076-.096.053-.091 1.474-.849c.282-.164.426-.321.434-.472.007-.151-.112-.297-.36-.44a1.5 1.5 0 0 0-.736-.203 1.533 1.533 0 0 0-.804.224l-1.51.872-.158.031-.164-.044-.236-.135-.077-.097.055-.088 2.57-1.484.155-.032.167.045.234.135.076.096-.052.089-.172.099M314.099 440.272c-.218.149-.314.315-.288.489.025.178.17.342.433.494.28.161.577.245.892.248.313.001.613-.067.899-.208l.309-.179c.244-.164.363-.339.359-.519-.006-.181-.148-.352-.43-.514a1.812 1.812 0 0 0-.854-.25 1.87 1.87 0 0 0-.886.187l-.229.119-.205.133Zm2.714-.427c.199.116.355.24.466.375.11.135.174.271.189.408a.637.637 0 0 1-.104.415 1.306 1.306 0 0 1-.413.392l-.174.108-.185.1c-.215.109-.44.189-.679.238a3 3 0 0 1-.72.06 2.969 2.969 0 0 1-.712-.106 2.769 2.769 0 0 1-.646-.27c-.26-.149-.431-.29-.512-.425-.082-.136-.116-.255-.102-.361l-.17.098-.158.031-.164-.045-.234-.135-.079-.096.055-.089 3.618-2.09.156-.032.166.047.234.135.078.094-.054.091-1.22.704c.174-.007.378.012.615.057.235.044.485.144.749.296M318.239 442.089l1.789 1.034.016-.01c.225-.129.321-.281.293-.452-.029-.172-.18-.337-.452-.494a1.904 1.904 0 0 0-1.25-.22c-.14.028-.267.07-.38.133l-.016.009Zm-.552-.338c.188-.087.39-.151.614-.192a3.138 3.138 0 0 1 1.39.057c.233.061.457.156.669.277.229.134.401.27.517.411a.724.724 0 0 1 .184.429.653.653 0 0 1-.148.423 1.59 1.59 0 0 1-.477.393l-.149.086-.156.03-.166-.044-2.19-1.264-.034.019c-.241.149-.345.311-.312.485.034.175.176.332.427.478.232.134.436.22.611.254.173.034.332.052.474.055l.15.016.13.056.192.111.082.098-.059.087a1.153 1.153 0 0 1-.328.063 2.159 2.159 0 0 1-.477-.02 3.538 3.538 0 0 1-1.25-.446 1.579 1.579 0 0 1-.477-.386.794.794 0 0 1-.177-.408.658.658 0 0 1 .093-.404c.076-.134.197-.256.359-.371.149-.109.318-.207.508-.293M324.228 444.191l.076.096-.052.089-.176.103-.157.03-.166-.044-.368-.213c-.489-.283-.945-.301-1.368-.057l-1.61.929-.158.031-.164-.044-.234-.135-.079-.097.055-.088 2.57-1.484.155-.032.168.044.233.136.078.094-.054.091-.172.099c.196-.015.379-.003.55.036.169.038.35.114.541.224l.332.192M326.621 445.943l.27-.002.297.032.317.083.346.163c.257.148.432.297.52.442a.484.484 0 0 1 .045.438c.121-.006.243-.008.361-.008a2.298 2.298 0 0 1 .755.14c.128.046.261.108.401.191.431.248.631.492.603.733-.027.24-.233.473-.62.696l-1.528.881-.155.032-.166-.045-.235-.135-.079-.097.056-.09 1.472-.849c.284-.164.428-.321.436-.472.006-.152-.114-.299-.36-.44a1.507 1.507 0 0 0-.737-.203 1.538 1.538 0 0 0-.804.224l-1.511.872-.156.032-.165-.044-.236-.137-.076-.095.055-.089 1.472-.851c.282-.162.426-.321.436-.472.005-.152-.115-.298-.36-.44a1.534 1.534 0 0 0-.739-.204 1.547 1.547 0 0 0-.803.227l-1.51.872-.158.031-.164-.044-.234-.136-.079-.096.053-.091 2.571-1.484.156-.031.168.046.233.136.078.094-.054.091-.172.099M331.269 449.612l1.791 1.035.016-.011c.225-.129.321-.279.293-.452-.029-.172-.178-.335-.452-.492a1.734 1.734 0 0 0-.396-.168 2.034 2.034 0 0 0-.429-.077c-.145-.01-.287 0-.425.025a1.333 1.333 0 0 0-.38.131l-.018.009Zm-.549-.336c.185-.088.391-.152.615-.192a3.077 3.077 0 0 1 1.388.055c.233.064.456.156.669.28.229.13.403.268.517.41a.714.714 0 0 1 .184.427.643.643 0 0 1-.149.423c-.104.14-.264.27-.477.393l-.148.087-.156.032-.166-.046-2.192-1.265-.032.019c-.242.149-.345.313-.31.486.032.174.174.334.425.479a2.035 2.035 0 0 0 1.084.307l.151.016.129.057.193.112.083.099-.061.085a1.137 1.137 0 0 1-.326.063c-.14.01-.297.004-.478-.022a3.606 3.606 0 0 1-1.25-.442 1.675 1.675 0 0 1-.477-.387.793.793 0 0 1-.177-.411.648.648 0 0 1 .094-.402c.076-.132.195-.256.359-.37.148-.11.317-.208.508-.293M286.312 425.96l.007.01-.007-.01Zm-.561-5.149-3.699 2.136 4.1 2.368 3.7-2.136-4.101-2.368Zm-5.234 2.284-.145-.285c-.048-.202.012-.376.161-.463l4.659-2.689c.148-.086.36-.068.56.045l5.379 3.107a.85.85 0 0 1 .4.508c.049.2-.012.376-.16.461l-4.659 2.689c-.148.087-.361.068-.56-.045l-5.38-3.107-.255-.221"/><path fill="#33BFBF" d="m330.851 514.563.006.008-.006-.008Zm14.688-6.74c-.279-.354-.674-.631-1.011-.827l-101.216-58.437c-1.937-1.119-4.895-1.232-6.591-.254l-7.24 4.18c-.818.474-1.194 1.123-1.03 1.783.161.656.812 1.148 1.326 1.445l101.216 58.438c1.938 1.118 4.895 1.232 6.591.251l7.239-4.178c.818-.473 1.194-1.123 1.032-1.783a1.637 1.637 0 0 0-.316-.618Zm-117.516-52.512a2.98 2.98 0 0 1-.572-1.126c-.255-1.026.226-1.977 1.317-2.606l7.24-4.18c1.964-1.134 5.297-.987 7.589.336l101.216 58.437c1.099.632 1.823 1.469 2.04 2.352.255 1.027-.225 1.976-1.317 2.607l-7.239 4.178c-1.964 1.135-5.298.988-7.589-.334l-101.216-58.438c-.615-.354-1.112-.772-1.469-1.226Z"/><path fill="#DADBD8" d="m309.391 526.952.006.009-.006-.009Zm14.688-6.74c-.279-.353-.674-.631-1.011-.827l-101.216-58.437c-1.937-1.117-4.895-1.232-6.591-.252l-7.238 4.179c-.82.473-1.195 1.122-1.032 1.782.164.656.81 1.147 1.326 1.446l101.216 58.437c1.938 1.119 4.895 1.232 6.591.253l7.239-4.178c.818-.473 1.194-1.124 1.032-1.784a1.67 1.67 0 0 0-.316-.619Zm-117.516-52.511a2.98 2.98 0 0 1-.572-1.126c-.254-1.027.226-1.976 1.318-2.607l7.239-4.179c1.964-1.134 5.297-.988 7.589.335l101.216 58.437c1.099.634 1.824 1.47 2.04 2.352.255 1.027-.225 1.978-1.317 2.607l-7.239 4.18c-1.964 1.135-5.298.988-7.589-.336l-101.216-58.437c-.613-.354-1.112-.772-1.469-1.226"/><path fill="#DADBD8" d="m223.979 469.983-.092-.375c.06-.171.273-.213.478-.095l82.87 47.846c.205.117.322.352.262.522-.058.171-.272.213-.477.095l-82.869-47.845-.172-.148M359.796 497.33c1.883 1.088 4.829 1.221 6.436.294l11.199-6.468c.41-.236.9-.638.9-1.211 0-.585-.527-1.238-1.41-1.748L275.705 429.76c-1.881-1.089-4.829-1.22-6.434-.295l-11.2 6.467c-.411.237-.9.64-.9 1.212 0 .585.525 1.239 1.408 1.748l101.217 58.438Zm3.675 2.226c-1.502 0-3.075-.369-4.33-1.093l-101.216-58.438c-1.31-.757-2.064-1.808-2.064-2.881 0-.935.552-1.767 1.555-2.344l11.201-6.468c2.027-1.168 5.43-1.04 7.742.295l101.217 58.437c1.311.756 2.063 1.808 2.063 2.881 0 .934-.552 1.766-1.555 2.344l-11.199 6.468c-.928.535-2.145.799-3.414.799"/><path fill="#DADBD8" d="M306.772 453.656c.477.277.844.552 1.096.827.253.274.419.53.493.768.076.236.076.448 0 .637a.968.968 0 0 1-.361.449l-.263.058-.277-.08-.749-.432c-.123-.072-.194-.135-.214-.194l-.002-.189c.046-.151.018-.323-.086-.515s-.369-.412-.797-.658a4.1 4.1 0 0 0-.583-.278 3.317 3.317 0 0 0-.588-.168 2.121 2.121 0 0 0-.53-.033.976.976 0 0 0-.423.12c-.143.081-.224.168-.245.26-.023.091.014.201.11.332s.247.287.456.472c.21.185.474.413.792.681.347.295.623.563.826.804.202.243.326.464.37.666.046.2.018.385-.085.556-.101.169-.279.328-.532.473a2.75 2.75 0 0 1-.989.324c-.382.056-.79.056-1.224.001a6.95 6.95 0 0 1-1.378-.329 8.311 8.311 0 0 1-1.445-.663 5.65 5.65 0 0 1-1.021-.734c-.282-.259-.484-.515-.608-.77-.124-.253-.162-.494-.111-.721.052-.229.203-.425.453-.596l.263-.057.279.08.749.432c.121.07.196.136.221.193l-.005.189-.059.244.076.291c.059.105.16.223.302.352.142.128.349.271.621.427.215.124.435.236.664.334.227.1.448.174.664.223.215.051.416.073.605.072a.998.998 0 0 0 .496-.127c.135-.077.196-.172.184-.278-.013-.108-.09-.239-.233-.392a6.896 6.896 0 0 0-.579-.539c-.244-.204-.52-.445-.825-.723a5.17 5.17 0 0 1-.675-.694c-.164-.214-.261-.414-.286-.6a.713.713 0 0 1 .132-.527c.116-.168.313-.329.592-.491.277-.16.606-.268.984-.321a4.693 4.693 0 0 1 1.192-.008c.417.048.845.144 1.289.289.443.144.863.332 1.264.563M306.103 460.588l-.263.052-.279-.075-.813-.469-.129-.16.089-.152 4.325-2.497.262-.051.278.073.814.471.129.16-.089.152-4.324 2.496Zm6.101-3.795.129.16-.09.151-.724.419-.262.052-.278-.075-.922-.531-.128-.162.09-.15.724-.418.262-.054.278.076.921.532M311.148 460.707a2.79 2.79 0 0 0-.519.3c-.36.256-.506.505-.438.747.066.242.274.464.625.668.349.201.735.32 1.152.354.419.034.813-.034 1.183-.206a3.55 3.55 0 0 0 .374-.192c.142-.082.252-.154.331-.216.287-.206.401-.432.349-.678-.053-.245-.257-.469-.606-.67a2.786 2.786 0 0 0-1.154-.362c-.418-.038-.852.047-1.297.255Zm-2.313 2.82c.15.087.322.163.521.231.196.068.403.114.617.138.216.024.431.022.647-.008.216-.029.412-.096.592-.2l.343-.197a3.94 3.94 0 0 1-.406-.027 3.756 3.756 0 0 1-.518-.089 4.833 4.833 0 0 1-1.251-.497c-.357-.206-.62-.428-.789-.664-.167-.238-.254-.471-.256-.706-.003-.233.068-.46.214-.68.146-.22.352-.416.622-.588a5.782 5.782 0 0 1 .65-.376c.299-.156.64-.276 1.02-.36a5.45 5.45 0 0 1 1.178-.124c.405.003.812.052 1.221.148a4.37 4.37 0 0 1 1.152.456c.22.128.4.254.537.376.139.123.246.239.323.346l.156.3.045.234.212-.122.263-.052.277.073.815.471.129.161-.09.151-4.352 2.513a4.162 4.162 0 0 1-2.416.56c-.864-.059-1.72-.335-2.571-.825-.363-.21-.66-.43-.887-.656-.226-.228-.385-.448-.473-.66a.967.967 0 0 1-.076-.59.716.716 0 0 1 .32-.442l.256-.056.283.077.728.421.169.2.021.198c-.012.114.027.238.12.37.092.132.311.296.654.495M319.441 468.289l-.262.054-.276-.075-.815-.469-.131-.162.092-.152 2.356-1.36c.372-.214.57-.444.591-.686.023-.246-.173-.487-.587-.727a2.386 2.386 0 0 0-1.229-.323c-.44.003-.845.111-1.217.326l-2.356 1.361-.263.052-.279-.075-.813-.47-.129-.16.09-.152 4.324-2.496.263-.052.277.074.814.47.129.161-.089.151-.214.124c.346.013.698.062 1.052.146a3.8 3.8 0 0 1 1.047.423c.437.251.743.496.917.732.176.237.254.464.234.681-.019.219-.123.424-.312.619a3.184 3.184 0 0 1-.718.544l-2.496 1.441M324.704 471.328l-.263.052-.277-.075-.815-.469-.129-.161.091-.151 4.324-2.497.262-.052.278.074.814.471.128.16-.089.151-4.324 2.497Zm6.101-3.795.131.16-.092.151-.724.417-.26.054-.279-.075-.921-.532-.131-.16.092-.152.723-.417.261-.052.28.074.92.532M331.41 475.201l-.261.052-.277-.074-.815-.471-.129-.16.09-.152 2.356-1.36c.372-.215.568-.444.591-.688.024-.244-.172-.485-.587-.724a2.358 2.358 0 0 0-1.229-.324 2.43 2.43 0 0 0-1.217.325l-2.356 1.36-.263.052-.277-.073-.815-.471-.129-.16.089-.152 4.325-2.496.262-.052.278.075.814.471.129.158-.089.152-.214.123c.347.015.698.064 1.052.148.356.084.706.224 1.048.423.436.252.742.494.916.733.175.236.254.463.235.68-.02.219-.124.424-.312.62a3.251 3.251 0 0 1-.719.544l-2.496 1.441"/><path fill="#33BFBF" d="m258.325 460.755.092.13-.09.134-.602.348-.23.053-.228-.053-2.703-1.562-1.644.95 2.533 1.461.094.132-.094.133-.601.346-.228.054-.229-.054-2.534-1.462-1.94 1.12-.229.055-.228-.055-.685-.396-.094-.132.094-.132 5.472-3.16.228-.053.229.053 3.617 2.09M258.995 465.004c.158-.111.262-.219.313-.323l.035-.298-.175-.262-.309-.222a2.408 2.408 0 0 0-.386-.179 1.932 1.932 0 0 0-.968-.08 2.058 2.058 0 0 0-.56.18l-.184.091-.214.121-.212.125-.152.104c-.159.112-.264.219-.314.323l-.034.297.174.263.308.223c.119.068.248.128.386.177.14.052.289.085.453.101.164.016.336.01.517-.02.182-.028.368-.088.56-.181l.174-.089.216-.126.21-.122.162-.103Zm.88-1.691c.312.178.544.368.7.568.156.202.24.403.254.607.014.204-.036.403-.152.597a1.7 1.7 0 0 1-.54.53l-.185.118-.237.138-.234.133-.198.105c-.283.138-.591.24-.924.31a4.63 4.63 0 0 1-2.071-.062 3.914 3.914 0 0 1-.987-.404c-.312-.18-.544-.369-.698-.57-.155-.2-.244-.402-.259-.604a.95.95 0 0 1 .152-.591c.12-.193.296-.369.533-.535l.179-.116.228-.137.243-.135.206-.105c.276-.14.583-.243.92-.311a4.778 4.778 0 0 1 2.084.06c.348.088.675.224.986.404M263.935 466.927c-.34-.196-.659-.294-.959-.294-.3 0-.619.098-.957.294l-2.203 1.272-.229.053-.228-.053-.644-.374-.094-.13.094-.132 3.948-2.28.228-.054.229.054.644.372.093.132-.093.133-.195.112c.283.007.543.036.784.091.24.053.496.158.766.314l.381.22.093.132-.092.134-.56.322-.228.054-.229-.055-.549-.317M265.305 468.815a2.818 2.818 0 0 0-.474.275c-.334.23-.484.448-.452.652.032.204.185.385.461.545.277.16.592.248.944.261.352.015.696-.058 1.028-.217.097-.043.211-.101.34-.177.129-.074.232-.139.305-.195.267-.187.388-.381.368-.588-.018-.209-.166-.391-.444-.551a2.06 2.06 0 0 0-.944-.268c-.354-.017-.73.07-1.132.263Zm-2.269 2.485c.117.068.259.128.42.179a2.24 2.24 0 0 0 1.063.064c.184-.032.36-.096.524-.189l.314-.182c-.097.003-.21.002-.342-.008a3.079 3.079 0 0 1-.434-.058 3.837 3.837 0 0 1-.492-.136 3.066 3.066 0 0 1-.52-.243c-.282-.164-.484-.343-.601-.537a.921.921 0 0 1-.144-.592c.023-.199.107-.395.255-.587.145-.192.342-.367.593-.524l.288-.176.305-.165c.27-.144.572-.259.906-.343a4.702 4.702 0 0 1 1.017-.148c.343-.012.685.015 1.023.084.34.069.649.184.932.348.174.1.316.2.42.3l.238.283.102.25.01.198.196-.112.228-.055.23.055.644.37.092.134-.092.132-3.974 2.293c-.682.395-1.388.583-2.117.563a4.376 4.376 0 0 1-2.1-.612 2.91 2.91 0 0 1-.687-.527 1.457 1.457 0 0 1-.334-.545.743.743 0 0 1 .317-.888l.224-.056.233.056.576.332.123.164-.004.169.063.309c.065.11.232.243.505.4M272.752 472.947c.159-.111.263-.219.315-.323l.033-.299-.175-.261-.308-.223a2.44 2.44 0 0 0-.386-.178 1.915 1.915 0 0 0-.97-.08 2.037 2.037 0 0 0-.558.181l-.184.089-.215.122-.213.125-.151.104c-.159.112-.263.219-.313.323l-.035.297.173.263.311.222c.117.068.247.128.385.178a1.94 1.94 0 0 0 .97.081c.18-.028.366-.088.558-.181l.174-.09.216-.125.21-.123.163-.102Zm.881-1.691c.31.177.544.368.699.568.155.201.24.403.253.608.015.203-.036.401-.152.596a1.696 1.696 0 0 1-.537.529l-.188.119-.237.137-.232.134-.199.105c-.284.137-.589.24-.923.309a4.429 4.429 0 0 1-1.026.087 4.695 4.695 0 0 1-1.046-.148 3.914 3.914 0 0 1-.986-.404c-.312-.18-.544-.369-.7-.571a1.127 1.127 0 0 1-.258-.604.955.955 0 0 1 .152-.59 1.81 1.81 0 0 1 .535-.534l.177-.117.228-.137.242-.134.208-.106c.276-.14.582-.243.92-.311a4.723 4.723 0 0 1 2.082.06c.347.088.676.224.988.404M275.268 475.544c-.175.101-.268.209-.28.324-.011.115.111.244.365.391l.516.297.095.133-.095.131-.558.324-.23.053-.228-.053-.628-.363c-.53-.305-.809-.616-.837-.929-.029-.312.223-.623.753-.929l1.823-1.051-.559-.324-.094-.131.093-.133.56-.321.227-.055.229.055.559.321 1.381-.797.228-.054.229.054.644.373.094.131-.092.132-1.383.798 1.093.63.094.133-.092.132-.56.323-.228.053-.23-.053-1.092-.632-1.797 1.037M282.976 479.565c.176-.081.333-.173.476-.275.333-.232.484-.449.453-.652-.032-.205-.185-.386-.461-.545a2.017 2.017 0 0 0-.945-.263 2.144 2.144 0 0 0-1.03.218 4.065 4.065 0 0 0-.644.373c-.265.184-.389.381-.368.588.019.207.17.391.446.551.276.158.59.249.944.266.352.018.729-.069 1.129-.261Zm-2.837.728a2.135 2.135 0 0 1-.419-.301l-.237-.283-.102-.249-.012-.198-1.804 1.042-.229.053-.229-.053-.644-.372-.095-.132.095-.134 5.557-3.208.227-.053.229.053.645.372.094.132-.092.134-.196.112a3.134 3.134 0 0 1 .774.065c.156.031.32.077.491.137.172.06.345.14.521.243.283.163.483.341.602.537a.937.937 0 0 1 .145.592 1.2 1.2 0 0 1-.255.587 2.218 2.218 0 0 1-.593.523l-.288.176-.304.166a4.184 4.184 0 0 1-.907.343 4.98 4.98 0 0 1-1.017.147 4.338 4.338 0 0 1-1.024-.083 3.07 3.07 0 0 1-.933-.348M285.433 482.176a2.59 2.59 0 0 0 1.188.342c.191.007.37-.008.532-.042.164-.038.304-.09.423-.158l.085-.05-1.356-.547c-.27-.111-.494-.175-.672-.188a.764.764 0 0 0-.461.091l-.081.256c.065.104.18.202.342.296Zm.976-2.196c.14-.055.32-.099.536-.13.218-.03.462-.037.73-.02.268.019.549.068.844.151.29.08.582.205.87.371.29.166.511.338.667.516.155.177.241.357.263.538.02.182-.038.362-.171.543-.132.181-.343.355-.629.521l-2.492 1.438-.228.053-.23-.053-.645-.372-.093-.132.093-.134.279-.16a3.43 3.43 0 0 1-.93-.053 3.224 3.224 0 0 1-1.026-.392 2.124 2.124 0 0 1-.555-.433.795.795 0 0 1-.208-.438.66.66 0 0 1 .119-.416c.09-.133.233-.256.424-.366.389-.226.832-.322 1.33-.288a4.949 4.949 0 0 1 1.559.381l1.617.66c.232-.133.32-.272.264-.416-.056-.143-.198-.28-.424-.411a1.289 1.289 0 0 0-.39-.156 2.302 2.302 0 0 0-.39-.038l-.233-.028-.165-.066-.787-.454-.093-.112.094-.104M291.584 485.345l.095-.121-.099-.182a2.792 2.792 0 0 0-.293-.287c-.13-.115-.292-.261-.49-.44a1.986 1.986 0 0 1-.408-.48.663.663 0 0 1-.096-.399.57.57 0 0 1 .178-.341c.104-.108.241-.21.41-.307.17-.097.375-.172.619-.22.243-.049.503-.067.78-.053.275.012.561.058.855.137.293.077.577.196.854.356.278.16.492.32.648.481.158.163.26.317.311.463a.593.593 0 0 1 .004.409.661.661 0 0 1-.26.315l-.224.056-.232-.056-.653-.376-.144-.139-.032-.14-.099-.178c-.053-.068-.165-.149-.335-.247a2.023 2.023 0 0 0-.524-.216.6.6 0 0 0-.466.044l-.111.117.064.168.257.274c.12.111.279.252.476.424.395.353.58.653.559.905-.023.251-.204.475-.541.671a1.93 1.93 0 0 1-.624.212 3.306 3.306 0 0 1-.8.037 4.359 4.359 0 0 1-.899-.166 4.043 4.043 0 0 1-.905-.393c-.3-.173-.53-.345-.687-.518-.157-.172-.26-.336-.304-.495a.604.604 0 0 1 .016-.429.695.695 0 0 1 .279-.318l.224-.056.234.056.651.376.133.144.007.163.089.207c.056.077.182.173.374.284l.278.141.307.114.292.05.232-.047M295.989 487.888l.094-.122-.099-.182a2.896 2.896 0 0 0-.293-.287c-.128-.114-.292-.26-.49-.44a1.97 1.97 0 0 1-.406-.48.66.66 0 0 1-.098-.397.583.583 0 0 1 .178-.343c.104-.105.242-.207.411-.306.17-.098.375-.172.619-.22.24-.05.501-.067.78-.054.275.014.56.059.854.138.293.077.578.195.856.356.276.16.492.321.648.482.154.162.257.315.309.462.05.147.053.282.004.409a.665.665 0 0 1-.259.315l-.225.056-.232-.056-.652-.376-.144-.137-.035-.143-.096-.178c-.053-.066-.165-.149-.334-.246a2.033 2.033 0 0 0-.525-.215.6.6 0 0 0-.466.042l-.112.118.065.17.258.271c.118.111.277.252.474.424.395.353.582.653.559.906-.021.251-.203.473-.541.67-.17.098-.376.17-.623.212a3.304 3.304 0 0 1-.8.038 4.245 4.245 0 0 1-1.807-.559 2.914 2.914 0 0 1-.685-.517c-.157-.174-.26-.338-.305-.495a.626.626 0 0 1 .018-.431.688.688 0 0 1 .28-.317l.223-.057.233.057.652.376.132.145.007.162.091.206c.056.08.181.174.372.285l.28.141.305.113.292.051.233-.047M302.707 491.17l3.185-.958.208-.036.232.056.644.37.093.134-.093.132-.067.029-5.185 1.516-.22.039-.237-.059-.644-.372-.098-.134.063-.129 1.441-1.78-3.082.831-.226.036-.233-.056-.644-.372-.101-.137.066-.127 2.627-2.993.051-.039.229-.053.228.053.644.371.099.136-.064.12-1.66 1.839 3.234-.931.216-.031.224.051.646.372.088.129-.055.125-1.609 1.868M309.079 493.92c.158-.111.262-.219.313-.323l.033-.298-.174-.262-.308-.222a2.58 2.58 0 0 0-.386-.179 1.913 1.913 0 0 0-.969-.081 2.12 2.12 0 0 0-.56.181l-.183.089-.214.122-.214.126-.152.103c-.158.111-.262.219-.312.323l-.036.298.175.262.309.223c.119.069.247.129.386.178a1.924 1.924 0 0 0 .969.081c.181-.03.369-.09.56-.181l.173-.091.216-.124.211-.122.163-.103Zm.88-1.692c.309.179.544.369.698.569.155.2.242.403.255.607.013.203-.037.403-.153.596a1.686 1.686 0 0 1-.538.532l-.186.117-.236.136-.234.135-.2.105a3.95 3.95 0 0 1-.922.308 4.542 4.542 0 0 1-2.072-.061 3.918 3.918 0 0 1-.987-.403c-.311-.18-.543-.37-.697-.57a1.115 1.115 0 0 1-.26-.603.971.971 0 0 1 .152-.594c.12-.191.296-.369.534-.533l.178-.117.229-.136.24-.135.208-.105c.277-.141.583-.244.92-.311a4.719 4.719 0 0 1 2.084.058c.348.09.675.225.987.405M314.017 495.842c-.338-.195-.658-.294-.958-.294-.3 0-.618.099-.958.294l-2.201 1.271-.229.054-.23-.054-.642-.371-.095-.133.095-.132 3.946-2.278.228-.054.23.054.644.372.093.132-.092.132-.196.112c.283.007.543.037.784.09.24.055.495.16.765.317l.382.219.094.133-.093.131-.56.322-.227.054-.229-.054-.551-.317M315.389 497.729a3.224 3.224 0 0 0-.476.273c-.333.232-.484.45-.452.654.032.205.186.386.462.546.277.161.592.246.944.262a2.16 2.16 0 0 0 1.029-.218c.096-.042.209-.101.34-.177a3.36 3.36 0 0 0 .304-.194c.264-.187.388-.383.369-.59-.02-.208-.166-.391-.444-.551a2.092 2.092 0 0 0-.945-.266c-.353-.019-.729.069-1.131.261Zm2.838-.728c.174.1.314.201.418.301l.239.285.101.247.012.199 1.804-1.043.228-.053.231.053.644.373.092.131-.092.132-5.557 3.21-.23.053-.229-.055-.643-.37-.094-.134.094-.13.195-.112a3.84 3.84 0 0 1-.343-.008 3.196 3.196 0 0 1-.432-.059 3.318 3.318 0 0 1-1.013-.379c-.283-.162-.483-.342-.601-.538a.911.911 0 0 1-.143-.592c.021-.197.107-.395.253-.585.146-.194.344-.369.592-.525l.29-.177.304-.165c.272-.143.573-.258.906-.343a4.96 4.96 0 0 1 1.018-.147c.344-.013.685.015 1.024.083.338.069.649.184.932.348M325.131 499.227c.265.151.488.322.666.51.176.188.291.379.34.575a.81.81 0 0 1-.061.58c-.095.191-.279.367-.555.525a2.56 2.56 0 0 1-.694.28 4.3 4.3 0 0 1-.722.102 6.725 6.725 0 0 1-.724.002 89.673 89.673 0 0 0-.682-.032 6.58 6.58 0 0 0-.614.003 1.476 1.476 0 0 0-.504.109l-.237.051-.22-.051-.645-.37-.096-.135.096-.129c.232-.122.474-.206.721-.257.249-.047.495-.077.745-.086.248-.009.494-.008.734.008.238.015.464.025.677.033.212.008.403.006.575-.01a1.07 1.07 0 0 0 .437-.123c.215-.125.301-.279.259-.463-.043-.185-.214-.362-.512-.536-.482-.277-1.075-.342-1.779-.196l-.231.03-.201-.063-.688-.396-.08-.105.081-.111c.202-.111.466-.194.788-.245.32-.052.663-.071 1.024-.054.363.017.728.07 1.099.159.368.091.705.221 1.003.395Zm-4.472 2.974.092.131-.094.132-.745.43-.228.054-.228-.053-.729-.42-.094-.134.094-.132.744-.431.229-.053.229.055.73.421"/><path fill="#BFC0BE" d="M189.092 374.163c-.441-.062-.848-.188-1.159-.379l-2.105-1.2 2.108 1.196a3.47 3.47 0 0 0 1.156.383ZM191.583 373.836a1.044 1.044 0 0 0 .124-.067c-.043.024-.084.047-.124.067"/><path fill="#9B43A7" d="M191.48 373.884c.061-.028.121-.056.177-.087-.024.013-.049.027-.074.039l-.103.048"/><path fill="#BFC0BE" d="m191.707 373.77.012-.007-.012.007Z"/><path fill="#B05FB6" d="m190.385 344.799-7.341-4.243.003-.004 7.338 4.247"/><path fill="#33BFBF" d="m574.707 528.581-.01-.105v-.032l-.016-.096-.032-.137-.064-.152c-.097-.21-.273-.403-.514-.572l-.024-.024-.082-.049-.088-.055-.032-.024-69.226-39.975-.138-.072a7.65 7.65 0 0 0-4.021-.949l-.064.008a7.485 7.485 0 0 0-3.403 1.005l-.016.008-5.026 2.896-87.307 50.413-11.124 6.419-.032.024a2.7 2.7 0 0 0-1.037 2.002v6.162a2.7 2.7 0 0 0 1.358 2.364l.008.009 1.094.627 67.852 39.178c.594.346 1.382.515 2.164.498.722-.008 1.44-.176 1.993-.489l.025-.009 93.355-53.897 13.545-7.817.128-.089.082-.049c.426-.296.626-.667.652-1.036 0-.106-.026-5.615 0-5.985"/><path fill="#009B9B" d="m464.861 597.949-.165-.005c-.135-.004-.271-.008-.403-.021l-.005-.002a4.557 4.557 0 0 1-.541-.091l-.152-.045c-.123-.033-.246-.065-.36-.109a3.057 3.057 0 0 1-.472-.223l-67.852-39.177-1.094-.627-.008-.009a2.7 2.7 0 0 1-1.358-2.364V549.387c.014.44.13.873.35 1.261.151.275.347.509.582.705.129.112.27.213.426.303l.008.009 1.094.627 13.074 7.544 53.596 30.951v.001l1.178.68.1.055c.376.201.818.331 1.285.397.215.029.433.046.653.048l.064.001v5.98Z"/><path fill="#E8E9E6" d="M464.927 597.952c.722-.008 1.44-.176 1.993-.489l.025-.01 93.355-53.896 13.545-7.817.128-.089.082-.049c.426-.297.626-.668.652-1.037-.026.369-.226.74-.652 1.037l-.082.049-.128.089-106.9 61.713-.025.01c-.553.313-1.271.481-1.993.489"/><path fill="#009B9B" d="M464.927 597.952h-.066v-5.983h.01l.056-.001a4.59 4.59 0 0 0 1.388-.224c.216-.072.421-.162.609-.267v-.001l.021-.007 36.806-21.249 36.494-21.078 15.532-8.967 4.514-2.607.013.001 13.541-7.818.13-.085.078-.046.023-.016c.412-.295.607-.659.631-1.023-.01.123-.012.82-.012 1.697 0 1.75.012 4.218.012 4.287-.026.369-.226.74-.652 1.037l-.082.049-.128.089-13.545 7.817-93.355 53.896-.025.01c-.553.313-1.271.481-1.993.489Z"/><path fill="#33BFBF" d="M392.451 549.139v-.025a2.698 2.698 0 0 1 1.037-2.002l.032-.024 11.124-6.419 87.307-50.413 5.026-2.896.016-.008a7.472 7.472 0 0 1 3.403-1.005l.064-.008-.064.008a7.472 7.472 0 0 0-3.403 1.005l-.016.008-5.01 2.896-87.323 50.413-11.124 6.419-.032.024a2.698 2.698 0 0 0-1.037 2.002v.025m181.426-21.782-.032-.022-66.218-38.23-3.008-1.745-.138-.072-.029-.016.029.016.138.072 69.226 39.975.032.022Z"/><path fill="#33BFBF" d="M574.706 528.581c-.025.37-.225.74-.652 1.038l-.081.047-13.68 7.899-56.543 32.655-36.805 21.249-.025.008c-.554.315-1.271.483-1.994.491-.781.008-1.569-.152-2.164-.499l-1.182-.682-52.827-30.509-13.843-7.986-1.093-.627-.008-.009a2.702 2.702 0 0 1-1.359-2.46v-.082a7.908 7.908 0 0 1 1.263-.217l12.393-1.229 64.298-6.403h.008l10.037-1.005c2.212-.217 4.191-1.023 4.408-1.787l2.011-6.714v-.01l12.554-42.04.942-3.129.008-.04.088-.201a7.651 7.651 0 0 1 4.021.949l.137.072 3.008 1.745 66.219 38.23.032.024.088.055.081.049.024.024c.242.169.418.362.515.572l.064.152.032.137.016.096v.032l.009.105"/><path fill="#33BFBF" d="m464.871 591.969-.074-.001h.131a4.657 4.657 0 0 0-.001 0l-.056.001Zm2.053-.493.017-.008 36.807-21.249-.003-.001 42.208-24.371-42.202 24.373-36.806 21.249-.021.007Zm-5.343-.689h-.001l-52.827-30.508-.768-.443-13.074-7.544-1.094-.626-.008-.01a2.684 2.684 0 0 1-1.008-1.008 2.727 2.727 0 0 1-.35-1.452l13.873-.506 63.163-2.276-7.906 44.373Zm34.09-59.351c1.576-14.745 4.444-41.775 4.444-41.775l.345-3.322a7.65 7.65 0 0 1 4.021.949l.138.072 3.008 1.746 66.218 38.229.032.022-.004-.001-78.173 3.8-.029.28Zm78.405-1.832c.411-.298.607-.659.627-1.02l.001-.03.003.027c-.024.364-.219.728-.631 1.023Zm.495-1.574a1.598 1.598 0 0 0-.418-.482c.19.147.331.308.418.482Zm-.508-.551-.071-.048.055.032.016.016Z"/><path fill="#C171BF" d="m560.304 537.569-.013-.001 13.684-7.902-.13.085-13.541 7.818"/><path fill="#DB9BD3" d="m574.704 528.553-.007-.077v-.032l-.016-.097-.032-.137-.064-.152c-.004-.011-.009-.019-.014-.029.093.17.137.347.133.524M574.153 527.548l-.082-.061-.008-.008.09.069ZM573.992 527.431l-.027-.016-.088-.056v-.002c.039.024.078.049.115.074"/><path fill="#2C4050" d="m495.671 531.436.029-.28 78.173-3.8.004.001v.001l.088.056.027.016.071.048.008.009.082.061c.187.149.326.312.418.481l.014.029.064.152.032.138.016.096v.032l.007.077-.001.031-79.032 2.852Z"/><path fill="#33BFBF" d="M464.705 591.966a5.196 5.196 0 0 1-.561-.046 4.65 4.65 0 0 0 .561.046Z"/><path fill="#BC6BBC" d="M464.797 591.968a5.24 5.24 0 0 1-.092-.002l.092.002Z"/><path fill="#33BFBF" d="M463.273 591.706c-.001 0-.004 0-.005-.002.001.002.003.002.005.002Zm-.3-.126Zm-.21-.111-1.182-.682 1.182.682Z"/><path fill="#BC6BBC" d="M462.859 591.522a1.927 1.927 0 0 1-.1-.054l-1.178-.68v-.001l1.182.682c.032.019.064.036.096.053"/><path fill="#2C4050" d="M464.851 591.968h-.054a4.695 4.695 0 0 1-1.518-.26l-.006-.003-.005-.001a3.89 3.89 0 0 1-.295-.124 2.784 2.784 0 0 1-.21-.111l-1.182-.682 7.906-44.374.365-.012-4.924 45.567h-.077Zm2.09-.5 36.804-21.251.003.001-36.807 21.25Z"/><path fill="#33BFBF" d="M574.703 528.584c-.02.368-.224.734-.65 1.036l-.078.046-107.034 61.802-.017.009c-.561.316-1.275.48-1.996.491l6.012-55.638c.251-2.306 5.541-4.201 12.423-4.449l91.34-3.297Z"/><path fill="#33BFBF" d="m464.928 591.968 4.924-45.567 12.399-.447c11.989-.432 12.09-2.429 12.426-5.318.084-.723.467-4.278.994-9.2l79.032-2.852c-.02.368-.224.734-.65 1.036l-.078.046-13.684 7.902-4.514 2.607-88.836 51.293-.017.009c-.561.316-1.275.48-1.996.491Z"/><path fill="#9B43A7" d="M392.451 549.114a2.698 2.698 0 0 1 1.037-2.002l.032-.024 11.124-6.419 87.323-50.413 5.01-2.896.016-.008a7.472 7.472 0 0 1 3.403-1.005l.064-.008-.088.201.024-.193a7.472 7.472 0 0 0-3.403 1.005l-.016.008-5.01 2.896-87.323 50.413-11.124 6.419-.032.024a2.698 2.698 0 0 0-1.037 2.002"/><path fill="#2C4050" d="M392.451 549.196v-.081.024l13.809-.772 63.508-3.547.257-.016-.173 1.596-.365.012v.001c-22.562.814-63.163 2.276-63.163 2.276l-13.873.507Zm100.521-17.663.016-.081 6.861-41.775.515-3.097.008-.04.088-.201-.345 3.322s-2.868 27.03-4.444 41.775l-2.699.097Z"/><path fill="#BC6ABC" d="M469.487 546.413v-.002l.365-.012v.002l-.365.012Z"/><path fill="#2C4050" d="m469.852 546.401.173-1.597 4.183-.233h.008l5.775-.322c6.426-.362 11.252-2.155 11.606-4.328l1.263-7.689.112-.699 2.699-.097c-.527 4.923-.91 8.477-.994 9.2-.336 2.889-.437 4.887-12.426 5.319l-12.399.446"/><path fill="#33BFBF" d="m500.396 486.347-.024.193-.008.04-.515 3.097-6.861 41.775-.016.081-.112.699-1.263 7.689c-.354 2.172-5.18 3.966-11.606 4.328l-5.775.322h-.008l-4.183.233-.257.016-63.508 3.546-13.809.773v-.025a2.698 2.698 0 0 1 1.037-2.002l.032-.024 11.124-6.419 87.323-50.413 5.01-2.896.016-.008a7.472 7.472 0 0 1 3.403-1.005"/><path fill="#33BFBF" d="M392.451 549.139v-.025a2.698 2.698 0 0 1 1.037-2.002l.032-.024 11.124-6.419 87.323-50.413 5.01-2.896.016-.008a7.472 7.472 0 0 1 3.403-1.005l-.024.193-.008.04-.515 3.097-6.861 41.775-.016.081-.112.699-1.263 7.689c-.354 2.172-5.18 3.966-11.606 4.328l-5.775.322h-.008l-4.183.233-.257.016-63.508 3.546-13.809.773Z"/></svg>