<svg xmlns="http://www.w3.org/2000/svg" width="98" height="156" fill="none"><g clip-path="url(#a)"><path fill="#335863" d="m21.608 155.644-2.584-1.492c-.811-.468-1.473-1.612-1.473-2.549V44.533c0-.94.66-2.079 1.473-2.549L90.718.643c.814-.47 2.132-.47 2.946 0l2.584 1.49c.813.466 1.473 1.608 1.473 2.545v107.073c0 .937-.66 2.079-1.473 2.549l-71.695 41.344c-.813.47-2.132.468-2.945 0Z"/><path fill="#335863" d="M97.707 4.44c-.1-.76-.72-1.039-1.461-.611l-71.69 41.35c-.41.236-.768.632-1.042 1.094l-5.532-3.19c.265-.461.632-.862 1.042-1.101L90.718.64c.811-.467 2.132-.467 2.949 0l2.579 1.49c.749.427 1.369 1.428 1.462 2.31Z"/><path fill="#0A2B34" d="M24.303 155.761c-.816.348-1.959.308-2.693-.114l-2.586-1.495c-.811-.47-1.47-1.612-1.47-2.549V44.531c0-.468.162-.985.428-1.447l5.532 3.189c-.271.462-.436.985-.436 1.455v107.069c0 .842.531 1.23 1.225.964Z"/><path fill="#24444C" d="M23.08 47.725v107.069c0 .938.66 1.32 1.473.85L96.248 114.3c.813-.47 1.473-1.612 1.473-2.549V4.678c0-.937-.66-1.316-1.473-.85L24.553 45.177c-.813.47-1.473 1.61-1.473 2.55Z"/><path fill="#335863" d="M6.338 88.539c-.925-.552-5.221-2.993-5.445-3.12-.68-.414-.925-1.42-.292-2.1l16.953-18.165 5.524 3.168-16.945 18.17c-.611.652-.415 1.598.205 2.047Z"/><path fill="#24444C" d="M23.08 68.324 6.13 86.49c-.848.91-.13 2.39 1.112 2.286L23.08 87.47V68.324Z"/><path fill="#33BFBF" d="M60.4 35.641c8.355-4.82 15.128-.913 15.128 8.725 0 9.636-6.773 21.353-15.129 26.173-8.355 4.816-15.129.91-15.129-8.725 0-9.636 6.774-21.356 15.13-26.173Z"/><path fill="#fff" d="M60.293 43.224c2.712-1.563 4.91-.297 4.91 2.831 0 3.125-2.198 6.927-4.91 8.492-2.709 1.564-4.908.294-4.908-2.831 0-3.128 2.2-6.928 4.908-8.492ZM69.967 59.894c0-5.136-3.61-7.217-8.063-4.65l-2.786 1.607c-4.453 2.568-8.063 8.813-8.063 13.948v1.402a8.27 8.27 0 0 0 2.6.4c2.03.006 4.317-.663 6.744-2.062 3.632-2.095 6.963-5.491 9.568-9.453v-1.192Z"/><path fill="#33BFBF" d="m50.816 118.248 19.17-11.054c.813-.47 1.472-.09 1.472.85v6.165c0 .94-.66 2.079-1.472 2.549l-19.17 11.054c-.814.47-1.473.09-1.473-.849v-6.166c0-.94.66-2.079 1.473-2.549Z"/><path fill="#F9F9F8" d="m41.437 104.473 37.928-21.871c.978-.563 1.77-.106 1.77 1.02v2.293c0 1.126-.792 2.496-1.77 3.059l-37.93 21.874c-.977.563-1.769.106-1.769-1.02v-2.297c0-1.125.793-2.496 1.77-3.058ZM44.848 92.434l.991-.574a1.65 1.65 0 0 0 .582-.557c.147-.231.218-.531.218-.898 0-.366-.071-.579-.218-.637-.146-.056-.34-.016-.582.125l-.991.57v1.97Zm1.023-3.79c.516-.3.917-.342 1.204-.132.285.207.428.675.428 1.394 0 .722-.143 1.357-.428 1.901a3.097 3.097 0 0 1-1.204 1.267l-1.023.59v2.195a.494.494 0 0 1-.054.215.305.305 0 0 1-.12.149l-.518.297-.122-.005c-.034-.035-.05-.085-.05-.16V90c0-.072.016-.146.05-.218a.322.322 0 0 1 .122-.148l1.715-.988ZM50.71 90.174l-.705-2.398-.705 3.21 1.41-.812Zm-.354-4.118c.069-.04.122-.042.154-.005a.465.465 0 0 1 .09.199l1.569 5.318.005.064a.485.485 0 0 1-.05.215.316.316 0 0 1-.123.151l-.46.266c-.084.048-.146.056-.178.019l-.071-.123-.274-.932-2.023 1.166-.277 1.25a1.254 1.254 0 0 1-.069.205.42.42 0 0 1-.18.186l-.46.266-.123-.009c-.034-.034-.05-.084-.05-.156l.008-.075 1.565-7.124c.027-.127.056-.228.09-.302a.376.376 0 0 1 .155-.173l.702-.406ZM54.556 83.536c.287-.165.537-.25.755-.258a.913.913 0 0 1 .545.13.899.899 0 0 1 .33.396c.074.17.117.348.125.531a.458.458 0 0 1-.048.22.365.365 0 0 1-.125.147l-.45.257c-.071.043-.125.053-.162.032l-.1-.114a.513.513 0 0 0-.29-.263c-.13-.045-.325.005-.58.154-.111.064-.215.14-.316.237a1.697 1.697 0 0 0-.263.308 1.57 1.57 0 0 0-.176.352 1.134 1.134 0 0 0-.064.373c0 .15.02.262.061.334.04.071.11.114.205.127a1.2 1.2 0 0 0 .38-.029c.157-.032.354-.074.588-.133a2.47 2.47 0 0 1 .664-.08.752.752 0 0 1 .452.15c.12.095.208.228.263.406.06.177.088.398.088.669 0 .294-.042.592-.127.895-.086.302-.208.589-.367.86-.157.27-.351.526-.582.765a3.497 3.497 0 0 1-.774.602c-.24.139-.468.226-.686.264-.215.036-.41.02-.577-.051a.822.822 0 0 1-.407-.372c-.103-.175-.159-.406-.172-.688a.395.395 0 0 1 .047-.218.317.317 0 0 1 .126-.145l.446-.258c.075-.043.128-.056.167-.037.038.016.07.055.097.12.029.069.066.132.108.193a.323.323 0 0 0 .173.127.57.57 0 0 0 .271.006c.11-.021.245-.077.407-.17.128-.074.253-.162.372-.26a1.81 1.81 0 0 0 .53-.71c.055-.132.084-.275.084-.427 0-.143-.032-.244-.09-.302-.058-.056-.15-.082-.271-.077a2.097 2.097 0 0 0-.452.072 14.32 14.32 0 0 1-.62.132c-.215.042-.401.059-.56.042a.658.658 0 0 1-.397-.17.878.878 0 0 1-.233-.421 2.775 2.775 0 0 1-.078-.72c0-.295.043-.592.128-.89.085-.297.202-.579.353-.841.147-.266.328-.507.535-.728.204-.22.428-.4.667-.539ZM59.022 80.96c.287-.164.54-.249.755-.257a.922.922 0 0 1 .545.127.881.881 0 0 1 .33.396c.074.17.117.35.125.534a.401.401 0 0 1-.048.22.365.365 0 0 1-.125.146l-.45.258c-.07.042-.124.053-.162.031l-.098-.116a.53.53 0 0 0-.292-.26c-.13-.046-.322.005-.58.151a1.874 1.874 0 0 0-.316.239 1.597 1.597 0 0 0-.26.308 1.433 1.433 0 0 0-.179.353 1.135 1.135 0 0 0-.064.372c0 .15.022.26.062.332.04.074.109.117.204.13.096.013.224.002.38-.03.16-.031.354-.074.59-.132.256-.061.476-.088.663-.082a.763.763 0 0 1 .454.15.826.826 0 0 1 .26.407c.06.178.088.399.088.67 0 .294-.042.591-.127.894a3.72 3.72 0 0 1-.365.86c-.159.271-.35.526-.584.765a3.504 3.504 0 0 1-.774.603c-.24.138-.465.226-.683.262a1.042 1.042 0 0 1-.58-.05.845.845 0 0 1-.406-.372c-.101-.178-.16-.406-.173-.687a.442.442 0 0 1 .048-.218.332.332 0 0 1 .125-.146l.449-.257c.072-.043.125-.057.165-.038.04.016.07.056.096.12.029.069.066.133.108.193a.335.335 0 0 0 .173.128.585.585 0 0 0 .274.005c.11-.02.242-.076.404-.17.13-.074.253-.159.372-.26.12-.098.224-.207.314-.327.088-.121.162-.246.218-.382.056-.132.082-.276.082-.427 0-.143-.029-.244-.087-.303-.061-.055-.152-.082-.274-.08a2.34 2.34 0 0 0-.452.075c-.178.045-.386.088-.62.133-.212.042-.401.058-.56.042a.68.68 0 0 1-.396-.17.899.899 0 0 1-.234-.422 2.784 2.784 0 0 1-.077-.72c0-.295.042-.592.127-.889.085-.3.202-.58.354-.842a3.7 3.7 0 0 1 .534-.727c.207-.22.43-.401.667-.54ZM63.983 81.81l-.55 3.261a1.587 1.587 0 0 1-.08.287.336.336 0 0 1-.144.177l-.518.298c-.064.037-.114.037-.152-.005a.409.409 0 0 1-.072-.2l-.82-5.738-.006-.074a.54.54 0 0 1 .05-.218.319.319 0 0 1 .122-.148l.474-.274.122-.01c.037.018.064.071.077.162l.537 3.863.473-2.9c.011-.052.03-.122.062-.212a.373.373 0 0 1 .164-.204l.524-.303c.077-.045.13-.038.163.016l.06.14.473 2.356.54-4.482a.615.615 0 0 1 .075-.252l.122-.128.473-.273.123.007c.034.033.05.086.05.157l-.005.082-.82 6.684a.985.985 0 0 1-.074.284.353.353 0 0 1-.151.18l-.518.298c-.064.037-.112.034-.144-.008a.57.57 0 0 1-.08-.197l-.55-2.626ZM70.07 77.307c-.015-.462-.116-.77-.297-.927-.18-.154-.423-.146-.72.027-.298.173-.538.44-.721.804-.18.364-.282.787-.297 1.27a26.035 26.035 0 0 0 0 1.662c.015.465.116.77.297.92.183.152.423.142.72-.03.298-.17.54-.439.72-.797.182-.361.283-.784.298-1.267a25.922 25.922 0 0 0 0-1.662Zm-2.9 1.622a6.41 6.41 0 0 1 .139-1.118c.08-.369.196-.719.348-1.046.154-.33.345-.629.577-.903a3.05 3.05 0 0 1 .818-.684c.312-.181.583-.269.814-.263a.813.813 0 0 1 .577.239c.151.154.268.369.35.642.08.276.128.598.142.964.002.122.008.258.008.406a26.755 26.755 0 0 1 0 .935c0 .154-.006.292-.008.42a6.332 6.332 0 0 1-.139 1.117c-.08.372-.194.72-.348 1.05a3.991 3.991 0 0 1-.58.899 3.175 3.175 0 0 1-.816.677c-.316.181-.587.271-.819.266a.826.826 0 0 1-.576-.234c-.152-.151-.269-.366-.348-.645-.08-.279-.125-.6-.139-.959-.002-.122-.008-.257-.008-.409-.002-.148-.002-.305-.002-.464 0-.162 0-.319.002-.47 0-.151.006-.292.008-.42ZM72.963 76.12l.928-.533a1.71 1.71 0 0 0 .582-.534c.146-.215.218-.505.218-.874 0-.367-.072-.571-.218-.613-.144-.04-.338.01-.582.151l-.928.534v1.869Zm.96-3.653c.534-.308.938-.351 1.214-.13.28.22.418.668.418 1.346 0 .478-.072.926-.216 1.348-.143.42-.35.792-.63 1.116l.883 1.922.022.098-.043.176-.098.121-.545.314c-.086.048-.15.053-.19.013l-.087-.12-.837-1.81-.851.491v2.292a.49.49 0 0 1-.05.217.337.337 0 0 1-.123.15l-.518.299-.123-.01c-.034-.032-.05-.085-.05-.157v-6.357c0-.074.016-.146.05-.218a.307.307 0 0 1 .123-.148l1.65-.953ZM79.51 71.962a2.265 2.265 0 0 0-.079-.539.788.788 0 0 0-.2-.358.449.449 0 0 0-.326-.125c-.136 0-.293.053-.476.16l-.856.493v4.429l.888-.512c.175-.101.326-.226.454-.375.128-.148.234-.313.322-.497.085-.18.149-.374.194-.584a3.71 3.71 0 0 0 .08-.637c.016-.494.016-.98 0-1.455Zm-1.05-2.11c.317-.184.59-.277.822-.285a.787.787 0 0 1 .585.212c.154.146.273.361.359.648.082.287.13.632.149 1.036.018.475.018.96 0 1.457a7.26 7.26 0 0 1-.15 1.209 5.064 5.064 0 0 1-.355 1.062 3.781 3.781 0 0 1-.575.876c-.226.26-.494.478-.803.653l-1.61.932-.123-.01c-.034-.032-.05-.083-.05-.157v-6.357c0-.072.016-.146.05-.217a.32.32 0 0 1 .123-.15l1.579-.91Z"/></g><defs><clipPath id="a"><path fill="#fff" d="M0 0h98v156H0z"/></clipPath></defs></svg>