<svg width="81" height="62" viewBox="0 0 81 62" fill="none" xmlns="http://www.w3.org/2000/svg">
<path d="M79.9862 45.4282C79.9508 45.4232 79.9145 45.4201 79.8778 45.4172C79.935 45.2999 80.0109 45.1894 80.1022 45.09C80.0545 45.1983 80.0152 45.3118 79.9862 45.4282Z" fill="white"/>
<path d="M1.79909 57.2928L2.44944 61.87C17.5639 59.8478 30.9925 56.3973 42.3647 51.6145C52.7216 47.259 61.7719 41.6242 69.265 34.8673L69.3068 34.8292L76.7036 41.9993V25.1018L71.9805 25.1396C65.4538 30.9967 50.4927 43.1599 40.4678 47.3762C29.4933 51.9916 16.4834 55.328 1.79909 57.2928ZM2.34763 62L1.66479 57.1943L1.72379 57.1862C16.4216 55.2238 29.4411 51.8876 40.4204 47.2699C50.4391 43.0565 65.4038 30.8864 71.9166 25.0397L71.9333 25.0247L71.9565 25.0244L76.8227 24.9854V42.2783L69.304 34.9898C61.8097 41.7386 52.7619 47.3678 42.4124 51.7204C31.0154 56.5137 17.5556 59.9697 2.40666 61.9922L2.34763 62Z" fill="#29D3D3" fill-opacity="0.26"/>
<path d="M75.3728 21.1549H57.7375L64.4582 27.6698C57.3879 34.0166 48.8659 39.3077 39.0539 43.4342C28.0697 48.0539 15.0451 51.3915 0.341797 53.3546L1.00838 58.0462C16.1519 56.0242 29.6065 52.5697 40.9983 47.7787C51.3826 43.4114 60.4127 37.7865 67.9152 31.0207L75.3728 38.25V21.1549Z" fill="#29D3D3"/>
<path d="M65.5838 3.39678L65.4923 3.90668L65.4653 4.0353C65.4484 4.31284 65.1675 4.4912 64.8576 4.65877L64.3795 3.79541L64.6314 2.96215L65.0899 2.83255L65.521 3.32478L65.5838 3.39678Z" fill="#D28572"/>
<path d="M65.5838 3.39678L65.4924 3.90668C65.1936 3.73323 65.0258 3.48188 64.9019 3.12841L65.5211 3.32478L65.5838 3.39678Z" fill="#1B1B43"/>
<path d="M66.0447 2.29382C65.9517 2.6905 66.0348 3.27431 65.8632 3.46242C65.7069 3.6337 65.4152 3.52942 65.2439 3.43899C65.0111 3.31622 64.8259 3.1291 64.6931 2.90766C64.3846 2.39117 64.8245 2.04696 64.8245 2.04696L65.3958 1.80737L66.0447 2.29382Z" fill="#D28572"/>
<path d="M65.229 2.80747C65.2427 2.58766 65.1383 2.39116 65.3214 2.27359C66.1168 2.57267 66.0604 2.48041 66.5545 1.94919C66.5545 1.94919 66.2999 1.97917 66.0604 1.80698C65.821 1.63479 65.1493 1.1109 64.7246 1.93421C64.7246 1.93421 63.7956 2.21364 64.5831 3.12654C64.6731 2.94203 64.9964 2.88474 65.229 2.80747Z" fill="#1B1B43"/>
<path d="M65.3032 2.71264C65.3032 2.83117 65.2045 2.92722 65.0822 2.92722C64.9596 2.92722 64.8608 2.83117 64.8608 2.71264C64.8608 2.59445 64.9596 2.49839 65.0822 2.49839C65.2045 2.49839 65.3032 2.59445 65.3032 2.71264Z" fill="#D28572"/>
<path d="M70.6699 2.05402C70.752 2.34874 70.7609 2.64596 70.7317 2.94462L70.8397 3.86535L69.9749 3.6556L69.9283 3.01956C69.7123 2.80981 69.5888 2.28599 69.5732 2.2634L70.6699 2.05402Z" fill="#D28572"/>
<path d="M73.9806 1.81575L72.5299 2.03643L66.7754 2.90931L66.6941 2.49776L72.3743 1.24842L73.8063 0.933442L73.9806 1.81575Z" fill="#29D3D3"/>
<path d="M73.9807 1.81576L72.53 2.03643L72.3744 1.24843L73.8064 0.933449L73.9807 1.81576Z" fill="#1B1B43"/>
<path d="M69.9748 1.82205C69.9748 1.8839 69.8916 1.93408 69.7896 1.93408C69.6871 1.93408 69.604 1.8839 69.604 1.82205C69.604 1.75985 69.6871 1.70967 69.7896 1.70967C69.8916 1.70967 69.9748 1.75985 69.9748 1.82205Z" fill="#D28572"/>
<path d="M70.2681 1.71739C70.2681 1.77919 70.1849 1.82962 70.0827 1.82962C69.9805 1.82962 69.8973 1.77919 69.8973 1.71739C69.8973 1.65525 69.9805 1.60517 70.0827 1.60517C70.1849 1.60517 70.2681 1.65525 70.2681 1.71739Z" fill="#D28572"/>
<path d="M70.5997 1.66504C70.5997 1.72718 70.5168 1.77753 70.4144 1.77753C70.3124 1.77753 70.2291 1.72718 70.2291 1.66504C70.2291 1.60326 70.3124 1.55291 70.4144 1.55291C70.5168 1.55291 70.5997 1.60326 70.5997 1.66504Z" fill="#D28572"/>
<path d="M70.0984 2.53283C70.0984 2.67544 70.2002 2.79498 70.083 2.79498C69.9656 2.79498 69.8514 2.72049 69.8514 2.57789C69.8514 2.43528 69.6992 2.24515 69.8053 2.19619C69.967 2.12134 70.0984 2.39023 70.0984 2.53283Z" fill="#D28572"/>
<path d="M69.9644 3.51843L70.7882 3.43133L70.8241 3.73565L69.9644 3.51843Z" fill="#1B1B43"/>
<path d="M71.1076 3.81081C71.1076 3.81081 71.1076 7.22377 69.11 6.98428C68.9803 6.9688 68.8529 6.95079 68.7284 6.93026C68.0575 6.81898 67.4794 6.64288 67.0455 6.48262C66.5083 6.28491 66.1921 6.11133 66.1921 6.11133L65.4655 4.03481C66.9147 4.38918 68.2354 4.78784 69.2188 5.30175L69.866 3.49101L71.1076 3.81081Z" fill="#FFB147"/>
<path d="M68.7284 6.93024C68.0574 6.81918 67.4792 6.64307 67.0455 6.48254L67.0866 5.91616C67.9078 6.1113 68.4825 6.56869 68.7284 6.93024Z" fill="#1B1B43"/>
<path d="M69.249 10.6614L67.4009 9.67842L65.4653 4.03524C67.3051 5.97401 68.8424 8.28141 69.249 10.6614Z" fill="#BF8535"/>
<path d="M69.7822 19.059L69.5864 21.1547H71.9219L71.0345 20.1667L71.0736 18.9093L69.7822 19.059Z" fill="#1B1B43"/>
<path d="M70.6145 20.6393L70.5291 20.5527L70.9917 20.1236L71.0771 20.2101L70.6145 20.6393Z" fill="white"/>
<path d="M65.6201 9.98782L65.9753 11.934L69.2336 13.4306V19.7478L71.5807 19.5182L71.732 13.839C71.753 12.8832 71.2773 11.9813 70.4655 11.4382L68.0287 9.80839" fill="#33535F"/>
<path d="M67.0712 11.7044C67.3993 12.0442 67.6153 12.3909 67.6994 12.7222L66.953 12.3831L67.0712 11.7044Z" fill="#1B1B43"/>
<path d="M66.159 2.93215C66.1426 2.97482 66.0631 3.03833 65.9556 3.02576C65.8724 3.01584 65.7864 2.87657 65.7864 2.77502C65.7864 2.67347 65.8543 2.59077 65.9386 2.59077C66.0638 2.59077 66.1744 2.89212 66.159 2.93215Z" fill="#D28572"/>
<path d="M63.6922 19.2437L63.2026 21.1597H65.663L64.8387 20.2167L64.9419 19.2588L63.6922 19.2437Z" fill="#1B1B43"/>
<path d="M64.4559 20.7063L64.3652 20.625L64.7936 20.176L64.8842 20.2571L64.4559 20.7063Z" fill="white"/>
<path d="M67.2721 9.85304C67.008 13.0454 66.1638 16.4396 65.3728 19.9273L63.1183 19.8974C63.9736 16.193 64.3293 12.7783 64.261 9.8382L67.2721 9.85304Z" fill="#33535F"/>
<path d="M65.4655 4.03504C65.2592 4.30269 64.8709 4.16425 64.3794 3.79543L65.2183 10.422C66.1566 10.3481 67.0932 10.127 68.0287 9.80838L65.4655 4.03504Z" fill="white"/>
<path d="M66.1664 11.3552L63.5508 12.4724C63.3038 9.53858 62.8099 7.62232 62.5933 5.28717C62.5073 4.35304 64.3799 3.79508 64.3799 3.79508C65.1126 4.65967 65.5956 5.71466 65.8795 6.92065C65.9796 7.34582 66.0551 7.7902 66.1083 8.25246C66.2194 9.21772 66.2317 10.2571 66.1664 11.3552Z" fill="#FFB147"/>
<path d="M65.4655 4.03519C67.2169 6.27316 68.6177 8.49016 69.2489 10.6614C69.3416 8.34122 67.6472 5.73019 65.4655 4.03519Z" fill="#FFB147"/>
<path d="M67.2208 3.48185L67.4139 2.99401C67.4139 2.99401 67.2408 2.42107 67.405 2.34979C67.5692 2.27887 68.1313 2.17888 68.2734 2.1685C68.4151 2.15812 68.6156 1.93981 68.6717 1.96852C68.7284 1.99724 68.6717 2.40273 68.4086 2.42833C68.4086 2.42833 68.3565 3.24831 68.1024 3.20748L67.9025 3.95861L67.2208 3.48185Z" fill="#D28572"/>
<path d="M66.1083 8.25223C65.2511 8.22117 64.186 7.65586 63.6127 6.90387L65.8796 6.92072C65.9795 7.34594 66.0551 7.79 66.1083 8.25223Z" fill="#1B1B43"/>
<path d="M63.5506 5.15283L65.5122 5.7965L67.1335 3.38644L68.2142 4.05994C68.2142 4.05994 67.195 8.01179 65.3728 7.63766C63.719 7.29782 63.3348 6.75429 63.3348 6.75429L63.5506 5.15283Z" fill="#FFB147"/>
<path d="M65.5224 5.82474L63.5431 5.17506L63.5591 5.12995L65.502 5.76751L67.1129 3.37314L67.1542 3.39939L65.5224 5.82474Z" fill="#1B1B43"/>
<path d="M67.2317 3.44619L67.9904 3.63168L67.9266 3.87865L67.2317 3.44619Z" fill="#1B1B43"/>
<path d="M50.8287 38.6453L51.0119 40.377L53.7162 39.8423L52.3078 39.142L51.8711 38.3144L50.8287 38.6453Z" fill="#1B1B43"/>
<path d="M52.2053 39.5503L52.1001 39.5107L52.255 39.1224L52.3602 39.1616L52.2053 39.5503Z" fill="white"/>
<path d="M52.4006 38.5598L50.4759 39.0897C50.0827 36.3329 49.9001 33.4787 49.517 30.9476C49.4696 30.6308 49.419 30.3196 49.3639 30.0138L49.2951 29.8402L48.9141 28.8757L49.5879 28.632L51.1521 28.0683C51.2105 28.2999 51.2671 28.5448 51.321 28.8024C51.8417 31.2939 52.1232 34.9127 52.4006 38.5598Z" fill="#FE5B52"/>
<path d="M51.8427 38.3152C51.7393 35.5223 51.5499 31.9829 50.9982 29.3822L51.0536 29.3712C51.6059 31.9759 51.7956 35.5182 51.8993 38.3132L51.8427 38.3152Z" fill="#BE443D"/>
<path d="M47.082 39.3121L46.9974 40.4316L46.3215 42.466L48.209 41.1553L48.3216 39.0117L47.082 39.3121Z" fill="#1B1B43"/>
<path d="M47.4146 40.803L46.9639 40.4752L47.0315 40.3877L47.4822 40.7155L47.4146 40.803Z" fill="white"/>
<path d="M49.5891 28.5664C49.5891 28.5884 49.5891 28.6103 49.5879 28.632C49.587 29.0013 49.5802 29.366 49.5689 29.7264C49.5576 30.1382 49.5397 30.5448 49.517 30.9476C49.3538 33.9482 48.9311 36.7293 48.5468 39.626L46.6549 39.8018C46.9671 36.2901 47.1858 33.2251 47.1429 30.5425C47.1339 29.9953 47.1137 29.4645 47.0821 28.9488L49.5891 28.5664Z" fill="#FE5B52"/>
<path d="M49.4521 32.2179L49.4071 32.2153L49.5385 30.2309L49.5835 30.2338L49.4521 32.2179Z" fill="#1B1B43"/>
<path d="M47.2226 39.0634L47.1666 39.0597C47.3692 36.2217 47.5989 33.0051 47.5044 30.0328L47.561 30.0311C47.6552 33.0063 47.4255 36.2243 47.2226 39.0634Z" fill="#BE443D"/>
<path d="M51.321 28.8024C50.8116 29.1399 50.2269 29.4481 49.5688 29.7264C49.4786 29.766 49.3874 29.8029 49.2951 29.8402C48.6439 30.1001 47.926 30.3349 47.1428 30.5425C47.1339 29.9953 47.1136 29.4645 47.082 28.9488L49.5891 28.5664C49.5891 28.5884 49.5891 28.6103 49.5879 28.632L51.1521 28.0683C51.2105 28.2999 51.2671 28.5448 51.321 28.8024Z" fill="#BE443D"/>
<path d="M41.3176 21.5139L41.0051 20.8904C40.9824 20.8457 40.9655 20.7989 40.9547 20.7501C40.9208 20.5991 40.8305 20.2546 40.7191 20.3086C40.6402 20.3467 40.7057 20.9017 40.7057 20.9017C40.7057 20.9017 40.3243 19.9069 40.1993 19.9641C40.0743 20.0215 40.4165 20.9525 40.4165 20.9525C40.4165 20.9525 39.7849 21.2141 40.0414 21.6222C40.298 22.0302 40.8177 22.1705 40.8177 22.1705L41.3176 21.5139Z" fill="#FFBC96"/>
<path d="M40.3545 21.2574C40.4191 21.3331 40.5097 21.4373 40.6157 21.4573C40.6625 21.4659 40.6935 21.4397 40.692 21.3937C40.6905 21.3357 40.6547 21.2748 40.6276 21.2245C40.6014 21.1754 40.5731 21.1246 40.5386 21.0801C40.5171 21.0524 40.4683 21.0796 40.49 21.1079C40.5418 21.1746 40.5868 21.2551 40.6181 21.3331C40.6249 21.3507 40.6345 21.3712 40.6354 21.3903C40.636 21.4111 40.6407 21.405 40.6223 21.4024C40.5332 21.3906 40.4474 21.2808 40.3944 21.219C40.3711 21.1919 40.3315 21.2306 40.3545 21.2574Z" fill="#D28572"/>
<path d="M40.2137 21.4076C40.2782 21.4833 40.3689 21.5878 40.475 21.6074C40.5217 21.6161 40.5527 21.5898 40.5515 21.5442C40.5497 21.4859 40.514 21.4249 40.4869 21.3747C40.4607 21.3256 40.4324 21.2748 40.3981 21.2303C40.3764 21.2026 40.3275 21.2297 40.3492 21.258C40.4011 21.3247 40.4464 21.4053 40.4773 21.4833C40.4842 21.5009 40.4937 21.5214 40.4946 21.5404C40.4955 21.5612 40.5 21.5552 40.4815 21.5526C40.3924 21.5407 40.3066 21.4313 40.2535 21.3692C40.2304 21.3421 40.1907 21.3807 40.2137 21.4076Z" fill="#D28572"/>
<path d="M40.0574 21.5225C40.1156 21.5887 40.1952 21.6767 40.2886 21.6946C40.3322 21.703 40.3622 21.6788 40.3604 21.6354C40.3584 21.584 40.3262 21.5303 40.3017 21.4861C40.2788 21.4449 40.2546 21.4027 40.225 21.3654C40.2032 21.338 40.1542 21.3652 40.1764 21.3932C40.2216 21.4498 40.2612 21.5185 40.2886 21.5852C40.295 21.6008 40.3013 21.617 40.304 21.6334C40.3064 21.6484 40.3122 21.6438 40.2962 21.6403C40.2161 21.6224 40.1479 21.5416 40.0972 21.4838C40.0737 21.457 40.034 21.4957 40.0574 21.5225Z" fill="#D28572"/>
<path d="M50.6597 28.9444L47.7952 29.6609C47.357 29.7712 46.9197 29.483 46.8634 29.0481L46.5354 26.5173L46.4499 25.8566L46.4252 25.6632L47.8336 23.3146L48.7958 22.9314L51.1012 23.8971L51.4134 27.9231C51.4494 28.3961 51.1327 28.8255 50.6597 28.9444Z" fill="#33535F"/>
<path d="M46.9885 25.863C46.8893 26.1503 46.7327 26.3611 46.5354 26.5173L46.45 25.8566L46.9885 25.863Z" fill="white"/>
<path d="M47.6454 25.7175C45.5419 26.8463 42.6688 25.1168 40.4337 22.2404L41.4293 21.3117C43.8693 23.8376 45.7862 24.9257 48.2277 22.9866L47.6454 25.7175Z" fill="#33535F"/>
<path d="M53.1846 26.5488C54.3586 26.3097 52.5293 24.4524 51.4688 23.4778C51.0544 23.0969 50.5006 22.8919 49.9296 22.9052L48.7964 22.9314L52.3839 26.3626L53.1846 26.5488Z" fill="#33535F"/>
<path d="M52.0696 26.3617C52.0136 26.4743 52.0235 26.5777 52.1131 26.6724C52.2251 26.7908 52.3747 26.9343 52.5531 26.926C52.7012 26.9187 52.8141 27.0741 52.9642 26.9906C53.0872 26.9225 53.1465 26.7666 53.19 26.6435C53.2707 26.4148 53.2326 26.178 53.0232 26.0282C52.8319 25.8913 52.5671 25.7833 52.3428 25.9144C52.2621 25.9618 52.1992 26.0337 52.156 26.1142C52.1283 26.1662 52.1212 26.2237 52.1048 26.2791C52.0961 26.3086 52.0827 26.3354 52.0696 26.3617Z" fill="#FFBC96"/>
<path d="M48.6862 24.1685C48.4631 24.1685 48.2141 24.1151 47.9376 24.0082L47.9543 23.9678C48.6978 24.2549 49.2358 24.1471 49.599 23.6386L49.6359 23.6635C49.3952 24.0007 49.0812 24.1685 48.6862 24.1685Z" fill="white"/>
<path d="M51.1667 24.7253L51.2043 25.2349L51.4486 25.4807C51.5049 25.2806 51.3452 24.9439 51.1667 24.7253Z" fill="white"/>
<path d="M50.1707 25.0137C50.1233 25.0137 50.0786 25.0363 50.0584 25.0706C50.0119 25.1489 50.0566 25.2525 50.1245 25.3039C50.1325 25.31 50.1412 25.3158 50.1501 25.3213C50.1739 25.2953 50.1963 25.2679 50.2168 25.2393C50.2526 25.1893 50.2892 25.1183 50.2621 25.062C50.2422 25.021 50.1957 25.0146 50.1766 25.0137H50.1707ZM49.1453 25.2294C49.1105 25.2294 49.0738 25.2442 49.0503 25.2719C49.014 25.3143 49.0065 25.3831 49.0315 25.4426C49.0497 25.485 49.0789 25.5179 49.1129 25.5433L49.1188 25.5381C49.1632 25.4997 49.2126 25.4538 49.235 25.3961C49.2535 25.3478 49.2493 25.2814 49.2049 25.2479C49.1882 25.2352 49.1674 25.2294 49.1453 25.2294ZM47.9913 25.4896C47.98 25.4896 47.9678 25.4914 47.9555 25.4948C47.9156 25.5061 47.8814 25.5341 47.8662 25.5685C47.8376 25.6326 47.8596 25.7183 47.9195 25.7769C47.9377 25.7949 47.9591 25.8107 47.9838 25.8246C47.9973 25.811 48.0101 25.7969 48.0226 25.7819C48.0661 25.7296 48.0905 25.6822 48.097 25.6372C48.1039 25.5924 48.0908 25.5344 48.0467 25.5055C48.0306 25.4948 48.0118 25.4896 47.9913 25.4896ZM46.9966 26.1789C46.9287 26.1789 46.8611 26.1775 46.7941 26.1763L46.7953 26.1217C47.0151 26.1258 47.243 26.1307 47.4613 26.0859C47.6034 26.0571 47.792 25.9953 47.9421 25.8639C47.9186 25.8497 47.8978 25.8335 47.8793 25.8154C47.8024 25.74 47.7765 25.6323 47.8143 25.5468C47.8364 25.4974 47.8832 25.4581 47.9398 25.4423C47.9895 25.4284 48.0398 25.435 48.0783 25.4602C48.1346 25.4974 48.1641 25.5699 48.153 25.6447C48.1447 25.6998 48.1164 25.7559 48.0664 25.8162C48.0568 25.8275 48.047 25.8387 48.0372 25.8494C48.069 25.8616 48.1048 25.8711 48.1441 25.878C48.4354 25.9297 48.7697 25.8208 49.0697 25.5791C49.0291 25.5468 48.9985 25.5075 48.9794 25.4633C48.946 25.3842 48.9568 25.2956 49.0071 25.237C49.0646 25.1694 49.1733 25.1547 49.2395 25.2049C49.3083 25.2569 49.3127 25.3504 49.2874 25.4154C49.2621 25.4815 49.2103 25.5318 49.1623 25.5737C49.2451 25.6155 49.3387 25.6262 49.3774 25.6288C49.6464 25.6473 49.9195 25.5451 50.1105 25.3614C50.1033 25.3568 50.0965 25.3522 50.0899 25.347C50.0015 25.2803 49.9472 25.1486 50.0095 25.0435C50.0414 24.9895 50.1078 24.9557 50.179 24.9592C50.2401 24.9618 50.2904 24.9915 50.3131 25.0389C50.3437 25.1021 50.3265 25.1821 50.263 25.2705C50.2442 25.2967 50.224 25.3219 50.2025 25.3461C50.2571 25.3666 50.322 25.375 50.403 25.375C50.7087 25.3709 51.0137 25.2222 51.199 24.9869L51.244 25.0201C51.0482 25.2684 50.7262 25.4255 50.4036 25.4296C50.3062 25.4298 50.2273 25.4174 50.162 25.3888C49.9589 25.5901 49.6642 25.7042 49.3735 25.6831C49.2734 25.6765 49.1861 25.6513 49.1176 25.6118C48.8019 25.8705 48.4456 25.9869 48.134 25.9317C48.0818 25.9225 48.0354 25.9089 47.9946 25.8913C47.8331 26.0397 47.627 26.1079 47.473 26.1394C47.3157 26.1717 47.1554 26.1789 46.9966 26.1789Z" fill="white"/>
<path d="M49.0437 21.4223C49.0437 21.9311 48.5206 22.7746 47.9957 22.7746C47.4708 22.7746 47.1399 22.2967 47.2221 21.7943C47.3013 21.31 47.6609 20.9615 48.1298 20.9202C48.52 20.8858 49.0437 21.0325 49.0437 21.4223Z" fill="#1B1B43"/>
<path d="M49.1158 23.2011C49.1158 23.3923 48.991 23.5705 48.7938 23.636C48.548 23.7177 48.2799 23.5921 48.1932 23.3542C48.0625 22.997 47.8989 22.5436 47.8989 22.5272L48.3848 22.5087L48.8939 22.4902L49.0664 22.9849L49.0902 23.0527C49.1069 23.1018 49.1158 23.152 49.1158 23.2011Z" fill="#FFBC96"/>
<path d="M49.0663 22.9849C48.8197 22.9849 48.4783 22.8922 48.1155 22.6955L48.3848 22.5087L48.8939 22.4902L49.0663 22.9849Z" fill="#1B1B43"/>
<path d="M48.8191 21.2482C49.2794 21.9309 49.9273 22.9776 48.1149 22.6955L47.8075 22.4018L47.8286 21.4394L48.8191 21.2482Z" fill="#FFBC96"/>
<path d="M48.0324 22.2372C47.9341 22.0518 47.9302 21.8486 47.9835 21.6349C48.3878 21.6499 48.7575 21.5699 48.9767 21.3337L48.739 21.1388L47.9409 21.1919L47.551 21.6112L47.4598 22.1723L48.0324 22.2372Z" fill="#1B1B43"/>
<path d="M47.4505 22.2658C47.3886 22.6034 47.0561 22.8278 46.7082 22.7677C46.3602 22.7076 46.1285 22.3854 46.1904 22.0478C46.2527 21.7105 46.5851 21.4859 46.9331 21.5462C47.281 21.6063 47.5128 21.9285 47.4505 22.2658Z" fill="#1B1B43"/>
<path d="M48.1667 22.3268C48.1667 22.4737 48.0437 22.593 47.8921 22.593C47.7402 22.593 47.6174 22.4737 47.6174 22.3268C47.6174 22.1798 47.7402 22.0605 47.8921 22.0605C48.0437 22.0605 48.1667 22.1798 48.1667 22.3268Z" fill="#FFBC96"/>
<path d="M36.2722 43.7013L36.1721 45.3713L38.8216 45.2656L37.5964 44.3921L37.313 43.5422L36.2722 43.7013Z" fill="#1B1B43"/>
<path d="M37.1151 44.8226L37.0485 44.7398L37.563 44.3508L37.6296 44.4337L37.1151 44.8226Z" fill="white"/>
<path d="M37.8622 44.077L37.9498 38.9817C37.962 38.2714 37.4856 37.6392 36.7834 37.4348L33.0175 36.3375L31.5425 36.2849L32.0161 39.0135L35.521 39.7481L35.8729 44.077H37.8622Z" fill="#33535F"/>
<path d="M32.3679 45.8876L32.6251 46.5697L32.598 47.6583L34.4249 47.0814L33.64 46.3597L33.3964 45.4547L32.3679 45.8876Z" fill="#1B1B43"/>
<path d="M32.7061 46.6381L32.6792 46.5365L33.5227 46.3265L33.5497 46.4282L32.7061 46.6381Z" fill="white"/>
<path d="M33.897 45.6381L32.0566 46.2153C30.8462 44.0274 30.0917 41.2621 29.3219 37.4232C29.2461 37.0412 29.1693 36.6488 29.0924 36.2456L30.5713 35.9066L31.8401 35.6161L31.9516 36.1616L32.1703 37.2257L33.897 45.6381Z" fill="#33535F"/>
<path d="M32.3489 45.8977C31.4035 44.2416 30.5758 41.7097 29.7439 37.9292L29.7863 37.9205C30.6172 41.6964 31.4436 44.2249 32.3868 45.8772L32.3489 45.8977Z" fill="#1B1B43"/>
<path d="M32.1704 37.2257L32.0533 36.6566C32.3253 36.6774 32.5841 36.6895 32.8275 36.6918C33.114 36.6748 33.3121 36.6034 33.4311 36.4666C33.2451 36.8165 32.7806 37.0655 32.1704 37.2257Z" fill="white"/>
<path d="M36.3532 31.5231L36.1435 31.0574C36.1435 31.0574 36.2051 30.2866 35.6282 30.2849C35.5736 30.2846 35.5199 30.2988 35.4724 30.3248C35.3792 30.3756 35.2157 30.4801 35.1389 30.6205C35.0769 30.7342 35.1024 30.8743 35.1952 30.9661L35.4803 31.2477L35.5525 31.5777L36.3532 31.5231Z" fill="#D28572"/>
<path d="M32.4175 30.736L33.0254 30.8769C33.7144 31.0369 34.3596 31.4507 34.8714 31.9254L35.7735 32.7825L35.8097 34.7065L33.4821 32.7475L32.4175 30.736Z" fill="#516FC1"/>
<path d="M36.5062 34.8394C36.4975 34.8425 36.4888 34.8437 36.4802 34.8457L36.3687 34.8677C36.3373 34.874 36.307 34.8772 36.2756 34.8783C35.9627 34.8971 35.6747 34.6883 35.6109 34.3819L35.4312 31.4527L36.4769 31.2953L36.8786 33.5318L36.9154 33.7406L36.9825 34.1122C37.0507 34.4406 36.8396 34.7608 36.5062 34.8394Z" fill="#516FC1"/>
<path d="M34.0854 32.6392L34.0222 33.2023L34.4192 33.5312C34.4372 33.2341 34.3159 32.9043 34.0854 32.6392Z" fill="white"/>
<path d="M36.2756 34.8783C36.1976 34.7449 36.1543 34.5919 36.1543 34.429C36.1543 33.9956 36.4629 33.6314 36.8786 33.5318L36.9154 33.7406C36.6014 33.8214 36.3708 34.0995 36.3708 34.429C36.3708 34.5812 36.4206 34.7238 36.5062 34.8394C36.4975 34.8425 36.4888 34.8437 36.4802 34.8457L36.3687 34.8677C36.3373 34.874 36.307 34.8772 36.2756 34.8783Z" fill="white"/>
<path d="M34.2218 31.9554L33.8895 34.0701L33.8559 34.2791L33.635 35.6811L33.6026 35.891L33.5582 36.1732C33.5062 36.5058 33.2745 36.6655 32.8274 36.6918C31.8011 36.6823 30.502 36.4954 29.0924 36.2456L29.2104 35.7568L29.2592 35.5509L29.5937 34.1645L29.6424 33.9577L30.2162 31.5757L31.8314 30.6921L32.4171 30.736L34.2218 31.9554Z" fill="#516FC1"/>
<path d="M32.3243 31.8162C32.2887 31.8162 32.2529 31.8145 32.217 31.811C31.8809 31.7775 31.6009 31.5953 31.4288 31.2973L31.4666 31.2768C31.6316 31.5624 31.8997 31.7371 32.2214 31.7692C32.5245 31.7989 32.8238 31.6947 33.0011 31.4963L33.0339 31.5237C32.8685 31.7088 32.6035 31.8162 32.3243 31.8162Z" fill="white"/>
<path d="M29.8013 33.2722L30.108 32.835C30.2433 33.248 30.1157 33.5309 29.7111 33.6768L29.8013 33.2722Z" fill="white"/>
<path d="M33.6027 35.891C33.1869 35.7911 32.8773 35.4261 32.8773 34.9927C32.8773 34.4827 33.306 34.0681 33.8322 34.0681C33.8517 34.0681 33.8712 34.0692 33.8896 34.0701L33.856 34.2791C33.8484 34.278 33.8397 34.278 33.8322 34.278C33.4251 34.278 33.0939 34.5991 33.0939 34.9927C33.0939 35.321 33.3234 35.5982 33.6352 35.6811L33.6027 35.891Z" fill="white"/>
<path d="M29.9906 35.6534L29.8585 35.4859C30.0752 35.3612 30.2206 35.1322 30.2206 34.8708C30.2206 34.513 29.9488 34.215 29.5938 34.1645L29.6425 33.9577C30.0928 34.0325 30.4371 34.4134 30.4371 34.8708C30.4371 35.1997 30.2587 35.4894 29.9906 35.6534Z" fill="white"/>
<path d="M30.062 36.2661L30.416 36.641C30.416 36.641 31.1679 36.8988 30.9355 37.4108C30.9135 37.4593 30.8785 37.5012 30.8347 37.5327C30.7489 37.5948 30.584 37.697 30.4205 37.7083C30.2883 37.7172 30.1664 37.6375 30.1176 37.5182L29.9677 37.1512L29.6857 36.9534L30.062 36.2661Z" fill="#D28572"/>
<path d="M28.9528 34.3389L30.541 36.3508L29.6327 37.1556L27.9752 35.4178C27.8929 35.3305 27.8226 35.2373 27.7652 35.1374C27.7295 35.0756 27.6992 35.0115 27.6743 34.9465C27.5173 34.5497 27.5422 34.0984 27.7609 33.7143C27.7738 33.6903 27.788 33.6672 27.8031 33.6441L27.8724 33.5359L28.6703 32.2965C29.1033 31.6251 29.7875 31.1411 30.5789 30.9459L31.8942 30.6228L28.9528 34.3389Z" fill="#516FC1"/>
<path d="M30.5336 36.356L28.9458 34.3447L28.9605 34.3337L30.5483 36.3453L30.5336 36.356Z" fill="#1B1B43"/>
<path d="M27.7652 35.1374C27.7295 35.0756 27.6992 35.0115 27.6743 34.9465C27.9179 34.8301 28.0846 34.5875 28.0846 34.3063C28.0846 34.0597 27.9558 33.8434 27.7609 33.7143C27.7739 33.6903 27.788 33.6672 27.8031 33.6441L27.8724 33.5359C28.1312 33.7007 28.3011 33.984 28.3011 34.3063C28.3011 34.6716 28.0824 34.9875 27.7652 35.1374Z" fill="white"/>
<path d="M32.925 30.3057L32.9163 30.3372L32.7723 30.8336L32.7333 30.9681C32.6445 31.2713 32.3014 31.4937 32.0015 31.2777C31.7774 31.116 31.6291 30.7865 31.7146 30.5304C31.7168 30.524 31.9852 29.7149 31.9852 29.7149L32.925 30.3057Z" fill="#D28572"/>
<path d="M32.9163 30.3372L32.7723 30.8336C32.467 30.6837 32.2689 30.3834 32.1173 30.014L32.9163 30.3372Z" fill="#1B1B43"/>
<path d="M33.3219 29.3259C33.3896 29.7917 33.5182 30.3427 32.9227 30.4605C32.5322 30.5382 31.8582 30.0138 31.8582 29.5379C31.8582 29.0623 32.3618 28.7068 32.7603 28.7157C33.3355 28.729 33.2229 28.6438 33.3219 29.3259Z" fill="#D28572"/>
<path d="M31.9845 29.5774C31.9697 29.392 31.9839 29.2225 32.1108 29.114C32.5208 29.1697 32.9667 29.1359 33.4189 29.0308C33.4285 29.0285 33.4093 28.9115 33.4079 28.9034C33.3901 28.8061 33.3527 28.7117 33.2952 28.6297C33.0752 28.3158 32.64 28.2843 32.285 28.3236C32.036 28.351 31.8122 28.4963 31.6945 28.7114C31.5579 28.9609 31.605 29.2349 31.6993 29.4902C31.7115 29.5231 31.7245 29.5558 31.7379 29.5881C31.7419 29.5976 31.7459 29.6072 31.7499 29.6167L31.9845 29.5774Z" fill="#1B1B43"/>
<path d="M32.165 29.69C32.165 29.822 32.0544 29.9294 31.918 29.9294C31.7816 29.9294 31.671 29.822 31.671 29.69C31.671 29.5578 31.7816 29.4504 31.918 29.4504C32.0544 29.4504 32.165 29.5578 32.165 29.69Z" fill="#D28572"/>
</svg>
