<svg width="42" height="40" viewBox="0 0 42 40" fill="none" xmlns="http://www.w3.org/2000/svg">
<rect width="42" height="38" rx="4" fill="#6659FF"/>
<path d="M27.25 38.125H38.5L38.2223 36.1813C38.1152 35.4312 37.8277 34.7182 37.3847 34.1034C36.9416 33.4887 36.3561 32.9905 35.6783 32.6516L24.125 26.875H17.875L6.32172 32.6516C5.64394 32.9905 5.05843 33.4887 4.61535 34.1034C4.17227 34.7182 3.88483 35.4312 3.77766 36.1813L3.5 38.125H14.75" fill="white"/>
<path d="M17.875 26.875L12.875 29.375L14.75 33.125L17.875 30.625V26.875Z" fill="#B1AAFF"/>
<path d="M17.25 38.125H14.75L12.875 32.5L17.25 30.625V38.125Z" fill="#6659FF"/>
<path d="M24.125 26.875L29.125 29.375L27.25 33.125L24.125 30.625V26.875Z" fill="#B1AAFF"/>
<path d="M24.75 38.125H27.25L29.125 32.5L24.75 30.625V38.125Z" fill="#6659FF"/>
<path d="M24.125 24.375V25.9094C24.1188 25.9141 24.1117 25.918 24.1055 25.9227C23.1854 26.5456 22.0993 26.8774 20.9882 26.8751C19.8771 26.8727 18.7924 26.5362 17.875 25.9094V24.375H24.125Z" fill="#E6AF89"/>
<path d="M17.875 24.375V26.875L17.25 28.75L21 32.5L24.75 28.75L24.125 26.875V24.375H17.875Z" fill="#FDC9A6"/>
<path d="M24.125 24.375V25.9094C24.1188 25.9141 24.1117 25.918 24.1055 25.9227C23.1854 26.5456 22.0993 26.8774 20.9882 26.8751C19.8771 26.8727 18.7924 26.5362 17.875 25.9094V24.375H24.125Z" fill="#E6AF89"/>
<path d="M24.75 28.75L21 32.5L17.25 28.75V38.125H24.75V28.75Z" fill="#373333"/>
<path d="M12.875 15.625V9.99828C12.875 9.40438 12.992 8.81629 13.2193 8.2676C13.4465 7.7189 13.7797 7.22034 14.1996 6.80039L15.3004 5.69961C15.7203 5.27966 16.2189 4.94653 16.7676 4.71925C17.3163 4.49198 17.9044 4.375 18.4983 4.375H21.9549C22.7948 4.37501 23.6181 4.60889 24.3326 5.05045C25.047 5.492 25.6244 6.12378 26 6.875C26.5768 6.87501 27.1446 7.0174 27.6531 7.28955C28.1617 7.5617 28.5951 7.95519 28.9151 8.43508C29.052 8.64041 29.125 8.88166 29.125 9.12844V15.625H12.875Z" fill="#55300B"/>
<path d="M21 25.625C19.893 25.625 18.8114 25.2933 17.8948 24.6727C16.9781 24.0521 16.2684 23.171 15.8573 22.1432C15.1258 20.3146 14.75 18.3631 14.75 16.3935V11.875L16.625 8.69299H25.375L27.25 11.875V16.3935C27.2501 18.3632 26.8743 20.3148 26.1427 22.1435C25.7315 23.1713 25.0218 24.0523 24.1052 24.6728C23.1885 25.2934 22.107 25.625 21 25.625Z" fill="#FDC9A6"/>
<path d="M24.75 14.375H22.875C22.7092 14.375 22.5503 14.3092 22.4331 14.1919C22.3158 14.0747 22.25 13.9158 22.25 13.75C22.25 13.5842 22.3158 13.4253 22.4331 13.3081C22.5503 13.1908 22.7092 13.125 22.875 13.125H24.75C24.9158 13.125 25.0747 13.1908 25.1919 13.3081C25.3092 13.4253 25.375 13.5842 25.375 13.75C25.375 13.9158 25.3092 14.0747 25.1919 14.1919C25.0747 14.3092 24.9158 14.375 24.75 14.375Z" fill="#55300B"/>
<path d="M23.6562 16.5625C24.0877 16.5625 24.4375 16.2127 24.4375 15.7812C24.4375 15.3498 24.0877 15 23.6562 15C23.2248 15 22.875 15.3498 22.875 15.7812C22.875 16.2127 23.2248 16.5625 23.6562 16.5625Z" fill="#55300B"/>
<path d="M19.125 14.375H17.25C17.0842 14.375 16.9253 14.3092 16.8081 14.1919C16.6908 14.0747 16.625 13.9158 16.625 13.75C16.625 13.5842 16.6908 13.4253 16.8081 13.3081C16.9253 13.1908 17.0842 13.125 17.25 13.125H19.125C19.2908 13.125 19.4497 13.1908 19.5669 13.3081C19.6842 13.4253 19.75 13.5842 19.75 13.75C19.75 13.9158 19.6842 14.0747 19.5669 14.1919C19.4497 14.3092 19.2908 14.375 19.125 14.375Z" fill="#55300B"/>
<path d="M18.3438 16.5625C18.7752 16.5625 19.125 16.2127 19.125 15.7812C19.125 15.3498 18.7752 15 18.3438 15C17.9123 15 17.5625 15.3498 17.5625 15.7812C17.5625 16.2127 17.9123 16.5625 18.3438 16.5625Z" fill="#55300B"/>
<path d="M22.25 21.875H19.75C19.5842 21.875 19.4253 21.8092 19.3081 21.6919C19.1908 21.5747 19.125 21.4158 19.125 21.25C19.125 21.0842 19.1908 20.9253 19.3081 20.8081C19.4253 20.6908 19.5842 20.625 19.75 20.625H22.25C22.4158 20.625 22.5747 20.6908 22.6919 20.8081C22.8092 20.9253 22.875 21.0842 22.875 21.25C22.875 21.4158 22.8092 21.5747 22.6919 21.6919C22.5747 21.8092 22.4158 21.875 22.25 21.875Z" fill="#E6AF89"/>
<path d="M21.625 19.375H20.375C20.2092 19.375 20.0503 19.3092 19.9331 19.1919C19.8158 19.0747 19.75 18.9158 19.75 18.75V16.875C19.75 16.7092 19.8158 16.5503 19.9331 16.4331C20.0503 16.3158 20.2092 16.25 20.375 16.25C20.5408 16.25 20.6997 16.3158 20.8169 16.4331C20.9342 16.5503 21 16.7092 21 16.875V18.125H21.625C21.7908 18.125 21.9497 18.1908 22.0669 18.3081C22.1842 18.4253 22.25 18.5842 22.25 18.75C22.25 18.9158 22.1842 19.0747 22.0669 19.1919C21.9497 19.3092 21.7908 19.375 21.625 19.375Z" fill="#E6AF89"/>
<path d="M14.75 13.75H13.8863C13.4523 13.75 13.0361 13.9224 12.7292 14.2292C12.4224 14.5361 12.25 14.9523 12.25 15.3863V16.4887C12.25 16.7428 12.3091 16.9933 12.4227 17.2205C12.5586 17.4923 12.7675 17.7209 13.026 17.8806C13.2845 18.0404 13.5824 18.125 13.8863 18.125H15.375L14.75 13.75Z" fill="#FDC9A6"/>
<path d="M27.25 13.75H28.1137C28.5477 13.75 28.9639 13.9224 29.2708 14.2292C29.5776 14.5361 29.75 14.9523 29.75 15.3863V16.4887C29.75 16.7428 29.6909 16.9933 29.5773 17.2205C29.4414 17.4923 29.2325 17.7209 28.974 17.8806C28.7155 18.0404 28.4176 18.125 28.1137 18.125H26.625L27.25 13.75Z" fill="#FDC9A6"/>
</svg>
