<svg width="20" height="20" viewBox="0 0 20 20" fill="none" xmlns="http://www.w3.org/2000/svg">
<g clip-path="url(#clip0_5_4183)">
<path d="M6.25 8.75H2.08332C0.935 8.75 0 9.685 0 10.8333V17.5C0 18.6483 0.935 19.5833 2.08332 19.5833H4.58332C5.73164 19.5833 6.66664 18.6483 6.66664 17.5V9.16668C6.66668 8.93668 6.48 8.75 6.25 8.75Z" fill="#072448"/>
<path d="M19.9997 11.875C19.9997 11.3742 19.8006 10.9075 19.4581 10.5625C19.8472 10.1367 20.0456 9.56503 19.9906 8.97171C19.8931 7.91253 18.9381 7.08339 17.8172 7.08339H12.6706C12.9247 6.30921 13.3331 4.89007 13.3331 3.75007C13.3331 1.94257 11.7972 0.416748 10.8331 0.416748C9.96724 0.416748 9.34888 0.903428 9.32224 0.924248C9.22306 1.00343 9.16642 1.12343 9.16642 1.25007V4.07507L7.2931 8.13339C7.2356 8.25921 7.2431 8.40507 7.31478 8.52339C7.43728 8.72589 7.49978 8.94257 7.49978 9.16589V17.4992C7.49978 17.7 7.47646 17.9042 7.4281 18.125C7.37892 18.3492 7.51978 18.5708 7.7431 18.6208C8.10892 18.7033 8.46728 18.7492 8.74978 18.7492H16.399C17.3065 18.7492 18.1006 18.1375 18.2865 17.2934C18.3823 16.8592 18.3256 16.4208 18.1365 16.0417C18.7523 15.7317 19.1665 15.0967 19.1665 14.3742C19.1665 14.08 19.099 13.7967 18.9706 13.5408C19.5856 13.2317 19.9997 12.5975 19.9997 11.875Z" fill="#072448"/>
</g>
<defs>
<clipPath id="clip0_5_4183">
<rect width="20" height="20" fill="white"/>
</clipPath>
</defs>
</svg>
