<svg width="20" height="20" viewBox="0 0 20 20" fill="none" xmlns="http://www.w3.org/2000/svg">
<g clip-path="url(#clip0_5_4197)">
<path d="M19.5519 4.44197L15.7651 0.655176C15.4781 0.368258 15.089 0.207099 14.6833 0.207099H14.0518V5.86762C14.0518 6.24659 13.7446 6.55382 13.3656 6.55382H4.23358C3.85461 6.55382 3.54739 6.24659 3.54739 5.86762V0.207031H1.52989C0.684976 0.207031 0 0.892007 0 1.73699V18.2629C0 19.1078 0.684976 19.7928 1.52989 19.7928H18.4701C19.315 19.7928 20 19.1078 20 18.2629V5.52378C20 5.11808 19.8388 4.72889 19.5519 4.44197Z" fill="#F8AA4B"/>
<path d="M11.1054 5.20005H12.2786C12.5154 5.20005 12.7073 5.0081 12.7073 4.7714V1.61273C12.7073 1.37597 12.5154 1.18408 12.2786 1.18408H11.1054C10.8686 1.18408 10.6768 1.37597 10.6768 1.61273V4.7714C10.6768 5.0081 10.8687 5.20005 11.1054 5.20005Z" fill="#F8AA4B"/>
</g>
<defs>
<clipPath id="clip0_5_4197">
<rect width="20" height="20" fill="white"/>
</clipPath>
</defs>
</svg>
