<svg width="20" height="20" viewBox="0 0 20 20" fill="none" xmlns="http://www.w3.org/2000/svg">
<path d="M3.18555 3.82628C3.18555 5.9361 4.90195 7.65244 7.01177 7.65244C9.12164 7.65244 10.838 5.9361 10.838 3.82628C10.838 1.71646 9.12164 0 7.01177 0C4.90195 0 3.18555 1.71646 3.18555 3.82628Z" fill="#33BFBF"/>
<path d="M13.2554 15.9212C13.434 16.0997 13.6681 16.1891 13.9021 16.1891C14.1362 16.1891 14.3703 16.0997 14.5489 15.9211C14.906 15.5639 14.906 14.9848 14.5488 14.6276L13.3663 13.4452L14.5489 12.2625C14.9061 11.9053 14.9061 11.3262 14.5489 10.969C14.1917 10.6119 13.6125 10.6119 13.2553 10.9691L11.4261 12.7984C11.2545 12.97 11.1582 13.2027 11.1582 13.4452C11.1582 13.6878 11.2545 13.9205 11.4261 14.092L13.2554 15.9212Z" fill="#33BFBF"/>
<path d="M0.914634 17.4086H8.57293C9.74646 18.8932 11.5626 19.8476 13.5976 19.8476C17.1278 19.8476 20 16.9755 20 13.4452C20 9.91492 17.1278 7.04272 13.5976 7.04272C11.4946 7.04272 9.62531 8.06199 8.4575 9.63236C7.98409 9.53309 7.50049 9.48175 7.0122 9.48175C3.14567 9.48175 0 12.6274 0 16.4939C0 16.9991 0.409512 17.4086 0.914634 17.4086ZM13.5976 8.87199C16.1192 8.87199 18.1707 10.9235 18.1707 13.4452C18.1707 15.9668 16.1192 18.0183 13.5976 18.0183C11.0759 18.0183 9.02439 15.9668 9.02439 13.4452C9.02439 10.9235 11.0759 8.87199 13.5976 8.87199Z" fill="#33BFBF"/>
</svg>
