<svg width="54" height="52" viewBox="0 0 54 52" fill="none" xmlns="http://www.w3.org/2000/svg">
<path d="M41.6997 26.6508C40.8813 26.6508 40.0686 26.7319 39.2703 26.8928C39.1285 24.851 38.4828 22.8822 37.3816 21.1532C36.286 19.433 34.7857 18.0175 33.0171 17.0241V14.1396H36.4912C36.4922 14.1394 36.4928 14.1396 36.4934 14.1396C37.1021 14.1396 37.5955 13.6461 37.5955 13.0376C37.5955 12.7438 37.4805 12.4769 37.2932 12.2793L27.8402 1.13829C27.6308 0.891541 27.3236 0.749268 26.9999 0.749268C26.6763 0.749268 26.3689 0.891541 26.1596 1.13829L16.6684 12.3247C16.3907 12.6521 16.3282 13.1111 16.5087 13.5007C16.6891 13.8903 17.0793 14.1397 17.5087 14.1397H20.9824V17.0244C19.214 18.0178 17.714 19.4332 16.6186 21.1532C15.5173 22.8824 14.8716 24.8511 14.7297 26.8929C13.9313 26.732 13.1185 26.6509 12.2999 26.6509C5.5177 26.6508 0 32.1687 0 38.951C0 45.7331 5.5177 51.2507 12.3 51.2507H41.6996C48.4821 51.2507 54 45.7331 54 38.951C54 32.1687 48.4821 26.6508 41.6997 26.6508ZM19.889 11.9356L26.9999 3.55473L34.1109 11.9356H31.9151C31.3066 11.9356 30.8131 12.429 30.8131 13.0377V27.1566H23.1865V13.0377C23.1865 12.429 22.693 11.9356 22.0845 11.9356H19.889ZM41.6997 49.0467H12.3C6.73314 49.0467 2.20408 44.5177 2.20408 38.951C2.20408 33.3839 6.73314 28.8549 12.3 28.8549C13.3788 28.8549 14.4455 29.0268 15.4706 29.3654C15.8157 29.4793 16.2193 29.4442 16.4847 29.1953C16.9197 28.7871 16.9006 28.2368 16.9041 27.7529C16.9273 24.4938 18.4304 21.5235 20.9825 19.6408V28.2587C20.9825 28.8673 21.4759 29.3608 22.0846 29.3608H31.9152C32.5238 29.3608 33.0173 28.8673 33.0173 28.2587V19.6403C35.5697 21.5231 37.1063 24.4934 37.0961 27.7529C37.094 28.4151 37.2257 28.9742 37.515 29.195C37.8043 29.4159 38.1839 29.4798 38.5294 29.3654C39.5546 29.0268 40.6211 28.8549 41.6998 28.8549C47.267 28.8549 51.796 33.384 51.796 38.951C51.7959 44.5177 47.2667 49.0467 41.6997 49.0467Z" fill="#33BFBF"/>
</svg>
