<svg width="35" height="35" viewBox="0 0 35 35" fill="none" xmlns="http://www.w3.org/2000/svg">
<path d="M35 17.5C35 7.83508 27.1649 0 17.5 0C7.83507 0 0 7.83508 0 17.5C0 26.2347 6.39956 33.4745 14.7656 34.7874V22.5587H10.3221V17.5H14.7656V13.6446C14.7656 9.25867 17.3784 6.83589 21.3757 6.83589C23.2903 6.83589 25.2931 7.17759 25.2931 7.17759V11.4842H23.0863C20.9124 11.4842 20.2344 12.8331 20.2344 14.2173V17.5H25.088L24.312 22.5587H20.2344V34.7874C28.6004 33.4745 35 26.2347 35 17.5Z" fill="#4676ED"/>
<path d="M24.3122 22.5587L25.0881 17.5H20.2345V14.2172C20.2345 12.8333 20.9125 11.4841 23.0864 11.4841H25.2932V7.17758C25.2932 7.17758 23.2904 6.83588 21.3758 6.83588C17.3785 6.83588 14.7657 9.25866 14.7657 13.6445V17.5H10.3223V22.5587H14.7657V34.7874C15.6568 34.9274 16.5699 35 17.5001 35C18.4303 35 19.3434 34.9271 20.2345 34.7874V22.5587H24.3122Z" fill="white"/>
</svg>
