<svg width="9" height="10" viewBox="0 0 9 10" fill="none" xmlns="http://www.w3.org/2000/svg">
<g clip-path="url(#clip0_1_2646)">
<path d="M2.55628 5.2742H3.47634V9.06193C3.47634 9.13672 3.53693 9.19731 3.61172 9.19731H5.17171C5.2465 9.19731 5.30709 9.13672 5.30709 9.06193V5.29204H6.36478C6.43355 5.29204 6.49141 5.24044 6.49926 5.17212L6.6599 3.77767C6.66432 3.7393 6.65216 3.70088 6.62649 3.6721C6.6008 3.64329 6.56403 3.6268 6.52545 3.6268H5.30715V2.75269C5.30715 2.48919 5.44902 2.35557 5.72888 2.35557C5.76876 2.35557 6.52545 2.35557 6.52545 2.35557C6.60023 2.35557 6.66082 2.29495 6.66082 2.22019V0.940214C6.66082 0.86543 6.60023 0.804835 6.52545 0.804835H5.42766C5.41992 0.804456 5.40272 0.803833 5.37738 0.803833C5.1869 0.803833 4.52482 0.841225 4.00182 1.32236C3.42235 1.85554 3.5029 2.49393 3.52215 2.60461V3.62678H2.55628C2.48149 3.62678 2.4209 3.68737 2.4209 3.76216V5.13879C2.4209 5.21358 2.48149 5.2742 2.55628 5.2742Z" fill="#33BFBF"/>
</g>
<defs>
<clipPath id="clip0_1_2646">
<rect width="8.39348" height="8.39348" fill="white" transform="translate(0.344238 0.803833)"/>
</clipPath>
</defs>
</svg>
