<svg width="9" height="8" viewBox="0 0 9 8" fill="none" xmlns="http://www.w3.org/2000/svg">
<path d="M4.76742 4.74766V3.28405H8.45006C8.50515 3.53192 8.54843 3.76405 8.54843 4.09061C8.54843 6.33718 7.04153 7.93456 4.77136 7.93456C2.59955 7.93456 0.836914 6.17193 0.836914 4.00012C0.836914 1.82831 2.59955 0.0656738 4.77136 0.0656738C5.83366 0.0656738 6.72284 0.455184 7.4035 1.09256L6.28612 2.17847C6.00284 1.91093 5.5071 1.59617 4.77136 1.59617C3.46906 1.59617 2.40676 2.67815 2.40676 4.00405C2.40676 5.32996 3.46906 6.41193 4.77136 6.41193C6.27825 6.41193 6.83301 5.36931 6.9353 4.7516H4.76742V4.74766Z" fill="#33BFBF"/>
</svg>
