<svg width="35" height="35" viewBox="0 0 35 35" fill="none" xmlns="http://www.w3.org/2000/svg">
<path d="M17.5 35C7.83473 35 0 27.1707 0 17.5122C0 7.82927 7.83473 0 17.5 0C27.1653 0 35 7.82927 35 17.5122C35 27.1707 27.1653 35 17.5 35Z" fill="url(#paint0_radial_8_4522)"/>
<path fill-rule="evenodd" clip-rule="evenodd" d="M21.4542 7.9756C22.4793 8.02438 23.1627 8.17073 23.7729 8.41463C24.4075 8.65853 24.9445 8.9756 25.4814 9.51219C26.0184 10.0488 26.3357 10.5854 26.5797 11.2195C26.8238 11.8293 26.9947 12.5366 27.0435 13.5366C27.0923 14.561 27.0923 14.9024 27.0923 17.5122C27.0923 20.0976 27.0923 20.439 27.0435 21.4634C26.9947 22.4878 26.8238 23.1707 26.5797 23.7805C26.3357 24.4146 26.0184 24.9512 25.4814 25.4878C24.9445 26.0244 24.4075 26.3415 23.7729 26.5854C23.1627 26.8293 22.4793 27 21.4542 27.0244C20.4291 27.0732 20.1118 27.0976 17.5002 27.0976C14.8887 27.0976 14.5714 27.0732 13.5463 27.0244C12.5212 27 11.8134 26.8293 11.2032 26.5854C10.5686 26.3415 10.0316 26.0244 9.51908 25.4878C8.98212 24.9512 8.64042 24.4146 8.39635 23.7805C8.15228 23.1707 8.00584 22.4878 7.95702 21.4634C7.90821 20.439 7.9082 20.0976 7.9082 17.5122C7.9082 14.9024 7.90821 14.561 7.95702 13.5366C8.00584 12.5366 8.15228 11.8293 8.39635 11.2195C8.64042 10.5854 8.98212 10.0488 9.51908 9.51219C10.0316 8.9756 10.5686 8.65853 11.2032 8.41463C11.8134 8.17073 12.5212 8.02438 13.5463 7.9756C14.5714 7.92682 14.8887 7.90244 17.5002 7.90244C20.1118 7.90244 20.4291 7.92682 21.4542 7.9756V7.9756ZM13.6195 9.68292C12.692 9.7317 12.1795 9.90243 11.8378 10.0244C11.3984 10.1951 11.0567 10.4146 10.7394 10.7317C10.3977 11.0732 10.1781 11.3902 10.0072 11.8537C9.88518 12.1707 9.71434 12.6829 9.68993 13.6341C9.64111 14.6341 9.61671 14.9512 9.61671 17.5122C9.61671 20.0732 9.64111 20.3658 9.68993 21.3658C9.71434 22.3171 9.88518 22.8293 10.0072 23.1463C10.1781 23.6098 10.3977 23.9268 10.7394 24.2683C11.0567 24.5854 11.3984 24.8049 11.8378 24.9756C12.1795 25.1219 12.692 25.2683 13.6195 25.3171C14.6202 25.3658 14.9375 25.3658 17.5002 25.3658C20.063 25.3658 20.3559 25.3658 21.381 25.3171C22.3085 25.2683 22.821 25.1219 23.1627 24.9756C23.6021 24.8049 23.9194 24.5854 24.2611 24.2683C24.6028 23.9268 24.798 23.6098 24.9689 23.1463C25.1153 22.8293 25.2618 22.3171 25.3106 21.3658C25.3594 20.3658 25.3594 20.0732 25.3594 17.5122C25.3594 14.9512 25.3594 14.6341 25.3106 13.6341C25.2618 12.6829 25.1153 12.1707 24.9689 11.8537C24.798 11.3902 24.6028 11.0732 24.2611 10.7317C23.9194 10.4146 23.6021 10.1951 23.1627 10.0244C22.821 9.90243 22.3085 9.7317 21.381 9.68292C20.3559 9.65853 20.063 9.63414 17.5002 9.63414C14.9375 9.63414 14.6202 9.65853 13.6195 9.68292Z" fill="white"/>
<path fill-rule="evenodd" clip-rule="evenodd" d="M22.4308 17.5122C22.4308 20.2195 20.2098 22.439 17.5006 22.439C14.767 22.439 12.5703 20.2195 12.5703 17.5122C12.5703 14.7805 14.767 12.5854 17.5006 12.5854C20.2098 12.5854 22.4308 14.7805 22.4308 17.5122ZM20.6979 17.5122C20.6979 15.7317 19.2579 14.2927 17.5006 14.2927C15.7189 14.2927 14.3032 15.7317 14.3032 17.5122C14.3032 19.2683 15.7189 20.7073 17.5006 20.7073C19.2579 20.7073 20.6979 19.2683 20.6979 17.5122Z" fill="white"/>
<path d="M23.7728 12.3902C23.7728 13.0244 23.2602 13.5366 22.6257 13.5366C21.9911 13.5366 21.4785 13.0244 21.4785 12.3902C21.4785 11.7561 21.9911 11.2195 22.6257 11.2195C23.2602 11.2195 23.7728 11.7561 23.7728 12.3902Z" fill="white"/>
<defs>
<radialGradient id="paint0_radial_8_4522" cx="0" cy="0" r="1" gradientUnits="userSpaceOnUse" gradientTransform="translate(-0.878665 35.122) scale(64.728 64.6829)">
<stop stop-color="#EEEC52"/>
<stop offset="0.2" stop-color="#F4834B"/>
<stop offset="0.5" stop-color="#EC3E81"/>
<stop offset="1" stop-color="#1D58A7"/>
</radialGradient>
</defs>
</svg>
