<svg width="9" height="9" viewBox="0 0 9 9" fill="none" xmlns="http://www.w3.org/2000/svg">
<g clip-path="url(#clip0_1_2662)">
<path d="M6.08232 0.328125H2.9018C1.60921 0.328125 0.557617 1.37972 0.557617 2.67231V5.85283C0.557617 7.14542 1.60921 8.19701 2.9018 8.19701H6.08232C7.37491 8.19701 8.42651 7.14542 8.42651 5.85283V2.67231C8.42649 1.37972 7.3749 0.328125 6.08232 0.328125ZM7.6349 5.85283C7.6349 6.71029 6.93978 7.4054 6.08232 7.4054H2.9018C2.04435 7.4054 1.34923 6.71029 1.34923 5.85283V2.67231C1.34923 1.81484 2.04435 1.11973 2.9018 1.11973H6.08232C6.93978 1.11973 7.6349 1.81484 7.6349 2.67231V5.85283Z" fill="#33BFBF"/>
<path d="M4.49221 2.22742C3.37001 2.22742 2.45703 3.14039 2.45703 4.26258C2.45703 5.38476 3.37001 6.29775 4.49221 6.29775C5.6144 6.29775 6.52738 5.38477 6.52738 4.26258C6.52738 3.14038 5.6144 2.22742 4.49221 2.22742ZM4.49221 5.50616C3.8054 5.50616 3.24864 4.9494 3.24864 4.26259C3.24864 3.57578 3.80541 3.01903 4.49221 3.01903C5.17901 3.01903 5.73577 3.57578 5.73577 4.26259C5.73577 4.94938 5.179 5.50616 4.49221 5.50616Z" fill="#33BFBF"/>
<path d="M6.53111 2.73044C6.80044 2.73044 7.01877 2.51211 7.01877 2.24278C7.01877 1.97346 6.80044 1.75513 6.53111 1.75513C6.26179 1.75513 6.04346 1.97346 6.04346 2.24278C6.04346 2.51211 6.26179 2.73044 6.53111 2.73044Z" fill="#33BFBF"/>
</g>
<defs>
<clipPath id="clip0_1_2662">
<rect width="7.86889" height="7.86889" fill="white" transform="translate(0.557617 0.328125)"/>
</clipPath>
</defs>
</svg>
