<svg width="35" height="35" viewBox="0 0 35 35" fill="none" xmlns="http://www.w3.org/2000/svg">
<path d="M17.5 35C27.165 35 35 27.165 35 17.5C35 7.83502 27.165 0 17.5 0C7.83502 0 0 7.83502 0 17.5C0 27.165 7.83502 35 17.5 35Z" fill="#4467AD"/>
<path d="M18.854 15.1125C19.1413 14.7895 19.3782 14.4615 19.6735 14.1836C20.5809 13.3283 21.6548 12.8966 22.9081 12.9072C23.5966 12.9129 24.2777 12.9627 24.9419 13.1548C26.4607 13.594 27.3437 14.6396 27.7645 16.1233C28.0803 17.2361 28.1383 18.3784 28.1404 19.5246C28.1446 21.9419 28.1334 24.3595 28.1386 26.7768C28.1391 27.0032 28.0759 27.0625 27.8526 27.0607C26.6074 27.0503 25.3619 27.0501 24.1164 27.061C23.8974 27.0628 23.8502 26.9951 23.851 26.788C23.8577 24.4878 23.8595 22.1874 23.8523 19.8873C23.8502 19.3109 23.8136 18.7349 23.6519 18.1743C23.3542 17.142 22.6151 16.6159 21.5335 16.673C20.0567 16.751 19.2888 17.4821 19.1003 18.984C19.0552 19.3426 19.0339 19.7016 19.0342 20.0631C19.0363 22.2999 19.0319 24.5373 19.0402 26.7742C19.0409 26.9972 18.9849 27.0631 18.757 27.061C17.5027 27.0498 16.2479 27.0511 14.9936 27.0602C14.7927 27.0618 14.7344 27.0073 14.7346 26.8041C14.7401 22.3751 14.7403 17.9459 14.7344 13.5168C14.7341 13.2977 14.8059 13.2469 15.0131 13.2484C16.2044 13.2572 17.3957 13.2583 18.587 13.2476C18.8063 13.2458 18.8626 13.3166 18.8579 13.5243C18.8457 14.0534 18.854 14.5831 18.854 15.1125Z" fill="#FEFEFE"/>
<path d="M12.0298 20.1743C12.0298 22.3655 12.0259 24.5565 12.035 26.7478C12.036 26.9912 11.9756 27.0649 11.7234 27.062C10.4787 27.0483 9.23346 27.0514 7.98875 27.0602C7.78913 27.0615 7.72898 27.0117 7.7295 26.8056C7.7352 22.3691 7.73493 17.9327 7.73052 13.4965C7.73026 13.313 7.77487 13.2474 7.96983 13.2487C9.23268 13.2567 10.4958 13.2593 11.7586 13.2471C12.0013 13.2448 12.0342 13.3389 12.034 13.5468C12.0277 15.756 12.0298 17.9651 12.0298 20.1743Z" fill="#FEFEFE"/>
<path d="M12.3738 8.85215C12.3751 10.2278 11.2582 11.3486 9.88592 11.3491C8.53077 11.3496 7.40481 10.2278 7.40041 8.87367C7.39574 7.50426 8.52117 6.377 9.89084 6.3783C11.2512 6.37933 12.3722 7.49648 12.3738 8.85215Z" fill="#FEFEFE"/>
</svg>
