<svg width="9" height="8" viewBox="0 0 9 8" fill="none" xmlns="http://www.w3.org/2000/svg">
<g clip-path="url(#clip0_1_2669)">
<path d="M2.77664 6.68021C2.77664 7.22935 2.33162 7.67252 1.78156 7.67252C1.23408 7.67252 0.789062 7.22916 0.789062 6.68021C0.789062 6.13292 1.23408 5.68494 1.78156 5.68494C2.33144 5.68494 2.77664 6.13292 2.77664 6.68021Z" fill="#33BFBF"/>
<path d="M5.00697 7.61691C4.64588 7.61691 4.36149 7.10741 4.16436 6.52604C3.99058 6.01358 3.701 5.54484 3.30878 5.15207C2.91768 4.75985 2.45172 4.46991 1.94353 4.29575C1.36271 4.09659 0.853027 3.81294 0.853027 3.45296C0.853027 3.09298 1.35733 2.79488 1.95335 2.94217C3.70637 3.37515 5.08904 4.76041 5.52072 6.5164C5.66709 7.1126 5.36806 7.61691 5.00697 7.61691Z" fill="#33BFBF"/>
<path d="M7.55347 7.61709C7.19331 7.61709 6.90614 7.11538 6.78924 6.51269C6.31587 4.07268 4.39369 2.14513 1.96017 1.66954C1.35767 1.5519 0.855957 1.26528 0.855957 0.905675C0.855957 0.545881 1.35637 0.249819 1.96258 0.346715C5.11532 0.851206 7.61146 3.35198 8.1141 6.5101C8.21044 7.11649 7.91383 7.61709 7.55347 7.61709Z" fill="#33BFBF"/>
</g>
<defs>
<clipPath id="clip0_1_2669">
<rect width="7.3443" height="7.3443" fill="white" transform="translate(0.788574 0.328125)"/>
</clipPath>
</defs>
</svg>
