<svg width="35" height="35" viewBox="0 0 35 35" fill="none" xmlns="http://www.w3.org/2000/svg">
<path d="M17.5 35C27.165 35 35 27.165 35 17.5C35 7.83502 27.165 0 17.5 0C7.835 0 0 7.83502 0 17.5C0 27.165 7.835 35 17.5 35Z" fill="#5A99EC"/>
<path d="M13.9642 27.5787C22.5115 27.5787 27.1857 20.4976 27.1857 14.3573C27.1857 14.1561 27.1813 13.9557 27.1722 13.7566C28.0793 13.1007 28.8683 12.2822 29.4902 11.3507C28.6575 11.7204 27.7615 11.9698 26.8217 12.082C27.7809 11.507 28.5175 10.5967 28.8652 9.51147C27.9668 10.0437 26.9728 10.4308 25.9143 10.6395C25.0662 9.73625 23.8589 9.17133 22.5224 9.17133C19.9562 9.17133 17.8749 11.2524 17.8749 13.8178C17.8749 14.1826 17.9156 14.537 17.9954 14.8774C14.1335 14.6832 10.709 12.8339 8.41737 10.0222C8.01786 10.7087 7.78788 11.5067 7.78788 12.3579C7.78788 13.97 8.60818 15.3933 9.85599 16.2258C9.09377 16.2024 8.37744 15.993 7.75133 15.6445C7.75029 15.664 7.7503 15.6834 7.7503 15.7039C7.7503 17.9545 9.35227 19.8334 11.4785 20.2596C11.088 20.3659 10.6773 20.4229 10.2532 20.4229C9.954 20.4229 9.66285 20.3934 9.37974 20.3392C9.97137 22.1854 11.6866 23.5289 13.7208 23.5667C12.13 24.8132 10.1267 25.5557 7.94941 25.5557C7.57452 25.5557 7.20456 25.5342 6.84082 25.4914C8.89752 26.8095 11.3395 27.5787 13.9642 27.5787Z" fill="white"/>
</svg>
