<svg width="10" height="10" viewBox="0 0 10 10" fill="none" xmlns="http://www.w3.org/2000/svg">
<g clip-path="url(#clip0_1_2657)">
<path d="M9.50896 2.02685C9.36062 2.09265 9.20811 2.14818 9.05227 2.19326C9.23677 1.9846 9.37743 1.7391 9.4633 1.47044C9.48255 1.41022 9.4626 1.3443 9.4131 1.30492C9.36367 1.2655 9.29498 1.26078 9.24055 1.29304C8.9096 1.48932 8.55254 1.63038 8.17816 1.71287C7.80103 1.34436 7.28881 1.13464 6.75929 1.13464C5.64155 1.13464 4.73219 2.04397 4.73219 3.16168C4.73219 3.24971 4.73777 3.33725 4.74879 3.42357C3.36179 3.30179 2.07232 2.62007 1.18684 1.53389C1.15528 1.49517 1.10667 1.47431 1.05689 1.4783C1.00709 1.48219 0.962345 1.51028 0.937185 1.55344C0.757591 1.86161 0.662647 2.21406 0.662647 2.57267C0.662647 3.0611 0.837032 3.52452 1.14508 3.88663C1.05141 3.85419 0.960517 3.81365 0.873767 3.76549C0.827193 3.73957 0.770354 3.73996 0.724085 3.7665C0.677786 3.79303 0.648757 3.84182 0.647539 3.89516C0.647325 3.90414 0.647325 3.91313 0.647325 3.92224C0.647325 4.6513 1.03971 5.30769 1.63963 5.66544C1.58809 5.6603 1.53658 5.65283 1.48541 5.64306C1.43265 5.63297 1.3784 5.65146 1.34282 5.6917C1.30719 5.73191 1.2954 5.78796 1.31182 5.83913C1.53387 6.5324 2.10558 7.04234 2.79672 7.1978C2.22349 7.55684 1.56795 7.7449 0.879798 7.7449C0.736208 7.7449 0.591796 7.73646 0.450461 7.71974C0.38025 7.71139 0.313116 7.75285 0.289205 7.81962C0.265293 7.88642 0.290636 7.96089 0.350369 7.99918C1.23442 8.56602 2.25663 8.86562 3.30644 8.86562C5.37024 8.86562 6.6613 7.89242 7.38092 7.07599C8.27828 6.05798 8.79293 4.71052 8.79293 3.37913C8.79293 3.32351 8.79208 3.26734 8.79037 3.21136C9.14441 2.94462 9.44923 2.6218 9.69727 2.25077C9.73495 2.19441 9.73087 2.11994 9.68722 2.06807C9.64363 2.01616 9.57098 1.99938 9.50896 2.02685Z" fill="#33BFBF"/>
</g>
<defs>
<clipPath id="clip0_1_2657">
<rect width="9.44267" height="9.44267" fill="white" transform="translate(0.280273 0.278809)"/>
</clipPath>
</defs>
</svg>
