<svg width="35" height="35" viewBox="0 0 35 35" fill="none" xmlns="http://www.w3.org/2000/svg">
<path d="M17.5 35C27.165 35 35 27.165 35 17.5C35 7.83502 27.165 0 17.5 0C7.83502 0 0 7.83502 0 17.5C0 27.165 7.83502 35 17.5 35Z" fill="url(#paint0_linear_8_4602)"/>
<path fill-rule="evenodd" clip-rule="evenodd" d="M25.9176 9.29728C23.8218 7.19962 21.0342 6.04384 18.0647 6.04254C11.9454 6.04254 6.96527 11.0208 6.96319 17.1399C6.96216 19.0957 7.47342 21.0052 8.44512 22.688L6.87012 28.4389L12.755 26.8955C14.3767 27.7796 16.2024 28.2458 18.0603 28.2463H18.0649C18.0654 28.2463 18.0647 28.2463 18.0649 28.2463C24.1834 28.2463 29.1641 23.2675 29.1664 17.1484C29.1672 14.1833 28.0137 11.3947 25.9176 9.29728ZM18.0647 26.3721H18.0608C16.4052 26.3716 14.7814 25.9269 13.3646 25.0864L13.0275 24.8865L9.53529 25.8025L10.4676 22.3987L10.248 22.0497C9.32426 20.581 8.8366 18.8837 8.83738 17.1407C8.83945 12.0548 12.9788 7.91698 18.0683 7.91698C20.5328 7.91776 22.8493 8.87858 24.5915 10.6221C26.3337 12.3656 27.2925 14.6834 27.2917 17.1479C27.2896 22.2343 23.1503 26.3721 18.0647 26.3721ZM23.1259 19.4639C22.8485 19.3249 21.4848 18.6542 21.2302 18.5616C20.9761 18.4691 20.7913 18.4227 20.6062 18.7004C20.4213 18.978 19.8896 19.6026 19.7278 19.7877C19.566 19.9728 19.4043 19.9959 19.1271 19.8572C18.8497 19.7185 17.9558 19.4255 16.8964 18.4808C16.0717 17.7455 15.5151 16.8373 15.3533 16.5597C15.1916 16.282 15.3362 16.1319 15.4752 15.9937C15.5996 15.8695 15.7523 15.6696 15.891 15.5078C16.0297 15.3461 16.0759 15.2302 16.1682 15.0451C16.2608 14.8599 16.2146 14.6982 16.1451 14.5592C16.0756 14.4202 15.5211 13.0555 15.2898 12.5002C15.0648 11.9596 14.8361 12.0327 14.6658 12.0242C14.5043 12.0161 14.3192 12.0143 14.134 12.0143C13.9492 12.0143 13.6487 12.0838 13.3944 12.3612C13.14 12.6389 12.4234 13.3096 12.4234 14.6746C12.4234 16.0396 13.4175 17.3582 13.5562 17.543C13.6949 17.7279 15.512 20.5292 18.2946 21.7301C18.9565 22.0158 19.4732 22.1864 19.8761 22.3142C20.5406 22.5252 21.1454 22.4954 21.6233 22.4241C22.156 22.3445 23.2644 21.7531 23.4956 21.1055C23.7269 20.4579 23.7269 19.9025 23.6574 19.7869C23.5879 19.6713 23.4033 19.6026 23.1259 19.4639Z" fill="white"/>
<defs>
<linearGradient id="paint0_linear_8_4602" x1="17.5" y1="32.4572" x2="17.5" y2="-2.54276" gradientUnits="userSpaceOnUse">
<stop stop-color="#78CD51"/>
<stop offset="1" stop-color="#A0FC84"/>
</linearGradient>
</defs>
</svg>
