<svg width="35" height="35" viewBox="0 0 35 35" fill="none" xmlns="http://www.w3.org/2000/svg">
<path d="M17.5 35C27.165 35 35 27.165 35 17.5C35 7.83502 27.165 0 17.5 0C7.83502 0 0 7.83502 0 17.5C0 27.165 7.83502 35 17.5 35Z" fill="#DA0000"/>
<path d="M28.6787 11.8839C28.4103 10.8801 27.6199 10.0893 26.6157 9.82101C24.796 9.33335 17.4997 9.33334 17.4997 9.33334C17.4997 9.33334 10.2031 9.33335 8.38333 9.82101C7.37948 10.0893 6.58875 10.8801 6.32042 11.8839C5.83301 13.7034 5.83301 17.5 5.83301 17.5C5.83301 17.5 5.833 21.2966 6.32067 23.1163C6.589 24.1205 7.37949 24.9109 8.3836 25.1793C10.2033 25.6667 17.4999 25.6667 17.4999 25.6667C17.4999 25.6667 24.7965 25.6667 26.616 25.1793C27.6201 24.9109 28.4106 24.1205 28.6789 23.1163C29.1663 21.2966 29.1663 17.5 29.1663 17.5C29.1663 17.5 29.1663 13.7034 28.6787 11.8839ZM15.1663 21V14L21.2283 17.5L15.1663 21Z" fill="white"/>
</svg>
